<svg width="1536" height="3456" viewBox="0 0 1536 3456" version="1.1" xmlns="http://www.w3.org/2000/svg" xmlns:xlink="http://www.w3.org/1999/xlink">
<title>/a</title>
<desc>Created using Figma</desc>
<g id="Canvas" transform="translate(-2843 -25541)">
<g id="Bold/a">
<g id="Vector">
<use xlink:href="#path0_fill" transform="translate(2935 26841)"/>
</g>
</g>
</g>
<defs>
<path id="path0_fill" d="M 872 1516L 1292 1516L 1292 532C 1292 176 1032 0 680 0C 288 0 32 208 32 484L 476 484C 476 376 544 324 656 324C 792 324 848 404 848 528L 848 608L 692 608C 224 608 0 788 0 1096C 0 1360 228 1544 504 1544C 696 1544 800 1464 860 1384L 872 1384L 872 1516ZM 848 856L 848 1088C 816 1152 728 1212 608 1212C 508 1212 444 1156 444 1072C 444 960 512 856 696 856L 848 856Z"/>
</defs>
</svg>
