<svg width="1536" height="3456" viewBox="0 0 1536 3456" version="1.1" xmlns="http://www.w3.org/2000/svg" xmlns:xlink="http://www.w3.org/1999/xlink">
<title>/e</title>
<desc>Created using Figma</desc>
<g id="Canvas" transform="translate(-6343 -25541)">
<g id="Bold/e">
<g id="Vector">
<use xlink:href="#path0_fill" transform="translate(6423 26841)"/>
</g>
</g>
</g>
<defs>
<path id="path0_fill" d="M 756 1544C 1044 1544 1248 1412 1340 1280L 1136 1032C 1048 1140 916 1184 784 1184C 572 1184 440 1040 440 820L 440 768C 440 548 500 356 704 356C 876 356 952 500 952 628L 172 628L 172 916L 1380 916L 1380 728C 1380 284 1132 0 708 0C 248 0 0 336 0 768L 0 820C 0 1212 280 1544 756 1544Z"/>
</defs>
</svg>
