<svg width="1792" height="3456" viewBox="0 0 1792 3456" version="1.1" xmlns="http://www.w3.org/2000/svg" xmlns:xlink="http://www.w3.org/1999/xlink">
<title>/five</title>
<desc>Created using Figma</desc>
<g id="Canvas" transform="translate(-1391 -25541)">
<g id="Bold/five">
<g id="Vector">
<use xlink:href="#path0_fill" transform="translate(1595 26353)"/>
</g>
</g>
</g>
<defs>
<path id="path0_fill" d="M 396 1112C 436 1064 508 1008 644 1008C 852 1008 944 1132 944 1328C 944 1512 884 1672 692 1672C 548 1672 456 1580 444 1436L 0 1436C 0 1804 344 2032 696 2032C 1168 2032 1384 1704 1384 1360C 1384 928 1124 688 788 688C 610.867 688 519 753 485.5 803L 476 803L 524 360L 1320 360L 1320 0L 164 0L 44 1024L 396 1112Z"/>
</defs>
</svg>
