<svg width="1792" height="3456" viewBox="0 0 1792 3456" version="1.1" xmlns="http://www.w3.org/2000/svg" xmlns:xlink="http://www.w3.org/1999/xlink">
<title>/nine</title>
<desc>Created using Figma</desc>
<g id="Canvas" transform="translate(2265 -29097)">
<g id="Bold/nine">
<g id="Vector">
<use xlink:href="#path0_fill" transform="translate(-2081 29884)"/>
</g>
</g>
</g>
<defs>
<path id="path0_fill" d="M 446 1484L 16 1484C 84 1816 287 2063 687 2063C 1241.97 2030.65 1428.58 1634.7 1420 976L 1420 898C 1420 320 1116 0 692 0C 284 0 0 300 0 692C 0 1080 200 1380 568 1380C 920 1380 1120 1096 1120 876L 976 764C 976 888 896 1024 716 1024C 552 1024 444 896 444 692C 444 500 548 360 704 360C 876 360 976 480 976 740L 976 1088C 980.914 1474.5 880.989 1694.01 694 1696C 547.978 1697.55 493 1635 446 1484Z"/>
</defs>
</svg>
