<svg width="2560" height="3456" viewBox="0 0 2560 3456" version="1.1" xmlns="http://www.w3.org/2000/svg" xmlns:xlink="http://www.w3.org/1999/xlink">
<title>/placeofinterestsign</title>
<desc>Created using Figma</desc>
<g id="Canvas" transform="translate(-9175 -36509)">
<g id="Bold/placeofinterestsign">
<g id="Union">
<use xlink:href="#path0_fill" transform="translate(9400 37246)"/>
</g>
</g>
</g>
<defs>
<path id="path0_fill" fill-rule="evenodd" d="M 995.979 497.988C 995.979 222.957 773.021 0 497.989 0C 222.957 0 0 222.957 0 497.988C 0 773.02 222.957 995.98 497.989 995.98L 611.979 995.98L 611.979 1114.02L 497.989 1114.02C 222.957 1114.02 0 1336.98 0 1612.01C 0 1887.04 222.957 2110 497.989 2110C 773.021 2110 995.979 1887.04 995.979 1612.01L 995.979 1498.02L 1114.02 1498.02L 1114.02 1612.01C 1114.02 1887.04 1336.98 2110 1612.01 2110C 1887.04 2110 2110 1887.04 2110 1612.01C 2110 1336.98 1887.04 1114.02 1612.01 1114.02L 1498.02 1114.02L 1498.02 995.98L 1612.01 995.98C 1887.04 995.98 2110 773.02 2110 497.988C 2110 222.957 1887.04 0 1612.01 0C 1336.98 0 1114.02 222.957 1114.02 497.988L 1114.02 611.98L 995.979 611.98L 995.979 497.988ZM 1114.02 995.98L 995.979 995.98L 995.979 1114.02L 1114.02 1114.02L 1114.02 995.98ZM 1498.02 611.98L 1612.01 611.98C 1674.97 611.98 1726 560.945 1726 497.988C 1726 435.035 1674.97 384 1612.01 384C 1549.06 384 1498.02 435.035 1498.02 497.988L 1498.02 611.98ZM 1498.02 1498.02L 1498.02 1612.01C 1498.02 1674.96 1549.06 1726 1612.01 1726C 1674.97 1726 1726 1674.96 1726 1612.01C 1726 1549.05 1674.97 1498.02 1612.01 1498.02L 1498.02 1498.02ZM 611.979 1498.02L 497.989 1498.02C 435.034 1498.02 384 1549.05 384 1612.01C 384 1674.96 435.034 1726 497.989 1726C 560.943 1726 611.979 1674.96 611.979 1612.01L 611.979 1498.02ZM 611.979 611.98L 611.979 497.988C 611.979 435.035 560.943 384 497.989 384C 435.034 384 384 435.035 384 497.988C 384 560.945 435.034 611.98 497.989 611.98L 611.979 611.98Z"/>
</defs>
</svg>
