<svg xmlns="http://www.w3.org/2000/svg" width="1408" height="3456">
  <g id="s">
    <path d="M132 -1072 C132 -800 300 -704 580 -608 C752 -552 844 -516 844 -440 C844 -384 772 -344 680 -344 C520 -344 444 -452 412 -496 L80 -260 C232 -44 460 28 704 28 C1052 28 1284 -124 1284 -436 C1284 -692 1112 -832 780 -932 C656 -972 584 -992 584 -1068 C584 -1112 644 -1144 736 -1144 C856 -1144 940 -1056 964 -1020 L1296 -1256 C1180 -1428 964 -1512 712 -1512 C368 -1512 132 -1332 132 -1072z" transform="translate(0 2816)" />
    <rect x="0" y="0" width="1408" height="3456" fill="" stroke="black" />
  </g>
</svg>