<svg width="1792" height="3456" viewBox="0 0 1792 3456" version="1.1" xmlns="http://www.w3.org/2000/svg" xmlns:xlink="http://www.w3.org/1999/xlink">
<title>/six</title>
<desc>Created using Figma</desc>
<g id="Canvas" transform="translate(2265 -25541)">
<g id="Bold/six">
<g id="Vector">
<use xlink:href="#path0_fill" transform="translate(-2077.28 26322)"/>
</g>
</g>
</g>
<defs>
<path id="path0_fill" d="M 974.281 579L 1404.28 579C 1336.28 247 1133.28 0 733.281 0C 178.311 32.3483 -8.30059 428.304 0.281163 1087L 0.281163 1165C 0.281163 1743 304.281 2063 728.281 2063C 1136.28 2063 1420.28 1763 1420.28 1371C 1420.28 983 1220.28 683 852.281 683C 500.281 683 300.281 967 300.281 1187L 444.281 1299C 444.281 1175 524.281 1039 704.281 1039C 868.281 1039 976.281 1167 976.281 1371C 976.281 1563 872.281 1703 716.281 1703C 544.281 1703 444.281 1583 444.281 1323L 444.281 975C 439.367 588.498 539.292 368.985 726.281 367C 872.303 365.45 927.281 428 974.281 579Z"/>
</defs>
</svg>
