<svg width="888" height="165" viewBox="0 0 888 165" version="1.1" xmlns="http://www.w3.org/2000/svg" xmlns:xlink="http://www.w3.org/1999/xlink">
<title>weights-and-styles</title>
<desc>Created using Figma</desc>
<g id="Canvas" transform="translate(2286 888)">
<clipPath id="clip-0" clip-rule="evenodd">
<path d="M -2286 -888L -1398 -888L -1398 -723L -2286 -723L -2286 -888Z" fill="#FFFFFF"/>
</clipPath>
<g id="weights-and-styles" clip-path="url(#clip-0)">
<g id="Regular">
<use xlink:href="#path0_fill" transform="translate(-2287 -888)"/>
</g>
<g id="AaBbCc 1234567890">
<use xlink:href="#path1_fill" transform="translate(-2287 -789.36)"/>
</g>
<g id="AaBbCc 1234567890">
<use xlink:href="#path2_fill" transform="translate(-2042.48 -789.36)"/>
</g>
<g id="AaBbCc 1234567890">
<use xlink:href="#path3_fill" transform="translate(-1785.58 -789.36)"/>
</g>
<g id="Regular Italic">
<use xlink:href="#path4_fill" transform="translate(-2287 -846.96)"/>
</g>
<g id="Medium">
<use xlink:href="#path5_fill" transform="translate(-2042.48 -888)"/>
</g>
<g id="Medium Italic">
<use xlink:href="#path6_fill" transform="translate(-2042.48 -846.96)"/>
</g>
<g id="Bold">
<use xlink:href="#path7_fill" transform="translate(-1785.58 -888)"/>
</g>
<g id="Bold Italic">
<use xlink:href="#path8_fill" transform="translate(-1785.58 -846.96)"/>
</g>
<g id="AaBbCc 1234567890">
<use xlink:href="#path9_fill" transform="translate(-1572 -789.36)"/>
</g>
<g id="Black">
<use xlink:href="#path10_fill" transform="translate(-1572 -888)"/>
</g>
<g id="Black Italic">
<use xlink:href="#path11_fill" transform="translate(-1572 -846.96)"/>
</g>
</g>
</g>
<defs>
<path id="path0_fill" d="M 16.8551 32L 20.2358 32L 20.2358 31.8068L 14.8267 21.6768C 17.6882 20.4815 19.4148 17.9702 19.4148 15C 19.4148 10.267 16.3239 7.27273 10.8182 7.27273L 2.89773 7.27273L 2.89773 32L 5.89205 32L 5.89205 22.3892L 11.8203 22.3892L 16.8551 32ZM 5.89205 9.92898L 10.8182 9.92898C 14.9233 9.92898 16.3722 11.8608 16.3722 15C 16.3722 17.4631 14.1989 19.733 10.8182 19.733L 5.89205 19.733L 5.89205 9.92898ZM 29.882 32.3864C 33.6007 32.3864 36.0155 30.6477 37.078 28.1847L 34.47 27.0256C 33.6973 28.7642 32.1519 29.8267 29.882 29.8267C 26.7065 29.8267 24.6661 27.4723 24.2918 23.9347L 37.6092 23.9347L 37.6092 22.7273C 37.6092 15.9176 34.2286 13.2131 29.5922 13.2131C 24.6178 13.2131 21.382 17.1733 21.382 22.7273C 21.382 28.4261 24.5695 32.3864 29.882 32.3864ZM 29.6405 15.7727C 32.8763 15.7727 34.8564 17.8011 34.8564 21.4716L 24.3038 21.4716C 24.7023 18.0909 26.7548 15.7727 29.6405 15.7727ZM 39.9779 22.9205C 39.9779 28.1364 42.9722 31.7102 47.1739 31.7102C 49.7336 31.7102 51.4481 30.8047 52.5951 29.2955L 52.7762 29.392L 52.7762 31.7585C 52.7279 34.9943 50.6029 36.3949 47.512 36.3949C 44.4211 36.3949 43.1654 34.7045 42.4893 33.9318L 40.3643 35.6222C 41.5233 37.2642 43.6483 38.9545 47.512 38.9545C 52.0035 38.9545 55.6256 36.5398 55.6256 32.3864L 55.6256 13.5511L 52.7762 13.5511L 52.7762 16.3161C 51.6292 14.4567 49.8785 13.2131 47.2222 13.2131C 42.9239 13.2131 39.9779 17.125 39.9779 22.5824L 39.9779 22.9205ZM 42.9239 22.5824C 42.9239 19.1051 44.566 15.9659 48.0915 15.9659C 50.9893 15.9659 52.3898 19.0568 52.6313 20.8438C 52.8728 22.0028 52.8728 23.8381 52.6313 24.9006C 52.2932 26.6875 50.7478 29.1506 47.8983 29.1506C 44.7108 29.1506 42.9239 26.3977 42.9239 22.9205L 42.9239 22.5824ZM 71.7856 24.6591C 71.7856 28.1364 69.1294 29.4886 67.0044 29.4886C 64.6379 29.4886 62.9476 27.9432 62.9476 25.2386L 62.9476 13.4545L 60.0981 13.4545L 60.0981 25.2386C 60.0981 29.9716 63.3822 32.2415 66.0868 32.2415C 68.8879 32.2415 70.6748 30.7926 71.5925 29.392L 71.7856 29.392L 71.7856 32L 74.6351 32L 74.6351 13.4545L 71.7856 13.4545L 71.7856 24.6591ZM 82.2468 7.27273L 79.3974 7.27273L 79.3974 32L 82.2468 32L 82.2468 7.27273ZM 98.1442 32L 100.994 32L 100.994 21.3267C 100.994 14.9034 97.5164 13.2131 93.7976 13.2131C 91.7209 13.2131 87.9056 13.8409 86.4084 17.7528L 89.0647 18.767C 89.9823 16.9318 91.6726 15.7244 93.8459 15.7244C 96.2124 15.7244 98.1442 17.125 98.1442 20.7955L 98.1442 21.1335L 96.6471 21.1335C 90.3203 21.1335 86.1669 22.679 86.1669 27.1222C 86.1669 30.3097 88.7749 32.4347 92.4936 32.4347C 95.488 32.4347 97.4198 30.696 97.9993 29.4886L 98.1442 29.4886L 98.1442 32ZM 98.1442 23.5483L 98.1442 25.4318C 98.1442 27.75 95.826 29.875 92.3971 29.875C 91.0931 29.875 89.0164 29.4403 89.0164 27.1222C 89.0164 24.0795 92.3005 23.5483 96.6471 23.5483L 98.1442 23.5483ZM 114.129 13.2614C 113.936 13.2131 113.405 13.1648 112.729 13.1648C 110.555 13.1648 108.382 14.8551 107.851 16.642L 107.658 16.642L 107.658 13.4545L 104.808 13.4545L 104.808 32L 107.658 32L 107.658 21.375C 107.706 18.9602 109.541 16.1108 112.632 16.1108C 113.356 16.1108 113.839 16.1591 114.129 16.2074L 114.129 13.2614Z"/>
<path id="path1_fill" d="M 1.28125 11L 1.99609 8.85938L 5.01172 8.85938L 5.71875 11L 6.75 11L 4 3L 3 3L 0.25 11L 1.28125 11ZM 3.45312 4.48437L 3.5625 4.48437L 4.72656 8L 2.28125 8L 3.45312 4.48437ZM 11.1052 11L 12.0271 11L 12.0271 7.54688C 12.0271 5.46875 10.9021 4.92187 9.69895 4.92187C 9.02707 4.92187 7.7927 5.125 7.30832 6.39062L 8.1677 6.71875C 8.46457 6.125 9.01145 5.73438 9.71457 5.73438C 10.4802 5.73438 11.1052 6.1875 11.1052 7.375L 11.1052 7.48438L 10.6208 7.48438C 8.57395 7.48438 7.2302 7.98438 7.2302 9.42188C 7.2302 10.4531 8.07395 11.1406 9.27707 11.1406C 10.2458 11.1406 10.8708 10.5781 11.0583 10.1875L 11.1052 10.1875L 11.1052 11ZM 11.1052 8.26562L 11.1052 8.875C 11.1052 9.625 10.3552 10.3125 9.24582 10.3125C 8.82395 10.3125 8.15207 10.1719 8.15207 9.42188C 8.15207 8.4375 9.21457 8.26562 10.6208 8.26562L 11.1052 8.26562ZM 16.0893 11C 17.6674 11 18.7924 10.2031 18.7924 8.73438C 18.7924 7.83984 18.2221 7.16406 17.308 6.94922C 18.0307 6.59375 18.4799 5.90234 18.4799 5.14062C 18.4799 4.01562 17.5424 3 15.9487 3L 13.3237 3L 13.3237 11L 16.0893 11ZM 14.2924 3.85938L 15.9487 3.85938C 16.9799 3.85938 17.5112 4.57812 17.5112 5.14062C 17.5112 5.83203 16.9018 6.42969 16.1596 6.51953L 14.5424 6.53125L 14.2924 6.53125L 14.2924 3.85938ZM 17.8393 8.73438C 17.8393 9.6875 17.0268 10.1406 16.0893 10.1406L 14.2924 10.1406L 14.2924 7.39062L 16.1362 7.39062C 17.1518 7.39062 17.8393 7.84375 17.8393 8.73438ZM 25.0138 7.98438C 25.0138 6.21875 24.0607 4.92187 22.6701 4.92187C 21.881 4.92187 21.338 5.26172 20.967 5.78516L 20.967 3L 20.0451 3L 20.0451 11L 20.842 11L 20.9279 10.2188C 21.3029 10.7617 21.8576 11.1094 22.6857 11.1094C 24.0451 11.1094 25.0138 9.78125 25.0138 7.98438ZM 24.0607 7.98438C 24.0607 9.21875 23.4826 10.2812 22.4513 10.2812C 21.5295 10.2812 21.0295 9.28125 20.9201 8.70312C 20.842 8.35938 20.842 7.76562 20.9201 7.39062C 20.9982 6.8125 21.4513 5.8125 22.3888 5.8125C 23.5295 5.8125 24.0607 6.85938 24.0607 7.98438ZM 31.0389 8.9375C 30.8671 9.5625 30.4139 10.1875 29.2889 10.1875C 27.6327 10.1875 26.9452 8.71875 26.9452 7C 26.9452 5.15625 27.7889 3.76562 29.2889 3.76562C 30.2421 3.76562 30.9139 4.32812 31.0702 5.0625L 32.1639 5.0625C 31.9296 3.85938 30.9296 2.89062 29.2889 2.89062C 27.1483 2.89062 26.0077 4.57812 26.0077 7C 26.0077 9.42188 27.1483 11.1094 29.2889 11.1094C 30.9608 11.1094 31.9139 10.125 32.1327 8.9375L 31.0389 8.9375ZM 38.1754 6.79688C 38.0191 5.76562 37.1598 4.92187 35.7535 4.92187C 34.1285 4.92187 33.0973 6.20312 33.0973 8C 33.0973 9.84375 34.1441 11.125 35.7535 11.125C 37.1441 11.125 38.0191 10.3125 38.1754 9.25L 37.2535 9.25C 37.0816 9.90625 36.5348 10.2969 35.7535 10.2969C 34.7535 10.2969 34.0191 9.375 34.0191 8C 34.0191 6.6875 34.7223 5.75 35.7691 5.75C 36.5973 5.75 37.0973 6.21875 37.2535 6.79688L 38.1754 6.79688ZM 3.42188 16L 3.26562 16L 0.5 17.1719L 0.5 18.125L 2.5 17.2969L 2.5 24L 3.42188 24L 3.42188 16ZM 10.6657 23.1406L 7.21262 23.1406C 6.99387 23.1406 6.85324 23.1406 6.69699 23.2031L 6.65012 23.1094C 6.80246 23.0391 6.88449 22.957 7.0134 22.8242L 8.90012 20.8906C 9.72434 20.043 10.4626 19.0781 10.4626 18.1562C 10.4626 16.8438 9.46262 15.8906 7.99777 15.8906C 6.27512 15.8906 5.58762 17.2031 5.58762 18.5L 6.54074 18.5C 6.54074 17.5781 6.88449 16.6875 7.96652 16.6875C 8.93137 16.6875 9.52512 17.3906 9.52512 18.1836C 9.52512 18.875 9.07199 19.4062 8.10324 20.4062L 5.29074 23.2969L 5.29074 24L 10.6657 24L 10.6657 23.1406ZM 13.6791 20.3906L 14.1323 20.3906C 15.101 20.3906 15.8041 20.875 15.8041 21.8281C 15.8041 22.7969 15.0854 23.2812 14.1948 23.2812C 13.3041 23.2812 12.8041 22.7969 12.8041 22L 11.8041 22C 11.8041 23.375 12.8041 24.1094 14.2104 24.1094C 15.6323 24.1094 16.8198 23.2656 16.8198 21.8359C 16.8198 21.1211 16.5268 20.2656 15.4682 19.9062C 16.312 19.4961 16.6479 18.6758 16.6479 18.1094C 16.6479 16.6562 15.6323 15.8906 14.2455 15.8906C 12.7104 15.8906 11.8823 16.8281 11.8823 18L 12.8041 18C 12.8041 17.2188 13.3666 16.6562 14.2338 16.6562C 15.0854 16.6562 15.6948 17.2031 15.6948 18.0938C 15.6948 18.8594 15.1323 19.5 14.1323 19.5L 13.6791 19.5L 13.6791 20.3906ZM 23.4269 21.6406L 22.3332 21.6406L 22.3332 16L 21.3175 16L 17.7082 21.8906L 17.7082 22.5L 21.4738 22.5L 21.4738 24L 22.3332 24L 22.3332 22.5L 23.4269 22.5L 23.4269 21.6406ZM 18.9113 21.6406L 21.3175 17.6094L 21.4738 17.0898L 21.4738 21.6406L 18.9113 21.6406ZM 25.3153 20.3047C 25.6747 20.0078 26.1122 19.8008 26.8466 19.8008C 27.6786 19.8008 28.5184 20.3047 28.5184 21.5156C 28.5184 22.6133 27.6981 23.2852 26.7802 23.2852C 25.9794 23.2852 25.4091 22.8594 25.245 22L 24.3075 22C 24.4481 23.4688 25.4559 24.1094 26.7216 24.1094C 28.4403 24.1094 29.4364 23.0391 29.4364 21.5039C 29.4364 19.9453 28.4091 18.9297 26.8466 18.9297C 26.2997 18.9297 25.745 19.1523 25.4598 19.3984L 25.4052 19.3984L 25.7372 16.9219L 29.0809 16.9219L 29.0809 16L 24.8622 16L 24.3934 20.0938L 25.3153 20.3047ZM 34.7193 18L 35.6412 18C 35.3561 16.6406 34.6373 15.8906 33.317 15.8906C 31.5396 15.8906 30.6256 17.4414 30.6256 19.9141L 30.6256 20.1797C 30.6256 22.7422 31.4303 24.1094 33.2271 24.1094C 34.86 24.1094 35.7662 22.9531 35.7662 21.4844C 35.7662 20.2031 35.0514 18.9688 33.4342 18.9688C 32.7857 18.9688 32.0709 19.1836 31.5787 19.7266C 31.6334 17.3008 32.5357 16.75 33.3287 16.75C 34.2701 16.75 34.5357 17.4531 34.7193 18ZM 33.3365 19.8281C 34.442 19.8281 34.8443 20.625 34.8443 21.5312C 34.8443 22.5625 34.1725 23.2656 33.3053 23.2656C 32.4498 23.2656 31.6725 22.6836 31.6568 21.4883C 31.6725 20.4727 32.4186 19.8281 33.3365 19.8281ZM 41.6702 16L 36.6702 16L 36.6702 16.9062L 40.7327 16.9062L 37.4202 24L 38.4827 24L 41.6702 17L 41.6702 16ZM 47.5752 21.7344C 47.5752 20.8867 47.0596 20.1289 46.2666 19.7344C 46.9463 19.375 47.3877 18.7188 47.3877 17.9688C 47.3877 16.6094 46.3877 15.8906 45.0518 15.8906C 43.7159 15.8906 42.7002 16.6094 42.7002 17.9688C 42.7002 18.7188 43.1299 19.3711 43.8018 19.7305C 43.0166 20.125 42.5127 20.8867 42.5127 21.7344C 42.5127 23.1719 43.6377 24.1094 45.0518 24.1094C 46.4659 24.1094 47.5752 23.1719 47.5752 21.7344ZM 46.4815 18.0078C 46.4815 18.7812 45.794 19.3438 45.0518 19.3438C 44.3096 19.3438 43.6065 18.7812 43.6065 17.9844C 43.6065 17.1875 44.3096 16.7188 45.0323 16.7188C 45.794 16.7188 46.4815 17.2344 46.4815 18.0078ZM 46.6221 21.7383C 46.6221 22.5781 45.9502 23.2969 45.0596 23.2969C 44.169 23.2969 43.4502 22.5781 43.4502 21.7188C 43.4502 20.8594 44.169 20.125 45.0284 20.125C 45.8877 20.125 46.6221 20.8594 46.6221 21.7383ZM 49.7449 22.0078L 48.823 22.0078C 49.1082 23.3672 49.8269 24.1172 51.1472 24.1172C 52.9246 24.1172 53.8386 22.5664 53.8386 20.0938L 53.8386 19.8281C 53.8386 17.2656 53.0339 15.8984 51.2371 15.8984C 49.6043 15.8984 48.698 17.0547 48.698 18.5234C 48.698 19.8047 49.4129 21.0391 51.03 21.0391C 51.6785 21.0391 52.3933 20.8242 52.8855 20.2812C 52.8308 22.707 51.9285 23.2578 51.1355 23.2578C 50.1941 23.2578 49.9285 22.5547 49.7449 22.0078ZM 49.6199 18.4766C 49.6199 17.4453 50.2918 16.7422 51.1589 16.7422C 52.0144 16.7422 52.7918 17.3242 52.8074 18.5195C 52.7918 19.5352 52.0457 20.1797 51.1277 20.1797C 50.0222 20.1797 49.6199 19.3828 49.6199 18.4766ZM 60.2739 19.2969C 60.2739 16.9531 59.1645 15.8906 57.6098 15.8906C 56.0552 15.8906 54.9302 16.9531 54.9302 19.2969L 54.9302 20.5625C 54.9302 22.9219 56.0708 24.1094 57.6255 24.1094C 59.1802 24.1094 60.2739 22.9219 60.2739 20.5625L 60.2739 19.2969ZM 59.3052 20.7344C 59.3052 22.2344 58.5864 23.25 57.6255 23.25C 56.6645 23.25 55.8989 22.2344 55.8989 20.7344L 55.8989 19.125C 55.8989 17.6094 56.6489 16.75 57.6098 16.75C 58.5708 16.75 59.3052 17.6094 59.3052 19.125L 59.3052 20.7344Z"/>
<path id="path2_fill" d="M 1.65234 11L 2.25781 9.08203L 5.08984 9.08203L 5.69531 11L 7.0625 11L 4.33984 3L 3.01172 3L 0.289062 11L 1.65234 11ZM 3.62891 4.75781L 3.73047 4.75781L 4.75781 8.01562L 2.59766 8.01562L 3.62891 4.75781ZM 11.2312 11L 12.4304 11L 12.4304 7.35547C 12.4304 5.51953 11.3171 4.92187 10.0554 4.92187C 9.18039 4.92187 8.00461 5.25781 7.58273 6.47656L 8.73117 6.77344C 8.97336 6.23828 9.41086 5.91406 10.032 5.91406C 10.7155 5.91406 11.196 6.29688 11.196 7.23828L 11.196 7.42578L 10.6687 7.42578C 8.64523 7.42578 7.52023 8.04297 7.52023 9.39844C 7.52023 10.4297 8.37961 11.1289 9.53977 11.1289C 10.4304 11.1289 10.9968 10.6562 11.1843 10.293L 11.2312 10.293L 11.2312 11ZM 11.196 8.32031L 11.196 8.94531C 11.196 9.58203 10.5476 10.1367 9.66086 10.1367C 9.2507 10.1367 8.72727 9.96875 8.72727 9.36719C 8.72727 8.57422 9.51633 8.32031 10.6765 8.32031L 11.196 8.32031ZM 16.4584 10.9883C 18.1459 10.9883 19.228 10.1914 19.228 8.69141C 19.228 7.85547 18.7514 7.15234 17.8256 6.9375C 18.5717 6.59375 18.9702 5.91016 18.9702 5.16797C 18.9702 3.91016 17.9623 3 16.2631 3L 13.5834 3L 13.5834 10.9883L 16.4584 10.9883ZM 14.8413 4.08203L 16.2631 4.08203C 17.2358 4.08203 17.7123 4.64453 17.7123 5.24609C 17.7123 5.89062 17.2045 6.38281 16.4623 6.45312L 14.9272 6.46094L 14.8413 6.46094L 14.8413 4.08203ZM 17.9858 8.67969C 17.9858 9.48047 17.3413 9.91016 16.4584 9.91016L 14.8413 9.91016L 14.8413 7.45703L 16.5131 7.45703C 17.435 7.45703 17.9858 7.88672 17.9858 8.67969ZM 25.3556 7.96875C 25.3556 6.17969 24.4416 4.92187 23.0392 4.92187C 22.3439 4.92187 21.8439 5.20313 21.4884 5.65625L 21.4884 3L 20.2619 3L 20.2619 11L 21.3478 11L 21.4181 10.2891C 21.7814 10.7891 22.3009 11.1094 23.0548 11.1094C 24.4298 11.1094 25.3556 9.79688 25.3556 7.96875ZM 24.1369 7.96875C 24.1369 9.125 23.672 10.0664 22.7502 10.0664C 21.9259 10.0664 21.4494 9.22266 21.3791 8.55469C 21.3283 8.30469 21.3283 7.82422 21.3791 7.54297C 21.4298 6.82422 21.8713 6 22.7033 6C 23.7033 6 24.1369 6.91406 24.1369 7.96875ZM 31.1776 8.70703C 31.0331 9.29297 30.662 9.98047 29.58 9.98047C 28.1346 9.98047 27.5096 8.71875 27.5096 6.99609C 27.5096 5.19531 28.2362 3.98828 29.58 3.98828C 30.5487 3.98828 31.0682 4.62891 31.2011 5.30859L 32.5253 5.22266C 32.2948 3.90234 31.2753 2.89062 29.5409 2.89062C 27.455 2.89062 26.2596 4.51172 26.2596 6.99609C 26.2596 9.49219 27.4315 11.1094 29.5448 11.1094C 31.2714 11.1094 32.2987 10.1016 32.5096 8.79688L 31.1776 8.70703ZM 38.4928 6.86719C 38.3326 5.78906 37.4654 4.92187 36.0201 4.92187C 34.3365 4.92187 33.3092 6.21484 33.3092 8.00391C 33.3092 9.83203 34.3482 11.1211 36.0279 11.1211C 37.4068 11.1211 38.3326 10.3359 38.4928 9.21094L 37.3287 9.11328C 37.192 9.65625 36.7584 10.0781 36.0162 10.0781C 35.0826 10.0781 34.5045 9.23438 34.5045 8.00391C 34.5045 6.82812 35.0631 5.95703 36.0201 5.95703C 36.8326 5.95703 37.2193 6.51953 37.3365 6.97266L 38.4928 6.86719ZM 3.80469 15.9727L 3.64844 15.9727L 0.496094 17.2266L 0.496094 18.3398L 2.57031 17.5312L 2.57031 24L 3.80469 24L 3.80469 15.9727ZM 10.9519 22.918L 7.73703 22.918C 7.54172 22.918 7.42844 22.918 7.27219 22.9805L 7.22922 22.8906C 7.38547 22.8242 7.45578 22.7578 7.57688 22.6328L 9.08859 21.0703C 10.0066 20.1055 10.7409 19.1719 10.7409 18.1719C 10.7409 16.8125 9.77609 15.8906 8.22531 15.8906C 6.52609 15.8906 5.69406 17.1719 5.69406 18.5273L 6.92063 18.5273C 6.92063 17.6836 7.27219 16.9062 8.19797 16.9062C 9.02609 16.9062 9.52609 17.4961 9.52609 18.25C 9.52609 18.8438 9.155 19.3828 8.26828 20.2969L 5.53391 23.082L 5.53391 24L 10.9519 24L 10.9519 22.918ZM 13.8168 20.5156L 14.4106 20.5156C 15.2973 20.5156 15.9106 20.9062 15.9106 21.8047C 15.9106 22.6211 15.3012 23.0781 14.4809 23.0781C 13.6996 23.0781 13.2114 22.6328 13.2114 21.9414L 11.9536 21.9414C 11.9536 23.3906 13.102 24.1094 14.4692 24.1094C 15.9653 24.1094 17.1723 23.2656 17.1723 21.8203C 17.1723 21.0273 16.7934 20.2617 15.809 19.9258C 16.6293 19.5312 17.0161 18.7461 17.0161 18.1133C 17.0161 16.6602 15.9653 15.8906 14.4926 15.8906C 13.0004 15.8906 12.0434 16.7773 12.0434 18.0039L 13.2465 18.0039C 13.2465 17.3398 13.7739 16.8789 14.5043 16.8789C 15.2895 16.8789 15.7934 17.3789 15.7934 18.1211C 15.7934 18.832 15.309 19.4141 14.4106 19.4141L 13.8168 19.4141L 13.8168 20.5156ZM 23.8146 21.3945L 22.6896 21.3945L 22.6896 16L 21.4005 16L 17.9396 21.6602L 17.9396 22.4766L 21.5685 22.4766L 21.5685 24L 22.6896 24L 22.6896 22.4766L 23.8146 22.4766L 23.8146 21.3945ZM 19.3498 21.3945L 21.4005 17.9375L 21.5685 17.5469L 21.5685 21.3945L 19.3498 21.3945ZM 25.8671 20.3438C 26.1522 20.0859 26.535 19.875 27.1991 19.875C 28.0233 19.875 28.6952 20.4062 28.6952 21.4609C 28.6952 22.4258 28.0819 23.082 27.2225 23.082C 26.5038 23.082 26.0077 22.6797 25.8866 21.9219L 24.6679 21.9219C 24.7616 23.3828 25.8866 24.1094 27.1913 24.1094C 28.953 24.1094 29.8944 22.9648 29.8944 21.4961C 29.8944 19.8945 28.871 18.8711 27.3983 18.8711C 26.8007 18.8711 26.3163 19.1055 26.078 19.3359L 26.035 19.3359L 26.3163 17.125L 29.578 17.125L 29.578 16L 25.2538 16L 24.785 20.0898L 25.8671 20.3438ZM 34.9352 18.0547L 36.1188 18.0547C 35.8414 16.7148 35.0953 15.8906 33.6891 15.8906C 31.7672 15.8906 30.9313 17.5391 30.9391 20.0469L 30.9391 20.3242C 30.9391 22.7812 31.8766 24.1094 33.6266 24.1094C 35.2477 24.1094 36.2125 22.9492 36.2125 21.457C 36.2125 20.0938 35.4859 18.8828 33.9313 18.8828C 33.2633 18.8828 32.6148 19.1289 32.1695 19.6055C 32.2359 17.6172 32.943 16.9531 33.693 16.9531C 34.5016 16.9531 34.7516 17.4883 34.9352 18.0547ZM 33.6656 19.9258C 34.607 19.9258 35.0172 20.6211 35.0172 21.4883C 35.0172 22.4219 34.4391 23.0703 33.6617 23.0703C 32.8688 23.0703 32.2203 22.5234 32.2164 21.375C 32.2164 20.5391 32.818 19.9258 33.6656 19.9258ZM 42.265 16L 37.0892 16L 37.0892 17.1133L 40.972 17.1133L 37.8626 24L 39.1907 24L 42.265 16.9883L 42.265 16ZM 48.1856 21.7578C 48.1856 20.8945 47.6895 20.1719 46.9122 19.7891C 47.584 19.4258 48.0098 18.7852 48.0098 18.0273C 48.0098 16.6328 46.9903 15.8906 45.5997 15.8906C 44.2168 15.8906 43.1856 16.6328 43.1856 18.0273C 43.1856 18.7852 43.6036 19.4219 44.2715 19.7852C 43.4981 20.168 43.002 20.8906 43.002 21.7578C 43.002 23.2266 44.1426 24.1094 45.6036 24.1094C 47.0645 24.1094 48.1856 23.2266 48.1856 21.7578ZM 46.8106 18.0859C 46.8106 18.793 46.2715 19.2891 45.6036 19.2891C 44.9356 19.2891 44.3809 18.793 44.3809 18.0703C 44.3809 17.3516 44.9356 16.9336 45.5879 16.9336C 46.2676 16.9336 46.8106 17.3867 46.8106 18.0859ZM 46.959 21.7109C 46.959 22.4805 46.3887 23.0781 45.6075 23.0781C 44.8262 23.0781 44.2168 22.4805 44.2168 21.6953C 44.2168 20.9102 44.8262 20.293 45.584 20.293C 46.3457 20.293 46.959 20.9102 46.959 21.7109ZM 50.6023 21.9609L 49.4148 21.9609C 49.6922 23.2969 50.4382 24.1211 51.8445 24.1211C 53.7586 24.0781 54.5945 22.4609 54.5945 19.957L 54.5945 19.6758C 54.5945 17.2227 53.657 15.8945 51.907 15.8945C 50.2859 15.8945 49.3093 17.0586 49.3093 18.5469C 49.3093 19.9102 50.0476 21.125 51.6023 21.125C 52.2703 21.125 52.9187 20.8789 53.364 20.3984C 53.2976 22.3828 52.5945 23.0586 51.8445 23.0625C 51.032 23.0625 50.7859 22.5234 50.6023 21.9609ZM 50.5164 18.5156C 50.5164 17.5859 51.0984 16.9375 51.8718 16.9375C 52.6687 16.9375 53.3132 17.4805 53.3172 18.625C 53.3172 19.4648 52.7156 20.0781 51.8679 20.0781C 50.9265 20.0781 50.5164 19.3867 50.5164 18.5156ZM 61.0845 19.2969C 61.0845 16.9922 59.9399 15.8906 58.3579 15.8906C 56.7798 15.8906 55.6235 16.9922 55.6235 19.2969L 55.6235 20.5859C 55.6235 22.9453 56.7837 24.1094 58.3696 24.1094C 59.9477 24.1094 61.0845 22.9453 61.0845 20.5859L 61.0845 19.2969ZM 59.8384 20.7773C 59.8384 22.2188 59.2055 23.0312 58.3696 23.0312C 57.5259 23.0312 56.8696 22.2188 56.8696 20.7773L 56.8696 19.1016C 56.8696 17.6953 57.5141 16.9648 58.3579 16.9648C 59.2016 16.9648 59.8384 17.6953 59.8384 19.1016L 59.8384 20.7773Z"/>
<path id="path3_fill" d="M 1.97266 11L 2.48828 9.27734L 5.16406 9.27734L 5.67969 11L 7.32813 11L 4.62891 3L 3.01953 3L 0.320312 11L 1.97266 11ZM 3.77734 4.99219L 3.87891 4.99219L 4.78906 8.03125L 2.86328 8.03125L 3.77734 4.99219ZM 11.3415 11L 12.7829 11L 12.7829 7.19141C 12.7829 5.55859 11.6775 4.92187 10.3611 4.92187C 9.31418 4.92187 8.19309 5.36719 7.81809 6.55469L 9.21652 6.82031C 9.41184 6.33984 9.75559 6.07031 10.3064 6.07031C 10.9196 6.07031 11.2829 6.39062 11.2829 7.12109L 11.2829 7.37109L 10.7165 7.37109C 8.70871 7.37109 7.77121 8.09766 7.77121 9.38281C 7.77121 10.4141 8.64621 11.1211 9.7673 11.1211C 10.5954 11.1211 11.1071 10.7188 11.2946 10.3789L 11.3415 10.3789L 11.3415 11ZM 11.2829 8.36719L 11.2829 9.00781C 11.2829 9.54297 10.7126 9.98828 10.0212 9.98828C 9.61887 9.98828 9.22043 9.79688 9.22043 9.32031C 9.22043 8.69141 9.77512 8.36719 10.7243 8.36719L 11.2829 8.36719ZM 16.7817 10.9805C 18.5629 10.9805 19.6059 10.1836 19.6059 8.65234C 19.6059 7.86719 19.1957 7.14453 18.2661 6.92188C 19.0356 6.59375 19.395 5.91797 19.395 5.19141C 19.395 3.82422 18.3246 3 16.5395 3L 13.8129 3L 13.8129 10.9805L 16.7817 10.9805ZM 15.3207 4.27734L 16.5395 4.27734C 17.4575 4.27734 17.8871 4.69922 17.8871 5.33203C 17.8871 5.94922 17.4457 6.35938 16.6606 6.39453L 15.3207 6.39844L 15.3207 4.27734ZM 18.1137 8.63281C 18.1137 9.30078 17.6176 9.71484 16.7817 9.71484L 15.3207 9.71484L 15.3207 7.51172L 16.8364 7.51172C 17.6801 7.51172 18.1137 7.92578 18.1137 8.63281ZM 25.6554 7.95312C 25.6554 6.14844 24.7726 4.92187 23.3625 4.92187C 22.7414 4.92187 22.2843 5.15625 21.9445 5.54688L 21.9445 3L 20.4523 3L 20.4523 11L 21.7882 11L 21.8468 10.3477C 22.1984 10.8164 22.6906 11.1094 23.3781 11.1094C 24.7687 11.1094 25.6554 9.8125 25.6554 7.95312ZM 24.2023 7.95312C 24.2023 9.04688 23.839 9.88672 23.0109 9.88672C 22.2726 9.88672 21.8117 9.16797 21.7726 8.42969C 21.7453 8.25781 21.7453 7.87891 21.7726 7.67578C 21.8 6.83203 22.2336 6.15625 22.9796 6.15625C 23.8546 6.15625 24.2023 6.96094 24.2023 7.95312ZM 31.2997 8.51172C 31.1786 9.06641 30.8778 9.80078 29.8348 9.80078C 28.577 9.80078 27.9989 8.71875 27.9989 6.98828C 27.9989 5.22656 28.6317 4.18359 29.8348 4.18359C 30.8192 4.18359 31.2059 4.88672 31.3231 5.51953L 32.8427 5.35547C 32.62 3.94141 31.577 2.89062 29.7645 2.89062C 27.7255 2.89062 26.4833 4.45703 26.4833 6.98828C 26.4833 9.55469 27.6864 11.1094 29.7763 11.1094C 31.5497 11.1094 32.6317 10.0859 32.8427 8.67188L 31.2997 8.51172ZM 38.774 6.92969C 38.6061 5.80469 37.7389 4.92187 36.2623 4.92187C 34.524 4.92187 33.5045 6.22266 33.5045 8.01172C 33.5045 9.82422 34.5279 11.1133 36.2701 11.1133C 37.6412 11.1133 38.6061 10.3516 38.774 9.17969L 37.4068 8.99609C 37.2936 9.4375 36.9615 9.89062 36.2506 9.89062C 35.3717 9.89062 34.9342 9.10938 34.9342 8.01172C 34.9342 6.95312 35.36 6.13672 36.2467 6.13672C 37.0436 6.13672 37.3287 6.77734 37.4146 7.12109L 38.774 6.92969ZM 4.13281 15.9492L 3.97656 15.9492L 0.488281 17.2734L 0.488281 18.5195L 2.63281 17.7344L 2.63281 24L 4.13281 24L 4.13281 15.9492ZM 11.1872 22.7227L 8.18332 22.7227C 8.00363 22.7227 7.91379 22.7227 7.75754 22.7852L 7.72238 22.7031C 7.87473 22.6367 7.93332 22.5898 8.05051 22.4727L 9.23801 21.2266C 10.238 20.1562 10.9763 19.25 10.9763 18.1875C 10.9763 16.7812 10.0349 15.8906 8.41379 15.8906C 6.73801 15.8906 5.77316 17.1406 5.77316 18.5508L 7.2341 18.5508C 7.2341 17.7695 7.60129 17.0938 8.38645 17.0938C 9.09738 17.0938 9.51926 17.582 9.51926 18.3086C 9.51926 18.8125 9.21848 19.3672 8.40207 20.2031L 5.7302 22.9023L 5.7302 24L 11.1872 24L 11.1872 22.7227ZM 13.9272 20.625L 14.6459 20.625C 15.4623 20.625 15.9897 20.9375 15.9897 21.7891C 15.9897 22.4727 15.4741 22.9062 14.7163 22.9062C 14.0288 22.9062 13.5483 22.4922 13.5483 21.8867L 12.0717 21.8867C 12.0717 23.4062 13.3452 24.1094 14.6811 24.1094C 16.2475 24.1094 17.4623 23.2656 17.4623 21.8086C 17.4623 20.9492 17.017 20.25 16.0834 19.9414C 16.892 19.5586 17.3217 18.8086 17.3217 18.1211C 17.3217 16.668 16.2475 15.8906 14.6928 15.8906C 13.2436 15.8906 12.1694 16.7383 12.1694 18.0117L 13.6225 18.0117C 13.6225 17.4414 14.1108 17.0742 14.7319 17.0742C 15.4545 17.0742 15.8725 17.5273 15.8725 18.1445C 15.8725 18.8086 15.4506 19.3359 14.6459 19.3359L 13.9272 19.3359L 13.9272 20.625ZM 24.1437 21.1836L 22.9875 21.1836L 22.9875 16L 21.464 16L 18.1281 21.4648L 18.1281 22.4609L 21.6398 22.4609L 21.6398 24L 22.9875 24L 22.9875 22.4609L 24.1437 22.4609L 24.1437 21.1836ZM 19.7179 21.1836L 21.464 18.2188L 21.6398 17.875L 21.6398 21.1836L 19.7179 21.1836ZM 26.3309 20.3789C 26.5614 20.1562 26.8973 19.9414 27.4989 19.9414C 28.3192 19.9414 28.8466 20.4922 28.8466 21.4141C 28.8466 22.2656 28.4052 22.9062 27.5966 22.9062C 26.952 22.9062 26.5184 22.5234 26.4286 21.8594L 24.9755 21.8594C 25.0223 23.3047 26.2489 24.1094 27.5848 24.1094C 29.3856 24.1094 30.2841 22.9023 30.2841 21.4922C 30.2841 19.8477 29.2645 18.8242 27.8622 18.8242C 27.2255 18.8242 26.7997 19.0625 26.6083 19.2812L 26.5653 19.2812L 26.8036 17.2969L 29.995 17.2969L 29.995 16L 25.5848 16L 25.1161 20.082L 26.3309 20.3789ZM 35.1178 18.1016L 36.524 18.1016C 36.2545 16.7812 35.485 15.8906 34.0045 15.8906C 31.9615 15.8906 31.1842 17.6211 31.2076 20.1641L 31.2076 20.4492C 31.2076 22.8164 32.2584 24.1094 33.9654 24.1094C 35.5748 24.1094 36.5904 22.9414 36.5904 21.4336C 36.5904 20 35.8521 18.8047 34.3521 18.8047C 33.6725 18.8047 33.0787 19.0703 32.6725 19.5C 32.7389 17.8711 33.2896 17.125 34.0006 17.125C 34.6959 17.125 34.9303 17.5234 35.1178 18.1016ZM 32.692 21.3008L 32.692 21.2617C 32.692 20.5859 33.1607 20.0117 33.942 20.0117C 34.7467 20.0117 35.1607 20.6133 35.1607 21.4492C 35.1607 22.2969 34.6607 22.8984 33.9615 22.8984C 33.2232 22.8984 32.692 22.3867 32.692 21.3008ZM 42.7679 16L 37.4437 16L 37.4437 17.293L 41.1702 17.293L 38.2327 24L 39.7952 24L 42.7679 16.9805L 42.7679 16ZM 48.7188 21.7734C 48.7188 20.9023 48.2383 20.207 47.4805 19.832C 48.1407 19.4727 48.5508 18.8438 48.5508 18.082C 48.5508 16.6484 47.5235 15.8906 46.0782 15.8906C 44.6563 15.8906 43.6094 16.6484 43.6094 18.082C 43.6094 18.8398 44.0196 19.4688 44.6797 19.8281C 43.9219 20.2031 43.4336 20.8984 43.4336 21.7734C 43.4336 23.2734 44.5899 24.1094 46.0899 24.1094C 47.5899 24.1094 48.7188 23.2734 48.7188 21.7734ZM 47.1094 18.1562C 47.1094 18.8008 46.6954 19.2422 46.0899 19.2422C 45.4844 19.2422 45.0547 18.8008 45.0547 18.1484C 45.0547 17.4922 45.4844 17.1133 46.0743 17.1133C 46.6836 17.1133 47.1094 17.5195 47.1094 18.1562ZM 47.2579 21.6836C 47.2579 22.3945 46.7813 22.8906 46.0938 22.8906C 45.4063 22.8906 44.8907 22.3945 44.8907 21.6797C 44.8907 20.9492 45.4063 20.4414 46.0704 20.4414C 46.7461 20.4414 47.2579 20.9492 47.2579 21.6836ZM 51.3523 21.918L 49.9382 21.918C 50.2117 23.2383 50.9773 24.1289 52.4578 24.1289C 54.489 24.0469 55.2586 22.3711 55.2586 19.8398L 55.2586 19.543C 55.2586 17.1836 54.2078 15.8945 52.5007 15.8945C 50.8914 15.8945 49.8562 17.0586 49.8562 18.5703C 49.8562 20.0039 50.614 21.1953 52.114 21.1953C 52.7898 21.1953 53.3797 20.9336 53.7898 20.5078C 53.7156 22.125 53.1765 22.8906 52.4695 22.8945C 51.7703 22.8984 51.5359 22.4961 51.3523 21.918ZM 51.3054 18.5508C 51.3054 17.7031 51.8054 17.1016 52.5047 17.1016C 53.2429 17.1016 53.7703 17.6133 53.7703 18.7031L 53.7703 18.7422C 53.7703 19.418 53.3054 19.9922 52.5242 19.9922C 51.7195 19.9922 51.3054 19.3867 51.3054 18.5508ZM 61.8052 19.2969C 61.8052 17.0234 60.6216 15.8906 59.0239 15.8906C 57.4223 15.8906 56.2348 17.0234 56.2348 19.2969L 56.2348 20.6016C 56.2348 22.9609 57.4184 24.1094 59.0278 24.1094C 60.6294 24.1094 61.8052 22.9609 61.8052 20.6016L 61.8052 19.2969ZM 60.3169 20.8164C 60.3169 22.2031 59.7622 22.8438 59.0278 22.8438C 58.2856 22.8438 57.7231 22.2031 57.7231 20.8164L 57.7231 19.0859C 57.7231 17.7734 58.2817 17.1445 59.0239 17.1445C 59.7661 17.1445 60.3169 17.7734 60.3169 19.0859L 60.3169 20.8164Z"/>
<path id="path4_fill" d="M 14.6939 32L 17.978 32L 17.978 31.7947L 14.4645 21.6889C 17.4588 20.5661 19.7045 18.1875 20.0668 14.9155C 20.5859 10.1705 17.483 7.34517 12.8828 7.27273L 5.3608 7.27273L 1.07457 32L 3.99645 32L 5.67472 22.3892L 11.4822 22.3892L 14.6939 32ZM 7.83594 9.92898L 12.7741 9.94105C 15.9616 10.0014 17.5795 11.6797 17.1087 14.8913C 16.6619 17.9339 13.6193 19.7571 10.7337 19.745L 6.13352 19.733L 7.83594 9.92898ZM 28.1433 32.3864C 31.2101 32.4347 34.2527 31.0703 35.5929 28.1967L 33.1298 27.0497C 32.1036 28.8487 30.3528 29.8871 28.2641 29.8267C 25.0283 29.7543 23.7484 26.8082 23.9175 23.9347L 36.7882 23.9347L 36.9573 22.7273C 37.5368 17.9339 35.9793 13.2734 30.4977 13.201C 25.149 13.1406 21.7804 17.8977 21.225 22.7997C 20.6696 27.593 22.7705 32.3139 28.1433 32.3864ZM 30.4253 15.7607C 33.7335 15.8331 34.8805 18.5014 34.4338 21.4716L 24.1952 21.4837C 25.1249 18.6463 27.0688 15.6882 30.4253 15.7607ZM 39.7847 23.005C 39.3018 26.9531 40.7868 31.6136 45.4474 31.7102C 47.681 31.7585 49.5645 30.9375 51.0738 29.3075L 51.1583 29.3679L 50.6753 31.7585C 50.1199 34.8494 47.6931 36.4794 44.6384 36.3949C 42.6221 36.3345 41.306 35.4773 40.159 33.9197L 37.9495 35.5739C 39.4708 37.8679 41.7769 38.9183 44.5177 38.9545C 48.6831 39.0149 52.7279 36.7571 53.3678 32.3864L 56.5915 13.5511L 53.8145 13.5511L 53.2471 16.3402C 52.2812 14.348 50.4822 13.2614 48.2847 13.2131C 43.2137 13.1044 40.4367 18.2841 39.833 22.6669L 39.7847 23.005ZM 42.7066 22.6669C 43.2016 19.4673 45.23 15.821 48.9367 15.9659C 51.436 16.0746 52.426 18.6825 52.426 20.8438C 52.426 22.196 52.2208 23.5966 51.7499 24.8643C 50.8927 27.1342 48.8763 29.2351 46.2925 29.1626C 42.9964 29.0781 42.2961 25.6974 42.6583 23.005L 42.7066 22.6669ZM 70.9284 24.6591C 70.4817 27.424 68.2359 29.5973 65.3503 29.4886C 62.9355 29.4041 61.9937 27.4723 62.2714 25.2507L 64.2878 13.4545L 61.4987 13.4545L 59.4944 25.2386C 59.1081 28.4261 60.6052 32.1449 64.2757 32.2536C 66.606 32.326 68.6102 31.179 70.0349 29.38L 70.1677 29.38L 69.6123 32L 72.4014 32L 75.6251 13.4545L 72.8361 13.4545L 70.9284 24.6591ZM 84.6495 7.27273L 81.8604 7.27273L 77.5742 32L 80.3633 32L 84.6495 7.27273ZM 96.0796 32L 98.7841 32L 100.595 21.3267C 101.139 16.9801 99.6414 13.3097 94.8601 13.2131C 91.564 13.1527 88.5093 14.6499 87.1087 17.7287L 89.6563 18.755C 90.7671 16.9439 92.5902 15.652 94.7756 15.7124C 97.613 15.7969 98.3012 18.3445 97.8786 20.7713L 97.8061 21.1456L 96.2728 21.1335C 92.0228 21.1214 85.6598 21.7976 85.2493 27.2067C 84.9958 30.4908 87.6037 32.4105 90.6705 32.4467C 92.9524 32.4709 95.1861 31.4084 96.4418 29.4766L 96.5263 29.4645L 96.0796 32ZM 97.4681 23.5483L 97.1542 25.4318C 96.6108 28.3295 93.4475 29.9474 90.7188 29.8871C 89.0767 29.8388 87.8331 28.9936 88.0384 27.2188C 88.461 23.5 93.4113 23.5362 96.2003 23.5483L 97.4681 23.5483ZM 115.228 13.2493C 114.745 13.1648 114.25 13.1286 113.755 13.1286C 111.497 13.1286 109.445 14.6499 108.491 16.6541L 108.346 16.6541L 108.998 13.4545L 106.209 13.4545L 102.997 32L 105.774 32L 107.621 21.375C 108.153 18.6101 110.531 16.0625 113.465 16.0746C 113.936 16.0866 114.419 16.1229 114.878 16.2074L 115.228 13.2493ZM 131.191 7.27273L 128.269 7.27273L 123.983 32L 126.905 32L 131.191 7.27273ZM 143.068 13.4545L 139.228 13.4545L 139.916 9.49432L 137.127 9.49432L 136.439 13.4545L 133.541 13.4545L 133.071 16.1108L 135.98 16.1108L 134.085 27.4602C 133.855 30.0682 135.691 32.0483 138.286 32.1207C 138.866 32.1449 139.446 32.1328 140.001 31.9638L 140.279 29.3438C 139.904 29.38 139.53 29.4162 139.144 29.4162C 137.405 29.4041 136.789 28.402 136.982 26.6996L 138.769 16.1108L 142.609 16.1108L 143.068 13.4545ZM 154.072 32L 156.777 32L 158.588 21.3267C 159.131 16.9801 157.634 13.3097 152.853 13.2131C 149.557 13.1527 146.502 14.6499 145.101 17.7287L 147.649 18.755C 148.76 16.9439 150.583 15.652 152.768 15.7124C 155.606 15.7969 156.294 18.3445 155.871 20.7713L 155.799 21.1456L 154.265 21.1335C 150.015 21.1214 143.652 21.7976 143.242 27.2067C 142.988 30.4908 145.596 32.4105 148.663 32.4467C 150.945 32.4709 153.179 31.4084 154.434 29.4766L 154.519 29.4645L 154.072 32ZM 155.461 23.5483L 155.147 25.4318C 154.603 28.3295 151.44 29.9474 148.711 29.8871C 147.069 29.8388 145.826 28.9936 146.031 27.2188C 146.454 23.5 151.404 23.5362 154.193 23.5483L 155.461 23.5483ZM 168.343 7.27273L 165.554 7.27273L 161.267 32L 164.056 32L 168.343 7.27273ZM 172.951 8.89062C 172.963 9.98935 173.808 10.7862 174.895 10.7621C 176.03 10.75 176.911 9.88068 176.887 8.73366C 176.863 7.68324 175.994 6.86222 174.943 6.87429C 173.844 6.88636 172.939 7.77983 172.951 8.89062ZM 175.486 13.4545L 172.709 13.4545L 169.486 32L 172.275 32L 175.486 13.4545ZM 193.871 19.0327C 193.473 15.4467 190.865 13.2734 187.291 13.2131C 181.93 13.1286 178.574 17.8857 178.006 22.7997C 177.487 27.3999 179.407 32.3018 184.659 32.3864C 188.317 32.4467 191.819 30.3097 192.579 26.5909L 189.79 26.603C 188.945 28.7159 187.037 29.8991 184.779 29.8388C 181.169 29.7301 180.445 25.6854 180.807 22.7997C 181.218 19.4915 183.427 15.6761 187.218 15.7727C 189.271 15.8331 190.744 17.0043 191.142 19.0206L 193.871 19.0327Z"/>
<path id="path5_fill" d="M 2.42685 7.27273L 2.42685 32L 6.24219 32L 6.24219 14.2876L 6.43537 14.2876L 12.6896 31.8793L 15.7926 31.8793L 22.0831 14.3118L 22.2884 14.3118L 22.2884 32L 26.0916 32L 26.0916 7.27273L 21.1776 7.27273L 14.392 25.9389L 14.1023 25.9389L 7.32884 7.27273L 2.42685 7.27273ZM 37.9715 32.3743C 41.6057 32.3743 44.0325 30.6598 45.1071 28.4865L 42.318 26.6754C 41.4487 28.2571 40.1206 29.1506 38.0801 29.1506C 35.279 29.1506 33.4196 27.2429 33.0091 24.152L 45.6263 24.152L 45.6263 22.5582C 45.6263 16.2074 42.3784 13.2131 37.573 13.2131C 32.3933 13.2131 29.2421 17.2457 29.2421 22.8239C 29.2421 28.3537 32.502 32.3743 37.9715 32.3743ZM 37.5851 16.4126C 40.4224 16.4126 42.0283 18.3565 42.0283 21.3026L 33.0332 21.3026C 33.4438 18.3807 35.0737 16.4126 37.5851 16.4126ZM 47.4878 22.6669C 47.4878 28.2812 50.289 32.3381 54.6114 32.3381C 57.0745 32.3381 58.7527 31.2031 59.8998 29.4403L 60.105 32L 63.5581 32L 63.5581 7.27273L 59.767 7.27273L 59.767 15.978C 58.632 14.2876 57.002 13.2131 54.6597 13.2131C 50.2648 13.2131 47.4878 17.125 47.4878 22.6669ZM 51.279 22.6669C 51.279 19.3587 52.6313 16.5455 55.6981 16.5455C 58.3664 16.5455 59.6462 19.1293 59.8032 21.3388C 59.9601 22.2081 59.9601 23.6207 59.8032 24.4297C 59.5858 26.5185 58.1853 29.1143 55.5532 29.1143C 52.6917 29.1143 51.279 26.2408 51.279 22.6669ZM 66.9923 9.07173C 66.9923 10.3153 67.8979 11.2692 69.3467 11.2692C 70.7835 11.2692 71.7132 10.3153 71.7132 9.07173C 71.7132 7.88849 70.7835 6.87429 69.3467 6.87429C 67.8979 6.87429 66.9923 7.88849 66.9923 9.07173ZM 71.2302 13.4545L 67.439 13.4545L 67.439 32L 71.2302 32L 71.2302 13.4545ZM 86.9948 24.1882C 86.9948 27.3636 85.0389 28.9091 82.926 28.9091C 80.8613 28.9091 79.3642 27.5568 79.3642 25.1058L 79.3642 13.4545L 75.5609 13.4545L 75.5609 25.1662C 75.5609 30.1286 78.7846 32.2415 81.634 32.2415C 84.2058 32.2415 85.9927 30.9979 86.9586 29.6094L 87.1518 29.6094L 87.1518 32L 90.7981 32L 90.7981 13.4545L 86.9948 13.4545L 86.9948 24.1882ZM 108.796 20.4091C 108.796 18.0064 110.064 16.5455 112.213 16.5455C 113.674 16.5455 115.377 17.3786 115.377 19.9986L 115.377 32L 119.18 32L 119.18 20.0589C 119.18 15.2415 116.669 13.2131 113.553 13.2131C 110.97 13.2131 108.953 14.7464 108.253 16.2798L 108.06 16.2798C 107.251 14.505 105.645 13.2131 103.363 13.2131C 101.021 13.2131 99.246 14.6982 98.5336 16.1832L 98.3525 16.1832L 98.3525 13.4545L 94.6096 13.4545L 94.6096 32L 98.4008 32L 98.4008 20.723C 98.4008 18.0547 100.103 16.5455 101.963 16.5455C 103.798 16.5455 105.041 17.5476 105.041 20.0589L 105.041 32L 108.796 32L 108.796 20.4091Z"/>
<path id="path6_fill" d="M 4.90199 7.27273L 0.615767 32L 4.34659 32L 7.4858 14.2635L 7.69105 14.2756L 10.6733 31.8793L 13.7159 31.8793L 22.88 14.2756L 23.049 14.2756L 19.8857 32L 23.6044 32L 27.8906 7.27273L 23.0128 7.27273L 13.1605 25.9631L 12.8828 25.951L 9.59872 7.27273L 4.90199 7.27273ZM 36.2932 32.3743C 39.1426 32.4226 42.2818 31.2031 43.5858 28.5107L 40.9899 26.6996C 39.9516 28.2692 38.4182 29.1989 36.4984 29.1506C 33.6973 29.0781 32.4537 26.7237 32.5986 24.152L 44.7811 24.152L 44.9984 22.5582C 45.578 17.8132 43.779 13.2614 38.4303 13.201C 32.9849 13.1406 29.6284 17.8977 29.073 22.8963C 28.5297 27.7862 30.9565 32.3018 36.2932 32.3743ZM 38.3095 16.4006C 41.1107 16.4851 42.0524 18.8274 41.6298 21.3146L 32.9004 21.3267C 33.806 18.9119 35.3997 16.3281 38.3095 16.4006ZM 47.3188 22.7514C 46.8358 26.7237 47.8863 32.2415 52.8607 32.3501C 55.203 32.3984 57.0262 31.2514 58.3543 29.4041L 57.9679 32L 61.3245 32L 65.6228 7.27273L 61.9161 7.27273L 60.2861 16.0021C 59.3202 14.2393 57.6782 13.2614 55.6618 13.2131C 50.5546 13.0923 47.8742 18.3445 47.3188 22.7514ZM 51.0255 22.7635C 51.436 19.902 53.1384 16.4126 56.507 16.5455C 59.0425 16.6541 59.5979 19.2621 59.5134 21.3388C 59.4651 22.4013 59.284 23.4155 58.958 24.4297C 58.2336 26.6875 56.6036 29.223 53.9232 29.1385C 50.7719 29.0419 50.6995 25.0455 51.0255 22.7635ZM 69.1777 9.14418C 69.2018 10.424 70.216 11.2933 71.4717 11.2812C 72.7636 11.2692 73.802 10.3153 73.7537 8.98722C 73.7175 7.74361 72.6912 6.85014 71.4717 6.86222C 70.1798 6.87429 69.1415 7.8402 69.1777 9.14418ZM 72.5463 13.4545L 68.8396 13.4545L 65.628 32L 69.3346 32L 72.5463 13.4545ZM 86.2221 24.1882C 85.8237 26.6634 84.0609 29.0178 81.3322 28.9212C 79.171 28.8366 78.4586 27.0497 78.7001 25.1179L 80.6923 13.4545L 76.9735 13.4545L 74.9813 25.1662C 74.5829 28.5107 76.0801 32.157 79.8954 32.2536C 82.117 32.3139 84.0367 31.2876 85.4252 29.5852L 85.5339 29.5852L 84.9906 32L 88.5644 32L 91.7761 13.4545L 88.0573 13.4545L 86.2221 24.1882ZM 108.579 20.4091C 108.929 18.2841 110.366 16.4489 112.684 16.5334C 114.628 16.6058 115.208 18.2599 114.99 19.9865L 112.95 32L 116.669 32L 118.697 20.0589C 119.071 16.7869 117.96 13.2734 114.157 13.2131C 111.875 13.1648 109.811 14.3963 108.579 16.2798L 108.41 16.2919C 107.891 14.4084 106.2 13.2493 104.269 13.2131C 102.12 13.1648 100.296 14.4325 99.1977 16.2074L 99.089 16.2074L 99.6806 13.4545L 96.0222 13.4545L 92.7985 32L 96.5052 32L 98.437 20.723C 98.7992 18.598 100.369 16.4489 102.735 16.5334C 104.788 16.6058 105.186 18.272 104.957 20.0469L 102.928 32L 106.587 32L 108.579 20.4091ZM 138.14 7.27273L 134.325 7.27273L 130.039 32L 133.854 32L 138.14 7.27273ZM 149.86 13.4545L 146.371 13.4545L 147.071 9.49432L 143.364 9.49432L 142.676 13.4545L 140.02 13.4545L 139.477 16.5334L 142.145 16.5334L 140.346 27.2429C 140.092 29.9595 142.072 32.1207 144.789 32.2173C 145.501 32.2294 146.202 32.1932 146.902 32.0362L 147.192 28.8125C 146.769 28.8366 146.347 28.8729 145.924 28.8608C 144.451 28.8246 143.98 27.9432 144.149 26.5305L 145.852 16.5334L 149.317 16.5334L 149.86 13.4545ZM 160.104 32L 163.617 32L 165.537 20.7351C 166.044 16.4368 163.955 13.2855 159.488 13.2131C 156.12 13.1527 152.763 14.7102 151.519 17.9943L 154.985 18.924C 155.878 17.294 157.399 16.2074 159.295 16.2678C 161.649 16.3402 162.181 18.3203 161.818 20.3487L 161.698 20.9645L 159.995 20.9524C 155.769 20.9403 150.095 21.9304 149.745 27.1342C 149.527 30.3459 152.111 32.3622 155.154 32.4105C 157.242 32.4347 159.247 31.5412 160.43 29.7905L 160.502 29.7784L 160.104 32ZM 161.335 23.7173L 160.997 25.6491C 160.526 28.0398 157.894 29.4041 155.637 29.3438C 154.236 29.3075 153.21 28.5469 153.415 27.0618C 153.825 23.995 157.593 23.7053 160.019 23.7053L 161.335 23.7173ZM 175.73 7.27273L 172.011 7.27273L 167.725 32L 171.443 32L 175.73 7.27273ZM 179.617 9.14418C 179.641 10.424 180.655 11.2933 181.911 11.2812C 183.203 11.2692 184.241 10.3153 184.193 8.98722C 184.156 7.74361 183.13 6.85014 181.911 6.86222C 180.619 6.87429 179.58 7.8402 179.617 9.14418ZM 182.985 13.4545L 179.279 13.4545L 176.067 32L 179.774 32L 182.985 13.4545ZM 200.965 19.25C 200.494 15.5675 197.923 13.2734 194.18 13.2131C 188.771 13.1286 185.354 17.8011 184.798 22.8118C 184.267 27.5447 186.392 32.3018 191.705 32.3743C 195.399 32.4347 199.021 30.2855 199.686 26.4581L 196.16 26.1804C 195.508 28.076 193.793 29.223 191.777 29.1626C 188.505 29.0661 188.083 25.3473 188.421 22.8118C 188.795 19.8658 190.618 16.304 194.059 16.4126C 196.003 16.473 197.138 17.7528 197.5 19.576L 200.965 19.25Z"/>
<path id="path7_fill" d="M 11.2287 31.9396C 16.7344 31.9396 19.9581 29.4766 19.9581 24.7436C 19.9581 22.3168 18.6903 20.0831 15.8168 19.3949C 18.1953 18.3807 19.3061 16.2919 19.3061 14.0462C 19.3061 9.82031 15.9979 7.27273 10.4801 7.27273L 2.05256 7.27273L 2.05256 31.9396L 11.2287 31.9396ZM 6.71307 11.2209L 10.4801 11.2209C 13.3175 11.2209 14.6456 12.5249 14.6456 14.4808C 14.6456 16.3885 13.2812 17.6562 10.8544 17.7649L 6.71307 17.777L 6.71307 11.2209ZM 15.3459 24.6832C 15.3459 26.7479 13.8125 28.0277 11.2287 28.0277L 6.71307 28.0277L 6.71307 21.218L 11.3977 21.218C 14.0057 21.218 15.3459 22.4979 15.3459 24.6832ZM 30.8468 32.326C 35.6401 32.326 39.2261 29.0781 39.2261 22.7273C 39.2261 16.5817 35.4832 13.2131 30.8226 13.2131C 26.1863 13.2131 22.4796 16.7145 22.4796 22.7273C 22.4796 28.9936 26.0535 32.326 30.8468 32.326ZM 30.8226 28.571C 28.3596 28.571 26.9349 26.5305 26.9349 22.7273C 26.9349 18.9361 28.4562 16.968 30.8226 16.968C 33.2253 16.968 34.8312 18.8033 34.8312 22.7273C 34.8312 26.6634 33.2616 28.571 30.8226 28.571ZM 46.9061 7.27273L 42.306 7.27273L 42.306 32L 46.9061 32L 46.9061 7.27273ZM 49.9649 22.6428C 49.9649 28.3295 52.6212 32.3381 57.0402 32.3381C 59.1893 32.3381 60.7348 31.3722 61.8456 29.8146L 62.075 32L 66.2525 32L 66.2525 7.27273L 61.6403 7.27273L 61.6403 15.483C 60.5537 14.0703 59.0807 13.2131 57.0885 13.2131C 52.597 13.2131 49.9649 17.0767 49.9649 22.6428ZM 54.4805 22.6428C 54.4805 19.5277 55.5913 17.0284 58.2717 17.0284C 60.7227 17.0284 61.906 19.1776 61.9905 21.7493C 62.075 22.3771 62.075 23.4276 61.9905 24.0192C 61.8697 26.3736 60.6141 28.5589 58.1751 28.5589C 55.5793 28.5589 54.4805 26.0234 54.4805 22.6428Z"/>
<path id="path8_fill" d="M 9.46591 31.9517C 14.1747 31.9517 18.4609 29.7784 18.8714 24.6591C 19.0405 22.4134 18.0625 20.2159 15.8047 19.4794C 18.2436 18.4652 19.9098 16.6783 20.1271 13.9496C 20.4893 9.28906 16.5533 7.34517 12.4361 7.2848L 4.53977 7.27273L 0.265625 31.9396L 9.46591 31.9517ZM 8.40341 11.2209L 12.3274 11.233C 14.3196 11.2812 15.853 12.1989 15.4908 14.3842C 15.1286 16.5817 13.1243 17.7287 11.0114 17.7891L 7.26847 17.7649L 8.40341 11.2209ZM 14.4162 24.5866C 14.0298 26.9773 11.8203 28.0398 9.58665 28.0398L 5.49361 28.0277L 6.67685 21.218L 11.4822 21.2301C 13.571 21.2905 14.7543 22.4496 14.4162 24.5866ZM 29.241 32.326C 34.7829 32.4105 38.067 27.7741 38.5861 22.6548C 39.0691 17.9339 36.8958 13.2855 31.6316 13.2131C 26.2708 13.1286 22.8418 17.8494 22.3347 22.7997C 21.8397 27.581 23.8802 32.2536 29.241 32.326ZM 29.3496 28.571C 26.4036 28.4744 26.4278 24.9851 26.6813 22.8118C 27.0073 20.1918 28.3596 16.8594 31.4988 16.956C 34.4689 17.0526 34.5655 20.397 34.2878 22.6428C 33.9739 25.3473 32.5975 28.6918 29.3496 28.571ZM 49.2847 7.27273L 44.7811 7.27273L 40.4949 32L 44.9984 32L 49.2847 7.27273ZM 49.8079 22.7273C 49.3129 26.7358 50.303 32.2536 55.3499 32.3501C 57.4266 32.3864 59.0565 31.3722 60.3001 29.7663L 59.9621 32L 64.0189 32L 68.3172 7.27273L 63.8016 7.27273L 62.232 15.5312C 61.266 14.0703 59.8051 13.2614 58.0544 13.2131C 52.9109 13.0923 50.3392 18.2962 49.8079 22.7273ZM 54.227 22.7152C 54.5892 20.1797 55.9535 16.8956 59.0203 17.0284C 61.5558 17.125 61.7731 19.7692 61.6283 21.7493C 61.5679 22.522 61.4351 23.2706 61.2298 24.0192C 60.6503 26.2408 59.2256 28.6797 56.6055 28.5831C 53.7199 28.4744 53.9493 24.7315 54.227 22.7152ZM 85.7057 7.27273L 81.1177 7.27273L 76.8314 32L 81.4195 32L 85.7057 7.27273ZM 97.5996 13.4545L 94.4241 13.4545L 95.1123 9.49432L 90.6088 9.49432L 89.9206 13.4545L 87.4817 13.4545L 86.878 16.8956L 89.329 16.8956L 87.6265 27.0497C 87.373 29.875 89.4376 32.169 92.2629 32.2536C 93.0839 32.2777 93.8808 32.2294 94.6898 32.0845L 95.0399 28.3416C 94.5932 28.3658 94.1464 28.3899 93.6997 28.3658C 92.4561 28.3175 92.0577 27.5568 92.2146 26.3615L 93.8325 16.8956L 97.0079 16.8956L 97.5996 13.4545ZM 107.51 32L 111.736 32L 113.728 20.228C 114.199 15.978 111.591 13.2855 107.414 13.2131C 103.961 13.1527 100.363 14.7706 99.2638 18.2479L 103.478 19.0568C 104.214 17.6321 105.446 16.6903 107.1 16.7507C 109.032 16.8232 109.527 18.2599 109.213 19.9744L 109.019 20.8075L 107.184 20.7834C 102.934 20.7713 97.8632 22.0391 97.5614 27.0859C 97.3682 30.2614 99.9279 32.3381 102.946 32.3864C 104.878 32.4105 106.689 31.6499 107.812 30.044L 107.86 30.044L 107.51 32ZM 108.621 23.8622L 108.271 25.8423C 107.872 27.7741 105.687 28.9453 103.828 28.8849C 102.62 28.8487 101.787 28.1726 101.98 26.9169C 102.367 24.4297 105.132 23.8381 107.233 23.8501L 108.621 23.8622ZM 124.641 7.27273L 120.138 7.27273L 115.851 32L 120.355 32L 124.641 7.27273ZM 128.267 9.37358C 128.304 10.7983 129.427 11.7521 130.827 11.7401C 132.288 11.7401 133.447 10.7017 133.387 9.20455C 133.338 7.77983 132.191 6.82599 130.815 6.83807C 129.366 6.83807 128.219 7.88849 128.267 9.37358ZM 132.36 13.4545L 127.857 13.4545L 124.633 32L 129.149 32L 132.36 13.4545ZM 150.337 19.4553C 149.793 15.6761 147.294 13.2734 143.406 13.2131C 137.925 13.1286 134.459 17.7408 133.916 22.8359C 133.385 27.6776 135.655 32.2777 141.003 32.3501C 144.734 32.4105 148.465 30.2614 149.093 26.3615L 144.964 25.8061C 144.396 27.5206 142.911 28.6314 141.088 28.5831C 138.118 28.5107 137.949 25.0696 138.239 22.8359C 138.577 20.1918 140.05 16.8473 143.213 16.9801C 145.06 17.0405 145.881 18.3928 146.231 20.0348L 150.337 19.4553Z"/>
<path id="path9_fill" d="M 2.34375 11L 2.76562 9.5L 5.23438 9.5L 5.65625 11L 7.64062 11L 4.96875 3L 3.03125 3L 0.359375 11L 2.34375 11ZM 3.95312 5.26562L 4.04688 5.26562L 4.82812 8.04688L 3.17188 8.04688L 3.95312 5.26562ZM 11.489 11L 13.2077 11L 13.2077 7C 13.2077 5.60938 12.114 4.92187 10.739 4.92187C 9.48898 4.92187 8.42648 5.5 8.11398 6.64062L 9.80148 6.875C 9.94211 6.45312 10.1765 6.25 10.6452 6.25C 11.1765 6.25 11.3952 6.5 11.3952 6.98438L 11.3952 7.3125L 10.7859 7.3125C 8.80148 7.3125 8.08273 8.15625 8.08273 9.35938C 8.08273 10.3906 8.97336 11.1094 10.0515 11.1094C 10.8015 11.1094 11.2546 10.7969 11.4421 10.4844L 11.489 10.4844L 11.489 11ZM 11.3952 8.42188L 11.3952 9.07812C 11.3952 9.5 10.9265 9.8125 10.4577 9.8125C 10.0671 9.8125 9.81711 9.59375 9.81711 9.26562C 9.81711 8.82812 10.0984 8.42188 10.8015 8.42188L 11.3952 8.42188ZM 17.1723 10.9688C 19.0629 10.9688 20.0629 10.1719 20.0629 8.60938C 20.0629 7.875 19.727 7.14453 18.8207 6.90625C 19.5981 6.58984 19.9067 5.92578 19.9067 5.21875C 19.9067 3.71875 18.7661 3 16.8754 3L 14.0942 3L 14.0942 10.9688L 17.1723 10.9688ZM 15.8911 4.5L 16.8754 4.5C 17.7348 4.5 18.1098 4.76562 18.1098 5.4375C 18.1098 6.03125 17.7504 6.32812 16.8754 6.32812L 15.8911 6.32812L 15.8911 4.5ZM 18.2817 8.57812C 18.2817 9.09375 17.9536 9.48438 17.1723 9.48438L 15.8911 9.48438L 15.8911 7.57812L 17.2348 7.57812C 17.9848 7.57812 18.2817 7.96875 18.2817 8.57812ZM 26.0187 7.9375C 26.0187 6.10938 25.175 4.92187 23.7531 4.92187C 23.2179 4.92187 22.8039 5.10938 22.4875 5.43359L 22.4875 3L 20.6906 3L 20.6906 11L 22.3156 11L 22.3625 10.4219C 22.6984 10.8477 23.1515 11.1094 23.7687 11.1094C 25.175 11.1094 26.0187 9.82812 26.0187 7.9375ZM 24.3 7.9375C 24.3 8.95312 24.05 9.67188 23.3312 9.67188C 22.6906 9.67188 22.2531 9.10938 22.2531 8.28125L 22.2531 7.82812C 22.2531 6.84375 22.675 6.34375 23.3156 6.34375C 24.05 6.34375 24.3 7.01562 24.3 7.9375ZM 31.4598 8.28125C 31.3661 8.79688 31.1473 9.59375 30.1473 9.59375C 29.1005 9.59375 28.5848 8.71875 28.5848 6.98438C 28.5848 5.26562 29.1005 4.40625 30.1473 4.40625C 31.1473 4.40625 31.3817 5.1875 31.4755 5.76562L 33.2255 5.51562C 33.0067 3.98438 31.9442 2.89062 30.038 2.89062C 28.0536 2.89062 26.7567 4.39062 26.7567 6.98438C 26.7567 9.625 27.9911 11.1094 30.0536 11.1094C 31.8817 11.1094 33.038 10.0625 33.2411 8.53125L 31.4598 8.28125ZM 39.1129 7C 38.941 5.82812 38.066 4.92187 36.5504 4.92187C 34.7535 4.92187 33.7379 6.23438 33.7379 8.01562C 33.7379 9.8125 34.7535 11.1094 36.566 11.1094C 37.9254 11.1094 38.941 10.375 39.1129 9.14062L 37.5035 8.85938C 37.4254 9.1875 37.2066 9.67188 36.5348 9.67188C 35.7223 9.67188 35.441 8.96875 35.441 8.01562C 35.441 7.09375 35.7223 6.34375 36.5191 6.34375C 37.3004 6.34375 37.4723 7.07812 37.5191 7.29688L 39.1129 7ZM 4.51562 15.9219L 4.35938 15.9219L 0.484375 17.3281L 0.484375 18.7344L 2.70312 17.9688L 2.70312 24L 4.51562 24L 4.51562 15.9219ZM 11.4734 22.5L 8.70773 22.5C 8.55148 22.5 8.48898 22.5 8.33273 22.5625L 8.30148 22.4844C 8.45773 22.4219 8.50461 22.3906 8.61398 22.2812L 9.42648 21.4062C 10.5202 20.2188 11.2546 19.3438 11.2546 18.2031C 11.2546 16.75 10.3484 15.8906 8.64523 15.8906C 6.98898 15.8906 5.87961 17.1094 5.87961 18.5781L 7.61398 18.5781C 7.61398 17.875 7.98898 17.3125 8.61398 17.3125C 9.19211 17.3125 9.52023 17.6875 9.52023 18.375C 9.52023 18.7812 9.30148 19.3438 8.56711 20.0938L 5.97336 22.6875L 5.97336 24L 11.4734 24L 11.4734 22.5ZM 14.0649 20.75L 14.9243 20.75C 15.6586 20.75 16.0961 20.9688 16.0961 21.7656C 16.0961 22.2969 15.6899 22.7031 15.0024 22.7031C 14.4243 22.7031 13.9555 22.3281 13.9555 21.8281L 12.2211 21.8281C 12.2211 23.4219 13.643 24.1094 14.9399 24.1094C 16.5805 24.1094 17.8149 23.2656 17.8149 21.7969C 17.8149 20.8711 17.3071 20.2422 16.4321 19.957C 17.2211 19.5859 17.6899 18.8711 17.6899 18.125C 17.6899 16.6719 16.5805 15.8906 14.9399 15.8906C 13.5336 15.8906 12.3305 16.6875 12.3305 18.0156L 14.0649 18.0156C 14.0649 17.5625 14.518 17.2969 15.0024 17.2969C 15.6586 17.2969 15.9711 17.7031 15.9711 18.1719C 15.9711 18.7812 15.6274 19.25 14.9243 19.25L 14.0649 19.25L 14.0649 20.75ZM 24.5314 20.9375L 23.3439 20.9375L 23.3439 16L 21.547 16L 18.3595 21.2344L 18.3595 22.4375L 21.7345 22.4375L 21.7345 24L 23.3439 24L 23.3439 22.4375L 24.5314 22.4375L 24.5314 20.9375ZM 20.1564 20.9375L 21.547 18.5469L 21.7345 18.2266L 21.7345 20.9375L 20.1564 20.9375ZM 26.8934 20.4219C 27.0497 20.2344 27.3309 20.0156 27.8622 20.0156C 28.6747 20.0156 29.0341 20.5938 29.0341 21.3594C 29.0341 22.0781 28.7997 22.7031 28.0497 22.7031C 27.4872 22.7031 27.1278 22.3438 27.0809 21.7812L 25.3466 21.7812C 25.3466 23.2188 26.6903 24.1094 28.0653 24.1094C 29.9091 24.1094 30.7528 22.8281 30.7528 21.4844C 30.7528 19.7969 29.7372 18.7656 28.4247 18.7656C 27.7372 18.7656 27.3778 19.0156 27.2372 19.2188L 27.2059 19.2188L 27.3934 17.5L 30.5028 17.5L 30.5028 16L 25.9872 16L 25.5184 20.0781L 26.8934 20.4219ZM 35.3443 18.1562L 37.0162 18.1562C 36.7506 16.8594 35.9537 15.8906 34.3912 15.8906C 32.2037 15.8906 31.5006 17.7188 31.5318 20.2969L 31.5318 20.5938C 31.5318 22.8594 32.7193 24.1094 34.3756 24.1094C 35.9693 24.1094 37.0475 22.9375 37.0475 21.4062C 37.0475 19.8906 36.2975 18.7188 34.86 18.7188C 34.1803 18.7188 33.6412 18.9922 33.2779 19.3711C 33.3404 18.1289 33.7232 17.3281 34.3756 17.3281C 34.9381 17.3281 35.1568 17.5625 35.3443 18.1562ZM 33.2662 21.2188L 33.2662 21.125C 33.2662 20.6406 33.5787 20.1094 34.2818 20.1094C 34.9225 20.1094 35.3443 20.6094 35.3443 21.4062C 35.3443 22.1562 34.9381 22.7031 34.3287 22.7031C 33.6568 22.7031 33.2662 22.2344 33.2662 21.2188ZM 43.3734 16L 37.8734 16L 37.8734 17.5L 41.4202 17.5L 38.6859 24L 40.514 24L 43.3734 16.9688L 43.3734 16ZM 49.3399 21.7969C 49.3399 20.9102 48.8789 20.25 48.1407 19.8828C 48.7891 19.5234 49.1836 18.9102 49.1836 18.1406C 49.1836 16.6719 48.1368 15.8906 46.6368 15.8906C 45.168 15.8906 44.1055 16.6719 44.1055 18.1406C 44.1055 18.9062 44.5039 19.5195 45.1524 19.8789C 44.4102 20.2461 43.9336 20.9102 43.9336 21.7969C 43.9336 23.3281 45.1055 24.1094 46.6524 24.1094C 48.1993 24.1094 49.3399 23.3281 49.3399 21.7969ZM 47.4493 18.2344C 47.4493 18.8125 47.1836 19.1875 46.6524 19.1875C 46.1211 19.1875 45.8399 18.8125 45.8399 18.2344C 45.8399 17.6562 46.1211 17.3281 46.6368 17.3281C 47.168 17.3281 47.4493 17.6719 47.4493 18.2344ZM 47.6055 21.6562C 47.6055 22.2969 47.2305 22.6719 46.6524 22.6719C 46.0743 22.6719 45.668 22.2969 45.668 21.6562C 45.668 21 46.0743 20.6094 46.6368 20.6094C 47.2149 20.6094 47.6055 21 47.6055 21.6562ZM 52.2312 21.8711L 50.5515 21.8711C 50.8172 23.168 51.6101 24.1328 53.1726 24.1328C 55.3406 24.0078 56.0359 22.2656 56.0359 19.7031L 56.0359 19.3906C 56.0359 17.1406 54.8484 15.8906 53.1922 15.8906C 51.5984 15.8906 50.489 17.0625 50.489 18.5938C 50.489 20.1094 51.2703 21.2812 52.7078 21.2812C 53.3875 21.2812 53.9187 21.0117 54.2859 20.6328C 54.2117 21.8672 53.8484 22.6914 53.2 22.6992C 52.6297 22.707 52.4148 22.4609 52.2312 21.8711ZM 52.2234 18.5938C 52.2234 17.8438 52.6297 17.2969 53.239 17.2969C 53.9109 17.2969 54.3015 17.7656 54.3015 18.7812L 54.3015 18.875C 54.3015 19.3594 53.989 19.8906 53.2859 19.8906C 52.6453 19.8906 52.2234 19.3906 52.2234 18.5938ZM 62.6479 19.2969C 62.6479 17.0625 61.4292 15.8906 59.8042 15.8906C 58.1792 15.8906 56.9604 17.0625 56.9604 19.2969L 56.9604 20.625C 56.9604 22.9844 58.1636 24.1094 59.8042 24.1094C 61.4292 24.1094 62.6479 22.9844 62.6479 20.625L 62.6479 19.2969ZM 60.8823 20.8594C 60.8823 22.1875 60.4136 22.625 59.8042 22.625C 59.1792 22.625 58.7261 22.1875 58.7261 20.8594L 58.7261 19.0625C 58.7261 17.8594 59.1792 17.3594 59.8042 17.3594C 60.4292 17.3594 60.8823 17.8594 60.8823 19.0625L 60.8823 20.8594Z"/>
<path id="path10_fill" d="M 11.108 31.9034C 16.9517 31.9034 20.0426 29.4403 20.0426 24.6108C 20.0426 22.3409 19.0043 20.0831 16.2031 19.3466C 18.6058 18.3686 19.5597 16.3161 19.5597 14.1307C 19.5597 9.49432 16.0341 7.27273 10.1903 7.27273L 1.59375 7.27273L 1.59375 31.9034L 11.108 31.9034ZM 7.14773 11.9091L 10.1903 11.9091C 12.8466 11.9091 14.0057 12.7301 14.0057 14.8068C 14.0057 16.642 12.8949 17.5597 10.1903 17.5597L 7.14773 17.5597L 7.14773 11.9091ZM 14.5369 24.5142C 14.5369 26.108 13.5227 27.3153 11.108 27.3153L 7.14773 27.3153L 7.14773 21.4233L 11.3011 21.4233C 13.6193 21.4233 14.5369 22.6307 14.5369 24.5142ZM 28.6976 7.27273L 23.1437 7.27273L 23.1437 32L 28.6976 32L 28.6976 7.27273ZM 41.8864 32L 47.1989 32L 47.1989 19.6364C 47.1989 15.3381 43.8182 13.2131 39.5682 13.2131C 35.7046 13.2131 32.4205 15 31.4546 18.5256L 36.6705 19.25C 37.1052 17.946 37.8296 17.3182 39.2785 17.3182C 40.9205 17.3182 41.5966 18.0909 41.5966 19.5881L 41.5966 20.6023L 39.7131 20.6023C 33.5796 20.6023 31.358 23.2102 31.358 26.929C 31.358 30.1165 34.1108 32.3381 37.4432 32.3381C 39.7614 32.3381 41.162 31.3722 41.7415 30.4062L 41.8864 30.4062L 41.8864 32ZM 41.5966 24.0312L 41.5966 26.0597C 41.5966 27.3636 40.1478 28.3295 38.6989 28.3295C 37.4915 28.3295 36.7188 27.6534 36.7188 26.6392C 36.7188 25.2869 37.5881 24.0312 39.7614 24.0312L 41.5966 24.0312ZM 66.0654 19.6364C 65.5342 16.0142 62.8296 13.2131 58.1449 13.2131C 52.591 13.2131 49.4518 17.2699 49.4518 22.7756C 49.4518 28.3295 52.591 32.3381 58.1932 32.3381C 62.3949 32.3381 65.5342 30.0682 66.0654 26.2528L 61.091 25.3835C 60.8495 26.3977 60.1734 27.8949 58.0967 27.8949C 55.5853 27.8949 54.716 25.7216 54.716 22.7756C 54.716 19.9261 55.5853 17.608 58.0484 17.608C 60.4631 17.608 60.9944 19.8778 61.1393 20.554L 66.0654 19.6364ZM 79.5651 32L 85.5537 32L 78.6112 21.3509L 85.2639 13.4545L 78.8406 13.4545L 73.9145 19.5881L 73.673 19.5881L 73.673 7.27273L 68.119 7.27273L 68.119 32L 73.673 32L 73.673 27.2188L 75.2788 25.3111L 79.5651 32Z"/>
<path id="path11_fill" d="M 9.2848 31.9155C 14.1626 31.9155 18.4851 29.8146 18.9801 24.5263C 19.1733 22.3409 18.3764 20.1918 16.179 19.419C 18.5938 18.4411 20.1151 16.6783 20.3565 14.0462C 20.8153 9.02344 16.5533 7.32102 12.2308 7.27273L 4.09304 7.27273L -0.169034 31.9034L 9.2848 31.9155ZM 8.70526 11.9091L 11.8565 11.9212C 13.7763 11.9574 15.1286 12.5732 14.8388 14.6982C 14.5249 16.9801 12.4964 17.5717 10.468 17.5717L 7.72727 17.5597L 8.70526 11.9091ZM 13.6676 24.4176C 13.3658 26.4702 11.5788 27.3274 9.65909 27.3274L 6.03693 27.3153L 7.06321 21.4233L 11.2891 21.4354C 13.1364 21.4957 13.9332 22.6065 13.6676 24.4176ZM 31.052 7.27273L 25.643 7.27273L 21.3567 32L 26.7658 32L 31.052 7.27273ZM 39.9063 32L 44.9773 32L 47.0782 19.6364C 47.549 15.5312 44.3978 13.2614 40.5824 13.2131C 37.0086 13.1648 33.1691 14.8672 32.0824 18.5135L 37.1172 19.2259C 37.6606 18.0305 38.5178 17.2699 39.8942 17.3061C 41.3431 17.3544 41.8019 18.2237 41.6329 19.576L 41.4759 20.6023L 39.4596 20.5902C 35.1854 20.5902 30.8388 22.1839 30.5008 27.0135C 30.2834 30.1165 32.7103 32.3018 35.7046 32.3501C 37.4312 32.3743 39.0732 31.7947 40.1236 30.3942L 40.1961 30.3821L 39.9063 32ZM 40.9084 24.0312L 40.5583 26.0597C 40.2685 27.4844 38.6868 28.402 37.2983 28.3537C 36.3324 28.3175 35.6684 27.75 35.7891 26.7358C 36.0185 24.9247 37.6243 24.0312 39.3147 24.0071L 40.9084 24.0312ZM 65.9809 19.6605C 65.5342 15.7727 63.0107 13.2734 59.0143 13.2131C 53.4724 13.1286 49.8864 17.6562 49.2948 22.848C 48.7394 27.7983 51.118 32.2656 56.515 32.3381C 60.3665 32.3984 64.0853 30.2131 64.8218 26.2528L 60.0647 25.3956C 59.5938 26.8807 58.4468 27.9432 56.8289 27.919C 54.1847 27.8587 54.2209 24.7798 54.4383 22.848C 54.7039 20.5902 55.7181 17.4993 58.5192 17.608C 60.282 17.6804 60.8374 19.0689 61.103 20.5781L 65.9809 19.6605ZM 77.5608 32L 83.2114 32L 78.3456 21.532L 86.3506 13.4545L 79.8186 13.4545L 73.9749 19.6122L 73.8058 19.6243L 76.0395 7.27273L 70.6304 7.27273L 66.3321 32L 71.7533 32L 72.5502 27.3878L 74.5786 25.3473L 77.5608 32ZM 103.809 7.27273L 98.3512 7.27273L 94.0649 32L 99.5223 32L 103.809 7.27273ZM 115.545 13.4545L 112.732 13.4545L 113.42 9.49432L 108.011 9.49432L 107.323 13.4545L 105.126 13.4545L 104.45 17.3182L 106.659 17.3182L 105.053 26.8324C 104.739 29.7301 106.816 32.2173 109.75 32.3381C 110.728 32.3743 111.694 32.2777 112.672 32.1207L 113.288 27.8466L 111.706 27.8224C 110.752 27.7621 110.438 27.0739 110.547 26.1804L 112.068 17.3182L 114.881 17.3182L 115.545 13.4545ZM 124.659 32L 129.73 32L 131.831 19.6364C 132.302 15.5312 129.151 13.2614 125.335 13.2131C 121.762 13.1648 117.922 14.8672 116.835 18.5135L 121.87 19.2259C 122.414 18.0305 123.271 17.2699 124.647 17.3061C 126.096 17.3544 126.555 18.2237 126.386 19.576L 126.229 20.6023L 124.213 20.5902C 119.938 20.5902 115.592 22.1839 115.254 27.0135C 115.036 30.1165 117.463 32.3018 120.458 32.3501C 122.184 32.3743 123.826 31.7947 124.877 30.3942L 124.949 30.3821L 124.659 32ZM 125.661 24.0312L 125.311 26.0597C 125.021 27.4844 123.44 28.402 122.051 28.3537C 121.085 28.3175 120.421 27.75 120.542 26.7358C 120.771 24.9247 122.377 24.0312 124.068 24.0071L 125.661 24.0312ZM 143.182 7.27273L 137.773 7.27273L 133.486 32L 138.895 32L 143.182 7.27273ZM 146.132 9.62713C 146.132 11.2209 147.339 12.2472 148.873 12.2592C 150.527 12.2713 151.891 11.1605 151.903 9.44602C 151.903 7.86435 150.659 6.83807 149.126 6.82599C 147.472 6.81392 146.132 7.93679 146.132 9.62713ZM 151.046 13.4545L 145.637 13.4545L 142.425 32L 147.834 32L 151.046 13.4545ZM 168.614 19.6605C 168.168 15.7727 165.644 13.2734 161.648 13.2131C 156.106 13.1286 152.52 17.6562 151.928 22.848C 151.373 27.7983 153.751 32.2656 159.148 32.3381C 163 32.3984 166.719 30.2131 167.455 26.2528L 162.698 25.3956C 162.227 26.8807 161.08 27.9432 159.462 27.919C 156.818 27.8587 156.854 24.7798 157.072 22.848C 157.337 20.5902 158.352 17.4993 161.153 17.608C 162.916 17.6804 163.471 19.0689 163.737 20.5781L 168.614 19.6605Z"/>
</defs>
</svg>
