<svg width="888" height="167" viewBox="0 0 888 167" version="1.1" xmlns="http://www.w3.org/2000/svg" xmlns:xlink="http://www.w3.org/1999/xlink">
<title>weights-and-styles</title>
<desc>Created using Figma</desc>
<g id="Canvas" transform="translate(-1509 -1027)">
<clipPath id="clip-0" clip-rule="evenodd">
<path d="M 1509 1027L 2397 1027L 2397 1194L 1509 1194L 1509 1027Z" fill="#FFFFFF"/>
</clipPath>
<g id="weights-and-styles" clip-path="url(#clip-0)">
<g id="Regular">
<use xlink:href="#path0_fill" transform="translate(1508 1019)"/>
</g>
<g id="AaBbCc 1234567890">
<use xlink:href="#path1_fill" transform="translate(1508 1156)"/>
</g>
<g id="AaBbCc 1234567890">
<use xlink:href="#path2_fill" transform="translate(1832 1156)"/>
</g>
<g id="AaBbCc 1234567890">
<use xlink:href="#path3_fill" transform="translate(2183 1156)"/>
</g>
<g id="Regular Italic">
<use xlink:href="#path4_fill" transform="translate(1508 1076)"/>
</g>
<g id="Medium">
<use xlink:href="#path5_fill" transform="translate(1832 1019)"/>
</g>
<g id="Medium Italic">
<use xlink:href="#path6_fill" transform="translate(1832 1076)"/>
</g>
<g id="Bold">
<use xlink:href="#path7_fill" transform="translate(2183 1019)"/>
</g>
<g id="Bold Italic">
<use xlink:href="#path8_fill" transform="translate(2183 1076)"/>
</g>
</g>
</g>
<defs>
<path id="path0_fill" d="M 23.7955 46L 28.5682 46L 28.5682 45.7273L 20.9318 31.4261C 24.9716 29.7386 27.4091 26.1932 27.4091 22C 27.4091 15.3182 23.0455 11.0909 15.2727 11.0909L 4.09091 11.0909L 4.09091 46L 8.31818 46L 8.31818 32.4318L 16.6875 32.4318L 23.7955 46ZM 8.31818 14.8409L 15.2727 14.8409C 21.0682 14.8409 23.1136 17.5682 23.1136 22C 23.1136 25.4773 20.0455 28.6818 15.2727 28.6818L 8.31818 28.6818L 8.31818 14.8409ZM 53.5641 40.6136L 49.8823 38.9773C 48.7914 41.4318 46.6096 42.9318 43.4051 42.9318C 38.9221 42.9318 36.0414 39.608 35.513 34.6136L 54.3141 34.6136L 54.3141 32.9091C 54.3141 22.9545 49.1323 19.4773 42.996 19.4773C 35.9732 19.4773 31.4051 25.0682 31.4051 32.9091C 31.4051 40.9545 35.9051 46.5455 43.4051 46.5455C 48.6551 46.5455 52.0641 44.0909 53.5641 40.6136ZM 43.0641 23.0909C 47.6323 23.0909 50.4278 25.9545 50.4278 31.1364L 35.5301 31.1364C 36.0926 26.3636 38.9903 23.0909 43.0641 23.0909ZM 79.749 46.5455L 79.749 19.9545L 75.7263 19.9545L 75.7263 23.858C 74.107 21.233 71.6354 19.4773 67.8854 19.4773C 61.8172 19.4773 57.6581 25 57.6581 32.7045L 57.6581 33.1818C 57.6581 40.5455 61.8854 45.5909 67.8172 45.5909C 71.6184 45.5909 74.107 44.1591 75.7263 41.8409L 75.7263 45.6591C 75.6581 50.2273 72.6581 52.2045 68.2945 52.2045C 63.9309 52.2045 62.1581 49.8182 61.2036 48.7273L 58.2036 51.1136C 59.8399 53.4318 62.8399 55.8182 68.2945 55.8182C 74.6354 55.8182 79.749 52.4091 79.749 46.5455ZM 61.8172 32.7045C 61.8172 27.7955 64.1354 23.3636 69.1127 23.3636C 73.2036 23.3636 75.1809 27.7273 75.5218 30.25C 75.8627 31.8864 75.8627 34.4773 75.5218 35.9773C 75.0445 38.5 72.8627 41.9773 68.8399 41.9773C 64.3399 41.9773 61.8172 38.0909 61.8172 33.1818L 61.8172 32.7045ZM 102.563 35.6364C 102.563 40.5455 98.8132 42.4545 95.8132 42.4545C 92.4723 42.4545 90.0859 40.2727 90.0859 36.4545L 90.0859 19.8182L 86.0632 19.8182L 86.0632 36.4545C 86.0632 43.1364 90.6995 46.3409 94.5177 46.3409C 98.4723 46.3409 100.995 44.2955 102.29 42.3182L 102.563 42.3182L 102.563 46L 106.586 46L 106.586 19.8182L 102.563 19.8182L 102.563 35.6364ZM 117.332 11.0909L 113.309 11.0909L 113.309 46L 117.332 46L 117.332 11.0909ZM 139.775 46L 143.798 46L 143.798 29.8409C 143.798 22.4091 138.889 19.4773 133.639 19.4773C 129.821 19.4773 124.98 21.1136 123.207 25.8864L 126.889 27.3182C 128.457 23.8409 131.253 23.0227 133.571 23.0227C 136.912 23.0227 139.775 24.3864 139.775 30.1818L 139.775 30.6591L 137.662 30.7273C 128.73 30.9318 122.866 31.8182 122.866 39.1136C 122.866 43.75 126.616 46.6136 132.275 46.6136C 135.753 46.6136 138.343 44.5682 139.571 42.7273L 139.775 42.7273L 139.775 46ZM 139.775 34.0682L 139.775 36.9318C 139.775 39.25 136.98 43 132.821 43C 128.798 43 126.889 41.2955 126.889 38.5682C 126.889 34.1364 133.366 34.3409 137.662 34.1364L 139.775 34.0682ZM 162.342 19.5455C 162.07 19.4773 161.32 19.4091 160.365 19.4091C 157.297 19.4091 154.229 21.7955 153.479 24.3182L 153.206 24.3182L 153.206 19.8182L 149.183 19.8182L 149.183 46L 153.206 46L 153.206 31C 153.274 27.5909 155.865 23.5682 160.229 23.5682C 161.251 23.5682 161.933 23.6364 162.342 23.7045L 162.342 19.5455Z"/>
<path id="path1_fill" d="M 8.31818 15L 9.81818 15L 5.81818 3.36364L 4.36364 3.36364L 0.363636 15L 1.86364 15L 2.90341 11.8864L 7.28977 11.8864L 8.31818 15ZM 5.02273 5.52273L 5.18182 5.52273L 6.875 10.6364L 3.31818 10.6364L 5.02273 5.52273ZM 16.153 15L 17.4939 15L 17.4939 9.61364C 17.4939 7.13636 15.8576 6.15909 14.1076 6.15909C 12.8348 6.15909 11.2212 6.70455 10.6303 8.29545L 11.8576 8.77273C 12.3803 7.61364 13.3121 7.34091 14.0848 7.34091C 15.1985 7.34091 16.153 7.79545 16.153 9.72727L 16.153 9.88636L 15.4485 9.90909C 12.4712 9.97727 10.5166 10.2727 10.5166 12.7045C 10.5166 14.25 11.7666 15.2045 13.653 15.2045C 14.8121 15.2045 15.6757 14.5227 16.0848 13.9091L 16.153 13.9091L 16.153 15ZM 16.153 11.0227L 16.153 11.9773C 16.153 12.75 15.2212 14 13.8348 14C 12.4939 14 11.8576 13.4318 11.8576 12.5227C 11.8576 11.0455 14.0166 11.1136 15.4485 11.0455L 16.153 11.0227ZM 27.3344 11.7045C 27.3344 10.4034 26.5049 9.42045 25.1753 9.10795C 26.2265 8.59091 26.8799 7.58523 26.8799 6.47727C 26.8799 4.84091 25.5163 3.36364 23.1981 3.36364L 19.3799 3.36364L 19.3799 15L 23.4026 15C 25.6981 15 27.3344 13.8409 27.3344 11.7045ZM 20.789 4.61364L 23.1981 4.61364C 24.6981 4.61364 25.4708 5.65909 25.4708 6.47727C 25.4708 7.48295 24.5844 8.35227 23.5049 8.48295L 21.1526 8.5L 20.789 8.5L 20.789 4.61364ZM 25.9481 11.7045C 25.9481 13.0909 24.7663 13.75 23.4026 13.75L 20.789 13.75L 20.789 9.75L 23.4708 9.75C 24.9481 9.75 25.9481 10.4091 25.9481 11.7045ZM 36.3838 10.6136C 36.3838 8.04545 34.9974 6.15909 32.9747 6.15909C 31.8269 6.15909 31.0372 6.65341 30.4974 7.41477L 30.4974 3.36364L 29.1565 3.36364L 29.1565 15L 30.3156 15L 30.4406 13.8636C 30.986 14.6534 31.7928 15.1591 32.9974 15.1591C 34.9747 15.1591 36.3838 13.2273 36.3838 10.6136ZM 34.9974 10.6136C 34.9974 12.4091 34.1565 13.9545 32.6565 13.9545C 31.3156 13.9545 30.5883 12.5 30.4292 11.6591C 30.3156 11.1591 30.3156 10.2955 30.4292 9.75C 30.5428 8.90909 31.2019 7.45455 32.5656 7.45455C 34.2247 7.45455 34.9974 8.97727 34.9974 10.6136ZM 45.1703 12C 44.9203 12.9091 44.1248 13.8182 42.4203 13.8182C 40.4203 13.8182 39.193 11.6818 39.193 9.18182C 39.193 6.5 40.443 4.47727 42.4203 4.47727C 44.0339 4.47727 44.9657 5.29545 45.1703 6.36364L 46.7839 6.36364C 46.443 4.61364 45.0339 3.20455 42.4203 3.20455C 39.5112 3.20455 37.8294 5.70455 37.8294 9.18182C 37.8294 12.7045 39.7385 15.1591 42.4203 15.1591C 44.9203 15.1591 46.4203 13.7273 46.7385 12L 45.1703 12ZM 55.5278 8.88636C 55.3006 7.38636 54.0506 6.15909 52.0051 6.15909C 49.6415 6.15909 48.1415 8.02273 48.1415 10.6364C 48.1415 13.3182 49.6642 15.1818 52.0051 15.1818C 54.0278 15.1818 55.3006 14 55.5278 12.4545L 54.1869 12.4545C 53.9369 13.4091 53.1415 13.9773 52.0051 13.9773C 50.5506 13.9773 49.4824 12.6364 49.4824 10.6364C 49.4824 8.72727 50.5051 7.36364 52.0278 7.36364C 53.2324 7.36364 53.9597 8.04545 54.1869 8.88636L 55.5278 8.88636ZM 4.97727 22.3636L 4.75 22.3636L 0.727273 24.0682L 0.727273 25.4545L 3.63636 24.25L 3.63636 34L 4.97727 34L 4.97727 22.3636ZM 15.5138 32.75L 10.4911 32.75C 10.1729 32.75 9.96835 32.75 9.74108 32.8409L 9.6729 32.7045C 9.89449 32.6023 10.0138 32.483 10.2013 32.2898L 12.9456 29.4773C 14.1445 28.2443 15.2184 26.8409 15.2184 25.5C 15.2184 23.5909 13.7638 22.2045 11.6331 22.2045C 9.12744 22.2045 8.12744 24.1136 8.12744 26L 9.51381 26C 9.51381 24.6591 10.0138 23.3636 11.5877 23.3636C 12.9911 23.3636 13.8547 24.3864 13.8547 25.5398C 13.8547 26.5455 13.1956 27.3182 11.7865 28.7727L 7.69562 32.9773L 7.69562 34L 15.5138 34L 15.5138 32.75ZM 20.556 28.75C 21.9651 28.75 22.9878 29.4545 22.9878 30.8409C 22.9878 32.25 21.9424 32.9545 20.6469 32.9545C 19.3515 32.9545 18.6242 32.25 18.6242 31.0909L 17.1697 31.0909C 17.1697 33.0909 18.6242 34.1591 20.6697 34.1591C 22.7378 34.1591 24.4651 32.9318 24.4651 30.8523C 24.4651 29.8125 24.039 28.5682 22.4992 28.0455C 23.7265 27.4489 24.2151 26.2557 24.2151 25.4318C 24.2151 23.3182 22.7378 22.2045 20.7208 22.2045C 18.4878 22.2045 17.2833 23.5682 17.2833 25.2727L 18.6242 25.2727C 18.6242 24.1364 19.4424 23.3182 20.7038 23.3182C 21.9424 23.3182 22.8288 24.1136 22.8288 25.4091C 22.8288 26.5227 22.0106 27.4545 20.556 27.4545L 19.8969 27.4545L 19.8969 28.75L 20.556 28.75ZM 25.7573 30.9318L 25.7573 31.8182L 31.2346 31.8182L 31.2346 34L 32.4846 34L 32.4846 31.8182L 34.0755 31.8182L 34.0755 30.5682L 32.4846 30.5682L 32.4846 22.3636L 31.0073 22.3636L 25.7573 30.9318ZM 27.5073 30.5682L 31.0073 24.7045L 31.2346 23.9489L 31.2346 30.5682L 27.5073 30.5682ZM 36.8223 28.625C 37.345 28.1932 37.9814 27.892 39.0495 27.892C 40.2598 27.892 41.4814 28.625 41.4814 30.3864C 41.4814 31.983 40.2882 32.9602 38.953 32.9602C 37.7882 32.9602 36.9586 32.3409 36.72 31.0909L 35.3564 31.0909C 35.5609 33.2273 37.0268 34.1591 38.8677 34.1591C 41.3677 34.1591 42.8166 32.6023 42.8166 30.3693C 42.8166 28.1023 41.3223 26.625 39.0495 26.625C 38.2541 26.625 37.4473 26.9489 37.0325 27.3068L 36.953 27.3068L 37.4359 23.7045L 42.2995 23.7045L 42.2995 22.3636L 36.1632 22.3636L 35.4814 28.3182L 36.8223 28.625ZM 52.0236 30.3409C 52.0236 28.4773 50.9838 26.6818 48.6315 26.6818C 47.6884 26.6818 46.6486 26.9943 45.9327 27.7841C 46.0122 24.2557 47.3247 23.4545 48.4781 23.4545C 49.8474 23.4545 50.2338 24.4773 50.5009 25.2727L 51.8418 25.2727C 51.427 23.2955 50.3815 22.2045 48.4611 22.2045C 45.8759 22.2045 44.5463 24.4602 44.5463 28.0568L 44.5463 28.4432C 44.5463 32.1705 45.7168 34.1591 48.3304 34.1591C 50.7054 34.1591 52.0236 32.4773 52.0236 30.3409ZM 48.4895 27.9318C 50.0974 27.9318 50.6827 29.0909 50.6827 30.4091C 50.6827 31.9091 49.7054 32.9318 48.444 32.9318C 47.1997 32.9318 46.069 32.0852 46.0463 30.3466C 46.069 28.8693 47.1543 27.9318 48.4895 27.9318ZM 60.6113 22.3636L 53.3385 22.3636L 53.3385 23.6818L 59.2476 23.6818L 54.4294 34L 55.9749 34L 60.6113 23.8182L 60.6113 22.3636ZM 69.2003 30.7045C 69.2003 29.4716 68.4503 28.3693 67.2969 27.7955C 68.2856 27.2727 68.9276 26.3182 68.9276 25.2273C 68.9276 23.25 67.4731 22.2045 65.5299 22.2045C 63.5867 22.2045 62.1094 23.25 62.1094 25.2273C 62.1094 26.3182 62.7344 27.267 63.7117 27.7898C 62.5697 28.3636 61.8367 29.4716 61.8367 30.7045C 61.8367 32.7955 63.4731 34.1591 65.5299 34.1591C 67.5867 34.1591 69.2003 32.7955 69.2003 30.7045ZM 67.6094 25.2841C 67.6094 26.4091 66.6094 27.2273 65.5299 27.2273C 64.4503 27.2273 63.4276 26.4091 63.4276 25.25C 63.4276 24.0909 64.4503 23.4091 65.5015 23.4091C 66.6094 23.4091 67.6094 24.1591 67.6094 25.2841ZM 67.814 30.7102C 67.814 31.9318 66.8367 32.9773 65.5413 32.9773C 64.2458 32.9773 63.2003 31.9318 63.2003 30.6818C 63.2003 29.4318 64.2458 28.3636 65.4958 28.3636C 66.7458 28.3636 67.814 29.4318 67.814 30.7102ZM 78.3107 28.3182L 78.3107 27.9318C 78.3107 24.2045 77.1403 22.2159 74.5267 22.2159C 72.1517 22.2159 70.8335 23.8977 70.8335 26.0341C 70.8335 27.8977 71.8732 29.6932 74.2255 29.6932C 75.1687 29.6932 76.2085 29.3807 76.9244 28.5909C 76.8448 32.1193 75.5323 32.9205 74.3789 32.9205C 73.0096 32.9205 72.6232 31.8977 72.3562 31.1023L 71.0153 31.1023C 71.4301 33.0795 72.4755 34.1705 74.396 34.1705C 76.9812 34.1705 78.3107 31.9148 78.3107 28.3182ZM 72.1744 25.9659C 72.1744 24.4659 73.1517 23.4432 74.413 23.4432C 75.6573 23.4432 76.788 24.2898 76.8107 26.0284C 76.788 27.5057 75.7028 28.4432 74.3676 28.4432C 72.7596 28.4432 72.1744 27.2841 72.1744 25.9659ZM 87.6711 27.1591C 87.6711 23.75 86.0575 22.2045 83.7961 22.2045C 81.5348 22.2045 79.8984 23.75 79.8984 27.1591L 79.8984 29C 79.8984 32.4318 81.5575 34.1591 83.8189 34.1591C 86.0802 34.1591 87.6711 32.4318 87.6711 29L 87.6711 27.1591ZM 86.262 29.25C 86.262 31.4318 85.2166 32.9091 83.8189 32.9091C 82.4211 32.9091 81.3075 31.4318 81.3075 29.25L 81.3075 26.9091C 81.3075 24.7045 82.3984 23.4545 83.7961 23.4545C 85.1939 23.4545 86.262 24.7045 86.262 26.9091L 86.262 29.25Z"/>
<path id="path2_fill" d="M 8.28409 15L 10.2727 15L 6.3125 3.36364L 4.38068 3.36364L 0.420455 15L 2.40341 15L 3.30682 12.142L 7.38636 12.142L 8.28409 15ZM 5.27841 5.92045L 5.42614 5.92045L 6.89773 10.5909L 3.80114 10.5909L 5.27841 5.92045ZM 16.3249 15L 18.0351 15L 18.0351 9.53977C 18.0351 7.22159 16.4556 6.23864 14.6147 6.23864C 13.0067 6.23864 11.4499 7.00568 11.0692 8.59091L 12.7453 8.89773C 13.0863 7.93182 13.8306 7.65341 14.5522 7.65341C 15.5465 7.65341 16.2794 8.10795 16.2794 9.60795L 16.2794 9.86932L 15.5124 9.88636C 12.6431 9.93182 10.9272 10.4773 10.9272 12.6705C 10.9272 14.2045 12.1942 15.1875 13.9726 15.1875C 15.1033 15.1875 15.876 14.5852 16.2567 14.0284L 16.3249 14.0284L 16.3249 15ZM 16.2794 11.1023L 16.2794 12.1818C 16.2169 12.8125 15.4328 13.7443 14.2965 13.7443C 13.2226 13.7443 12.6828 13.267 12.6828 12.5057C 12.6828 11.3239 14.2226 11.1591 15.5181 11.1193L 16.2794 11.1023ZM 27.9211 11.642C 27.9211 10.4261 27.2279 9.40341 25.8813 9.09091C 26.9665 8.59091 27.5461 7.59659 27.5461 6.51705C 27.5461 4.6875 26.0802 3.36364 23.6086 3.36364L 19.7109 3.36364L 19.7109 14.983L 23.8927 14.983C 26.3472 14.983 27.9211 13.8239 27.9211 11.642ZM 21.5404 4.9375L 23.6086 4.9375C 25.0234 4.9375 25.7165 5.75568 25.7165 6.63068C 25.7165 7.56818 24.9779 8.28409 23.8984 8.38636L 21.6654 8.39773L 21.5404 8.39773L 21.5404 4.9375ZM 26.1143 11.625C 26.1143 12.7898 25.1768 13.4148 23.8927 13.4148L 21.5404 13.4148L 21.5404 9.84659L 23.9722 9.84659C 25.3131 9.84659 26.1143 10.4716 26.1143 11.625ZM 36.834 10.6307C 36.834 8.0625 35.5386 6.23864 33.4647 6.23864C 32.4363 6.23864 31.7034 6.66477 31.1806 7.34091L 31.1806 3.36364L 29.4249 3.36364L 29.4249 15L 30.9761 15L 31.084 13.9318C 31.6124 14.6818 32.3795 15.1591 33.4874 15.1591C 35.5215 15.1591 36.834 13.25 36.834 10.6307ZM 35.0613 10.6307C 35.0613 12.2955 34.3852 13.6591 33.0443 13.6591C 31.7659 13.6591 31.1522 12.4375 31.0499 11.4773C 30.9761 11.1136 30.9761 10.4205 31.0499 10.0114C 31.1238 8.98295 31.692 7.78977 32.9761 7.78977C 34.4193 7.78977 35.0613 9.11364 35.0613 10.6307ZM 45.3138 11.6648C 45.1149 12.6875 44.4047 13.517 42.8592 13.517C 41.024 13.517 39.9672 11.6818 39.9672 9.17614C 39.9672 6.55682 41.041 4.80114 42.8592 4.80114C 44.3478 4.80114 45.149 5.59659 45.3251 6.72159L 47.2797 6.72159C 46.9842 4.73864 45.5297 3.20455 42.8024 3.20455C 39.9047 3.20455 38.149 5.59091 38.149 9.17614C 38.149 12.8068 40.0183 15.1591 42.8138 15.1591C 45.416 15.1591 46.9956 13.642 47.2513 11.6648L 45.3138 11.6648ZM 55.9483 9.19886C 55.7892 7.56818 54.4199 6.23864 52.346 6.23864C 49.8972 6.23864 48.4028 8.10227 48.4028 10.6818C 48.4028 13.3182 49.9142 15.1761 52.3574 15.1761C 54.3688 15.1761 55.7892 13.983 55.9483 12.2898L 54.2494 12.2898C 54.0733 13.1136 53.4028 13.6761 52.3403 13.6761C 50.9824 13.6761 50.1415 12.4545 50.1415 10.6818C 50.1415 8.98295 50.954 7.72727 52.346 7.72727C 53.4824 7.72727 54.079 8.42045 54.2494 9.19886L 55.9483 9.19886ZM 5.53409 22.3239L 5.30682 22.3239L 0.721591 24.1477L 0.721591 25.767L 3.73864 24.5909L 3.73864 34L 5.53409 34L 5.53409 22.3239ZM 15.93 32.4261L 11.2539 32.4261C 10.9698 32.4261 10.805 32.4261 10.5777 32.517L 10.5152 32.3864C 10.7425 32.2898 10.8448 32.1932 11.0209 32.0114L 13.2198 29.7386C 14.555 28.3352 15.6232 26.9773 15.6232 25.5227C 15.6232 23.5455 14.2198 22.2045 11.9641 22.2045C 9.4925 22.2045 8.28227 24.0682 8.28227 26.0398L 10.0664 26.0398C 10.0664 24.8125 10.5777 23.6818 11.9243 23.6818C 13.1289 23.6818 13.8561 24.5398 13.8561 25.6364C 13.8561 26.5 13.3164 27.2841 12.0266 28.6136L 8.04932 32.6648L 8.04932 34L 15.93 34L 15.93 32.4261ZM 20.9609 28.9318C 22.2506 28.9318 23.1427 29.5 23.1427 30.8068C 23.1427 31.9943 22.2563 32.6591 21.0631 32.6591C 19.9268 32.6591 19.2165 32.0114 19.2165 31.0057L 17.387 31.0057C 17.387 33.1136 19.0574 34.1591 21.0461 34.1591C 23.2222 34.1591 24.9779 32.9318 24.9779 30.8295C 24.9779 29.6761 24.4268 28.5625 22.9949 28.0739C 24.1881 27.5 24.7506 26.358 24.7506 25.4375C 24.7506 23.3239 23.2222 22.2045 21.0802 22.2045C 18.9097 22.2045 17.5177 23.4943 17.5177 25.2784L 19.2677 25.2784C 19.2677 24.3125 20.0347 23.642 21.0972 23.642C 22.2393 23.642 22.9722 24.3693 22.9722 25.4489C 22.9722 26.483 22.2677 27.3295 20.9609 27.3295L 20.0972 27.3295L 20.0972 28.9318L 20.9609 28.9318ZM 26.094 30.5966L 26.094 31.7841L 31.3724 31.7841L 31.3724 34L 33.0031 34L 33.0031 31.7841L 34.6394 31.7841L 34.6394 30.2102L 33.0031 30.2102L 33.0031 22.3636L 31.1281 22.3636L 26.094 30.5966ZM 28.1451 30.2102L 31.1281 25.1818L 31.3724 24.6136L 31.3724 30.2102L 28.1451 30.2102ZM 37.6248 28.6818C 38.0396 28.3068 38.5964 28 39.5623 28C 40.7612 28 41.7385 28.7727 41.7385 30.3068C 41.7385 31.7102 40.8464 32.6648 39.5964 32.6648C 38.551 32.6648 37.8294 32.0795 37.6532 30.9773L 35.8805 30.9773C 36.0169 33.1023 37.6532 34.1591 39.551 34.1591C 42.1135 34.1591 43.4828 32.4943 43.4828 30.358C 43.4828 28.0284 41.9941 26.5398 39.8521 26.5398C 38.9828 26.5398 38.2782 26.8807 37.9316 27.2159L 37.8691 27.2159L 38.2782 24L 43.0226 24L 43.0226 22.3636L 36.7328 22.3636L 36.051 28.3125L 37.6248 28.6818ZM 52.6727 30.3011C 52.6727 28.3182 51.6159 26.5568 49.3545 26.5568C 48.383 26.5568 47.4398 26.9148 46.792 27.608C 46.8886 24.7159 47.917 23.75 49.008 23.75C 50.1841 23.75 50.5477 24.5284 50.8148 25.3523L 52.5364 25.3523C 52.133 23.4034 51.0477 22.2045 49.0023 22.2045C 46.2068 22.2045 44.9909 24.6023 45.0023 28.25L 45.0023 28.6534C 45.0023 32.2273 46.3659 34.1591 48.9114 34.1591C 51.2693 34.1591 52.6727 32.4716 52.6727 30.3011ZM 48.9682 28.0739C 50.3375 28.0739 50.9341 29.0852 50.9341 30.3466C 50.9341 31.7045 50.0932 32.6477 48.9625 32.6477C 47.8091 32.6477 46.8659 31.8523 46.8602 30.1818C 46.8602 28.9659 47.7352 28.0739 48.9682 28.0739ZM 61.4763 22.3636L 53.9479 22.3636L 53.9479 23.983L 59.5956 23.983L 55.0729 34L 57.0047 34L 61.4763 23.8011L 61.4763 22.3636ZM 70.0881 30.7386C 70.0881 29.483 69.3665 28.4318 68.2359 27.875C 69.2131 27.3466 69.8324 26.4148 69.8324 25.3125C 69.8324 23.2841 68.3495 22.2045 66.3268 22.2045C 64.3154 22.2045 62.8154 23.2841 62.8154 25.3125C 62.8154 26.4148 63.4234 27.3409 64.3949 27.8693C 63.2699 28.4261 62.5484 29.4773 62.5484 30.7386C 62.5484 32.875 64.2074 34.1591 66.3324 34.1591C 68.4574 34.1591 70.0881 32.875 70.0881 30.7386ZM 68.0881 25.3977C 68.0881 26.4261 67.304 27.1477 66.3324 27.1477C 65.3609 27.1477 64.554 26.4261 64.554 25.375C 64.554 24.3295 65.3609 23.7216 66.3097 23.7216C 67.2984 23.7216 68.0881 24.3807 68.0881 25.3977ZM 68.304 30.6705C 68.304 31.7898 67.4745 32.6591 66.3381 32.6591C 65.2018 32.6591 64.3154 31.7898 64.3154 30.6477C 64.3154 29.5057 65.2018 28.608 66.304 28.608C 67.412 28.608 68.304 29.5057 68.304 30.6705ZM 79.4102 28.1193L 79.4102 27.7102C 79.4102 24.142 78.0465 22.2102 75.5011 22.2102C 73.1431 22.2102 71.7227 23.9034 71.7227 26.0682C 71.7227 28.0511 72.7965 29.8182 75.0579 29.8182C 76.0295 29.8182 76.9727 29.4602 77.6204 28.7614C 77.5238 31.6477 76.5011 32.6307 75.4102 32.6364C 74.2284 32.6364 73.8704 31.8523 73.6034 31.0341L 71.8761 31.0341C 72.2795 32.9773 73.3647 34.1761 75.4102 34.1761C 78.1943 34.1136 79.4102 31.7614 79.4102 28.1193ZM 73.4784 26.0227C 73.4784 24.6705 74.3249 23.7273 75.4499 23.7273C 76.609 23.7273 77.5465 24.517 77.5522 26.1818C 77.5522 27.4034 76.6772 28.2955 75.4443 28.2955C 74.0749 28.2955 73.4784 27.2898 73.4784 26.0227ZM 88.8501 27.1591C 88.8501 23.8068 87.1853 22.2045 84.8842 22.2045C 82.5888 22.2045 80.9069 23.8068 80.9069 27.1591L 80.9069 29.0341C 80.9069 32.4659 82.5944 34.1591 84.9013 34.1591C 87.1967 34.1591 88.8501 32.4659 88.8501 29.0341L 88.8501 27.1591ZM 87.0376 29.3125C 87.0376 31.4091 86.1172 32.5909 84.9013 32.5909C 83.674 32.5909 82.7194 31.4091 82.7194 29.3125L 82.7194 26.875C 82.7194 24.8295 83.6569 23.767 84.8842 23.767C 86.1115 23.767 87.0376 24.8295 87.0376 26.875L 87.0376 29.3125Z"/>
<path id="path3_fill" d="M 8.22727 15L 11.1136 15L 7.22727 3.36364L 4.40909 3.36364L 0.522727 15L 3.40909 15L 4.07955 12.6136L 7.55682 12.6136L 8.22727 15ZM 5.75 6.65909L 5.88636 6.65909L 6.96591 10.5L 4.67045 10.5L 5.75 6.65909ZM 16.6885 15L 19.0749 15L 19.0749 9.40909C 19.0749 7.38636 17.5976 6.38636 15.5976 6.38636C 13.3703 6.38636 11.9158 7.56818 11.9158 9.13636L 14.4385 9.13636C 14.4385 8.52273 14.8249 8.22727 15.4613 8.22727C 16.234 8.22727 16.5522 8.68182 16.5522 9.38636L 16.5522 9.84091L 15.6658 9.84091C 13.0067 9.84091 11.734 10.8636 11.734 12.6136C 11.734 14.1136 13.0294 15.1591 14.5976 15.1591C 15.6885 15.1591 16.2794 14.7045 16.6203 14.25L 16.6885 14.25L 16.6885 15ZM 16.5522 11.25L 16.5522 12.5682C 16.3703 12.9318 15.8703 13.2727 15.1885 13.2727C 14.6203 13.2727 14.2567 12.9545 14.2567 12.4773C 14.2567 11.8409 14.6431 11.25 15.6885 11.25L 16.5522 11.25ZM 29.0574 11.5227C 29.0574 10.4545 28.5688 9.39205 27.2506 9.04545C 28.3813 8.58523 28.8302 7.61932 28.8302 6.59091C 28.8302 4.40909 27.1711 3.36364 24.4211 3.36364L 20.3756 3.36364L 20.3756 14.9545L 24.8529 14.9545C 27.6029 14.9545 29.0574 13.7955 29.0574 11.5227ZM 22.9893 5.54545L 24.4211 5.54545C 25.6711 5.54545 26.2165 5.93182 26.2165 6.90909C 26.2165 7.77273 25.6938 8.20455 24.4211 8.20455L 22.9893 8.20455L 22.9893 5.54545ZM 26.4665 11.4773C 26.4665 12.2273 25.9893 12.7955 24.8529 12.7955L 22.9893 12.7955L 22.9893 10.0227L 24.9438 10.0227C 26.0347 10.0227 26.4665 10.5909 26.4665 11.4773ZM 37.7204 10.6591C 37.7204 8.09091 36.584 6.38636 34.4249 6.38636C 33.6011 6.38636 32.9704 6.69886 32.4931 7.23295L 32.4931 3.36364L 29.9704 3.36364L 29.9704 15L 32.2431 15L 32.317 14.0568C 32.817 14.7386 33.5045 15.1591 34.4477 15.1591C 36.584 15.1591 37.7204 13.2955 37.7204 10.6591ZM 35.2204 10.6591C 35.2204 12.0909 34.8568 13.1136 33.8113 13.1136C 32.6522 13.1136 32.2431 12.3182 32.2431 11.1364L 32.2431 10.5C 32.2431 9.11364 32.6522 8.40909 33.7886 8.40909C 34.834 8.40909 35.2204 9.36364 35.2204 10.6591ZM 45.6348 11.0455C 45.5211 12.2727 44.9757 12.9545 43.7257 12.9545C 42.203 12.9545 41.453 11.6818 41.453 9.15909C 41.453 6.65909 42.203 5.40909 43.7257 5.40909C 44.9757 5.40909 45.5439 6.15909 45.6575 7.38636L 48.2484 7.38636C 48.0439 4.97727 46.4984 3.20455 43.5666 3.20455C 40.6802 3.20455 38.7939 5.38636 38.7939 9.15909C 38.7939 13 40.5893 15.1591 43.5893 15.1591C 46.3848 15.1591 48.112 13.4773 48.2484 11.0455L 45.6348 11.0455ZM 56.7892 9.77273C 56.7438 7.90909 55.1528 6.38636 53.0392 6.38636C 50.4256 6.38636 48.9483 8.25 48.9483 10.7727C 48.9483 13.3182 50.4256 15.1591 53.0619 15.1591C 55.0619 15.1591 56.7438 13.9545 56.7892 11.9773L 54.4256 11.9773C 54.3801 12.5682 53.9483 13.1136 53.0165 13.1136C 51.8347 13.1136 51.4256 12.1136 51.4256 10.7727C 51.4256 9.45455 51.8347 8.40909 52.9938 8.40909C 53.9938 8.40909 54.3574 9.11364 54.4256 9.77273L 56.7892 9.77273ZM 6.56818 22.25L 6.34091 22.25L 0.704545 24.2955L 0.704545 26.3409L 3.93182 25.2273L 3.93182 34L 6.56818 34L 6.56818 22.25ZM 16.6885 31.8182L 12.6658 31.8182C 12.4385 31.8182 12.3476 31.8182 12.1203 31.9091L 12.0749 31.7955C 12.3022 31.7045 12.3703 31.6591 12.5294 31.5L 13.7112 30.2273C 15.3022 28.5 16.3703 27.2273 16.3703 25.5682C 16.3703 23.4545 15.0522 22.2045 12.5749 22.2045C 10.1658 22.2045 8.55216 23.9773 8.55216 26.1136L 11.0749 26.1136C 11.0749 25.0909 11.6203 24.2727 12.5294 24.2727C 13.3703 24.2727 13.8476 24.8182 13.8476 25.8182C 13.8476 26.4091 13.5294 27.2273 12.4612 28.3182L 8.68852 32.0909L 8.68852 34L 16.6885 34L 16.6885 31.8182ZM 21.708 29.2727C 22.7762 29.2727 23.4126 29.5909 23.4126 30.75C 23.4126 31.5227 22.8216 32.1136 21.8216 32.1136C 20.9807 32.1136 20.2989 31.5682 20.2989 30.8409L 17.7762 30.8409C 17.7762 33.1591 19.8444 34.1591 21.7307 34.1591C 24.1171 34.1591 25.9126 32.9318 25.9126 30.7955C 25.9126 29.4489 25.1739 28.5341 23.9012 28.1193C 25.0489 27.5795 25.7307 26.5398 25.7307 25.4545C 25.7307 23.3409 24.1171 22.2045 21.7307 22.2045C 19.6853 22.2045 17.9353 23.3636 17.9353 25.2955L 20.458 25.2955C 20.458 24.6364 21.1171 24.25 21.8216 24.25C 22.7762 24.25 23.2307 24.8409 23.2307 25.5227C 23.2307 26.4091 22.7307 27.0909 21.708 27.0909L 20.458 27.0909L 20.458 29.2727L 21.708 29.2727ZM 26.7048 29.9773L 26.7048 31.7273L 31.6139 31.7273L 31.6139 34L 33.9548 34L 33.9548 31.7273L 35.682 31.7273L 35.682 29.5455L 33.9548 29.5455L 33.9548 22.3636L 31.3411 22.3636L 26.7048 29.9773ZM 29.3184 29.5455L 31.3411 26.0682L 31.6139 25.6023L 31.6139 29.5455L 29.3184 29.5455ZM 39.1177 28.7955C 39.345 28.5227 39.7541 28.2045 40.5268 28.2045C 41.7086 28.2045 42.2314 29.0455 42.2314 30.1591C 42.2314 31.2045 41.8905 32.1136 40.7995 32.1136C 39.9814 32.1136 39.4586 31.5909 39.3905 30.7727L 36.8677 30.7727C 36.8677 32.8636 38.8223 34.1591 40.8223 34.1591C 43.5041 34.1591 44.7314 32.2955 44.7314 30.3409C 44.7314 27.8864 43.2541 26.3864 41.345 26.3864C 40.345 26.3864 39.8223 26.75 39.6177 27.0455L 39.5723 27.0455L 39.845 24.5455L 44.3677 24.5455L 44.3677 22.3636L 37.7995 22.3636L 37.1177 28.2955L 39.1177 28.7955ZM 53.8872 30.2273C 53.8872 28.0227 52.7963 26.3182 50.7054 26.3182C 49.7168 26.3182 48.9327 26.7159 48.4043 27.267C 48.4952 25.4602 49.052 24.2955 50.0009 24.2955C 50.819 24.2955 51.1372 24.6364 51.4099 25.5L 53.8418 25.5C 53.4554 23.6136 52.2963 22.2045 50.0236 22.2045C 46.8418 22.2045 45.819 24.8636 45.8645 28.6136L 45.8645 29.0455C 45.8645 32.3409 47.5918 34.1591 50.0009 34.1591C 52.319 34.1591 53.8872 32.4545 53.8872 30.2273ZM 48.3872 29.9545L 48.3872 29.8182C 48.3872 29.1136 48.8418 28.3409 49.8645 28.3409C 50.7963 28.3409 51.4099 29.0682 51.4099 30.2273C 51.4099 31.3182 50.819 32.1136 49.9327 32.1136C 48.9554 32.1136 48.3872 31.4318 48.3872 29.9545ZM 63.0885 22.3636L 55.0885 22.3636L 55.0885 24.5455L 60.2476 24.5455L 56.2703 34L 58.9294 34L 63.0885 23.7727L 63.0885 22.3636ZM 71.7671 30.7955C 71.7671 29.5057 71.0966 28.5455 70.0228 28.0114C 70.966 27.4886 71.5398 26.5966 71.5398 25.4773C 71.5398 23.3409 70.0171 22.2045 67.8353 22.2045C 65.6989 22.2045 64.1535 23.3409 64.1535 25.4773C 64.1535 26.5909 64.733 27.483 65.6762 28.0057C 64.5966 28.5398 63.9035 29.5057 63.9035 30.7955C 63.9035 33.0227 65.608 34.1591 67.858 34.1591C 70.108 34.1591 71.7671 33.0227 71.7671 30.7955ZM 69.0171 25.6136C 69.0171 26.4545 68.6307 27 67.858 27C 67.0853 27 66.6762 26.4545 66.6762 25.6136C 66.6762 24.7727 67.0853 24.2955 67.8353 24.2955C 68.608 24.2955 69.0171 24.7955 69.0171 25.6136ZM 69.2444 30.5909C 69.2444 31.5227 68.6989 32.0682 67.858 32.0682C 67.0171 32.0682 66.4262 31.5227 66.4262 30.5909C 66.4262 29.6364 67.0171 29.0682 67.8353 29.0682C 68.6762 29.0682 69.2444 29.6364 69.2444 30.5909ZM 81.5068 27.75L 81.5068 27.2955C 81.5068 24.0227 79.7795 22.2045 77.3704 22.2045C 75.0522 22.2045 73.4386 23.9091 73.4386 26.1364C 73.4386 28.3409 74.5749 30.0455 76.6659 30.0455C 77.6545 30.0455 78.4272 29.6534 78.9613 29.1023C 78.8534 30.8977 78.3249 32.0966 77.3818 32.108C 76.5522 32.1193 76.2397 31.7614 75.9727 30.9034L 73.5295 30.9034C 73.9159 32.7898 75.0693 34.1932 77.342 34.1932C 80.4954 34.0114 81.5068 31.4773 81.5068 27.75ZM 75.9613 26.1364C 75.9613 25.0455 76.5522 24.25 77.4386 24.25C 78.4159 24.25 78.984 24.9318 78.984 26.4091L 78.984 26.5455C 78.984 27.25 78.5295 28.0227 77.5068 28.0227C 76.5749 28.0227 75.9613 27.2955 75.9613 26.1364ZM 91.1243 27.1591C 91.1243 23.9091 89.3515 22.2045 86.9879 22.2045C 84.6243 22.2045 82.8515 23.9091 82.8515 27.1591L 82.8515 29.0909C 82.8515 32.5227 84.6015 34.1591 86.9879 34.1591C 89.3515 34.1591 91.1243 32.5227 91.1243 29.0909L 91.1243 27.1591ZM 88.5561 29.4318C 88.5561 31.3636 87.8743 32 86.9879 32C 86.0788 32 85.4197 31.3636 85.4197 29.4318L 85.4197 26.8182C 85.4197 25.0682 86.0788 24.3409 86.9879 24.3409C 87.897 24.3409 88.5561 25.0682 88.5561 26.8182L 88.5561 29.4318Z"/>
<path id="path4_fill" d="M 20.8295 46L 25.3807 46L 25.3807 45.7102L 20.4205 31.4432C 24.6477 29.858 27.8182 26.5 28.3295 21.8807C 29.0625 15.1818 24.6818 11.1932 18.1875 11.0909L 7.46591 11.0909L 1.63636 46L 5.76136 46L 8.11364 32.4148L 16.2614 32.4489L 20.8295 46ZM 11.1648 14.8239L 18.0341 14.858C 22.5341 14.9432 24.8182 17.3125 24.1534 21.8466C 23.5227 26.142 19.2273 28.7159 15.1534 28.6989L 8.53977 28.6989L 11.1648 14.8239ZM 51.4505 40.6307L 47.9903 39.0114C 46.5414 41.5511 44.0698 43.017 41.121 42.9318C 36.5528 42.8295 34.746 38.6705 34.9846 34.6136L 53.2573 34.6136L 53.4278 32.9091C 54.0926 26.1761 52.0471 19.5625 44.2744 19.4602C 36.7232 19.375 31.9676 26.0909 31.1835 33.0114C 30.3994 39.7784 33.3653 46.4432 40.9505 46.5455C 45.2801 46.6136 49.5755 44.6875 51.4505 40.6307ZM 44.1721 23.0739C 48.8426 23.1761 50.4619 26.9432 49.8312 31.1364L 35.3766 31.1534C 36.6891 27.1477 39.4335 22.9716 44.1721 23.0739ZM 76.5615 46.5455L 81.0104 19.9545L 77.0899 19.9545L 76.3911 23.892C 75.0445 21.0795 72.4877 19.5455 69.3854 19.4773C 62.2945 19.3239 58.3059 26.5682 57.4536 32.7386L 57.3854 33.233C 56.7036 38.8239 58.7661 45.4375 65.3797 45.5909C 68.6865 45.6591 71.499 44.3977 73.5615 41.8068L 72.7604 45.6761C 71.9934 50.0227 68.5502 52.3239 64.2377 52.2045C 61.3911 52.1193 59.5502 50.9091 57.9138 48.7102L 54.7945 51.0455C 56.9422 54.2841 60.1979 55.767 64.0672 55.8182C 69.9309 55.9034 75.6581 52.7159 76.5615 46.5455ZM 61.5104 32.8409C 62.2093 28.3068 65.0729 23.1761 70.3059 23.3807C 73.8343 23.517 75.232 27.1989 75.232 30.25C 75.232 32.1591 74.9422 34.1364 74.2774 35.9261C 73.0672 39.1307 70.2206 42.0966 66.5729 41.9943C 61.9024 41.875 60.9309 37.1193 61.4422 33.3182L 61.5104 32.8409ZM 101.353 35.6364C 100.722 39.5398 97.5518 42.608 93.478 42.4545C 90.0689 42.3352 88.7393 39.608 89.1314 36.4716L 91.8586 19.8182L 87.9382 19.8182L 85.2109 36.4545C 84.6655 40.9545 86.7791 46.2045 91.9609 46.358C 95.2677 46.4602 98.0802 44.8409 100.092 42.3011L 100.279 42.3011L 99.6143 46L 103.552 46L 107.864 19.8182L 103.944 19.8182L 101.353 35.6364ZM 120.605 11.0909L 116.684 11.0909L 110.855 46L 114.775 46L 120.605 11.0909ZM 136.861 46L 140.798 46L 143.44 29.8409C 144.122 24.0966 141.139 19.5966 135.139 19.4773C 130.588 19.392 126.071 21.5739 124.196 25.8523L 127.724 27.3011C 129.275 24.608 131.73 22.9034 134.9 23.0057C 139.093 23.142 140.014 26.4148 139.4 30.1477L 139.298 30.6761L 137.116 30.7273C 130.758 30.8807 122.201 31.1023 121.588 39.233C 121.213 44.125 125.218 46.5795 129.684 46.6307C 132.77 46.6648 135.446 45.0455 137.338 42.7102L 137.457 42.7102L 136.861 46ZM 138.94 34.0511L 138.326 36.9318C 137.593 40.3409 133.809 43.0682 130.417 43.0341C 127.673 43 125.15 41.8068 125.576 38.7045C 126.258 33.7784 133.4 34.2727 137.014 34.1364L 138.94 34.0511ZM 163.893 19.5284C 163.212 19.4091 162.513 19.358 161.814 19.358C 158.626 19.358 155.729 21.5057 154.399 24.3352L 154.195 24.3352L 154.996 19.8182L 151.058 19.8182L 146.729 46L 150.666 46L 153.155 31C 153.905 27.0966 157.263 23.5 161.405 23.517C 162.07 23.5341 162.751 23.5852 163.399 23.7045L 163.893 19.5284ZM 186.31 11.0909L 182.202 11.0909L 176.356 46L 180.481 46L 186.31 11.0909ZM 198.867 45.9489L 199.259 42.25C 198.731 42.3011 198.202 42.3523 197.657 42.3523C 195.202 42.3352 194.333 40.9205 194.606 38.517L 197.231 23.5511L 202.668 23.5682L 203.077 19.8182L 197.657 19.8352L 198.646 14.2273L 194.708 14.2273L 193.753 19.8352L 189.646 19.8182L 189.202 23.5682L 193.31 23.5511L 190.515 39.5909C 190.191 43.2386 192.799 46.0682 196.447 46.1705C 197.265 46.2045 198.083 46.1875 198.867 45.9489ZM 218.732 46L 222.67 46L 225.312 29.8409C 225.994 24.0966 223.011 19.5966 217.011 19.4773C 212.46 19.392 207.943 21.5739 206.068 25.8523L 209.596 27.3011C 211.147 24.608 213.602 22.9034 216.772 23.0057C 220.965 23.142 221.886 26.4148 221.272 30.1477L 221.17 30.6761L 218.988 30.7273C 212.63 30.8807 204.073 31.1023 203.46 39.233C 203.085 44.125 207.09 46.5795 211.556 46.6307C 214.641 46.6648 217.318 45.0455 219.21 42.7102L 219.329 42.7102L 218.732 46ZM 220.812 34.0511L 220.198 36.9318C 219.465 40.3409 215.681 43.0682 212.289 43.0341C 209.545 43 207.022 41.8068 207.448 38.7045C 208.13 33.7784 215.272 34.2727 218.886 34.1364L 220.812 34.0511ZM 238.76 11.0909L 234.839 11.0909L 229.01 46L 232.93 46L 238.76 11.0909ZM 245.385 13.375C 245.402 14.9261 246.595 16.0511 248.129 16.017C 249.731 16 250.976 14.7727 250.942 13.1534C 250.908 11.6705 249.68 10.5114 248.197 10.5284C 246.646 10.5455 245.368 11.8068 245.385 13.375ZM 248.845 19.8182L 244.925 19.8182L 240.612 46L 244.533 46L 248.845 19.8182ZM 274.919 27.6932C 274.357 22.6307 270.675 19.5625 265.629 19.4773C 258.061 19.358 253.323 26.0739 252.521 33.0114C 251.788 39.5057 254.499 46.4261 261.913 46.5455C 267.078 46.6307 272.021 43.6136 273.095 38.3636L 269.158 38.3807C 267.965 41.3636 265.271 43.0341 262.084 42.9489C 256.987 42.7955 255.965 37.0852 256.476 33.0114C 257.056 28.3409 260.175 22.9545 265.527 23.0909C 268.425 23.1761 270.504 24.8295 271.067 27.6761L 274.919 27.6932Z"/>
<path id="path5_fill" d="M 3.42614 11.0909L 3.42614 46L 8.8125 46L 8.8125 20.9943L 9.08523 20.9943L 17.9148 45.8295L 22.2955 45.8295L 31.1761 21.0284L 31.4659 21.0284L 31.4659 46L 36.8352 46L 36.8352 11.0909L 29.8977 11.0909L 20.3182 37.4432L 19.9091 37.4432L 10.3466 11.0909L 3.42614 11.0909ZM 63.6806 41.0909L 59.7431 38.5511C 58.5159 40.7841 56.6409 42.0284 53.7602 42.0284C 49.8056 42.0284 47.2147 39.3523 46.6522 35.0227L 64.4136 35.0227L 64.4136 32.7898C 64.4136 23.6705 59.5727 19.7159 53.0443 19.7159C 45.7318 19.7159 41.2829 25.358 41.2829 33.1648C 41.2829 40.9034 45.8852 46.5284 53.6068 46.5284C 58.7374 46.5284 62.1636 44.142 63.6806 41.0909ZM 53.0613 24.1818C 57.067 24.1818 59.334 26.9091 59.334 31.0341L 46.6693 31.0341C 47.2488 26.9261 49.5159 24.1818 53.0613 24.1818ZM 84.9564 46L 89.7291 46L 89.7291 11.0909L 84.4791 11.0909L 84.4791 23.7386C 82.8769 21.2841 80.5416 19.7159 77.1666 19.7159C 70.9621 19.7159 67.0416 25.1875 67.0416 32.9432C 67.0416 40.8011 70.9962 46.4773 77.0985 46.4773C 80.6439 46.4773 83.0473 44.8239 84.6496 42.267L 84.9564 46ZM 72.3939 32.9432C 72.3939 28.3239 74.303 24.3693 78.6326 24.3693C 82.3996 24.3693 84.2064 27.983 84.428 31.0682C 84.6496 32.2955 84.6496 34.2898 84.428 35.4318C 84.1212 38.3295 82.1439 41.9773 78.428 41.9773C 74.3882 41.9773 72.3939 37.9375 72.3939 32.9432ZM 94.5774 13.6307C 94.5774 15.3864 95.8558 16.733 97.9013 16.733C 99.9297 16.733 101.242 15.3864 101.242 13.6307C 101.242 11.9602 99.9297 10.5284 97.9013 10.5284C 95.8558 10.5284 94.5774 11.9602 94.5774 13.6307ZM 100.509 20.108L 95.2592 20.108L 95.2592 46L 100.509 46L 100.509 20.108ZM 122.424 35.142C 122.424 39.5739 119.595 41.7386 116.748 41.7386C 113.731 41.7386 111.703 40.0511 111.703 36.5227L 111.703 20.108L 106.436 20.108L 106.436 36.5057C 106.436 43.4261 110.595 46.392 114.737 46.392C 118.35 46.392 120.873 44.6534 122.237 42.6932L 122.509 42.6932L 122.578 46L 127.674 46L 127.674 20.108L 122.424 20.108L 122.424 35.142ZM 152.841 29.7898C 152.841 26.4148 154.716 24.3693 157.767 24.3693C 159.897 24.3693 162.284 25.4432 162.284 29.2102L 162.284 46L 167.551 46L 167.551 29.2955C 167.551 22.5455 164.091 19.7159 159.608 19.7159C 155.96 19.7159 153.113 21.8636 152.125 24.0114L 151.852 24.0114C 150.71 21.5227 148.392 19.7159 145.221 19.7159C 141.914 19.7159 139.409 21.7784 138.403 23.892L 138.147 23.892L 138.147 20.108L 132.949 20.108L 132.949 46L 138.216 46L 138.216 30.2159C 138.216 26.4659 140.653 24.3693 143.21 24.3693C 145.869 24.3693 147.625 25.5966 147.625 29.2955L 147.625 46L 152.841 46L 152.841 29.7898Z"/>
<path id="path6_fill" d="M 6.80114 11.0909L 1.00568 46L 6.25568 46L 10.5511 20.9773L 10.8239 20.9773L 15.1705 45.8636L 19.4148 45.8125L 32.267 20.9943L 32.5057 20.9773L 28.2102 46L 33.4432 46L 39.2386 11.0739L 32.4205 11.108L 18.6136 37.4602L 18.2216 37.4602L 13.4489 11.0739L 6.80114 11.0909ZM 61.5159 41.108L 57.9022 38.5852C 56.4363 40.8011 54.2886 42.0966 51.5954 42.0284C 47.6409 41.9261 45.8852 38.6534 46.0386 35.0227L 63.3227 35.0227L 63.5272 32.7898C 64.2261 26.108 61.8227 19.8011 54.2715 19.6989C 46.6181 19.5966 41.8284 26.2102 41.0272 33.267C 40.2602 40.1534 43.6863 46.4261 51.1863 46.5284C 55.2431 46.5966 59.5897 44.875 61.5159 41.108ZM 53.9988 24.1648C 57.9193 24.267 59.317 27.5227 58.7715 31.0341L 46.4988 31.0511C 47.692 27.642 49.9079 24.0625 53.9988 24.1648ZM 82.0416 46L 86.6951 46L 92.5076 11.0739L 87.3769 11.0909L 85.178 23.7727C 83.8314 21.2159 81.4962 19.7841 78.6155 19.7159C 71.4394 19.5455 67.5871 26.8409 66.786 33.0625C 66.0871 38.6534 67.5871 46.3409 74.5587 46.4943C 77.9166 46.5625 80.5246 44.875 82.4678 42.233L 82.0416 46ZM 72.0189 33.0795C 72.5814 29.0568 74.9337 24.1818 79.6553 24.3693C 83.2348 24.5057 84.1041 28.1193 83.9848 31.0682C 83.9337 32.5682 83.678 34 83.2178 35.4318C 82.2291 38.6023 79.928 42.1307 76.178 42.0114C 71.7462 41.875 71.5757 36.3352 72.0189 33.0795ZM 97.6626 13.75C 97.6797 15.5398 99.0603 16.767 100.833 16.75C 102.674 16.75 104.157 15.3864 104.123 13.5114C 104.106 11.7557 102.674 10.4943 100.952 10.5114C 99.1285 10.5284 97.6456 11.892 97.6626 13.75ZM 102.18 20.0909L 97.066 20.108L 92.8217 46L 97.9524 46L 102.18 20.0909ZM 121.333 35.142C 120.788 38.5682 118.333 41.875 114.549 41.7557C 111.464 41.6534 110.407 39.3693 110.748 36.5398L 113.39 20.0909L 108.259 20.108L 105.6 36.5057C 105.021 41.1591 106.845 46.2727 112.214 46.4091C 115.35 46.4943 118.044 45.0455 120.021 42.6761L 120.208 42.6761L 119.697 46L 124.64 46L 128.884 20.0909L 123.771 20.108L 121.333 35.142ZM 152.5 29.7898C 152.994 26.7557 155.057 24.233 158.329 24.3523C 161.125 24.4545 162.011 26.6705 161.704 29.1932L 158.977 46L 164.125 46L 166.835 29.2955C 167.38 24.6591 165.863 19.8011 160.494 19.7159C 157.272 19.6477 154.341 21.3523 152.602 24.0114L 152.363 24.0114C 151.596 21.3864 149.227 19.767 146.534 19.7159C 143.483 19.6477 140.926 21.4205 139.341 23.9091L 139.17 23.9091L 139.852 20.0909L 134.772 20.108L 130.528 46L 135.659 46L 138.25 30.2159C 138.727 27.233 140.909 24.25 144.216 24.3523C 147.164 24.4375 147.795 26.6705 147.471 29.2784L 144.761 46L 149.858 46L 152.5 29.7898ZM 194.182 11.0739L 188.813 11.0909L 183.017 46L 188.387 46L 194.182 11.0739ZM 206.654 45.9148L 207.114 41.5C 206.534 41.5682 205.955 41.6193 205.375 41.6193C 203.194 41.5682 202.512 40.392 202.75 38.2614L 205.205 24.4205L 210.182 24.4716L 210.677 20.0909L 205.716 20.142L 206.739 14.2273L 201.608 14.2443L 200.586 20.142L 196.802 20.0909L 196.29 24.4716L 200.074 24.4205L 197.466 39.2841C 197.057 43.2898 199.597 46.2045 203.62 46.2898C 204.659 46.3239 205.665 46.2557 206.654 45.9148ZM 225.275 46L 230.286 46L 232.945 29.6193C 233.627 23.875 230.252 19.8011 224.44 19.7159C 219.701 19.6307 214.655 21.9318 213.258 26.7557L 218.099 27.6591C 219.275 25.3068 221.286 23.858 223.979 23.9432C 227.423 24.0625 228.19 26.7386 227.712 29.7898L 227.559 30.608L 225.19 30.6591C 219.087 30.7614 211.212 31.5455 210.684 39.1477C 210.343 43.8693 214.144 46.5284 218.542 46.5795C 221.423 46.6136 223.894 45.25 225.684 43.0682L 225.803 43.0682L 225.275 46ZM 227.167 34.2727L 226.468 37.5455C 225.752 40.2727 222.479 42.3011 219.786 42.267C 217.519 42.233 215.542 41.1761 215.9 38.6534C 216.479 34.5966 221.951 34.4261 225.087 34.3409L 227.167 34.2727ZM 247.058 11.0739L 241.927 11.0909L 236.114 46L 241.262 46L 247.058 11.0739ZM 252.779 13.75C 252.797 15.5398 254.177 16.767 255.95 16.75C 257.791 16.75 259.274 15.3864 259.24 13.5114C 259.223 11.7557 257.791 10.4943 256.069 10.5114C 254.245 10.5284 252.762 11.892 252.779 13.75ZM 257.297 20.0909L 252.183 20.108L 247.939 46L 253.069 46L 257.297 20.0909ZM 282.91 28.6136C 282.569 23.3125 278.785 19.8011 273.467 19.7159C 265.848 19.5966 260.973 26.0909 260.172 33.1477C 259.405 39.8125 262.405 46.4261 269.871 46.5284C 275.189 46.6136 280.456 43.4091 281.291 37.8693L 276.297 37.8864C 275.359 40.5966 272.939 42.1136 270.092 42.0455C 265.49 41.9091 264.825 36.7614 265.285 33.1648C 265.797 28.9886 268.319 24.0455 273.16 24.1818C 275.922 24.267 277.592 25.9716 278.001 28.6136L 282.91 28.6136Z"/>
<path id="path7_fill" d="M 28.2955 35.5682C 28.2955 32.3636 26.8295 29.1761 22.875 28.1364C 26.267 26.7557 27.6136 23.858 27.6136 20.7727C 27.6136 14.2273 22.6364 11.0909 14.3864 11.0909L 2.25 11.0909L 2.25 45.8636L 15.6818 45.8636C 23.9318 45.8636 28.2955 42.3864 28.2955 35.5682ZM 10.0909 17.6364L 14.3864 17.6364C 18.1364 17.6364 19.7727 18.7955 19.7727 21.7273C 19.7727 24.3182 18.2045 25.6136 14.3864 25.6136L 10.0909 25.6136L 10.0909 17.6364ZM 20.5227 35.4318C 20.5227 37.6818 19.0909 39.3864 15.6818 39.3864L 10.0909 39.3864L 10.0909 31.0682L 15.9545 31.0682C 19.2273 31.0682 20.5227 32.7727 20.5227 35.4318ZM 43.2416 46.4091C 48.9689 46.4091 54.9689 42.5909 54.9689 33.25C 54.9689 24.25 48.9689 20.1591 43.2416 20.1591C 37.4461 20.1591 31.378 24.25 31.378 33.25C 31.378 42.5909 37.4461 46.4091 43.2416 46.4091ZM 43.2416 40.3409C 40.9234 40.3409 38.878 38.2273 38.878 33.25C 38.878 28.3409 40.9916 26.2273 43.2416 26.2273C 45.4916 26.2273 47.6052 28.3409 47.6052 33.25C 47.6052 38.2273 45.4916 40.3409 43.2416 40.3409ZM 66.1011 11.0909L 58.5329 11.0909L 58.5329 46L 66.1011 46L 66.1011 11.0909ZM 86.3356 46L 93.1537 46L 93.1537 11.0909L 85.5856 11.0909L 85.5856 22.8864C 84.1197 21.1648 82.2276 20.1591 79.7901 20.1591C 73.3128 20.1591 69.8356 25.4091 69.8356 33.1136C 69.8356 41.0227 73.3128 46.4773 79.7219 46.4773C 82.4151 46.4773 84.4606 45.25 85.9776 43.2557L 86.3356 46ZM 77.4037 33.1136C 77.4037 29.1591 78.5628 26.2273 81.6992 26.2273C 84.8356 26.2273 86.3356 28.4773 86.3356 32.5682L 86.3356 34.4091C 86.3356 38.0227 84.7674 40.3409 81.631 40.3409C 78.4265 40.3409 77.4037 37.4091 77.4037 33.1136Z"/>
<path id="path8_fill" d="M 26.7955 35.4489C 27.0682 32.3636 25.9432 29.3295 22.8409 28.2386C 26.25 26.858 28.3977 24.3693 28.7386 20.6534C 29.3864 13.5625 23.3693 11.1591 17.267 11.0909L 5.64205 11.0739L -0.102273 45.8807L 13.108 45.8807C 19.9943 45.8807 26.0966 42.9148 26.7955 35.4489ZM 12.4261 17.6023L 16.7386 17.6534C 19.4489 17.7045 21.358 18.5739 20.9489 21.5739C 20.5057 24.7955 17.642 25.6307 14.7784 25.6307L 10.7557 25.6477L 12.4261 17.6023ZM 19.2955 35.2955C 18.8693 38.1932 16.3466 39.4034 13.6364 39.4034L 8.36932 39.4205L 10.108 31.0341L 15.9375 31.0852C 18.5455 31.1875 19.6705 32.7386 19.2955 35.2955ZM 40.8893 46.4091C 48.4405 46.5284 53.3155 40.1705 54.0143 33.1307C 54.662 26.6705 51.5427 20.2614 44.3836 20.1591C 36.9348 20.0398 31.8382 26.3807 31.1223 33.3693C 30.4575 40 33.5939 46.3068 40.8893 46.4091ZM 41.4348 40.358C 38.145 40.2045 38.1961 35.7045 38.4348 33.3693C 38.7416 30.5057 40.2075 26.0568 43.8382 26.2102C 47.0939 26.3636 47.0939 30.8125 46.8552 33.1136C 46.5484 35.9943 45.1166 40.5114 41.4348 40.358ZM 69.2886 11.0739L 61.9079 11.0739L 56.1465 46L 63.5272 46L 69.2886 11.0739ZM 83.5231 46L 90.1367 46L 95.8981 11.0739L 88.5344 11.0739L 86.4549 22.9205C 85.1594 21.1818 83.3185 20.2102 81.1537 20.1591C 73.9265 19.9886 70.3469 26.9602 69.5458 33.233C 68.8299 38.9261 70.1253 46.375 77.2333 46.4943C 79.9265 46.5455 82.0231 45.2159 83.7106 43.2386L 83.5231 46ZM 76.9606 33.1989C 77.3356 30.1818 78.6651 26.0739 82.3981 26.2102C 85.8583 26.3295 85.9606 29.875 85.6367 32.5511L 85.381 34.4091C 84.9378 37.4602 83.1651 40.5114 79.6878 40.375C 76.1594 40.2386 76.6537 35.6364 76.9606 33.1989ZM 120.583 11.0739L 112.878 11.0739L 107.117 46L 114.822 46L 120.583 11.0739ZM 133.3 45.8295L 133.965 40.1193C 133.3 40.1875 132.653 40.2557 131.988 40.2386C 130.283 40.1875 129.925 39.4034 130.13 37.767L 132.261 26.0568L 136.352 26.108L 137.016 20.6193L 132.942 20.6705L 134.016 14.2784L 126.653 14.2784L 125.579 20.6705L 122.323 20.6193L 121.641 26.108L 124.88 26.0568L 122.63 38.7045C 122.119 43.358 124.386 46.392 129.124 46.4773C 130.556 46.5114 131.971 46.3409 133.3 45.8295ZM 150.104 46L 157.076 46L 159.786 29.2273C 160.451 23.5 156.36 20.2273 150.94 20.1591C 145.877 20.0739 139.536 22.6136 139.264 28.4261L 146.627 28.4091C 146.934 26.6023 148.161 25.6136 150.002 25.6648C 152.099 25.7159 152.695 27.25 152.389 29.125L 152.082 30.5568L 149.389 30.5227C 143.729 30.5057 137.252 32.3636 136.809 38.9773C 136.519 43.3409 139.945 46.4261 144.173 46.4943C 146.678 46.5284 148.775 45.608 150.428 43.733L 150.514 43.7159L 150.104 46ZM 151.656 34.7159L 150.786 38.7216C 149.729 40.0682 148.127 40.9034 146.389 40.8352C 145.025 40.8011 144.122 39.983 144.292 38.5682C 144.616 35.9943 146.866 34.75 149.269 34.7159L 151.656 34.7159ZM 175.674 11.0739L 168.294 11.0739L 162.532 46L 169.913 46L 175.674 11.0739ZM 180.159 14.4148C 180.159 16.6648 181.863 18.1136 184.028 18.1307C 186.363 18.1477 188.289 16.5795 188.306 14.1591C 188.306 11.9261 186.551 10.4773 184.386 10.4602C 182.051 10.4432 180.159 12.0284 180.159 14.4148ZM 186.687 20.6193L 179.306 20.6193L 175.198 46L 182.562 46L 186.687 20.6193ZM 211.899 30.3352C 211.899 24.625 207.978 20.2614 202.149 20.1591C 194.461 20.0227 189.297 26.142 188.478 33.4205C 187.711 40.392 191.24 46.375 198.723 46.4773C 204.433 46.5625 210.16 42.9659 210.638 36.9148L 203.717 36.9489C 203.274 39.1648 201.365 40.4091 199.132 40.358C 195.484 40.2557 195.433 36.1648 195.74 33.4205C 196.115 30.2159 197.547 26.0909 201.467 26.2273C 203.939 26.3125 204.876 28.0852 205.013 30.3352L 211.899 30.3352Z"/>
</defs>
</svg>
