<svg width="888" height="165" viewBox="0 0 888 165" xmlns="http://www.w3.org/2000/svg" xmlns:xlink="http://www.w3.org/1999/xlink"><title>weights-and-styles</title><desc>Created using Figma</desc><g transform="translate(2286 888)"><clipPath id="a" clip-rule="evenodd"><path d="M-2286-888h888v165h-888v-165z" fill="#FFF"/></clipPath><g clip-path="url(#a)"><use xlink:href="#b" transform="translate(-2287 -888)"/><use xlink:href="#c" transform="translate(-2287 -789.36)"/><use xlink:href="#d" transform="translate(-2042.48 -789.36)"/><use xlink:href="#e" transform="translate(-1785.58 -789.36)"/><use xlink:href="#f" transform="translate(-2287 -846.96)"/><use xlink:href="#g" transform="translate(-2042.48 -888)"/><use xlink:href="#h" transform="translate(-2042.48 -846.96)"/><use xlink:href="#i" transform="translate(-1785.58 -888)"/><use xlink:href="#j" transform="translate(-1785.58 -846.96)"/><use xlink:href="#k" transform="translate(-1572 -789.36)"/><use xlink:href="#l" transform="translate(-1572 -888)"/><use xlink:href="#m" transform="translate(-1572 -846.96)"/></g></g><defs><path id="b" d="M16.855 32h3.38v-.193l-5.408-10.13c2.861-1.195 4.588-3.707 4.588-6.677 0-4.733-3.091-7.727-8.597-7.727h-7.92V32h2.994v-9.61h5.928L16.855 32zM5.892 9.929h4.926c4.105 0 5.554 1.932 5.554 5.071 0 2.463-2.173 4.733-5.554 4.733H5.892V9.929zm23.99 22.457c3.719 0 6.134-1.738 7.196-4.201l-2.608-1.16c-.773 1.74-2.318 2.802-4.588 2.802-3.176 0-5.216-2.355-5.59-5.892h13.317v-1.208c0-6.81-3.38-9.514-8.017-9.514-4.974 0-8.21 3.96-8.21 9.514 0 5.7 3.188 9.66 8.5 9.66zm-.242-16.613c3.236 0 5.216 2.028 5.216 5.699H24.304c.398-3.381 2.45-5.7 5.337-5.7zm24.301-2.222v2.077h-.265c-.942-1.352-2.512-2.415-5.096-2.415-5.022 0-8.355 3.719-8.355 9.321 0 5.844 3.381 9.466 8.355 9.466 2.476 0 4.057-1.087 5.035-2.463h.326v2.222c-.048 3.235-2.173 4.636-5.264 4.636-3.09 0-4.346-1.69-5.023-2.463l-2.125 1.69c1.16 1.642 3.284 3.333 7.148 3.333 4.492 0 8.114-2.415 8.114-6.569V13.551h-2.85zm-10.866 8.983c0-4.153 2.318-6.761 5.554-6.761 2.463 0 4.443 1.642 5.12 3.815.361 1.256.386 2.463.386 2.898 0 .483-.025 1.883-.339 2.994-.58 2.367-2.897 3.912-5.215 3.912-3.091 0-5.506-2.463-5.506-6.858zM72.82 24.66c0 3.477-2.656 4.83-4.781 4.83-2.367 0-4.057-1.546-4.057-4.25V13.454h-2.85V25.24c0 4.877 3.285 7.003 5.99 7.003 2.8 0 4.587-1.45 5.505-2.85h.193V32h2.85V13.454h-2.85V24.66zM82.859 7.273H80.01V32h2.85V7.273zM98.308 32h2.85V21.327c0-6.424-3.478-8.114-7.196-8.114-2.077 0-5.892.628-7.39 4.54l2.657 1.014c.917-1.835 2.608-3.043 4.78-3.043 2.367 0 4.3 1.401 4.3 5.072v.338H96.81c-6.327 0-10.48 1.545-10.48 5.988 0 3.188 2.608 5.313 6.327 5.313 2.994 0 4.926-1.739 5.505-2.946h.145V32zm0-8.452v1.884c0 2.318-2.318 4.443-5.747 4.443-1.304 0-3.38-.435-3.38-2.753 0-3.043 3.283-3.574 7.63-3.574h1.497zm16.525-10.287c-.193-.048-.724-.096-1.4-.096-2.173 0-4.347 1.69-4.878 3.477h-.193v-3.188h-2.85V32h2.85V21.375c.048-2.415 1.883-5.264 4.974-5.264.725 0 1.208.048 1.497.096v-2.946z"/><path id="c" d="M1.281 11l.715-2.14h3.016L5.719 11H6.75L4 3H3L.25 11h1.031zm2.172-6.516h.11L4.726 8H2.28l1.172-3.516zM11.136 11h.922V7.547c0-2.078-1.125-2.625-2.328-2.625-.672 0-1.906.203-2.39 1.469l.859.328c.297-.594.844-.985 1.547-.985.765 0 1.39.454 1.39 1.641v.11h-.484c-2.047 0-3.39.5-3.39 1.937 0 1.031.843 1.719 2.046 1.719.97 0 1.594-.563 1.782-.954h.046V11zm0-2.734v.609c0 .75-.75 1.438-1.859 1.438-.422 0-1.094-.141-1.094-.891 0-.985 1.063-1.156 2.47-1.156h.483zM16.358 11c1.578 0 2.703-.813 2.703-2.266 0-.949-.57-1.582-1.48-1.785.722-.36 1.168-1.047 1.168-1.808C18.748 4.016 17.81 3 16.216 3h-2.625v8h2.766zM14.56 3.86h1.656c1.032 0 1.563.64 1.563 1.28 0 .692-.61 1.29-1.352 1.38l-1.617.011h-.25V3.86zm3.547 4.874c0 1-.813 1.407-1.75 1.407H14.56V7.39h1.844c1.015 0 1.703.421 1.703 1.343zM20.25 3v8h.844l.05-.734h.09c.313.48.844.859 1.704.859 1.609 0 2.671-1.234 2.671-3.125 0-1.875-1.062-3.078-2.671-3.078-.832 0-1.356.367-1.672.828h-.094V3h-.922zm.969 6c-.102-.375-.11-.844-.11-1 0-.148.008-.594.125-1a1.763 1.763 0 0 1 1.688-1.25c1.016 0 1.766.86 1.766 2.25 0 1.39-.75 2.297-1.75 2.297-.75 0-1.532-.516-1.72-1.297zm10.42-.063c-.171.626-.625 1.25-1.75 1.25-1.656 0-2.343-1.468-2.343-3.187 0-1.844.843-3.234 2.343-3.234.954 0 1.625.562 1.782 1.296h1.094c-.235-1.202-1.235-2.17-2.875-2.17-2.141 0-3.282 1.687-3.282 4.109 0 2.422 1.14 4.11 3.281 4.11 1.672 0 2.626-.985 2.844-2.172H31.64zm7.137-2.14c-.156-1.125-1.156-1.875-2.422-1.875C34.73 4.922 33.7 6.203 33.7 8c0 1.844 1.047 3.125 2.656 3.125 1.39 0 2.266-.813 2.422-1.875h-.922c-.172.656-.719 1.047-1.5 1.047-1 0-1.734-.922-1.734-2.297 0-1.313.703-2.25 1.75-2.25.828 0 1.328.469 1.484 1.047h.922zM3.422 16h-.156L.5 17.172v.953l2-.828V24h.922v-8zm7.244 7.14H7.213c-.22 0-.36 0-.516.063l-.047-.094c.152-.07.234-.152.363-.285L8.9 20.891c.824-.848 1.563-1.813 1.563-2.735 0-1.312-1-2.265-2.465-2.265-1.723 0-2.41 1.312-2.41 2.609h.953c0-.922.343-1.813 1.426-1.813.964 0 1.558.704 1.558 1.497 0 .691-.453 1.222-1.422 2.222l-2.812 2.89V24h5.375v-.86zm3.013-2.75h.453c.969 0 1.672.485 1.672 1.438 0 .969-.719 1.453-1.61 1.453-.89 0-1.39-.484-1.39-1.281h-1c0 1.375 1 2.11 2.406 2.11 1.422 0 2.61-.844 2.61-2.274 0-.715-.293-1.57-1.352-1.93.844-.41 1.18-1.23 1.18-1.797 0-1.453-1.016-2.218-2.402-2.218-1.536 0-2.364.937-2.364 2.109h.922c0-.781.563-1.344 1.43-1.344.851 0 1.46.547 1.46 1.438 0 .765-.562 1.406-1.562 1.406h-.453v.89zm9.748 1.25h-1.094V16h-1.015l-3.61 5.89v.61h3.766V24h.86v-1.5h1.093v-.86zm-4.516 0l2.406-4.03.157-.52v4.55H18.91zm6.404-1.335c.36-.297.797-.504 1.532-.504.832 0 1.671.504 1.671 1.715 0 1.097-.82 1.77-1.738 1.77-.8 0-1.37-.427-1.535-1.286h-.938c.141 1.469 1.149 2.11 2.415 2.11 1.718 0 2.714-1.07 2.714-2.606 0-1.559-1.027-2.574-2.59-2.574-.546 0-1.101.222-1.386.468h-.055l.332-2.476h3.344V16h-4.219l-.469 4.094.922.21zM34.72 18h.922c-.285-1.36-1.004-2.11-2.324-2.11-1.777 0-2.691 1.551-2.691 4.024v.266c0 2.562.804 3.93 2.601 3.93 1.633 0 2.54-1.157 2.54-2.626 0-1.28-.716-2.515-2.333-2.515-.648 0-1.363.215-1.855.758.054-2.426.957-2.977 1.75-2.977.941 0 1.207.703 1.39 1.25zm-1.383 1.828c1.106 0 1.508.797 1.508 1.703 0 1.032-.672 1.735-1.539 1.735-.855 0-1.633-.582-1.648-1.778.015-1.015.762-1.66 1.68-1.66zM41.67 16h-5v.906h4.063L37.42 24h1.063l3.187-7v-1zm5.905 5.734c0-.847-.515-1.605-1.308-2 .68-.359 1.12-1.015 1.12-1.765 0-1.36-1-2.078-2.335-2.078-1.336 0-2.352.718-2.352 2.078 0 .75.43 1.402 1.102 1.761-.785.395-1.29 1.157-1.29 2.004 0 1.438 1.126 2.375 2.54 2.375 1.414 0 2.523-.937 2.523-2.375zm-1.094-3.726c0 .773-.687 1.336-1.43 1.336-.741 0-1.445-.563-1.445-1.36 0-.797.704-1.265 1.426-1.265.762 0 1.45.515 1.45 1.289zm.141 3.73c0 .84-.672 1.559-1.562 1.559-.891 0-1.61-.719-1.61-1.578 0-.86.719-1.594 1.578-1.594.86 0 1.594.734 1.594 1.613zm3.123.27h-.922c.285 1.36 1.004 2.11 2.324 2.11 1.778 0 2.692-1.552 2.692-4.024v-.266c0-2.562-.805-3.93-2.602-3.93-1.633 0-2.539 1.157-2.539 2.625 0 1.282.715 2.516 2.332 2.516.648 0 1.363-.215 1.855-.758-.054 2.426-.956 2.977-1.75 2.977-.94 0-1.206-.703-1.39-1.25zm-.125-3.531c0-1.032.672-1.735 1.539-1.735.855 0 1.633.582 1.648 1.777-.015 1.016-.761 1.66-1.68 1.66-1.105 0-1.507-.796-1.507-1.702zm10.654.82c0-2.344-1.11-3.406-2.664-3.406-1.555 0-2.68 1.062-2.68 3.406v1.265c0 2.36 1.14 3.547 2.696 3.547 1.554 0 2.648-1.187 2.648-3.547v-1.265zm-.969 1.437c0 1.5-.719 2.516-1.68 2.516-.96 0-1.726-1.016-1.726-2.516v-1.609c0-1.516.75-2.375 1.71-2.375.962 0 1.696.86 1.696 2.375v1.61z"/><path id="d" d="M1.652 11l.606-1.918H5.09L5.695 11h1.367L4.34 3H3.012L.289 11h1.363zM3.63 4.758h.101l1.028 3.258h-2.16l1.03-3.258zM11.25 11h1.199V7.355c0-1.835-1.113-2.433-2.375-2.433-.875 0-2.05.336-2.473 1.555l1.149.296c.242-.535.68-.859 1.3-.859.684 0 1.168.383 1.168 1.324v.188h-.53c-2.024 0-3.15.617-3.15 1.972 0 1.032.86 1.73 2.02 1.73.89 0 1.457-.472 1.645-.835h.047V11zm-.031-2.68v.625c0 .637-.653 1.192-1.54 1.192-.41 0-.933-.168-.933-.77 0-.793.789-1.047 1.949-1.047h.524zm5.374 2.668c1.688 0 2.77-.804 2.77-2.297 0-.867-.477-1.546-1.403-1.757a1.908 1.908 0 0 0 1.145-1.766C19.106 3.91 18.094 3 16.399 3h-2.68v7.988h2.875zm-1.617-6.906h1.422c.969 0 1.445.512 1.445 1.164 0 .645-.504 1.137-1.25 1.207l-1.531.008h-.086V4.082zm3.14 4.598c0 .832-.64 1.23-1.523 1.23h-1.617V7.457h1.668c.922 0 1.473.41 1.473 1.223zM20.336 3v8h1.168l.023-.559h.051c.32.399.805.68 1.532.68 1.574 0 2.64-1.258 2.64-3.117 0-1.84-1.066-3.082-2.633-3.082-.707 0-1.183.273-1.5.66h-.054V3h-1.227zm1.242 5.95a5.2 5.2 0 0 1-.105-.954 3.94 3.94 0 0 1 .11-.89c.16-.555.667-1.149 1.448-1.149.938 0 1.524.82 1.524 2.047 0 1.238-.586 2.074-1.52 2.074a1.497 1.497 0 0 1-1.457-1.129zm9.937-.243c-.145.586-.516 1.273-1.598 1.273-1.442 0-2.07-1.261-2.07-2.984 0-1.8.73-3.008 2.07-3.008.969 0 1.488.64 1.625 1.32l1.32-.085c-.226-1.32-1.25-2.332-2.984-2.332-2.086 0-3.281 1.62-3.281 4.105 0 2.496 1.175 4.113 3.289 4.113 1.726 0 2.75-1.007 2.964-2.312l-1.335-.09zm7.312-1.84c-.16-1.14-1.117-1.945-2.473-1.945-1.684 0-2.71 1.293-2.71 3.082 0 1.828 1.038 3.117 2.718 3.117 1.379 0 2.305-.785 2.465-1.91l-1.164-.098c-.137.543-.57.965-1.313.965-.933 0-1.511-.844-1.511-2.074 0-1.176.558-2.047 1.515-2.047.813 0 1.2.563 1.316 1.016l1.157-.106zM3.805 15.973h-.157L.496 17.227v1.113l2.074-.809V24h1.235v-8.027zm7.254 6.945H7.844c-.195 0-.308 0-.464.063l-.043-.09c.156-.067.226-.133.347-.258l1.512-1.563c.918-.965 1.652-1.898 1.652-2.898 0-1.36-.964-2.281-2.515-2.281-1.7 0-2.532 1.28-2.532 2.636h1.227c0-.843.352-1.62 1.277-1.62.829 0 1.329.59 1.329 1.343 0 .594-.372 1.133-1.258 2.047L5.64 23.082V24h5.418v-1.082zm2.865-2.402h.594c.887 0 1.5.39 1.5 1.289 0 .816-.61 1.273-1.43 1.273-.78 0-1.27-.445-1.27-1.137h-1.257c0 1.45 1.148 2.168 2.516 2.168 1.496 0 2.703-.843 2.703-2.289 0-.793-.38-1.558-1.364-1.894.82-.395 1.207-1.18 1.207-1.813 0-1.453-1.05-2.222-2.523-2.222-1.492 0-2.45.886-2.45 2.113h1.204c0-.664.527-1.125 1.258-1.125.785 0 1.289.5 1.289 1.242 0 .711-.485 1.293-1.383 1.293h-.594v1.102zm9.998.879h-1.125V16h-1.289l-3.461 5.66v.817h3.629V24h1.121v-1.523h1.125v-1.082zm-4.465 0l2.051-3.457.168-.391v3.848h-2.219zm6.517-1.051c.286-.258.668-.469 1.332-.469.825 0 1.497.531 1.497 1.586 0 .965-.614 1.621-1.473 1.621-.719 0-1.215-.402-1.336-1.16h-1.219c.094 1.46 1.219 2.187 2.524 2.187 1.761 0 2.703-1.144 2.703-2.613 0-1.601-1.024-2.625-2.496-2.625-.598 0-1.082.235-1.32.465h-.044l.282-2.211h3.261V16h-4.324l-.469 4.09 1.082.254zm9.069-2.29h1.183c-.277-1.34-1.023-2.163-2.43-2.163-1.921 0-2.757 1.648-2.75 4.156v.277c0 2.457.938 3.785 2.688 3.785 1.621 0 2.586-1.16 2.586-2.652 0-1.363-.727-2.574-2.281-2.574-.668 0-1.317.246-1.762.723.066-1.989.773-2.653 1.523-2.653.809 0 1.059.535 1.243 1.102zm-1.27 1.872c.941 0 1.352.695 1.352 1.562 0 .934-.578 1.582-1.356 1.582-.793 0-1.441-.547-1.445-1.695 0-.836.601-1.45 1.449-1.45zm8.6-3.926h-5.176v1.113h3.882L37.97 24h1.328l3.074-7.012V16zm5.92 5.758c0-.863-.496-1.586-1.273-1.969.671-.363 1.097-1.004 1.097-1.762 0-1.394-1.02-2.136-2.41-2.136-1.383 0-2.414.742-2.414 2.136 0 .758.418 1.395 1.086 1.758-.773.383-1.27 1.106-1.27 1.973 0 1.469 1.141 2.351 2.602 2.351 1.46 0 2.582-.882 2.582-2.351zm-1.375-3.672c0 .707-.54 1.203-1.207 1.203-.668 0-1.223-.496-1.223-1.219 0-.718.555-1.136 1.207-1.136.68 0 1.223.453 1.223 1.152zm.148 3.625c0 .77-.57 1.367-1.351 1.367s-1.39-.598-1.39-1.383.609-1.402 1.366-1.402c.762 0 1.375.617 1.375 1.418zm3.644.25h-1.188c.278 1.336 1.024 2.16 2.43 2.16 1.914-.043 2.75-1.66 2.75-4.164v-.281c0-2.453-.938-3.781-2.688-3.781-1.62 0-2.597 1.164-2.597 2.652 0 1.363.738 2.578 2.293 2.578.668 0 1.316-.246 1.761-.727-.066 1.985-.77 2.66-1.52 2.665-.812 0-1.058-.54-1.241-1.102zm-.086-3.445c0-.93.582-1.578 1.355-1.578.797 0 1.442.543 1.446 1.687 0 .84-.602 1.453-1.45 1.453-.941 0-1.351-.691-1.351-1.562zm10.568.78c0-2.304-1.145-3.405-2.727-3.405-1.578 0-2.734 1.101-2.734 3.406v1.289c0 2.36 1.16 3.523 2.746 3.523 1.578 0 2.715-1.164 2.715-3.523v-1.29zm-1.246 1.481c0 1.442-.633 2.254-1.469 2.254-.844 0-1.5-.812-1.5-2.254v-1.675c0-1.407.645-2.137 1.488-2.137.844 0 1.48.73 1.48 2.137v1.675z"/><path id="e" d="M1.973 11l.515-1.723h2.676L5.68 11h1.648l-2.7-8H3.02l-2.7 8h1.653zm1.804-6.008h.102l.91 3.04H2.863l.914-3.04zM11.353 11h1.442V7.191c0-1.632-1.106-2.27-2.422-2.27-1.047 0-2.168.446-2.543 1.634l1.398.265c.196-.48.54-.75 1.09-.75.613 0 .973.32.973 1.051v.25h-.563c-2.008 0-2.945.727-2.945 2.012 0 1.031.875 1.738 1.996 1.738.828 0 1.34-.402 1.527-.742h.047V11zm-.062-2.633v.64c0 .536-.567.981-1.258.981-.402 0-.8-.191-.8-.668 0-.629.554-.953 1.503-.953h.555zm5.511 2.613c1.781 0 2.824-.804 2.824-2.328 0-.804-.41-1.511-1.332-1.73.766-.328 1.122-1.004 1.122-1.73C19.416 3.823 18.349 3 16.56 3h-2.727v7.98h2.97zm-1.46-6.703h1.218c.922 0 1.352.395 1.352 1.055 0 .617-.446 1.027-1.227 1.063l-1.344.003v-2.12zm2.796 4.356c0 .683-.5 1.082-1.336 1.082h-1.46V7.512h1.519c.843 0 1.277.402 1.277 1.12zM20.435 3v8h1.441l.008-.41h.039c.309.32.75.523 1.363.523 1.535 0 2.61-1.273 2.61-3.101 0-1.817-1.075-3.09-2.602-3.09-.594 0-1.023.2-1.332.512h-.035V3h-1.492zm1.476 5.91a5.07 5.07 0 0 1-.097-.914 4.11 4.11 0 0 1 .093-.805c.106-.398.457-1.054 1.239-1.054.875 0 1.32.789 1.32 1.875 0 1.105-.445 1.879-1.324 1.879-.7 0-1.113-.496-1.23-.98zm9.514-.398c-.121.554-.422 1.289-1.465 1.289-1.262 0-1.836-1.082-1.836-2.813 0-1.761.629-2.804 1.836-2.804.984 0 1.37.703 1.484 1.336l1.524-.165c-.227-1.414-1.266-2.464-3.079-2.464-2.038 0-3.28 1.566-3.28 4.097 0 2.567 1.198 4.121 3.288 4.121 1.774 0 2.86-1.023 3.067-2.437l-1.54-.16zM38.88 6.93c-.167-1.157-1.086-2.008-2.511-2.008-1.739 0-2.758 1.3-2.758 3.09 0 1.812 1.023 3.101 2.765 3.101 1.372 0 2.337-.761 2.504-1.933l-1.367-.184c-.113.441-.445.895-1.156.895-.879 0-1.316-.782-1.316-1.88 0-1.058.425-1.874 1.312-1.874.797 0 1.082.64 1.168.984l1.36-.191zM4.133 15.95h-.156L.488 17.272v1.247l2.145-.786V24h1.5v-8.05zm7.258 6.773H8.387c-.18 0-.27 0-.425.062l-.036-.082a.88.88 0 0 0 .329-.23l1.187-1.246c1-1.07 1.738-1.977 1.738-3.04 0-1.406-.941-2.296-2.562-2.296-1.676 0-2.64 1.25-2.64 2.66h1.46c0-.781.367-1.457 1.153-1.457.71 0 1.132.488 1.132 1.215 0 .503-.3 1.058-1.117 1.894l-2.672 2.7V24h5.457v-1.277zm2.74-2.098h.719c.816 0 1.344.313 1.344 1.164 0 .684-.516 1.117-1.274 1.117-.687 0-1.168-.414-1.168-1.02h-1.476c0 1.52 1.273 2.223 2.61 2.223 1.566 0 2.78-.843 2.78-2.3 0-.86-.445-1.559-1.378-1.868.808-.382 1.238-1.132 1.238-1.82 0-1.453-1.074-2.23-2.63-2.23-1.448 0-2.523.847-2.523 2.12h1.454c0-.57.488-.937 1.109-.937.723 0 1.14.453 1.14 1.07 0 .665-.421 1.192-1.226 1.192h-.719v1.289zm10.217.559h-1.156V16h-1.524l-3.336 5.465v.996h3.512V24h1.348v-1.54h1.156v-1.276zm-4.426 0l1.746-2.965.176-.344v3.309h-1.922zm6.613-.805c.23-.223.566-.438 1.168-.438.82 0 1.348.551 1.348 1.473 0 .852-.442 1.492-1.25 1.492-.645 0-1.078-.383-1.168-1.047H25.18c.046 1.446 1.273 2.25 2.609 2.25 1.8 0 2.7-1.207 2.7-2.617 0-1.644-1.02-2.668-2.423-2.668-.636 0-1.062.238-1.254.457h-.043l.239-1.984h3.191V16h-4.41l-.469 4.082 1.215.297zm8.787-2.277h1.406c-.27-1.32-1.039-2.211-2.52-2.211-2.042 0-2.82 1.73-2.796 4.273v.285c0 2.367 1.05 3.66 2.758 3.66 1.609 0 2.624-1.168 2.624-2.675 0-1.434-.738-2.63-2.238-2.63-.68 0-1.273.266-1.68.696.067-1.629.618-2.375 1.329-2.375.695 0 .93.398 1.117.977zM32.896 21.3v-.04c0-.675.469-1.25 1.25-1.25.805 0 1.219.602 1.219 1.438 0 .848-.5 1.45-1.2 1.45-.738 0-1.269-.512-1.269-1.598zM42.972 16h-5.324v1.293h3.726L38.437 24h1.562l2.973-7.02V16zm5.95 5.773c0-.87-.48-1.566-1.237-1.941.66-.36 1.07-.988 1.07-1.75 0-1.434-1.027-2.191-2.473-2.191-1.422 0-2.468.757-2.468 2.191 0 .758.41 1.387 1.07 1.746-.758.375-1.246 1.07-1.246 1.945 0 1.5 1.156 2.336 2.656 2.336 1.5 0 2.629-.836 2.629-2.336zm-1.608-3.617c0 .645-.414 1.086-1.02 1.086-.605 0-1.035-.441-1.035-1.094 0-.656.43-1.035 1.02-1.035.609 0 1.034.407 1.034 1.043zm.148 3.528c0 .71-.477 1.207-1.164 1.207-.688 0-1.203-.496-1.203-1.211 0-.73.515-1.239 1.18-1.239.675 0 1.187.508 1.187 1.243zm4.094.234h-1.414c.274 1.32 1.04 2.21 2.52 2.21 2.031-.081 2.8-1.757 2.8-4.288v-.297c0-2.36-1.05-3.648-2.757-3.648-1.61 0-2.645 1.164-2.645 2.675 0 1.434.758 2.625 2.258 2.625.676 0 1.266-.261 1.676-.687-.074 1.617-.613 2.383-1.32 2.387-.7.003-.934-.399-1.118-.977zm-.046-3.367c0-.848.5-1.45 1.199-1.45.738 0 1.265.512 1.265 1.602v.04c0 .675-.464 1.25-1.246 1.25-.804 0-1.218-.606-1.218-1.442zm10.5.746c0-2.274-1.184-3.406-2.782-3.406-1.602 0-2.79 1.132-2.79 3.406v1.305c0 2.359 1.184 3.507 2.794 3.507 1.602 0 2.777-1.148 2.777-3.507v-1.305zm-1.489 1.52c0 1.386-.555 2.027-1.29 2.027-.741 0-1.304-.64-1.304-2.028v-1.73c0-1.313.559-1.941 1.301-1.941.742 0 1.293.628 1.293 1.94v1.731z"/><path id="f" d="M14.694 32h3.284v-.205l-3.514-10.106c2.995-1.123 5.24-3.502 5.603-6.774.519-4.744-2.584-7.57-7.184-7.642H5.36L1.075 32h2.921l1.679-9.61h5.807L14.694 32zM7.836 9.929l4.938.012c3.188.06 4.806 1.739 4.335 4.95-.447 3.043-3.49 4.866-6.375 4.854l-4.6-.012 1.702-9.804zm20.307 22.457c3.067.049 6.11-1.316 7.45-4.19L33.13 27.05c-1.026 1.799-2.777 2.837-4.866 2.777-3.236-.073-4.516-3.019-4.346-5.892h12.87l.17-1.208c.579-4.793-.979-9.454-6.46-9.526-5.349-.06-8.718 4.697-9.273 9.599-.555 4.793 1.545 9.514 6.918 9.586zm2.282-16.625c3.308.072 4.455 2.74 4.009 5.71l-10.239.013c.93-2.838 2.874-5.796 6.23-5.723zm24.518-2.21l-.434 2.089h-.29c-.954-1.69-2.729-2.379-4.6-2.415-5.36-.108-8.923 4.407-9.538 9.394-.58 4.66 1.436 9.32 6.688 9.393 2.125.024 3.888-.87 5.24-2.475l.254-.012-.447 2.246c-.555 3.078-2.994 4.708-6.049 4.624-2.016-.06-3.32-.93-4.48-2.475l-2.209 1.654c1.534 2.294 3.84 3.344 6.58 3.38 4.166.06 8.21-2.209 8.839-6.58l3.236-18.823h-2.79zm-12.073 9.08c.47-3.43 2.837-6.979 6.652-6.858 2.174.06 3.84 1.606 4.142 3.743a8.722 8.722 0 0 1-.097 2.91c-.205 1.026-.41 2.052-.785 3.018-.93 2.318-3.368 4.02-5.892 3.96-3.622-.096-4.419-3.791-4.02-6.773zm29.094 2.028c-.447 2.765-2.68 4.938-5.578 4.83-2.415-.085-3.357-2.017-3.067-4.238l2.004-11.797h-2.777L60.542 25.24c-.399 3.235 1.05 6.918 4.769 7.015 2.342.072 4.347-1.075 5.76-2.874h.132L70.66 32h2.789l3.212-18.546h-2.778l-1.92 11.205zm13.31-17.386h-2.789L78.2 32h2.79l4.285-24.727zM96.243 32h2.704l1.811-10.673c.544-4.347-.954-8.017-5.735-8.114-3.308-.06-6.35 1.437-7.751 4.516l2.547 1.026c1.111-1.811 2.934-3.103 5.12-3.043 2.837.085 3.513 2.633 3.103 5.06l-.073.374-1.533-.012c-4.262-.013-10.625.664-11.036 6.073-.241 3.284 2.367 5.203 5.433 5.24 2.282.024 4.516-1.039 5.76-2.97l.096-.012L96.243 32zm1.388-8.452l-.326 1.884c-.531 2.898-3.695 4.515-6.435 4.455-1.642-.048-2.874-.893-2.669-2.668.423-3.719 5.373-3.683 8.162-3.67h1.268zm18.3-10.299a8.424 8.424 0 0 0-1.461-.12c-2.27 0-4.322 1.52-5.264 3.525h-.145l.652-3.2h-2.789L103.7 32h2.789l1.836-10.625c.531-2.765 2.922-5.313 5.855-5.3.471.012.942.048 1.413.132l.338-2.958zm15.99-5.976h-2.922L124.713 32h2.922l4.286-24.727zm11.877 6.181h-3.839l.688-3.96h-2.789l-.688 3.96h-2.898l-.471 2.657h2.91l-1.896 11.35c-.229 2.607 1.606 4.587 4.202 4.66.579.024 1.159.012 1.714-.157l.278-2.62c-.374.036-.748.072-1.135.072-1.738-.012-2.354-1.014-2.161-2.716l1.787-10.59h3.839l.459-2.655zM154.899 32h2.705l1.811-10.673c.543-4.347-.954-8.017-5.735-8.114-3.308-.06-6.351 1.437-7.752 4.516l2.548 1.026c1.111-1.811 2.934-3.103 5.119-3.043 2.838.085 3.514 2.633 3.103 5.06l-.072.374-1.534-.012c-4.262-.013-10.625.664-11.035 6.073-.242 3.284 2.366 5.203 5.433 5.24 2.282.024 4.516-1.039 5.759-2.97l.097-.012-.447 2.535zm1.389-8.452l-.326 1.884c-.532 2.898-3.695 4.515-6.436 4.455-1.642-.048-2.873-.893-2.668-2.668.423-3.719 5.373-3.683 8.162-3.67h1.268zm13.144-16.275h-2.789L162.357 32h2.789l4.286-24.727zm5.475 3.537c1.123-.012 2.004-.881 1.992-2.028a1.91 1.91 0 0 0-1.944-1.86 2 2 0 0 0-1.992 2.017c0 1.099.845 1.896 1.944 1.871zm.64 2.644h-2.777L169.546 32h2.789l3.212-18.546zm17.826 5.579c-.362-3.55-3.067-5.76-6.58-5.82-5.361-.096-8.718 4.673-9.285 9.587-.519 4.588 1.401 9.502 6.653 9.586 3.658.06 7.16-2.076 7.92-5.795l-2.789.012c-.845 2.113-2.753 3.296-5.011 3.236-3.61-.109-4.334-4.154-3.972-7.04.411-3.308 2.62-7.123 6.411-7.026 2.053.06 3.526 1.231 3.924 3.248l2.729.012z"/><path id="g" d="M2.427 7.273V32h3.815V14.288h.193l6.255 17.591h3.103l6.29-17.567h.205V32h3.804V7.273h-4.914l-6.786 18.666h-.29L7.33 7.273H2.427zM37.97 32.374c3.635 0 6.062-1.714 7.136-3.888l-2.789-1.81c-.87 1.581-2.197 2.475-4.238 2.475-2.801 0-4.66-1.908-5.07-4.999h12.616v-1.594c0-6.35-3.248-9.345-8.053-9.345-5.18 0-8.33 4.033-8.33 9.61 0 5.53 3.259 9.551 8.729 9.551zm-.386-15.961c2.837 0 4.443 1.944 4.443 4.89h-8.995c.41-2.922 2.04-4.89 4.552-4.89zM64.455 32V7.273h-3.792v7.98h-.156c-.978-1.195-2.464-2.04-4.637-2.04-4.841 0-8.15 3.84-8.15 9.526 0 5.747 3.309 9.635 8.162 9.635 2.246 0 3.755-.869 4.733-2.1h.17L60.856 32h3.598zm-13.04-9.26c0-3.792 1.81-6.327 4.72-6.327 2.416 0 3.985 1.835 4.468 3.55.278 1.026.326 2.185.338 2.752-.012.592-.072 1.944-.326 2.946-.459 1.932-2.258 3.49-4.491 3.49-2.898 0-4.71-2.584-4.71-6.412zm18.674-11.362c1.389 0 2.355-1.014 2.355-2.222 0-1.159-.966-2.221-2.355-2.221-1.388 0-2.366 1.062-2.366 2.221 0 1.208.978 2.222 2.366 2.222zm1.908 2.076h-3.791V32h3.79V13.454zm15.158 10.734c0 3.176-1.968 4.721-4.07 4.721-2.064 0-3.573-1.352-3.573-3.803V13.454h-3.791v11.712c0 5.047 3.212 7.076 6.073 7.076 2.56 0 4.347-1.244 5.325-2.633h.193V32h3.634V13.454h-3.791v10.734zm21.629-3.779c0-2.403 1.268-3.863 3.417-3.863 1.461 0 3.176.833 3.176 3.453V32h3.791V20.059c0-4.818-2.512-6.846-5.615-6.846-2.595 0-4.612 1.533-5.312 3.067h-.193c-.809-1.775-2.415-3.067-4.697-3.067-2.33 0-4.117 1.485-4.83 2.97h-.18v-2.729h-3.743V32h3.79V20.723c0-2.668 1.715-4.177 3.562-4.177 1.836 0 3.079 1.002 3.079 3.513V32h3.755V20.41z"/><path id="h" d="M4.902 7.273L.616 32h3.73l3.14-17.736.193.012 2.994 17.603h3.03l9.165-17.603h.169L19.886 32h3.718l4.287-24.727h-4.878l-9.84 18.69-.278-.012L9.61 7.273H4.902zm31.38 25.101c2.86.049 5.976-1.183 7.304-3.863L41.002 26.7c-1.038 1.57-2.572 2.499-4.48 2.45-2.813-.072-4.056-2.426-3.923-4.998H44.78l.217-1.594c.58-4.745-1.207-9.297-6.556-9.357-5.445-.06-8.814 4.697-9.369 9.695-.543 4.89 1.872 9.406 7.208 9.478zm2.015-15.973c2.802.084 3.743 2.426 3.333 4.914l-8.718.012c.882-2.415 2.476-4.999 5.385-4.926zM62.197 32l4.286-24.727h-3.695l-1.485 8.005-.193-.012c-.99-1.4-2.56-2.017-4.238-2.04-5.36-.122-8.73 4.72-9.32 9.598-.556 4.515 1.303 9.478 6.507 9.562 1.944.024 3.586-.712 4.89-2.125h.096L58.732 32h3.465zM51.16 22.836c.423-3.006 2.306-6.544 5.796-6.423 1.968.072 3.332 1.57 3.537 3.477a9.74 9.74 0 0 1-.132 2.777c-.194.99-.399 2.016-.773 2.958-.81 2.053-2.898 3.61-5.131 3.538-3.285-.097-3.647-3.792-3.297-6.327zM72.178 11.39c1.28-.012 2.342-1.026 2.306-2.318-.024-1.22-1.062-2.161-2.27-2.15-1.255.013-2.342 1.027-2.306 2.319.024 1.231 1.05 2.161 2.27 2.149zm1.147 2.064h-3.707L66.407 32H70.1l3.224-18.546zm13.07 10.734c-.4 2.463-2.162 4.83-4.879 4.733-2.16-.084-2.897-1.86-2.656-3.803l1.98-11.663h-3.707l-1.992 11.711c-.398 3.38 1.063 6.991 4.902 7.088 2.222.06 4.142-.978 5.53-2.657l.12-.012-.53 2.415h3.55l3.223-18.546H88.23l-1.835 10.734zm22.172-3.779c.35-2.125 1.775-3.96 4.093-3.876 1.956.073 2.548 1.727 2.33 3.453L112.95 32h3.706l2.029-11.941c.374-3.26-.712-6.786-4.504-6.846-2.294-.048-4.37 1.171-5.602 3.067l-.169.012c-.519-1.884-2.197-3.043-4.129-3.079-2.149-.048-3.985 1.22-5.083 2.994h-.109l.592-2.753h-3.67L92.798 32h3.694l1.944-11.277c.35-2.125 1.92-4.274 4.274-4.19 2.053.073 2.463 1.739 2.234 3.514L102.916 32h3.671l1.98-11.59zm29.41-13.136h-3.815L129.864 32h3.827l4.286-24.727zm11.584 6.181h-3.489l.7-3.96h-3.706l-.689 3.96h-2.656l-.543 3.08h2.668l-1.799 10.709c-.266 2.716 1.715 4.878 4.419 4.974a8.924 8.924 0 0 0 2.125-.193l.302-3.212c-.411.025-.833.06-1.256.049-1.473-.036-1.956-.918-1.787-2.343l1.691-9.985h3.477l.543-3.079zM159.865 32h3.514l1.908-11.265c.519-4.298-1.558-7.45-6.025-7.522-3.381-.06-6.725 1.51-7.981 4.781l3.453.93c.894-1.618 2.403-2.717 4.31-2.656 2.355.072 2.898 2.04 2.548 4.08l-.109.617-1.714-.013c-4.226-.012-9.901.978-10.263 6.182-.217 3.212 2.342 5.228 5.385 5.276 2.089.025 4.105-.869 5.288-2.62h.073l-.387 2.21zm1.232-8.283l-.326 1.932c-.459 2.39-3.103 3.755-5.361 3.695-1.4-.037-2.427-.797-2.233-2.294.398-3.055 4.165-3.345 6.58-3.345l1.34.012zm14.355-16.444h-3.707L167.459 32h3.707l4.286-24.727zm5.306 4.117c1.279-.012 2.342-1.026 2.306-2.318-.024-1.22-1.063-2.161-2.27-2.15-1.256.013-2.343 1.027-2.306 2.319.024 1.231 1.05 2.161 2.27 2.149zm1.147 2.064h-3.707L174.986 32h3.695l3.224-18.546zm17.554 5.796c-.422-3.67-3.055-5.977-6.761-6.037-5.409-.084-8.838 4.588-9.394 9.599-.531 4.72 1.57 9.49 6.882 9.562 3.719.06 7.317-2.089 8.017-5.916l-3.525-.278c-.664 1.896-2.367 3.043-4.383 2.983-3.272-.097-3.695-3.804-3.381-6.351.387-2.946 2.198-6.508 5.639-6.4 1.944.061 3.079 1.34 3.441 3.164l3.465-.326z"/><path id="i" d="M11.193 31.94c5.505 0 8.729-2.488 8.729-7.196 0-2.488-1.268-4.673-4.117-5.35 2.366-1.013 3.465-3.102 3.465-5.348 0-4.226-3.296-6.773-8.826-6.773H2.016V31.94h9.177zM6.677 11.22h3.767c2.85 0 4.177 1.22 4.177 3.26 0 1.909-1.376 3.176-3.79 3.285l-4.154.012v-6.556zm8.645 13.463c0 2.113-1.546 3.345-4.13 3.345H6.678v-6.81h4.697c2.607 0 3.948 1.244 3.948 3.465zm15.13 7.643c4.793 0 8.367-3.248 8.367-9.599 0-6.145-3.731-9.514-8.404-9.514-4.636 0-8.33 3.502-8.33 9.514 0 6.267 3.573 9.599 8.366 9.599zm-.037-3.755c-2.45 0-3.888-2.04-3.888-5.844 0-3.79 1.534-5.759 3.888-5.759 2.415 0 4.02 1.835 4.02 5.76 0 3.935-1.58 5.843-4.02 5.843zM46.191 7.273h-4.613V32h4.613V7.273zM65.809 32V7.273h-4.612v7.522h-.109c-.954-.966-2.282-1.582-4.13-1.582-4.72 0-8.028 3.936-8.028 9.55 0 5.651 3.308 9.587 8.065 9.587 1.896 0 3.248-.628 4.214-1.618h.108L61.342 32h4.467zm-12.46-9.236c0-3.357 1.376-5.796 4.069-5.796 2.414 0 3.5 2.028 3.839 3.26.205.87.278 1.847.29 2.487-.012.664-.109 1.956-.302 2.826-.362 1.497-1.654 3.03-3.815 3.03-2.705 0-4.081-2.39-4.081-5.808z"/><path id="j" d="M9.406 31.952c4.708 0 9.007-2.186 9.43-7.293.18-2.258-.761-4.455-3.055-5.18 2.438-1.026 4.08-2.825 4.31-5.53.386-4.66-3.55-6.604-7.667-6.664l-7.92-.012L.229 31.94l9.177.012zM8.367 11.22l3.9.012c2.029.048 3.562.918 3.212 3.14-.35 2.209-2.367 3.356-4.468 3.416l-3.779-.012 1.135-6.556zm6.025 13.366C14.018 27 11.82 28.04 9.575 28.04l-4.118-.012 1.184-6.81 4.793.012c2.1.06 3.284 1.207 2.958 3.357zm14.43 7.739c5.541.084 8.825-4.552 9.357-9.671.483-4.721-1.666-9.37-6.93-9.442-5.361-.084-8.79 4.636-9.31 9.587-.507 4.781 1.522 9.454 6.882 9.526zm.144-3.755c-2.946-.097-2.946-3.586-2.692-5.76.314-2.607 1.654-5.952 4.793-5.855 2.982.097 3.091 3.429 2.825 5.687-.314 2.704-1.69 6.049-4.926 5.928zM48.581 7.273h-4.503L39.779 32h4.504l4.298-24.727zM63.563 32L67.85 7.273h-4.503l-1.425 7.546-.169-.012c-.978-1.111-2.367-1.558-3.827-1.594-5.277-.096-8.597 4.854-9.164 9.635-.532 4.419 1.34 9.442 6.46 9.514 1.653.024 3.09-.531 4.297-1.642v-.012L59.217 32h4.346zm-10.492-9.14c.374-2.668 1.908-6.025 5.083-5.892 1.787.073 2.85 1.497 2.97 3.188.06.82.012 1.69-.133 2.499-.169.954-.386 1.956-.736 2.85-.688 1.786-2.463 3.139-4.407 3.078-2.97-.084-3.079-3.501-2.777-5.723zM85.413 7.273h-4.576L76.55 32h4.576l4.286-24.727zm11.722 6.181h-3.176l.688-3.96h-4.503l-.688 3.96h-2.44l-.603 3.442h2.451L87.162 27.05c-.266 2.813 1.787 5.119 4.612 5.204a12.69 12.69 0 0 0 2.439-.17l.374-3.742c-.434.024-.881.048-1.328.024-1.244-.049-1.654-.81-1.51-2.005l1.619-9.465h3.175l.592-3.442zM107.082 32h4.225l1.993-11.772c.483-4.25-2.113-6.943-6.291-7.015-3.465-.06-7.05 1.57-8.186 5.035l4.202.809c.748-1.425 1.968-2.355 3.622-2.306 1.92.072 2.427 1.509 2.113 3.223l-.193.834-1.787-.025c-4.25-.012-9.321 1.256-9.647 6.303-.206 3.163 2.342 5.252 5.361 5.3 1.919.024 3.742-.736 4.865-2.33l.061-.012-.338 1.956zm1.098-8.138l-.35 1.98c-.386 1.932-2.547 3.103-4.407 3.043-1.195-.036-2.052-.712-1.871-1.968.362-2.487 3.127-3.079 5.228-3.067l1.4.012zm15.758-16.59h-4.504L115.136 32h4.504l4.298-24.727zm5.504 4.6c1.412-.011 2.608-1.122 2.571-2.559-.036-1.352-1.195-2.378-2.523-2.39-1.401-.012-2.644 1.122-2.608 2.571.048 1.365 1.219 2.39 2.56 2.379zm1.569 1.582h-4.503L123.284 32h4.503l3.224-18.546zm17.686 6.001c-.495-3.767-3.042-6.182-6.906-6.242-5.481-.084-8.946 4.528-9.502 9.623-.531 4.842 1.715 9.442 7.063 9.514 3.743.06 7.462-2.089 8.114-5.976l-4.117-.568c-.568 1.715-2.041 2.825-3.864 2.777-2.97-.072-3.151-3.501-2.873-5.747.338-2.632 1.786-5.977 4.95-5.856 1.847.06 2.68 1.4 3.03 3.055l4.105-.58z"/><path id="k" d="M2.344 11l.422-1.5h2.468l.422 1.5h1.985L4.969 3H3.03L.36 11h1.985zm1.61-5.734h.093l.781 2.78H3.172l.781-2.78zM11.488 11h1.719V7c0-1.39-1.094-2.078-2.469-2.078-1.25 0-2.313.578-2.625 1.719l1.687.234c.141-.422.376-.625.844-.625.532 0 .75.25.75.734v.329h-.61c-1.984 0-2.702.843-2.702 2.046 0 1.032.89 1.75 1.969 1.75.75 0 1.203-.312 1.39-.625h.047V11zm-.094-2.578v.656c0 .422-.468.735-.937.735-.39 0-.64-.22-.64-.547 0-.438.28-.844.984-.844h.593zm5.676 2.547c1.89 0 2.89-.797 2.89-2.36 0-.734-.336-1.464-1.242-1.703.777-.316 1.086-.98 1.086-1.687 0-1.5-1.14-2.219-3.031-2.219h-2.781v7.969h3.078zM15.789 4.5h.985c.86 0 1.234.266 1.234.938 0 .593-.36.89-1.234.89h-.985V4.5zm2.391 4.078c0 .516-.328.906-1.11.906h-1.28V7.578h1.343c.75 0 1.047.39 1.047 1zM20.55 3v8h1.767v-.234h.043c.285.214.656.343 1.128.343 1.5 0 2.579-1.296 2.579-3.093 0-1.782-1.079-3.094-2.563-3.094-.465 0-.828.125-1.11.344h-.046V3H20.55zm1.75 5.86a6.721 6.721 0 0 1-.093-.864c.004-.234.035-.484.078-.7.047-.218.22-.952 1-.952.797 0 1.078.75 1.078 1.672 0 .953-.28 1.656-1.093 1.656-.672 0-.89-.485-.97-.813zm9.03-.579c-.094.516-.313 1.313-1.313 1.313-1.046 0-1.562-.875-1.562-2.61 0-1.718.516-2.578 1.563-2.578 1 0 1.234.782 1.328 1.36l1.75-.25c-.22-1.532-1.282-2.625-3.188-2.625-1.984 0-3.281 1.5-3.281 4.093 0 2.641 1.234 4.125 3.297 4.125 1.828 0 2.984-1.046 3.187-2.578l-1.781-.25zM38.952 7c-.172-1.172-1.047-2.078-2.563-2.078-1.797 0-2.812 1.312-2.812 3.094 0 1.796 1.015 3.093 2.828 3.093 1.36 0 2.375-.734 2.547-1.968l-1.61-.282c-.078.329-.297.813-.968.813-.813 0-1.094-.703-1.094-1.656 0-.922.281-1.672 1.078-1.672.781 0 .953.734 1 .953L38.952 7zM4.516 15.922h-.157L.484 17.328v1.406l2.22-.765V24h1.812v-8.078zm6.957 6.578H8.708c-.157 0-.219 0-.375.063l-.032-.079a.726.726 0 0 0 .313-.203l.812-.875c1.094-1.187 1.829-2.062 1.829-3.203 0-1.453-.907-2.312-2.61-2.312-1.656 0-2.765 1.218-2.765 2.687h1.734c0-.703.375-1.265 1-1.265.578 0 .906.375.906 1.062 0 .406-.219.969-.953 1.719l-2.594 2.593V24h5.5v-1.5zm2.592-1.75h.86c.734 0 1.171.219 1.171 1.016 0 .53-.406.937-1.094.937-.578 0-1.046-.375-1.046-.875H12.22c0 1.594 1.422 2.281 2.719 2.281 1.64 0 2.875-.843 2.875-2.312 0-.926-.508-1.555-1.383-1.84.79-.371 1.258-1.086 1.258-1.832 0-1.453-1.11-2.234-2.75-2.234-1.406 0-2.61.796-2.61 2.125h1.735c0-.453.453-.72.937-.72.657 0 .97.407.97.876 0 .61-.345 1.078-1.048 1.078h-.86v1.5zm10.466.188h-1.187V16h-1.797l-3.188 5.234v1.203h3.375V24h1.61v-1.563h1.187v-1.5zm-4.375 0l1.391-2.391.188-.32v2.71h-1.579zm6.737-.516c.157-.188.438-.406.97-.406.812 0 1.171.578 1.171 1.343 0 .72-.234 1.344-.984 1.344-.563 0-.922-.36-.97-.922h-1.733c0 1.438 1.343 2.328 2.718 2.328 1.844 0 2.688-1.28 2.688-2.625 0-1.687-1.016-2.718-2.328-2.718-.688 0-1.047.25-1.188.453h-.031l.187-1.719h3.11V16h-4.516l-.469 4.078 1.375.344zm8.451-2.266h1.672c-.265-1.297-1.062-2.265-2.625-2.265-2.187 0-2.89 1.828-2.86 4.406v.297c0 2.265 1.188 3.515 2.845 3.515 1.593 0 2.672-1.172 2.672-2.703 0-1.515-.75-2.687-2.188-2.687-.68 0-1.219.273-1.582.652.062-1.242.445-2.043 1.098-2.043.562 0 .78.235.968.828zm-2.078 3.063v-.094c0-.484.313-1.016 1.016-1.016.64 0 1.062.5 1.062 1.297 0 .75-.406 1.297-1.015 1.297-.672 0-1.063-.469-1.063-1.484zM43.373 16h-5.5v1.5h3.547L38.686 24h1.828l2.86-7.031V16zm5.967 5.797c0-.887-.461-1.547-1.2-1.914.65-.36 1.044-.973 1.044-1.742 0-1.47-1.047-2.25-2.547-2.25-1.469 0-2.532.78-2.532 2.25 0 .765.399 1.379 1.047 1.738-.742.367-1.218 1.031-1.218 1.918 0 1.531 1.172 2.312 2.718 2.312 1.547 0 2.688-.78 2.688-2.312zm-1.89-3.563c0 .578-.266.953-.798.953-.53 0-.812-.375-.812-.953s.281-.906.797-.906c.531 0 .812.344.812.906zm.155 3.422c0 .64-.374 1.016-.953 1.016-.578 0-.984-.375-.984-1.016 0-.656.406-1.047.969-1.047.578 0 .968.391.968 1.047zm4.626.215h-1.68c.266 1.297 1.06 2.262 2.622 2.262 2.168-.125 2.863-1.867 2.863-4.43v-.312c0-2.25-1.188-3.5-2.844-3.5-1.594 0-2.703 1.171-2.703 2.703 0 1.515.781 2.687 2.219 2.687.68 0 1.21-.27 1.578-.648-.074 1.234-.438 2.058-1.086 2.066-.57.008-.785-.238-.969-.828zm-.008-3.277c0-.75.407-1.297 1.016-1.297.672 0 1.063.469 1.063 1.484v.094c0 .484-.313 1.016-1.016 1.016-.64 0-1.063-.5-1.063-1.297zm10.425.703c0-2.235-1.219-3.406-2.844-3.406-1.625 0-2.844 1.171-2.844 3.406v1.328c0 2.36 1.204 3.484 2.844 3.484 1.625 0 2.844-1.125 2.844-3.484v-1.328zm-1.766 1.562c0 1.328-.468 1.766-1.078 1.766-.625 0-1.078-.438-1.078-1.766v-1.797c0-1.203.453-1.703 1.078-1.703s1.078.5 1.078 1.703v1.797z"/><path id="l" d="M11.06 31.903c5.843 0 8.934-2.463 8.934-7.292 0-2.27-1.038-4.528-3.84-5.264 2.404-.978 3.357-3.03 3.357-5.216 0-4.637-3.525-6.858-9.369-6.858H1.545v24.63h9.515zM7.1 11.91h3.042c2.656 0 3.815.821 3.815 2.898 0 1.835-1.11 2.753-3.815 2.753H7.099v-5.65zm7.389 12.605c0 1.594-1.015 2.801-3.43 2.801H7.1v-5.892h4.154c2.318 0 3.236 1.208 3.236 3.091zM27.71 7.273h-5.554V32h5.554V7.273zM40.59 32h5.313V19.636c0-4.298-3.38-6.423-7.63-6.423-3.864 0-7.148 1.787-8.114 5.313l5.216.724c.434-1.304 1.159-1.932 2.608-1.932 1.642 0 2.318.773 2.318 2.27v1.014h-1.884c-6.133 0-8.355 2.608-8.355 6.327 0 3.188 2.753 5.41 6.085 5.41 2.319 0 3.72-.967 4.299-1.933h.145V32zm-.29-7.969v2.029c0 1.304-1.448 2.27-2.897 2.27-1.207 0-1.98-.677-1.98-1.69 0-1.353.87-2.609 3.043-2.609h1.835zm24.204-4.395c-.531-3.622-3.236-6.423-7.92-6.423-5.555 0-8.694 4.057-8.694 9.563 0 5.553 3.14 9.562 8.742 9.562 4.201 0 7.34-2.27 7.872-6.085l-4.975-.87c-.241 1.015-.917 2.512-2.994 2.512-2.511 0-3.38-2.173-3.38-5.12 0-2.849.869-5.167 3.332-5.167 2.415 0 2.946 2.27 3.09 2.946l4.927-.918zM78.005 32h5.988l-6.942-10.65 6.652-7.896H77.28l-4.926 6.134h-.242V7.273H66.56V32h5.553v-4.781l1.606-1.908L78.004 32z"/><path id="m" d="M9.321 31.916c4.866 0 9.176-2.101 9.61-7.39.17-2.149-.651-4.31-2.8-5.095 2.439-.978 3.972-2.704 4.19-5.385.398-5.023-3.9-6.725-8.223-6.773H4.045L-.23 31.903l9.55.013zm-.652-20.007l3.224.012c1.92.036 3.236.664 2.885 2.777-.362 2.27-2.402 2.886-4.443 2.874l-2.716-.024 1.05-5.639zm4.95 12.509c-.35 2.052-2.16 2.91-4.093 2.91l-3.598-.025 1.099-5.88 4.298.012c1.848.073 2.584 1.184 2.294 2.983zM30.077 7.273h-5.421L20.37 32h5.42l4.287-24.727zM38.647 32h5.035l2.101-12.364c.447-4.117-2.777-6.363-6.58-6.423-3.526-.048-7.45 1.63-8.416 5.313l5.096.7c.543-1.207 1.412-1.968 2.8-1.92 1.438.048 1.848.93 1.667 2.258l-.169 1.026h-2.1c-4.263 0-8.598 1.582-8.875 6.424-.181 3.102 2.294 5.288 5.288 5.336 1.739.024 3.345-.567 4.395-1.98h.048l-.29 1.63zm1.027-7.957l-.447 2.017c-.326 1.412-1.907 2.342-3.296 2.294-.978-.037-1.594-.616-1.437-1.606.29-1.8 1.908-2.74 3.61-2.74l1.57.035zm24.77-4.37c-.543-3.888-3.03-6.4-7.063-6.46-5.542-.084-9.091 4.443-9.647 9.635-.531 4.962 1.896 9.418 7.293 9.49 3.815.06 7.606-2.1 8.222-6.097l-4.793-.845c-.447 1.497-1.654 2.56-3.272 2.523-2.62-.06-2.536-3.163-2.294-5.071.277-2.27 1.34-5.349 4.141-5.228 1.763.072 2.27 1.473 2.56 2.97l4.854-.917zM76.038 32h5.674l-4.938-10.408 8.065-8.125-6.64-.013-5.832 6.182h-.157l2.27-12.363h-5.421L64.772 32h5.42l.786-4.552 2.076-2.089L76.037 32zm26-24.727h-5.47L92.281 32h5.47l4.286-24.727zm11.474 6.181l-2.874-.011.749-3.949h-5.433l-.688 3.96h-2.198l-.7 3.864 2.27.012-1.642 9.502c-.29 2.91 1.859 5.385 4.781 5.506.966.036 1.92-.048 2.873-.205l.592-4.286-1.666-.025c-.954-.06-1.22-.772-1.099-1.642l1.534-8.862h2.813l.688-3.864zM122.637 32h5.035l2.101-12.364c.446-4.117-2.777-6.363-6.581-6.423-3.525-.048-7.449 1.63-8.415 5.313l5.095.7c.543-1.207 1.413-1.968 2.801-1.92 1.437.048 1.847.93 1.666 2.258l-.169 1.026h-2.101c-4.262 0-8.596 1.582-8.874 6.424-.181 3.102 2.294 5.288 5.288 5.336 1.739.024 3.345-.567 4.395-1.98h.049l-.29 1.63zm1.026-7.957l-.447 2.017c-.326 1.412-1.907 2.342-3.296 2.294-.978-.037-1.593-.616-1.437-1.606.29-1.8 1.908-2.74 3.611-2.74l1.569.035zm16.917-16.77h-5.421L130.872 32h5.422l4.286-24.727zm5.322 5.18c1.57.011 2.958-1.256 2.922-2.862-.048-1.497-1.352-2.656-2.825-2.668-1.57-.012-2.994 1.243-2.946 2.861.036 1.51 1.376 2.656 2.849 2.668zm2.089 1.002h-5.421L139.358 32h5.422l3.211-18.546zm17.427 6.218c-.543-3.888-3.031-6.4-7.063-6.46-5.542-.084-9.092 4.443-9.647 9.635-.532 4.962 1.895 9.418 7.292 9.49 3.816.06 7.607-2.1 8.223-6.097l-4.794-.845c-.447 1.497-1.654 2.56-3.272 2.523-2.62-.06-2.535-3.163-2.294-5.071.278-2.27 1.34-5.349 4.141-5.228 1.763.072 2.27 1.473 2.56 2.97l4.854-.917z"/></defs></svg>