<svg width="888" height="165" viewBox="0 0 888 165" xmlns="http://www.w3.org/2000/svg" xmlns:xlink="http://www.w3.org/1999/xlink"><title>weights-and-styles</title><desc>Created using Figma</desc><g transform="translate(-3365 4330)"><clipPath id="a" clip-rule="evenodd"><path d="M3365-4330h888v165h-888v-165z" fill="#FFF"/></clipPath><g clip-path="url(#a)"><use xlink:href="#b" transform="translate(3364 -4330)"/><use xlink:href="#c" transform="translate(3364 -4231.36)"/><use xlink:href="#d" transform="translate(3608.52 -4231.36)"/><use xlink:href="#e" transform="translate(3865.42 -4231.36)"/><use xlink:href="#f" transform="translate(3364 -4288.96)"/><use xlink:href="#g" transform="translate(3608.52 -4330)"/><use xlink:href="#h" transform="translate(3608.52 -4288.96)"/><use xlink:href="#i" transform="translate(3865.42 -4330)"/><use xlink:href="#j" transform="translate(3865.42 -4288.96)"/><use xlink:href="#k" transform="translate(4079 -4231.36)"/><use xlink:href="#l" transform="translate(4079 -4330)"/><use xlink:href="#m" transform="translate(4079 -4288.96)"/></g></g><defs><path id="b" d="M16.855 32h3.477L14.38 21.942c3.14-1.098 5.083-3.561 5.083-7.087 0-4.008-2.511-7.582-8.307-7.582H2.898V32h2.994v-9.61h5.373l5.59 9.61zM5.892 9.929h5.264c4.298 0 5.41 2.656 5.41 4.926 0 2.705-1.546 4.781-5.748 4.781H5.892V9.93zm24.5 22.457c3.767 0 6.52-1.883 7.39-4.684l-2.753-.773c-.725 1.932-2.367 2.898-4.637 2.898-3.356 0-5.47-2.125-5.76-6.134h13.44v-1.207c0-6.907-4.106-9.273-7.97-9.273-5.022 0-8.355 3.96-8.355 9.66 0 5.698 3.284 9.513 8.645 9.513zm-.29-16.613c3.091 0 5.071 2.318 5.071 5.457h-10.48c.459-3.477 2.56-5.457 5.41-5.457zm24.304-2.319v2.125h-.193c-.628-.953-2.173-2.366-5.216-2.366-4.878 0-8.307 3.646-8.307 9.37 0 5.77 3.43 9.405 8.259 9.405 2.994 0 4.636-1.413 5.264-2.403h.193v2.174c-.048 3.235-2.173 4.636-5.264 4.636s-4.347-1.69-5.023-2.463l-2.125 1.69c1.16 1.642 3.284 3.333 7.148 3.333 4.491 0 8.114-2.415 8.114-6.569V13.454h-2.85zm-10.866 9.08c0-3.84 1.883-6.81 5.554-6.81 3.525 0 5.602 2.838 5.602 6.858 0 4.07-2.125 6.907-5.602 6.907-3.623 0-5.554-3.08-5.554-6.955zm29.746 2.125c0 3.477-2.656 4.83-4.781 4.83-2.367 0-4.057-1.546-4.057-4.25V13.454h-2.85V25.24c0 4.877 3.284 7.003 5.989 7.003 2.801 0 4.588-1.45 5.506-2.85h.193V32h2.85V13.454h-2.85V24.66zM83.324 7.273h-2.849V32h2.85V7.273zM98.772 32h2.849V19.781c0-5.892-4.491-6.568-6.858-6.568-2.8 0-5.988.966-7.437 4.347l2.705.966c.627-1.353 2.125-2.802 4.877-2.802 2.222 0 3.864.966 3.864 4.057v.049c0 1.207-2.222 1.11-4.781 1.448-3.478.435-7.196 1.256-7.196 5.458 0 3.622 2.8 5.699 6.326 5.699 3.236 0 4.927-1.739 5.506-2.946h.145V32zm0-6.713c0 2.318-1.835 4.588-5.216 4.588-2.27 0-3.912-1.014-3.912-2.994 0-2.174 1.98-2.85 4.202-3.14 1.207-.144 4.443-.482 4.926-1.062v2.608zm16.525-12.026c-.193-.048-.724-.096-1.4-.096-2.174 0-4.347 1.69-4.878 3.477h-.193v-3.188h-2.85V32h2.85V21.375c.048-2.415 1.883-5.264 4.974-5.264.725 0 1.208.048 1.497.096v-2.946z"/><path id="c" d="M1.234 11l.72-2.14H5.05L5.766 11h.984L4 3H3L.25 11h.984zm2.22-6.594h.108L4.763 8h-2.52l1.211-3.594zM11.575 11h.922V7.047c0-1.906-1.453-2.125-2.218-2.125-.907 0-1.938.312-2.407 1.406l.875.313c.203-.438.688-.907 1.578-.907.72 0 1.25.313 1.25 1.313v.016c0 .39-.718.359-1.546.468-1.125.14-2.329.407-2.329 1.766 0 1.172.907 1.844 2.047 1.844 1.047 0 1.594-.563 1.782-.954h.046V11zm0-2.172c0 .75-.593 1.485-1.687 1.485-.734 0-1.266-.329-1.266-.97 0-.702.641-.921 1.36-1.015.39-.047 1.437-.156 1.593-.344v.844zM17.238 11c1.64 0 2.656-.89 2.656-2.188 0-1.218-.906-1.89-1.594-1.968v-.059c.63-.164 1.297-.582 1.297-1.66 0-1.172-.781-2.125-2.453-2.125h-2.672v8h2.766zM15.44 3.86h1.703c1.063 0 1.531.562 1.531 1.265 0 .844-.687 1.39-1.562 1.39H15.44V3.86zm3.531 4.953c0 .796-.719 1.328-1.734 1.328H15.44V7.359h1.844c1.015 0 1.687.688 1.687 1.454zM21.517 3v8h.922v-.672h.063c.203.328.734.797 1.703.797 1.562 0 2.672-1.203 2.672-3.11 0-1.89-1.11-3.093-2.688-3.093-.984 0-1.484.469-1.687.781h-.063V3h-.922zm4.438 5c0 1.281-.625 2.297-1.797 2.297-1.125 0-1.813-.938-1.813-2.281 0-1.329.672-2.266 1.813-2.266 1.188 0 1.797.984 1.797 2.25zm8.486-2.938c-.266-1.375-1.477-2.171-2.844-2.171-1.922 0-3.282 1.578-3.282 4.109 0 2.547 1.36 4.11 3.282 4.11 1.37 0 2.578-.797 2.843-2.172h-1.015c-.188.796-1 1.265-1.828 1.265-1.328 0-2.344-1.203-2.344-3.203 0-2 1.016-3.203 2.344-3.203.828 0 1.656.469 1.828 1.265h1.016zm6.45 1.735c-.156-1.125-1.11-1.875-2.375-1.875-1.625 0-2.703 1.281-2.703 3.078 0 1.844 1.047 3.125 2.719 3.125 1.328 0 2.203-.813 2.359-1.875h-.922c-.172.656-.719 1.047-1.437 1.047-1.094 0-1.797-.906-1.797-2.297 0-1.36.718-2.25 1.797-2.25.812 0 1.297.5 1.437 1.047h.922zM3.359 16h-.921l-2 1.172.406.719 1.547-.907h.046V24h.922v-8zm7.607 7.14H7.513c-.219 0-.36 0-.516.063l-.047-.094c.153-.07.235-.152.364-.285L9.2 20.891c.825-.848 1.563-1.813 1.563-2.735 0-1.312-1-2.265-2.465-2.265-1.723 0-2.41 1.312-2.41 2.609h.953c0-.922.344-1.813 1.426-1.813.965 0 1.558.704 1.558 1.497 0 .691-.453 1.222-1.421 2.222l-2.813 2.89V24h5.375v-.86zm3.454-2.75h.453c.968 0 1.671.485 1.671 1.438 0 .969-.718 1.453-1.609 1.453-.89 0-1.39-.484-1.39-1.281h-1c0 1.375 1 2.11 2.406 2.11 1.422 0 2.61-.844 2.61-2.274 0-.715-.294-1.57-1.352-1.93.843-.41 1.18-1.23 1.18-1.797 0-1.453-1.016-2.218-2.403-2.218-1.535 0-2.363.937-2.363 2.109h.921c0-.781.563-1.344 1.43-1.344.852 0 1.461.547 1.461 1.438 0 .765-.562 1.406-1.562 1.406h-.454v.89zm10.187 1.25h-1.093V16h-1.016l-3.61 5.89v.61h3.766V24h.86v-1.5h1.093v-.86zm-4.515 0l2.406-4.03.156-.52v4.55h-2.562zm6.844-1.335c.359-.297.797-.504 1.53-.504.833 0 1.673.504 1.673 1.715 0 1.097-.82 1.77-1.738 1.77-.801 0-1.372-.427-1.536-1.286h-.937c.14 1.469 1.148 2.11 2.414 2.11 1.719 0 2.715-1.07 2.715-2.606 0-1.559-1.028-2.574-2.59-2.574-.547 0-1.102.222-1.387.468h-.054l.332-2.476H30.7V16h-4.218l-.47 4.094.923.21zM36.78 18h.922c-.286-1.36-1.004-2.11-2.325-2.11-1.777 0-2.691 1.551-2.691 4.024v.266c0 2.562.805 3.93 2.602 3.93 1.632 0 2.539-1.157 2.539-2.626 0-1.28-.715-2.515-2.332-2.515-.649 0-1.364.215-1.856.758.055-2.426.957-2.977 1.75-2.977.941 0 1.207.703 1.39 1.25zm-1.383 1.828c1.105 0 1.508.797 1.508 1.703 0 1.032-.672 1.735-1.54 1.735-.855 0-1.632-.582-1.648-1.778.016-1.015.762-1.66 1.68-1.66zM44.17 16h-5v.906h4.062L39.921 24h1.062l3.188-7v-1zm6.345 5.734c0-.847-.516-1.605-1.309-2 .68-.359 1.121-1.015 1.121-1.765 0-1.36-1-2.078-2.336-2.078-1.336 0-2.351.718-2.351 2.078 0 .75.43 1.402 1.101 1.761-.785.395-1.289 1.157-1.289 2.004 0 1.438 1.125 2.375 2.54 2.375 1.413 0 2.523-.937 2.523-2.375zm-1.094-3.726c0 .773-.688 1.336-1.43 1.336s-1.445-.563-1.445-1.36c0-.797.703-1.265 1.426-1.265.761 0 1.449.515 1.449 1.289zm.14 3.73c0 .84-.671 1.559-1.562 1.559-.89 0-1.61-.719-1.61-1.578 0-.86.72-1.594 1.579-1.594.86 0 1.593.734 1.593 1.613zm3.563.27h-.922c.285 1.36 1.004 2.11 2.325 2.11 1.777 0 2.691-1.552 2.691-4.024v-.266c0-2.562-.805-3.93-2.602-3.93-1.632 0-2.539 1.157-2.539 2.625 0 1.282.715 2.516 2.332 2.516.649 0 1.364-.215 1.856-.758-.055 2.426-.957 2.977-1.75 2.977-.941 0-1.207-.703-1.39-1.25zM53 18.477c0-1.032.672-1.735 1.54-1.735.855 0 1.632.582 1.648 1.777-.016 1.016-.762 1.66-1.68 1.66-1.105 0-1.508-.796-1.508-1.702zm11.094.82c0-2.344-1.11-3.406-2.664-3.406s-2.68 1.062-2.68 3.406v1.265c0 2.36 1.141 3.547 2.696 3.547 1.555 0 2.648-1.187 2.648-3.547v-1.265zm-.968 1.437c0 1.5-.72 2.516-1.68 2.516-.961 0-1.727-1.016-1.727-2.516v-1.609c0-1.516.75-2.375 1.711-2.375.961 0 1.696.86 1.696 2.375v1.61z"/><path id="d" d="M1.621 11l.613-1.918h2.883L5.727 11h1.335L4.34 3H3.012L.289 11h1.332zM3.63 4.707h.101l1.051 3.309H2.574L3.63 4.707zM11.679 11h1.203V7.008c0-1.707-1.309-2.086-2.293-2.086-1.098 0-2.105.46-2.476 1.558l1.148.293c.172-.433.59-.824 1.316-.824.61 0 1.07.285 1.07 1.043v.055c0 .351-.632.348-1.308.43-1.324.14-2.371.57-2.371 1.824 0 1.168.895 1.828 2.02 1.828.949 0 1.457-.473 1.644-.836h.047V11zm-.031-2.086c0 .637-.551 1.223-1.426 1.223-.613 0-1.047-.29-1.047-.82 0-.61.5-.84 1.219-.93.328-.04 1.117-.133 1.254-.29v.817zm5.815 2.074c1.727 0 2.739-.855 2.739-2.246 0-1.066-.707-1.805-1.625-1.894.695-.184 1.375-.645 1.375-1.692 0-1.285-.907-2.156-2.653-2.156h-2.71v7.988h2.874zm-1.617-6.906H17.3c.989 0 1.426.461 1.426 1.152 0 .758-.574 1.215-1.45 1.215h-1.429V4.082zM18.98 8.73c0 .7-.582 1.18-1.516 1.18h-1.617V7.437h1.668c.922 0 1.465.583 1.465 1.293zM21.623 3v8h1.223v-.648h.066c.203.37.73.761 1.578.761 1.461 0 2.547-1.148 2.547-3.101 0-1.965-1.11-3.09-2.555-3.09-.86 0-1.367.398-1.57.758h-.063V3h-1.226zm4.223 5c0 1.2-.543 2.078-1.57 2.078-1.028 0-1.555-.879-1.555-2.066 0-1.188.523-2.055 1.554-2.055 1.04 0 1.57.856 1.57 2.043zm8.774-2.777c-.328-1.485-1.535-2.332-2.968-2.332-1.95 0-3.329 1.554-3.329 4.113 0 2.566 1.38 4.105 3.328 4.105 1.434 0 2.637-.84 2.961-2.312l-1.265-.09c-.203.805-.903 1.246-1.696 1.246-1.21 0-2.078-1.031-2.078-2.95 0-1.917.867-2.956 2.078-2.956.793 0 1.5.45 1.696 1.262l1.273-.086zm6.427 1.644c-.16-1.14-1.086-1.945-2.441-1.945-1.684 0-2.742 1.293-2.742 3.082 0 1.828 1.039 3.117 2.758 3.117 1.34 0 2.265-.785 2.425-1.91l-1.164-.098c-.137.543-.57.965-1.273.965-.992 0-1.551-.836-1.551-2.074 0-1.203.566-2.047 1.547-2.047.8 0 1.176.582 1.285 1.016l1.156-.106zM3.465 16H2.332l-1.96 1.148.503.891 1.367-.797h.047V24h1.176v-8zm7.67 6.918H7.918c-.195 0-.308 0-.465.063l-.043-.09c.157-.067.227-.133.348-.258L9.27 21.07c.918-.965 1.652-1.898 1.652-2.898 0-1.36-.965-2.281-2.515-2.281-1.7 0-2.532 1.28-2.532 2.636h1.227c0-.843.351-1.62 1.277-1.62.828 0 1.328.59 1.328 1.343 0 .594-.37 1.133-1.258 2.047l-2.734 2.785V24h5.418v-1.082zm3.304-2.402h.594c.886 0 1.5.39 1.5 1.289 0 .816-.61 1.273-1.43 1.273-.781 0-1.27-.445-1.27-1.137h-1.257c0 1.45 1.148 2.168 2.515 2.168 1.496 0 2.704-.843 2.704-2.289 0-.793-.38-1.558-1.364-1.894.82-.395 1.207-1.18 1.207-1.813 0-1.453-1.05-2.222-2.523-2.222-1.492 0-2.45.886-2.45 2.113h1.204c0-.664.527-1.125 1.258-1.125.785 0 1.289.5 1.289 1.242 0 .711-.485 1.293-1.383 1.293h-.594v1.102zm10.438.879h-1.125V16h-1.29l-3.46 5.66v.817h3.629V24h1.12v-1.523h1.126v-1.082zm-4.465 0l2.05-3.457.169-.391v3.848h-2.219zm6.957-1.051c.285-.258.668-.469 1.332-.469.825 0 1.496.531 1.496 1.586 0 .965-.613 1.621-1.472 1.621-.719 0-1.215-.402-1.336-1.16H26.17c.094 1.46 1.219 2.187 2.523 2.187 1.762 0 2.704-1.144 2.704-2.613 0-1.601-1.024-2.625-2.496-2.625-.598 0-1.082.235-1.32.465h-.044l.282-2.211h3.261V16h-4.324l-.469 4.09 1.082.254zm9.508-2.29h1.184c-.277-1.34-1.023-2.163-2.43-2.163-1.922 0-2.758 1.648-2.75 4.156v.277c0 2.457.938 3.785 2.688 3.785 1.62 0 2.586-1.16 2.586-2.652 0-1.363-.727-2.574-2.282-2.574-.667 0-1.316.246-1.761.723.066-1.989.773-2.653 1.523-2.653.809 0 1.059.535 1.242 1.102zm-1.27 1.872c.942 0 1.352.695 1.352 1.562 0 .934-.578 1.582-1.355 1.582-.793 0-1.441-.547-1.445-1.695 0-.836.601-1.45 1.449-1.45zM44.638 16H39.46v1.113h3.882L40.234 24h1.328l3.074-7.012V16zm6.297 5.758c0-.863-.496-1.586-1.273-1.969.672-.363 1.098-1.004 1.098-1.762 0-1.394-1.016-2.136-2.41-2.136-1.383 0-2.414.742-2.414 2.136 0 .758.421 1.395 1.09 1.758-.778.383-1.274 1.106-1.274 1.973 0 1.469 1.145 2.351 2.605 2.351 1.457 0 2.578-.882 2.578-2.351zm-1.37-3.672c0 .707-.54 1.203-1.208 1.203-.672 0-1.226-.496-1.226-1.219 0-.718.554-1.136 1.207-1.136.68 0 1.226.453 1.226 1.152zm.144 3.625c0 .77-.566 1.367-1.348 1.367-.78 0-1.39-.598-1.39-1.383s.61-1.402 1.363-1.402c.762 0 1.375.617 1.375 1.418zm3.953.25h-1.187c.273 1.34 1.023 2.164 2.426 2.164 1.91-.047 2.75-1.664 2.75-4.168v-.281c0-2.453-.938-3.781-2.688-3.781-1.617 0-2.594 1.164-2.594 2.652 0 1.363.739 2.578 2.293 2.578.668 0 1.313-.246 1.758-.723-.066 1.98-.77 2.657-1.515 2.66-.817 0-1.063-.543-1.243-1.101zm-.09-3.445c0-.93.583-1.578 1.36-1.578.793 0 1.437.543 1.441 1.687 0 .84-.597 1.453-1.445 1.453-.941 0-1.355-.691-1.355-1.562zm10.927.78c0-2.304-1.149-3.405-2.727-3.405-1.578 0-2.738 1.101-2.738 3.406v1.289c0 2.36 1.164 3.523 2.75 3.523 1.578 0 2.715-1.164 2.715-3.523v-1.29zm-1.247 1.481c0 1.442-.632 2.254-1.468 2.254-.844 0-1.5-.812-1.5-2.254v-1.675c0-1.407.644-2.137 1.488-2.137s1.48.73 1.48 2.137v1.675z"/><path id="e" d="M1.957 11l.52-1.723h2.699L5.696 11h1.632l-2.7-8H3.02l-2.7 8h1.637zm1.82-6.035h.102L4.8 8.03H2.85l.926-3.066zM11.774 11h1.437V6.977c0-1.543-1.176-2.055-2.347-2.055-1.262 0-2.254.586-2.54 1.691l1.383.27c.14-.426.504-.754 1.09-.754.516 0 .914.262.914.816v.086c0 .32-.555.34-1.097.399-1.504.14-2.41.71-2.41 1.879 0 1.16.886 1.812 1.995 1.812.864 0 1.34-.402 1.528-.742h.047V11zm-.063-2.008c0 .535-.511.996-1.199.996-.512 0-.86-.258-.86-.695 0-.531.376-.77 1.094-.852.282-.039.852-.117.965-.242v.793zm5.95 1.988c1.804 0 2.808-.832 2.808-2.3 0-.89-.5-1.64-1.445-1.813.723-.242 1.242-.785 1.242-1.68C20.266 3.801 19.251 3 17.434 3h-2.742v7.98h2.969zM16.2 4.277h1.234c.934 0 1.34.368 1.34 1.051 0 .68-.473 1.067-1.348 1.067H16.2V4.277zm2.789 4.383c0 .613-.465 1.055-1.328 1.055H16.2V7.5h1.52c.843 0 1.269.496 1.269 1.16zM21.712 3v8h1.48v-.633h.074c.204.41.723.738 1.47.738 1.366 0 2.437-1.101 2.437-3.101 0-2.02-1.11-3.082-2.446-3.082-.75 0-1.257.336-1.46.742h-.063V3h-1.492zm4.043 5c0 1.129-.473 1.89-1.383 1.89-.942 0-1.336-.824-1.336-1.886 0-1.063.398-1.867 1.336-1.867.914 0 1.383.738 1.383 1.863zm9.008-2.645c-.375-1.578-1.582-2.464-3.078-2.464-1.973 0-3.36 1.539-3.36 4.12 0 2.575 1.387 4.098 3.36 4.098 1.496 0 2.691-.879 3.07-2.437l-1.484-.16c-.22.804-.817 1.222-1.586 1.222-1.102 0-1.844-.875-1.844-2.722 0-1.848.742-2.746 1.844-2.746.77 0 1.375.425 1.586 1.254l1.492-.165zm6.404 1.575c-.168-1.157-1.07-2.008-2.496-2.008-1.738 0-2.773 1.3-2.773 3.09 0 1.812 1.023 3.101 2.789 3.101 1.348 0 2.312-.761 2.48-1.933L39.8 8.996c-.113.441-.445.895-1.133.895-.914 0-1.34-.774-1.34-1.88 0-1.077.434-1.874 1.329-1.874.793 0 1.074.652 1.152.984l1.36-.191zM3.551 16H2.246l-1.93 1.133.59 1.031 1.211-.703h.047V24h1.387v-8zm7.711 6.723H8.258c-.18 0-.27 0-.426.062l-.035-.082a.88.88 0 0 0 .328-.23l1.188-1.246c1-1.07 1.738-1.977 1.738-3.04 0-1.406-.941-2.296-2.562-2.296-1.676 0-2.641 1.25-2.641 2.66h1.46c0-.781.368-1.457 1.153-1.457.711 0 1.133.488 1.133 1.215 0 .503-.3 1.058-1.117 1.894l-2.672 2.7V24h5.457v-1.277zm3.18-2.098h.719c.816 0 1.344.313 1.344 1.164 0 .684-.516 1.117-1.274 1.117-.688 0-1.168-.414-1.168-1.02h-1.477c0 1.52 1.274 2.223 2.61 2.223 1.566 0 2.781-.843 2.781-2.3 0-.86-.445-1.559-1.379-1.868.809-.382 1.239-1.132 1.239-1.82 0-1.453-1.075-2.23-2.63-2.23-1.449 0-2.523.847-2.523 2.12h1.453c0-.57.489-.937 1.11-.937.722 0 1.14.453 1.14 1.07 0 .665-.422 1.192-1.226 1.192h-.719v1.289zm10.657.559h-1.157V16H22.42l-3.336 5.465v.996h3.512V24h1.347v-1.54H25.1v-1.276zm-4.426 0l1.746-2.965.176-.344v3.309h-1.922zm7.053-.805c.23-.223.566-.438 1.168-.438.82 0 1.347.551 1.347 1.473 0 .852-.441 1.492-1.25 1.492-.644 0-1.078-.383-1.168-1.047H26.37c.047 1.446 1.274 2.25 2.61 2.25 1.8 0 2.699-1.207 2.699-2.617 0-1.644-1.02-2.668-2.422-2.668-.637 0-1.063.238-1.254.457h-.043l.238-1.984h3.192V16h-4.41l-.47 4.082 1.216.297zm9.227-2.277h1.406c-.27-1.32-1.04-2.211-2.52-2.211-2.043 0-2.82 1.73-2.797 4.273v.285c0 2.367 1.051 3.66 2.758 3.66 1.61 0 2.625-1.168 2.625-2.675 0-1.434-.738-2.63-2.238-2.63-.68 0-1.273.266-1.68.696.067-1.629.617-2.375 1.328-2.375.696 0 .93.398 1.117.977zM34.526 21.3v-.04c0-.675.468-1.25 1.25-1.25.804 0 1.218.602 1.218 1.438 0 .848-.5 1.45-1.199 1.45-.738 0-1.27-.512-1.27-1.598zM45.01 16h-5.324v1.293h3.727L40.475 24h1.563l2.972-7.02V16zm6.275 5.773c0-.875-.48-1.566-1.238-1.941.66-.36 1.07-.988 1.07-1.75 0-1.434-1.031-2.191-2.472-2.191-1.422 0-2.47.757-2.47 2.191 0 .762.41 1.387 1.071 1.746-.762.375-1.246 1.07-1.246 1.945 0 1.5 1.152 2.336 2.656 2.336 1.5 0 2.63-.836 2.63-2.336zm-1.613-3.617c0 .645-.414 1.086-1.016 1.086-.605 0-1.035-.441-1.035-1.094 0-.656.43-1.035 1.016-1.035.613 0 1.035.407 1.035 1.043zm.152 3.528c0 .71-.48 1.207-1.168 1.207-.687 0-1.203-.496-1.203-1.211 0-.73.516-1.239 1.184-1.239.675 0 1.187.508 1.187 1.243zm4.278.238h-1.418c.273 1.32 1.043 2.21 2.52 2.21 2.023-.089 2.8-1.76 2.8-4.292v-.297c0-2.36-1.054-3.648-2.762-3.648-1.605 0-2.644 1.164-2.644 2.675 0 1.434.758 2.625 2.258 2.625.68 0 1.27-.261 1.68-.691-.075 1.621-.618 2.383-1.317 2.394-.707 0-.941-.41-1.117-.976zm-.055-3.371c0-.848.5-1.45 1.2-1.45.738 0 1.269.512 1.269 1.602v.04c0 .675-.469 1.25-1.25 1.25-.8 0-1.219-.606-1.219-1.442zm10.77.746c0-2.274-1.179-3.406-2.78-3.406-1.602 0-2.785 1.132-2.785 3.406v1.305c0 2.359 1.18 3.507 2.788 3.507 1.602 0 2.778-1.148 2.778-3.507v-1.305zm-1.487 1.52c0 1.386-.555 2.027-1.29 2.027-.742 0-1.304-.64-1.304-2.028v-1.73c0-1.313.559-1.941 1.3-1.941.743 0 1.294.628 1.294 1.94v1.731z"/><path id="f" d="M14.706 32h3.212l-3.924-10.046c3.404-1.074 5.723-3.573 6.121-7.183.507-4.54-2.439-7.414-6.906-7.486L5.36 7.273 1.075 32h2.921l1.679-9.61h5.264L14.706 32zM7.836 9.929l5.264.012c2.97.072 4.649 1.835 4.202 4.817-.495 3.405-3.296 4.902-6.544 4.902l-4.612-.024 1.69-9.707zm20.817 22.457c3.224.049 6.557-1.497 7.691-4.672l-2.632-.76c-.978 1.93-2.789 2.921-4.95 2.873-3.501-.073-4.733-2.995-4.455-6.134h12.98l.156-1.207c.532-4.576-1.243-9.213-6.435-9.285-5.433-.072-8.874 4.757-9.442 9.744-.555 4.877 1.727 9.369 7.088 9.441zm2.234-16.613c3.03.084 4.323 2.716 3.9 5.457l-10.166.012c.978-2.85 2.934-5.566 6.266-5.47zm24.545-2.319l-.446 2.138h-.218c-.905-1.715-2.91-2.33-4.733-2.367-5.36-.108-8.874 4.48-9.49 9.442-.567 4.552 1.425 9.273 6.593 9.333 2.1.024 4.141-.749 5.445-2.427l.133-.012-.435 2.21c-.555 3.078-2.994 4.708-6.049 4.624-2.016-.06-3.32-.93-4.48-2.475l-2.209 1.654c1.534 2.294 3.84 3.344 6.58 3.38 4.166.06 8.21-2.209 8.839-6.58l3.247-18.92h-2.777zM43.334 22.62c.495-3.478 2.777-7.003 6.665-6.907 3.695.097 4.552 3.707 4.117 6.774-.495 3.49-2.813 7.111-6.725 7.003-3.706-.097-4.491-3.828-4.057-6.87zm29.095 2.04c-.447 2.765-2.68 4.938-5.579 4.83-2.414-.085-3.356-2.017-3.066-4.238l2.004-11.797H63.01L61.007 25.24c-.399 3.235 1.05 6.918 4.769 7.015 2.342.072 4.347-1.075 5.76-2.874h.132L71.125 32h2.789l3.211-18.546h-2.777l-1.92 11.205zm13.31-17.386H82.95L78.664 32h2.789l4.286-24.727zM96.707 32h2.705l2.065-12.219c.41-3.96-1.715-6.508-5.663-6.568-3.248-.048-6.303 1.316-7.751 4.335l2.583.966c1.05-1.86 3.067-2.838 5.18-2.79 2.62.06 2.97 1.787 2.898 4.033v.06c-.435 1.594-3.803 1.304-5.047 1.45-3.502.41-7.45 1.4-7.752 5.565-.253 3.345 2.113 5.566 5.373 5.615 2.343.036 4.492-.99 5.76-2.97l.096-.012L96.707 32zm1.1-6.713c-.532 2.825-3.14 4.66-5.953 4.6-1.775-.036-3.417-.905-3.164-2.91.314-2.354 2.741-3.018 4.758-3.248 1.4-.157 3.815-.048 4.914-1.062l-.556 2.62zm18.589-12.038a8.424 8.424 0 0 0-1.461-.12c-2.27 0-4.322 1.52-5.264 3.525h-.145l.652-3.2h-2.789L104.165 32h2.789l1.835-10.625c.532-2.765 2.922-5.313 5.856-5.3.471.012.942.048 1.413.132l.338-2.958zm15.99-5.976h-2.922L125.178 32h2.922l4.286-24.727zm11.599 6.181h-3.851l.7-3.96h-2.789l-.688 3.96h-2.717l-.459 2.657h2.717l-1.908 11.35c-.229 2.607 1.618 4.587 4.214 4.66.58.024 1.159.012 1.715-.157l.265-2.62c-.374.036-.748.072-1.123.072-1.75-.012-2.354-1.014-2.161-2.716l1.787-10.59h3.827l.471-2.655zM155.264 32h2.705l2.065-12.219c.41-3.96-1.715-6.508-5.663-6.568-3.248-.048-6.303 1.316-7.751 4.335l2.583.966c1.051-1.86 3.067-2.838 5.18-2.79 2.62.06 2.97 1.787 2.898 4.033v.06c-.435 1.594-3.803 1.304-5.047 1.45-3.502.41-7.45 1.4-7.752 5.565-.253 3.345 2.113 5.566 5.373 5.615 2.343.036 4.492-.99 5.76-2.97l.096-.012-.447 2.535zm1.099-6.713c-.531 2.825-3.139 4.66-5.952 4.6-1.775-.036-3.417-.905-3.164-2.91.314-2.354 2.741-3.018 4.758-3.248 1.4-.157 3.815-.048 4.914-1.062l-.556 2.62zm13.435-18.014h-2.79L162.722 32h2.789l4.287-24.727zm5.474 3.537c1.123-.012 2.004-.881 1.992-2.028a1.91 1.91 0 0 0-1.944-1.86 2 2 0 0 0-1.992 2.017c0 1.099.845 1.896 1.944 1.871zm.64 2.644h-2.777L169.911 32h2.789l3.212-18.546zm17.826 5.567c-.35-3.514-2.922-5.748-6.435-5.808-5.373-.096-8.85 4.649-9.43 9.587-.531 4.72 1.522 9.514 6.846 9.598 3.61.049 6.979-2.173 7.739-5.807l-2.801.012c-.809 2.028-2.62 3.284-4.829 3.236-3.755-.097-4.54-3.973-4.154-7.04.423-3.428 2.669-7.135 6.544-7.026 2.017.06 3.429 1.292 3.792 3.248h2.728z"/><path id="g" d="M2.427 7.273V32h3.815V14.288h.193l6.255 17.591h3.103l6.29-17.567h.205V32h3.804V7.273h-4.914l-6.786 18.666h-.29L7.33 7.273H2.427zm35.629 25.101c4.262 0 6.894-2.33 7.667-4.998l-3.502-.954c-.603 1.642-1.92 2.729-4.177 2.729-3.019 0-4.77-1.884-5.071-5.253h12.991v-1.593c0-6.424-3.84-9.092-8.137-9.092-5.216 0-8.585 4.033-8.585 9.708 0 5.65 3.345 9.453 8.814 9.453zm-.254-15.961c2.777 0 4.468 1.98 4.468 4.636h-9.2c.482-2.934 2.245-4.636 4.732-4.636zM64.82 32V7.273h-3.791v8.282h-.194c-.627-1.11-2.185-2.342-4.841-2.342-4.48 0-7.908 3.477-7.908 9.55 0 6.037 3.368 9.587 7.872 9.587 2.62 0 4.25-1.207 4.878-2.354h.205V32h3.779zm-13.052-9.273c0-3.67 1.642-6.314 4.866-6.314 3.187 0 4.805 2.68 4.805 6.35 0 3.67-1.642 6.388-4.805 6.388-3.188 0-4.866-2.717-4.866-6.424zm18.686-11.35c1.389 0 2.355-1.013 2.355-2.22 0-1.16-.966-2.222-2.355-2.222-1.388 0-2.366 1.062-2.366 2.221 0 1.208.978 2.222 2.367 2.222zm1.908 2.077h-3.791V32h3.791V13.454zM87.52 24.188c0 3.176-1.968 4.721-4.069 4.721-2.064 0-3.574-1.352-3.574-3.803V13.454h-3.79v11.712c0 5.047 3.21 7.076 6.072 7.076 2.56 0 4.347-1.244 5.325-2.633h.193V32h3.634V13.454h-3.79v10.734zm21.63-3.779c0-2.403 1.267-3.863 3.416-3.863 1.461 0 3.176.833 3.176 3.453V32h3.791V20.059c0-4.818-2.511-6.846-5.614-6.846-2.596 0-4.613 1.533-5.313 3.067h-.193c-.809-1.775-2.415-3.067-4.697-3.067-2.33 0-4.117 1.485-4.83 2.97h-.18v-2.729h-3.743V32h3.79V20.723c0-2.668 1.715-4.177 3.563-4.177 1.835 0 3.079 1.002 3.079 3.513V32h3.755V20.41z"/><path id="h" d="M4.902 7.273L.616 32h3.73l3.14-17.736.193.012 2.994 17.603h3.03l9.165-17.603h.169L19.886 32h3.718l4.287-24.727h-4.878l-9.84 18.69-.278-.012L9.61 7.273H4.902zm31.464 25.101c3.308.049 6.942-1.63 7.944-4.998l-3.368-.942c-.821 1.799-2.475 2.765-4.456 2.729-3.018-.073-4.129-2.548-3.875-5.265h12.532l.23-1.593c.543-4.66-1.534-9.032-6.677-9.104-5.506-.072-9.08 4.697-9.635 9.792-.555 4.962 1.956 9.309 7.305 9.381zm2.149-15.961c2.632.072 3.803 2.221 3.38 4.648l-8.91.012c.954-2.439 2.632-4.757 5.53-4.66zM62.562 32l4.286-24.727h-3.694l-1.534 8.306-.217-.011c-.76-1.679-2.692-2.307-4.407-2.343-5.349-.12-8.512 4.818-9.08 9.623-.53 4.383 1.075 9.454 6.243 9.514 1.992.024 3.9-.712 5.047-2.378l.132-.012-.47 2.028h3.694zm-11.047-9.176c.446-3.14 2.354-6.532 5.94-6.423 3.356.108 3.779 3.622 3.405 6.278-.447 3.09-2.319 6.592-5.892 6.484-3.381-.097-3.828-3.659-3.454-6.34zM72.542 11.39c1.28-.012 2.343-1.026 2.306-2.318-.024-1.22-1.062-2.161-2.27-2.15-1.255.013-2.342 1.027-2.306 2.319.025 1.231 1.05 2.161 2.27 2.149zm1.147 2.064h-3.706L66.772 32h3.695l3.223-18.546zm13.07 10.734c-.399 2.463-2.162 4.83-4.878 4.733-2.162-.084-2.898-1.86-2.657-3.803l1.98-11.663H77.5l-1.992 11.711c-.399 3.38 1.062 6.991 4.901 7.088 2.222.06 4.142-.978 5.53-2.657l.121-.012L85.528 32h3.55L92.3 13.454h-3.706l-1.836 10.734zm22.172-3.779c.35-2.125 1.775-3.96 4.093-3.876 1.956.073 2.548 1.727 2.331 3.453L113.315 32h3.707l2.028-11.941c.374-3.26-.712-6.786-4.503-6.846-2.294-.048-4.371 1.171-5.603 3.067l-.169.012c-.519-1.884-2.197-3.043-4.129-3.079-2.149-.048-3.984 1.22-5.083 2.994h-.109l.592-2.753h-3.67L93.163 32h3.694l1.944-11.277c.35-2.125 1.92-4.274 4.274-4.19 2.053.073 2.463 1.739 2.234 3.514L103.282 32h3.67l1.98-11.59zm29.41-13.136h-3.815L130.229 32h3.827l4.286-24.727zm11.307 6.181h-3.49l.689-3.96h-3.695l-.7 3.96h-2.463l-.544 3.08h2.476l-1.8 10.709c-.253 2.716 1.715 4.878 4.432 4.974a8.934 8.934 0 0 0 2.125-.193l.301-3.212c-.422.025-.845.06-1.267.049-1.461-.036-1.944-.918-1.775-2.343l1.69-9.985h3.477l.544-3.079zM160.095 32h3.525l2.089-12.34c.411-3.996-2.089-6.387-5.964-6.447-3.381-.06-6.774 1.473-7.981 4.806l3.417.893c.845-1.642 2.511-2.584 4.358-2.536 1.968.06 2.729 1.353 2.488 3.212l-.024.157c-.326 1.449-3.297 1.244-4.359 1.352-3.55.375-7.595 1.57-7.872 5.747-.218 3.309 2.125 5.518 5.36 5.566 2.138.025 4.081-.833 5.277-2.62h.072l-.386 2.21zm.93-6.447c-.471 2.342-2.741 3.851-5.047 3.79-1.497-.035-2.777-.796-2.548-2.45.302-2.137 2.475-2.765 4.323-2.983 1.134-.12 2.958-.084 3.839-.905l-.567 2.548zm14.659-18.28h-3.706L167.691 32h3.707l4.286-24.727zm5.306 4.117c1.28-.012 2.342-1.026 2.306-2.318-.024-1.22-1.062-2.161-2.27-2.15-1.255.013-2.342 1.027-2.306 2.319.024 1.231 1.051 2.161 2.27 2.149zm1.147 2.064h-3.707L175.219 32h3.694l3.224-18.546zm17.555 5.796c-.411-3.646-2.971-5.977-6.665-6.037-5.421-.084-8.935 4.576-9.49 9.599-.544 4.805 1.654 9.49 7.003 9.562 3.682.06 7.208-2.137 7.908-5.904l-3.538-.29c-.64 1.848-2.282 3.03-4.262 2.983-3.368-.085-3.827-3.695-3.489-6.351.374-3.019 2.221-6.52 5.723-6.387 1.908.06 2.994 1.364 3.344 3.151l3.466-.326z"/><path id="i" d="M11.193 31.94c5.578 0 8.68-2.572 8.68-7.112 0-2.753-1.545-5.07-4.467-5.602 2.234-.749 3.84-2.427 3.84-5.192 0-4.286-3.14-6.761-8.754-6.761H2.016V31.94h9.177zM6.677 11.22h3.815c2.886 0 4.141 1.136 4.141 3.249 0 2.1-1.46 3.296-4.165 3.296H6.677V11.22zm8.62 13.548c0 1.895-1.436 3.26-4.104 3.26H6.677v-6.846h4.697c2.607 0 3.924 1.533 3.924 3.586zm15.088 7.582c4.709 0 8.367-3.525 8.367-9.587 0-6.17-3.779-9.55-8.367-9.55-4.588 0-8.367 3.38-8.367 9.55 0 6.062 3.622 9.587 8.367 9.587zm0-3.779c-2.56 0-3.948-2.15-3.948-5.808 0-3.694 1.424-5.795 3.948-5.795 2.523 0 3.948 2.1 3.948 5.796 0 3.658-1.388 5.807-3.948 5.807zm15.74-21.298h-4.613V32h4.612V7.273zM65.741 32V7.273H61.13v8.234h-.193c-.628-1.256-2.21-2.294-4.528-2.294-4.117 0-7.546 3.284-7.546 9.526 0 6.182 3.296 9.587 7.534 9.587 2.306 0 3.912-1.014 4.54-2.282h.23V32h4.575zm-12.496-9.273c0-3.477 1.449-5.759 4.262-5.759 2.898 0 4.13 2.487 4.13 5.771s-1.208 5.832-4.13 5.832c-2.801 0-4.262-2.354-4.262-5.844z"/><path id="j" d="M9.406 31.952c4.636 0 8.97-2.15 9.38-7.208.194-2.355-.868-4.842-3.356-5.434 2.596-.881 4.42-2.511 4.649-5.372.362-4.697-3.417-6.593-7.607-6.653l-7.968-.012L.229 31.94l9.177.012zM8.367 11.22l3.948.012c2.077.036 3.526.881 3.176 3.14-.387 2.438-2.572 3.404-4.83 3.404l-3.429-.012 1.135-6.544zm5.989 13.45c-.374 2.355-2.608 3.369-4.781 3.369l-4.118-.012 1.196-6.846 4.793.012c2.065.072 3.248 1.4 2.91 3.477zm14.399 7.68c5.41.084 8.838-4.673 9.357-9.66.483-4.672-1.654-9.393-6.894-9.478-5.409-.084-8.826 4.636-9.357 9.623-.483 4.697 1.618 9.43 6.894 9.514zm.181-3.768c-2.958-.109-3.018-3.525-2.753-5.735.314-2.656 1.666-5.989 4.854-5.892 2.958.109 3.018 3.514 2.753 5.723-.314 2.668-1.654 6-4.854 5.904zm19.579-21.31h-4.504L39.713 32h4.504l4.298-24.727zM63.497 32l4.286-24.727h-4.504l-1.533 8.258h-.23c-.651-1.642-2.487-2.27-4.129-2.306-5.24-.12-8.15 4.987-8.693 9.599-.495 4.226.857 9.442 5.965 9.514 1.895.036 3.658-.688 4.684-2.318h.157L59.017 32h4.48zM52.98 22.824c.387-2.813 2.005-5.977 5.277-5.868 3.018.109 3.139 3.393 2.825 5.699-.386 2.777-1.884 6.037-5.156 5.928-3.042-.096-3.272-3.405-2.946-5.76zM85.347 7.273H80.77L76.483 32h4.576l4.287-24.727zm11.444 6.181h-3.176l.688-3.96H89.8l-.688 3.96h-2.258l-.604 3.442h2.27L86.818 27.05c-.266 2.813 1.787 5.119 4.6 5.204.833.024 1.642-.037 2.45-.17l.375-3.742c-.447.024-.881.048-1.328.024-1.244-.049-1.654-.81-1.51-2.005l1.606-9.465h3.176l.604-3.442zM106.855 32h4.214l2.101-12.436c.422-4.033-2.367-6.29-6.182-6.35-3.501-.05-7.22 1.605-8.174 5.227l4.153.821c.628-1.473 1.993-2.378 3.611-2.33 1.509.048 2.354.99 2.125 2.5l-.049.265c-.35 1.304-2.716 1.17-3.743 1.268-3.61.313-7.715 1.678-7.98 5.904-.206 3.272 2.124 5.47 5.336 5.517 1.956.024 3.743-.712 4.866-2.33l.06-.012-.338 1.956zm.773-6.194c-.398 1.908-2.366 3.14-4.25 3.091-1.268-.036-2.246-.724-2.028-2.077.301-1.98 2.221-2.523 3.948-2.74.893-.11 2.221-.133 2.91-.773l-.58 2.5zm16.077-18.533h-4.503L114.904 32h4.503l4.298-24.727zm5.504 4.6c1.413-.012 2.608-1.123 2.572-2.56-.036-1.352-1.195-2.378-2.524-2.39-1.4-.012-2.644 1.122-2.607 2.571.048 1.365 1.219 2.39 2.559 2.379zm1.57 1.582h-4.504L123.052 32h4.503l3.224-18.546zm17.686 6c-.495-3.767-2.994-6.182-6.858-6.242-5.481-.084-8.995 4.516-9.55 9.623-.544 4.878 1.762 9.442 7.135 9.514 3.719.06 7.39-2.125 8.042-5.976l-4.118-.568c-.555 1.678-1.992 2.825-3.791 2.777-3.03-.072-3.236-3.429-2.946-5.747.338-2.668 1.811-5.989 4.999-5.856 1.835.073 2.656 1.413 2.982 3.055l4.105-.58z"/><path id="k" d="M2.344 11l.422-1.5h2.468l.422 1.5h1.985L4.969 3H3.03L.36 11h1.985zm1.61-5.734h.093l.781 2.78H3.172l.781-2.78zM11.897 11h1.719V6.937c0-1.343-1.032-2.015-2.422-2.015-1.454 0-2.422.734-2.61 1.844l1.656.25c.11-.422.407-.672.829-.672.406 0 .734.234.734.547v.125c0 .28-.469.328-.86.359-1.703.14-2.453.875-2.453 1.938 0 1.156.875 1.796 1.97 1.796.765 0 1.202-.312 1.39-.625h.047V11zm-.094-1.922c0 .422-.469.735-.938.735-.39 0-.64-.22-.64-.547 0-.438.234-.688.953-.766.219-.031.531-.094.625-.188v.766zm6.115 1.89c1.89 0 2.89-.796 2.89-2.359 0-.734-.336-1.464-1.242-1.703.777-.316 1.086-.98 1.086-1.687 0-1.5-1.14-2.219-3.031-2.219H14.84v7.969h3.079zM16.637 4.5h.985c.859 0 1.234.266 1.234.938 0 .593-.36.89-1.234.89h-.985V4.5zm2.39 4.078c0 .516-.327.906-1.108.906h-1.282V7.578h1.344c.75 0 1.047.39 1.047 1zM21.84 3v8h1.781v-.61h.078c.203.454.719.704 1.344.704 1.265 0 2.312-1.047 2.312-3.094 0-2.094-1.109-3.078-2.312-3.078-.625 0-1.14.266-1.344.719h-.062V3H21.84zm3.828 5c0 1.047-.39 1.672-1.156 1.672-.844 0-1.078-.766-1.078-1.672 0-.922.25-1.656 1.078-1.656.765 0 1.156.61 1.156 1.656zm9.297-2.484c-.438-1.688-1.64-2.625-3.203-2.625-2 0-3.406 1.515-3.406 4.125 0 2.593 1.406 4.093 3.406 4.093 1.558 0 2.75-.921 3.187-2.578l-1.734-.25c-.234.813-.719 1.203-1.453 1.203-.985 0-1.578-.703-1.578-2.468 0-1.766.593-2.5 1.578-2.5.734 0 1.219.406 1.453 1.25l1.75-.25zM41.345 7c-.172-1.172-1.047-2.078-2.562-2.078-1.797 0-2.813 1.312-2.813 3.094 0 1.796 1.016 3.093 2.828 3.093 1.36 0 2.375-.734 2.547-1.968l-1.61-.282c-.077.329-.296.813-.968.813-.813 0-1.094-.703-1.094-1.656 0-.922.282-1.672 1.078-1.672.782 0 .954.734 1 .953L41.345 7zM3.656 16H2.141L.25 17.11l.688 1.203 1.03-.594h.048V24h1.64v-8zm7.58 6.5H8.472c-.156 0-.219 0-.375.063l-.031-.079a.726.726 0 0 0 .312-.203l.813-.875c1.094-1.187 1.828-2.062 1.828-3.203 0-1.453-.906-2.312-2.61-2.312-1.656 0-2.765 1.218-2.765 2.687h1.734c0-.703.375-1.265 1-1.265.578 0 .906.375.906 1.062 0 .406-.218.969-.953 1.719l-2.593 2.593V24h5.5v-1.5zm3.032-1.75h.86c.734 0 1.171.219 1.171 1.016 0 .53-.406.937-1.093.937-.579 0-1.047-.375-1.047-.875h-1.735c0 1.594 1.422 2.281 2.72 2.281 1.64 0 2.874-.843 2.874-2.312 0-.926-.508-1.555-1.383-1.84.79-.371 1.258-1.086 1.258-1.832 0-1.453-1.11-2.234-2.75-2.234-1.406 0-2.61.796-2.61 2.125h1.735c0-.453.453-.72.938-.72.656 0 .968.407.968.876 0 .61-.343 1.078-1.046 1.078h-.86v1.5zm10.907.188h-1.188V16H22.19l-3.187 5.234v1.203h3.375V24h1.61v-1.563h1.187v-1.5zm-4.375 0l1.39-2.391.188-.32v2.71H20.8zm7.177-.516c.156-.188.437-.406.968-.406.813 0 1.172.578 1.172 1.343 0 .72-.234 1.344-.984 1.344-.563 0-.922-.36-.969-.922H26.43c0 1.438 1.344 2.328 2.719 2.328 1.843 0 2.687-1.28 2.687-2.625 0-1.687-1.016-2.718-2.328-2.718-.688 0-1.047.25-1.188.453h-.03l.187-1.719h3.11V16H27.07l-.468 4.078 1.375.344zm8.89-2.266h1.672c-.265-1.297-1.062-2.265-2.625-2.265-2.187 0-2.89 1.828-2.859 4.406v.297c0 2.265 1.188 3.515 2.844 3.515 1.594 0 2.672-1.172 2.672-2.703 0-1.515-.75-2.687-2.188-2.687-.68 0-1.219.273-1.582.652.063-1.242.445-2.043 1.098-2.043.562 0 .781.235.969.828zM34.79 21.22v-.094c0-.484.313-1.016 1.016-1.016.64 0 1.063.5 1.063 1.297 0 .75-.407 1.297-1.016 1.297-.672 0-1.063-.469-1.063-1.484zM45.294 16h-5.5v1.5h3.547L40.605 24h1.828l2.86-7.031V16zm6.238 5.797c0-.887-.46-1.547-1.199-1.914.648-.36 1.043-.973 1.043-1.742 0-1.47-1.047-2.25-2.547-2.25-1.469 0-2.531.78-2.531 2.25 0 .765.398 1.379 1.047 1.738-.742.367-1.22 1.031-1.22 1.918 0 1.531 1.173 2.312 2.72 2.312 1.547 0 2.687-.78 2.687-2.312zm-1.89-3.563c0 .578-.266.953-.797.953-.532 0-.813-.375-.813-.953s.281-.906.797-.906c.531 0 .813.344.813.906zm.156 3.422c0 .64-.375 1.016-.953 1.016s-.985-.375-.985-1.016c0-.656.407-1.047.97-1.047.577 0 .968.391.968 1.047zm4.668.219H52.78c.265 1.297 1.062 2.266 2.625 2.266 2.156-.141 2.859-1.875 2.859-4.438v-.312c0-2.25-1.188-3.5-2.844-3.5-1.594 0-2.703 1.171-2.703 2.703 0 1.515.781 2.687 2.219 2.687.68 0 1.21-.27 1.578-.648-.074 1.234-.441 2.055-1.078 2.07-.578 0-.797-.25-.969-.828zm-.016-3.281c0-.75.407-1.297 1.016-1.297.672 0 1.063.469 1.063 1.484v.094c0 .484-.313 1.016-1.016 1.016-.64 0-1.063-.5-1.063-1.297zm10.6.703c0-2.235-1.22-3.406-2.844-3.406-1.625 0-2.844 1.171-2.844 3.406v1.328c0 2.36 1.203 3.484 2.844 3.484 1.625 0 2.843-1.125 2.843-3.484v-1.328zm-1.766 1.562c0 1.328-.469 1.766-1.078 1.766-.625 0-1.079-.438-1.079-1.766v-1.797c0-1.203.454-1.703 1.079-1.703s1.078.5 1.078 1.703v1.797z"/><path id="l" d="M11.06 31.903c5.843 0 8.934-2.463 8.934-7.292 0-2.27-1.038-4.528-3.84-5.264 2.404-.978 3.357-3.03 3.357-5.216 0-4.637-3.525-6.858-9.369-6.858H1.545v24.63h9.515zM7.1 11.91h3.042c2.656 0 3.815.821 3.815 2.898 0 1.835-1.11 2.753-3.815 2.753H7.099v-5.65zm7.389 12.605c0 1.594-1.015 2.801-3.43 2.801H7.1v-5.892h4.154c2.318 0 3.236 1.208 3.236 3.091zM27.71 7.273h-5.554V32h5.554V7.273zM40.495 32h5.312V19.443c0-4.153-3.187-6.23-7.485-6.23-4.492 0-7.486 2.27-8.066 5.699l5.12.773c.338-1.304 1.255-2.077 2.56-2.077 1.255 0 2.27.724 2.27 1.69v.387c0 .869-1.45 1.014-2.657 1.11-5.264.435-7.582 2.705-7.582 5.99 0 3.573 2.704 5.553 6.085 5.553 2.366 0 3.718-.966 4.298-1.932h.145V32zm-.29-5.94c0 1.304-1.449 2.27-2.898 2.27-1.207 0-1.98-.677-1.98-1.69 0-1.353.725-2.126 2.946-2.367.676-.097 1.642-.29 1.932-.58v2.367zm24.2-6.424c-.531-3.622-3.236-6.423-7.92-6.423-5.554 0-8.693 4.057-8.693 9.563 0 5.553 3.139 9.562 8.741 9.562 4.202 0 7.341-2.27 7.872-6.085l-4.974-.87c-.242 1.015-.918 2.512-2.994 2.512-2.512 0-3.381-2.173-3.381-5.12 0-2.849.87-5.167 3.332-5.167 2.415 0 2.946 2.27 3.091 2.946l4.926-.918zM77.905 32h5.989L76.95 21.363l6.653-7.909H77.18l-4.926 6.134h-.241V7.273h-5.554V32h5.554v-5.53l1.352-1.545L77.905 32z"/><path id="m" d="M9.321 31.916c4.866 0 9.176-2.101 9.61-7.39.17-2.149-.651-4.31-2.8-5.095 2.439-.978 3.972-2.704 4.19-5.385.398-5.023-3.9-6.725-8.223-6.773H4.045L-.23 31.903l9.55.013zm-.652-20.007l3.224.012c1.92.036 3.236.664 2.885 2.777-.362 2.27-2.402 2.886-4.443 2.874l-2.716-.024 1.05-5.639zm4.95 12.509c-.35 2.052-2.16 2.91-4.093 2.91l-3.598-.025 1.099-5.88 4.298.012c1.848.073 2.584 1.184 2.294 2.983zM30.077 7.273h-5.421L20.37 32h5.42l4.287-24.727zM38.551 32h5.047l2.125-12.557c.447-4.057-2.753-6.182-6.472-6.23-3.658-.06-7.74 1.763-8.415 5.711l4.962.736c.471-1.207 1.437-2.125 2.813-2.076.966.036 1.896.604 1.727 1.678l-.072.386c-.363 1.123-2.113 1.087-3.055 1.148-3.695.277-7.86 1.799-8.114 6.073-.18 3.247 2.113 5.433 5.3 5.481 1.751.024 3.345-.555 4.395-1.98h.06l-.3 1.63zm.616-5.928c-.35 1.4-1.932 2.33-3.333 2.282-.978-.037-1.593-.616-1.436-1.606.29-1.8 1.931-2.258 3.501-2.487.628-.097 1.352-.194 1.86-.616l-.592 2.427zm25.178-6.4c-.543-3.887-3.03-6.399-7.063-6.459-5.542-.084-9.092 4.443-9.647 9.635-.532 4.962 1.895 9.418 7.292 9.49 3.816.06 7.607-2.1 8.223-6.097l-4.794-.845c-.447 1.497-1.654 2.56-3.272 2.523-2.62-.06-2.535-3.163-2.294-5.071.278-2.27 1.34-5.349 4.142-5.228 1.762.072 2.27 1.473 2.56 2.97l4.853-.917zM75.949 32h5.663l-4.939-10.396 8.066-8.137-6.64-.013-5.833 6.182h-.157l2.27-12.363h-5.42L64.671 32h5.421l.918-5.313 1.775-1.714L75.949 32zm25.988-24.727h-5.47L92.182 32h5.47l4.286-24.727zm11.197 6.181l-2.886-.011.761-3.949h-5.446l-.688 3.96h-2.004l-.676 3.864h2.016l-1.594 9.514c-.289 2.91 1.848 5.385 4.77 5.506a14.28 14.28 0 0 0 2.873-.205l.592-4.286-1.666-.025c-.954-.06-1.22-.772-1.099-1.642l1.545-8.862h2.801l.701-3.864zM122.341 32h5.047l2.125-12.557c.447-4.057-2.753-6.182-6.472-6.23-3.658-.06-7.739 1.763-8.415 5.711l4.962.736c.471-1.207 1.437-2.125 2.813-2.076.966.036 1.896.604 1.727 1.678l-.072.386c-.363 1.123-2.113 1.087-3.055 1.148-3.695.277-7.86 1.799-8.114 6.073-.181 3.247 2.113 5.433 5.301 5.481 1.75.024 3.344-.555 4.395-1.98h.06l-.302 1.63zm.616-5.928c-.35 1.4-1.932 2.33-3.333 2.282-.978-.037-1.593-.616-1.436-1.606.289-1.8 1.931-2.258 3.501-2.487.628-.097 1.352-.194 1.859-.616l-.591 2.427zm17.324-18.8h-5.421L130.574 32h5.421l4.286-24.727zm5.323 5.18c1.569.012 2.958-1.255 2.921-2.861-.048-1.497-1.352-2.656-2.825-2.668-1.569-.012-2.994 1.243-2.946 2.861.036 1.51 1.377 2.656 2.85 2.668zm2.088 1.002h-5.421L139.06 32h5.421l3.211-18.546zm17.427 6.219c-.543-3.888-3.031-6.4-7.063-6.46-5.542-.084-9.092 4.443-9.647 9.635-.531 4.962 1.895 9.418 7.292 9.49 3.816.06 7.607-2.1 8.223-6.097l-4.794-.845c-.446 1.497-1.654 2.56-3.272 2.523-2.62-.06-2.535-3.163-2.294-5.071.278-2.27 1.341-5.349 4.142-5.228 1.762.072 2.27 1.473 2.559 2.97l4.854-.917z"/></defs></svg>