<svg width="888" height="165" viewBox="0 0 888 165" version="1.1" xmlns="http://www.w3.org/2000/svg" xmlns:xlink="http://www.w3.org/1999/xlink">
<title>weights-and-styles</title>
<desc>Created using Figma</desc>
<g id="Canvas" transform="translate(-1509 -1027)">
<clipPath id="clip-0" clip-rule="evenodd">
<path d="M 1509 1027L 2397 1027L 2397 1192L 1509 1192L 1509 1027Z" fill="#FFFFFF"/>
</clipPath>
<g id="weights-and-styles" clip-path="url(#clip-0)">
<g id="Regular">
<use xlink:href="#path0_fill" transform="translate(1508 1019)"/>
</g>
<g id="AaBbCc 1234567890">
<use xlink:href="#path1_fill" transform="translate(1508 1117.64)"/>
</g>
<g id="AaBbCc 1234567890">
<use xlink:href="#path2_fill" transform="translate(1752.52 1117.64)"/>
</g>
<g id="AaBbCc 1234567890">
<use xlink:href="#path3_fill" transform="translate(2009.42 1117.64)"/>
</g>
<g id="Regular Italic">
<use xlink:href="#path4_fill" transform="translate(1508 1060.04)"/>
</g>
<g id="Medium">
<use xlink:href="#path5_fill" transform="translate(1752.52 1019)"/>
</g>
<g id="Medium Italic">
<use xlink:href="#path6_fill" transform="translate(1752.52 1060.04)"/>
</g>
<g id="Bold">
<use xlink:href="#path7_fill" transform="translate(2009.42 1019)"/>
</g>
<g id="Bold Italic">
<use xlink:href="#path8_fill" transform="translate(2009.42 1060.04)"/>
</g>
<g id="AaBbCc 1234567890">
<use xlink:href="#path9_fill" transform="translate(2223 1117.64)"/>
</g>
<g id="Black">
<use xlink:href="#path10_fill" transform="translate(2223 1019)"/>
</g>
<g id="Black Italic">
<use xlink:href="#path11_fill" transform="translate(2223 1060.04)"/>
</g>
</g>
</g>
<defs>
<path id="path0_fill" d="M 17.1049 33L 20.5356 33L 20.5356 32.804L 15.0464 22.5239C 17.9503 21.3109 19.7025 18.7623 19.7025 15.7481C 19.7025 10.945 16.5657 7.90633 10.9785 7.90633L 2.94066 7.90633L 2.94066 33L 5.97935 33L 5.97935 23.2468L 11.9955 23.2468L 17.1049 33ZM 5.97935 10.6019L 10.9785 10.6019C 15.1444 10.6019 16.6148 12.5624 16.6148 15.7481C 16.6148 18.2477 14.4093 20.5512 10.9785 20.5512L 5.97935 20.5512L 5.97935 10.6019ZM 31.2008 33.3921C 34.9747 33.3921 37.4252 31.6277 38.5035 29.1281L 35.8569 27.9519C 35.0727 29.7163 33.5043 30.7945 31.2008 30.7945C 27.9783 30.7945 25.9076 28.4052 25.5278 24.8151L 39.0426 24.8151L 39.0426 23.5899C 39.0426 16.6793 35.6118 13.9347 30.9068 13.9347C 25.8586 13.9347 22.5749 17.9536 22.5749 23.5899C 22.5749 29.3732 25.8096 33.3921 31.2008 33.3921ZM 30.9558 16.5323C 34.2395 16.5323 36.249 18.5907 36.249 22.3156L 25.54 22.3156C 25.9444 18.8848 28.0274 16.5323 30.9558 16.5323ZM 41.4463 23.7859C 41.4463 29.0791 44.485 32.7059 48.749 32.7059C 51.4814 32.7059 53.2703 31.6767 54.4343 30.0103L 54.4343 32.7549C 54.3853 36.0387 52.2288 37.46 49.0921 37.46C 45.9554 37.46 44.6811 35.7446 43.9949 34.9604L 41.8384 36.6758C 43.0147 38.3422 45.1712 40.0576 49.0921 40.0576C 53.6501 40.0576 57.3259 37.607 57.3259 33.3921L 57.3259 14.2778L 54.4343 14.2778L 54.4343 17.0837C 53.2703 15.1967 51.4936 13.9347 48.798 13.9347C 44.436 13.9347 41.4463 17.9046 41.4463 23.4428L 41.4463 23.7859ZM 44.436 23.4428C 44.436 19.914 46.1024 16.7283 49.6802 16.7283C 52.6209 16.7283 54.0422 19.865 54.2872 21.6784C 54.5323 22.8547 54.5323 24.7171 54.2872 25.7954C 53.9442 27.6088 52.3758 30.1083 49.4842 30.1083C 46.2494 30.1083 44.436 27.3147 44.436 23.7859L 44.436 23.4428ZM 73.7254 25.5503C 73.7254 29.0791 71.0298 30.4514 68.8733 30.4514C 66.4718 30.4514 64.7564 28.8831 64.7564 26.1384L 64.7564 14.1797L 61.8647 14.1797L 61.8647 26.1384C 61.8647 30.9415 65.1975 33.2451 67.9421 33.2451C 70.7847 33.2451 72.5981 31.7747 73.5294 30.3534L 73.7254 30.3534L 73.7254 33L 76.6171 33L 76.6171 14.1797L 73.7254 14.1797L 73.7254 25.5503ZM 84.3416 7.90633L 81.4499 7.90633L 81.4499 33L 84.3416 33L 84.3416 7.90633ZM 100.475 33L 103.366 33L 103.366 21.3844C 103.366 16.0422 99.8374 13.9347 96.0636 13.9347C 93.3189 13.9347 89.8391 15.111 88.5649 18.5417L 91.2115 19.571C 92.3387 17.0714 94.3482 16.4833 96.0145 16.4833C 98.4161 16.4833 100.475 17.4635 100.475 21.6294L 100.475 21.9725L 98.9552 22.0215C 92.5348 22.1686 88.3198 22.8057 88.3198 28.0499C 88.3198 31.3826 91.0154 33.4411 95.0833 33.4411C 97.5829 33.4411 99.4453 31.9708 100.328 30.6475L 100.475 30.6475L 100.475 33ZM 100.475 24.4231L 100.475 26.4815C 100.475 28.1479 98.4651 30.8435 95.4754 30.8435C 92.5838 30.8435 91.2115 29.6182 91.2115 27.6578C 91.2115 24.4721 95.8675 24.6191 98.9552 24.4721L 100.475 24.4231ZM 116.696 13.9837C 116.5 13.9347 115.961 13.8857 115.275 13.8857C 113.07 13.8857 110.864 15.6011 110.325 17.4145L 110.129 17.4145L 110.129 14.1797L 107.237 14.1797L 107.237 33L 110.129 33L 110.129 22.2176C 110.178 19.767 112.04 16.8754 115.177 16.8754C 115.912 16.8754 116.402 16.9244 116.696 16.9734L 116.696 13.9837Z"/>
<path id="path1_fill" d="M 1.33964 11L 2.08706 8.76183L 5.2401 8.76183L 5.97935 11L 7.0576 11L 4.18228 2.63544L 3.13671 2.63544L 0.261392 11L 1.33964 11ZM 3.61048 4.18746L 3.72484 4.18746L 4.94195 7.86329L 2.38521 7.86329L 3.61048 4.18746ZM 11.6113 11L 12.5751 11L 12.5751 7.12812C 12.5751 5.34739 11.3989 4.6449 10.1409 4.6449C 9.22605 4.6449 8.06612 5.03698 7.64136 6.18058L 8.52356 6.52365C 8.89931 5.69047 9.56913 5.49442 10.1246 5.49442C 10.9251 5.49442 11.6113 5.82116 11.6113 7.20981L 11.6113 7.32417L 11.1048 7.34051C 8.96466 7.38952 7.55967 7.6019 7.55967 9.34996C 7.55967 10.4609 8.45821 11.147 9.81418 11.147C 10.6474 11.147 11.2682 10.6569 11.5622 10.2158L 11.6113 10.2158L 11.6113 11ZM 11.6113 8.14102L 11.6113 8.82718C 11.6113 9.38263 10.9414 10.2812 9.94488 10.2812C 8.98099 10.2812 8.52356 9.87275 8.52356 9.21926C 8.52356 8.15736 10.0756 8.20637 11.1048 8.15736L 11.6113 8.14102ZM 16.8225 11C 18.4725 11 19.6488 10.1668 19.6488 8.63113C 19.6488 7.69584 19.0525 6.98926 18.0968 6.76463C 18.8524 6.39296 19.322 5.67004 19.322 4.87361C 19.322 3.69735 18.3418 2.63544 16.6754 2.63544L 13.9308 2.63544L 13.9308 11L 16.8225 11ZM 14.9437 3.53398L 16.6754 3.53398C 17.7537 3.53398 18.3092 4.28548 18.3092 4.87361C 18.3092 5.59653 17.672 6.22142 16.896 6.31536L 15.2051 6.32761L 14.9437 6.32761L 14.9437 3.53398ZM 18.6522 8.63113C 18.6522 9.62769 17.8027 10.1015 16.8225 10.1015L 14.9437 10.1015L 14.9437 7.22615L 16.8715 7.22615C 17.9334 7.22615 18.6522 7.69992 18.6522 8.63113ZM 26.1537 7.84695C 26.1537 6.00087 25.1571 4.6449 23.7031 4.6449C 22.8781 4.6449 22.3104 5.00023 21.9224 5.54752L 21.9224 2.63544L 20.9585 2.63544L 20.9585 11L 21.7917 11L 21.8816 10.1831C 22.2737 10.7509 22.8536 11.1144 23.7195 11.1144C 25.1408 11.1144 26.1537 9.72571 26.1537 7.84695ZM 25.1571 7.84695C 25.1571 9.13758 24.5527 10.2485 23.4744 10.2485C 22.5105 10.2485 21.9878 9.20293 21.8734 8.59846C 21.7917 8.23904 21.7917 7.61824 21.8734 7.22615C 21.9551 6.62168 22.4289 5.57611 23.4091 5.57611C 24.6017 5.57611 25.1571 6.67069 25.1571 7.84695ZM 32.4697 8.84351C 32.29 9.49699 31.7182 10.1505 30.4929 10.1505C 29.0553 10.1505 28.1731 8.61479 28.1731 6.81772C 28.1731 4.88995 29.0716 3.43596 30.4929 3.43596C 31.6529 3.43596 32.3227 4.02409 32.4697 4.79193L 33.6296 4.79193C 33.3846 3.53398 32.3717 2.52108 30.4929 2.52108C 28.4018 2.52108 27.1929 4.31816 27.1929 6.81772C 27.1929 9.34996 28.5652 11.1144 30.4929 11.1144C 32.29 11.1144 33.3683 10.0851 33.597 8.84351L 32.4697 8.84351ZM 39.915 6.60534C 39.7517 5.5271 38.8531 4.6449 37.3828 4.6449C 35.6837 4.6449 34.6055 5.98453 34.6055 7.86329C 34.6055 9.79106 35.7001 11.1307 37.3828 11.1307C 38.8368 11.1307 39.7517 10.2812 39.915 9.17025L 38.9511 9.17025C 38.7714 9.85641 38.1996 10.2648 37.3828 10.2648C 36.3372 10.2648 35.5694 9.30095 35.5694 7.86329C 35.5694 6.49098 36.3046 5.51076 37.3991 5.51076C 38.265 5.51076 38.7878 6.00087 38.9511 6.60534L 39.915 6.60534ZM 3.57781 16.6354L 3.41444 16.6354L 0.522785 17.8607L 0.522785 18.8573L 2.61392 17.9914L 2.61392 25L 3.57781 25L 3.57781 16.6354ZM 11.1518 24.1015L 7.54129 24.1015C 7.31258 24.1015 7.16554 24.1015 7.00217 24.1668L 6.95316 24.0688C 7.11245 23.9953 7.19822 23.9095 7.333 23.7706L 9.30569 21.7489C 10.1675 20.8626 10.9394 19.8538 10.9394 18.89C 10.9394 17.5176 9.89383 16.5211 8.36223 16.5211C 6.56107 16.5211 5.84224 17.8934 5.84224 19.2494L 6.8388 19.2494C 6.8388 18.2855 7.19822 17.3543 8.32956 17.3543C 9.33837 17.3543 9.95917 18.0894 9.95917 18.9185C 9.95917 19.6415 9.4854 20.1969 8.47251 21.2425L 5.53184 24.2648L 5.53184 25L 11.1518 25L 11.1518 24.1015ZM 14.3025 21.2261L 14.7763 21.2261C 15.7892 21.2261 16.5243 21.7326 16.5243 22.7292C 16.5243 23.742 15.7728 24.2485 14.8416 24.2485C 13.9104 24.2485 13.3876 23.742 13.3876 22.9089L 12.3421 22.9089C 12.3421 24.3465 13.3876 25.1144 14.858 25.1144C 16.3446 25.1144 17.5862 24.2322 17.5862 22.7373C 17.5862 21.9899 17.2799 21.0955 16.1731 20.7197C 17.0553 20.2909 17.4065 19.4332 17.4065 18.8409C 17.4065 17.3216 16.3446 16.5211 14.8947 16.5211C 13.2896 16.5211 12.4237 17.5013 12.4237 18.7266L 13.3876 18.7266C 13.3876 17.9097 13.9758 17.3216 14.8825 17.3216C 15.7728 17.3216 16.41 17.8934 16.41 18.8246C 16.41 19.6251 15.8218 20.2949 14.7763 20.2949L 14.3025 20.2949L 14.3025 21.2261ZM 24.4945 22.5331L 23.3509 22.5331L 23.3509 16.6354L 22.289 16.6354L 18.5151 22.7945L 18.5151 23.4316L 22.4523 23.4316L 22.4523 25L 23.3509 25L 23.3509 23.4316L 24.4945 23.4316L 24.4945 22.5331ZM 19.7731 22.5331L 22.289 18.3182L 22.4523 17.7749L 22.4523 22.5331L 19.7731 22.5331ZM 26.4689 21.1363C 26.8447 20.8259 27.3021 20.6094 28.07 20.6094C 28.9399 20.6094 29.818 21.1363 29.818 22.4024C 29.818 23.5501 28.9603 24.2526 28.0005 24.2526C 27.1632 24.2526 26.5669 23.8074 26.3954 22.9089L 25.4152 22.9089C 25.5622 24.4445 26.616 25.1144 27.9393 25.1144C 29.7363 25.1144 30.7778 23.9953 30.7778 22.3902C 30.7778 20.7605 29.7037 19.6986 28.07 19.6986C 27.4982 19.6986 26.9182 19.9314 26.62 20.1887L 26.5629 20.1887L 26.91 17.5993L 30.4061 17.5993L 30.4061 16.6354L 25.9952 16.6354L 25.505 20.9157L 26.4689 21.1363ZM 36.3015 18.7266L 37.2654 18.7266C 36.9672 17.3053 36.2157 16.5211 34.8352 16.5211C 32.9769 16.5211 32.0212 18.1425 32.0212 20.7279L 32.0212 21.0056C 32.0212 23.6849 32.8625 25.1144 34.7413 25.1144C 36.4485 25.1144 37.3961 23.9054 37.3961 22.3697C 37.3961 21.0301 36.6486 19.7395 34.9578 19.7395C 34.2798 19.7395 33.5324 19.9641 33.0177 20.5318C 33.0749 17.9955 34.0184 17.4196 34.8475 17.4196C 35.8318 17.4196 36.1095 18.1548 36.3015 18.7266ZM 34.8557 20.638C 36.0115 20.638 36.4322 21.4712 36.4322 22.4187C 36.4322 23.497 35.7297 24.2322 34.823 24.2322C 33.9285 24.2322 33.1158 23.6236 33.0994 22.3738C 33.1158 21.3119 33.8959 20.638 34.8557 20.638ZM 43.5691 16.6354L 38.3413 16.6354L 38.3413 17.583L 42.5889 17.583L 39.1255 25L 40.2364 25L 43.5691 17.681L 43.5691 16.6354ZM 49.7432 22.6311C 49.7432 21.7448 49.2041 20.9525 48.375 20.54C 49.0857 20.1642 49.5472 19.4781 49.5472 18.6939C 49.5472 17.2726 48.5016 16.5211 47.1048 16.5211C 45.708 16.5211 44.6461 17.2726 44.6461 18.6939C 44.6461 19.4781 45.0953 20.1602 45.7978 20.5359C 44.9769 20.9484 44.45 21.7448 44.45 22.6311C 44.45 24.1341 45.6263 25.1144 47.1048 25.1144C 48.5833 25.1144 49.7432 24.1341 49.7432 22.6311ZM 48.5996 18.7347C 48.5996 19.5434 47.8808 20.1316 47.1048 20.1316C 46.3288 20.1316 45.5936 19.5434 45.5936 18.7102C 45.5936 17.8771 46.3288 17.3869 47.0844 17.3869C 47.8808 17.3869 48.5996 17.9261 48.5996 18.7347ZM 48.7467 22.6352C 48.7467 23.5133 48.0442 24.2648 47.113 24.2648C 46.1818 24.2648 45.4302 23.5133 45.4302 22.6148C 45.4302 21.7163 46.1818 20.9484 47.0803 20.9484C 47.9788 20.9484 48.7467 21.7163 48.7467 22.6352ZM 52.0117 22.917L 51.0479 22.917C 51.346 24.3384 52.0975 25.1225 53.478 25.1225C 55.3363 25.1225 56.292 23.5011 56.292 20.9157L 56.292 20.638C 56.292 17.9587 55.4507 16.5293 53.5719 16.5293C 51.8647 16.5293 50.9172 17.7382 50.9172 19.2739C 50.9172 20.6135 51.6646 21.9041 53.3555 21.9041C 54.0335 21.9041 54.7809 21.6795 55.2955 21.1118C 55.2383 23.6481 54.2948 24.224 53.4657 24.224C 52.4814 24.224 52.2037 23.4888 52.0117 22.917ZM 51.881 19.2249C 51.881 18.1466 52.5835 17.4115 53.4902 17.4115C 54.3847 17.4115 55.1975 18.02 55.2138 19.2698C 55.1975 20.3317 54.4174 21.0056 53.4576 21.0056C 52.3017 21.0056 51.881 20.1724 51.881 19.2249ZM 63.0206 20.0826C 63.0206 17.632 61.8606 16.5211 60.2351 16.5211C 58.6096 16.5211 57.4333 17.632 57.4333 20.0826L 57.4333 21.4059C 57.4333 23.8727 58.6259 25.1144 60.2514 25.1144C 61.877 25.1144 63.0206 23.8727 63.0206 21.4059L 63.0206 20.0826ZM 62.0077 21.5856C 62.0077 23.1539 61.2562 24.2158 60.2514 24.2158C 59.2467 24.2158 58.4462 23.1539 58.4462 21.5856L 58.4462 19.9028C 58.4462 18.3182 59.2304 17.4196 60.2351 17.4196C 61.2398 17.4196 62.0077 18.3182 62.0077 19.9028L 62.0077 21.5856Z"/>
<path id="path2_fill" d="M 1.72764 11L 2.37704 8.94562L 5.30953 8.94562L 5.95485 11L 7.38434 11L 4.53761 2.63544L 3.14896 2.63544L 0.302235 11L 1.72764 11ZM 3.79427 4.47336L 3.90047 4.47336L 4.95829 7.83062L 2.73237 7.83062L 3.79427 4.47336ZM 11.7348 11L 12.9642 11L 12.9642 7.01785C 12.9642 5.35147 11.8287 4.6449 10.5054 4.6449C 9.3496 4.6449 8.23051 5.19627 7.95687 6.33578L 9.16172 6.55633C 9.40678 5.862 9.94182 5.66188 10.4605 5.66188C 11.1753 5.66188 11.7021 5.98862 11.7021 7.06686L 11.7021 7.2629L 11.1508 7.28741C 9.08821 7.37318 7.85476 7.74893 7.85476 9.32545C 7.85476 10.4282 8.76555 11.1348 10.0439 11.1348C 10.8567 11.1348 11.4121 10.7018 11.6858 10.3016L 11.7348 10.3016L 11.7348 11ZM 11.7021 8.1982L 11.7021 8.97421C 11.6572 9.42756 11.0936 10.0974 10.2767 10.0974C 9.5048 10.0974 9.1168 9.7543 9.1168 9.20701C 9.1168 8.35749 10.2236 8.23904 11.1548 8.21045L 11.7021 8.1982ZM 17.1747 10.9877C 18.9391 10.9877 20.0705 10.1546 20.0705 8.5862C 20.0705 7.71217 19.5722 6.97701 18.6042 6.75237C 19.3843 6.39296 19.8009 5.67821 19.8009 4.9022C 19.8009 3.58707 18.7472 2.63544 16.9705 2.63544L 14.1687 2.63544L 14.1687 10.9877L 17.1747 10.9877ZM 15.4839 3.76678L 16.9705 3.76678C 17.9875 3.76678 18.4858 4.35491 18.4858 4.98389C 18.4858 5.65779 17.9548 6.17241 17.1788 6.24592L 15.5737 6.25409L 15.4839 6.25409L 15.4839 3.76678ZM 18.7717 8.57395C 18.7717 9.41122 18.0978 9.86049 17.1747 9.86049L 15.4839 9.86049L 15.4839 7.29558L 17.2319 7.29558C 18.1958 7.29558 18.7717 7.74485 18.7717 8.57395ZM 26.4774 7.83062C 26.4774 5.9682 25.5462 4.6449 24.0554 4.6449C 23.3162 4.6449 22.7893 4.95122 22.4135 5.44541L 22.4135 2.63544L 21.1515 2.63544L 21.1515 11L 22.2665 11L 22.3441 10.2281C 22.7239 10.7672 23.2753 11.1144 24.0718 11.1144C 25.5339 11.1144 26.4774 9.7298 26.4774 7.83062ZM 25.2031 7.83062C 25.2031 9.03956 24.7171 10.0239 23.7532 10.0239C 22.8342 10.0239 22.3931 9.14166 22.3196 8.44326C 22.2665 8.18186 22.2665 7.6795 22.3196 7.38543C 22.3727 6.63393 22.7811 5.77215 23.7042 5.77215C 24.7416 5.77215 25.2031 6.72787 25.2031 7.83062ZM 32.5728 8.60254C 32.4299 9.33771 31.9194 9.93401 30.8084 9.93401C 29.4892 9.93401 28.7296 8.61479 28.7296 6.81364C 28.7296 4.93079 29.5015 3.66876 30.8084 3.66876C 31.8785 3.66876 32.4544 4.24055 32.581 5.04924L 33.986 5.04924C 33.7736 3.62383 32.728 2.52108 30.7676 2.52108C 28.6846 2.52108 27.4226 4.23647 27.4226 6.81364C 27.4226 9.42348 28.7663 11.1144 30.7758 11.1144C 32.6464 11.1144 33.7818 10.0239 33.9656 8.60254L 32.5728 8.60254ZM 40.2173 6.79322C 40.1029 5.61287 39.1186 4.6449 37.6279 4.6449C 35.8675 4.6449 34.7934 5.99679 34.7934 7.86737C 34.7934 9.77881 35.8798 11.1266 37.636 11.1266C 39.0818 11.1266 40.1029 10.2648 40.2173 9.0273L 38.9961 9.0273C 38.8695 9.62769 38.3875 10.0361 37.6238 10.0361C 36.6476 10.0361 36.0432 9.15392 36.0432 7.86737C 36.0432 6.63801 36.6272 5.72722 37.6279 5.72722C 38.4447 5.72722 38.8735 6.22959 38.9961 6.79322L 40.2173 6.79322ZM 3.97807 16.6069L 3.8147 16.6069L 0.518701 17.9179L 0.518701 19.0819L 2.68744 18.2365L 2.68744 25L 3.97807 25L 3.97807 16.6069ZM 11.4509 23.8687L 8.08961 23.8687C 7.88539 23.8687 7.76695 23.8687 7.60358 23.934L 7.55865 23.8401C 7.72202 23.7706 7.79554 23.7012 7.92215 23.5705L 9.50276 21.9368C 10.4626 20.928 11.2304 19.9519 11.2304 18.9063C 11.2304 17.485 10.2216 16.5211 8.60014 16.5211C 6.82349 16.5211 5.95354 17.8607 5.95354 19.278L 7.236 19.278C 7.236 18.3958 7.60358 17.583 8.57155 17.583C 9.43741 17.583 9.9602 18.1997 9.9602 18.988C 9.9602 19.6088 9.57219 20.1724 8.64507 21.1281L 5.78609 24.0402L 5.78609 25L 11.4509 25L 11.4509 23.8687ZM 14.4465 21.3568L 15.0673 21.3568C 15.9944 21.3568 16.6356 21.7653 16.6356 22.7046C 16.6356 23.5583 15.9985 24.0361 15.1408 24.0361C 14.3239 24.0361 13.8134 23.5705 13.8134 22.8476L 12.4983 22.8476C 12.4983 24.3629 13.699 25.1144 15.1285 25.1144C 16.6928 25.1144 17.9548 24.2322 17.9548 22.721C 17.9548 21.8919 17.5587 21.0914 16.5294 20.7401C 17.3871 20.3276 17.7915 19.5067 17.7915 18.845C 17.7915 17.3257 16.6928 16.5211 15.153 16.5211C 13.5929 16.5211 12.5922 17.4482 12.5922 18.7307L 13.8502 18.7307C 13.8502 18.0363 14.4015 17.5544 15.1653 17.5544C 15.9862 17.5544 16.5131 18.0772 16.5131 18.8532C 16.5131 19.5965 16.0067 20.2051 15.0673 20.2051L 14.4465 20.2051L 14.4465 21.3568ZM 24.8998 22.2758L 23.7236 22.2758L 23.7236 16.6354L 22.3758 16.6354L 18.7571 22.5535L 18.7571 23.4071L 22.5514 23.4071L 22.5514 25L 23.7236 25L 23.7236 23.4071L 24.8998 23.4071L 24.8998 22.2758ZM 20.2315 22.2758L 22.3758 18.6612L 22.5514 18.2528L 22.5514 22.2758L 20.2315 22.2758ZM 27.0458 21.1771C 27.344 20.9076 27.7442 20.687 28.4386 20.687C 29.3003 20.687 30.0028 21.2425 30.0028 22.3452C 30.0028 23.354 29.3616 24.0402 28.4631 24.0402C 27.7116 24.0402 27.1929 23.6195 27.0662 22.8272L 25.792 22.8272C 25.89 24.3547 27.0662 25.1144 28.4304 25.1144C 30.2724 25.1144 31.2567 23.9177 31.2567 22.382C 31.2567 20.7074 30.1866 19.6374 28.6469 19.6374C 28.022 19.6374 27.5155 19.8824 27.2664 20.1234L 27.2215 20.1234L 27.5155 17.8117L 30.9259 17.8117L 30.9259 16.6354L 26.4046 16.6354L 25.9145 20.9117L 27.0458 21.1771ZM 36.5271 18.7838L 37.7647 18.7838C 37.4747 17.3829 36.6946 16.5211 35.2243 16.5211C 33.2148 16.5211 32.3408 18.2446 32.3489 20.8667L 32.3489 21.1567C 32.3489 23.7257 33.3292 25.1144 35.1589 25.1144C 36.8539 25.1144 37.8627 23.9013 37.8627 22.3411C 37.8627 20.9157 37.103 19.6496 35.4775 19.6496C 34.7791 19.6496 34.1011 19.9069 33.6355 20.4052C 33.7049 18.3263 34.4442 17.632 35.2283 17.632C 36.0738 17.632 36.3352 18.1915 36.5271 18.7838ZM 35.1998 20.7401C 36.1841 20.7401 36.6129 21.4671 36.6129 22.3738C 36.6129 23.35 36.0084 24.0279 35.1957 24.0279C 34.3666 24.0279 33.6886 23.4562 33.6845 22.2554C 33.6845 21.3813 34.3135 20.7401 35.1998 20.7401ZM 44.191 16.6354L 38.7793 16.6354L 38.7793 17.7995L 42.8391 17.7995L 39.588 25L 40.9767 25L 44.191 17.6688L 44.191 16.6354ZM 50.3814 22.6556C 50.3814 21.753 49.8627 20.9974 49.0499 20.5972C 49.7524 20.2173 50.1976 19.5475 50.1976 18.7552C 50.1976 17.2971 49.1316 16.5211 47.6776 16.5211C 46.2318 16.5211 45.1535 17.2971 45.1535 18.7552C 45.1535 19.5475 45.5906 20.2133 46.289 20.5931C 45.4803 20.9933 44.9616 21.7489 44.9616 22.6556C 44.9616 24.1913 46.1542 25.1144 47.6817 25.1144C 49.2092 25.1144 50.3814 24.1913 50.3814 22.6556ZM 48.9437 18.8164C 48.9437 19.5557 48.3801 20.0744 47.6817 20.0744C 46.9833 20.0744 46.4033 19.5557 46.4033 18.8001C 46.4033 18.0486 46.9833 17.6116 47.6654 17.6116C 48.376 17.6116 48.9437 18.0854 48.9437 18.8164ZM 49.0989 22.6066C 49.0989 23.4112 48.5026 24.0361 47.6858 24.0361C 46.8689 24.0361 46.2318 23.4112 46.2318 22.5903C 46.2318 21.7694 46.8689 21.124 47.6613 21.124C 48.4577 21.124 49.0989 21.7694 49.0989 22.6066ZM 52.9082 22.868L 51.6666 22.868C 51.9566 24.2648 52.7367 25.1266 54.207 25.1266C 56.2083 25.0817 57.0823 23.3908 57.0823 20.7728L 57.0823 20.4787C 57.0823 17.9138 56.1021 16.5252 54.2724 16.5252C 52.5774 16.5252 51.5563 17.7423 51.5563 19.2984C 51.5563 20.7238 52.3283 21.994 53.9538 21.994C 54.6522 21.994 55.3302 21.7367 55.7958 21.2343C 55.7264 23.3091 54.9912 24.0157 54.207 24.0198C 53.3575 24.0198 53.1002 23.4562 52.9082 22.868ZM 52.8184 19.2657C 52.8184 18.2937 53.4269 17.6157 54.2356 17.6157C 55.0688 17.6157 55.7427 18.1834 55.7468 19.3801C 55.7468 20.2582 55.1178 20.8994 54.2315 20.8994C 53.2472 20.8994 52.8184 20.1765 52.8184 19.2657ZM 63.8681 20.0826C 63.8681 17.6728 62.6714 16.5211 61.0172 16.5211C 59.3672 16.5211 58.1583 17.6728 58.1583 20.0826L 58.1583 21.4304C 58.1583 23.8973 59.3713 25.1144 61.0295 25.1144C 62.6795 25.1144 63.8681 23.8973 63.8681 21.4304L 63.8681 20.0826ZM 62.5652 21.6305C 62.5652 23.1376 61.9035 23.9871 61.0295 23.9871C 60.1473 23.9871 59.4611 23.1376 59.4611 21.6305L 59.4611 19.8783C 59.4611 18.408 60.135 17.6443 61.0172 17.6443C 61.8994 17.6443 62.5652 18.408 62.5652 19.8783L 62.5652 21.6305Z"/>
<path id="path3_fill" d="M 2.06255 11L 2.63435 9.10082L 5.3708 9.10082L 5.93851 11L 7.66207 11L 4.83984 2.63544L 3.15713 2.63544L 0.334909 11L 2.06255 11ZM 3.94948 4.71841L 4.05567 4.71841L 4.97871 7.79794L 3.02643 7.79794L 3.94948 4.71841ZM 11.8502 11L 13.3001 11L 13.3001 6.928C 13.3001 5.35964 12.1973 4.6449 10.825 4.6449C 9.46498 4.6449 8.37857 5.33514 8.22745 6.46647L 9.7182 6.589C 9.8489 6.00904 10.2614 5.80074 10.7556 5.80074C 11.3968 5.80074 11.7848 6.12748 11.7848 6.94433L 11.7848 7.20573L 11.1926 7.24657C 9.20359 7.35684 8.11717 7.87963 8.11717 9.30912C 8.11717 10.3955 9.03613 11.1266 10.241 11.1266C 11.0456 11.1266 11.5357 10.7427 11.8012 10.3751L 11.8502 10.3751L 11.8502 11ZM 11.7848 8.24721L 11.7848 9.1049C 11.6991 9.4684 11.2335 9.94218 10.5636 9.94218C 9.96326 9.94218 9.63243 9.64811 9.63243 9.19884C 9.63243 8.52902 10.3553 8.27172 11.2049 8.2513L 11.7848 8.24721ZM 17.4903 10.9796C 19.3527 10.9796 20.4432 10.1464 20.4432 8.54536C 20.4432 7.72443 20.0143 6.96884 19.0423 6.73604C 19.8469 6.39296 20.2226 5.68638 20.2226 4.92671C 20.2226 3.49722 19.1035 2.63544 17.237 2.63544L 14.3862 2.63544L 14.3862 10.9796L 17.4903 10.9796ZM 15.9627 3.97099L 17.237 3.97099C 18.1968 3.97099 18.6461 4.41209 18.6461 5.07374C 18.6461 5.71906 18.1846 6.1479 17.3636 6.18466L 15.9627 6.18875L 15.9627 3.97099ZM 18.883 8.52494C 18.883 9.22335 18.3643 9.65628 17.4903 9.65628L 15.9627 9.65628L 15.9627 7.35276L 17.5474 7.35276C 18.4296 7.35276 18.883 7.78569 18.883 8.52494ZM 26.7684 7.81428C 26.7684 5.93552 25.8862 4.6449 24.3709 4.6449C 23.697 4.6449 23.2028 4.91446 22.8434 5.36373L 22.8434 2.63544L 21.3282 2.63544L 21.3282 11L 22.68 11L 22.7454 10.2607C 23.1171 10.7835 23.6439 11.1144 24.3873 11.1144C 25.8821 11.1144 26.7684 9.73796 26.7684 7.81428ZM 25.249 7.81428C 25.249 8.95787 24.8692 9.83599 24.0033 9.83599C 23.1252 9.83599 22.7495 9.08448 22.7086 8.31256C 22.68 8.13285 22.68 7.73668 22.7086 7.5243C 22.7372 6.6421 23.0966 5.93552 23.9707 5.93552C 24.8774 5.93552 25.249 6.77688 25.249 7.81428ZM 32.678 8.39833C 32.5596 9.19884 32.1062 9.74613 31.0933 9.74613C 29.8803 9.74613 29.2187 8.61479 29.2187 6.80547C 29.2187 4.96347 29.8844 3.87297 31.0933 3.87297C 32.0817 3.87297 32.5841 4.42843 32.6862 5.26979L 34.3036 5.26979C 34.1238 3.70552 33.0456 2.52108 31.0198 2.52108C 28.9368 2.52108 27.634 4.17112 27.634 6.80547C 27.634 9.48882 28.9532 11.1144 31.028 11.1144C 32.9639 11.1144 34.1483 9.96668 34.2913 8.39833L 32.678 8.39833ZM 40.497 6.95659C 40.4154 5.68638 39.3575 4.6449 37.8586 4.6449C 36.0411 4.6449 34.9751 6.00495 34.9751 7.87554C 34.9751 9.77064 36.0452 11.1184 37.8668 11.1184C 39.3126 11.1184 40.4154 10.2485 40.497 8.90478L 39.0553 8.90478C 38.9695 9.43165 38.5693 9.84007 37.8464 9.84007C 36.9274 9.84007 36.47 9.02322 36.47 7.87554C 36.47 6.76871 36.9151 5.9151 37.8423 5.9151C 38.6101 5.9151 38.9654 6.42563 39.0553 6.95659L 40.497 6.95659ZM 4.32114 16.5823L 4.15777 16.5823L 0.510532 17.9669L 0.510532 19.2698L 2.75279 18.4489L 2.75279 25L 4.32114 25L 4.32114 16.5823ZM 11.697 23.6644L 8.55623 23.6644C 8.36836 23.6644 8.27442 23.6644 8.11105 23.7298L 8.07429 23.644C 8.23358 23.5746 8.29484 23.5256 8.41737 23.4031L 9.65898 22.1002C 10.7046 20.9811 11.4765 20.0335 11.4765 18.9226C 11.4765 17.4523 10.4922 16.5211 8.7972 16.5211C 7.04506 16.5211 6.03625 17.828 6.03625 19.3025L 7.56376 19.3025C 7.56376 18.4856 7.94768 17.779 8.76861 17.779C 9.51195 17.779 9.95305 18.2896 9.95305 19.0492C 9.95305 19.5761 9.63856 20.1561 8.78495 21.0301L 5.99132 23.8523L 5.99132 25L 11.697 25L 11.697 23.6644ZM 14.5618 21.4712L 15.3133 21.4712C 16.167 21.4712 16.7183 21.7979 16.7183 22.6883C 16.7183 23.4031 16.1792 23.8564 15.3869 23.8564C 14.668 23.8564 14.1657 23.4235 14.1657 22.7904L 12.6218 22.7904C 12.6218 24.3792 13.9533 25.1144 15.3501 25.1144C 16.9879 25.1144 18.2581 24.2322 18.2581 22.7087C 18.2581 21.8102 17.7925 21.0791 16.8164 20.7565C 17.6618 20.3562 18.1111 19.572 18.1111 18.8532C 18.1111 17.3338 16.9879 16.5211 15.3624 16.5211C 13.8471 16.5211 12.7239 17.4074 12.7239 18.7388L 14.2433 18.7388C 14.2433 18.1425 14.7538 17.7586 15.4032 17.7586C 16.1588 17.7586 16.5958 18.2324 16.5958 18.8777C 16.5958 19.572 16.1547 20.1234 15.3133 20.1234L 14.5618 20.1234L 14.5618 21.4712ZM 25.2439 22.0553L 24.035 22.0553L 24.035 16.6354L 22.4421 16.6354L 18.9542 22.3493L 18.9542 23.3908L 22.6259 23.3908L 22.6259 25L 24.035 25L 24.035 23.3908L 25.2439 23.3908L 25.2439 22.0553ZM 20.6165 22.0553L 22.4421 18.9553L 22.6259 18.5959L 22.6259 22.0553L 20.6165 22.0553ZM 27.5308 21.2139C 27.7718 20.9811 28.123 20.7565 28.752 20.7565C 29.6097 20.7565 30.1611 21.3323 30.1611 22.2962C 30.1611 23.1866 29.6996 23.8564 28.8541 23.8564C 28.1802 23.8564 27.7269 23.4562 27.6329 22.7618L 26.1136 22.7618C 26.1626 24.273 27.4451 25.1144 28.8419 25.1144C 30.7247 25.1144 31.6641 23.8523 31.6641 22.3779C 31.6641 20.6584 30.5981 19.5884 29.1319 19.5884C 28.4661 19.5884 28.0209 19.8375 27.8208 20.0662L 27.7759 20.0662L 28.025 17.9914L 31.3619 17.9914L 31.3619 16.6354L 26.7507 16.6354L 26.2606 20.9035L 27.5308 21.2139ZM 36.7181 18.8328L 38.1884 18.8328C 37.9066 17.4523 37.102 16.5211 35.5541 16.5211C 33.418 16.5211 32.6052 18.3304 32.6297 20.9893L 32.6297 21.2874C 32.6297 23.7625 33.7284 25.1144 35.5132 25.1144C 37.1959 25.1144 38.2578 23.8932 38.2578 22.3166C 38.2578 20.8177 37.4859 19.5679 35.9176 19.5679C 35.2069 19.5679 34.5861 19.8457 34.1613 20.2949C 34.2308 18.5918 34.8066 17.8117 35.55 17.8117C 36.277 17.8117 36.522 18.2283 36.7181 18.8328ZM 34.1818 22.1778L 34.1818 22.1369C 34.1818 21.4304 34.6719 20.83 35.4887 20.83C 36.3301 20.83 36.763 21.4589 36.763 22.333C 36.763 23.2193 36.2402 23.8482 35.5091 23.8482C 34.7372 23.8482 34.1818 23.3132 34.1818 22.1778ZM 44.7168 16.6354L 39.15 16.6354L 39.15 17.9873L 43.0464 17.9873L 39.975 25L 41.6087 25L 44.7168 17.6606L 44.7168 16.6354ZM 50.9389 22.672C 50.9389 21.7612 50.4365 21.0342 49.6442 20.6421C 50.3344 20.2663 50.7633 19.6088 50.7633 18.8124C 50.7633 17.3134 49.6891 16.5211 48.1779 16.5211C 46.6913 16.5211 45.5967 17.3134 45.5967 18.8124C 45.5967 19.6047 46.0255 20.2623 46.7158 20.638C 45.9234 21.0301 45.4129 21.7571 45.4129 22.672C 45.4129 24.2403 46.6218 25.1144 48.1902 25.1144C 49.7585 25.1144 50.9389 24.2403 50.9389 22.672ZM 49.2562 18.89C 49.2562 19.5639 48.8232 20.0254 48.1902 20.0254C 47.5571 20.0254 47.1079 19.5639 47.1079 18.8818C 47.1079 18.1956 47.5571 17.7995 48.1739 17.7995C 48.811 17.7995 49.2562 18.2242 49.2562 18.89ZM 49.4114 22.578C 49.4114 23.3214 48.9131 23.8401 48.1943 23.8401C 47.4754 23.8401 46.9363 23.3214 46.9363 22.574C 46.9363 21.8102 47.4754 21.2792 48.1698 21.2792C 48.8763 21.2792 49.4114 21.8102 49.4114 22.578ZM 53.6924 22.8231L 52.2139 22.8231C 52.4998 24.2036 53.3003 25.1348 54.8483 25.1348C 56.9721 25.049 57.7767 23.2969 57.7767 20.6503L 57.7767 20.3399C 57.7767 17.873 56.678 16.5252 54.8932 16.5252C 53.2105 16.5252 52.1281 17.7423 52.1281 19.3229C 52.1281 20.8218 52.9205 22.0675 54.4888 22.0675C 55.1954 22.0675 55.8121 21.7939 56.241 21.3487C 56.1634 23.0396 55.5998 23.8401 54.8605 23.8442C 54.1294 23.8482 53.8844 23.4276 53.6924 22.8231ZM 53.6434 19.3025C 53.6434 18.4162 54.1662 17.7872 54.8973 17.7872C 55.6692 17.7872 56.2206 18.3222 56.2206 19.4617L 56.2206 19.5026C 56.2206 20.2092 55.7345 20.8096 54.9177 20.8096C 54.0763 20.8096 53.6434 20.1765 53.6434 19.3025ZM 64.6216 20.0826C 64.6216 17.7055 63.3841 16.5211 61.7136 16.5211C 60.0391 16.5211 58.7975 17.7055 58.7975 20.0826L 58.7975 21.4467C 58.7975 23.9136 60.035 25.1144 61.7177 25.1144C 63.3922 25.1144 64.6216 23.9136 64.6216 21.4467L 64.6216 20.0826ZM 63.0655 21.6713C 63.0655 23.1212 62.4855 23.7911 61.7177 23.7911C 60.9417 23.7911 60.3536 23.1212 60.3536 21.6713L 60.3536 19.862C 60.3536 18.4897 60.9376 17.8321 61.7136 17.8321C 62.4896 17.8321 63.0655 18.4897 63.0655 19.862L 63.0655 21.6713Z"/>
<path id="path4_fill" d="M 14.9116 33L 18.2444 33L 18.2444 32.7917L 14.6788 22.5361C 17.7175 21.3966 19.9965 18.9828 20.3641 15.6623C 20.891 10.847 17.742 7.97984 13.0737 7.90633L 5.44023 7.90633L 1.0905 33L 4.05567 33L 5.7588 23.2468L 11.6524 23.2468L 14.9116 33ZM 7.95205 10.6019L 12.9634 10.6142C 16.1982 10.6755 17.84 12.3786 17.3622 15.6378C 16.9088 18.7255 13.8211 20.5757 10.8927 20.5634L 6.22441 20.5512L 7.95205 10.6019ZM 29.4364 33.3921C 32.5486 33.4411 35.6363 32.0565 36.9964 29.1404L 34.4968 27.9764C 33.4553 29.802 31.6787 30.8558 29.5589 30.7945C 26.2752 30.721 24.9764 27.7313 25.148 24.8151L 38.2094 24.8151L 38.3809 23.5899C 38.9691 18.7255 37.3885 13.996 31.8257 13.9224C 26.3977 13.8612 22.9792 18.6888 22.4156 23.6634C 21.852 28.5277 23.9839 33.3186 29.4364 33.3921ZM 31.7522 16.52C 35.1095 16.5935 36.2735 19.3014 35.8201 22.3156L 25.4298 22.3278C 26.3732 19.4484 28.3459 16.4465 31.7522 16.52ZM 41.2503 23.8717C 40.7602 27.8783 42.2673 32.6079 46.9968 32.7059C 49.3739 32.7549 51.4078 31.8482 52.8782 29.9858L 52.3023 32.7672C 51.7509 35.8917 49.2759 37.5458 46.1759 37.46C 44.1297 37.3987 42.7941 36.5288 41.6301 34.9482L 39.3879 36.6268C 40.9317 38.9548 43.272 40.0208 46.0534 40.0576C 50.2806 40.1189 54.3853 37.8276 55.0347 33.3921L 58.3062 14.2778L 55.488 14.2778L 54.9121 17.1082C 53.9319 15.0865 52.1063 13.9837 49.8762 13.9347C 44.7301 13.8244 41.9119 19.0809 41.2993 23.5286L 41.2503 23.8717ZM 44.2155 23.5286C 44.7178 20.2816 46.7763 16.5813 50.5379 16.7283C 53.0742 16.8386 54.0789 19.4852 54.0789 21.6784C 54.0789 23.0508 53.8706 24.4721 53.3928 25.7586C 52.5228 28.0621 50.4766 30.1941 47.8545 30.1206C 44.5095 30.0348 43.7989 26.6041 44.1665 23.8717L 44.2155 23.5286ZM 72.8555 25.5503C 72.4021 28.3562 70.1231 30.5617 67.1947 30.4514C 64.7441 30.3657 63.7884 28.4052 64.0702 26.1507L 66.1164 14.1797L 63.286 14.1797L 61.2521 26.1384C 60.86 29.3732 62.3793 33.147 66.1042 33.2573C 68.469 33.3308 70.5029 32.1668 71.9488 30.3411L 72.0835 30.3411L 71.5199 33L 74.3503 33L 77.6218 14.1797L 74.7914 14.1797L 72.8555 25.5503ZM 86.7799 7.90633L 83.9495 7.90633L 79.5998 33L 82.4301 33L 86.7799 7.90633ZM 98.3916 33L 101.124 33L 103.109 21.3844C 103.599 17.2552 101.455 14.0205 97.1418 13.9347C 93.8703 13.8734 90.6233 15.4418 89.2755 18.5172L 91.8118 19.5587C 92.9268 17.6228 94.6912 16.3975 96.9703 16.471C 99.9844 16.569 100.646 18.9216 100.205 21.6049L 100.131 21.9848L 98.5631 22.0215C 93.9928 22.1318 87.8419 22.2911 87.4008 28.1357C 87.1313 31.6522 90.0107 33.4166 93.2209 33.4534C 95.4387 33.4779 97.3623 32.3138 98.7224 30.6352L 98.8082 30.6352L 98.3916 33ZM 99.7884 24.4353L 99.4331 26.4815C 98.9307 28.9321 96.1738 30.8925 93.7478 30.868C 91.7751 30.8435 89.9617 29.9858 90.268 27.7558C 90.7581 24.2148 95.9043 24.5701 98.5019 24.4721L 99.7884 24.4353ZM 117.811 13.9714C 117.321 13.8857 116.819 13.8489 116.317 13.8489C 114.025 13.8489 111.942 15.3928 110.974 17.4267L 110.827 17.4267L 111.489 14.1797L 108.659 14.1797L 105.399 33L 108.217 33L 110.092 22.2176C 110.631 19.4117 113.045 16.8263 116.022 16.8386C 116.5 16.8508 116.99 16.8876 117.456 16.9734L 117.811 13.9714ZM 134.011 7.90633L 131.046 7.90633L 126.696 33L 129.661 33L 134.011 7.90633ZM 146.064 14.1797L 142.167 14.1797L 142.866 10.1608L 140.035 10.1608L 139.337 14.1797L 136.396 14.1797L 135.918 16.8754L 138.871 16.8754L 136.948 28.393C 136.715 31.0396 138.577 33.049 141.212 33.1225C 141.8 33.147 142.388 33.1348 142.951 32.9632L 143.233 30.3044C 142.853 30.3411 142.474 30.3779 142.082 30.3779C 140.317 30.3657 139.692 29.3487 139.888 27.621L 141.702 16.8754L 145.598 16.8754L 146.064 14.1797ZM 157.243 33L 159.976 33L 161.961 21.3844C 162.451 17.2552 160.307 14.0205 155.994 13.9347C 152.722 13.8734 149.475 15.4418 148.127 18.5172L 150.664 19.5587C 151.779 17.6228 153.543 16.3975 155.822 16.471C 158.836 16.569 159.498 18.9216 159.057 21.6049L 158.983 21.9848L 157.415 22.0215C 152.845 22.1318 146.694 22.2911 146.253 28.1357C 145.983 31.6522 148.863 33.4166 152.073 33.4534C 154.291 33.4779 156.214 32.3138 157.574 30.6352L 157.66 30.6352L 157.243 33ZM 158.64 24.4353L 158.285 26.4815C 157.783 28.9321 155.026 30.8925 152.6 30.868C 150.627 30.8435 148.814 29.9858 149.12 27.7558C 149.61 24.2148 154.756 24.5701 157.354 24.4721L 158.64 24.4353ZM 171.713 7.90633L 168.883 7.90633L 164.533 33L 167.363 33L 171.713 7.90633ZM 176.39 9.5482C 176.402 10.6632 177.26 11.4719 178.362 11.4474C 179.514 11.4351 180.409 10.5529 180.384 9.38891C 180.36 8.32292 179.477 7.48973 178.411 7.50199C 177.296 7.51424 176.378 8.42094 176.39 9.5482ZM 178.963 14.1797L 176.145 14.1797L 172.873 33L 175.704 33L 178.963 14.1797ZM 197.62 19.8405C 197.216 16.2015 194.569 13.996 190.942 13.9347C 185.502 13.8489 182.096 18.6765 181.52 23.6634C 180.993 28.3317 182.941 33.3063 188.271 33.3921C 191.984 33.4534 195.537 31.2846 196.309 27.5108L 193.478 27.523C 192.621 29.6672 190.685 30.868 188.394 30.8068C 184.73 30.6965 183.995 26.5918 184.362 23.6634C 184.779 20.3061 187.021 16.4343 190.869 16.5323C 192.952 16.5935 194.446 17.7821 194.851 19.8283L 197.62 19.8405Z"/>
<path id="path5_fill" d="M 2.46281 7.90633L 2.46281 33L 6.33468 33L 6.33468 15.0252L 6.53073 15.0252L 12.8777 32.8775L 16.0266 32.8775L 22.4103 15.0497L 22.6186 15.0497L 22.6186 33L 26.4782 33L 26.4782 7.90633L 21.4914 7.90633L 14.6053 26.8491L 14.3112 26.8491L 7.43743 7.90633L 2.46281 7.90633ZM 38.5341 33.3798C 42.2222 33.3798 44.685 31.6399 45.7755 29.4344L 42.9451 27.5965C 42.0629 29.2016 40.7151 30.1083 38.6444 30.1083C 35.8017 30.1083 33.9148 28.1724 33.4982 25.0357L 46.3024 25.0357L 46.3024 23.4183C 46.3024 16.9734 43.0064 13.9347 38.1298 13.9347C 32.8733 13.9347 29.6753 18.0271 29.6753 23.6879C 29.6753 29.2997 32.9836 33.3798 38.5341 33.3798ZM 38.142 17.1817C 41.0214 17.1817 42.651 19.1544 42.651 22.144L 33.5227 22.144C 33.9393 19.1789 35.5934 17.1817 38.142 17.1817ZM 48.1915 23.5286C 48.1915 29.2261 51.0341 33.3431 55.4206 33.3431C 57.9692 33.3431 59.6968 32.1546 60.8486 30.3044L 61.0692 33L 64.4999 33L 64.4999 7.90633L 60.7261 7.90633L 60.7261 16.8508C 59.5743 15.0742 57.8957 13.9347 55.4696 13.9347C 51.0096 13.9347 48.1915 17.9046 48.1915 23.5286ZM 52.0389 23.5286C 52.0389 20.1714 53.4112 17.3165 56.5234 17.3165C 59.2312 17.3165 60.53 19.9385 60.6893 22.1808C 60.8486 23.063 60.8486 24.4966 60.6893 25.3175C 60.4688 27.4372 59.0474 30.0716 56.3763 30.0716C 53.4724 30.0716 52.0389 27.1554 52.0389 23.5286ZM 67.985 9.73199C 67.985 10.994 68.9039 11.962 70.3743 11.962C 71.8323 11.962 72.7758 10.994 72.7758 9.73199C 72.7758 8.53122 71.8323 7.50199 70.3743 7.50199C 68.9039 7.50199 67.985 8.53122 67.985 9.73199ZM 72.2489 14.1797L 68.4751 14.1797L 68.4751 33L 72.2489 33L 72.2489 14.1797ZM 88.0021 25.195C 88.0021 28.3807 85.9681 29.9368 83.9219 29.9368C 81.7532 29.9368 80.2951 28.7238 80.2951 26.1875L 80.2951 14.1797L 76.509 14.1797L 76.509 26.1752C 76.509 31.1008 79.4987 33.2818 82.4761 33.2818C 85.0737 33.2818 86.8871 32.032 87.8673 30.623L 88.0633 30.623L 88.1124 33L 91.7759 33L 91.7759 14.1797L 88.0021 14.1797L 88.0021 25.195ZM 109.866 21.2373C 109.866 18.799 111.214 17.3165 113.407 17.3165C 114.939 17.3165 116.654 18.1006 116.654 20.8207L 116.654 33L 120.44 33L 120.44 20.882C 120.44 15.9932 117.953 13.9347 114.731 13.9347C 112.109 13.9347 110.062 15.4908 109.352 17.0469L 109.156 17.0469C 108.335 15.2457 106.668 13.9347 104.389 13.9347C 102.012 13.9347 100.211 15.4418 99.4882 16.9489L 99.3044 16.9489L 99.3044 14.1797L 95.5673 14.1797L 95.5673 33L 99.3534 33L 99.3534 21.5559C 99.3534 18.8481 101.106 17.3165 102.943 17.3165C 104.855 17.3165 106.117 18.2109 106.117 20.882L 106.117 33L 109.866 33L 109.866 21.2373Z"/>
<path id="path6_fill" d="M 4.97462 7.90633L 0.624891 33L 4.411 33L 7.59672 15.0007L 7.80501 15.0129L 10.8314 32.8775L 13.9191 32.8775L 23.219 15.0129L 23.3905 15.0129L 20.1803 33L 23.9542 33L 28.3039 7.90633L 23.3538 7.90633L 13.3555 26.8736L 13.0737 26.8614L 9.74095 7.90633L 4.97462 7.90633ZM 36.831 33.3798C 39.7226 33.4288 42.9083 32.1913 44.2316 29.4589L 41.5973 27.621C 40.5436 29.2139 38.9875 30.1574 37.0393 30.1083C 34.1966 30.0348 32.9346 27.6455 33.0816 25.0357L 45.4447 25.0357L 45.6652 23.4183C 46.2533 18.603 44.4277 13.9837 38.9997 13.9224C 33.4737 13.8612 30.0674 18.6888 29.5038 23.7614C 28.9524 28.7238 31.4152 33.3063 36.831 33.3798ZM 38.8772 17.1694C 41.7198 17.2552 42.6755 19.6322 42.2467 22.1563L 33.3879 22.1686C 34.3069 19.718 35.9243 17.0959 38.8772 17.1694ZM 48.02 23.6144C 47.5298 27.6455 48.5958 33.2451 53.644 33.3553C 56.07 33.4043 57.9447 32.1913 59.3048 30.2676L 58.8882 33L 62.2332 33L 66.5952 7.90633L 62.8948 7.90633L 61.2284 16.8754C 60.2727 15.0374 58.5818 13.9837 56.4866 13.9347C 51.3037 13.8122 48.5836 19.1421 48.02 23.6144ZM 51.7816 23.6266C 52.1981 20.7227 53.9258 17.1817 57.3443 17.3165C 59.9174 17.4267 60.481 20.0733 60.3952 22.1808C 60.3462 23.259 60.1624 24.2883 59.8316 25.3175C 59.0965 27.6088 57.4423 30.1819 54.7222 30.0961C 51.5242 29.9981 51.4507 25.9424 51.7816 23.6266ZM 70.2027 9.80551C 70.2272 11.1043 71.2565 11.9865 72.5308 11.9742C 73.8418 11.962 74.8955 10.994 74.8465 9.64622C 74.8098 8.38419 73.7683 7.47748 72.5308 7.48973C 71.2197 7.50199 70.166 8.48221 70.2027 9.80551ZM 73.5845 14.1797L 69.8964 14.1797L 66.6372 33L 70.3253 33L 73.5845 14.1797ZM 87.2057 25.195C 86.8013 27.6578 85.0124 30.0471 82.2923 29.9491C 80.0745 29.8755 79.3516 28.2337 79.5967 26.1997L 81.6429 14.1797L 77.9426 14.1797L 75.8963 26.1752C 75.492 29.5202 76.8766 33.196 80.7117 33.2941C 82.9662 33.3553 84.9021 32.3138 86.3112 30.5985L 86.4215 30.5985L 85.9314 33L 89.5214 33L 92.7807 14.1797L 89.0926 14.1797L 87.2057 25.195ZM 109.646 21.2373C 110.013 19.0563 111.52 17.2184 113.885 17.3042C 115.907 17.3777 116.483 19.0073 116.262 20.8085L 114.192 33L 117.892 33L 119.95 20.882C 120.33 17.5493 119.227 13.996 115.343 13.9347C 113.028 13.8857 110.932 15.1355 109.683 17.0469L 109.511 17.0591C 108.984 15.16 107.256 13.9714 105.308 13.9347C 103.127 13.8857 101.277 15.1722 100.162 16.9734L 100.052 16.9734L 100.652 14.1797L 97.0009 14.1797L 93.7294 33L 97.4297 33L 99.3902 21.5559C 99.7578 19.4117 101.351 17.2307 103.728 17.3042C 105.872 17.3655 106.264 19.0073 106.031 20.8698L 103.96 33L 107.624 33L 109.646 21.2373ZM 139.682 7.90633L 135.81 7.90633L 131.46 33L 135.332 33L 139.682 7.90633ZM 151.575 14.1797L 147.997 14.1797L 148.708 10.1608L 145.008 10.1608L 144.297 14.1797L 141.589 14.1797L 141.038 17.3042L 143.77 17.3042L 141.932 28.1724C 141.675 30.9293 143.672 33.1225 146.429 33.2083C 147.152 33.2328 147.863 33.1838 148.573 33.0245L 148.867 29.7653C 148.439 29.7898 148.01 29.8265 147.581 29.8143C 146.061 29.7775 145.559 28.9198 145.743 27.4495L 147.458 17.3042L 151.024 17.3042L 151.575 14.1797ZM 161.959 33L 165.438 33L 167.472 21.0535C 167.95 16.9121 165.487 14.0082 161.321 13.9347C 157.94 13.8734 154.264 15.5153 153.333 19.0073L 156.849 19.6445C 157.682 17.9413 159.153 16.8999 161.089 16.9734C 163.564 17.0591 164.078 18.9951 163.698 21.1761L 163.588 21.7887L 161.836 21.8622C 157.474 22.0338 151.789 22.6219 151.446 28.0744C 151.225 31.4684 153.982 33.3798 157.143 33.4166C 159.214 33.4411 160.978 32.4609 162.265 30.8803L 162.326 30.8803L 161.959 33ZM 163.208 24.6069L 162.78 26.9226C 162.265 28.8831 159.876 30.3411 157.94 30.3166C 156.31 30.2921 154.913 29.5325 155.195 27.7191C 155.661 24.8029 159.582 24.6804 161.861 24.6314L 163.208 24.6069ZM 177.69 7.90633L 173.99 7.90633L 169.64 33L 173.341 33L 177.69 7.90633ZM 181.705 9.80551C 181.73 11.1043 182.759 11.9865 184.033 11.9742C 185.344 11.962 186.398 10.994 186.349 9.64622C 186.312 8.38419 185.271 7.47748 184.033 7.48973C 182.722 7.50199 181.669 8.48221 181.705 9.80551ZM 185.087 14.1797L 181.399 14.1797L 178.14 33L 181.828 33L 185.087 14.1797ZM 203.401 20.4042C 203.095 16.5813 200.424 13.996 196.552 13.9347C 191.062 13.8489 187.595 18.603 187.031 23.6756C 186.492 28.4787 188.649 33.3063 194.028 33.3798C 197.875 33.4411 201.673 31.0886 202.2 27.0697L 198.598 27.0942C 197.936 29.0546 196.172 30.1819 194.113 30.1206C 190.793 30.0226 190.364 26.261 190.707 23.6756C 191.087 20.686 192.937 17.0714 196.429 17.1817C 198.426 17.2429 199.578 18.4927 199.884 20.3919L 203.401 20.4042Z"/>
<path id="path7_fill" d="M 11.3951 32.9387C 16.9823 32.9387 20.2538 30.4392 20.2538 25.6361C 20.2538 23.1733 18.9673 20.9065 16.0511 20.2081C 18.4649 19.1789 19.5922 17.0591 19.5922 14.7801C 19.5922 10.4917 16.2349 7.90633 10.6354 7.90633L 2.08297 7.90633L 2.08297 32.9387L 11.3951 32.9387ZM 6.81254 11.913L 10.6354 11.913C 13.5148 11.913 14.8626 13.2363 14.8626 15.2212C 14.8626 17.1572 13.478 18.4437 11.0152 18.554L 6.81254 18.5662L 6.81254 11.913ZM 15.5733 25.5748C 15.5733 27.67 14.0172 28.9688 11.3951 28.9688L 6.81254 28.9688L 6.81254 22.0583L 11.5666 22.0583C 14.2132 22.0583 15.5733 23.3571 15.5733 25.5748ZM 31.3039 33.3308C 36.1682 33.3308 39.8073 30.0348 39.8073 23.5899C 39.8073 17.3532 36.0089 13.9347 31.2794 13.9347C 26.5743 13.9347 22.8127 17.488 22.8127 23.5899C 22.8127 29.9491 26.4395 33.3308 31.3039 33.3308ZM 31.2794 29.5202C 28.7798 29.5202 27.334 27.4495 27.334 23.5899C 27.334 19.7425 28.8778 17.7453 31.2794 17.7453C 33.7177 17.7453 35.3473 19.6077 35.3473 23.5899C 35.3473 27.5843 33.7544 29.5202 31.2794 29.5202ZM 47.5399 7.90633L 42.9941 7.90633L 42.9941 33L 47.5399 33L 47.5399 7.90633ZM 50.739 23.5041C 50.739 29.2752 53.4346 33.3431 57.9191 33.3431C 60.1613 33.3431 61.7787 32.2893 62.906 30.623L 63.151 33L 67.268 33L 67.268 7.90633L 62.7099 7.90633L 62.7099 16.3975C 61.5949 14.8782 60.0633 13.9347 57.9681 13.9347C 53.4101 13.9347 50.739 17.8556 50.739 23.5041ZM 55.3215 23.5041C 55.3215 20.3429 56.4488 17.8066 59.1689 17.8066C 61.6562 17.8066 62.857 19.9876 62.9427 22.5974C 63.0285 23.2345 63.0285 24.3005 62.9427 24.9009C 62.8202 27.2902 61.5459 29.508 59.0708 29.508C 56.4365 29.508 55.3215 26.9349 55.3215 23.5041Z"/>
<path id="path8_fill" d="M 9.60617 32.951C 14.3848 32.951 18.7345 30.7455 19.1511 25.5503C 19.3226 23.2713 18.3301 21.0413 16.0389 20.2939C 18.5139 19.2646 20.2048 17.4512 20.4254 14.6821C 20.793 9.95254 16.7985 7.97984 12.6204 7.91858L 4.60704 7.90633L 0.269561 32.9387L 9.60617 32.951ZM 8.52793 11.913L 12.5101 11.9252C 14.5318 11.9742 16.0879 12.9055 15.7203 15.1232C 15.3527 17.3532 13.3188 18.5172 11.1745 18.5785L 7.37617 18.554L 8.52793 11.913ZM 14.6298 25.4768C 14.2377 27.9028 11.9955 28.9811 9.7287 28.9811L 5.57501 28.9688L 6.77578 22.0583L 11.6524 22.0705C 13.7721 22.1318 14.9729 23.3081 14.6298 25.4768ZM 29.6742 33.3308C 35.2983 33.4166 38.631 28.7115 39.1579 23.5164C 39.648 18.7255 37.4425 14.0082 32.1003 13.9347C 26.6601 13.8489 23.1803 18.6398 22.6657 23.6634C 22.1633 28.5155 24.234 33.2573 29.6742 33.3308ZM 29.7845 29.5202C 26.7948 29.4222 26.8194 25.8811 27.0767 23.6756C 27.4075 21.0168 28.7798 17.635 31.9655 17.733C 34.9797 17.8311 35.0777 21.2251 34.7959 23.5041C 34.4773 26.2487 33.0805 29.6427 29.7845 29.5202ZM 49.9537 7.90633L 45.5059 7.90633L 41.1562 33L 45.604 33L 49.9537 7.90633ZM 50.5797 23.5899C 50.0773 27.67 51.082 33.2573 56.2037 33.3553C 58.3847 33.4043 60.0878 32.2893 61.3499 30.5862L 61.0068 33L 65.0012 33L 69.3632 7.90633L 64.9032 7.90633L 63.2735 16.4465C 62.3178 14.8782 60.7985 13.9837 58.9483 13.9347C 53.7286 13.8122 51.1188 19.0931 50.5797 23.5899ZM 55.0642 23.5776C 55.4318 21.0045 56.8163 17.6718 59.9285 17.8066C 62.5016 17.9046 62.7222 20.5879 62.5751 22.5974C 62.5139 23.3816 62.3791 24.1412 62.1708 24.9009C 61.5827 27.1554 60.1368 29.6305 57.478 29.5325C 54.5496 29.4222 54.7824 25.6238 55.0642 23.5776ZM 87.0094 7.90633L 82.3533 7.90633L 78.0036 33L 82.6596 33L 87.0094 7.90633ZM 99.0917 14.1797L 95.7467 14.1675L 96.5186 10.1608L 92.0586 10.1608L 91.3602 14.1797L 88.8116 14.1797L 88.199 17.6718L 90.7598 17.6718L 89.0199 27.9764C 88.7504 30.8313 90.8088 33.1715 93.6637 33.2696C 94.4969 33.2941 95.3056 33.2328 96.1265 33.0858L 96.4819 29.2874C 96.0285 29.3119 95.5752 29.3364 95.1218 29.3119C 93.7985 29.2752 93.3819 28.5522 93.5534 27.278L 95.1953 17.6718L 98.4668 17.6718L 99.0917 14.1797ZM 109.125 33L 113.229 33L 115.3 20.784C 115.754 16.6426 113.046 13.996 109.002 13.9347C 105.535 13.8734 101.43 15.5888 100.891 19.4117L 105.277 19.7425C 105.841 18.2232 107.042 17.3287 108.684 17.39C 110.718 17.4635 111.146 19.0196 110.828 20.7962L 110.644 21.6417L 108.745 21.7397C 104.567 21.9848 99.298 22.8915 99.0162 28.0254C 98.8324 31.2846 101.491 33.3553 104.591 33.3921C 106.552 33.4166 108.169 32.5712 109.407 31.1008L 109.456 31.0886L 109.125 33ZM 110.228 24.7416L 109.75 27.3147C 109.211 28.8586 107.164 29.8755 105.645 29.8388C 104.322 29.8143 103.28 29.1281 103.525 27.6946C 103.942 25.3053 106.821 24.7661 108.843 24.7416L 110.228 24.7416ZM 126.292 7.90633L 121.844 7.90633L 117.494 33L 121.942 33L 126.292 7.90633ZM 130.067 10.0383C 130.104 11.4841 131.243 12.4521 132.665 12.4399C 134.147 12.4399 135.323 11.3861 135.262 9.86677C 135.213 8.42094 134.049 7.45298 132.652 7.46523C 131.182 7.46523 130.018 8.53122 130.067 10.0383ZM 134.159 14.1797L 129.712 14.1797L 126.44 33L 130.9 33L 134.159 14.1797ZM 152.515 20.8943C 152.258 16.9366 149.611 14.0082 145.531 13.9347C 139.968 13.8367 136.452 18.5417 135.9 23.7001C 135.361 28.6135 137.665 33.2818 143.093 33.3553C 147.087 33.4166 151.033 30.9048 151.4 26.7021L 147.148 26.7266C 146.646 28.54 145.041 29.5937 143.179 29.5325C 140.164 29.4467 139.993 25.9792 140.287 23.7001C 140.642 21.0168 142.125 17.635 145.335 17.7453C 147.246 17.8066 148.116 19.1299 148.337 20.8943L 152.515 20.8943Z"/>
<path id="path9_fill" d="M 2.45055 11L 2.9325 9.28461L 5.43206 9.28461L 5.914 11L 7.98881 11L 5.19517 2.63544L 3.16938 2.63544L 0.375752 11L 2.45055 11ZM 4.13327 5.00431L 4.23129 5.00431L 5.0073 7.76527L 3.35726 7.76527L 4.13327 5.00431ZM 11.9962 11L 13.7116 11L 13.7116 6.81772C 13.7116 5.36373 12.6497 4.6449 11.212 4.6449C 9.61099 4.6449 8.56542 5.49442 8.56542 6.62168L 10.3788 6.62168C 10.3788 6.18058 10.6566 5.9682 11.114 5.9682C 11.6695 5.9682 11.8982 6.29494 11.8982 6.80138L 11.8982 7.14446L 11.261 7.19347C 9.3496 7.34051 8.43473 8.02666 8.43473 9.28461C 8.43473 10.3629 9.36594 11.1144 10.4932 11.1144C 11.2774 11.1144 11.7021 10.7876 11.9472 10.4609L 11.9962 10.4609L 11.9962 11ZM 11.8982 8.30439L 11.8982 9.25194C 11.7675 9.51333 11.4081 9.75839 10.918 9.75839C 10.5095 9.75839 10.2481 9.52967 10.2481 9.18659C 10.2481 8.72915 10.5259 8.30439 11.2774 8.30439L 11.8982 8.30439ZM 17.865 10.9673C 19.8418 10.9673 20.8873 10.1341 20.8873 8.50043C 20.8873 7.73259 20.5361 6.96884 19.5885 6.7197C 20.4013 6.38887 20.724 5.69455 20.724 4.9553C 20.724 3.38695 19.5314 2.63544 17.5546 2.63544L 14.6466 2.63544L 14.6466 10.9673L 17.865 10.9673ZM 16.5254 4.2038L 17.5546 4.2038C 18.4531 4.2038 18.8452 4.48153 18.8452 5.18402C 18.8452 5.80483 18.4695 6.11523 17.5546 6.11523L 16.5254 6.11523L 16.5254 4.2038ZM 19.0249 8.46776C 19.0249 9.00688 18.6818 9.41531 17.865 9.41531L 16.5254 9.41531L 16.5254 7.42219L 17.9303 7.42219C 18.7145 7.42219 19.0249 7.83062 19.0249 8.46776ZM 27.1145 7.79794C 27.1145 5.90285 26.2977 4.6449 24.7457 4.6449C 24.1534 4.6449 23.7001 4.87361 23.357 5.26979L 23.357 2.63544L 21.5436 2.63544L 21.5436 11L 23.1773 11L 23.2304 10.3098C 23.5898 10.804 24.084 11.1144 24.762 11.1144C 26.2977 11.1144 27.1145 9.74205 27.1145 7.79794ZM 25.3175 7.79794C 25.3175 8.85985 25.0561 9.61135 24.3046 9.61135C 23.4714 9.61135 23.1773 9.02322 23.1773 8.15736L 23.1773 7.68358C 23.1773 6.65435 23.4714 6.13157 24.2882 6.13157C 25.0397 6.13157 25.3175 6.83406 25.3175 7.79794ZM 32.8036 8.15736C 32.7219 9.03956 32.3298 9.52967 31.4313 9.52967C 30.3367 9.52967 29.7976 8.61479 29.7976 6.80138C 29.7976 5.00431 30.3367 4.10577 31.4313 4.10577C 32.3298 4.10577 32.7383 4.6449 32.8199 5.5271L 34.6824 5.5271C 34.5353 3.79537 33.4244 2.52108 31.3169 2.52108C 29.2421 2.52108 27.8862 4.08944 27.8862 6.80138C 27.8862 9.56234 29.1768 11.1144 31.3333 11.1144C 33.3427 11.1144 34.5843 9.90542 34.6824 8.15736L 32.8036 8.15736ZM 40.8217 7.14446C 40.7891 5.77215 39.6455 4.6449 38.1261 4.6449C 36.2474 4.6449 35.1855 6.01721 35.1855 7.87963C 35.1855 9.75839 36.2474 11.1144 38.1425 11.1144C 39.5801 11.1144 40.7891 10.2322 40.8217 8.76183L 39.1227 8.76183C 39.09 9.20293 38.7796 9.61135 38.1098 9.61135C 37.2603 9.61135 36.9662 8.87619 36.9662 7.87963C 36.9662 6.91574 37.2603 6.13157 38.0935 6.13157C 38.8123 6.13157 39.0737 6.65435 39.1227 7.14446L 40.8217 7.14446ZM 4.7214 16.5538L 4.55803 16.5538L 0.506448 18.0241L 0.506448 19.4944L 2.82631 18.6939L 2.82631 25L 4.7214 25L 4.7214 16.5538ZM 11.9962 23.4316L 9.10454 23.4316C 8.94117 23.4316 8.87583 23.4316 8.71246 23.497L 8.67978 23.4153C 8.84315 23.35 8.89216 23.3173 9.00652 23.2029L 9.85605 22.2881C 10.9996 21.0464 11.7675 20.1316 11.7675 18.939C 11.7675 17.4196 10.8199 16.5211 9.0392 16.5211C 7.30747 16.5211 6.14754 17.7954 6.14754 19.3311L 7.96095 19.3311C 7.96095 18.5959 8.35304 18.0078 9.00652 18.0078C 9.61099 18.0078 9.95407 18.3998 9.95407 19.1187C 9.95407 19.5434 9.72535 20.1316 8.95751 20.9157L 6.24556 23.6277L 6.24556 25L 11.9962 25L 11.9962 23.4316ZM 14.7058 21.6019L 15.6044 21.6019C 16.3722 21.6019 16.8296 21.8306 16.8296 22.6638C 16.8296 23.2193 16.4049 23.644 15.686 23.644C 15.0816 23.644 14.5915 23.2519 14.5915 22.7292L 12.778 22.7292C 12.778 24.3955 14.2647 25.1144 15.6207 25.1144C 17.3361 25.1144 18.6267 24.2322 18.6267 22.6965C 18.6267 21.7285 18.0957 21.0709 17.1809 20.7728C 18.0059 20.3848 18.496 19.6374 18.496 18.8573C 18.496 17.3379 17.3361 16.5211 15.6207 16.5211C 14.1504 16.5211 12.8924 17.3543 12.8924 18.7429L 14.7058 18.7429C 14.7058 18.2691 15.1796 17.9914 15.686 17.9914C 16.3722 17.9914 16.6989 18.4162 16.6989 18.9063C 16.6989 19.5434 16.3395 20.0335 15.6044 20.0335L 14.7058 20.0335L 14.7058 21.6019ZM 25.6493 21.7979L 24.4077 21.7979L 24.4077 16.6354L 22.5289 16.6354L 19.1962 22.1083L 19.1962 23.3663L 22.725 23.3663L 22.725 25L 24.4077 25L 24.4077 23.3663L 25.6493 23.3663L 25.6493 21.7979ZM 21.0749 21.7979L 22.5289 19.2984L 22.725 18.9635L 22.725 21.7979L 21.0749 21.7979ZM 28.119 21.2588C 28.2823 21.0628 28.5764 20.8341 29.1319 20.8341C 29.9814 20.8341 30.3571 21.4385 30.3571 22.239C 30.3571 22.9905 30.1121 23.644 29.3279 23.644C 28.7398 23.644 28.364 23.2683 28.315 22.6801L 26.5016 22.6801C 26.5016 24.1831 27.9066 25.1144 29.3442 25.1144C 31.272 25.1144 32.1542 23.7747 32.1542 22.3697C 32.1542 20.6053 31.0923 19.5271 29.72 19.5271C 29.0012 19.5271 28.6254 19.7885 28.4784 20.0009L 28.4457 20.0009L 28.6417 18.2038L 31.8928 18.2038L 31.8928 16.6354L 27.1714 16.6354L 26.6813 20.8994L 28.119 21.2588ZM 36.955 18.89L 38.703 18.89C 38.4253 17.534 37.5921 16.5211 35.9584 16.5211C 33.6712 16.5211 32.9361 18.4325 32.9687 21.1281L 32.9687 21.4385C 32.9687 23.8074 34.2104 25.1144 35.9421 25.1144C 37.6085 25.1144 38.7357 23.8891 38.7357 22.2881C 38.7357 20.7034 37.9515 19.4781 36.4485 19.4781C 35.7379 19.4781 35.1742 19.764 34.7944 20.1602C 34.8597 18.8614 35.26 18.0241 35.9421 18.0241C 36.5302 18.0241 36.7589 18.2691 36.955 18.89ZM 34.7821 22.092L 34.7821 21.994C 34.7821 21.4875 35.1089 20.9321 35.8441 20.9321C 36.5139 20.9321 36.955 21.4549 36.955 22.2881C 36.955 23.0722 36.5302 23.644 35.8931 23.644C 35.1906 23.644 34.7821 23.1539 34.7821 22.092ZM 45.3499 16.6354L 39.5992 16.6354L 39.5992 18.2038L 43.3077 18.2038L 40.4488 25L 42.3602 25L 45.3499 17.6483L 45.3499 16.6354ZM 51.5883 22.6965C 51.5883 21.7694 51.1063 21.0791 50.3344 20.6952C 51.0124 20.3194 51.4249 19.6782 51.4249 18.8736C 51.4249 17.3379 50.3303 16.5211 48.762 16.5211C 47.2263 16.5211 46.1154 17.3379 46.1154 18.8736C 46.1154 19.6741 46.532 20.3154 47.21 20.6911C 46.434 21.075 45.9357 21.7694 45.9357 22.6965C 45.9357 24.2975 47.161 25.1144 48.7783 25.1144C 50.3957 25.1144 51.5883 24.2975 51.5883 22.6965ZM 49.6115 18.9716C 49.6115 19.5761 49.3338 19.9682 48.7783 19.9682C 48.2229 19.9682 47.9288 19.5761 47.9288 18.9716C 47.9288 18.3672 48.2229 18.0241 48.762 18.0241C 49.3174 18.0241 49.6115 18.3835 49.6115 18.9716ZM 49.7749 22.5494C 49.7749 23.2193 49.3828 23.6114 48.7783 23.6114C 48.1739 23.6114 47.7491 23.2193 47.7491 22.5494C 47.7491 21.8633 48.1739 21.4549 48.762 21.4549C 49.3665 21.4549 49.7749 21.8633 49.7749 22.5494ZM 54.6114 22.7741L 52.8551 22.7741C 53.1329 24.1301 53.962 25.1389 55.5957 25.1389C 57.8624 25.0082 58.5894 23.1866 58.5894 20.5073L 58.5894 20.1806C 58.5894 17.828 57.3478 16.5211 55.6161 16.5211C 53.9497 16.5211 52.7898 17.7464 52.7898 19.3474C 52.7898 20.9321 53.6066 22.1574 55.1097 22.1574C 55.8203 22.1574 56.3758 21.8755 56.7597 21.4794C 56.6821 22.77 56.3023 23.6318 55.6243 23.6399C 55.028 23.6481 54.8033 23.3908 54.6114 22.7741ZM 54.6032 19.3474C 54.6032 18.5632 55.028 17.9914 55.6651 17.9914C 56.3676 17.9914 56.776 18.4815 56.776 19.5434L 56.776 19.6415C 56.776 20.1479 56.4493 20.7034 55.7141 20.7034C 55.0443 20.7034 54.6032 20.1806 54.6032 19.3474ZM 65.5028 20.0826C 65.5028 17.7464 64.2285 16.5211 62.5294 16.5211C 60.8304 16.5211 59.5561 17.7464 59.5561 20.0826L 59.5561 21.4712C 59.5561 23.9381 60.8141 25.1144 62.5294 25.1144C 64.2285 25.1144 65.5028 23.9381 65.5028 21.4712L 65.5028 20.0826ZM 63.6567 21.7163C 63.6567 23.1049 63.1666 23.5623 62.5294 23.5623C 61.876 23.5623 61.4022 23.1049 61.4022 21.7163L 61.4022 19.8375C 61.4022 18.5795 61.876 18.0568 62.5294 18.0568C 63.1829 18.0568 63.6567 18.5795 63.6567 19.8375L 63.6567 21.7163Z"/>
<path id="path10_fill" d="M 11.2725 32.902C 17.2029 32.902 20.3396 30.4024 20.3396 25.5013C 20.3396 23.1978 19.2859 20.9065 16.4432 20.1591C 18.8815 19.1666 19.8495 17.0837 19.8495 14.8659C 19.8495 10.1608 16.2717 7.90633 10.3413 7.90633L 1.61737 7.90633L 1.61737 32.902L 11.2725 32.902ZM 7.25364 12.6114L 10.3413 12.6114C 13.0369 12.6114 14.2132 13.4446 14.2132 15.5521C 14.2132 17.4145 13.086 18.3457 10.3413 18.3457L 7.25364 18.3457L 7.25364 12.6114ZM 14.7523 25.4033C 14.7523 27.0206 13.7231 28.2459 11.2725 28.2459L 7.25364 28.2459L 7.25364 22.2666L 11.4686 22.2666C 13.8211 22.2666 14.7523 23.4919 14.7523 25.4033ZM 29.0249 7.90633L 23.5846 7.90633L 23.5846 33L 29.0249 33L 29.0249 7.90633ZM 42.4917 33L 47.6379 33L 47.6379 20.4532C 47.6379 16.0912 44.4522 13.9347 40.1392 13.9347C 35.3361 13.9347 32.1994 16.4833 32.1994 19.865L 37.6396 19.865C 37.6396 18.5417 38.4728 17.9046 39.8451 17.9046C 41.5115 17.9046 42.1977 18.8848 42.1977 20.4042L 42.1977 21.4334L 40.2862 21.5804C 34.552 22.0215 31.8073 24.08 31.8073 27.8538C 31.8073 31.0886 34.601 33.3431 37.9827 33.3431C 40.3353 33.3431 41.6095 32.3629 42.3447 31.3826L 42.4917 31.3826L 42.4917 33ZM 42.1977 24.9132L 42.1977 27.7558C 41.8056 28.54 40.7273 29.2752 39.257 29.2752C 38.0317 29.2752 37.2476 28.589 37.2476 27.5598C 37.2476 26.1875 38.0807 24.9132 40.3353 24.9132L 42.1977 24.9132ZM 66.8575 21.4334C 66.7595 17.3165 63.3287 13.9347 58.7707 13.9347C 53.1344 13.9347 49.9487 18.0516 49.9487 23.6389C 49.9487 29.2752 53.1344 33.3431 58.8197 33.3431C 63.1326 33.3431 66.7595 30.6965 66.8575 26.2855L 61.7603 26.2855C 61.6623 27.6088 60.7311 28.8341 58.7216 28.8341C 56.1731 28.8341 55.2909 26.6286 55.2909 23.6389C 55.2909 20.7472 56.1731 18.3947 58.6726 18.3947C 60.8291 18.3947 61.6133 19.9631 61.7603 21.4334L 66.8575 21.4334ZM 80.2999 33L 86.5243 33L 79.5892 22.3768L 86.2302 14.1797L 79.7117 14.1797L 74.7126 20.4042L 74.4676 20.4042L 74.4676 7.90633L 69.0273 7.90633L 69.0273 33L 74.4676 33L 74.4676 28.7115L 76.3177 26.4203L 80.2999 33Z"/>
<path id="path11_fill" d="M 9.42238 32.9142C 14.3725 32.9142 18.759 30.7822 19.2614 25.4155C 19.4574 23.1978 18.6487 21.0168 16.4187 20.2326C 18.8693 19.2401 20.4131 17.4512 20.6582 14.7801C 21.1238 9.68298 16.7985 7.95534 12.4121 7.90633L 4.15369 7.90633L -0.171539 32.902L 9.42238 32.9142ZM 8.83425 12.6114L 12.0322 12.6236C 13.9804 12.6604 15.3527 13.2853 15.0587 15.4418C 14.7401 17.7576 12.6816 18.3579 10.6232 18.3579L 7.84177 18.3457L 8.83425 12.6114ZM 13.8701 25.3053C 13.5638 27.3882 11.7504 28.2582 9.80222 28.2582L 6.12638 28.2459L 7.16787 22.2666L 11.4563 22.2788C 13.331 22.3401 14.1397 23.4673 13.8701 25.3053ZM 31.4141 7.90633L 26.1209 7.90633L 21.759 33L 27.0644 33L 31.4141 7.90633ZM 40.4823 33L 45.3957 33L 47.5276 20.4532C 48.0055 16.3362 45.0648 13.9837 41.1684 13.9347C 37.5294 13.8734 32.9713 15.6991 32.7753 19.8773L 38.0685 19.865C 38.289 18.5662 39.1712 17.8556 40.4945 17.8923C 42.0016 17.9413 42.406 19.0441 42.2344 20.3919L 42.0874 21.4089L 40.0044 21.5682C 36.01 21.8745 31.2315 23.21 30.9251 27.9519C 30.7168 31.0886 33.1796 33.3063 36.2183 33.3553C 38.0195 33.3798 39.5266 32.7182 40.7151 31.3704L 40.7764 31.3581L 40.4823 33ZM 41.4993 24.9132L 40.9724 27.7681C 40.2127 28.736 39.061 29.3364 37.8112 29.2874C 36.831 29.2629 36.1693 28.6748 36.3041 27.6578C 36.5369 25.8076 38.1543 24.9132 39.8942 24.8887L 41.4993 24.9132ZM 66.6369 21.4456C 66.6492 17.3165 63.9291 14.0082 59.6529 13.9347C 54.0288 13.8367 50.3898 18.456 49.7894 23.7124C 49.2257 28.736 51.6395 33.2696 57.1165 33.3431C 61.3315 33.4043 65.3504 30.6597 65.7057 26.2732L 60.7433 26.2977C 60.4125 27.9151 59.077 28.8953 57.4228 28.8463C 54.7517 28.785 54.7885 25.6851 55.0091 23.7124C 55.2786 21.3966 56.3078 18.2967 59.1505 18.3947C 60.9639 18.456 61.601 19.8283 61.6868 21.4456L 66.6369 21.4456ZM 78.2782 33L 84.1595 33L 79.2951 22.5606L 87.333 14.1797L 80.7042 14.1797L 74.7861 20.4287L 74.6023 20.4409L 76.8691 7.90633L 71.5759 7.90633L 67.2139 33L 72.5194 33L 73.23 28.8831L 75.5703 26.457L 78.2782 33ZM 105.077 7.90633L 99.5389 7.90633L 95.1892 33L 100.727 33L 105.077 7.90633ZM 116.988 14.1797L 114.035 14.1797L 114.746 10.1608L 109.44 10.1608L 108.742 14.1797L 106.414 14.1797L 105.728 18.1006L 108.068 18.1006L 106.438 27.7558C 106.132 30.672 108.129 33.2205 111.107 33.3308C 112.111 33.3676 113.079 33.2818 114.072 33.1225L 114.697 28.785L 113.092 28.7605C 112.038 28.7115 111.695 28.1111 111.817 27.0942L 113.361 18.1006L 116.314 18.1006L 116.988 14.1797ZM 126.188 33L 131.101 33L 133.233 20.4532C 133.711 16.3362 130.77 13.9837 126.874 13.9347C 123.235 13.8734 118.677 15.6991 118.481 19.8773L 123.774 19.865C 123.995 18.5662 124.877 17.8556 126.2 17.8923C 127.707 17.9413 128.112 19.0441 127.94 20.3919L 127.793 21.4089L 125.71 21.5682C 121.716 21.8745 116.937 23.21 116.631 27.9519C 116.422 31.0886 118.885 33.3063 121.924 33.3553C 123.725 33.3798 125.232 32.7182 126.421 31.3704L 126.482 31.3581L 126.188 33ZM 127.205 24.9132L 126.678 27.7681C 125.918 28.736 124.767 29.3364 123.517 29.2874C 122.537 29.2629 121.875 28.6748 122.01 27.6578C 122.242 25.8076 123.86 24.9132 125.6 24.8887L 127.205 24.9132ZM 144.666 7.90633L 139.373 7.90633L 135.011 33L 140.316 33L 144.666 7.90633ZM 147.792 10.2956C 147.792 11.913 149.017 12.9545 150.573 12.9667C 152.252 12.979 153.636 11.8517 153.648 10.1118C 153.648 8.50671 152.386 7.46523 150.83 7.45298C 149.152 7.44072 147.792 8.58023 147.792 10.2956ZM 152.693 14.1797L 147.387 14.1797L 144.116 33L 149.421 33L 152.693 14.1797ZM 170.656 21.4456C 170.669 17.3165 167.949 14.0082 163.672 13.9347C 158.048 13.8367 154.409 18.456 153.809 23.7124C 153.245 28.736 155.659 33.2696 161.136 33.3431C 165.351 33.4043 169.37 30.6597 169.725 26.2732L 164.763 26.2977C 164.432 27.9151 163.096 28.8953 161.442 28.8463C 158.771 28.785 158.808 25.6851 159.029 23.7124C 159.298 21.3966 160.327 18.2967 163.17 18.3947C 164.983 18.456 165.621 19.8283 165.706 21.4456L 170.656 21.4456Z"/>
</defs>
</svg>
