<svg width="888" height="165" viewBox="0 0 888 165" xmlns="http://www.w3.org/2000/svg" xmlns:xlink="http://www.w3.org/1999/xlink"><title>weights-and-styles</title><desc>Created using Figma</desc><g transform="translate(-3365 4330)"><clipPath id="a" clip-rule="evenodd"><path d="M3365-4330h888v165h-888v-165z" fill="#FFF"/></clipPath><g clip-path="url(#a)"><use xlink:href="#b" transform="translate(3364 -4330)"/><use xlink:href="#c" transform="translate(3364 -4231.36)"/><use xlink:href="#d" transform="translate(3608.52 -4231.36)"/><use xlink:href="#e" transform="translate(3865.42 -4231.36)"/><use xlink:href="#f" transform="translate(3364 -4288.96)"/><use xlink:href="#g" transform="translate(3608.52 -4330)"/><use xlink:href="#h" transform="translate(3608.52 -4288.96)"/><use xlink:href="#i" transform="translate(3865.42 -4330)"/><use xlink:href="#j" transform="translate(3865.42 -4288.96)"/><use xlink:href="#k" transform="translate(4079 -4231.36)"/><use xlink:href="#l" transform="translate(4079 -4330)"/><use xlink:href="#m" transform="translate(4079 -4288.96)"/></g></g><defs><path id="b" d="M16.855 32h3.477l-5.336-10.275c2.861-1.171 4.467-3.477 4.467-6.87 0-4.105-2.415-7.582-8.307-7.582H2.898V32h2.994v-9.61h6.05L16.854 32zM5.892 9.929h5.264c4.395 0 5.361 2.608 5.361 4.926 0 2.753-1.352 4.781-5.699 4.781H5.892V9.93zm24.666 22.457c3.767 0 6.52-1.883 7.39-4.684l-2.754-.773c-.724 1.932-2.366 2.898-4.636 2.898-3.622 0-5.795-2.463-5.795-7.1 0-4.395 2.27-6.954 5.505-6.954 3.091 0 5.071 2.318 5.071 5.457H23.942v2.463h14.295v-1.207c0-6.907-4.105-9.273-7.969-9.273-5.022 0-8.355 3.96-8.355 9.66 0 5.698 3.284 9.513 8.645 9.513zm23.95-18.932v2.947h-.289c-.628-.966-1.787-3.188-5.41-3.188-4.684 0-7.92 3.719-7.92 9.418 0 5.795 3.381 9.08 7.873 9.08 3.622 0 4.78-2.126 5.409-3.14h.241v3.284c.049 3.091-2.415 4.54-5.264 4.54-3.188 0-4.492-1.835-5.216-2.753l-2.27 1.594c1.16 1.98 3.526 3.719 7.486 3.719 4.298 0 8.114-2.029 8.114-6.81v-18.69h-2.753zm-10.77 9.128c0-3.767 1.788-6.81 5.41-6.81 3.477 0 5.313 2.802 5.313 6.81 0 4.105-1.884 6.569-5.313 6.569-3.574 0-5.41-2.705-5.41-6.569zm29.548 2.077c0 3.477-2.656 4.83-4.781 4.83-2.367 0-4.057-1.546-4.057-4.25V13.454h-2.85V25.24c0 4.877 3.284 7.003 5.989 7.003 2.801 0 4.588-1.45 5.506-2.85h.193V32h2.85V13.454h-2.85V24.66zM83.324 7.273h-2.849V32h2.85V7.273zM98.772 32h2.849V19.781c0-5.892-4.491-6.568-6.858-6.568-2.8 0-5.988.966-7.437 4.347l2.705.966c.627-1.353 2.125-2.802 4.877-2.802 2.222 0 3.864.966 3.864 4.057v.049c0 1.207-2.222 1.11-4.781 1.448-3.478.435-7.196 1.256-7.196 5.458 0 3.622 2.8 5.699 6.326 5.699 3.236 0 4.927-1.739 5.506-2.946h.145V32zm0-6.713c0 2.318-1.835 4.588-5.216 4.588-2.27 0-3.912-1.014-3.912-2.994 0-2.174 1.98-2.85 4.202-3.14 1.207-.144 4.443-.482 4.926-1.062v2.608zm17.443-11.446c-.58-.338-1.497-.676-2.463-.676-2.173 0-4.202 1.69-4.733 3.477h-.193v-3.188h-2.85V32h2.85V21.52c.048-2.511 1.787-5.41 4.829-5.41.821 0 1.304.242 1.594.387l.966-2.656z"/><path id="c" d="M1.266 11l.754-2.14h3.335L6.11 11h1.016L4.187 3h-1L.25 11h1.016zM3.64 4.266h.093L5.051 8H2.324l1.317-3.734zM11.952 11h.922V7.047c0-1.906-1.453-2.125-2.219-2.125-.906 0-1.937.312-2.406 1.406l.875.313c.203-.438.688-.907 1.578-.907.72 0 1.25.313 1.25 1.313v.016c0 .39-.718.359-1.546.468-1.125.14-2.329.407-2.329 1.766 0 1.172.907 1.844 2.047 1.844 1.047 0 1.594-.563 1.781-.954h.047V11zm0-2.172c0 .75-.593 1.485-1.687 1.485-.734 0-1.266-.329-1.266-.97 0-.702.64-.921 1.36-1.015.39-.047 1.437-.156 1.593-.344v.844zM17.74 11c1.89 0 2.672-.922 2.672-2.125 0-1.266-.875-1.953-1.61-2v-.074c.684-.184 1.297-.637 1.297-1.676 0-1.172-.781-2.125-2.453-2.125h-2.797v8h2.89zm-1.922-7.14h1.828c1.063 0 1.531.562 1.531 1.265 0 .844-.687 1.39-1.562 1.39h-1.797V3.86zm3.672 5.015c0 .703-.485 1.266-1.75 1.266h-1.922V7.359h1.969c1.047 0 1.703.704 1.703 1.516zM22.033 3v8h.89v-.922h.11c.203.328.594 1.047 1.75 1.047 1.5 0 2.547-1.203 2.547-3.11 0-1.89-1.047-3.093-2.563-3.093-1.171 0-1.53.719-1.734 1.031h-.078V3h-.922zm4.375 5c0 1.281-.594 2.297-1.75 2.297-1.11 0-1.719-.938-1.719-2.297 0-1.344.594-2.25 1.719-2.25 1.172 0 1.75.984 1.75 2.25zm9.046-2.5c-.297-1.64-1.61-2.61-3.218-2.61-2.047 0-3.532 1.579-3.532 4.11 0 2.531 1.485 4.11 3.532 4.11 1.609 0 2.921-.97 3.218-2.61h-.968c-.235 1.11-1.188 1.703-2.25 1.703-1.454 0-2.594-1.125-2.594-3.203s1.14-3.203 2.594-3.203c1.062 0 2.015.594 2.25 1.703h.968zm6.393 1.297c-.156-1.125-1.11-1.875-2.375-1.875-1.625 0-2.703 1.281-2.703 3.078 0 1.844 1.047 3.125 2.719 3.125 1.328 0 2.203-.813 2.36-1.875h-.923c-.172.656-.719 1.047-1.437 1.047-1.094 0-1.797-.906-1.797-2.297 0-1.36.719-2.25 1.797-2.25.812 0 1.297.5 1.437 1.047h.922zM3.36 16h-.812c-.094.094-.61 1.188-1.86 1.188V18c.922 0 1.579-.375 1.688-.594h.063V24h.921v-8zm7.607 7.14H7.044v-.046L9.2 20.89c.829-.844 1.563-1.813 1.563-2.735 0-1.312-1-2.265-2.465-2.265-1.723 0-2.41 1.312-2.41 2.609h.953c0-.922.344-1.813 1.426-1.813.965 0 1.558.704 1.558 1.497 0 .691-.453 1.222-1.421 2.222l-2.813 2.89V24h5.375v-.86zm3.454-2.75h.453c.968 0 1.671.485 1.671 1.438 0 .969-.718 1.453-1.609 1.453-.89 0-1.39-.484-1.39-1.281h-1c0 1.375 1 2.11 2.406 2.11 1.422 0 2.61-.844 2.61-2.274 0-.715-.294-1.57-1.352-1.93.843-.41 1.18-1.23 1.18-1.797 0-1.453-1.016-2.218-2.403-2.218-1.535 0-2.363.937-2.363 2.109h.921c0-.781.563-1.344 1.43-1.344.852 0 1.461.547 1.461 1.438 0 .765-.562 1.406-1.562 1.406h-.454v.89zm10.187 1.25h-1.093V16h-1.016l-3.61 5.89v.61h3.766V24h.86v-1.5h1.093v-.86zm-4.515 0l2.406-4.03.156-.52v4.55h-2.562zm6.828-1.343c.36-.297.797-.5 1.531-.5.828 0 1.672.5 1.672 1.719 0 1.093-.828 1.765-1.734 1.765-.813 0-1.375-.422-1.531-1.281h-.938c.14 1.469 1.14 2.11 2.406 2.11 1.719 0 2.719-1.079 2.719-2.61 0-1.563-1.031-2.578-2.594-2.578-.547 0-1.093.234-1.39.469h-.047l.328-2.47h3.344V16h-4.22l-.468 4.094.922.203zM36.717 18h.922c-.281-1.375-1.062-2.125-2.328-2.125-1.828 0-2.688 1.563-2.688 4.031v.266c0 2.562.86 3.937 2.61 3.937 1.656 0 2.531-1.234 2.531-2.578 0-1.328-.875-2.562-2.406-2.562-1.11 0-2.39.656-2.39 2.547h.687c0-1.016.687-1.688 1.687-1.688 1.094 0 1.5.813 1.5 1.703 0 1.078-.61 1.735-1.531 1.735-.875 0-1.656-.594-1.656-1.813l-.078-1.5c0-2.625.89-3.203 1.75-3.203.937 0 1.203.688 1.39 1.25zm7.454-2h-5v.906h4.062L39.921 24h1.062l3.188-7v-1zm6.323 5.734c0-.933-.473-1.625-1.207-1.988.625-.32 1.02-.91 1.02-1.777 0-1.36-1-2.078-2.336-2.078-1.336 0-2.352.718-2.352 2.078 0 .867.387 1.453 1.004 1.773-.73.363-1.191 1.055-1.191 1.992 0 1.453 1.125 2.375 2.539 2.375 1.414 0 2.523-.937 2.523-2.375zM49.4 18.008c0 .773-.687 1.336-1.43 1.336-.742 0-1.445-.563-1.445-1.36 0-.797.703-1.265 1.426-1.265.762 0 1.45.515 1.45 1.289zm.141 3.73c0 .84-.672 1.559-1.563 1.559-.89 0-1.609-.719-1.609-1.578 0-.86.719-1.594 1.578-1.594.86 0 1.594.734 1.594 1.613zm3.625.262h-.922c.282 1.375 1.063 2.125 2.328 2.125 1.829 0 2.688-1.563 2.688-4.031v-.266c0-2.562-.86-3.937-2.61-3.937-1.656 0-2.53 1.234-2.53 2.578 0 1.328.874 2.562 2.406 2.562 1.109 0 2.39-.656 2.39-2.547h-.687c0 1.016-.688 1.688-1.688 1.688-1.093 0-1.5-.813-1.5-1.703 0-1.078.61-1.735 1.532-1.735.874 0 1.656.594 1.656 1.813l.078 1.5c0 2.625-.89 3.203-1.75 3.203-.938 0-1.203-.688-1.39-1.25zm10.907-2.453c0-2.344-.922-3.656-2.656-3.656-1.75 0-2.688 1.312-2.688 3.656v.765c0 2.36.953 3.797 2.703 3.797 1.734 0 2.64-1.437 2.64-3.797v-.765zm-.969.937c0 1.5-.531 2.766-1.672 2.766-1.156 0-1.734-1.266-1.734-2.766v-1.109c0-1.516.562-2.625 1.718-2.625 1.141 0 1.688 1.11 1.688 2.625v1.11z"/><path id="d" d="M1.586 11l.672-1.938h3.21L6.142 11h1.312L4.512 3H3.21L.27 11h1.316zm2.23-6.414h.094l1.192 3.43H2.625l1.191-3.43zM12.086 11h1.176V7.012c0-1.727-1.316-2.09-2.285-2.09-1.078 0-2.09.45-2.469 1.547l1.125.293c.172-.434.598-.832 1.336-.832.621 0 1.086.289 1.086 1.066v.05c0 .356-.637.352-1.328.434-1.309.141-2.367.56-2.367 1.82 0 1.169.898 1.829 2.023 1.829.957 0 1.469-.48 1.656-.848h.047V11zm-.031-2.094c0 .649-.555 1.246-1.445 1.246-.625 0-1.067-.293-1.067-.832 0-.62.508-.847 1.227-.937.336-.043 1.148-.137 1.285-.293v.816zM18.044 11c1.855 0 2.699-.906 2.699-2.14 0-1.192-.793-1.9-1.594-1.97v-.074c.742-.191 1.328-.671 1.328-1.671C20.477 3.938 19.65 3 17.891 3h-2.863v8h3.016zm-1.778-6.938h1.61c1.007 0 1.402.532 1.402 1.165 0 .765-.582 1.23-1.457 1.23h-1.555V4.063zm3.278 4.72c0 .66-.434 1.155-1.544 1.155h-1.734V7.43h1.785c.954 0 1.493.62 1.493 1.351zM22.224 3v8h1.171v-.82h.102c.203.367.633.933 1.621.933 1.422 0 2.469-1.152 2.469-3.101 0-1.957-1.067-3.09-2.48-3.09-.997 0-1.407.574-1.61.93h-.074V3h-1.2zm4.199 5c0 1.207-.532 2.098-1.563 2.098-1.023 0-1.511-.883-1.511-2.098 0-1.207.484-2.059 1.511-2.059 1.043 0 1.563.864 1.563 2.059zm9.23-2.496c-.34-1.656-1.648-2.613-3.253-2.613-2.043 0-3.532 1.558-3.532 4.113 0 2.55 1.489 4.105 3.532 4.105 1.605 0 2.906-.953 3.25-2.597l-1.223-.082c-.234 1.015-1.063 1.543-2.027 1.543-1.313 0-2.31-.989-2.31-2.97 0-1.976.997-2.976 2.31-2.976.964 0 1.8.535 2.035 1.559l1.218-.082zm6.423 1.348c-.184-1.165-1.153-1.93-2.465-1.93-1.668 0-2.742 1.277-2.742 3.078 0 1.832 1.05 3.121 2.754 3.121 1.34 0 2.253-.797 2.449-1.902l-1.157-.094c-.16.602-.629.973-1.292.973-1.004 0-1.583-.832-1.583-2.098 0-1.246.59-2.059 1.583-2.059.742 0 1.163.454 1.304 1.012l1.149-.101zM3.53 16H2.457c-.062.082-.465 1.238-1.789 1.238v1.012c.894 0 1.512-.316 1.648-.563h.063V24H3.53v-8zm7.694 6.938H7.592v-.047l1.793-1.836c.918-.942 1.633-1.883 1.633-2.864 0-1.343-1.031-2.3-2.512-2.3-1.715 0-2.523 1.28-2.523 2.632h1.203c0-.855.351-1.636 1.289-1.636.84 0 1.355.629 1.355 1.343 0 .614-.382 1.157-1.277 2.075l-2.742 2.797V24h5.414v-1.063zm3.363-2.434h.583c.894 0 1.511.402 1.511 1.305 0 .828-.62 1.289-1.445 1.289-.79 0-1.281-.45-1.281-1.153H12.72c0 1.446 1.137 2.164 2.508 2.164 1.492 0 2.692-.843 2.692-2.285 0-.789-.375-1.562-1.364-1.898.824-.399 1.207-1.184 1.207-1.813 0-1.453-1.043-2.222-2.511-2.222-1.497 0-2.442.89-2.442 2.113h1.18c0-.676.527-1.145 1.273-1.145.79 0 1.305.504 1.305 1.258 0 .719-.496 1.305-1.398 1.305h-.583v1.082zm10.458.91h-1.121V16h-1.266l-3.476 5.68v.8h3.64V24h1.102v-1.52h1.12v-1.066zm-4.469 0l2.082-3.504.164-.39v3.894h-2.246zm6.896-1.078c.293-.262.683-.469 1.351-.469.825 0 1.512.504 1.512 1.598 0 .96-.637 1.633-1.492 1.633-.785 0-1.23-.485-1.352-1.246h-1.195c.098 1.457 1.102 2.257 2.508 2.257 1.758 0 2.707-1.156 2.707-2.648 0-1.559-1.02-2.59-2.508-2.59-.578 0-1.078.238-1.324.465h-.043l.285-2.23h3.266V16h-4.313l-.469 4.09 1.067.246zm9.508-2.297h1.168c-.278-1.375-1.086-2.168-2.45-2.168-1.953 0-2.714 1.621-2.714 4.16v.282c0 2.46.965 3.796 2.683 3.796 1.637 0 2.586-1.21 2.586-2.617 0-1.363-.898-2.601-2.414-2.601-1.207 0-2.246.8-2.246 2.359l.61.14c0-.859.597-1.472 1.496-1.472.96 0 1.375.719 1.375 1.574 0 .98-.551 1.594-1.383 1.594-.79 0-1.489-.555-1.489-1.707l-.05-1.457c0-2.375.726-2.996 1.57-2.996.805 0 1.094.566 1.258 1.113zM44.823 16h-5.16v1.098h3.898L40.432 24h1.309l3.082-7.012V16zm6.331 5.754c0-.918-.469-1.598-1.203-1.965.633-.332 1.027-.93 1.027-1.766 0-1.394-1.015-2.132-2.402-2.132-1.379 0-2.41.738-2.41 2.132 0 .836.39 1.43 1.016 1.766-.735.363-1.2 1.047-1.2 1.965 0 1.48 1.141 2.355 2.598 2.355 1.457 0 2.574-.886 2.574-2.355zm-1.347-3.672c0 .711-.551 1.211-1.227 1.211s-1.242-.5-1.242-1.23c0-.727.566-1.149 1.226-1.149.684 0 1.243.461 1.243 1.168zm.144 3.629c0 .777-.574 1.387-1.367 1.387-.79 0-1.41-.61-1.41-1.399 0-.793.62-1.418 1.386-1.418.77 0 1.391.625 1.391 1.43zm3.989.25h-1.168c.277 1.375 1.086 2.168 2.449 2.168 1.953 0 2.715-1.621 2.715-4.16v-.282c0-2.46-.965-3.796-2.684-3.796-1.637 0-2.586 1.21-2.586 2.617 0 1.363.899 2.601 2.414 2.601 1.207 0 2.246-.8 2.246-2.359l-.609-.14c0 .859-.598 1.472-1.496 1.472-.961 0-1.375-.719-1.375-1.574 0-.98.55-1.594 1.383-1.594.789 0 1.488.555 1.488 1.707l.05 1.457c0 2.375-.726 2.996-1.57 2.996-.804 0-1.093-.566-1.257-1.113zm10.842-2.492c0-2.313-1.02-3.578-2.719-3.578-1.707 0-2.734 1.265-2.734 3.578v.945c0 2.36 1.03 3.695 2.746 3.695 1.699 0 2.707-1.336 2.707-3.695v-.945zm-1.227 1.136c0 1.446-.508 2.446-1.48 2.446-.985 0-1.524-1-1.524-2.445v-1.333c0-1.414.528-2.328 1.512-2.328.977 0 1.492.914 1.492 2.328v1.332z"/><path id="e" d="M1.945 11l.582-1.703H5.59L6.172 11h1.656l-2.95-8H3.243l-2.95 8h1.652zm2.067-6.055h.093L5.16 8.031H2.957l1.055-3.086zM12.246 11h1.465V6.973c0-1.524-1.168-2.051-2.355-2.051-1.281 0-2.27.598-2.547 1.703l1.406.27c.14-.426.496-.747 1.07-.747.504 0 .899.258.899.793v.09c0 .317-.55.336-1.078.395-1.52.14-2.414.722-2.414 1.883 0 1.16.882 1.812 1.992 1.812.855 0 1.328-.394 1.516-.73h.046V11zm-.062-2c0 .523-.508.973-1.18.973-.5 0-.84-.254-.84-.684 0-.52.367-.762 1.086-.844.274-.035.82-.113.934-.238V9zm6.233 2c1.816 0 2.722-.89 2.722-2.156 0-1.106-.691-1.836-1.578-1.938v-.062c.856-.203 1.375-.739 1.375-1.676 0-1.246-.89-2.168-2.742-2.168H15.26v8h3.157zm-1.614-6.703h1.36c.945 0 1.254.484 1.254 1.039 0 .687-.465 1.05-1.34 1.05h-1.274v-2.09zm2.832 4.375c0 .621-.379 1.031-1.316 1.031h-1.516V7.508h1.575c.843 0 1.257.535 1.257 1.164zM22.441 3v8h1.5v-.71h.086c.203.413.68.816 1.473.816 1.344 0 2.39-1.098 2.39-3.102 0-2.027-1.09-3.082-2.394-3.082-.8 0-1.266.41-1.469.82h-.066V3h-1.52zm4.004 5c0 1.121-.453 1.871-1.344 1.871-.93 0-1.285-.82-1.285-1.871 0-1.059.36-1.848 1.285-1.848.895 0 1.344.73 1.344 1.848zm9.43-2.488C35.48 3.84 34.178 2.89 32.58 2.89c-2.035 0-3.531 1.535-3.531 4.12 0 2.575 1.496 4.098 3.531 4.098 1.598 0 2.89-.937 3.281-2.59l-1.511-.167c-.235.906-.922 1.363-1.77 1.363-1.156 0-1.988-.84-1.988-2.703 0-1.867.832-2.727 1.988-2.727.848 0 1.559.465 1.793 1.395l1.5-.168zm6.466 1.402c-.222-1.21-1.207-1.992-2.566-1.992-1.723 0-2.79 1.27-2.79 3.078 0 1.824 1.06 3.113 2.794 3.113 1.347 0 2.308-.781 2.55-1.925l-1.421-.204c-.153.54-.528.887-1.13.887-.902 0-1.34-.746-1.34-1.871 0-1.113.442-1.848 1.34-1.848.665 0 1.008.407 1.15.973l1.413-.21zM3.72 16H2.355c-.03.074-.3 1.293-1.71 1.293v1.238c.87 0 1.44-.246 1.601-.531h.063v6h1.41v-8zm7.805 6.703H8.219v-.047l1.379-1.414c1.02-1.058 1.71-1.96 1.71-3.012 0-1.375-1.062-2.34-2.562-2.34-1.71 0-2.652 1.25-2.652 2.665h1.484c0-.785.368-1.442 1.137-1.442.703 0 1.125.543 1.125 1.168 0 .532-.305 1.082-1.113 1.914l-2.664 2.688V24h5.46v-1.297zm3.25-2.066h.73c.809 0 1.333.3 1.333 1.148 0 .672-.504 1.102-1.258 1.102-.68 0-1.157-.41-1.157-1.004h-1.5c0 1.523 1.286 2.226 2.618 2.226 1.57 0 2.793-.843 2.793-2.3 0-.864-.45-1.559-1.375-1.868.8-.382 1.234-1.128 1.234-1.82 0-1.453-1.082-2.23-2.64-2.23-1.446 0-2.532.843-2.532 2.12h1.477c0-.558.488-.917 1.093-.917.72 0 1.125.449 1.125 1.054 0 .657-.41 1.18-1.21 1.18h-.731v1.309zm10.766.527h-1.16V16h-1.547l-3.32 5.445v1.012h3.5V24h1.367v-1.543h1.16v-1.293zm-4.422 0l1.715-2.918.18-.348v3.266h-1.895zm6.97-.781c.223-.223.55-.438 1.148-.438.817 0 1.332.512 1.332 1.465 0 .805-.425 1.477-1.226 1.477-.746 0-1.066-.547-1.148-1.207h-1.477c.043 1.449 1.055 2.43 2.617 2.43 1.805 0 2.7-1.25 2.7-2.696 0-1.55-1.012-2.598-2.415-2.598-.61 0-1.062.247-1.254.457h-.035l.23-1.957h3.188V16h-4.422l-.468 4.082 1.23.3zm9.184-2.297h1.441c-.27-1.375-1.117-2.223-2.582-2.223-2.093 0-2.754 1.692-2.754 4.309v.297c0 2.351 1.082 3.64 2.77 3.64 1.613 0 2.648-1.18 2.648-2.664 0-1.402-.93-2.648-2.43-2.648-1.308 0-2.081.965-2.081 2.156l.53.297c0-.688.497-1.23 1.27-1.23.82 0 1.235.609 1.235 1.425 0 .88-.48 1.438-1.211 1.438-.695 0-1.293-.508-1.293-1.59l-.027-1.402c0-2.094.539-2.77 1.367-2.77.664 0 .968.434 1.117.965zM45.552 16h-5.34v1.309h3.711L41.005 24h1.583l2.964-7.02V16zm6.35 5.777c0-.902-.465-1.574-1.204-1.937.64-.348 1.035-.953 1.035-1.754 0-1.434-1.03-2.195-2.48-2.195-1.426 0-2.473.761-2.473 2.195 0 .797.395 1.402 1.035 1.75-.738.363-1.21 1.039-1.21 1.941 0 1.504 1.156 2.332 2.66 2.332 1.504 0 2.636-.832 2.636-2.332zm-1.637-3.617c0 .64-.403 1.078-1 1.078-.598 0-1.016-.437-1.016-1.082 0-.648.418-1.023 1-1.023.605 0 1.016.398 1.016 1.027zm.152 3.524c0 .703-.473 1.187-1.148 1.187-.68 0-1.184-.484-1.184-1.195 0-.723.504-1.223 1.16-1.223.668 0 1.172.5 1.172 1.23zm4.387.23h-1.442c.27 1.375 1.118 2.223 2.583 2.223 2.093 0 2.754-1.692 2.754-4.309v-.297c0-2.351-1.083-3.64-2.77-3.64-1.613 0-2.648 1.18-2.648 2.664 0 1.402.93 2.648 2.43 2.648 1.308 0 2.081-.965 2.081-2.156l-.531-.297c0 .688-.496 1.23-1.27 1.23-.82 0-1.234-.609-1.234-1.425 0-.88.48-1.438 1.211-1.438.695 0 1.293.508 1.293 1.59l.027 1.402c0 2.094-.539 2.77-1.367 2.77-.664 0-.969-.434-1.117-.965zm10.78-2.539c0-2.266-1.12-3.484-2.78-3.484-1.669 0-2.798 1.218-2.798 3.484v1.148c0 2.36 1.125 3.586 2.801 3.586 1.66 0 2.778-1.226 2.778-3.586v-1.148zm-1.507 1.363c0 1.383-.492 2.086-1.27 2.086-.797 0-1.289-.703-1.289-2.086v-1.574c0-1.305.488-2 1.285-2 .79 0 1.274.695 1.274 2v1.574z"/><path id="f" d="M14.694 32h3.236l-3.32-10.239c3.175-1.17 5.13-3.598 5.517-6.99.52-4.6-2.378-7.414-6.918-7.486L5.36 7.273 1.075 32h2.921l1.679-9.61h5.928l3.09 9.61zM7.836 9.929l5.264.012c3.055.072 4.588 1.811 4.154 4.817-.495 3.478-3.188 4.902-6.508 4.89l-4.6-.012 1.69-9.707zm20.983 22.457c3.224.049 6.557-1.497 7.692-4.672l-2.633-.76c-.978 1.93-2.789 2.933-4.95 2.885-3.96-.085-4.793-3.695-4.395-7.027.423-3.441 2.62-7.148 6.52-7.04 3.03.085 4.323 2.717 3.9 5.458h-11l-.386 2.463h13.885l.157-1.207c.544-4.576-1.231-9.213-6.435-9.285-5.433-.072-8.874 4.757-9.442 9.744-.555 4.877 1.727 9.369 7.088 9.441zm26.716-18.932l-.58 2.959h-.301c-.918-2.065-2.524-3.127-4.806-3.188-5.276-.133-8.536 4.721-9.115 9.49-.52 4.37 1.291 8.959 6.29 9.02 2.584.024 4.226-1.22 5.699-3.176l.181-.012-.628 3.308c-.483 2.994-3.115 4.612-6.025 4.54-2.149-.06-3.477-1.063-4.612-2.765l-2.354 1.582c1.436 2.571 3.96 3.694 6.846 3.742 4.406.073 8.222-2.27 8.886-6.821l3.212-18.679h-2.693zm-12.001 9.213c.483-3.405 2.656-7.003 6.508-6.906 3.67.108 4.25 3.767 3.851 6.737-.47 3.44-2.535 6.761-6.375 6.665-3.622-.097-4.407-3.454-3.984-6.496zm28.895 1.992c-.447 2.765-2.68 4.938-5.579 4.83-2.414-.085-3.356-2.017-3.066-4.238l2.004-11.797H63.01L61.007 25.24c-.399 3.235 1.05 6.918 4.769 7.015 2.342.072 4.347-1.075 5.76-2.874h.132L71.125 32h2.789l3.211-18.546h-2.777l-1.92 11.205zm13.31-17.386H82.95L78.664 32h2.789l4.286-24.727zM96.707 32h2.705l2.065-12.219c.41-3.96-1.715-6.508-5.663-6.568-3.248-.048-6.303 1.316-7.751 4.335l2.583.966c1.05-1.86 3.067-2.838 5.18-2.79 2.62.06 2.97 1.787 2.898 4.033v.06c-.435 1.594-3.803 1.304-5.047 1.45-3.502.41-7.45 1.4-7.752 5.565-.253 3.345 2.113 5.566 5.373 5.615 2.343.036 4.492-.99 5.76-2.97l.096-.012L96.707 32zm1.1-6.713c-.532 2.825-3.14 4.66-5.953 4.6-1.775-.036-3.417-.905-3.164-2.91.314-2.354 2.741-3.018 4.758-3.248 1.4-.157 3.815-.048 4.914-1.062l-.556 2.62zm19.422-11.422c-.761-.41-1.582-.712-2.451-.724-2.246-.049-4.19 1.557-5.107 3.513h-.145l.652-3.2h-2.789L104.165 32h2.789l1.811-10.48c.52-2.717 2.765-5.494 5.735-5.433a3.224 3.224 0 0 1 1.498.398l1.231-2.62zm15.516-6.592h-2.934L125.525 32h2.922l4.298-24.727zm11.307 6.181H140.2l.7-3.96h-2.789l-.688 3.96h-2.716l-.459 2.657h2.716l-1.907 11.35c-.242 2.643 1.533 4.708 4.201 4.756.664.012 1.365-.048 1.993-.29l-.302-2.595c-.411.072-.821.133-1.244.12-1.666-.024-1.908-1.304-1.739-2.752l1.787-10.59h3.828l.471-2.655zM155.331 32h2.704l2.065-12.219c.411-3.96-1.714-6.508-5.663-6.568-3.247-.048-6.302 1.316-7.751 4.335l2.584.966c1.05-1.86 3.067-2.838 5.179-2.79 2.62.06 2.971 1.787 2.898 4.033v.06c-.434 1.594-3.803 1.304-5.047 1.45-3.501.41-7.449 1.4-7.751 5.565-.254 3.345 2.113 5.566 5.373 5.615 2.342.036 4.491-.99 5.759-2.97l.097-.012-.447 2.535zm1.099-6.713c-.532 2.825-3.14 4.66-5.953 4.6-1.775-.036-3.417-.905-3.163-2.91.314-2.354 2.741-3.018 4.757-3.248 1.4-.157 3.815-.048 4.914-1.062l-.555 2.62zm13.434-18.014h-2.789L162.789 32h2.789l4.286-24.727zm5.475 3.537c1.122-.012 2.004-.881 1.992-2.028a1.91 1.91 0 0 0-1.944-1.86 2 2 0 0 0-1.992 2.017c0 1.099.845 1.896 1.944 1.871zm.639 2.644h-2.776L169.978 32h2.789l3.211-18.546zm17.827 5.567c-.35-3.514-2.922-5.748-6.436-5.808-5.373-.096-8.85 4.649-9.429 9.587-.532 4.72 1.521 9.514 6.846 9.598 3.61.049 6.978-2.173 7.739-5.807l-2.801.012c-.809 2.028-2.62 3.284-4.83 3.236-3.755-.097-4.54-3.973-4.153-7.04.422-3.428 2.668-7.135 6.544-7.026 2.016.06 3.429 1.292 3.791 3.248h2.729z"/><path id="g" d="M2.523 7.273V32H6.23V14.215h.217l7.027 17.531h3.043l7.027-17.507h.217V32h3.707V7.273H22.88l-7.703 18.799h-.29l-7.775-18.8H2.523zM39.59 32.374c4.262 0 6.858-2.294 7.631-4.962l-3.429-.942c-.616 1.666-1.968 2.74-4.214 2.74-3.344 0-5.18-2.305-5.18-6.386 0-4.057 1.945-6.46 4.939-6.46 2.789 0 4.503 2.005 4.503 4.697H32.828v2.813h14.646v-1.557c0-6.46-3.864-9.104-8.126-9.104-5.276 0-8.56 4.02-8.56 9.708 0 5.747 3.344 9.453 8.801 9.453zM66.386 32V7.273h-3.718v8.814h-.194c-.627-1.1-1.92-2.874-4.998-2.874-4.383 0-7.679 3.502-7.679 9.55 0 6.025 3.236 9.587 7.643 9.587 3.042 0 4.407-1.75 5.035-2.886h.277V32h3.634zm-12.979-9.273c0-3.694 1.606-6.363 4.818-6.363 3.187 0 4.684 2.632 4.684 6.363 0 3.755-1.51 6.484-4.684 6.484-3.188 0-4.818-2.753-4.818-6.484zM72.163 11.33c1.376 0 2.318-1.002 2.318-2.197 0-1.135-.942-2.197-2.318-2.197-1.376 0-2.342 1.062-2.342 2.197 0 1.195.966 2.197 2.342 2.197zm1.86 2.125h-3.707V32h3.706V13.454zm15.365 10.77c0 3.2-2.016 4.733-4.129 4.733-2.089 0-3.61-1.364-3.61-3.84V13.455h-3.707v11.724c0 5.035 3.212 7.064 6.062 7.064 2.583 0 4.37-1.268 5.336-2.645h.193V32h3.574V13.454h-3.719v10.77zm21.678-3.815c0-2.427 1.28-3.912 3.465-3.912 1.473 0 3.2.833 3.2 3.49V32h3.719V20.047c0-4.806-2.512-6.834-5.615-6.834-2.595 0-4.636 1.558-5.312 3.091h-.193c-.809-1.775-2.415-3.09-4.709-3.09-2.33 0-4.129 1.508-4.83 3.005h-.181v-2.765h-3.658V32h3.707V20.735c0-2.692 1.738-4.238 3.622-4.238 1.859 0 3.103 1.014 3.103 3.55V32h3.682V20.41z"/><path id="h" d="M4.999 7.273L.712 32h3.623l3.15-17.809.23.012 3.755 17.543h2.982l9.853-17.543h.18L21.31 32h3.623l4.286-24.727h-4.564l-10.77 18.823-.266-.012L9.381 7.273H5zm32.9 25.101c3.296.049 6.894-1.606 7.908-4.962l-3.284-.918c-.869 1.8-2.523 2.777-4.515 2.729-3.574-.072-4.226-3.344-3.852-6.315.386-3.15 2.27-6.652 5.892-6.544 2.656.073 3.84 2.27 3.417 4.71l-10.6-.013-.448 2.813h14.236l.217-1.557c.543-4.66-1.51-9.044-6.665-9.116-5.53-.072-9.043 4.673-9.61 9.792-.544 4.998 1.92 9.32 7.304 9.381zM64.129 32l4.298-24.727h-3.634l-1.618 8.838-.217-.012c-.773-1.884-2.476-2.826-4.48-2.874-5.3-.133-8.295 4.938-8.862 9.623-.507 4.262.905 9.454 6.037 9.514 2.282.036 4.02-1.086 5.276-2.922h.205L60.58 32h3.55zm-10.976-9.188c.435-3.115 2.307-6.568 5.905-6.46 3.38.109 3.646 3.659 3.272 6.29-.423 3.092-2.162 6.702-5.784 6.581-3.392-.109-3.767-3.743-3.392-6.411zm21.11-11.47c1.269 0 2.307-1.015 2.27-2.294-.035-1.208-1.062-2.137-2.245-2.125-1.244.012-2.306 1.026-2.282 2.282.024 1.231 1.038 2.149 2.258 2.137zm1.087 2.112h-3.622L68.505 32h3.622l3.223-18.546zm13.266 10.77c-.399 2.5-2.198 4.842-4.939 4.745-2.185-.084-2.933-1.883-2.68-3.839l1.98-11.675h-3.622l-1.992 11.723c-.41 3.369 1.05 6.979 4.89 7.076 2.221.06 4.153-.978 5.542-2.669l.12-.012L87.372 32h3.502l3.223-18.546h-3.634l-1.847 10.77zm22.233-3.815c.35-2.161 1.799-4.008 4.153-3.924 1.968.073 2.56 1.739 2.343 3.49L115.304 32h3.634l2.029-11.953c.374-3.248-.725-6.774-4.504-6.834-2.294-.048-4.383 1.183-5.602 3.091l-.169.012c-.531-1.895-2.21-3.067-4.141-3.103-2.162-.048-3.997 1.244-5.096 3.03h-.108l.603-2.788h-3.585L95.153 32h3.61l1.932-11.265c.362-2.15 1.968-4.334 4.358-4.25 2.065.073 2.476 1.763 2.246 3.55L105.271 32h3.598l1.98-11.59zm29.664-13.136h-3.743L132.484 32h3.743l4.286-24.727zm11.297 6.181h-3.526l.689-3.96h-3.623l-.688 3.96h-2.487l-.531 3.043h2.499l-1.811 10.758c-.266 2.729 1.57 4.938 4.347 4.987.796.012 1.726-.037 2.463-.363l-.35-3.115a5.208 5.208 0 0 1-1.232.133c-1.449-.024-1.654-1.075-1.497-2.366l1.702-10.034h3.502l.543-3.043zM162.416 32h3.441l2.089-12.327c.41-3.997-2.053-6.4-5.94-6.46-3.357-.06-6.726 1.473-7.957 4.77l3.368.905c.821-1.679 2.56-2.62 4.407-2.56 2.017.048 2.765 1.377 2.524 3.272l-.024.145c-.326 1.461-3.357 1.256-4.431 1.364-3.538.375-7.583 1.558-7.848 5.735-.23 3.309 2.125 5.518 5.36 5.566 2.162.025 4.13-.845 5.325-2.656h.072L162.416 32zm.93-6.472c-.471 2.379-2.765 3.924-5.12 3.864-1.509-.036-2.837-.797-2.595-2.475.301-2.173 2.475-2.801 4.358-3.019 1.147-.132 3.031-.084 3.924-.917l-.567 2.547zm14.675-18.255h-3.622L170.112 32h3.61l4.299-24.727zm5.453 4.069c1.268 0 2.306-1.015 2.27-2.294-.036-1.208-1.062-2.137-2.246-2.125-1.243.012-2.306 1.026-2.282 2.282.025 1.231 1.039 2.149 2.258 2.137zm1.087 2.112h-3.622L177.715 32h3.622l3.224-18.546zm17.811 5.748c-.471-3.623-3.055-5.929-6.737-5.989-5.409-.084-8.935 4.564-9.49 9.587-.544 4.781 1.654 9.502 6.99 9.574 3.671.06 7.172-2.173 7.969-5.88l-3.513-.277c-.689 1.859-2.306 3.054-4.323 3.006-3.417-.097-3.912-3.695-3.574-6.411.387-3.115 2.27-6.556 5.832-6.448 1.944.073 3.055 1.316 3.405 3.152l3.441-.314z"/><path id="i" d="M11.869 32c5.614 0 8.415-2.753 8.415-6.665 0-3.417-2.137-5.675-4.878-5.988v-.194c2.644-.627 4.25-2.282 4.25-5.18 0-3.85-2.753-6.7-8.476-6.7H2.113V32h9.756zM6.882 11.281h4.202c2.922 0 3.876 1.497 3.876 3.212 0 2.125-1.437 3.248-4.142 3.248H6.882v-6.46zm8.754 13.523c0 1.92-1.171 3.188-4.07 3.188H6.883v-6.786h4.866c2.608 0 3.888 1.654 3.888 3.598zm15.621 7.546c5.313 0 8.633-3.948 8.633-9.587 0-5.674-3.32-9.55-8.633-9.55-5.324 0-8.633 3.876-8.633 9.55 0 5.639 3.309 9.587 8.633 9.587zm0-3.84c-2.934 0-4.141-2.462-4.141-5.747 0-3.296 1.207-5.747 4.141-5.747 2.922 0 4.142 2.451 4.142 5.748 0 3.284-1.22 5.747-4.142 5.747zM47.534 7.274h-4.697V32h4.697V7.273zM67.33 32V7.273h-4.684v8.476h-.194c-.627-1.268-2.088-2.536-4.564-2.536-4.02 0-7.389 3.26-7.389 9.526 0 6.194 3.236 9.587 7.377 9.587 2.463 0 3.949-1.244 4.576-2.523h.254V32h4.624zm-12.376-9.273c0-3.453 1.389-5.71 4.166-5.71 2.85 0 3.96 2.438 3.96 5.71 0 3.248-1.099 5.784-3.96 5.784-2.753 0-4.166-2.319-4.166-5.784z"/><path id="j" d="M10.057 32c4.299.024 8.694-1.98 9.068-6.75.181-2.402-.942-5.59-3.755-5.795l.133-.374c2.873-.47 4.757-2.234 4.974-5.204.338-4.515-3.248-6.52-7.329-6.592L4.6 7.273.314 32h9.743zM8.56 11.281l4.323.012c1.968.06 3.248 1.027 2.922 3.091-.387 2.451-2.536 3.369-4.806 3.369l-3.562-.012 1.123-6.46zm6.122 13.426c-.375 2.415-2.511 3.297-4.745 3.297l-4.274-.013 1.183-6.785 4.962.012c2.04.073 3.188 1.461 2.874 3.49zm14.933 7.643c5.494.085 9.056-4.528 9.611-9.659.531-4.854-1.811-9.405-7.148-9.478-5.505-.084-9.055 4.467-9.61 9.623-.52 4.842 1.81 9.442 7.147 9.514zm.193-3.827c-3.03-.097-3.247-3.32-2.946-5.687.339-2.753 1.787-5.928 5.023-5.832 3.043.097 3.248 3.333 2.958 5.687-.35 2.753-1.799 5.928-5.035 5.832zm20.105-21.25h-4.589L41.038 32h4.588l4.287-24.727zM65.073 32L69.37 7.273h-4.576l-1.57 8.5h-.23c-.64-1.727-2.39-2.5-4.129-2.548-5.215-.133-8.005 5.071-8.536 9.599-.483 4.141.737 9.442 5.808 9.514 2.016.036 3.706-.87 4.769-2.56l.169-.012-.52 2.234h4.516zm-10.384-9.176c.374-2.777 1.932-5.928 5.167-5.82 2.983.109 2.983 3.405 2.669 5.65-.374 2.693-1.751 5.977-4.975 5.869-3.006-.097-3.187-3.393-2.861-5.7zM87.28 7.273h-4.66L78.335 32h4.648l4.298-24.727zm11.592 6.181h-3.15l.7-3.96h-4.589l-.688 3.96h-2.234l-.615 3.478h2.245L88.84 27.038c-.278 2.8 1.594 5.143 4.455 5.191.93.025 2.222.025 3.08-.422l-.4-3.67c-.398.072-.796.144-1.207.132-1.22-.012-1.4-.833-1.255-1.92l1.617-9.417h3.128l.615-3.477zM109.08 32h4.298l2.101-12.448c.423-4.033-2.403-6.279-6.218-6.339-3.514-.048-7.256 1.618-8.198 5.264l4.226.821c.615-1.449 1.956-2.354 3.549-2.306 1.473.049 2.319.954 2.101 2.427l-.06.278c-.35 1.292-2.668 1.159-3.683 1.255-3.61.338-7.727 1.667-7.993 5.917-.205 3.272 2.113 5.47 5.325 5.517 1.932.024 3.707-.7 4.83-2.294l.06-.012-.338 1.92zm.761-6.17c-.387 1.86-2.343 3.055-4.178 3.019-1.232-.037-2.185-.713-1.98-2.04.314-1.957 2.209-2.512 3.912-2.717.893-.109 2.137-.145 2.837-.761l-.591 2.5zm16.457-18.557h-4.588L117.424 32h4.588l4.286-24.727zm5.755 4.648c1.436 0 2.656-1.123 2.62-2.596-.037-1.352-1.208-2.402-2.548-2.402-1.413 0-2.668 1.135-2.632 2.583.036 1.377 1.207 2.415 2.56 2.415zm1.63 1.534h-4.589L125.883 32h4.588l3.212-18.546zm18.166 5.952c-.628-3.743-3.2-6.134-7.063-6.194-5.47-.084-9.044 4.467-9.599 9.587-.531 4.853 1.787 9.478 7.148 9.55 3.73.06 7.389-2.173 8.258-5.952l-4.286-.616c-.616 1.654-1.956 2.801-3.779 2.74-3.031-.084-3.236-3.392-2.946-5.722.338-2.729 1.811-5.892 5.022-5.784 1.848.073 2.645 1.365 2.959 3.03l4.286-.639z"/><path id="k" d="M2.266 11l.504-1.5H5.7l.503 1.5h1.953L5.203 3H3.266L.312 11h1.954zm1.921-5.734h.094l.934 2.78H3.254l.933-2.78zM12.392 11h1.719V6.937c0-1.343-1.032-2.015-2.422-2.015-1.453 0-2.422.734-2.61 1.844l1.657.25c.109-.422.406-.672.828-.672.406 0 .734.234.734.547v.125c0 .28-.469.328-.86.359-1.702.14-2.452.875-2.452 1.938 0 1.156.875 1.796 1.968 1.796.766 0 1.204-.312 1.391-.625h.047V11zm-.094-1.922c0 .422-.469.735-.937.735-.391 0-.641-.22-.641-.547 0-.438.234-.688.953-.766.219-.031.531-.094.625-.188v.766zM18.732 11c1.781 0 2.75-.875 2.75-2.172 0-1.031-.61-1.781-1.563-1.906v-.059c.989-.203 1.407-.82 1.407-1.676 0-1.28-.938-2.187-2.875-2.187h-3v8h3.281zm-1.469-6.5h1.14c.892 0 1.126.453 1.126.938 0 .609-.36.89-1.235.89h-1.03V4.5zm2.438 4.078c0 .578-.328.922-1.11.922h-1.328V7.578h1.39c.75 0 1.048.453 1.048 1zM22.642 3v8h1.782v-.61h.078c.203.454.719.704 1.344.704 1.265 0 2.312-1.047 2.312-3.094 0-2.094-1.11-3.078-2.313-3.078-.624 0-1.14.266-1.343.719h-.063V3h-1.797zm3.829 5c0 1.047-.391 1.672-1.157 1.672-.843 0-1.078-.766-1.078-1.672 0-.922.25-1.656 1.078-1.656.766 0 1.157.61 1.157 1.656zm9.613-2.484c-.437-1.688-1.734-2.625-3.328-2.625-2.031 0-3.531 1.515-3.531 4.125 0 2.593 1.5 4.093 3.531 4.093 1.594 0 2.875-.921 3.313-2.578l-1.766-.25c-.234.813-.797 1.203-1.547 1.203-1.016 0-1.703-.703-1.703-2.468 0-1.766.687-2.5 1.703-2.5.75 0 1.344.406 1.578 1.25l1.75-.25zm6.496 1.453c-.25-1.25-1.25-2.047-2.656-2.047-1.765 0-2.828 1.266-2.828 3.078 0 1.813 1.063 3.11 2.828 3.11 1.36 0 2.36-.766 2.64-1.954L40.91 8.86c-.141.485-.438.813-.985.813C39.112 9.672 38.8 9 38.8 8s.313-1.656 1.125-1.656c.594 0 .875.36 1.016.937l1.64-.312zM3.89 16H2.267c0 .063-.157 1.344-1.641 1.344v1.437c.844 0 1.375-.187 1.563-.5h.062V24h1.64v-8zm7.71 6.5H8.584v-.047L9.6 21.406c1.11-1.156 1.781-2.031 1.781-3.14 0-1.407-1.094-2.375-2.61-2.375-1.702 0-2.765 1.218-2.765 2.687h1.735c0-.719.375-1.265 1-1.265.578 0 .921.468.921 1.015 0 .453-.234 1.016-.968 1.766L6.1 22.687V24h5.5v-1.5zm3.16-1.75h.86c.734 0 1.172.219 1.172 1.016 0 .53-.407.937-1.094.937-.578 0-1.047-.375-1.047-.875h-1.734c0 1.594 1.421 2.281 2.718 2.281 1.64 0 2.875-.843 2.875-2.312 0-.926-.508-1.555-1.383-1.84.79-.371 1.258-1.086 1.258-1.832 0-1.453-1.11-2.234-2.75-2.234-1.406 0-2.61.796-2.61 2.125h1.735c0-.453.453-.72.938-.72.656 0 .969.407.969.876 0 .61-.344 1.078-1.047 1.078h-.86v1.5zm11.036.188h-1.188V16h-1.797l-3.187 5.234v1.203h3.375V24h1.61v-1.563h1.187v-1.5zm-4.375 0l1.39-2.391.188-.32v2.71H21.42zm7.037-.516c.156-.188.438-.406.969-.406.812 0 1.172.515 1.172 1.343 0 .672-.235 1.344-.985 1.344-.718 0-.922-.61-.968-1.172H26.91c0 1.438 1.016 2.578 2.719 2.578 1.844 0 2.688-1.328 2.688-2.734 0-1.547-1-2.61-2.329-2.61-.64 0-1.047.25-1.187.454h-.031l.187-1.719h3.11V16h-4.516l-.469 4.078 1.375.344zm8.895-2.297h1.687c-.265-1.375-1.14-2.266-2.703-2.266-2.218 0-2.78 1.75-2.78 4.438v.312c0 2.25 1.187 3.5 2.843 3.5 1.594 0 2.703-1.156 2.703-2.703 0-1.437-.953-2.687-2.438-2.687-1.406 0-1.937 1.11-1.937 1.968l.453.438c0-.531.406-1.016 1.078-1.016.688 0 1.11.516 1.11 1.297 0 .782-.422 1.297-1.063 1.297-.61 0-1.125-.469-1.125-1.484v-1.36c0-1.843.375-2.562 1.188-2.562.53 0 .859.312.984.828zM46.023 16h-5.5v1.5h3.546L41.335 24h1.828l2.86-7.031V16zm6.367 5.797c0-.887-.461-1.547-1.2-1.914.649-.36 1.043-.973 1.043-1.742 0-1.47-1.046-2.25-2.546-2.25-1.47 0-2.532.78-2.532 2.25 0 .765.399 1.379 1.047 1.738-.742.367-1.219 1.031-1.219 1.918 0 1.531 1.172 2.312 2.72 2.312 1.546 0 2.687-.78 2.687-2.312zm-1.891-3.563c0 .578-.266.953-.797.953s-.812-.375-.812-.953.28-.906.797-.906c.53 0 .812.344.812.906zm.156 3.422c0 .64-.375 1.016-.953 1.016s-.984-.375-.984-1.016c0-.656.406-1.047.968-1.047.579 0 .97.391.97 1.047zm4.75.219h-1.687c.266 1.375 1.14 2.266 2.703 2.266 2.219 0 2.781-1.75 2.781-4.438v-.312c0-2.25-1.187-3.5-2.843-3.5-1.594 0-2.703 1.156-2.703 2.703 0 1.437.953 2.687 2.437 2.687 1.406 0 1.938-1.11 1.938-1.968l-.454-.438c0 .531-.406 1.016-1.078 1.016-.687 0-1.11-.516-1.11-1.297 0-.782.423-1.297 1.063-1.297.61 0 1.125.469 1.125 1.484v1.36c0 1.843-.375 2.562-1.187 2.562-.531 0-.86-.312-.984-.828zm10.717-2.578c0-2.235-1.22-3.406-2.844-3.406-1.625 0-2.844 1.171-2.844 3.406v1.328c0 2.36 1.203 3.484 2.844 3.484 1.625 0 2.844-1.125 2.844-3.484v-1.328zm-1.766 1.562c0 1.328-.469 1.766-1.078 1.766-.625 0-1.078-.438-1.078-1.766v-1.797c0-1.203.453-1.703 1.078-1.703s1.078.5 1.078 1.703v1.797z"/><path id="l" d="M11.88 32c5.506 0 8.5-2.704 8.5-6.713 0-3.188-1.883-5.506-4.829-5.892v-.181c3.055-.628 4.347-2.536 4.347-5.18 0-3.96-2.898-6.761-8.887-6.761H1.74V32h10.14zM7.34 11.91h3.527c2.752 0 3.477 1.4 3.477 2.897 0 1.883-1.111 2.753-3.816 2.753H7.341v-5.65zm7.535 12.604c0 1.787-1.014 2.85-3.429 2.85H7.341v-5.94h4.298c2.318 0 3.236 1.4 3.236 3.09zM28.501 7.273h-5.553V32H28.5V7.273zM41.588 32H46.9V19.443c0-4.153-3.187-6.23-7.486-6.23-4.491 0-7.486 2.27-8.065 5.699l5.12.773c.337-1.304 1.255-2.077 2.559-2.077 1.256 0 2.27.724 2.27 1.69v.387c0 .869-1.45 1.014-2.656 1.11-5.265.435-7.583 2.705-7.583 5.99 0 3.573 2.705 5.553 6.085 5.553 2.367 0 3.72-.966 4.299-1.932h.145V32zm-.29-5.94c0 1.304-1.45 2.27-2.898 2.27-1.207 0-1.98-.677-1.98-1.69 0-1.353.724-2.126 2.946-2.367.676-.097 1.642-.29 1.932-.58v2.367zm24.9-6.52c-.772-3.864-3.863-6.327-8.21-6.327-5.457 0-8.742 3.912-8.742 9.514 0 5.602 3.285 9.611 8.742 9.611 4.202 0 7.293-2.366 8.162-6.037l-5.12-.917c-.434 1.497-1.352 2.51-3.042 2.51-2.511 0-3.477-2.076-3.477-5.167 0-3.09.966-5.119 3.477-5.119 1.835 0 2.705 1.11 3.14 2.898l5.07-.966zM80.09 32h5.989l-6.943-10.637 6.653-7.909h-6.423l-4.926 6.134h-.242V7.273h-5.554V32h5.554v-5.53l1.353-1.545L80.09 32z"/><path id="m" d="M10.106 32c4.322.024 8.741-2.004 9.116-6.798.18-2.378-.954-5.481-3.731-5.674l.145-.399c2.958-.41 4.841-2.149 5.07-5.18.35-4.708-3.597-6.604-7.763-6.664l-8.705-.012L-.048 32h10.154zM8.91 11.91l3.682.011c1.799.06 2.886.906 2.572 2.777-.387 2.282-2.39 2.886-4.443 2.886l-2.85-.036 1.039-5.639zm5.083 12.495c-.35 2.138-2.09 2.97-4.093 2.97l-3.743-.023 1.098-5.929 4.444.012c1.787.073 2.571 1.244 2.294 2.97zM30.868 7.273h-5.421L21.16 32h5.422l4.286-24.727zM39.644 32h5.035l2.137-12.557c.434-4.057-2.753-6.182-6.472-6.23-3.67-.06-7.74 1.763-8.416 5.711l4.987.76c.447-1.219 1.413-2.149 2.79-2.1.965.036 1.895.604 1.726 1.678l-.085.386c-.35 1.123-2.1 1.087-3.042 1.148-3.695.277-7.873 1.799-8.114 6.073-.193 3.247 2.113 5.433 5.3 5.481 1.751.024 3.345-.555 4.395-1.98h.049l-.29 1.63zm.603-5.928c-.338 1.4-1.931 2.33-3.32 2.282-.978-.037-1.594-.616-1.437-1.606.278-1.8 1.932-2.258 3.49-2.487.64-.097 1.364-.194 1.871-.616l-.604 2.427zm25.927-6.496c-.785-3.827-3.393-6.303-7.39-6.363-5.529-.084-9.14 4.383-9.694 9.587-.52 4.926 1.92 9.466 7.292 9.538 3.803.06 7.595-2.185 8.5-6.049l-4.95-.893c-.543 1.46-1.666 2.571-3.308 2.511-2.68-.085-2.62-3.127-2.379-5.107.29-2.415 1.4-5.3 4.298-5.192 1.739.072 2.294 1.4 2.584 2.922l5.047-.954zM78.122 32h5.663l-4.926-10.396 8.065-8.137-6.64-.013-5.844 6.182h-.145l2.27-12.363h-5.421L66.857 32h5.421l.918-5.313 1.763-1.714L78.122 32zm26.366-24.727h-5.47L94.732 32h5.457l4.299-24.727zm11.549 6.181l-2.873-.011.761-3.949h-5.446l-.688 3.96h-2.016l-.664 3.864h2.016l-1.606 9.514c-.29 2.898 1.606 5.337 4.576 5.41 1.026.024 2.668.072 3.586-.496l-.471-4.177c-.386.072-.761.145-1.147.133-1.014-.012-1.171-.592-1.05-1.522l1.521-8.862h2.813l.688-3.864zM125.559 32h5.035l2.137-12.557c.434-4.057-2.753-6.182-6.472-6.23-3.67-.06-7.739 1.763-8.415 5.711l4.986.76c.447-1.219 1.413-2.149 2.789-2.1.966.036 1.896.604 1.727 1.678l-.085.386c-.35 1.123-2.101 1.087-3.042 1.148-3.695.277-7.873 1.799-8.114 6.073-.193 3.247 2.113 5.433 5.3 5.481 1.751.024 3.345-.555 4.395-1.98h.049l-.29 1.63zm.603-5.928c-.338 1.4-1.931 2.33-3.32 2.282-.978-.037-1.594-.616-1.437-1.606.278-1.8 1.932-2.258 3.49-2.487.64-.097 1.364-.194 1.871-.616l-.604 2.427zm17.699-18.8h-5.421L134.153 32h5.422l4.286-24.727zm5.721 5.18c1.569.012 2.958-1.255 2.91-2.861-.037-1.497-1.341-2.656-2.826-2.668-1.557-.012-2.994 1.243-2.946 2.861.049 1.51 1.389 2.656 2.862 2.668zm2.089 1.002h-5.421L143.026 32h5.421l3.224-18.546zm18.199 6.122c-.785-3.827-3.393-6.303-7.389-6.363-5.53-.084-9.14 4.383-9.695 9.587-.52 4.926 1.919 9.466 7.292 9.538 3.803.06 7.595-2.185 8.5-6.049l-4.95-.893c-.543 1.46-1.666 2.571-3.308 2.511-2.681-.085-2.62-3.127-2.379-5.107.29-2.415 1.401-5.3 4.298-5.192 1.739.072 2.294 1.4 2.584 2.922l5.047-.954z"/></defs></svg>