<svg width="888" height="165" viewBox="0 0 888 165" xmlns="http://www.w3.org/2000/svg" xmlns:xlink="http://www.w3.org/1999/xlink"><title>weights-and-styles</title><desc>Created using Figma</desc><g transform="translate(-3365 4330)"><clipPath id="a" clip-rule="evenodd"><path d="M3365-4330h888v165h-888v-165z" fill="#FFF"/></clipPath><g clip-path="url(#a)"><use xlink:href="#b" transform="translate(3364 -4330)"/><use xlink:href="#c" transform="translate(3364 -4231.36)"/><use xlink:href="#d" transform="translate(3608.52 -4231.36)"/><use xlink:href="#e" transform="translate(3865.42 -4231.36)"/><use xlink:href="#f" transform="translate(3364 -4288.96)"/><use xlink:href="#g" transform="translate(3608.52 -4330)"/><use xlink:href="#h" transform="translate(3608.52 -4288.96)"/><use xlink:href="#i" transform="translate(3865.42 -4330)"/><use xlink:href="#j" transform="translate(3865.42 -4288.96)"/><use xlink:href="#k" transform="translate(4079 -4231.36)"/><use xlink:href="#l" transform="translate(4079 -4330)"/><use xlink:href="#m" transform="translate(4079 -4288.96)"/></g></g><defs><path id="b" d="M16.952 33h3.477l-5.337-10.275c2.862-1.171 4.468-3.477 4.468-6.87 0-4.105-2.415-7.582-8.307-7.582H2.994V33H5.99v-9.61h6.049L16.952 33zM5.989 10.929h5.264c4.395 0 5.36 2.608 5.36 4.926 0 2.753-1.352 4.781-5.698 4.781H5.989V10.93zm24.865 22.457c3.767 0 6.52-1.883 7.39-4.684l-2.754-.773c-.724 1.932-2.366 2.898-4.636 2.898-3.357 0-5.47-2.125-5.76-6.134h13.439v-1.207c0-6.907-4.105-9.273-7.969-9.273-5.023 0-8.355 3.96-8.355 9.66 0 5.698 3.284 9.513 8.645 9.513zm-.29-16.613c3.091 0 5.071 2.318 5.071 5.457h-10.48c.459-3.477 2.56-5.457 5.41-5.457zm24.44-2.319v2.947h-.29c-.628-.966-1.787-3.188-5.41-3.188-4.684 0-7.92 3.719-7.92 9.418 0 5.795 3.381 9.08 7.873 9.08 3.622 0 4.78-2.126 5.409-3.14h.241v3.284c.049 3.091-2.415 4.54-5.264 4.54-3.188 0-4.492-1.835-5.216-2.753l-2.27 1.594c1.16 1.98 3.526 3.719 7.486 3.719 4.298 0 8.114-2.029 8.114-6.81v-18.69h-2.753zm-10.77 9.128c0-3.767 1.787-6.81 5.409-6.81 3.477 0 5.313 2.802 5.313 6.81 0 4.105-1.884 6.569-5.313 6.569-3.574 0-5.41-2.705-5.41-6.569zM73.98 25.66c0 3.477-2.656 4.83-4.781 4.83-2.367 0-4.057-1.546-4.057-4.25V14.454h-2.85V26.24c0 4.877 3.285 7.003 5.99 7.003 2.8 0 4.587-1.45 5.505-2.85h.193V33h2.85V14.454h-2.85V25.66zM84.218 8.273h-2.85V33h2.85V8.273zM99.865 33h2.849V20.781c0-5.892-4.491-6.568-6.858-6.568-2.8 0-5.988.966-7.437 4.347l2.704.966c.628-1.353 2.125-2.802 4.878-2.802 2.222 0 3.864.966 3.864 4.057v.049c0 1.207-2.222 1.11-4.781 1.448-3.478.435-7.197 1.256-7.197 5.458 0 3.622 2.802 5.699 6.327 5.699 3.236 0 4.926-1.739 5.506-2.946h.145V33zm0-6.713c0 2.318-1.835 4.588-5.216 4.588-2.27 0-3.912-1.014-3.912-2.994 0-2.174 1.98-2.85 4.202-3.14 1.207-.144 4.443-.482 4.926-1.062v2.608zm17.609-11.446c-.58-.338-1.498-.676-2.463-.676-2.174 0-4.202 1.69-4.733 3.477h-.194v-3.188h-2.849V33h2.849V22.52c.049-2.511 1.787-5.41 4.83-5.41.821 0 1.304.242 1.594.387l.966-2.656z"/><path id="c" d="M2.122 17l1.234-3.503h5.459L10.048 17h1.662L6.903 3.91H5.267L.46 17h1.662zM6.01 5.98h.153l2.154 6.11H3.854L6.01 5.98zM19.698 17h1.508v-6.469c0-3.12-2.378-3.477-3.63-3.477-1.484 0-3.171.511-3.938 2.301l1.432.511c.332-.715 1.125-1.482 2.582-1.482 1.176 0 2.046.51 2.046 2.147v.026c0 .639-1.177.588-2.532.767-1.84.23-3.81.665-3.81 2.89 0 1.917 1.484 3.016 3.35 3.016 1.713 0 2.608-.92 2.915-1.56h.077V17zm0-3.554c0 1.227-.972 2.429-2.762 2.429-1.201 0-2.07-.537-2.07-1.585 0-1.15 1.047-1.509 2.224-1.662.639-.077 2.352-.256 2.608-.563v1.381zM29.254 17c3.094 0 4.372-1.508 4.372-3.477 0-2.071-1.432-3.196-2.633-3.273v-.121c1.118-.3 2.122-1.042 2.122-2.743 0-1.917-1.279-3.477-4.014-3.477h-4.577V17h4.73zM26.11 5.315h2.992c1.738 0 2.505.92 2.505 2.071 0 1.381-1.125 2.276-2.557 2.276h-2.94V5.315zm6.009 8.208c0 1.15-.793 2.07-2.864 2.07H26.11v-4.55h3.222c1.713 0 2.787 1.15 2.787 2.48zm4.268-9.614V17h1.458v-1.508h.179c.332.536.971 1.712 2.863 1.712 2.455 0 4.168-1.968 4.168-5.088 0-3.093-1.713-5.062-4.193-5.062-1.918 0-2.506 1.176-2.838 1.687h-.128V3.91h-1.509zm7.16 8.182c0 2.097-.972 3.758-2.864 3.758-1.815 0-2.813-1.534-2.813-3.758 0-2.199.972-3.682 2.813-3.682 1.917 0 2.864 1.61 2.864 3.682zM58.454 8c-.486-2.685-2.634-4.27-5.267-4.27-3.35 0-5.779 2.583-5.779 6.724 0 4.143 2.43 6.725 5.779 6.725 2.633 0 4.781-1.585 5.267-4.27h-1.585c-.384 1.815-1.944 2.787-3.682 2.787-2.378 0-4.244-1.84-4.244-5.242 0-3.4 1.866-5.24 4.244-5.24 1.738 0 3.298.97 3.682 2.786h1.585zm10.566 2.122c-.255-1.84-1.815-3.068-3.886-3.068-2.66 0-4.423 2.097-4.423 5.037 0 3.017 1.713 5.114 4.449 5.114 2.173 0 3.605-1.33 3.86-3.069h-1.508c-.281 1.074-1.176 1.713-2.352 1.713-1.79 0-2.94-1.482-2.94-3.758 0-2.225 1.175-3.682 2.94-3.682 1.33 0 2.122.818 2.352 1.713h1.508zM5.548 25.91h-1.33c-.153.154-.996 1.943-3.042 1.943v1.33c1.509 0 2.583-.614 2.761-.972h.103V39h1.508V25.91zm12.553 11.685h-6.417v-.077l3.528-3.605c1.355-1.38 2.557-2.966 2.557-4.474 0-2.148-1.637-3.708-4.04-3.708-2.813 0-3.938 2.148-3.938 4.27h1.56c0-1.509.563-2.966 2.327-2.966 1.585 0 2.557 1.15 2.557 2.455 0 1.125-.742 1.994-2.327 3.63l-4.602 4.73V39H18.1v-1.406zm5.757-4.5h.741c1.585 0 2.736.792 2.736 2.352 0 1.585-1.176 2.378-2.634 2.378-1.457 0-2.275-.793-2.275-2.097h-1.637c0 2.25 1.637 3.452 3.938 3.452 2.327 0 4.27-1.38 4.27-3.733 0-1.157-.48-2.557-2.212-3.145 1.38-.671 1.93-2.013 1.93-2.94 0-2.378-1.661-3.63-3.937-3.63-2.506 0-3.86 1.533-3.86 3.45h1.508c0-1.278.92-2.198 2.327-2.198 1.406 0 2.403.895 2.403 2.352 0 1.253-.92 2.301-2.557 2.301h-.741v1.458zm16.776 2.045h-1.79v-9.23h-1.662l-5.906 9.64v.996h6.162V39h1.406v-2.455h1.79V35.14zm-7.39 0l3.938-6.596.256-.85v7.446h-4.193zm11.28-2.199c.588-.485 1.304-.818 2.506-.818 1.355 0 2.736.818 2.736 2.813 0 1.79-1.356 2.889-2.839 2.889-1.33 0-2.25-.69-2.505-2.097h-1.534c.23 2.404 1.866 3.452 3.937 3.452 2.813 0 4.449-1.764 4.449-4.27 0-2.557-1.688-4.219-4.244-4.219-.895 0-1.79.384-2.276.767h-.077l.537-4.04h5.472V25.91h-6.904l-.766 6.699 1.508.332zm16.035-3.758h1.508c-.46-2.25-1.738-3.477-3.81-3.477-2.99 0-4.397 2.556-4.397 6.596v.435c0 4.193 1.406 6.443 4.27 6.443 2.71 0 4.142-2.02 4.142-4.219 0-2.173-1.432-4.193-3.938-4.193-1.022 0-2.135.339-2.908 1.189.09-3.938 1.496-4.82 2.857-4.82 1.534 0 1.97 1.125 2.276 2.046zm-2.25 2.991c1.79 0 2.454 1.33 2.454 2.787 0 1.764-.997 2.838-2.505 2.838-1.42 0-2.685-.952-2.71-2.908.025-1.636 1.144-2.717 2.76-2.717zm14.654-6.264h-8.182v1.483h6.648L66.009 39h1.738l5.216-11.454v-1.637zM83.4 35.293c0-1.528-.774-2.66-1.976-3.254 1.017-.524 1.669-1.483 1.669-2.908 0-2.225-1.637-3.4-3.81-3.4-2.199 0-3.86 1.175-3.86 3.4 0 1.419.632 2.378 1.642 2.902-1.195.594-1.95 1.725-1.95 3.26 0 2.377 1.841 3.886 4.168 3.886 2.301 0 4.117-1.534 4.117-3.886zm-1.79-6.111c0 1.278-1.125 2.199-2.327 2.199-1.227 0-2.378-.92-2.378-2.225 0-1.304 1.15-2.07 2.327-2.07 1.253 0 2.378.843 2.378 2.096zm.23 6.11c0 1.381-1.1 2.557-2.557 2.557-1.457 0-2.633-1.176-2.633-2.582s1.176-2.608 2.582-2.608 2.608 1.202 2.608 2.634zm6.038.435h-1.509c.46 2.25 1.739 3.478 3.81 3.478 2.991 0 4.398-2.557 4.398-6.597v-.435c0-4.193-1.407-6.443-4.27-6.443-2.71 0-4.142 2.02-4.142 4.219 0 2.173 1.431 4.193 3.937 4.193 1.023 0 2.135-.339 2.908-1.189-.09 3.938-1.495 4.82-2.857 4.82-1.534 0-1.969-1.125-2.275-2.046zm-.205-5.778c0-1.764.997-2.838 2.506-2.838 1.419 0 2.684.952 2.71 2.908-.026 1.637-1.144 2.717-2.761 2.717-1.79 0-2.455-1.33-2.455-2.787zm18.157 1.764c0-3.835-1.508-5.983-4.346-5.983-2.864 0-4.398 2.148-4.398 5.983v1.253c0 3.86 1.56 6.213 4.423 6.213 2.838 0 4.321-2.352 4.321-6.213v-1.253zm-1.585 1.534c0 2.455-.869 4.526-2.736 4.526-1.892 0-2.838-2.071-2.838-4.526v-1.815c0-2.48.92-4.296 2.813-4.296 1.866 0 2.761 1.816 2.761 4.296v1.815z"/><path id="d" d="M2.627 17l1.1-3.17H8.98l1.1 3.17h2.153L7.421 3.91H5.293L.479 17h2.148zm3.65-10.496h.153l1.95 5.613H4.327l1.95-5.613zM19.88 17h1.93v-6.526c0-2.826-2.16-3.42-3.74-3.42-1.77 0-3.425.735-4.045 2.531l1.86.428c.255-.69.99-1.342 2.199-1.342 1.029 0 1.751.505 1.751 1.777v.083c0 .582-1.048.575-2.173.71-2.142.23-3.874.914-3.874 2.979 0 1.91 1.464 2.99 3.273 2.99 1.56 0 2.403-.805 2.73-1.43h.089V17zm-.045-3.426c0 1.06-.908 2.039-2.372 2.039-1.022 0-1.745-.48-1.745-1.362 0-1.016.838-1.387 2.014-1.534.55-.07 1.88-.223 2.103-.48v1.337zM29.705 17c3.036 0 4.41-1.483 4.41-3.503 0-1.95-1.291-3.106-2.608-3.221v-.122c1.221-.313 2.18-1.093 2.18-2.736 0-1.975-1.361-3.509-4.238-3.509H24.77V17h4.935zM26.796 5.648h2.634c1.643 0 2.288.87 2.288 1.905 0 1.252-.952 2.013-2.384 2.013h-2.538V5.648zm5.363 7.721c0 1.08-.71 1.892-2.531 1.892h-2.832v-4.103h2.915c1.56 0 2.448 1.016 2.448 2.211zm4.45-9.46V17h1.924v-1.342h.16c.332.6 1.041 1.527 2.652 1.527 2.333 0 4.046-1.885 4.046-5.075 0-3.202-1.745-5.056-4.065-5.056-1.63 0-2.301.94-2.634 1.521h-.115V3.91H36.61zm6.871 8.182c0 1.975-.863 3.432-2.55 3.432-1.675 0-2.48-1.444-2.48-3.432 0-1.975.792-3.369 2.48-3.369 1.706 0 2.55 1.413 2.55 3.369zm15.182-4.085c-.563-2.71-2.704-4.276-5.325-4.276-3.343 0-5.778 2.55-5.778 6.73 0 4.175 2.435 6.719 5.778 6.719 2.62 0 4.756-1.56 5.312-4.25l-2-.135c-.384 1.662-1.74 2.525-3.312 2.525-2.154 0-3.778-1.617-3.778-4.858 0-3.234 1.624-4.87 3.778-4.87 1.572 0 2.947.875 3.33 2.55l1.995-.135zm10.579 2.206c-.307-1.905-1.892-3.158-4.034-3.158-2.735 0-4.487 2.09-4.487 5.037 0 2.998 1.72 5.107 4.507 5.107 2.186 0 3.681-1.304 4.007-3.113l-1.898-.153c-.262.984-1.023 1.591-2.11 1.591-1.642 0-2.588-1.361-2.588-3.432 0-2.04.959-3.369 2.589-3.369 1.214 0 1.898.742 2.128 1.656l1.886-.166zM5.81 25.909H4.052c-.103.134-.755 2.026-2.928 2.026v1.656c1.47 0 2.48-.518 2.697-.92h.103V39H5.81V25.91zm12.666 11.352h-5.945v-.076l2.928-3.005c1.502-1.54 2.671-3.08 2.671-4.685 0-2.199-1.68-3.765-4.11-3.765-2.806 0-4.129 2.097-4.129 4.308h1.969c0-1.4.582-2.678 2.11-2.678 1.38 0 2.217 1.03 2.217 2.205 0 .997-.626 1.886-2.09 3.388L9.611 37.53V39h8.866v-1.739zm5.568-3.982h.952c1.464 0 2.474.658 2.474 2.135 0 1.355-1.01 2.11-2.359 2.11-1.297 0-2.096-.736-2.096-1.886h-2.02c0 2.365 1.853 3.541 4.097 3.541 2.442 0 4.41-1.38 4.41-3.752 0-1.279-.613-2.544-2.237-3.094 1.355-.652 1.982-1.937 1.982-2.966 0-2.378-1.713-3.637-4.117-3.637-2.442 0-3.995 1.457-3.995 3.458h1.937c0-1.106.863-1.873 2.071-1.873 1.298 0 2.141.825 2.141 2.059 0 1.176-.805 2.135-2.288 2.135h-.952v1.77zm17.188 1.49h-1.84v-8.86H37.32l-5.682 9.294v1.31h5.957V39h1.796v-2.486h1.841v-1.745zm-7.319 0l3.407-5.734.275-.652v6.386h-3.682zm11.361-1.765c.48-.428 1.112-.767 2.205-.767 1.349 0 2.48.825 2.48 2.615 0 1.572-1.048 2.671-2.448 2.671-1.278 0-2.013-.792-2.211-2.039h-1.95c.154 2.385 1.803 3.695 4.097 3.695 2.883 0 4.436-1.892 4.436-4.334 0-2.55-1.674-4.238-4.103-4.238-.946 0-1.77.39-2.174.76h-.07l.467-3.649h5.35v-1.809H44.29l-.767 6.693 1.751.402zm15.559-3.758h1.911c-.454-2.25-1.783-3.548-4.008-3.548-3.196 0-4.449 2.653-4.449 6.808v.46c0 4.027 1.58 6.213 4.398 6.213 2.672 0 4.231-1.982 4.231-4.283 0-2.23-1.476-4.257-3.956-4.257-1.074 0-2.071.39-2.755 1.157.109-3.451 1.246-4.372 2.563-4.372 1.323 0 1.79.927 2.065 1.822zM58.73 32.32c1.579 0 2.25 1.176 2.25 2.576 0 1.605-.901 2.608-2.263 2.608-1.285 0-2.423-.901-2.429-2.78 0-1.4.978-2.404 2.442-2.404zm15.076-6.41h-8.444v1.795h6.373L66.622 39h2.135l5.05-11.474V25.91zm10.43 9.415c0-1.503-.766-2.615-1.968-3.216 1.029-.543 1.674-1.52 1.674-2.889 0-2.282-1.655-3.49-3.924-3.49-2.263 0-3.95 1.208-3.95 3.49 0 1.368.639 2.34 1.668 2.89-1.202.594-1.963 1.712-1.963 3.215 0 2.422 1.86 3.854 4.257 3.854 2.372 0 4.206-1.451 4.206-3.854zm-2.205-6.022c0 1.176-.907 1.995-2 1.995-1.113 0-2.046-.819-2.046-2.014 0-1.189.933-1.88 2-1.88 1.132 0 2.046.755 2.046 1.9zm.237 5.951c0 1.272-.946 2.27-2.238 2.27-1.297 0-2.307-.998-2.307-2.289 0-1.297 1.01-2.32 2.263-2.32 1.259 0 2.282 1.023 2.282 2.34zm6.59.41h-1.91c.453 2.25 1.783 3.547 4.007 3.547 3.196 0 4.449-2.653 4.449-6.808v-.46c0-4.027-1.579-6.213-4.398-6.213-2.672 0-4.231 1.982-4.231 4.283 0 2.23 1.476 4.257 3.956 4.257 1.074 0 2.071-.39 2.755-1.157-.108 3.452-1.246 4.372-2.563 4.372-1.323 0-1.79-.927-2.065-1.822zm-.147-5.651c0-1.605.902-2.608 2.263-2.608 1.285 0 2.423.901 2.43 2.78 0 1.4-.979 2.404-2.443 2.404-1.579 0-2.25-1.176-2.25-2.576zm17.959 1.572c0-3.784-1.662-5.855-4.442-5.855-2.8 0-4.481 2.071-4.481 5.855v1.547c0 3.86 1.694 6.047 4.5 6.047 2.781 0 4.423-2.186 4.423-6.047v-1.547zm-2 1.86c0 2.365-.838 4.002-2.423 4.002-1.617 0-2.5-1.637-2.5-4.002v-2.18c0-2.313.864-3.809 2.481-3.809 1.598 0 2.442 1.496 2.442 3.81v2.18z"/><path id="e" d="M3.228 17l.844-2.819H8.45L9.294 17h2.697L7.575 3.91H4.94L.524 17h2.704zm2.953-9.831h.166l1.49 4.973H4.685l1.496-4.973zM19.266 17h2.352v-6.373c0-2.493-1.834-3.573-3.995-3.573-1.694 0-3.515.716-4.123 2.672l2.289.434c.307-.818.837-1.227 1.745-1.227 1.074 0 1.63.57 1.63 1.58v.338l-.806.07c-2.697.23-4.934 1.112-4.934 3.337 0 1.905 1.463 2.94 3.266 2.94 1.413 0 2.192-.658 2.5-1.214h.076V17zm-.102-4.487v1.201c0 .876-.844 1.63-2.033 1.63-.767 0-1.336-.44-1.336-1.137 0-1.183 1.886-1.592 2.979-1.669l.39-.025zm9.735 4.455c2.915 0 4.622-1.317 4.622-3.81 0-1.316-.671-2.473-2.18-2.831 1.253-.537 1.835-1.643 1.835-2.832 0-2.237-1.745-3.586-4.673-3.586h-4.462v13.059H28.9zM26.51 5.999h1.994c1.509 0 2.212.646 2.212 1.726 0 1.01-.729 1.681-2.007 1.739l-2.2.006V6zm4.576 7.127c0 1.119-.818 1.771-2.186 1.771h-2.39v-3.605h2.486c1.38 0 2.09.658 2.09 1.834zm4.478-9.217V17h2.36l.012-.671H38c.505.524 1.227.856 2.23.856 2.513 0 4.27-2.083 4.27-5.075 0-2.972-1.757-5.056-4.257-5.056-.971 0-1.674.326-2.18.837h-.057V3.91h-2.442zm2.417 9.671c-.109-.46-.154-1.137-.16-1.495.006-.333.045-.857.153-1.317.173-.652.748-1.726 2.027-1.726 1.431 0 2.16 1.291 2.16 3.068 0 1.809-.729 3.075-2.167 3.075-1.144 0-1.822-.812-2.013-1.605zm18.94-5.817c-.614-2.582-2.589-4.033-5.037-4.033-3.228 0-5.497 2.519-5.497 6.744 0 4.212 2.269 6.705 5.497 6.705 2.448 0 4.404-1.438 5.024-3.989l-2.429-.262c-.358 1.317-1.336 2.001-2.595 2.001-1.803 0-3.017-1.432-3.017-4.455 0-3.024 1.214-4.494 3.017-4.494 1.26 0 2.25.697 2.595 2.052l2.442-.269zM67.4 10.34c-.275-1.892-1.777-3.285-4.11-3.285-2.845 0-4.513 2.129-4.513 5.056 0 2.966 1.675 5.075 4.526 5.075 2.243 0 3.822-1.246 4.097-3.164l-2.237-.3c-.186.722-.729 1.464-1.892 1.464-1.438 0-2.154-1.279-2.154-3.075 0-1.732.696-3.068 2.147-3.068 1.304 0 1.77 1.048 1.911 1.61l2.225-.313zM5.81 24.91H3.675L.518 26.763l.965 1.687 1.981-1.15h.077V38h2.27V24.91zm12.619 11h-4.916c-.294 0-.44 0-.697.103l-.057-.134c.25-.109.345-.185.537-.377l1.943-2.04c1.636-1.75 2.845-3.234 2.845-4.972 0-2.302-1.54-3.759-4.194-3.759-2.742 0-4.32 2.046-4.32 4.353h2.39c0-1.278.6-2.384 1.886-2.384 1.163 0 1.853.799 1.853 1.988 0 .824-.492 1.732-1.828 3.1L9.5 36.204V38h8.93v-2.09zm5.203-3.432h1.176c1.336 0 2.2.512 2.2 1.905 0 1.119-.845 1.828-2.084 1.828-1.125 0-1.912-.677-1.912-1.668h-2.416c0 2.486 2.084 3.637 4.27 3.637 2.563 0 4.551-1.38 4.551-3.765 0-1.406-.729-2.55-2.256-3.055 1.323-.627 2.026-1.854 2.026-2.979 0-2.378-1.758-3.65-4.302-3.65-2.371 0-4.13 1.387-4.13 3.471h2.379c0-.933.799-1.534 1.815-1.534 1.183 0 1.866.741 1.866 1.751 0 1.087-.69 1.95-2.007 1.95h-1.176v2.11zm17.438.914h-1.892V24.91h-2.493l-5.459 8.943v1.63h5.747V38h2.205v-2.519h1.892v-2.09zm-7.242 0l2.857-4.851.288-.563v5.414h-3.145zm11.541-1.316c.377-.365.927-.716 1.912-.716 1.342 0 2.205.9 2.205 2.41 0 1.393-.722 2.441-2.046 2.441-1.054 0-1.764-.626-1.91-1.713h-2.38c.077 2.365 2.084 3.682 4.27 3.682 2.947 0 4.417-1.975 4.417-4.283 0-2.69-1.668-4.366-3.963-4.366-1.042 0-1.739.39-2.052.748h-.07l.39-3.247h5.222V24.91h-7.217l-.767 6.68 1.988.486zm15.099-3.727h2.3c-.44-2.16-1.7-3.618-4.122-3.618-3.343 0-4.615 2.832-4.577 6.993v.467c0 3.873 1.72 5.989 4.513 5.989 2.634 0 4.296-1.911 4.296-4.379 0-2.345-1.209-4.301-3.663-4.301-1.112 0-2.084.434-2.749 1.137.109-2.665 1.01-3.886 2.174-3.886 1.137 0 1.521.652 1.828 1.598zm-3.97 5.235v-.064c0-1.106.767-2.045 2.046-2.045 1.317 0 1.994.984 1.994 2.352 0 1.387-.818 2.371-1.962 2.371-1.208 0-2.078-.837-2.078-2.614zm17.155-8.674h-8.712v2.116h6.098L66.232 38h2.557l4.864-11.486v-1.605zm10.268 9.447c0-1.431-.786-2.563-2.026-3.176 1.08-.588 1.751-1.617 1.751-2.864 0-2.346-1.687-3.586-4.046-3.586-2.327 0-4.04 1.24-4.04 3.586 0 1.247.671 2.27 1.752 2.857-1.247.614-2.04 1.752-2.04 3.183 0 2.455 1.886 3.823 4.347 3.823 2.455 0 4.302-1.368 4.302-3.823zm-2.64-5.919c0 1.055-.677 1.777-1.662 1.777-.99 0-1.694-.722-1.694-1.79 0-1.073.704-1.693 1.662-1.693 1.004 0 1.694.665 1.694 1.706zm.25 5.772c0 1.164-.787 1.976-1.912 1.976s-1.969-.812-1.969-1.982c0-1.195.844-2.026 1.937-2.026 1.106 0 1.944.83 1.944 2.032zm7 .39H86.21c.447 2.16 1.707 3.618 4.123 3.618 3.31-.147 4.583-2.883 4.583-7.024v-.486c0-3.861-1.726-5.97-4.52-5.97-2.626 0-4.327 1.904-4.327 4.378 0 2.346 1.24 4.296 3.695 4.296 1.112 0 2.077-.429 2.749-1.132-.122 2.653-1.01 3.9-2.155 3.918-1.157 0-1.54-.67-1.828-1.598zm-.09-5.516c0-1.387.818-2.371 1.962-2.371 1.208 0 2.078.837 2.078 2.62v.064c0 1.106-.768 2.046-2.046 2.046-1.31 0-1.994-.991-1.994-2.359zm17.625 1.221c0-3.72-1.931-5.574-4.551-5.574-2.621 0-4.558 1.854-4.558 5.574v2.135c0 3.86 1.93 5.74 4.564 5.74 2.621 0 4.545-1.88 4.545-5.74v-2.135zm-2.436 2.487c0 2.269-.907 3.317-2.109 3.317-1.215 0-2.135-1.048-2.135-3.317V29.96c0-2.148.914-3.177 2.129-3.177 1.214 0 2.115 1.03 2.115 3.177v2.832z"/><path id="f" d="M14.694 32h3.284v-.205l-3.477-10.022c3.042-1.147 5.18-3.561 5.542-6.857.519-4.552-2.741-7.559-7.16-7.631L5.36 7.273 1.075 32h2.921l1.679-9.61h5.807L14.694 32zM7.836 9.929l4.938.012c2.898.072 4.926 1.968 4.48 4.962-.495 3.236-3.454 4.757-6.496 4.757l-4.612-.024 1.69-9.707zm21.25 22.457c3.175.049 6.556-1.364 7.945-4.382l-2.44-1.111c-1.134 1.895-3.296 2.982-5.493 2.934-3.332-.073-4.528-3.055-4.322-5.989h13.341l.17-1.207c.555-4.782-1.474-9.358-6.798-9.43-5.47-.06-8.838 4.612-9.43 9.647-.58 4.902 1.594 9.454 7.027 9.538zm2.379-16.613c3.139.084 4.708 2.668 4.25 5.602l-10.662.012c.966-3.018 2.934-5.71 6.412-5.614zM56.9 13.55l-.435 2.089h-.29c-.953-1.69-2.728-2.379-4.6-2.415-5.36-.108-8.922 4.407-9.538 9.394-.58 4.66 1.437 9.32 6.69 9.393 2.124.024 3.887-.87 5.24-2.475l.253-.012-.447 2.246c-.555 3.078-2.994 4.708-6.049 4.624-2.016-.06-3.32-.93-4.48-2.475l-2.209 1.654c1.533 2.294 3.84 3.344 6.58 3.38 4.166.06 8.21-2.209 8.838-6.58l3.236-18.823H56.9zm-12.074 9.08c.471-3.43 2.838-6.979 6.653-6.858 2.173.06 3.84 1.606 4.141 3.743a8.722 8.722 0 0 1-.096 2.91c-.206 1.026-.41 2.052-.785 3.018-.93 2.318-3.369 4.02-5.892 3.96-3.622-.096-4.42-3.791-4.02-6.773zM74.6 24.658c-.446 2.765-2.68 4.938-5.578 4.83-2.414-.085-3.356-2.017-3.066-4.238l2.004-11.797h-2.777L63.179 25.24c-.398 3.235 1.05 6.918 4.77 7.015 2.342.072 4.346-1.075 5.759-2.874h.133L73.297 32h2.79l3.211-18.546h-2.777l-1.92 11.205zM88.592 7.273h-2.79L81.518 32h2.789l4.286-24.727zM100.24 32h2.705l1.944-11.446c.507-4.226-1.727-7.256-6.05-7.34-3.296-.073-6.193 1.448-7.558 4.527l2.524 1.014c1.038-1.896 2.74-3.103 4.95-3.03 2.475.072 3.876 1.835 3.429 4.274l-.06.277-.942.097c-4.37.41-11.313.918-11.736 6.616-.253 3.296 2.21 5.41 5.385 5.458 2.343.036 4.492-.99 5.759-2.97l.097-.012L100.24 32zm1.606-9.236l-.507 2.523c-.555 2.97-3.441 4.685-6.327 4.6-1.654-.06-3.006-1.135-2.777-2.898.507-3.96 6.158-3.9 9.104-4.177l.507-.049zm18.763-9.515a8.424 8.424 0 0 0-1.461-.12c-2.27 0-4.323 1.52-5.264 3.525h-.145l.652-3.2h-2.789L108.378 32h2.789l1.835-10.625c.532-2.765 2.922-5.313 5.856-5.3.471.012.942.048 1.413.132l.338-2.958zm17.35-5.976h-2.922L130.751 32h2.922l4.286-24.727zm12.557 6.181h-3.84l.689-3.96h-2.79l-.688 3.96h-2.897l-.471 2.657h2.909l-1.895 11.35c-.23 2.607 1.606 4.587 4.202 4.66.579.024 1.159.012 1.714-.157l.278-2.62c-.375.036-.749.072-1.135.072-1.739-.012-2.355-1.014-2.161-2.716l1.787-10.59h3.839l.459-2.655zM162.297 32h2.704l1.944-11.446c.507-4.226-1.726-7.256-6.049-7.34-3.296-.073-6.194 1.448-7.558 4.527l2.524 1.014c1.038-1.896 2.74-3.103 4.95-3.03 2.475.072 3.876 1.835 3.429 4.274l-.061.277-.941.097c-4.371.41-11.314.918-11.736 6.616-.254 3.296 2.209 5.41 5.385 5.458 2.342.036 4.491-.99 5.759-2.97l.097-.012-.447 2.535zm1.606-9.236l-.507 2.523c-.556 2.97-3.441 4.685-6.327 4.6-1.654-.06-3.007-1.135-2.777-2.898.507-3.96 6.158-3.9 9.104-4.177l.507-.049zM177.51 7.273h-2.789L170.435 32h2.789l4.286-24.727zm6.155 3.537c1.122-.012 2.004-.881 1.992-2.028a1.91 1.91 0 0 0-1.944-1.86 2 2 0 0 0-1.992 2.017c0 1.099.845 1.896 1.944 1.871zm.64 2.644h-2.777L178.304 32h2.789l3.212-18.546zm18.506 5.579c-.362-3.55-3.067-5.76-6.581-5.82-5.36-.096-8.717 4.673-9.284 9.587-.52 4.588 1.4 9.502 6.652 9.586 3.659.06 7.16-2.076 7.921-5.795l-2.789.012c-.845 2.113-2.753 3.296-5.011 3.236-3.61-.109-4.334-4.154-3.972-7.04.41-3.308 2.62-7.123 6.411-7.026 2.053.06 3.526 1.231 3.924 3.248l2.729.012z"/><path id="g" d="M2.596 8.273V33H6.29V15.215h.23l7.015 17.531h3.042l7.027-17.507h.23V33h3.694V8.273H22.94l-7.703 18.799h-.29l-7.775-18.8H2.596zm37.186 25.101c4.263 0 6.87-2.294 7.643-4.962l-3.429-.942c-.616 1.666-1.968 2.74-4.226 2.74-3.042 0-4.841-1.907-5.13-5.336h13.027v-1.557c0-6.46-3.852-9.104-8.126-9.104-5.264 0-8.548 4.02-8.548 9.708 0 5.747 3.344 9.453 8.79 9.453zm-.253-16.01c2.801 0 4.516 2.005 4.516 4.697h-9.321c.495-2.982 2.27-4.697 4.805-4.697zM66.725 33V8.273h-3.72v8.814h-.192c-.628-1.1-1.932-2.874-5.011-2.874-4.37 0-7.667 3.502-7.667 9.55 0 6.025 3.236 9.587 7.63 9.587 3.055 0 4.42-1.75 5.048-2.886h.277V33h3.635zm-12.992-9.273c0-3.694 1.606-6.363 4.83-6.363 3.175 0 4.672 2.632 4.672 6.363 0 3.755-1.51 6.484-4.672 6.484-3.188 0-4.83-2.753-4.83-6.484zM72.622 12.33c1.376 0 2.33-1.002 2.33-2.197 0-1.135-.954-2.197-2.33-2.197-1.377 0-2.33 1.062-2.33 2.197 0 1.195.953 2.197 2.33 2.197zm1.871 2.125h-3.718V33h3.718V14.454zm15.5 10.77c0 3.2-2.03 4.733-4.13 4.733-2.089 0-3.61-1.364-3.61-3.84V14.455h-3.719v11.724c0 5.035 3.224 7.064 6.061 7.064 2.584 0 4.37-1.268 5.337-2.645h.193V33h3.574V14.454h-3.707v10.77zm21.798-3.815c0-2.427 1.28-3.912 3.465-3.912 1.473 0 3.212.833 3.212 3.49V33h3.718V21.047c0-4.806-2.511-6.834-5.626-6.834-2.596 0-4.624 1.558-5.313 3.091h-.193c-.809-1.775-2.415-3.09-4.697-3.09-2.342 0-4.129 1.508-4.829 3.005h-.181v-2.765h-3.67V33h3.718V21.735c0-2.692 1.727-4.238 3.61-4.238 1.86 0 3.103 1.014 3.103 3.55V33h3.683V21.41z"/><path id="h" d="M6.085 8.273L.954 33h3.61l3.779-17.821.242.012 3.15 17.555h2.971l10.456-17.555h.193L21.564 33h3.61l5.12-24.727h-4.577L14.296 27.096h-.266L10.444 8.273H6.085zm32.841 25.101c3.296.049 6.967-1.594 7.981-4.962l-3.284-.918c-.881 1.8-2.56 2.777-4.564 2.729-3.067-.084-4.13-2.608-3.815-5.36l12.569.011.229-1.557c.604-4.649-1.364-9.031-6.52-9.116-5.542-.085-9.116 4.673-9.744 9.804-.603 4.95 1.763 9.297 7.148 9.37zm2.427-16.01c2.656.085 3.78 2.282 3.308 4.71l-9.019.011c1.014-2.475 2.753-4.817 5.711-4.72zM65.763 33l5.132-24.727H67.26l-1.931 8.85-.23-.012c-.712-1.908-2.439-2.825-4.419-2.886-5.324-.157-8.44 4.926-9.115 9.635-.604 4.202.615 9.43 5.747 9.514 2.318.036 4.056-1.098 5.36-2.946h.194L62.202 33h3.561zM55.09 23.836c.531-3.163 2.511-6.616 6.158-6.484 3.368.121 3.44 3.719 3.006 6.279-.507 3.115-2.366 6.737-6.013 6.592-3.392-.12-3.586-3.791-3.151-6.387zm22.25-11.482c1.279-.012 2.305-1.027 2.269-2.33-.036-1.196-1.05-2.126-2.246-2.113-1.255.012-2.306 1.038-2.27 2.318.037 1.22 1.027 2.137 2.246 2.125zm.953 2.1h-3.634L70.807 33h3.634l3.852-18.546zm13.616 10.782c-.483 2.5-2.366 4.854-5.131 4.733-2.173-.096-2.813-1.907-2.524-3.839l2.379-11.675h-3.634l-2.39 11.723c-.472 3.333.869 6.967 4.696 7.076 2.258.072 4.19-.99 5.614-2.68l.109-.013-.64 2.439h3.501l3.84-18.546h-3.622l-2.198 10.782zm23.034-3.827c.411-2.173 1.92-4.033 4.298-3.924 1.969.085 2.476 1.763 2.222 3.477L119.024 33h3.622l2.427-11.953c.459-3.224-.543-6.761-4.322-6.846-2.331-.048-4.407 1.207-5.687 3.115h-.169c-.459-1.895-2.137-3.067-4.057-3.103-2.185-.06-4.021 1.244-5.155 3.03l-.109.013.712-2.802H102.7L98.849 33h3.634l2.306-11.265c.423-2.173 2.089-4.359 4.504-4.262 2.064.097 2.378 1.799 2.113 3.55L108.967 33h3.598l2.378-11.59zm31.516-13.136h-3.743L137.585 33h3.743l5.131-24.727zm11.793 6.181h-3.513l.821-3.96h-3.635l-.821 3.96h-2.487l-.64 3.043h2.5l-2.162 10.758c-.326 2.704 1.449 4.926 4.214 4.987.785.012 1.727-.025 2.463-.35l-.302-3.128c-.41.073-.821.145-1.231.133-1.449-.036-1.57-1.11-1.389-2.354l2.041-10.046h3.501l.64-3.043zM168.944 33h3.429l2.499-12.327c.495-3.973-1.884-6.387-5.759-6.46-3.381-.06-6.822 1.449-8.066 4.77l3.417.808c.809-1.69 2.668-2.596 4.504-2.535 2.028.072 2.596 1.497 2.306 3.332l-.024.157c-.363 1.473-3.405 1.256-4.504 1.364-3.586.363-7.667 1.546-8.005 5.747-.253 3.26 1.944 5.494 5.168 5.554 2.233.037 4.165-.917 5.433-2.74l.084-.012-.482 2.342zm1.147-6.46c-.556 2.379-2.898 3.925-5.289 3.864-1.509-.048-2.765-.809-2.475-2.475.362-2.185 2.584-2.813 4.492-3.03 1.159-.133 3.066-.085 3.96-.93l-.688 2.572zm16.016-18.267h-3.635L177.341 33h3.634l5.132-24.727zm6.115 4.08c1.28-.011 2.306-1.026 2.27-2.33-.036-1.195-1.051-2.125-2.246-2.112-1.256.012-2.306 1.038-2.27 2.318.036 1.22 1.026 2.137 2.246 2.125zm.954 2.101h-3.634L185.69 33h3.634l3.852-18.546zm18.198 5.76c-.471-3.622-2.994-5.94-6.677-6-5.433-.098-9.007 4.55-9.635 9.598-.579 4.757 1.522 9.478 6.858 9.562 3.683.06 7.233-2.16 8.041-5.88l-3.501-.265c-.736 1.847-2.354 3.054-4.395 2.994-3.405-.097-3.815-3.719-3.441-6.411.435-3.127 2.367-6.568 5.953-6.448 1.943.073 3.018 1.316 3.332 3.152l3.465-.302z"/><path id="i" d="M11.193 31.94c5.505 0 8.729-2.488 8.729-7.196 0-2.488-1.268-4.673-4.117-5.35 2.366-1.013 3.465-3.102 3.465-5.348 0-4.226-3.296-6.773-8.826-6.773H2.016V31.94h9.177zM6.677 11.22h3.767c2.85 0 4.177 1.22 4.177 3.26 0 1.909-1.376 3.176-3.79 3.285l-4.154.012v-6.556zm8.645 13.463c0 2.113-1.546 3.345-4.13 3.345H6.678v-6.81h4.697c2.607 0 3.948 1.244 3.948 3.465zm15.13 7.643c4.793 0 8.367-3.248 8.367-9.599 0-6.145-3.731-9.514-8.404-9.514-4.636 0-8.33 3.502-8.33 9.514 0 6.267 3.573 9.599 8.366 9.599zm-.037-3.755c-2.45 0-3.888-2.04-3.888-5.844 0-3.79 1.534-5.759 3.888-5.759 2.415 0 4.02 1.835 4.02 5.76 0 3.935-1.58 5.843-4.02 5.843zM46.191 7.273h-4.613V32h4.613V7.273zM65.809 32V7.273h-4.612v7.522h-.109c-.954-.966-2.282-1.582-4.13-1.582-4.72 0-8.028 3.936-8.028 9.55 0 5.651 3.308 9.587 8.065 9.587 1.896 0 3.248-.628 4.214-1.618h.108L61.342 32h4.467zm-12.46-9.236c0-3.357 1.376-5.796 4.069-5.796 2.414 0 3.5 2.028 3.839 3.26.205.87.278 1.847.29 2.487-.012.664-.109 1.956-.302 2.826-.362 1.497-1.654 3.03-3.815 3.03-2.705 0-4.081-2.39-4.081-5.808z"/><path id="j" d="M10.311 33c4.335.036 8.79-1.968 9.249-6.761.205-2.234-.785-5.675-3.574-5.748l.18-.422c2.935-.435 4.855-2.185 5.12-5.204.41-4.504-3.055-6.508-7.148-6.58L5.59 8.273.507 33h9.804zm-.845-20.719l4.37.012c1.98.06 3.152 1.039 2.766 3.08-.46 2.462-2.645 3.392-4.95 3.392l-3.599-.036 1.413-6.448zm5.663 13.414c-.447 2.427-2.62 3.32-4.89 3.309l-4.31-.025 1.484-6.773 5.023.012c2.04.085 3.055 1.485 2.693 3.477zm15.07 7.655c5.53.097 9.14-4.516 9.756-9.659.58-4.854-1.678-9.393-7.014-9.478-5.518-.084-9.128 4.467-9.744 9.623-.58 4.83 1.678 9.43 7.003 9.514zm.23-3.827c-3.03-.109-3.163-3.345-2.837-5.675.374-2.777 1.883-5.952 5.131-5.844 3.043.109 3.163 3.345 2.85 5.675-.387 2.777-1.896 5.952-5.144 5.844zm21.123-21.25h-4.576L41.857 33h4.576l5.12-24.727zM66.201 33l5.083-24.727h-4.576l-1.883 8.524-.23-.012c-.58-1.739-2.33-2.512-4.069-2.56-5.252-.157-8.162 5.035-8.802 9.61-.567 4.106.471 9.419 5.554 9.515 2.04.036 3.72-.893 4.806-2.584l.169-.012L61.625 33h4.576zm-10.106-9.164c.447-2.801 2.101-5.965 5.373-5.832 2.97.121 2.813 3.441 2.451 5.627-.447 2.74-1.944 6.037-5.204 5.904-2.994-.12-2.994-3.453-2.62-5.7zM89.787 8.273h-4.66L79.995 33h4.66l5.132-24.727zm11.706 6.181l-3.224-.011.906-3.949h-4.588l-.833 3.96h-2.222l-.749 3.478 2.306.012-2.076 10.094c-.338 2.777 1.46 5.131 4.322 5.191.906.025 2.234.037 3.055-.422l-.362-3.683c-.399.073-.785.145-1.184.133-1.231 0-1.328-.845-1.159-1.908l1.932-9.417h3.127l.749-3.477zM111.357 33h4.262l2.524-12.448c.507-4.009-2.246-6.279-6.049-6.339-3.526-.06-7.341 1.606-8.295 5.264l4.31.64c.568-1.46 2.089-2.318 3.635-2.258 1.521.06 2.113 1.135 1.859 2.56l-.06.278c-.387 1.304-2.717 1.159-3.767 1.255-3.659.326-7.824 1.654-8.15 5.929-.242 3.175 1.919 5.457 5.083 5.505 2.064.037 3.791-.833 4.974-2.511l.133-.012-.459 2.137zm.954-6.17c-.471 1.86-2.439 3.08-4.31 3.019-1.232-.037-2.113-.713-1.872-2.029.375-1.968 2.282-2.523 4.033-2.728.893-.109 2.149-.145 2.849-.773l-.7 2.511zm17.368-18.557h-4.576L119.984 33h4.576l5.119-24.727zm5.968 4.66c1.449 0 2.668-1.147 2.62-2.62-.048-1.352-1.195-2.402-2.524-2.402-1.436 0-2.692 1.147-2.644 2.607.036 1.377 1.196 2.403 2.548 2.415zm1.497 1.521h-4.576L128.716 33h4.576l3.852-18.546zm18.135 5.953c-.592-3.743-3.127-6.134-6.991-6.194-5.481-.096-9.116 4.455-9.731 9.599-.58 4.83 1.654 9.454 7.002 9.538 3.743.06 7.462-2.161 8.319-5.964l-4.262-.604c-.628 1.654-2.004 2.801-3.839 2.74-3.019-.084-3.139-3.416-2.825-5.71.374-2.753 1.919-5.916 5.143-5.796 1.847.073 2.608 1.365 2.91 3.03l4.274-.639z"/><path id="k" d="M3.707 17l.825-2.454h4.794L10.151 17h3.196L8.514 3.91h-3.17L.51 17h3.196zm3.145-9.384h.154l1.527 4.552H5.325l1.527-4.552zM20.276 17h2.813v-6.648c0-2.199-1.688-3.298-3.964-3.298-2.377 0-3.963 1.202-4.27 3.017l2.762.256c.102-.64.716-1.049 1.38-1.049.716 0 1.126.486 1.126.998v.204c0 .46-.767.537-1.407.588-2.787.23-4.014 1.432-4.014 3.17 0 1.893 1.432 2.941 3.12 2.941 1.227 0 1.968-.563 2.326-1.176h.128V17zm-.153-3.145c0 .69-.767 1.202-1.535 1.202-.639 0-1.048-.358-1.048-.895 0-.716.384-1.125 1.56-1.253.358-.051.87-.153 1.023-.307v1.253zM30.653 17c2.914 0 4.5-1.432 4.5-3.554 0-1.688-.998-2.915-2.557-3.12v-.095c1.617-.333 2.3-1.343 2.3-2.742 0-2.097-1.533-3.58-4.704-3.58h-4.909V17h5.37zM28.248 6.364h1.866c1.458 0 1.841.741 1.841 1.534 0 .997-.588 1.457-2.02 1.457H28.25V6.364zm3.989 6.673c0 .946-.537 1.508-1.816 1.508H28.25v-3.144h2.276c1.227 0 1.713.741 1.713 1.636zm4.813-9.128V17h2.915v-.997h.128c.332.741 1.176 1.15 2.199 1.15 2.07 0 3.784-1.713 3.784-5.062 0-3.426-1.816-5.037-3.784-5.037-1.023 0-1.867.435-2.2 1.176h-.101V3.91h-2.94zm6.264 8.182c0 1.713-.639 2.736-1.892 2.736-1.38 0-1.764-1.253-1.764-2.736 0-1.509.41-2.71 1.764-2.71 1.253 0 1.892.997 1.892 2.71zm15.732-4.065C58.33 5.264 56.209 3.73 53.6 3.73c-3.324 0-5.779 2.48-5.779 6.75 0 4.244 2.455 6.699 5.779 6.699 2.608 0 4.704-1.508 5.42-4.219l-2.89-.409c-.383 1.33-1.303 1.969-2.53 1.969-1.662 0-2.787-1.15-2.787-4.04s1.125-4.09 2.787-4.09c1.227 0 2.199.664 2.582 2.045l2.864-.41zm10.63 2.377c-.409-2.045-2.045-3.349-4.347-3.349-2.889 0-4.627 2.071-4.627 5.037 0 2.966 1.738 5.088 4.627 5.088 2.225 0 3.861-1.253 4.322-3.196l-2.71-.486c-.23.793-.717 1.33-1.611 1.33-1.33 0-1.841-1.1-1.841-2.736 0-1.636.511-2.71 1.84-2.71.972 0 1.432.588 1.663 1.534l2.684-.512zM6.367 25.91h-2.66c0 .102-.255 2.199-2.684 2.199v2.352c1.38 0 2.25-.307 2.557-.818h.102V39h2.684V25.91zm12.615 10.636h-4.935v-.076l1.662-1.713c1.815-1.892 2.915-3.324 2.915-5.14 0-2.3-1.79-3.886-4.27-3.886-2.787 0-4.526 1.994-4.526 4.398h2.838c0-1.176.614-2.071 1.637-2.071.946 0 1.508.767 1.508 1.662 0 .741-.383 1.662-1.585 2.889l-4.244 4.244V39h9v-2.455zm5.171-2.863h1.407c1.201 0 1.917.358 1.917 1.662 0 .87-.665 1.534-1.79 1.534-.946 0-1.713-.614-1.713-1.432h-2.838c0 2.608 2.327 3.733 4.45 3.733 2.684 0 4.704-1.38 4.704-3.784 0-1.515-.831-2.544-2.263-3.01 1.291-.608 2.058-1.778 2.058-2.999 0-2.377-1.815-3.656-4.5-3.656-2.301 0-4.27 1.304-4.27 3.477h2.838c0-.741.742-1.176 1.534-1.176 1.074 0 1.586.665 1.586 1.432 0 .997-.563 1.764-1.713 1.764h-1.407v2.455zm18.058.307h-1.943v-8.08h-2.94l-5.216 8.565v1.97h5.523V39h2.633v-2.557h1.943V33.99zm-7.159 0l2.276-3.912.306-.524v4.436h-2.582zm11.516-.844c.256-.307.716-.665 1.585-.665 1.33 0 1.918.844 1.918 2.199 0 1.1-.384 2.199-1.611 2.199-1.176 0-1.509-.997-1.585-1.918h-2.838c0 2.352 1.662 4.219 4.449 4.219 3.017 0 4.397-2.173 4.397-4.474 0-2.532-1.636-4.27-3.81-4.27-1.048 0-1.712.409-1.943.741h-.05l.306-2.812h5.088V25.91h-7.39l-.766 6.673 2.25.563zm14.555-3.759h2.761c-.434-2.25-1.866-3.707-4.423-3.707-3.63 0-4.551 2.864-4.551 7.261v.512c0 3.681 1.943 5.727 4.653 5.727 2.608 0 4.424-1.892 4.424-4.423 0-2.353-1.56-4.398-3.989-4.398-1.125 0-1.905.435-2.41 1.035.109-2.403.722-3.362 1.924-3.362.87 0 1.406.512 1.611 1.355zm-3.554 5.063v-.154c0-.869.665-1.662 1.764-1.662 1.125 0 1.816.844 1.816 2.123 0 1.278-.69 2.122-1.74 2.122-.996 0-1.84-.767-1.84-2.43zm17.74-8.54h-9v2.455h5.804L67.638 39h2.992l4.679-11.506V25.91zm10.42 9.486c0-1.451-.755-2.531-1.963-3.132 1.061-.588 1.707-1.592 1.707-2.851 0-2.403-1.713-3.682-4.168-3.682-2.403 0-4.142 1.279-4.142 3.682 0 1.253.652 2.256 1.713 2.844-1.214.601-1.994 1.688-1.994 3.139 0 2.506 1.917 3.784 4.449 3.784 2.531 0 4.397-1.278 4.397-3.784zm-3.094-5.83c0 .946-.435 1.56-1.304 1.56-.87 0-1.33-.614-1.33-1.56 0-.946.46-1.483 1.304-1.483.87 0 1.33.563 1.33 1.483zm.255 5.6c0 1.048-.613 1.662-1.56 1.662-.945 0-1.61-.614-1.61-1.662 0-1.074.665-1.713 1.585-1.713.946 0 1.585.639 1.585 1.713zm7.774.358h-2.762c.435 2.25 1.867 3.707 4.424 3.707 3.63 0 4.55-2.863 4.55-7.261v-.512c0-3.681-1.943-5.727-4.653-5.727-2.608 0-4.423 1.892-4.423 4.423 0 2.353 1.56 4.398 3.989 4.398 1.125 0 1.904-.434 2.41-1.035-.11 2.403-.723 3.362-1.925 3.362-.869 0-1.406-.511-1.61-1.355zm-.026-5.37c0-1.278.69-2.122 1.739-2.122.997 0 1.84.767 1.84 2.43v.153c0 .869-.664 1.662-1.764 1.662-1.125 0-1.815-.844-1.815-2.123zm17.561 1.151c0-3.656-1.994-5.574-4.653-5.574-2.66 0-4.654 1.918-4.654 5.574v2.173c0 3.861 1.969 5.702 4.654 5.702 2.659 0 4.653-1.84 4.653-5.702v-2.173zm-2.889 2.557c0 2.173-.767 2.889-1.764 2.889-1.023 0-1.765-.716-1.765-2.89v-2.94c0-1.968.742-2.787 1.765-2.787 1.022 0 1.764.819 1.764 2.788v2.94z"/><path id="l" d="M11.88 33c5.506 0 8.5-2.704 8.5-6.713 0-3.188-1.883-5.506-4.829-5.892v-.181c3.055-.628 4.347-2.536 4.347-5.18 0-3.96-2.898-6.761-8.887-6.761H1.74V33h10.14zM7.34 12.91h3.527c2.752 0 3.477 1.4 3.477 2.897 0 1.883-1.111 2.753-3.816 2.753H7.341v-5.65zm7.535 12.604c0 1.787-1.014 2.85-3.429 2.85H7.341v-5.94h4.298c2.318 0 3.236 1.4 3.236 3.09zM28.501 8.273h-5.553V33H28.5V8.273zM41.588 33H46.9V20.443c0-4.153-3.187-6.23-7.486-6.23-4.491 0-7.486 2.27-8.065 5.699l5.216.483c.193-1.207 1.352-1.98 2.608-1.98 1.352 0 2.125.917 2.125 1.883v.387c0 .869-1.45 1.014-2.656 1.11-5.265.435-7.583 2.705-7.583 5.99 0 3.573 2.705 5.553 5.892 5.553 2.318 0 3.719-1.062 4.395-2.222h.242V33zm-.29-5.94c0 1.304-1.45 2.27-2.898 2.27-1.207 0-1.98-.677-1.98-1.69 0-1.353.724-2.126 2.946-2.367.676-.097 1.642-.29 1.932-.58v2.367zm24.9-6.52c-.772-3.864-3.863-6.327-8.21-6.327-5.457 0-8.742 3.912-8.742 9.514 0 5.602 3.285 9.611 8.742 9.611 4.202 0 7.293-2.366 8.162-6.037l-5.12-.917c-.434 1.497-1.352 2.51-3.042 2.51-2.511 0-3.477-2.076-3.477-5.167 0-3.09.966-5.119 3.477-5.119 1.835 0 2.705 1.11 3.14 2.898l5.07-.966zM80.09 33h5.989l-6.943-10.637 6.653-7.909h-6.423l-4.926 6.134h-.242V8.273h-5.554V33h5.554v-5.53l1.353-1.545L80.09 33z"/><path id="m" d="M10.347 33c4.359.036 8.838-1.992 9.273-6.822.205-2.185-.797-5.59-3.538-5.614l.194-.459c3.006-.362 4.938-2.089 5.215-5.18.411-4.672-3.428-6.58-7.594-6.64l-8.73-.012L.122 33h10.226zm-.58-20.09l3.744.011c1.799.06 2.777.93 2.414 2.765-.458 2.294-2.487 2.91-4.588 2.898l-2.85-.036 1.28-5.639zm4.65 12.483c-.411 2.15-2.198 2.995-4.239 2.995l-3.73-.036L7.8 22.423l4.491.012c1.787.085 2.451 1.268 2.125 2.959zm17.706-17.12h-5.506L21.57 33h5.506l5.047-24.727zM40.318 33h5.107l2.463-12.557c.531-4.045-2.608-6.17-6.315-6.23-3.682-.072-7.836 1.739-8.524 5.723l5.12.459a2.894 2.894 0 0 1 2.885-2.004c1.063.06 1.654.82 1.461 1.859l-.096.386c-.387 1.147-2.162 1.1-3.14 1.16-3.719.265-7.956 1.786-8.258 6.085-.206 3.115 1.871 5.409 4.998 5.47 1.92.035 3.466-.75 4.588-2.27l.133-.025L40.318 33zm.797-5.928c-.399 1.412-2.017 2.342-3.43 2.294-.977-.049-1.545-.616-1.352-1.606.35-1.811 2.029-2.27 3.622-2.511.64-.097 1.365-.194 1.872-.616l-.712 2.439zm26.239-6.496c-.76-3.827-3.32-6.303-7.317-6.363-5.554-.096-9.2 4.37-9.816 9.599-.58 4.902 1.763 9.442 7.148 9.526 3.803.06 7.655-2.173 8.56-6.049l-4.938-.881c-.567 1.46-1.702 2.56-3.356 2.499-2.669-.085-2.536-3.151-2.27-5.095.326-2.44 1.485-5.325 4.395-5.204 1.75.072 2.27 1.413 2.535 2.934l5.059-.966zM79.289 33h5.687l-4.697-10.432 8.452-8.101-6.713-.013-6.05 6.194h-.144L78.54 8.273h-5.505L67.988 33h5.506l1.002-5.264 1.883-1.763L79.29 33zm27.622-24.727h-5.554L96.31 33h5.554l5.047-24.727zm11.606 6.181l-2.91-.011.942-3.949h-5.53l-.7 3.96h-2.089l-.773 3.864 2.101.012-1.992 9.502c-.35 2.874 1.485 5.325 4.443 5.41 1.027.024 2.669.072 3.598-.496l-.434-4.19c-.375.073-.761.146-1.147.146-1.003-.012-1.099-.616-.954-1.522l1.811-8.862h2.898l.736-3.864zM127.708 33h5.108l2.463-12.557c.531-4.045-2.608-6.17-6.315-6.23-3.683-.072-7.836 1.739-8.524 5.723l5.119.459a2.895 2.895 0 0 1 2.886-2.004c1.062.06 1.654.82 1.461 1.859l-.097.386c-.386 1.147-2.161 1.1-3.139 1.16-3.719.265-7.957 1.786-8.259 6.085-.205 3.115 1.872 5.409 4.999 5.47 1.92.035 3.465-.75 4.588-2.27l.133-.025-.423 1.944zm.797-5.928c-.398 1.412-2.016 2.342-3.429 2.294-.978-.049-1.545-.616-1.352-1.606.35-1.811 2.028-2.27 3.622-2.511.64-.097 1.364-.194 1.872-.616l-.713 2.439zm18.567-18.8h-5.506L136.519 33h5.506l5.047-24.727zm5.853 5.192c1.593.013 2.982-1.267 2.921-2.885-.048-1.497-1.328-2.656-2.801-2.668-1.581 0-3.018 1.267-2.958 2.885.061 1.497 1.377 2.656 2.838 2.668zm1.98.99h-5.506L145.632 33h5.506l3.767-18.546zm18.101 6.122c-.76-3.827-3.32-6.303-7.316-6.363-5.554-.096-9.201 4.37-9.816 9.599-.58 4.902 1.762 9.442 7.147 9.526 3.804.06 7.655-2.173 8.561-6.049l-4.939-.881c-.567 1.46-1.702 2.56-3.356 2.499-2.668-.085-2.536-3.151-2.27-5.095.326-2.44 1.485-5.325 4.395-5.204 1.751.072 2.27 1.413 2.535 2.934l5.059-.966z"/></defs></svg>