<svg width="888" height="165" viewBox="0 0 888 165" version="1.1" xmlns="http://www.w3.org/2000/svg" xmlns:xlink="http://www.w3.org/1999/xlink">
<title>weights-and-styles</title>
<desc>Created using Figma</desc>
<g id="Canvas" transform="translate(-1509 -1027)">
<clipPath id="clip-0" clip-rule="evenodd">
<path d="M 1509 1027L 2397 1027L 2397 1192L 1509 1192L 1509 1027Z" fill="#FFFFFF"/>
</clipPath>
<g id="weights-and-styles" clip-path="url(#clip-0)">
<g id="Regular">
<use xlink:href="#path0_fill" transform="translate(1508 1019)"/>
</g>
<g id="AaBbCc 1234567890">
<use xlink:href="#path1_fill" transform="translate(1508 1117.64)"/>
</g>
<g id="AaBbCc 1234567890">
<use xlink:href="#path2_fill" transform="translate(1752.52 1117.64)"/>
</g>
<g id="AaBbCc 1234567890">
<use xlink:href="#path3_fill" transform="translate(2009.42 1117.64)"/>
</g>
<g id="Regular Italic">
<use xlink:href="#path4_fill" transform="translate(1508 1060.04)"/>
</g>
<g id="Medium">
<use xlink:href="#path5_fill" transform="translate(1752.52 1019)"/>
</g>
<g id="Medium Italic">
<use xlink:href="#path6_fill" transform="translate(1752.52 1060.04)"/>
</g>
<g id="Bold">
<use xlink:href="#path7_fill" transform="translate(2009.42 1019)"/>
</g>
<g id="Bold Italic">
<use xlink:href="#path8_fill" transform="translate(2009.42 1060.04)"/>
</g>
<g id="AaBbCc 1234567890">
<use xlink:href="#path9_fill" transform="translate(2223 1117.64)"/>
</g>
<g id="Black">
<use xlink:href="#path10_fill" transform="translate(2223 1019)"/>
</g>
<g id="Black Italic">
<use xlink:href="#path11_fill" transform="translate(2223 1060.04)"/>
</g>
</g>
</g>
<defs>
<path id="path0_fill" d="M 17.1049 33L 20.5356 33L 20.5356 32.804L 15.0464 22.5239C 17.9503 21.3109 19.7025 18.7623 19.7025 15.7481C 19.7025 10.945 16.5657 7.90633 10.9785 7.90633L 2.94066 7.90633L 2.94066 33L 5.97935 33L 5.97935 23.2468L 11.9955 23.2468L 17.1049 33ZM 5.97935 10.6019L 10.9785 10.6019C 15.1444 10.6019 16.6148 12.5624 16.6148 15.7481C 16.6148 18.2477 14.4093 20.5512 10.9785 20.5512L 5.97935 20.5512L 5.97935 10.6019ZM 31.2008 33.3921C 34.9747 33.3921 37.4252 31.6277 38.5035 29.1281L 35.8569 27.9519C 35.0727 29.7163 33.5043 30.7945 31.2008 30.7945C 27.9783 30.7945 25.9076 28.4052 25.5278 24.8151L 39.0426 24.8151L 39.0426 23.5899C 39.0426 16.6793 35.6118 13.9347 30.9068 13.9347C 25.8586 13.9347 22.5749 17.9536 22.5749 23.5899C 22.5749 29.3732 25.8096 33.3921 31.2008 33.3921ZM 30.9558 16.5323C 34.2395 16.5323 36.249 18.5907 36.249 22.3156L 25.54 22.3156C 25.9444 18.8848 28.0274 16.5323 30.9558 16.5323ZM 41.4463 23.7859C 41.4463 29.0791 44.485 32.7059 48.749 32.7059C 51.3466 32.7059 53.0865 31.787 54.2505 30.2554L 54.4343 30.3534L 54.4343 32.7549C 54.3853 36.0387 52.2288 37.46 49.0921 37.46C 45.9554 37.46 44.6811 35.7446 43.9949 34.9604L 41.8384 36.6758C 43.0147 38.3422 45.1712 40.0576 49.0921 40.0576C 53.6501 40.0576 57.3259 37.607 57.3259 33.3921L 57.3259 14.2778L 54.4343 14.2778L 54.4343 17.0837C 53.2703 15.1967 51.4936 13.9347 48.798 13.9347C 44.436 13.9347 41.4463 17.9046 41.4463 23.4428L 41.4463 23.7859ZM 44.436 23.4428C 44.436 19.914 46.1024 16.7283 49.6802 16.7283C 52.6209 16.7283 54.0422 19.865 54.2872 21.6784C 54.5323 22.8547 54.5323 24.7171 54.2872 25.7954C 53.9442 27.6088 52.3758 30.1083 49.4842 30.1083C 46.2494 30.1083 44.436 27.3147 44.436 23.7859L 44.436 23.4428ZM 73.7254 25.5503C 73.7254 29.0791 71.0298 30.4514 68.8733 30.4514C 66.4718 30.4514 64.7564 28.8831 64.7564 26.1384L 64.7564 14.1797L 61.8647 14.1797L 61.8647 26.1384C 61.8647 30.9415 65.1975 33.2451 67.9421 33.2451C 70.7847 33.2451 72.5981 31.7747 73.5294 30.3534L 73.7254 30.3534L 73.7254 33L 76.6171 33L 76.6171 14.1797L 73.7254 14.1797L 73.7254 25.5503ZM 84.3416 7.90633L 81.4499 7.90633L 81.4499 33L 84.3416 33L 84.3416 7.90633ZM 100.475 33L 103.366 33L 103.366 22.1686C 103.366 15.6501 99.8374 13.9347 96.0636 13.9347C 93.9561 13.9347 90.0842 14.5718 88.5649 18.5417L 91.2605 19.571C 92.1917 17.7085 93.9071 16.4833 96.1126 16.4833C 98.5141 16.4833 100.475 17.9046 100.475 21.6294L 100.475 21.9725L 98.9552 21.9725C 92.5348 21.9725 88.3198 23.5409 88.3198 28.0499C 88.3198 31.2846 90.9664 33.4411 94.7403 33.4411C 97.7789 33.4411 99.7394 31.6767 100.328 30.4514L 100.475 30.4514L 100.475 33ZM 100.475 24.4231L 100.475 26.3345C 100.475 28.687 98.122 30.8435 94.6422 30.8435C 93.3189 30.8435 91.2115 30.4024 91.2115 28.0499C 91.2115 24.9622 94.5442 24.4231 98.9552 24.4231L 100.475 24.4231ZM 116.696 13.9837C 116.5 13.9347 115.961 13.8857 115.275 13.8857C 113.07 13.8857 110.864 15.6011 110.325 17.4145L 110.129 17.4145L 110.129 14.1797L 107.237 14.1797L 107.237 33L 110.129 33L 110.129 22.2176C 110.178 19.767 112.04 16.8754 115.177 16.8754C 115.912 16.8754 116.402 16.9244 116.696 16.9734L 116.696 13.9837Z"/>
<path id="path1_fill" d="M 1.33964 11L 2.08706 8.76183L 5.2401 8.76183L 5.97935 11L 7.0576 11L 4.18228 2.63544L 3.13671 2.63544L 0.261392 11L 1.33964 11ZM 3.61048 4.18746L 3.72484 4.18746L 4.94195 7.86329L 2.38521 7.86329L 3.61048 4.18746ZM 11.6113 11L 12.5751 11L 12.5751 7.38952C 12.5751 5.21669 11.3989 4.6449 10.1409 4.6449C 9.43843 4.6449 8.14781 4.85728 7.64136 6.18058L 8.5399 6.52365C 8.8503 5.90285 9.42209 5.49442 10.1573 5.49442C 10.9578 5.49442 11.6113 5.9682 11.6113 7.20981L 11.6113 7.32417L 11.1048 7.32417C 8.96466 7.32417 7.55967 7.84695 7.55967 9.34996C 7.55967 10.4282 8.44187 11.147 9.69982 11.147C 10.7127 11.147 11.3662 10.5589 11.5622 10.1505L 11.6113 10.1505L 11.6113 11ZM 11.6113 8.14102L 11.6113 8.77816C 11.6113 9.56234 10.8271 10.2812 9.66715 10.2812C 9.22605 10.2812 8.52356 10.1341 8.52356 9.34996C 8.52356 8.32073 9.63448 8.14102 11.1048 8.14102L 11.6113 8.14102ZM 16.8225 11C 18.4725 11 19.6488 10.1668 19.6488 8.63113C 19.6488 7.69584 19.0525 6.98926 18.0968 6.76463C 18.8524 6.39296 19.322 5.67004 19.322 4.87361C 19.322 3.69735 18.3418 2.63544 16.6754 2.63544L 13.9308 2.63544L 13.9308 11L 16.8225 11ZM 14.9437 3.53398L 16.6754 3.53398C 17.7537 3.53398 18.3092 4.28548 18.3092 4.87361C 18.3092 5.59653 17.672 6.22142 16.896 6.31536L 15.2051 6.32761L 14.9437 6.32761L 14.9437 3.53398ZM 18.6522 8.63113C 18.6522 9.62769 17.8027 10.1015 16.8225 10.1015L 14.9437 10.1015L 14.9437 7.22615L 16.8715 7.22615C 17.9334 7.22615 18.6522 7.69992 18.6522 8.63113ZM 26.1537 7.84695C 26.1537 6.00087 25.1571 4.6449 23.7031 4.6449C 22.8781 4.6449 22.3104 5.00023 21.9224 5.54752L 21.9224 2.63544L 20.9585 2.63544L 20.9585 11L 21.7917 11L 21.8816 10.1831C 22.2737 10.7509 22.8536 11.1144 23.7195 11.1144C 25.1408 11.1144 26.1537 9.72571 26.1537 7.84695ZM 25.1571 7.84695C 25.1571 9.13758 24.5527 10.2485 23.4744 10.2485C 22.5105 10.2485 21.9878 9.20293 21.8734 8.59846C 21.7917 8.23904 21.7917 7.61824 21.8734 7.22615C 21.9551 6.62168 22.4289 5.57611 23.4091 5.57611C 24.6017 5.57611 25.1571 6.67069 25.1571 7.84695ZM 32.4534 8.84351C 32.2737 9.49699 31.7999 10.1505 30.6236 10.1505C 28.8919 10.1505 28.1731 8.61479 28.1731 6.81772C 28.1731 4.88995 29.0553 3.43596 30.6236 3.43596C 31.6202 3.43596 32.3227 4.02409 32.4861 4.79193L 33.6296 4.79193C 33.3846 3.53398 32.339 2.52108 30.6236 2.52108C 28.3855 2.52108 27.1929 4.28548 27.1929 6.81772C 27.1929 9.34996 28.3855 11.1144 30.6236 11.1144C 32.3717 11.1144 33.3683 10.0851 33.597 8.84351L 32.4534 8.84351ZM 39.915 6.60534C 39.7517 5.5271 38.8531 4.6449 37.3828 4.6449C 35.6837 4.6449 34.6055 5.98453 34.6055 7.86329C 34.6055 9.79106 35.7001 11.1307 37.3828 11.1307C 38.8368 11.1307 39.7517 10.2812 39.915 9.17025L 38.9511 9.17025C 38.7714 9.85641 38.1996 10.2648 37.3828 10.2648C 36.3372 10.2648 35.5694 9.30095 35.5694 7.86329C 35.5694 6.49098 36.3046 5.51076 37.3991 5.51076C 38.265 5.51076 38.7878 6.00087 38.9511 6.60534L 39.915 6.60534ZM 3.57781 16.6354L 3.41444 16.6354L 0.522785 17.8607L 0.522785 18.8573L 2.61392 17.9914L 2.61392 25L 3.57781 25L 3.57781 16.6354ZM 11.1518 24.1015L 7.54129 24.1015C 7.31258 24.1015 7.16554 24.1015 7.00217 24.1668L 6.95316 24.0688C 7.11245 23.9953 7.19822 23.9095 7.333 23.7706L 9.30569 21.7489C 10.1675 20.8626 10.9394 19.8538 10.9394 18.89C 10.9394 17.5176 9.89383 16.5211 8.36223 16.5211C 6.56107 16.5211 5.84224 17.8934 5.84224 19.2494L 6.8388 19.2494C 6.8388 18.2855 7.19822 17.3543 8.32956 17.3543C 9.33837 17.3543 9.95917 18.0894 9.95917 18.9185C 9.95917 19.6415 9.4854 20.1969 8.47251 21.2425L 5.53184 24.2648L 5.53184 25L 11.1518 25L 11.1518 24.1015ZM 14.3025 21.2261L 14.7763 21.2261C 15.7892 21.2261 16.5243 21.7326 16.5243 22.7292C 16.5243 23.742 15.7728 24.2485 14.8416 24.2485C 13.9104 24.2485 13.3876 23.742 13.3876 22.9089L 12.3421 22.9089C 12.3421 24.3465 13.3876 25.1144 14.858 25.1144C 16.3446 25.1144 17.5862 24.2322 17.5862 22.7373C 17.5862 21.9899 17.2799 21.0955 16.1731 20.7197C 17.0553 20.2909 17.4065 19.4332 17.4065 18.8409C 17.4065 17.3216 16.3446 16.5211 14.8947 16.5211C 13.2896 16.5211 12.4237 17.5013 12.4237 18.7266L 13.3876 18.7266C 13.3876 17.9097 13.9758 17.3216 14.8825 17.3216C 15.7728 17.3216 16.41 17.8934 16.41 18.8246C 16.41 19.6251 15.8218 20.2949 14.7763 20.2949L 14.3025 20.2949L 14.3025 21.2261ZM 24.4945 22.5331L 23.3509 22.5331L 23.3509 16.6354L 22.289 16.6354L 18.5151 22.7945L 18.5151 23.4316L 22.4523 23.4316L 22.4523 25L 23.3509 25L 23.3509 23.4316L 24.4945 23.4316L 24.4945 22.5331ZM 19.7731 22.5331L 22.289 18.3182L 22.4523 17.7749L 22.4523 22.5331L 19.7731 22.5331ZM 26.4689 21.1363C 26.8447 20.8259 27.3021 20.6094 28.07 20.6094C 28.9399 20.6094 29.818 21.1363 29.818 22.4024C 29.818 23.5501 28.9603 24.2526 28.0005 24.2526C 27.1632 24.2526 26.5669 23.8074 26.3954 22.9089L 25.4152 22.9089C 25.5622 24.4445 26.616 25.1144 27.9393 25.1144C 29.7363 25.1144 30.7778 23.9953 30.7778 22.3902C 30.7778 20.7605 29.7037 19.6986 28.07 19.6986C 27.4982 19.6986 26.9182 19.9314 26.62 20.1887L 26.5629 20.1887L 26.91 17.5993L 30.4061 17.5993L 30.4061 16.6354L 25.9952 16.6354L 25.505 20.9157L 26.4689 21.1363ZM 36.3015 18.7266L 37.2654 18.7266C 36.9672 17.3053 36.2157 16.5211 34.8352 16.5211C 32.9769 16.5211 32.0212 18.1425 32.0212 20.7279L 32.0212 21.0056C 32.0212 23.6849 32.8625 25.1144 34.7413 25.1144C 36.4485 25.1144 37.3961 23.9054 37.3961 22.3697C 37.3961 21.0301 36.6486 19.7395 34.9578 19.7395C 34.2798 19.7395 33.5324 19.9641 33.0177 20.5318C 33.0749 17.9955 34.0184 17.4196 34.8475 17.4196C 35.8318 17.4196 36.1095 18.1548 36.3015 18.7266ZM 34.8557 20.638C 36.0115 20.638 36.4322 21.4712 36.4322 22.4187C 36.4322 23.497 35.7297 24.2322 34.823 24.2322C 33.9285 24.2322 33.1158 23.6236 33.0994 22.3738C 33.1158 21.3119 33.8959 20.638 34.8557 20.638ZM 43.5691 16.6354L 38.3413 16.6354L 38.3413 17.583L 42.5889 17.583L 39.1255 25L 40.2364 25L 43.5691 17.681L 43.5691 16.6354ZM 49.7432 22.6311C 49.7432 21.7448 49.2041 20.9525 48.375 20.54C 49.0857 20.1642 49.5472 19.4781 49.5472 18.6939C 49.5472 17.2726 48.5016 16.5211 47.1048 16.5211C 45.708 16.5211 44.6461 17.2726 44.6461 18.6939C 44.6461 19.4781 45.0953 20.1602 45.7978 20.5359C 44.9769 20.9484 44.45 21.7448 44.45 22.6311C 44.45 24.1341 45.6263 25.1144 47.1048 25.1144C 48.5833 25.1144 49.7432 24.1341 49.7432 22.6311ZM 48.5996 18.7347C 48.5996 19.5434 47.8808 20.1316 47.1048 20.1316C 46.3288 20.1316 45.5936 19.5434 45.5936 18.7102C 45.5936 17.8771 46.3288 17.3869 47.0844 17.3869C 47.8808 17.3869 48.5996 17.9261 48.5996 18.7347ZM 48.7467 22.6352C 48.7467 23.5133 48.0442 24.2648 47.113 24.2648C 46.1818 24.2648 45.4302 23.5133 45.4302 22.6148C 45.4302 21.7163 46.1818 20.9484 47.0803 20.9484C 47.9788 20.9484 48.7467 21.7163 48.7467 22.6352ZM 52.0117 22.917L 51.0479 22.917C 51.346 24.3384 52.0975 25.1225 53.478 25.1225C 55.3363 25.1225 56.292 23.5011 56.292 20.9157L 56.292 20.638C 56.292 17.9587 55.4507 16.5293 53.5719 16.5293C 51.8647 16.5293 50.9172 17.7382 50.9172 19.2739C 50.9172 20.6135 51.6646 21.9041 53.3555 21.9041C 54.0335 21.9041 54.7809 21.6795 55.2955 21.1118C 55.2383 23.6481 54.2948 24.224 53.4657 24.224C 52.4814 24.224 52.2037 23.4888 52.0117 22.917ZM 51.881 19.2249C 51.881 18.1466 52.5835 17.4115 53.4902 17.4115C 54.3847 17.4115 55.1975 18.02 55.2138 19.2698C 55.1975 20.3317 54.4174 21.0056 53.4576 21.0056C 52.3017 21.0056 51.881 20.1724 51.881 19.2249ZM 63.0206 20.0826C 63.0206 17.632 61.8606 16.5211 60.2351 16.5211C 58.6096 16.5211 57.4333 17.632 57.4333 20.0826L 57.4333 21.4059C 57.4333 23.8727 58.6259 25.1144 60.2514 25.1144C 61.877 25.1144 63.0206 23.8727 63.0206 21.4059L 63.0206 20.0826ZM 62.0077 21.5856C 62.0077 23.1539 61.2562 24.2158 60.2514 24.2158C 59.2467 24.2158 58.4462 23.1539 58.4462 21.5856L 58.4462 19.9028C 58.4462 18.3182 59.2304 17.4196 60.2351 17.4196C 61.2398 17.4196 62.0077 18.3182 62.0077 19.9028L 62.0077 21.5856Z"/>
<path id="path2_fill" d="M 1.72764 11L 2.3607 8.99463L 5.32179 8.99463L 5.95485 11L 7.38434 11L 4.53761 2.63544L 3.14896 2.63544L 0.302235 11L 1.72764 11ZM 3.79427 4.47336L 3.90047 4.47336L 4.97462 7.87963L 2.71603 7.87963L 3.79427 4.47336ZM 11.743 11L 12.9968 11L 12.9968 7.18939C 12.9968 5.26979 11.8328 4.6449 10.5136 4.6449C 9.59874 4.6449 8.36938 4.99614 7.92828 6.27043L 9.12905 6.58083C 9.38227 6.02129 9.83971 5.6823 10.4891 5.6823C 11.2039 5.6823 11.7062 6.08255 11.7062 7.06686L 11.7062 7.2629L 11.1548 7.2629C 9.0392 7.2629 7.86293 7.90822 7.86293 9.32545C 7.86293 10.4037 8.76147 11.1348 9.97449 11.1348C 10.9057 11.1348 11.4979 10.6406 11.694 10.2607L 11.743 10.2607L 11.743 11ZM 11.7062 8.1982L 11.7062 8.85168C 11.7062 9.51741 11.0282 10.0974 10.1011 10.0974C 9.67226 10.0974 9.12497 9.92176 9.12497 9.29278C 9.12497 8.46368 9.94999 8.1982 11.163 8.1982L 11.7062 8.1982ZM 17.2084 10.9877C 18.9728 10.9877 20.1042 10.1546 20.1042 8.5862C 20.1042 7.71217 19.6059 6.97701 18.6379 6.75237C 19.418 6.39296 19.8346 5.67821 19.8346 4.9022C 19.8346 3.58707 18.7809 2.63544 17.0042 2.63544L 14.2024 2.63544L 14.2024 10.9877L 17.2084 10.9877ZM 15.5176 3.76678L 17.0042 3.76678C 18.0212 3.76678 18.5195 4.35491 18.5195 4.98389C 18.5195 5.65779 17.9885 6.17241 17.2125 6.24592L 15.6074 6.25409L 15.5176 6.25409L 15.5176 3.76678ZM 18.8054 8.57395C 18.8054 9.41122 18.1315 9.86049 17.2084 9.86049L 15.5176 9.86049L 15.5176 7.29558L 17.2656 7.29558C 18.2295 7.29558 18.8054 7.74485 18.8054 8.57395ZM 26.5111 7.83062C 26.5111 5.96003 25.5554 4.6449 24.0891 4.6449C 23.3621 4.6449 22.8393 4.93896 22.4677 5.41274L 22.4677 2.63544L 21.1852 2.63544L 21.1852 11L 22.3206 11L 22.3941 10.2567C 22.774 10.7795 23.3172 11.1144 24.1054 11.1144C 25.5431 11.1144 26.5111 9.74205 26.5111 7.83062ZM 25.2368 7.83062C 25.2368 9.03956 24.7508 10.0239 23.7869 10.0239C 22.9251 10.0239 22.4268 9.14166 22.3533 8.44326C 22.3002 8.18186 22.3002 7.6795 22.3533 7.38543C 22.4064 6.63393 22.8679 5.77215 23.7379 5.77215C 24.7834 5.77215 25.2368 6.72787 25.2368 7.83062ZM 32.5984 8.60254C 32.4473 9.21518 32.0593 9.93401 30.9279 9.93401C 29.4167 9.93401 28.7633 8.61479 28.7633 6.81364C 28.7633 4.93079 29.5229 3.66876 30.9279 3.66876C 31.9408 3.66876 32.484 4.33858 32.6229 5.04924L 34.0074 4.95938C 33.7665 3.57891 32.7005 2.52108 30.8871 2.52108C 28.7061 2.52108 27.4563 4.21605 27.4563 6.81364C 27.4563 9.42348 28.6816 11.1144 30.8912 11.1144C 32.6964 11.1144 33.7706 10.0606 33.9911 8.69648L 32.5984 8.60254ZM 40.2469 6.67886C 40.0794 5.5516 39.1727 4.6449 37.6615 4.6449C 35.9012 4.6449 34.8271 5.99679 34.8271 7.86737C 34.8271 9.77881 35.9135 11.1266 37.6697 11.1266C 39.1115 11.1266 40.0794 10.3057 40.2469 9.12941L 39.0298 9.0273C 38.8868 9.59502 38.4335 10.0361 37.6575 10.0361C 36.6813 10.0361 36.0769 9.15392 36.0769 7.86737C 36.0769 6.63801 36.6609 5.72722 37.6615 5.72722C 38.5111 5.72722 38.9154 6.31536 39.0379 6.78913L 40.2469 6.67886ZM 3.97807 16.6069L 3.8147 16.6069L 0.518701 17.9179L 0.518701 19.0819L 2.68744 18.2365L 2.68744 25L 3.97807 25L 3.97807 16.6069ZM 11.4509 23.8687L 8.08961 23.8687C 7.88539 23.8687 7.76695 23.8687 7.60358 23.934L 7.55865 23.8401C 7.72202 23.7706 7.79554 23.7012 7.92215 23.5705L 9.50276 21.9368C 10.4626 20.928 11.2304 19.9519 11.2304 18.9063C 11.2304 17.485 10.2216 16.5211 8.60014 16.5211C 6.82349 16.5211 5.95354 17.8607 5.95354 19.278L 7.236 19.278C 7.236 18.3958 7.60358 17.583 8.57155 17.583C 9.43741 17.583 9.9602 18.1997 9.9602 18.988C 9.9602 19.6088 9.57219 20.1724 8.64507 21.1281L 5.78609 24.0402L 5.78609 25L 11.4509 25L 11.4509 23.8687ZM 14.4465 21.3568L 15.0673 21.3568C 15.9944 21.3568 16.6356 21.7653 16.6356 22.7046C 16.6356 23.5583 15.9985 24.0361 15.1408 24.0361C 14.3239 24.0361 13.8134 23.5705 13.8134 22.8476L 12.4983 22.8476C 12.4983 24.3629 13.699 25.1144 15.1285 25.1144C 16.6928 25.1144 17.9548 24.2322 17.9548 22.721C 17.9548 21.8919 17.5587 21.0914 16.5294 20.7401C 17.3871 20.3276 17.7915 19.5067 17.7915 18.845C 17.7915 17.3257 16.6928 16.5211 15.153 16.5211C 13.5929 16.5211 12.5922 17.4482 12.5922 18.7307L 13.8502 18.7307C 13.8502 18.0363 14.4015 17.5544 15.1653 17.5544C 15.9862 17.5544 16.5131 18.0772 16.5131 18.8532C 16.5131 19.5965 16.0067 20.2051 15.0673 20.2051L 14.4465 20.2051L 14.4465 21.3568ZM 24.8998 22.2758L 23.7236 22.2758L 23.7236 16.6354L 22.3758 16.6354L 18.7571 22.5535L 18.7571 23.4071L 22.5514 23.4071L 22.5514 25L 23.7236 25L 23.7236 23.4071L 24.8998 23.4071L 24.8998 22.2758ZM 20.2315 22.2758L 22.3758 18.6612L 22.5514 18.2528L 22.5514 22.2758L 20.2315 22.2758ZM 27.0458 21.1771C 27.344 20.9076 27.7442 20.687 28.4386 20.687C 29.3003 20.687 30.0028 21.2425 30.0028 22.3452C 30.0028 23.354 29.3616 24.0402 28.4631 24.0402C 27.7116 24.0402 27.1929 23.6195 27.0662 22.8272L 25.792 22.8272C 25.89 24.3547 27.0662 25.1144 28.4304 25.1144C 30.2724 25.1144 31.2567 23.9177 31.2567 22.382C 31.2567 20.7074 30.1866 19.6374 28.6469 19.6374C 28.022 19.6374 27.5155 19.8824 27.2664 20.1234L 27.2215 20.1234L 27.5155 17.8117L 30.9259 17.8117L 30.9259 16.6354L 26.4046 16.6354L 25.9145 20.9117L 27.0458 21.1771ZM 36.5271 18.7838L 37.7647 18.7838C 37.4747 17.3829 36.6946 16.5211 35.2243 16.5211C 33.2148 16.5211 32.3408 18.2446 32.3489 20.8667L 32.3489 21.1567C 32.3489 23.7257 33.3292 25.1144 35.1589 25.1144C 36.8539 25.1144 37.8627 23.9013 37.8627 22.3411C 37.8627 20.9157 37.103 19.6496 35.4775 19.6496C 34.7791 19.6496 34.1011 19.9069 33.6355 20.4052C 33.7049 18.3263 34.4442 17.632 35.2283 17.632C 36.0738 17.632 36.3352 18.1915 36.5271 18.7838ZM 35.1998 20.7401C 36.1841 20.7401 36.6129 21.4671 36.6129 22.3738C 36.6129 23.35 36.0084 24.0279 35.1957 24.0279C 34.3666 24.0279 33.6886 23.4562 33.6845 22.2554C 33.6845 21.3813 34.3135 20.7401 35.1998 20.7401ZM 44.191 16.6354L 38.7793 16.6354L 38.7793 17.7995L 42.8391 17.7995L 39.588 25L 40.9767 25L 44.191 17.6688L 44.191 16.6354ZM 50.3814 22.6556C 50.3814 21.753 49.8627 20.9974 49.0499 20.5972C 49.7524 20.2173 50.1976 19.5475 50.1976 18.7552C 50.1976 17.2971 49.1316 16.5211 47.6776 16.5211C 46.2318 16.5211 45.1535 17.2971 45.1535 18.7552C 45.1535 19.5475 45.5906 20.2133 46.289 20.5931C 45.4803 20.9933 44.9616 21.7489 44.9616 22.6556C 44.9616 24.1913 46.1542 25.1144 47.6817 25.1144C 49.2092 25.1144 50.3814 24.1913 50.3814 22.6556ZM 48.9437 18.8164C 48.9437 19.5557 48.3801 20.0744 47.6817 20.0744C 46.9833 20.0744 46.4033 19.5557 46.4033 18.8001C 46.4033 18.0486 46.9833 17.6116 47.6654 17.6116C 48.376 17.6116 48.9437 18.0854 48.9437 18.8164ZM 49.0989 22.6066C 49.0989 23.4112 48.5026 24.0361 47.6858 24.0361C 46.8689 24.0361 46.2318 23.4112 46.2318 22.5903C 46.2318 21.7694 46.8689 21.124 47.6613 21.124C 48.4577 21.124 49.0989 21.7694 49.0989 22.6066ZM 52.9082 22.868L 51.6666 22.868C 51.9566 24.2648 52.7367 25.1266 54.207 25.1266C 56.2083 25.0817 57.0823 23.3908 57.0823 20.7728L 57.0823 20.4787C 57.0823 17.9138 56.1021 16.5252 54.2724 16.5252C 52.5774 16.5252 51.5563 17.7423 51.5563 19.2984C 51.5563 20.7238 52.3283 21.994 53.9538 21.994C 54.6522 21.994 55.3302 21.7367 55.7958 21.2343C 55.7264 23.3091 54.9912 24.0157 54.207 24.0198C 53.3575 24.0198 53.1002 23.4562 52.9082 22.868ZM 52.8184 19.2657C 52.8184 18.2937 53.4269 17.6157 54.2356 17.6157C 55.0688 17.6157 55.7427 18.1834 55.7468 19.3801C 55.7468 20.2582 55.1178 20.8994 54.2315 20.8994C 53.2472 20.8994 52.8184 20.1765 52.8184 19.2657ZM 63.8681 20.0826C 63.8681 17.6728 62.6714 16.5211 61.0172 16.5211C 59.3672 16.5211 58.1583 17.6728 58.1583 20.0826L 58.1583 21.4304C 58.1583 23.8973 59.3713 25.1144 61.0295 25.1144C 62.6795 25.1144 63.8681 23.8973 63.8681 21.4304L 63.8681 20.0826ZM 62.5652 21.6305C 62.5652 23.1376 61.9035 23.9871 61.0295 23.9871C 60.1473 23.9871 59.4611 23.1376 59.4611 21.6305L 59.4611 19.8783C 59.4611 18.408 60.135 17.6443 61.0172 17.6443C 61.8994 17.6443 62.5652 18.408 62.5652 19.8783L 62.5652 21.6305Z"/>
<path id="path3_fill" d="M 2.06255 11L 2.60167 9.19884L 5.39939 9.19884L 5.93851 11L 7.66207 11L 4.83984 2.63544L 3.15713 2.63544L 0.334909 11L 2.06255 11ZM 3.94948 4.71841L 4.05567 4.71841L 5.0073 7.89596L 2.99376 7.89596L 3.94948 4.71841ZM 11.8584 11L 13.3654 11L 13.3654 7.01785C 13.3654 5.31063 12.2096 4.6449 10.8332 4.6449C 9.73862 4.6449 8.56644 5.1105 8.17435 6.35212L 9.63652 6.62985C 9.84073 6.12748 10.2001 5.84567 10.776 5.84567C 11.4173 5.84567 11.7971 6.18058 11.7971 6.94433L 11.7971 7.20573L 11.2049 7.20573C 9.10556 7.20573 8.12534 7.9654 8.12534 9.30912C 8.12534 10.3874 9.04022 11.1266 10.2124 11.1266C 11.0783 11.1266 11.6133 10.7059 11.8093 10.3506L 11.8584 10.3506L 11.8584 11ZM 11.7971 8.24721L 11.7971 8.91703C 11.7971 9.47657 11.2008 9.94218 10.4779 9.94218C 10.0572 9.94218 9.6406 9.74205 9.6406 9.24377C 9.6406 8.5862 10.2206 8.24721 11.213 8.24721L 11.7971 8.24721ZM 17.5464 10.9796C 19.4088 10.9796 20.4993 10.1464 20.4993 8.54536C 20.4993 7.72443 20.0705 6.96884 19.0984 6.73604C 19.903 6.39296 20.2788 5.68638 20.2788 4.92671C 20.2788 3.49722 19.1597 2.63544 17.2932 2.63544L 14.4424 2.63544L 14.4424 10.9796L 17.5464 10.9796ZM 16.0189 3.97099L 17.2932 3.97099C 18.253 3.97099 18.7023 4.41209 18.7023 5.07374C 18.7023 5.71906 18.2407 6.1479 17.4198 6.18466L 16.0189 6.18875L 16.0189 3.97099ZM 18.9391 8.52494C 18.9391 9.22335 18.4204 9.65628 17.5464 9.65628L 16.0189 9.65628L 16.0189 7.35276L 17.6036 7.35276C 18.4858 7.35276 18.9391 7.78569 18.9391 8.52494ZM 26.8245 7.81428C 26.8245 5.92735 25.9015 4.6449 24.4271 4.6449C 23.7777 4.6449 23.2998 4.88995 22.9445 5.29838L 22.9445 2.63544L 21.3843 2.63544L 21.3843 11L 22.7811 11L 22.8424 10.3179C 23.21 10.808 23.7246 11.1144 24.4434 11.1144C 25.8974 11.1144 26.8245 9.75839 26.8245 7.81428ZM 25.3052 7.81428C 25.3052 8.95787 24.9254 9.83599 24.0595 9.83599C 23.2876 9.83599 22.8056 9.08448 22.7648 8.31256C 22.7362 8.13285 22.7362 7.73668 22.7648 7.5243C 22.7934 6.6421 23.2467 5.93552 24.0268 5.93552C 24.9417 5.93552 25.3052 6.77688 25.3052 7.81428ZM 32.726 8.39833C 32.5994 8.97829 32.2849 9.74613 31.1944 9.74613C 29.8793 9.74613 29.2748 8.61479 29.2748 6.80547C 29.2748 4.96347 29.9365 3.87297 31.1944 3.87297C 32.2236 3.87297 32.628 4.60814 32.7505 5.26979L 34.3393 5.09825C 34.1065 3.61975 33.016 2.52108 31.1209 2.52108C 28.9889 2.52108 27.6901 4.15887 27.6901 6.80547C 27.6901 9.48882 28.9481 11.1144 31.1331 11.1144C 32.9874 11.1144 34.1187 10.0443 34.3393 8.56578L 32.726 8.39833ZM 40.5409 6.7442C 40.3653 5.56794 39.4586 4.6449 37.9148 4.6449C 36.0973 4.6449 35.0313 6.00495 35.0313 7.87554C 35.0313 9.77064 36.1014 11.1184 37.9229 11.1184C 39.3565 11.1184 40.3653 10.322 40.5409 9.09674L 39.1115 8.90478C 38.993 9.3663 38.6458 9.84007 37.9025 9.84007C 36.9836 9.84007 36.5261 9.02322 36.5261 7.87554C 36.5261 6.76871 36.9713 5.9151 37.8984 5.9151C 38.7316 5.9151 39.0298 6.58492 39.1196 6.94433L 40.5409 6.7442ZM 4.32114 16.5823L 4.15777 16.5823L 0.510532 17.9669L 0.510532 19.2698L 2.75279 18.4489L 2.75279 25L 4.32114 25L 4.32114 16.5823ZM 11.697 23.6644L 8.55623 23.6644C 8.36836 23.6644 8.27442 23.6644 8.11105 23.7298L 8.07429 23.644C 8.23358 23.5746 8.29484 23.5256 8.41737 23.4031L 9.65898 22.1002C 10.7046 20.9811 11.4765 20.0335 11.4765 18.9226C 11.4765 17.4523 10.4922 16.5211 8.7972 16.5211C 7.04506 16.5211 6.03625 17.828 6.03625 19.3025L 7.56376 19.3025C 7.56376 18.4856 7.94768 17.779 8.76861 17.779C 9.51195 17.779 9.95305 18.2896 9.95305 19.0492C 9.95305 19.5761 9.63856 20.1561 8.78495 21.0301L 5.99132 23.8523L 5.99132 25L 11.697 25L 11.697 23.6644ZM 14.5618 21.4712L 15.3133 21.4712C 16.167 21.4712 16.7183 21.7979 16.7183 22.6883C 16.7183 23.4031 16.1792 23.8564 15.3869 23.8564C 14.668 23.8564 14.1657 23.4235 14.1657 22.7904L 12.6218 22.7904C 12.6218 24.3792 13.9533 25.1144 15.3501 25.1144C 16.9879 25.1144 18.2581 24.2322 18.2581 22.7087C 18.2581 21.8102 17.7925 21.0791 16.8164 20.7565C 17.6618 20.3562 18.1111 19.572 18.1111 18.8532C 18.1111 17.3338 16.9879 16.5211 15.3624 16.5211C 13.8471 16.5211 12.7239 17.4074 12.7239 18.7388L 14.2433 18.7388C 14.2433 18.1425 14.7538 17.7586 15.4032 17.7586C 16.1588 17.7586 16.5958 18.2324 16.5958 18.8777C 16.5958 19.572 16.1547 20.1234 15.3133 20.1234L 14.5618 20.1234L 14.5618 21.4712ZM 25.2439 22.0553L 24.035 22.0553L 24.035 16.6354L 22.4421 16.6354L 18.9542 22.3493L 18.9542 23.3908L 22.6259 23.3908L 22.6259 25L 24.035 25L 24.035 23.3908L 25.2439 23.3908L 25.2439 22.0553ZM 20.6165 22.0553L 22.4421 18.9553L 22.6259 18.5959L 22.6259 22.0553L 20.6165 22.0553ZM 27.5308 21.2139C 27.7718 20.9811 28.123 20.7565 28.752 20.7565C 29.6097 20.7565 30.1611 21.3323 30.1611 22.2962C 30.1611 23.1866 29.6996 23.8564 28.8541 23.8564C 28.1802 23.8564 27.7269 23.4562 27.6329 22.7618L 26.1136 22.7618C 26.1626 24.273 27.4451 25.1144 28.8419 25.1144C 30.7247 25.1144 31.6641 23.8523 31.6641 22.3779C 31.6641 20.6584 30.5981 19.5884 29.1319 19.5884C 28.4661 19.5884 28.0209 19.8375 27.8208 20.0662L 27.7759 20.0662L 28.025 17.9914L 31.3619 17.9914L 31.3619 16.6354L 26.7507 16.6354L 26.2606 20.9035L 27.5308 21.2139ZM 36.7181 18.8328L 38.1884 18.8328C 37.9066 17.4523 37.102 16.5211 35.5541 16.5211C 33.418 16.5211 32.6052 18.3304 32.6297 20.9893L 32.6297 21.2874C 32.6297 23.7625 33.7284 25.1144 35.5132 25.1144C 37.1959 25.1144 38.2578 23.8932 38.2578 22.3166C 38.2578 20.8177 37.4859 19.5679 35.9176 19.5679C 35.2069 19.5679 34.5861 19.8457 34.1613 20.2949C 34.2308 18.5918 34.8066 17.8117 35.55 17.8117C 36.277 17.8117 36.522 18.2283 36.7181 18.8328ZM 34.1818 22.1778L 34.1818 22.1369C 34.1818 21.4304 34.6719 20.83 35.4887 20.83C 36.3301 20.83 36.763 21.4589 36.763 22.333C 36.763 23.2193 36.2402 23.8482 35.5091 23.8482C 34.7372 23.8482 34.1818 23.3132 34.1818 22.1778ZM 44.7168 16.6354L 39.15 16.6354L 39.15 17.9873L 43.0464 17.9873L 39.975 25L 41.6087 25L 44.7168 17.6606L 44.7168 16.6354ZM 50.9389 22.672C 50.9389 21.7612 50.4365 21.0342 49.6442 20.6421C 50.3344 20.2663 50.7633 19.6088 50.7633 18.8124C 50.7633 17.3134 49.6891 16.5211 48.1779 16.5211C 46.6913 16.5211 45.5967 17.3134 45.5967 18.8124C 45.5967 19.6047 46.0255 20.2623 46.7158 20.638C 45.9234 21.0301 45.4129 21.7571 45.4129 22.672C 45.4129 24.2403 46.6218 25.1144 48.1902 25.1144C 49.7585 25.1144 50.9389 24.2403 50.9389 22.672ZM 49.2562 18.89C 49.2562 19.5639 48.8232 20.0254 48.1902 20.0254C 47.5571 20.0254 47.1079 19.5639 47.1079 18.8818C 47.1079 18.1956 47.5571 17.7995 48.1739 17.7995C 48.811 17.7995 49.2562 18.2242 49.2562 18.89ZM 49.4114 22.578C 49.4114 23.3214 48.9131 23.8401 48.1943 23.8401C 47.4754 23.8401 46.9363 23.3214 46.9363 22.574C 46.9363 21.8102 47.4754 21.2792 48.1698 21.2792C 48.8763 21.2792 49.4114 21.8102 49.4114 22.578ZM 53.6924 22.8231L 52.2139 22.8231C 52.4998 24.2036 53.3003 25.1348 54.8483 25.1348C 56.9721 25.049 57.7767 23.2969 57.7767 20.6503L 57.7767 20.3399C 57.7767 17.873 56.678 16.5252 54.8932 16.5252C 53.2105 16.5252 52.1281 17.7423 52.1281 19.3229C 52.1281 20.8218 52.9205 22.0675 54.4888 22.0675C 55.1954 22.0675 55.8121 21.7939 56.241 21.3487C 56.1634 23.0396 55.5998 23.8401 54.8605 23.8442C 54.1294 23.8482 53.8844 23.4276 53.6924 22.8231ZM 53.6434 19.3025C 53.6434 18.4162 54.1662 17.7872 54.8973 17.7872C 55.6692 17.7872 56.2206 18.3222 56.2206 19.4617L 56.2206 19.5026C 56.2206 20.2092 55.7345 20.8096 54.9177 20.8096C 54.0763 20.8096 53.6434 20.1765 53.6434 19.3025ZM 64.6216 20.0826C 64.6216 17.7055 63.3841 16.5211 61.7136 16.5211C 60.0391 16.5211 58.7975 17.7055 58.7975 20.0826L 58.7975 21.4467C 58.7975 23.9136 60.035 25.1144 61.7177 25.1144C 63.3922 25.1144 64.6216 23.9136 64.6216 21.4467L 64.6216 20.0826ZM 63.0655 21.6713C 63.0655 23.1212 62.4855 23.7911 61.7177 23.7911C 60.9417 23.7911 60.3536 23.1212 60.3536 21.6713L 60.3536 19.862C 60.3536 18.4897 60.9376 17.8321 61.7136 17.8321C 62.4896 17.8321 63.0655 18.4897 63.0655 19.862L 63.0655 21.6713Z"/>
<path id="path4_fill" d="M 14.9116 33L 18.2444 33L 18.2444 32.7917L 14.6788 22.5361C 17.7175 21.3966 19.9965 18.9828 20.3641 15.6623C 20.891 10.847 17.742 7.97984 13.0737 7.90633L 5.44023 7.90633L 1.0905 33L 4.05567 33L 5.7588 23.2468L 11.6524 23.2468L 14.9116 33ZM 7.95205 10.6019L 12.9634 10.6142C 16.1982 10.6755 17.84 12.3786 17.3622 15.6378C 16.9088 18.7255 13.8211 20.5757 10.8927 20.5634L 6.22441 20.5512L 7.95205 10.6019ZM 29.4364 33.3921C 32.5486 33.4411 35.6363 32.0565 36.9964 29.1404L 34.4968 27.9764C 33.4553 29.802 31.6787 30.8558 29.5589 30.7945C 26.2752 30.721 24.9764 27.7313 25.148 24.8151L 38.2094 24.8151L 38.3809 23.5899C 38.9691 18.7255 37.3885 13.996 31.8257 13.9224C 26.3977 13.8612 22.9792 18.6888 22.4156 23.6634C 21.852 28.5277 23.9839 33.3186 29.4364 33.3921ZM 31.7522 16.52C 35.1095 16.5935 36.2735 19.3014 35.8201 22.3156L 25.4298 22.3278C 26.3732 19.4484 28.3459 16.4465 31.7522 16.52ZM 41.2503 23.8717C 40.7602 27.8783 42.2673 32.6079 46.9968 32.7059C 49.2636 32.7549 51.175 31.9218 52.7066 30.2676L 52.7924 30.3289L 52.3023 32.7549C 51.7387 35.8917 49.2759 37.5458 46.1759 37.46C 44.1297 37.3987 42.7941 36.5288 41.6301 34.9482L 39.3879 36.6268C 40.9317 38.9548 43.272 40.0208 46.0534 40.0576C 50.2806 40.1189 54.3853 37.8276 55.0347 33.3921L 58.3062 14.2778L 55.488 14.2778L 54.9121 17.1082C 53.9319 15.0865 52.1063 13.9837 49.8762 13.9347C 44.7301 13.8244 41.9119 19.0809 41.2993 23.5286L 41.2503 23.8717ZM 44.2155 23.5286C 44.7178 20.2816 46.7763 16.5813 50.5379 16.7283C 53.0742 16.8386 54.0789 19.4852 54.0789 21.6784C 54.0789 23.0508 53.8706 24.4721 53.3928 25.7586C 52.5228 28.0621 50.4766 30.1941 47.8545 30.1206C 44.5095 30.0348 43.7989 26.6041 44.1665 23.8717L 44.2155 23.5286ZM 72.8555 25.5503C 72.4021 28.3562 70.1231 30.5617 67.1947 30.4514C 64.7441 30.3657 63.7884 28.4052 64.0702 26.1507L 66.1164 14.1797L 63.286 14.1797L 61.2521 26.1384C 60.86 29.3732 62.3793 33.147 66.1042 33.2573C 68.469 33.3308 70.5029 32.1668 71.9488 30.3411L 72.0835 30.3411L 71.5199 33L 74.3503 33L 77.6218 14.1797L 74.7914 14.1797L 72.8555 25.5503ZM 86.7799 7.90633L 83.9495 7.90633L 79.5998 33L 82.4301 33L 86.7799 7.90633ZM 98.3793 33L 101.124 33L 102.962 22.1686C 103.513 17.7576 101.994 14.0327 97.1418 13.9347C 93.7968 13.8734 90.6968 15.3928 89.2755 18.5172L 91.8609 19.5587C 92.9881 17.7208 94.8383 16.4097 97.056 16.471C 99.9354 16.5568 100.634 19.1421 100.205 21.6049L 100.131 21.9848L 98.5754 21.9725C 94.2624 21.9603 87.8052 22.6464 87.3886 28.1357C 87.1313 31.4684 89.7779 33.4166 92.8901 33.4534C 95.2059 33.4779 97.4726 32.3996 98.7469 30.4392L 98.8327 30.4269L 98.3793 33ZM 99.7884 24.4231L 99.4698 26.3345C 98.9184 29.2752 95.7082 30.917 92.9391 30.8558C 91.2727 30.8068 90.0107 29.9491 90.219 28.1479C 90.6478 24.3741 95.6715 24.4108 98.5019 24.4231L 99.7884 24.4231ZM 117.811 13.9714C 117.321 13.8857 116.819 13.8489 116.317 13.8489C 114.025 13.8489 111.942 15.3928 110.974 17.4267L 110.827 17.4267L 111.489 14.1797L 108.659 14.1797L 105.399 33L 108.217 33L 110.092 22.2176C 110.631 19.4117 113.045 16.8263 116.022 16.8386C 116.5 16.8508 116.99 16.8876 117.456 16.9734L 117.811 13.9714ZM 134.011 7.90633L 131.046 7.90633L 126.696 33L 129.661 33L 134.011 7.90633ZM 146.064 14.1797L 142.167 14.1797L 142.866 10.1608L 140.035 10.1608L 139.337 14.1797L 136.396 14.1797L 135.918 16.8754L 138.871 16.8754L 136.948 28.393C 136.715 31.0396 138.577 33.049 141.212 33.1225C 141.8 33.147 142.388 33.1348 142.951 32.9632L 143.233 30.3044C 142.853 30.3411 142.474 30.3779 142.082 30.3779C 140.317 30.3657 139.692 29.3487 139.888 27.621L 141.702 16.8754L 145.598 16.8754L 146.064 14.1797ZM 157.231 33L 159.976 33L 161.814 22.1686C 162.365 17.7576 160.846 14.0327 155.994 13.9347C 152.649 13.8734 149.549 15.3928 148.127 18.5172L 150.713 19.5587C 151.84 17.7208 153.69 16.4097 155.908 16.471C 158.787 16.5568 159.486 19.1421 159.057 21.6049L 158.983 21.9848L 157.427 21.9725C 153.114 21.9603 146.657 22.6464 146.24 28.1357C 145.983 31.4684 148.63 33.4166 151.742 33.4534C 154.058 33.4779 156.325 32.3996 157.599 30.4392L 157.685 30.4269L 157.231 33ZM 158.64 24.4231L 158.322 26.3345C 157.77 29.2752 154.56 30.917 151.791 30.8558C 150.125 30.8068 148.863 29.9491 149.071 28.1479C 149.5 24.3741 154.523 24.4108 157.354 24.4231L 158.64 24.4231ZM 171.713 7.90633L 168.883 7.90633L 164.533 33L 167.363 33L 171.713 7.90633ZM 176.39 9.5482C 176.402 10.6632 177.26 11.4719 178.362 11.4474C 179.514 11.4351 180.409 10.5529 180.384 9.38891C 180.36 8.32292 179.477 7.48973 178.411 7.50199C 177.296 7.51424 176.378 8.42094 176.39 9.5482ZM 178.963 14.1797L 176.145 14.1797L 172.873 33L 175.704 33L 178.963 14.1797ZM 197.62 19.8405C 197.216 16.2015 194.569 13.996 190.942 13.9347C 185.502 13.8489 182.096 18.6765 181.52 23.6634C 180.993 28.3317 182.941 33.3063 188.271 33.3921C 191.984 33.4534 195.537 31.2846 196.309 27.5108L 193.478 27.523C 192.621 29.6672 190.685 30.868 188.394 30.8068C 184.73 30.6965 183.995 26.5918 184.362 23.6634C 184.779 20.3061 187.021 16.4343 190.869 16.5323C 192.952 16.5935 194.446 17.7821 194.851 19.8283L 197.62 19.8405Z"/>
<path id="path5_fill" d="M 2.46281 7.90633L 2.46281 33L 6.33468 33L 6.33468 15.0252L 6.53073 15.0252L 12.8777 32.8775L 16.0266 32.8775L 22.4103 15.0497L 22.6186 15.0497L 22.6186 33L 26.4782 33L 26.4782 7.90633L 21.4914 7.90633L 14.6053 26.8491L 14.3112 26.8491L 7.43743 7.90633L 2.46281 7.90633ZM 38.5341 33.3798C 42.2222 33.3798 44.685 31.6399 45.7755 29.4344L 42.9451 27.5965C 42.0629 29.2016 40.7151 30.1083 38.6444 30.1083C 35.8017 30.1083 33.9148 28.1724 33.4982 25.0357L 46.3024 25.0357L 46.3024 23.4183C 46.3024 16.9734 43.0064 13.9347 38.1298 13.9347C 32.8733 13.9347 29.6753 18.0271 29.6753 23.6879C 29.6753 29.2997 32.9836 33.3798 38.5341 33.3798ZM 38.142 17.1817C 41.0214 17.1817 42.651 19.1544 42.651 22.144L 33.5227 22.144C 33.9393 19.1789 35.5934 17.1817 38.142 17.1817ZM 48.1915 23.5286C 48.1915 29.2261 51.0341 33.3431 55.4206 33.3431C 57.9202 33.3431 59.6233 32.1913 60.7873 30.4024L 60.9956 33L 64.4999 33L 64.4999 7.90633L 60.6526 7.90633L 60.6526 16.7406C 59.5008 15.0252 57.8467 13.9347 55.4696 13.9347C 51.0096 13.9347 48.1915 17.9046 48.1915 23.5286ZM 52.0389 23.5286C 52.0389 20.1714 53.4112 17.3165 56.5234 17.3165C 59.2312 17.3165 60.53 19.9385 60.6893 22.1808C 60.8486 23.063 60.8486 24.4966 60.6893 25.3175C 60.4688 27.4372 59.0474 30.0716 56.3763 30.0716C 53.4724 30.0716 52.0389 27.1554 52.0389 23.5286ZM 67.985 9.73199C 67.985 10.994 68.9039 11.962 70.3743 11.962C 71.8323 11.962 72.7758 10.994 72.7758 9.73199C 72.7758 8.53122 71.8323 7.50199 70.3743 7.50199C 68.9039 7.50199 67.985 8.53122 67.985 9.73199ZM 72.2857 14.1797L 68.4383 14.1797L 68.4383 33L 72.2857 33L 72.2857 14.1797ZM 88.2839 25.0725C 88.2839 28.2949 86.299 29.8633 84.1547 29.8633C 82.0595 29.8633 80.5401 28.491 80.5401 26.0037L 80.5401 14.1797L 76.6805 14.1797L 76.6805 26.0649C 76.6805 31.1008 79.952 33.2451 82.8437 33.2451C 85.4535 33.2451 87.2669 31.983 88.2471 30.574L 88.4432 30.574L 88.4432 33L 92.1435 33L 92.1435 14.1797L 88.2839 14.1797L 88.2839 25.0725ZM 110.408 21.2373C 110.408 18.799 111.695 17.3165 113.876 17.3165C 115.359 17.3165 117.086 18.1619 117.086 20.8207L 117.086 33L 120.946 33L 120.946 20.882C 120.946 15.9932 118.397 13.9347 115.236 13.9347C 112.614 13.9347 110.568 15.4908 109.857 17.0469L 109.661 17.0469C 108.84 15.2457 107.211 13.9347 104.895 13.9347C 102.518 13.9347 100.717 15.4418 99.9936 16.9489L 99.8098 16.9489L 99.8098 14.1797L 96.0115 14.1797L 96.0115 33L 99.8588 33L 99.8588 21.5559C 99.8588 18.8481 101.586 17.3165 103.473 17.3165C 105.336 17.3165 106.598 18.3334 106.598 20.882L 106.598 33L 110.408 33L 110.408 21.2373Z"/>
<path id="path6_fill" d="M 4.97462 7.90633L 0.624891 33L 4.411 33L 7.59672 15.0007L 7.80501 15.0129L 10.8314 32.8775L 13.9191 32.8775L 23.219 15.0129L 23.3905 15.0129L 20.1803 33L 23.9542 33L 28.3039 7.90633L 23.3538 7.90633L 13.3555 26.8736L 13.0737 26.8614L 9.74095 7.90633L 4.97462 7.90633ZM 36.831 33.3798C 39.7226 33.4288 42.9083 32.1913 44.2316 29.4589L 41.5973 27.621C 40.5436 29.2139 38.9875 30.1574 37.0393 30.1083C 34.1966 30.0348 32.9346 27.6455 33.0816 25.0357L 45.4447 25.0357L 45.6652 23.4183C 46.2533 18.603 44.4277 13.9837 38.9997 13.9224C 33.4737 13.8612 30.0674 18.6888 29.5038 23.7614C 28.9524 28.7238 31.4152 33.3063 36.831 33.3798ZM 38.8772 17.1694C 41.7198 17.2552 42.6755 19.6322 42.2467 22.1563L 33.3879 22.1686C 34.3069 19.718 35.9243 17.0959 38.8772 17.1694ZM 48.02 23.6144C 47.5298 27.6455 48.5958 33.2451 53.644 33.3553C 56.021 33.4043 57.8712 32.2403 59.219 30.3657L 58.8269 33L 62.2332 33L 66.5952 7.90633L 62.8335 7.90633L 61.1794 16.7651C 60.1992 14.9762 58.5328 13.9837 56.4866 13.9347C 51.3037 13.8122 48.5836 19.1421 48.02 23.6144ZM 51.7816 23.6266C 52.1981 20.7227 53.9258 17.1817 57.3443 17.3165C 59.9174 17.4267 60.481 20.0733 60.3952 22.1808C 60.3462 23.259 60.1624 24.2883 59.8316 25.3175C 59.0965 27.6088 57.4423 30.1819 54.7222 30.0961C 51.5242 29.9981 51.4507 25.9424 51.7816 23.6266ZM 70.2027 9.80551C 70.2272 11.1043 71.2565 11.9865 72.5308 11.9742C 73.8418 11.962 74.8955 10.994 74.8465 9.64622C 74.8098 8.38419 73.7683 7.47748 72.5308 7.48973C 71.2197 7.50199 70.166 8.48221 70.2027 9.80551ZM 73.6213 14.1797L 69.8597 14.1797L 66.6004 33L 70.362 33L 73.6213 14.1797ZM 87.4997 25.0725C 87.0954 27.5843 85.3065 29.9736 82.5374 29.8755C 80.3441 29.7898 79.6212 27.9764 79.8662 26.0159L 81.888 14.1797L 78.1141 14.1797L 76.0924 26.0649C 75.6881 29.4589 77.2074 33.1593 81.0793 33.2573C 83.3338 33.3186 85.282 32.2771 86.691 30.5494L 86.8013 30.5494L 86.2499 33L 89.8768 33L 93.136 14.1797L 89.3621 14.1797L 87.4997 25.0725ZM 110.188 21.2373C 110.543 19.0809 112.001 17.2184 114.354 17.3042C 116.327 17.3777 116.915 19.0563 116.694 20.8085L 114.623 33L 118.397 33L 120.456 20.882C 120.836 17.5615 119.708 13.996 115.849 13.9347C 113.533 13.8857 111.438 15.1355 110.188 17.0469L 110.016 17.0591C 109.49 15.1477 107.774 13.9714 105.814 13.9347C 103.633 13.8857 101.783 15.1722 100.668 16.9734L 100.557 16.9734L 101.158 14.1797L 97.445 14.1797L 94.1736 33L 97.9352 33L 99.8956 21.5559C 100.263 19.3994 101.856 17.2184 104.258 17.3042C 106.341 17.3777 106.745 19.0686 106.512 20.8698L 104.454 33L 108.166 33L 110.188 21.2373ZM 140.187 7.90633L 136.315 7.90633L 131.966 33L 135.837 33L 140.187 7.90633ZM 152.081 14.1797L 148.54 14.1797L 149.25 10.1608L 145.489 10.1608L 144.79 14.1797L 142.095 14.1797L 141.543 17.3042L 144.251 17.3042L 142.425 28.1724C 142.168 30.9293 144.178 33.1225 146.934 33.2205C 147.657 33.2328 148.368 33.196 149.079 33.0368L 149.373 29.7653C 148.944 29.7898 148.515 29.8265 148.086 29.8143C 146.591 29.7775 146.114 28.8831 146.285 27.4495L 148.013 17.3042L 151.529 17.3042L 152.081 14.1797ZM 162.476 33L 166.042 33L 167.99 21.5682C 168.505 17.2062 166.385 14.0082 161.851 13.9347C 158.433 13.8734 155.027 15.454 153.765 18.7868L 157.281 19.7303C 158.188 18.0761 159.732 16.9734 161.655 17.0346C 164.045 17.1082 164.584 19.1176 164.216 21.1761L 164.094 21.801L 162.366 21.7887C 158.078 21.7765 152.319 22.7812 151.963 28.0621C 151.743 31.3214 154.365 33.3676 157.453 33.4166C 159.572 33.4411 161.606 32.5344 162.807 30.7577L 162.881 30.7455L 162.476 33ZM 163.726 24.5946L 163.383 26.555C 162.905 28.9811 160.234 30.3657 157.943 30.3044C 156.521 30.2676 155.48 29.4957 155.688 27.9886C 156.105 24.8764 159.928 24.5823 162.39 24.5823L 163.726 24.5946ZM 178.334 7.90633L 174.56 7.90633L 170.21 33L 173.984 33L 178.334 7.90633ZM 182.278 9.80551C 182.303 11.1043 183.332 11.9865 184.606 11.9742C 185.917 11.962 186.971 10.994 186.922 9.64622C 186.885 8.38419 185.844 7.47748 184.606 7.48973C 183.295 7.50199 182.241 8.48221 182.278 9.80551ZM 185.697 14.1797L 181.935 14.1797L 178.676 33L 182.437 33L 185.697 14.1797ZM 203.876 20.0611C 203.398 16.324 200.788 13.996 196.99 13.9347C 191.501 13.8489 188.033 18.5907 187.469 23.6756C 186.93 28.4787 189.087 33.3063 194.478 33.3798C 198.227 33.4411 201.903 31.2601 202.577 27.376L 198.999 27.0942C 198.338 29.0178 196.598 30.1819 194.551 30.1206C 191.231 30.0226 190.802 26.2487 191.145 23.6756C 191.525 20.686 193.375 17.0714 196.867 17.1817C 198.84 17.2429 199.992 18.5417 200.359 20.3919L 203.876 20.0611Z"/>
<path id="path7_fill" d="M 11.3951 32.9387C 16.9823 32.9387 20.2538 30.4392 20.2538 25.6361C 20.2538 23.1733 18.9673 20.9065 16.0511 20.2081C 18.4649 19.1789 19.5922 17.0591 19.5922 14.7801C 19.5922 10.4917 16.2349 7.90633 10.6354 7.90633L 2.08297 7.90633L 2.08297 32.9387L 11.3951 32.9387ZM 6.81254 11.913L 10.6354 11.913C 13.5148 11.913 14.8626 13.2363 14.8626 15.2212C 14.8626 17.1572 13.478 18.4437 11.0152 18.554L 6.81254 18.5662L 6.81254 11.913ZM 15.5733 25.5748C 15.5733 27.67 14.0172 28.9688 11.3951 28.9688L 6.81254 28.9688L 6.81254 22.0583L 11.5666 22.0583C 14.2132 22.0583 15.5733 23.3571 15.5733 25.5748ZM 31.3039 33.3308C 36.1682 33.3308 39.8073 30.0348 39.8073 23.5899C 39.8073 17.3532 36.0089 13.9347 31.2794 13.9347C 26.5743 13.9347 22.8127 17.488 22.8127 23.5899C 22.8127 29.9491 26.4395 33.3308 31.3039 33.3308ZM 31.2794 29.5202C 28.7798 29.5202 27.334 27.4495 27.334 23.5899C 27.334 19.7425 28.8778 17.7453 31.2794 17.7453C 33.7177 17.7453 35.3473 19.6077 35.3473 23.5899C 35.3473 27.5843 33.7544 29.5202 31.2794 29.5202ZM 47.6012 7.90633L 42.9328 7.90633L 42.9328 33L 47.6012 33L 47.6012 7.90633ZM 50.7053 23.5041C 50.7053 29.2752 53.4009 33.3431 57.8854 33.3431C 60.0664 33.3431 61.6347 32.3629 62.762 30.7822L 62.9948 33L 67.2343 33L 67.2343 7.90633L 62.5537 7.90633L 62.5537 16.2382C 61.4509 14.8046 59.9561 13.9347 57.9344 13.9347C 53.3764 13.9347 50.7053 17.8556 50.7053 23.5041ZM 55.2878 23.5041C 55.2878 20.3429 56.4151 17.8066 59.1352 17.8066C 61.6225 17.8066 62.8233 19.9876 62.909 22.5974C 62.9948 23.2345 62.9948 24.3005 62.909 24.9009C 62.7865 27.2902 61.5122 29.508 59.0372 29.508C 56.4028 29.508 55.2878 26.9349 55.2878 23.5041Z"/>
<path id="path8_fill" d="M 9.60617 32.951C 14.3848 32.951 18.7345 30.7455 19.1511 25.5503C 19.3226 23.2713 18.3301 21.0413 16.0389 20.2939C 18.5139 19.2646 20.2048 17.4512 20.4254 14.6821C 20.793 9.95254 16.7985 7.97984 12.6204 7.91858L 4.60704 7.90633L 0.269561 32.9387L 9.60617 32.951ZM 8.52793 11.913L 12.5101 11.9252C 14.5318 11.9742 16.0879 12.9055 15.7203 15.1232C 15.3527 17.3532 13.3188 18.5172 11.1745 18.5785L 7.37617 18.554L 8.52793 11.913ZM 14.6298 25.4768C 14.2377 27.9028 11.9955 28.9811 9.7287 28.9811L 5.57501 28.9688L 6.77578 22.0583L 11.6524 22.0705C 13.7721 22.1318 14.9729 23.3081 14.6298 25.4768ZM 29.6742 33.3308C 35.2983 33.4166 38.631 28.7115 39.1579 23.5164C 39.648 18.7255 37.4425 14.0082 32.1003 13.9347C 26.6601 13.8489 23.1803 18.6398 22.6657 23.6634C 22.1633 28.5155 24.234 33.2573 29.6742 33.3308ZM 29.7845 29.5202C 26.7948 29.4222 26.8194 25.8811 27.0767 23.6756C 27.4075 21.0168 28.7798 17.635 31.9655 17.733C 34.9797 17.8311 35.0777 21.2251 34.7959 23.5041C 34.4773 26.2487 33.0805 29.6427 29.7845 29.5202ZM 50.0149 7.90633L 45.4447 7.90633L 41.0949 33L 45.6652 33L 50.0149 7.90633ZM 50.546 23.5899C 50.0436 27.6578 51.0483 33.2573 56.17 33.3553C 58.2775 33.3921 59.9316 32.3629 61.1936 30.7332L 60.8506 33L 64.9675 33L 69.3295 7.90633L 64.7469 7.90633L 63.1541 16.2872C 62.1739 14.8046 60.6913 13.9837 58.9146 13.9347C 53.6949 13.8122 51.0851 19.0931 50.546 23.5899ZM 55.0305 23.5776C 55.3981 21.0045 56.7826 17.6718 59.8948 17.8066C 62.4679 17.9046 62.6885 20.5879 62.5414 22.5974C 62.4802 23.3816 62.3454 24.1412 62.1371 24.9009C 61.549 27.1554 60.1031 29.6305 57.4443 29.5325C 54.5159 29.4222 54.7487 25.6238 55.0305 23.5776ZM 86.9757 7.90633L 82.3196 7.90633L 77.9699 33L 82.6259 33L 86.9757 7.90633ZM 99.0458 14.1797L 95.8233 14.1797L 96.5217 10.1608L 91.9514 10.1608L 91.253 14.1797L 88.7779 14.1797L 88.1653 17.6718L 90.6526 17.6718L 88.925 27.9764C 88.6677 30.8435 90.7629 33.1715 93.63 33.2573C 94.4632 33.2818 95.2719 33.2328 96.0928 33.0858L 96.4482 29.2874C 95.9948 29.3119 95.5415 29.3364 95.0881 29.3119C 93.8261 29.2629 93.4217 28.491 93.581 27.278L 95.2229 17.6718L 98.4454 17.6718L 99.0458 14.1797ZM 109.103 33L 113.392 33L 115.413 21.0535C 115.891 16.7406 113.245 14.0082 109.005 13.9347C 105.501 13.8734 101.85 15.5153 100.735 19.0441L 105.011 19.865C 105.758 18.4192 107.008 17.4635 108.687 17.5248C 110.647 17.5983 111.15 19.0563 110.831 20.7962L 110.635 21.6417L 108.772 21.6172C 104.46 21.6049 99.3134 22.8915 99.007 28.0131C 98.811 31.2356 101.409 33.3431 104.472 33.3921C 106.432 33.4166 108.27 32.6447 109.41 31.0151L 109.459 31.0151L 109.103 33ZM 110.231 24.7416L 109.875 26.7511C 109.471 28.7115 107.253 29.9 105.366 29.8388C 104.141 29.802 103.296 29.1159 103.492 27.8416C 103.884 25.3175 106.69 24.7171 108.822 24.7294L 110.231 24.7416ZM 126.488 7.90633L 121.918 7.90633L 117.568 33L 122.138 33L 126.488 7.90633ZM 130.168 10.0383C 130.205 11.4841 131.344 12.4521 132.766 12.4399C 134.248 12.4399 135.424 11.3861 135.363 9.86677C 135.314 8.42094 134.15 7.45298 132.753 7.46523C 131.283 7.46523 130.119 8.53122 130.168 10.0383ZM 134.322 14.1797L 129.751 14.1797L 126.48 33L 131.062 33L 134.322 14.1797ZM 152.429 20.2694C 151.878 16.4343 149.342 13.996 145.396 13.9347C 139.834 13.8489 136.317 18.5295 135.766 23.7001C 135.226 28.6135 137.53 33.2818 142.958 33.3553C 146.744 33.4166 150.53 31.2356 151.167 27.278L 146.977 26.7143C 146.401 28.4542 144.894 29.5815 143.044 29.5325C 140.03 29.4589 139.858 25.9669 140.152 23.7001C 140.495 21.0168 141.99 17.6228 145.2 17.7576C 147.075 17.8188 147.908 19.1911 148.263 20.8575L 152.429 20.2694Z"/>
<path id="path9_fill" d="M 2.45055 11L 2.89165 9.43165L 5.4729 9.43165L 5.914 11L 7.98881 11L 5.19517 2.63544L 3.16938 2.63544L 0.375752 11L 2.45055 11ZM 4.13327 5.00431L 4.23129 5.00431L 5.04814 7.9123L 3.31642 7.9123L 4.13327 5.00431ZM 12.0125 11L 13.8096 11L 13.8096 6.81772C 13.8096 5.36373 12.666 4.6449 11.2284 4.6449C 9.9214 4.6449 8.81048 5.24937 8.48374 6.44197L 10.2481 6.68702C 10.3952 6.24592 10.6402 6.03354 11.1303 6.03354C 11.6858 6.03354 11.9145 6.29494 11.9145 6.80138L 11.9145 7.14446L 11.2774 7.14446C 9.20257 7.14446 8.45106 8.02666 8.45106 9.28461C 8.45106 10.3629 9.38227 11.1144 10.5095 11.1144C 11.2937 11.1144 11.7675 10.7876 11.9635 10.4609L 12.0125 10.4609L 12.0125 11ZM 11.9145 8.30439L 11.9145 8.99055C 11.9145 9.43165 11.4244 9.75839 10.9343 9.75839C 10.5259 9.75839 10.2645 9.52967 10.2645 9.18659C 10.2645 8.72915 10.5585 8.30439 11.2937 8.30439L 11.9145 8.30439ZM 17.9548 10.9673C 19.9316 10.9673 20.9772 10.1341 20.9772 8.50043C 20.9772 7.73259 20.6259 6.96884 19.6784 6.7197C 20.4912 6.38887 20.8138 5.69455 20.8138 4.9553C 20.8138 3.38695 19.6212 2.63544 17.6444 2.63544L 14.7364 2.63544L 14.7364 10.9673L 17.9548 10.9673ZM 16.6152 4.2038L 17.6444 4.2038C 18.543 4.2038 18.9351 4.48153 18.9351 5.18402C 18.9351 5.80483 18.5593 6.11523 17.6444 6.11523L 16.6152 6.11523L 16.6152 4.2038ZM 19.1148 8.46776C 19.1148 9.00688 18.7717 9.41531 17.9548 9.41531L 16.6152 9.41531L 16.6152 7.42219L 18.0202 7.42219C 18.8044 7.42219 19.1148 7.83062 19.1148 8.46776ZM 27.2044 7.79794C 27.2044 5.88651 26.3222 4.6449 24.8355 4.6449C 24.276 4.6449 23.843 4.84094 23.5122 5.17993L 23.5122 2.63544L 21.6335 2.63544L 21.6335 11L 23.3325 11L 23.3815 10.3955C 23.7328 10.8407 24.2065 11.1144 24.8518 11.1144C 26.3222 11.1144 27.2044 9.77472 27.2044 7.79794ZM 25.4073 7.79794C 25.4073 8.85985 25.1459 9.61135 24.3944 9.61135C 23.7246 9.61135 23.2672 9.02322 23.2672 8.15736L 23.2672 7.68358C 23.2672 6.65435 23.7083 6.13157 24.3781 6.13157C 25.1459 6.13157 25.4073 6.83406 25.4073 7.79794ZM 32.8935 8.15736C 32.7954 8.69648 32.5667 9.52967 31.5212 9.52967C 30.4266 9.52967 29.8874 8.61479 29.8874 6.80138C 29.8874 5.00431 30.4266 4.10577 31.5212 4.10577C 32.5667 4.10577 32.8118 4.92263 32.9098 5.5271L 34.7395 5.2657C 34.5108 3.66467 33.3999 2.52108 31.4068 2.52108C 29.332 2.52108 27.976 4.08944 27.976 6.80138C 27.976 9.56234 29.2666 11.1144 31.4231 11.1144C 33.3346 11.1144 34.5435 10.0198 34.7559 8.41875L 32.8935 8.15736ZM 40.8953 6.81772C 40.7155 5.59244 39.8007 4.6449 38.216 4.6449C 36.3372 4.6449 35.2753 6.01721 35.2753 7.87963C 35.2753 9.75839 36.3372 11.1144 38.2323 11.1144C 39.6536 11.1144 40.7155 10.3465 40.8953 9.05589L 39.2125 8.76183C 39.1309 9.1049 38.9021 9.61135 38.1996 9.61135C 37.3501 9.61135 37.0561 8.87619 37.0561 7.87963C 37.0561 6.91574 37.3501 6.13157 38.1833 6.13157C 39.0002 6.13157 39.1799 6.89941 39.2289 7.12812L 40.8953 6.81772ZM 4.7214 16.5538L 4.55803 16.5538L 0.506448 18.0241L 0.506448 19.4944L 2.82631 18.6939L 2.82631 25L 4.7214 25L 4.7214 16.5538ZM 11.9962 23.4316L 9.10454 23.4316C 8.94117 23.4316 8.87583 23.4316 8.71246 23.497L 8.67978 23.4153C 8.84315 23.35 8.89216 23.3173 9.00652 23.2029L 9.85605 22.2881C 10.9996 21.0464 11.7675 20.1316 11.7675 18.939C 11.7675 17.4196 10.8199 16.5211 9.0392 16.5211C 7.30747 16.5211 6.14754 17.7954 6.14754 19.3311L 7.96095 19.3311C 7.96095 18.5959 8.35304 18.0078 9.00652 18.0078C 9.61099 18.0078 9.95407 18.3998 9.95407 19.1187C 9.95407 19.5434 9.72535 20.1316 8.95751 20.9157L 6.24556 23.6277L 6.24556 25L 11.9962 25L 11.9962 23.4316ZM 14.7058 21.6019L 15.6044 21.6019C 16.3722 21.6019 16.8296 21.8306 16.8296 22.6638C 16.8296 23.2193 16.4049 23.644 15.686 23.644C 15.0816 23.644 14.5915 23.2519 14.5915 22.7292L 12.778 22.7292C 12.778 24.3955 14.2647 25.1144 15.6207 25.1144C 17.3361 25.1144 18.6267 24.2322 18.6267 22.6965C 18.6267 21.7285 18.0957 21.0709 17.1809 20.7728C 18.0059 20.3848 18.496 19.6374 18.496 18.8573C 18.496 17.3379 17.3361 16.5211 15.6207 16.5211C 14.1504 16.5211 12.8924 17.3543 12.8924 18.7429L 14.7058 18.7429C 14.7058 18.2691 15.1796 17.9914 15.686 17.9914C 16.3722 17.9914 16.6989 18.4162 16.6989 18.9063C 16.6989 19.5434 16.3395 20.0335 15.6044 20.0335L 14.7058 20.0335L 14.7058 21.6019ZM 25.6493 21.7979L 24.4077 21.7979L 24.4077 16.6354L 22.5289 16.6354L 19.1962 22.1083L 19.1962 23.3663L 22.725 23.3663L 22.725 25L 24.4077 25L 24.4077 23.3663L 25.6493 23.3663L 25.6493 21.7979ZM 21.0749 21.7979L 22.5289 19.2984L 22.725 18.9635L 22.725 21.7979L 21.0749 21.7979ZM 28.119 21.2588C 28.2823 21.0628 28.5764 20.8341 29.1319 20.8341C 29.9814 20.8341 30.3571 21.4385 30.3571 22.239C 30.3571 22.9905 30.1121 23.644 29.3279 23.644C 28.7398 23.644 28.364 23.2683 28.315 22.6801L 26.5016 22.6801C 26.5016 24.1831 27.9066 25.1144 29.3442 25.1144C 31.272 25.1144 32.1542 23.7747 32.1542 22.3697C 32.1542 20.6053 31.0923 19.5271 29.72 19.5271C 29.0012 19.5271 28.6254 19.7885 28.4784 20.0009L 28.4457 20.0009L 28.6417 18.2038L 31.8928 18.2038L 31.8928 16.6354L 27.1714 16.6354L 26.6813 20.8994L 28.119 21.2588ZM 36.955 18.89L 38.703 18.89C 38.4253 17.534 37.5921 16.5211 35.9584 16.5211C 33.6712 16.5211 32.9361 18.4325 32.9687 21.1281L 32.9687 21.4385C 32.9687 23.8074 34.2104 25.1144 35.9421 25.1144C 37.6085 25.1144 38.7357 23.8891 38.7357 22.2881C 38.7357 20.7034 37.9515 19.4781 36.4485 19.4781C 35.7379 19.4781 35.1742 19.764 34.7944 20.1602C 34.8597 18.8614 35.26 18.0241 35.9421 18.0241C 36.5302 18.0241 36.7589 18.2691 36.955 18.89ZM 34.7821 22.092L 34.7821 21.994C 34.7821 21.4875 35.1089 20.9321 35.8441 20.9321C 36.5139 20.9321 36.955 21.4549 36.955 22.2881C 36.955 23.0722 36.5302 23.644 35.8931 23.644C 35.1906 23.644 34.7821 23.1539 34.7821 22.092ZM 45.3499 16.6354L 39.5992 16.6354L 39.5992 18.2038L 43.3077 18.2038L 40.4488 25L 42.3602 25L 45.3499 17.6483L 45.3499 16.6354ZM 51.5883 22.6965C 51.5883 21.7694 51.1063 21.0791 50.3344 20.6952C 51.0124 20.3194 51.4249 19.6782 51.4249 18.8736C 51.4249 17.3379 50.3303 16.5211 48.762 16.5211C 47.2263 16.5211 46.1154 17.3379 46.1154 18.8736C 46.1154 19.6741 46.532 20.3154 47.21 20.6911C 46.434 21.075 45.9357 21.7694 45.9357 22.6965C 45.9357 24.2975 47.161 25.1144 48.7783 25.1144C 50.3957 25.1144 51.5883 24.2975 51.5883 22.6965ZM 49.6115 18.9716C 49.6115 19.5761 49.3338 19.9682 48.7783 19.9682C 48.2229 19.9682 47.9288 19.5761 47.9288 18.9716C 47.9288 18.3672 48.2229 18.0241 48.762 18.0241C 49.3174 18.0241 49.6115 18.3835 49.6115 18.9716ZM 49.7749 22.5494C 49.7749 23.2193 49.3828 23.6114 48.7783 23.6114C 48.1739 23.6114 47.7491 23.2193 47.7491 22.5494C 47.7491 21.8633 48.1739 21.4549 48.762 21.4549C 49.3665 21.4549 49.7749 21.8633 49.7749 22.5494ZM 54.6114 22.7741L 52.8551 22.7741C 53.1329 24.1301 53.962 25.1389 55.5957 25.1389C 57.8624 25.0082 58.5894 23.1866 58.5894 20.5073L 58.5894 20.1806C 58.5894 17.828 57.3478 16.5211 55.6161 16.5211C 53.9497 16.5211 52.7898 17.7464 52.7898 19.3474C 52.7898 20.9321 53.6066 22.1574 55.1097 22.1574C 55.8203 22.1574 56.3758 21.8755 56.7597 21.4794C 56.6821 22.77 56.3023 23.6318 55.6243 23.6399C 55.028 23.6481 54.8033 23.3908 54.6114 22.7741ZM 54.6032 19.3474C 54.6032 18.5632 55.028 17.9914 55.6651 17.9914C 56.3676 17.9914 56.776 18.4815 56.776 19.5434L 56.776 19.6415C 56.776 20.1479 56.4493 20.7034 55.7141 20.7034C 55.0443 20.7034 54.6032 20.1806 54.6032 19.3474ZM 65.5028 20.0826C 65.5028 17.7464 64.2285 16.5211 62.5294 16.5211C 60.8304 16.5211 59.5561 17.7464 59.5561 20.0826L 59.5561 21.4712C 59.5561 23.9381 60.8141 25.1144 62.5294 25.1144C 64.2285 25.1144 65.5028 23.9381 65.5028 21.4712L 65.5028 20.0826ZM 63.6567 21.7163C 63.6567 23.1049 63.1666 23.5623 62.5294 23.5623C 61.876 23.5623 61.4022 23.1049 61.4022 21.7163L 61.4022 19.8375C 61.4022 18.5795 61.876 18.0568 62.5294 18.0568C 63.1829 18.0568 63.6567 18.5795 63.6567 19.8375L 63.6567 21.7163Z"/>
<path id="path10_fill" d="M 11.2725 32.902C 17.2029 32.902 20.3396 30.4024 20.3396 25.5013C 20.3396 23.1978 19.2859 20.9065 16.4432 20.1591C 18.8815 19.1666 19.8495 17.0837 19.8495 14.8659C 19.8495 10.1608 16.2717 7.90633 10.3413 7.90633L 1.61737 7.90633L 1.61737 32.902L 11.2725 32.902ZM 7.25364 12.6114L 10.3413 12.6114C 13.0369 12.6114 14.2132 13.4446 14.2132 15.5521C 14.2132 17.4145 13.086 18.3457 10.3413 18.3457L 7.25364 18.3457L 7.25364 12.6114ZM 14.7523 25.4033C 14.7523 27.0206 13.7231 28.2459 11.2725 28.2459L 7.25364 28.2459L 7.25364 22.2666L 11.4686 22.2666C 13.8211 22.2666 14.7523 23.4919 14.7523 25.4033ZM 29.1229 7.90633L 23.4866 7.90633L 23.4866 33L 29.1229 33L 29.1229 7.90633ZM 42.5071 33L 47.8983 33L 47.8983 20.4532C 47.8983 16.0912 44.4675 13.9347 40.1545 13.9347C 36.2336 13.9347 32.9009 15.7481 31.9207 19.3259L 37.2139 20.0611C 37.655 18.7378 38.3901 18.1006 39.8605 18.1006C 41.5268 18.1006 42.213 18.8848 42.213 20.4042L 42.213 21.4334L 40.3016 21.4334C 34.0772 21.4334 31.8226 24.08 31.8226 27.8538C 31.8226 31.0886 34.6163 33.3431 37.998 33.3431C 40.3506 33.3431 41.7719 32.3629 42.36 31.3826L 42.5071 31.3826L 42.5071 33ZM 42.213 24.9132L 42.213 26.9716C 42.213 28.2949 40.7427 29.2752 39.2723 29.2752C 38.0471 29.2752 37.2629 28.589 37.2629 27.5598C 37.2629 26.1875 38.1451 24.9132 40.3506 24.9132L 42.213 24.9132ZM 67.0443 20.4532C 66.5052 16.7773 63.7606 13.9347 59.0065 13.9347C 53.3702 13.9347 50.1845 18.0516 50.1845 23.6389C 50.1845 29.2752 53.3702 33.3431 59.0555 33.3431C 63.3195 33.3431 66.5052 31.0396 67.0443 27.1677L 61.9962 26.2855C 61.7511 27.3147 61.065 28.8341 58.9575 28.8341C 56.4089 28.8341 55.5267 26.6286 55.5267 23.6389C 55.5267 20.7472 56.4089 18.3947 58.9085 18.3947C 61.3591 18.3947 61.8982 20.6982 62.0452 21.3844L 67.0443 20.4532ZM 80.8788 33L 86.9562 33L 79.9109 22.1931L 86.6621 14.1797L 80.1437 14.1797L 75.1445 20.4042L 74.8995 20.4042L 74.8995 7.90633L 69.2632 7.90633L 69.2632 33L 74.8995 33L 74.8995 28.1479L 76.5291 26.212L 80.8788 33Z"/>
<path id="path11_fill" d="M 9.42238 32.9142C 14.3725 32.9142 18.759 30.7822 19.2614 25.4155C 19.4574 23.1978 18.6487 21.0168 16.4187 20.2326C 18.8693 19.2401 20.4131 17.4512 20.6582 14.7801C 21.1238 9.68298 16.7985 7.95534 12.4121 7.90633L 4.15369 7.90633L -0.171539 32.902L 9.42238 32.9142ZM 8.83425 12.6114L 12.0322 12.6236C 13.9804 12.6604 15.3527 13.2853 15.0587 15.4418C 14.7401 17.7576 12.6816 18.3579 10.6232 18.3579L 7.84177 18.3457L 8.83425 12.6114ZM 13.8701 25.3053C 13.5638 27.3882 11.7504 28.2582 9.80222 28.2582L 6.12638 28.2459L 7.16787 22.2666L 11.4563 22.2788C 13.331 22.3401 14.1397 23.4673 13.8701 25.3053ZM 31.5122 7.90633L 26.0229 7.90633L 21.6732 33L 27.1624 33L 31.5122 7.90633ZM 40.4976 33L 45.6438 33L 47.7758 20.4532C 48.2536 16.2872 45.0556 13.9837 41.1838 13.9347C 37.5569 13.8857 33.6606 15.6133 32.5578 19.3137L 37.6672 20.0366C 38.2186 18.8235 39.0885 18.0516 40.4854 18.0884C 41.9557 18.1374 42.4213 19.0196 42.2498 20.3919L 42.0905 21.4334L 40.0443 21.4211C 35.7068 21.4211 31.2958 23.0385 30.9527 27.9396C 30.7322 31.0886 33.195 33.3063 36.2336 33.3553C 37.9858 33.3798 39.6522 32.7917 40.7182 31.3704L 40.7917 31.3581L 40.4976 33ZM 41.5146 24.9132L 41.1593 26.9716C 40.8652 28.4175 39.2601 29.3487 37.851 29.2997C 36.8708 29.2629 36.1969 28.687 36.3194 27.6578C 36.5522 25.8199 38.1818 24.9132 39.8972 24.8887L 41.5146 24.9132ZM 66.9586 20.4777C 66.5052 16.5323 63.9444 13.996 59.8887 13.9347C 54.2647 13.8489 50.6256 18.4437 50.0252 23.7124C 49.4616 28.736 51.8754 33.2696 57.3524 33.3431C 61.261 33.4043 65.0349 31.1866 65.7823 27.1677L 60.9547 26.2977C 60.4769 27.8048 59.3128 28.8831 57.671 28.8586C 54.9876 28.7973 55.0244 25.6728 55.2449 23.7124C 55.5145 21.4211 56.5437 18.2844 59.3864 18.3947C 61.1753 18.4682 61.7389 19.8773 62.0084 21.4089L 66.9586 20.4777ZM 78.8449 33L 84.5792 33L 79.6413 22.3768L 87.7649 14.1797L 81.1361 14.1797L 75.2058 20.4287L 75.0342 20.4409L 77.301 7.90633L 71.8118 7.90633L 67.4498 33L 72.9513 33L 73.76 28.3194L 75.8184 26.2487L 78.8449 33ZM 105.482 7.90633L 99.9433 7.90633L 95.5935 33L 101.132 33L 105.482 7.90633ZM 117.392 14.1797L 114.537 14.1797L 115.236 10.1608L 109.747 10.1608L 109.048 14.1797L 106.818 14.1797L 106.132 18.1006L 108.374 18.1006L 106.745 27.7558C 106.426 30.6965 108.534 33.2205 111.511 33.3431C 112.503 33.3798 113.484 33.2818 114.476 33.1225L 115.101 28.785L 113.496 28.7605C 112.528 28.6993 112.209 28.0009 112.32 27.0942L 113.864 18.1006L 116.718 18.1006L 117.392 14.1797ZM 126.641 33L 131.787 33L 133.919 20.4532C 134.397 16.2872 131.199 13.9837 127.327 13.9347C 123.701 13.8857 119.804 15.6133 118.701 19.3137L 123.811 20.0366C 124.362 18.8235 125.232 18.0516 126.629 18.0884C 128.099 18.1374 128.565 19.0196 128.393 20.3919L 128.234 21.4334L 126.188 21.4211C 121.85 21.4211 117.439 23.0385 117.096 27.9396C 116.876 31.0886 119.339 33.3063 122.377 33.3553C 124.129 33.3798 125.796 32.7917 126.862 31.3704L 126.935 31.3581L 126.641 33ZM 127.658 24.9132L 127.303 26.9716C 127.009 28.4175 125.404 29.3487 123.995 29.2997C 123.014 29.2629 122.34 28.687 122.463 27.6578C 122.696 25.8199 124.325 24.9132 126.041 24.8887L 127.658 24.9132ZM 145.438 7.90633L 139.949 7.90633L 135.599 33L 141.088 33L 145.438 7.90633ZM 148.432 10.2956C 148.432 11.913 149.657 12.9545 151.213 12.9667C 152.892 12.979 154.276 11.8517 154.289 10.1118C 154.289 8.50671 153.027 7.46523 151.471 7.45298C 149.792 7.44072 148.432 8.58023 148.432 10.2956ZM 153.419 14.1797L 147.93 14.1797L 144.67 33L 150.16 33L 153.419 14.1797ZM 171.045 20.4777C 170.592 16.5323 168.031 13.996 163.976 13.9347C 158.352 13.8489 154.713 18.4437 154.112 23.7124C 153.549 28.736 155.962 33.2696 161.439 33.3431C 165.348 33.4043 169.122 31.1866 169.869 27.1677L 165.042 26.2977C 164.564 27.8048 163.4 28.8831 161.758 28.8586C 159.075 28.7973 159.111 25.6728 159.332 23.7124C 159.601 21.4211 160.631 18.2844 163.473 18.3947C 165.262 18.4682 165.826 19.8773 166.095 21.4089L 171.045 20.4777Z"/>
</defs>
</svg>
