<svg width="888" height="165" viewBox="0 0 888 165" xmlns="http://www.w3.org/2000/svg" xmlns:xlink="http://www.w3.org/1999/xlink"><title>weights-and-styles</title><desc>Created using Figma</desc><g transform="translate(2286 888)"><clipPath id="a" clip-rule="evenodd"><path d="M-2286-888h888v165h-888v-165z" fill="#FFF"/></clipPath><g clip-path="url(#a)"><use xlink:href="#b" transform="translate(-2287 -888)"/><use xlink:href="#c" transform="translate(-2287 -789.36)"/><use xlink:href="#d" transform="translate(-2042.48 -789.36)"/><use xlink:href="#e" transform="translate(-1785.58 -789.36)"/><use xlink:href="#f" transform="translate(-2287 -846.96)"/><use xlink:href="#g" transform="translate(-2042.48 -888)"/><use xlink:href="#h" transform="translate(-2042.48 -846.96)"/><use xlink:href="#i" transform="translate(-1785.58 -888)"/><use xlink:href="#j" transform="translate(-1785.58 -846.96)"/><use xlink:href="#k" transform="translate(-1572 -789.36)"/><use xlink:href="#l" transform="translate(-1572 -888)"/><use xlink:href="#m" transform="translate(-1572 -846.96)"/></g></g><defs><path id="b" d="M16.855 32h3.38v-.193l-5.408-10.13c2.861-1.195 4.588-3.707 4.588-6.677 0-4.733-3.091-7.727-8.597-7.727h-7.92V32h2.994v-9.61h5.928L16.855 32zM5.892 9.929h4.926c4.105 0 5.554 1.932 5.554 5.071 0 2.463-2.173 4.733-5.554 4.733H5.892V9.929zm23.99 22.457c3.719 0 6.134-1.738 7.196-4.201l-2.608-1.16c-.773 1.74-2.318 2.802-4.588 2.802-3.176 0-5.216-2.355-5.59-5.892h13.317v-1.208c0-6.81-3.38-9.514-8.017-9.514-4.974 0-8.21 3.96-8.21 9.514 0 5.7 3.188 9.66 8.5 9.66zm-.242-16.613c3.236 0 5.216 2.028 5.216 5.699H24.304c.398-3.381 2.45-5.7 5.337-5.7zm10.244 7.148c0 5.215 2.995 8.79 7.196 8.79 2.56 0 4.275-.906 5.422-2.415l.18.096v2.367c-.048 3.235-2.173 4.636-5.264 4.636-3.09 0-4.346-1.69-5.022-2.463l-2.125 1.69c1.159 1.642 3.284 3.333 7.147 3.333 4.492 0 8.114-2.415 8.114-6.569V13.551h-2.85v2.765c-1.146-1.86-2.897-3.103-5.553-3.103-4.299 0-7.245 3.912-7.245 9.37v.338zm2.946-.339c0-3.477 1.642-6.616 5.168-6.616 2.898 0 4.298 3.09 4.54 4.878.241 1.159.241 2.994 0 4.057-.338 1.787-1.884 4.25-4.733 4.25-3.188 0-4.975-2.753-4.975-6.23v-.339zm28.458 2.077c0 3.477-2.657 4.83-4.782 4.83-2.366 0-4.056-1.546-4.056-4.25V13.454H59.6V25.24c0 4.733 3.284 7.003 5.989 7.003 2.8 0 4.588-1.45 5.505-2.85h.194V32h2.849V13.454h-2.85V24.66zm10.46-17.386H78.9V32h2.85V7.273zM97.647 32h2.85V21.327c0-6.424-3.478-8.114-7.196-8.114-2.077 0-5.892.628-7.39 4.54l2.657 1.014c.917-1.835 2.608-3.043 4.78-3.043 2.367 0 4.3 1.401 4.3 5.072v.338H96.15c-6.327 0-10.48 1.545-10.48 5.988 0 3.188 2.608 5.313 6.327 5.313 2.994 0 4.926-1.739 5.505-2.946h.145V32zm0-8.452v1.884c0 2.318-2.318 4.443-5.747 4.443-1.304 0-3.38-.435-3.38-2.753 0-3.043 3.283-3.574 7.63-3.574h1.497zm15.985-10.287c-.193-.048-.724-.096-1.4-.096-2.174 0-4.347 1.69-4.878 3.477h-.193v-3.188h-2.85V32h2.85V21.375c.048-2.415 1.883-5.264 4.974-5.264.724 0 1.207.048 1.497.096v-2.946z"/><path id="c" d="M1.281 11l.715-2.14h3.016L5.719 11H6.75L4 3H3L.25 11h1.031zm2.172-6.516h.11L4.726 8H2.28l1.172-3.516zM11.105 11h.922V7.547c0-2.078-1.125-2.625-2.328-2.625-.672 0-1.906.203-2.39 1.469l.859.328c.297-.594.843-.985 1.547-.985.765 0 1.39.454 1.39 1.641v.11h-.484c-2.047 0-3.39.5-3.39 1.937 0 1.031.843 1.719 2.046 1.719.969 0 1.594-.563 1.781-.954h.047V11zm0-2.734v.609c0 .75-.75 1.438-1.86 1.438-.421 0-1.093-.141-1.093-.891 0-.985 1.063-1.156 2.469-1.156h.484zM16.09 11c1.578 0 2.703-.797 2.703-2.266 0-.894-.57-1.57-1.484-1.785.723-.355 1.172-1.047 1.172-1.808C18.48 4.016 17.542 3 15.949 3h-2.625v8h2.765zm-1.797-7.14h1.657c1.03 0 1.562.718 1.562 1.28 0 .692-.61 1.29-1.351 1.38l-1.618.011h-.25V3.86zm3.547 4.874c0 .954-.812 1.407-1.75 1.407h-1.797V7.39h1.844c1.016 0 1.703.453 1.703 1.343zm7.175-.75c0-1.765-.953-3.062-2.344-3.062-.789 0-1.332.34-1.703.863V3h-.922v8h.797l.086-.781c.375.543.93.89 1.758.89 1.36 0 2.328-1.328 2.328-3.125zm-.953 0c0 1.235-.578 2.297-1.61 2.297-.922 0-1.422-1-1.53-1.578-.079-.344-.079-.937 0-1.312.077-.579.53-1.579 1.468-1.579 1.14 0 1.672 1.047 1.672 2.172zm6.978.954c-.172.624-.625 1.25-1.75 1.25-1.656 0-2.344-1.47-2.344-3.188 0-1.844.844-3.234 2.344-3.234.953 0 1.625.562 1.781 1.296h1.094c-.234-1.203-1.234-2.171-2.875-2.171-2.14 0-3.281 1.687-3.281 4.109 0 2.422 1.14 4.11 3.28 4.11 1.673 0 2.626-.985 2.845-2.172H31.04zm7.136-2.141c-.156-1.031-1.015-1.875-2.421-1.875-1.625 0-2.657 1.281-2.657 3.078 0 1.844 1.047 3.125 2.657 3.125 1.39 0 2.265-.813 2.421-1.875h-.921c-.172.656-.72 1.047-1.5 1.047-1 0-1.735-.922-1.735-2.297 0-1.313.703-2.25 1.75-2.25.828 0 1.328.469 1.485 1.047h.921zM3.422 16h-.156L.5 17.172v.953l2-.828V24h.922v-8zm7.244 7.14H7.213c-.22 0-.36 0-.516.063l-.047-.094c.152-.07.234-.152.363-.285L8.9 20.891c.824-.848 1.563-1.813 1.563-2.735 0-1.312-1-2.265-2.465-2.265-1.723 0-2.41 1.312-2.41 2.609h.953c0-.922.343-1.813 1.426-1.813.964 0 1.558.704 1.558 1.497 0 .691-.453 1.222-1.422 2.222l-2.812 2.89V24h5.375v-.86zm3.013-2.75h.453c.969 0 1.672.485 1.672 1.438 0 .969-.719 1.453-1.61 1.453-.89 0-1.39-.484-1.39-1.281h-1c0 1.375 1 2.11 2.406 2.11 1.422 0 2.61-.844 2.61-2.274 0-.715-.293-1.57-1.352-1.93.844-.41 1.18-1.23 1.18-1.797 0-1.453-1.016-2.218-2.402-2.218-1.536 0-2.364.937-2.364 2.109h.922c0-.781.563-1.344 1.43-1.344.851 0 1.46.547 1.46 1.438 0 .765-.562 1.406-1.562 1.406h-.453v.89zm9.748 1.25h-1.094V16h-1.015l-3.61 5.89v.61h3.766V24h.86v-1.5h1.093v-.86zm-4.516 0l2.406-4.03.157-.52v4.55H18.91zm6.404-1.335c.36-.297.797-.504 1.532-.504.832 0 1.671.504 1.671 1.715 0 1.097-.82 1.77-1.738 1.77-.8 0-1.37-.427-1.535-1.286h-.938c.141 1.469 1.149 2.11 2.415 2.11 1.718 0 2.714-1.07 2.714-2.606 0-1.559-1.027-2.574-2.59-2.574-.546 0-1.101.222-1.386.468h-.055l.332-2.476h3.344V16h-4.219l-.469 4.094.922.21zM34.72 18h.922c-.285-1.36-1.004-2.11-2.324-2.11-1.777 0-2.691 1.551-2.691 4.024v.266c0 2.562.804 3.93 2.601 3.93 1.633 0 2.54-1.157 2.54-2.626 0-1.28-.716-2.515-2.333-2.515-.648 0-1.363.215-1.855.758.054-2.426.957-2.977 1.75-2.977.941 0 1.207.703 1.39 1.25zm-1.383 1.828c1.106 0 1.508.797 1.508 1.703 0 1.032-.672 1.735-1.539 1.735-.855 0-1.633-.582-1.648-1.778.015-1.015.762-1.66 1.68-1.66zM41.67 16h-5v.906h4.063L37.42 24h1.063l3.187-7v-1zm5.905 5.734c0-.847-.515-1.605-1.308-2 .68-.359 1.12-1.015 1.12-1.765 0-1.36-1-2.078-2.335-2.078-1.336 0-2.352.718-2.352 2.078 0 .75.43 1.402 1.102 1.761-.785.395-1.29 1.157-1.29 2.004 0 1.438 1.126 2.375 2.54 2.375 1.414 0 2.523-.937 2.523-2.375zm-1.094-3.726c0 .773-.687 1.336-1.43 1.336-.741 0-1.445-.563-1.445-1.36 0-.797.704-1.265 1.426-1.265.762 0 1.45.515 1.45 1.289zm.141 3.73c0 .84-.672 1.559-1.562 1.559-.891 0-1.61-.719-1.61-1.578 0-.86.719-1.594 1.578-1.594.86 0 1.594.734 1.594 1.613zm3.123.27h-.922c.285 1.36 1.004 2.11 2.324 2.11 1.778 0 2.692-1.552 2.692-4.024v-.266c0-2.562-.805-3.93-2.602-3.93-1.633 0-2.539 1.157-2.539 2.625 0 1.282.715 2.516 2.332 2.516.648 0 1.363-.215 1.855-.758-.054 2.426-.956 2.977-1.75 2.977-.94 0-1.206-.703-1.39-1.25zm-.125-3.531c0-1.032.672-1.735 1.539-1.735.855 0 1.633.582 1.648 1.777-.015 1.016-.761 1.66-1.68 1.66-1.105 0-1.507-.796-1.507-1.702zm10.654.82c0-2.344-1.11-3.406-2.664-3.406-1.555 0-2.68 1.062-2.68 3.406v1.265c0 2.36 1.14 3.547 2.696 3.547 1.554 0 2.648-1.187 2.648-3.547v-1.265zm-.969 1.437c0 1.5-.719 2.516-1.68 2.516-.96 0-1.726-1.016-1.726-2.516v-1.609c0-1.516.75-2.375 1.71-2.375.962 0 1.696.86 1.696 2.375v1.61z"/><path id="d" d="M1.652 11l.606-1.918H5.09L5.695 11h1.367L4.34 3H3.012L.289 11h1.363zM3.63 4.758h.101l1.028 3.258h-2.16l1.03-3.258zM11.23 11h1.2V7.355c0-1.835-1.114-2.433-2.376-2.433-.875 0-2.05.336-2.472 1.555l1.148.296c.242-.535.68-.859 1.301-.859.684 0 1.164.383 1.164 1.324v.188h-.527c-2.024 0-3.149.617-3.149 1.972 0 1.032.86 1.73 2.02 1.73.89 0 1.457-.472 1.644-.835h.047V11zm-.035-2.68v.625c0 .637-.648 1.192-1.535 1.192-.41 0-.934-.168-.934-.77 0-.793.79-1.047 1.95-1.047h.519zm5.262 2.668c1.688 0 2.77-.797 2.77-2.297 0-.836-.477-1.539-1.402-1.754a1.914 1.914 0 0 0 1.144-1.769C18.97 3.91 17.962 3 16.263 3h-2.68v7.988h2.875zM14.84 4.082h1.422c.973 0 1.45.563 1.45 1.164 0 .645-.509 1.137-1.25 1.207l-1.536.008h-.086V4.082zm3.145 4.598c0 .8-.645 1.23-1.528 1.23H14.84V7.457h1.672c.922 0 1.473.43 1.473 1.223zm7.37-.711c0-1.79-.914-3.047-2.317-3.047-.695 0-1.195.281-1.55.734V3h-1.227v8h1.086l.07-.71c.363.5.883.82 1.637.82 1.375 0 2.3-1.313 2.3-3.141zm-1.22 0c0 1.156-.464 2.097-1.386 2.097-.824 0-1.3-.843-1.37-1.511a3.3 3.3 0 0 1 0-1.012C21.43 6.824 21.87 6 22.702 6c1 0 1.434.914 1.434 1.969zm7.03.738c-.144.586-.515 1.273-1.597 1.273-1.445 0-2.07-1.261-2.07-2.984 0-1.8.727-3.008 2.07-3.008.969 0 1.489.64 1.621 1.32l1.324-.085c-.23-1.32-1.25-2.332-2.984-2.332-2.086 0-3.281 1.62-3.281 4.105 0 2.496 1.172 4.113 3.285 4.113 1.727 0 2.754-1.007 2.965-2.312l-1.332-.09zm7.316-1.84c-.16-1.078-1.027-1.945-2.473-1.945-1.683 0-2.71 1.293-2.71 3.082 0 1.828 1.038 3.117 2.718 3.117 1.38 0 2.305-.785 2.465-1.91l-1.164-.098c-.137.543-.57.965-1.313.965-.933 0-1.511-.844-1.511-2.074 0-1.176.558-2.047 1.515-2.047.813 0 1.2.563 1.317 1.016l1.156-.106zM3.805 15.973h-.157L.496 17.227v1.113l2.074-.809V24h1.235v-8.027zm7.147 6.945H7.737c-.195 0-.309 0-.465.063l-.043-.09c.156-.067.227-.133.348-.258l1.512-1.563c.918-.965 1.652-1.898 1.652-2.898 0-1.36-.965-2.281-2.516-2.281-1.699 0-2.53 1.28-2.53 2.636H6.92c0-.843.351-1.62 1.277-1.62.828 0 1.328.59 1.328 1.343 0 .594-.371 1.133-1.258 2.047l-2.734 2.785V24h5.418v-1.082zm2.865-2.402h.594c.886 0 1.5.39 1.5 1.289 0 .816-.61 1.273-1.43 1.273-.781 0-1.27-.445-1.27-1.137h-1.257c0 1.45 1.148 2.168 2.515 2.168 1.496 0 2.703-.843 2.703-2.289 0-.793-.379-1.558-1.363-1.894.82-.395 1.207-1.18 1.207-1.813 0-1.453-1.05-2.222-2.523-2.222-1.493 0-2.45.886-2.45 2.113h1.204c0-.664.527-1.125 1.257-1.125.786 0 1.29.5 1.29 1.242 0 .711-.485 1.293-1.383 1.293h-.594v1.102zm9.998.879H22.69V16H21.4l-3.46 5.66v.817h3.628V24h1.122v-1.523h1.125v-1.082zm-4.465 0l2.05-3.457.169-.391v3.848h-2.22zm6.517-1.051c.285-.258.668-.469 1.332-.469.824 0 1.496.531 1.496 1.586 0 .965-.613 1.621-1.473 1.621-.718 0-1.214-.402-1.335-1.16h-1.22c.095 1.46 1.22 2.187 2.524 2.187 1.762 0 2.703-1.144 2.703-2.613 0-1.601-1.023-2.625-2.496-2.625-.597 0-1.082.235-1.32.465h-.043l.281-2.211h3.262V16h-4.324l-.469 4.09 1.082.254zm9.068-2.29h1.184c-.278-1.34-1.024-2.163-2.43-2.163-1.922 0-2.758 1.648-2.75 4.156v.277c0 2.457.938 3.785 2.688 3.785 1.62 0 2.585-1.16 2.585-2.652 0-1.363-.726-2.574-2.28-2.574-.669 0-1.317.246-1.763.723.067-1.989.774-2.653 1.524-2.653.809 0 1.059.535 1.242 1.102zm-1.27 1.872c.942 0 1.352.695 1.352 1.562 0 .934-.578 1.582-1.355 1.582-.793 0-1.442-.547-1.446-1.695 0-.836.602-1.45 1.45-1.45zm8.6-3.926h-5.176v1.113h3.883L37.862 24h1.329l3.074-7.012V16zm5.92 5.758c0-.863-.495-1.586-1.273-1.969.672-.363 1.098-1.004 1.098-1.762 0-1.394-1.02-2.136-2.41-2.136-1.383 0-2.414.742-2.414 2.136 0 .758.418 1.395 1.086 1.758-.774.383-1.27 1.106-1.27 1.973 0 1.469 1.14 2.351 2.602 2.351 1.46 0 2.582-.882 2.582-2.351zm-1.374-3.672c0 .707-.54 1.203-1.207 1.203-.668 0-1.223-.496-1.223-1.219 0-.718.555-1.136 1.207-1.136.68 0 1.223.453 1.223 1.152zm.148 3.625c0 .77-.57 1.367-1.352 1.367-.78 0-1.39-.598-1.39-1.383s.61-1.402 1.367-1.402c.762 0 1.375.617 1.375 1.418zm3.643.25h-1.187c.277 1.336 1.023 2.16 2.43 2.16 1.914-.043 2.75-1.66 2.75-4.164v-.281c0-2.453-.938-3.781-2.688-3.781-1.621 0-2.598 1.164-2.598 2.652 0 1.363.739 2.578 2.293 2.578.668 0 1.317-.246 1.762-.727-.066 1.985-.77 2.66-1.52 2.665-.812 0-1.058-.54-1.242-1.102zm-.086-3.445c0-.93.582-1.578 1.356-1.578.797 0 1.441.543 1.445 1.687 0 .84-.601 1.453-1.45 1.453-.94 0-1.35-.691-1.35-1.562zm10.569.78c0-2.304-1.145-3.405-2.727-3.405-1.578 0-2.734 1.101-2.734 3.406v1.289c0 2.36 1.16 3.523 2.746 3.523 1.578 0 2.715-1.164 2.715-3.523v-1.29zm-1.247 1.481c0 1.442-.633 2.254-1.468 2.254-.844 0-1.5-.812-1.5-2.254v-1.675c0-1.407.644-2.137 1.488-2.137s1.48.73 1.48 2.137v1.675z"/><path id="e" d="M1.973 11l.515-1.723h2.676L5.68 11h1.648l-2.7-8H3.02l-2.7 8h1.653zm1.804-6.008h.102l.91 3.04H2.863l.914-3.04zM11.341 11h1.442V7.191c0-1.632-1.105-2.27-2.422-2.27-1.047 0-2.168.446-2.543 1.634l1.399.265c.195-.48.539-.75 1.09-.75.613 0 .976.32.976 1.051v.25h-.566c-2.008 0-2.946.727-2.946 2.012 0 1.031.875 1.738 1.996 1.738.828 0 1.34-.402 1.528-.742h.046V11zm-.058-2.633v.64c0 .536-.57.981-1.262.981-.402 0-.8-.191-.8-.668 0-.629.554-.953 1.503-.953h.559zm5.499 2.613c1.78 0 2.824-.796 2.824-2.328 0-.785-.41-1.507-1.34-1.73.77-.328 1.129-1.004 1.129-1.73C19.395 3.823 18.325 3 16.54 3h-2.727v7.98h2.969zM15.32 4.277h1.219c.918 0 1.347.422 1.347 1.055 0 .617-.441 1.027-1.226 1.063l-1.34.003v-2.12zm2.793 4.356c0 .668-.496 1.082-1.332 1.082H15.32V7.512h1.515c.844 0 1.278.414 1.278 1.12zm7.541-.68c0-1.805-.882-3.031-2.293-3.031-.62 0-1.078.234-1.417.625V3h-1.493v8h1.336l.059-.652c.351.468.844.761 1.531.761 1.39 0 2.277-1.296 2.277-3.156zm-1.453 0c0 1.094-.363 1.934-1.191 1.934-.738 0-1.2-.719-1.238-1.457a3.477 3.477 0 0 1 0-.754c.027-.844.46-1.52 1.207-1.52.875 0 1.222.805 1.222 1.797zm7.065.559c-.12.554-.421 1.289-1.464 1.289-1.258 0-1.836-1.082-1.836-2.813 0-1.761.633-2.804 1.836-2.804.984 0 1.37.703 1.488 1.336l1.52-.165c-.223-1.414-1.266-2.464-3.079-2.464-2.039 0-3.28 1.566-3.28 4.097 0 2.567 1.202 4.121 3.292 4.121 1.773 0 2.855-1.023 3.066-2.437l-1.543-.16zm7.475-1.582c-.168-1.125-1.035-2.008-2.512-2.008-1.738 0-2.758 1.3-2.758 3.09 0 1.812 1.024 3.101 2.766 3.101 1.371 0 2.336-.761 2.504-1.933l-1.367-.184c-.114.441-.446.895-1.157.895-.879 0-1.316-.782-1.316-1.88 0-1.058.426-1.874 1.313-1.874.796 0 1.081.64 1.167.984l1.36-.191zm-34.61 9.02h-.155L.488 17.272v1.247l2.145-.786V24h1.5v-8.05zm7.055 6.773H8.183c-.18 0-.27 0-.425.062l-.036-.082a.88.88 0 0 0 .329-.23l1.187-1.246c1-1.07 1.738-1.977 1.738-3.04 0-1.406-.941-2.296-2.562-2.296-1.676 0-2.64 1.25-2.64 2.66h1.46c0-.781.367-1.457 1.152-1.457.711 0 1.133.488 1.133 1.215 0 .503-.3 1.058-1.117 1.894l-2.672 2.7V24h5.457v-1.277zm2.74-2.098h.719c.816 0 1.344.313 1.344 1.164 0 .684-.516 1.117-1.274 1.117-.687 0-1.168-.414-1.168-1.02h-1.476c0 1.52 1.273 2.223 2.61 2.223 1.565 0 2.78-.843 2.78-2.3 0-.86-.445-1.559-1.379-1.868.809-.382 1.239-1.132 1.239-1.82 0-1.453-1.075-2.23-2.63-2.23-1.448 0-2.523.847-2.523 2.12h1.454c0-.57.488-.937 1.109-.937.723 0 1.14.453 1.14 1.07 0 .665-.421 1.192-1.226 1.192h-.719v1.289zm10.217.559h-1.156V16h-1.524l-3.336 5.465v.996h3.512V24h1.348v-1.54h1.156v-1.276zm-4.426 0l1.746-2.965.176-.344v3.309h-1.922zm6.613-.805c.23-.223.566-.438 1.168-.438.82 0 1.348.551 1.348 1.473 0 .852-.442 1.492-1.25 1.492-.645 0-1.079-.383-1.168-1.047h-1.453c.046 1.446 1.273 2.25 2.609 2.25 1.8 0 2.7-1.207 2.7-2.617 0-1.644-1.02-2.668-2.423-2.668-.636 0-1.062.238-1.254.457h-.043l.239-1.984h3.191V16h-4.41l-.469 4.082 1.215.297zm8.787-2.277h1.406c-.27-1.32-1.039-2.211-2.52-2.211-2.042 0-2.82 1.73-2.796 4.273v.285c0 2.367 1.05 3.66 2.757 3.66 1.61 0 2.625-1.168 2.625-2.675 0-1.434-.738-2.63-2.238-2.63-.68 0-1.273.266-1.68.696.067-1.629.618-2.375 1.329-2.375.695 0 .93.398 1.117.977zM32.692 21.3v-.04c0-.675.469-1.25 1.25-1.25.805 0 1.219.602 1.219 1.438 0 .848-.5 1.45-1.2 1.45-.738 0-1.269-.512-1.269-1.598zM42.768 16h-5.324v1.293h3.726L38.233 24h1.562l2.973-7.02V16zm5.95 5.773c0-.87-.48-1.566-1.238-1.941.66-.36 1.07-.988 1.07-1.75 0-1.434-1.026-2.191-2.472-2.191-1.422 0-2.469.757-2.469 2.191 0 .758.41 1.387 1.07 1.746-.757.375-1.245 1.07-1.245 1.945 0 1.5 1.156 2.336 2.656 2.336 1.5 0 2.629-.836 2.629-2.336zm-1.609-3.617c0 .645-.414 1.086-1.02 1.086-.605 0-1.034-.441-1.034-1.094 0-.656.43-1.035 1.02-1.035.609 0 1.034.407 1.034 1.043zm.149 3.528c0 .71-.477 1.207-1.164 1.207-.688 0-1.203-.496-1.203-1.211 0-.73.515-1.239 1.18-1.239.675 0 1.187.508 1.187 1.243zm4.094.234h-1.414c.274 1.32 1.04 2.21 2.52 2.21 2.031-.081 2.8-1.757 2.8-4.288v-.297c0-2.36-1.05-3.648-2.757-3.648-1.61 0-2.645 1.164-2.645 2.675 0 1.434.758 2.625 2.258 2.625.676 0 1.266-.261 1.676-.687-.074 1.617-.614 2.383-1.32 2.387-.7.003-.934-.399-1.118-.977zm-.047-3.367c0-.848.5-1.45 1.2-1.45.738 0 1.265.512 1.265 1.602v.04c0 .675-.465 1.25-1.246 1.25-.805 0-1.219-.606-1.219-1.442zm10.5.746c0-2.274-1.183-3.406-2.781-3.406-1.602 0-2.79 1.132-2.79 3.406v1.305c0 2.359 1.184 3.507 2.794 3.507 1.601 0 2.777-1.148 2.777-3.507v-1.305zm-1.488 1.52c0 1.386-.555 2.027-1.29 2.027-.741 0-1.304-.64-1.304-2.028v-1.73c0-1.313.559-1.941 1.3-1.941.743 0 1.294.628 1.294 1.94v1.731z"/><path id="f" d="M14.694 32h3.284v-.205l-3.514-10.106c2.995-1.123 5.24-3.502 5.603-6.774.519-4.744-2.584-7.57-7.184-7.642H5.36L1.075 32h2.921l1.679-9.61h5.807L14.694 32zM7.836 9.929l4.938.012c3.188.06 4.806 1.739 4.335 4.95-.447 3.043-3.49 4.866-6.375 4.854l-4.6-.012 1.702-9.804zm20.307 22.457c3.067.049 6.11-1.316 7.45-4.19L33.13 27.05c-1.026 1.799-2.777 2.837-4.866 2.777-3.236-.073-4.516-3.019-4.346-5.892h12.87l.17-1.208c.579-4.793-.979-9.454-6.46-9.526-5.349-.06-8.718 4.697-9.273 9.599-.555 4.793 1.545 9.514 6.918 9.586zm2.282-16.625c3.308.072 4.455 2.74 4.009 5.71l-10.239.013c.93-2.838 2.874-5.796 6.23-5.723zm9.278 7.244c-.483 3.948 1.002 8.609 5.65 8.705 2.234.049 4.13-.773 5.627-2.402l.085.06-.471 2.39c-.556 3.091-2.982 4.721-6.05 4.637-2.015-.06-3.32-.918-4.479-2.475l-2.21 1.654c1.522 2.294 3.828 3.344 6.57 3.38 4.165.06 8.21-2.197 8.85-6.568l3.235-18.835h-2.777l-.58 2.79c-.953-1.993-2.752-3.08-4.962-3.128-5.059-.109-7.848 5.071-8.452 9.454l-.036.338zm2.922-.338c.483-3.2 2.523-6.846 6.23-6.701 2.5.109 3.478 2.717 3.478 4.878 0 1.352-.194 2.753-.677 4.02-.857 2.27-2.873 4.371-5.445 4.299-3.308-.085-3.996-3.466-3.634-6.158l.048-.338zm27.805 1.992c-.446 2.765-2.692 4.938-5.578 4.83-2.415-.085-3.356-2.017-3.079-4.238l2.017-11.797H61L58.997 25.24c-.386 3.187 1.111 6.906 4.782 7.015 2.33.072 4.334-1.075 5.759-2.874h.133L69.114 32h2.79l3.223-18.546h-2.789L70.43 24.66zM84.151 7.273h-2.789L77.076 32h2.79L84.15 7.273zM95.581 32h2.705l1.811-10.673c.543-4.347-.954-8.017-5.735-8.114-3.296-.06-6.35 1.437-7.751 4.516l2.547 1.026c1.111-1.811 2.934-3.103 5.12-3.043 2.837.085 3.525 2.633 3.102 5.06l-.072.374-1.533-.012c-4.25-.013-10.613.664-11.024 6.073-.253 3.284 2.355 5.203 5.421 5.24 2.282.024 4.516-1.039 5.772-2.97l.084-.012L95.581 32zm1.389-8.452l-.314 1.884c-.543 2.898-3.707 4.515-6.435 4.455-1.642-.048-2.886-.893-2.68-2.668.422-3.719 5.372-3.683 8.161-3.67h1.268zm17.76-10.299a8.562 8.562 0 0 0-1.473-.12c-2.258 0-4.311 1.52-5.264 3.525h-.145l.652-3.2h-2.789L102.499 32h2.777l1.847-10.625c.532-2.765 2.91-5.313 5.844-5.3.471.012.954.048 1.413.132l.35-2.958zm15.963-5.976h-2.922L123.485 32h2.922l4.286-24.727zm11.877 6.181h-3.84l.688-3.96h-2.789l-.688 3.96h-2.898l-.471 2.657h2.91l-1.895 11.35c-.23 2.607 1.606 4.587 4.201 4.66.58.024 1.159.012 1.715-.157l.278-2.62c-.375.036-.749.072-1.135.072-1.739-.012-2.355-1.014-2.162-2.716l1.787-10.59h3.84l.459-2.655zM153.574 32h2.705l1.811-10.673c.543-4.347-.954-8.017-5.735-8.114-3.297-.06-6.351 1.437-7.752 4.516l2.548 1.026c1.111-1.811 2.934-3.103 5.119-3.043 2.837.085 3.526 2.633 3.103 5.06l-.072.374-1.534-.012c-4.25-.013-10.613.664-11.023 6.073-.254 3.284 2.354 5.203 5.421 5.24 2.282.024 4.516-1.039 5.771-2.97l.085-.012-.447 2.535zm1.389-8.452l-.314 1.884c-.544 2.898-3.707 4.515-6.436 4.455-1.642-.048-2.885-.893-2.68-2.668.423-3.719 5.373-3.683 8.162-3.67h1.268zm12.882-16.275h-2.789L160.769 32h2.789l4.287-24.727zm4.608 1.618c.012 1.098.857 1.895 1.944 1.871 1.135-.012 2.016-.881 1.992-2.028a1.91 1.91 0 0 0-1.944-1.86c-1.099.012-2.004.906-1.992 2.017zm2.535 4.563h-2.777L168.988 32h2.789l3.211-18.546zm18.385 5.579c-.398-3.586-3.006-5.76-6.58-5.82-5.361-.084-8.718 4.673-9.285 9.587-.519 4.6 1.401 9.502 6.653 9.586 3.658.06 7.16-2.076 7.92-5.795l-2.789.012c-.845 2.113-2.753 3.296-5.011 3.236-3.61-.109-4.334-4.154-3.972-7.04.411-3.308 2.62-7.123 6.411-7.026 2.053.06 3.526 1.231 3.924 3.248l2.729.012z"/><path id="g" d="M2.427 7.273V32h3.815V14.288h.193l6.255 17.591h3.103l6.29-17.567h.205V32h3.804V7.273h-4.914l-6.786 18.666h-.29L7.33 7.273H2.427zM37.97 32.374c3.635 0 6.062-1.714 7.136-3.888l-2.789-1.81c-.87 1.581-2.197 2.475-4.238 2.475-2.801 0-4.66-1.908-5.07-4.999h12.616v-1.594c0-6.35-3.248-9.345-8.053-9.345-5.18 0-8.33 4.033-8.33 9.61 0 5.53 3.259 9.551 8.729 9.551zm-.386-15.961c2.837 0 4.443 1.944 4.443 4.89h-8.995c.41-2.922 2.04-4.89 4.552-4.89zm9.945 6.254c0 5.614 2.813 9.671 7.136 9.671 2.463 0 4.141-1.135 5.288-2.898L60.16 32h3.453V7.273h-3.79v8.705c-1.124-1.69-2.766-2.765-5.108-2.765-4.407 0-7.184 3.912-7.184 9.454zm3.791 0c0-3.308 1.365-6.122 4.431-6.122 2.657 0 3.936 2.584 4.093 4.794.157.87.157 2.282 0 3.09-.217 2.09-1.605 4.685-4.237 4.685-2.862 0-4.287-2.873-4.287-6.447zM67.06 9.072c0 1.243.905 2.197 2.354 2.197 1.437 0 2.367-.954 2.367-2.197 0-1.184-.93-2.198-2.367-2.198-1.449 0-2.354 1.014-2.354 2.198zm4.238 4.383h-3.791V32h3.79V13.454zM87.06 24.188c0 3.176-1.956 4.721-4.069 4.721-2.064 0-3.561-1.352-3.561-3.803V13.454h-3.804v11.712c0 4.963 3.224 7.076 6.074 7.076 2.571 0 4.358-1.244 5.324-2.633h.193V32h3.647V13.454H87.06v10.734zm21.802-3.779c0-2.403 1.268-3.863 3.417-3.863 1.461 0 3.163.833 3.163 3.453V32h3.803V20.059c0-4.818-2.511-6.846-5.626-6.846-2.584 0-4.6 1.533-5.301 3.067h-.193c-.809-1.775-2.414-3.067-4.696-3.067-2.343 0-4.118 1.485-4.83 2.97h-.181v-2.729h-3.743V32h3.791V20.723c0-2.668 1.703-4.177 3.562-4.177 1.835 0 3.079 1.002 3.079 3.513V32h3.755V20.41z"/><path id="h" d="M4.902 7.273L.616 32h3.73l3.14-17.736.205.012 2.982 17.603h3.043l9.164-17.603h.169L19.886 32h3.718l4.287-24.727h-4.878l-9.853 18.69-.277-.012L9.599 7.273H4.902zm31.391 25.101c2.85.049 5.989-1.17 7.293-3.863L40.99 26.7c-1.038 1.57-2.572 2.499-4.492 2.45-2.8-.072-4.044-2.426-3.9-4.998h12.183l.217-1.594c.58-4.745-1.219-9.297-6.568-9.357-5.445-.06-8.802 4.697-9.357 9.695-.543 4.89 1.883 9.406 7.22 9.478zm2.017-15.973c2.8.084 3.742 2.426 3.32 4.914l-8.73.012c.906-2.415 2.5-4.999 5.41-4.926zm9.051 6.35c-.483 3.973.58 9.49 5.554 9.6 2.342.047 4.166-1.1 5.506-2.959L58.022 32h3.357l4.298-24.727H61.97l-1.63 8.741c-.953-1.763-2.608-2.753-4.612-2.8-5.12-.122-7.812 5.118-8.367 9.537zm3.707.012c.41-2.861 2.125-6.362 5.493-6.218 2.524.11 3.08 2.717 2.995 4.794a11.716 11.716 0 0 1-.556 3.09c-.724 2.259-2.342 4.794-5.023 4.71-3.15-.097-3.235-4.081-2.91-6.375zM69.244 9.145c.024 1.28 1.038 2.15 2.294 2.137 1.292-.012 2.33-.966 2.282-2.294-.036-1.243-1.062-2.137-2.282-2.125-1.292.012-2.33.978-2.294 2.282zm3.369 4.31h-3.707L65.694 32h3.707l3.212-18.546zm13.675 10.734c-.398 2.475-2.16 4.83-4.89 4.733-2.16-.084-2.873-1.871-2.632-3.803l1.993-11.663h-3.72l-1.991 11.711c-.399 3.345 1.099 6.991 4.914 7.088 2.221.06 4.141-.966 5.53-2.669h.108L85.057 32h3.574l3.212-18.546h-3.72l-1.835 10.734zm22.357-3.779c.351-2.125 1.787-3.96 4.106-3.876 1.943.073 2.523 1.727 2.306 3.453L113.016 32h3.719l2.028-11.941c.375-3.272-.736-6.786-4.539-6.846-2.282-.048-4.347 1.183-5.579 3.067l-.169.012c-.519-1.884-2.209-3.043-4.141-3.079-2.149-.048-3.972 1.22-5.07 2.994h-.11l.592-2.753h-3.658L92.865 32h3.707l1.931-11.277c.363-2.125 1.932-4.274 4.299-4.19 2.052.073 2.451 1.739 2.221 3.514L102.995 32h3.658l1.992-11.59zm29.562-13.136h-3.816L130.105 32h3.815l4.287-24.727zm11.719 6.181h-3.489l.7-3.96h-3.706l-.688 3.96h-2.657l-.543 3.08h2.668l-1.799 10.709c-.253 2.716 1.727 4.878 4.443 4.974.713.012 1.413-.024 2.113-.18l.29-3.224c-.422.024-.845.06-1.268.048-1.473-.036-1.943-.918-1.774-2.33l1.702-9.998h3.465l.543-3.079zM160.17 32h3.514l1.92-11.265c.507-4.298-1.582-7.45-6.049-7.522-3.369-.06-6.726 1.497-7.969 4.781l3.465.93c.893-1.63 2.415-2.717 4.31-2.656 2.355.072 2.886 2.052 2.524 4.08l-.121.617-1.702-.013c-4.226-.012-9.901.978-10.251 6.182-.217 3.212 2.366 5.228 5.409 5.276 2.089.025 4.093-.869 5.276-2.62l.073-.012L160.17 32zm1.232-8.283l-.338 1.932c-.471 2.39-3.103 3.755-5.361 3.695-1.401-.037-2.427-.797-2.222-2.282.411-3.067 4.178-3.357 6.605-3.357l1.316.012zm14.394-16.444h-3.719L167.791 32h3.719l4.286-24.727zm3.887 1.871c.024 1.28 1.038 2.15 2.294 2.137 1.292-.012 2.33-.966 2.282-2.294-.036-1.243-1.063-2.137-2.282-2.125-1.292.012-2.33.978-2.294 2.282zm3.369 4.31h-3.707L176.133 32h3.707l3.212-18.546zm17.98 5.796c-.471-3.682-3.043-5.977-6.786-6.037-5.409-.084-8.826 4.588-9.381 9.599-.531 4.733 1.594 9.49 6.906 9.562 3.695.06 7.317-2.089 7.981-5.916l-3.526-.278c-.652 1.896-2.366 3.043-4.382 2.983-3.272-.097-3.695-3.816-3.357-6.351.374-2.946 2.197-6.508 5.639-6.4 1.943.061 3.078 1.34 3.441 3.164l3.465-.326z"/><path id="i" d="M11.229 31.94c5.505 0 8.73-2.463 8.73-7.196 0-2.427-1.269-4.66-4.142-5.35 2.378-1.013 3.49-3.102 3.49-5.348 0-4.226-3.31-6.773-8.827-6.773H2.053V31.94h9.176zM6.713 11.22h3.767c2.838 0 4.166 1.305 4.166 3.26 0 1.909-1.365 3.176-3.792 3.285l-4.14.012v-6.556zm8.633 13.463c0 2.065-1.534 3.345-4.117 3.345H6.713v-6.81h4.685c2.608 0 3.948 1.28 3.948 3.465zm15.5 7.643c4.794 0 8.38-3.248 8.38-9.599 0-6.145-3.743-9.514-8.403-9.514-4.637 0-8.343 3.502-8.343 9.514 0 6.267 3.573 9.599 8.367 9.599zm-.023-3.755c-2.463 0-3.888-2.04-3.888-5.844 0-3.79 1.521-5.759 3.888-5.759 2.402 0 4.008 1.835 4.008 5.76 0 3.935-1.57 5.843-4.008 5.843zM46.906 7.273h-4.6V32h4.6V7.273zm3.035 15.37c0 5.686 2.644 9.695 7.063 9.695 2.15 0 3.695-.966 4.805-2.523L62.04 32h4.177V7.273h-4.612v8.21c-1.087-1.413-2.572-2.27-4.552-2.27-4.48 0-7.111 3.864-7.111 9.43zm4.515 0c0-3.115 1.1-5.615 3.78-5.615 2.463 0 3.646 2.15 3.73 4.721.085.628.085 1.679 0 2.27-.12 2.355-1.388 4.54-3.827 4.54-2.596 0-3.683-2.536-3.683-5.916z"/><path id="j" d="M9.466 31.952c4.709 0 8.995-2.174 9.405-7.293.17-2.246-.808-4.443-3.066-5.18 2.439-1.014 4.105-2.8 4.322-5.53.362-4.66-3.574-6.604-7.69-6.664L4.54 7.273.266 31.94l9.2.012zM8.403 11.22l3.924.012c1.993.048 3.526.966 3.164 3.151-.362 2.198-2.367 3.345-4.48 3.405l-3.743-.024 1.135-6.544zm6.013 13.366c-.386 2.39-2.596 3.453-4.83 3.453l-4.092-.012 1.183-6.81 4.805.012c2.089.06 3.272 1.22 2.934 3.357zm14.825 7.739c5.542.084 8.826-4.552 9.345-9.671.483-4.721-1.69-9.37-6.954-9.442-5.361-.084-8.79 4.636-9.297 9.587-.495 4.781 1.545 9.454 6.906 9.526zm.109-3.755c-2.946-.097-2.922-3.586-2.669-5.76.326-2.62 1.679-5.952 4.818-5.855 2.97.097 3.067 3.441 2.789 5.687-.314 2.704-1.69 6.049-4.938 5.928zM49.285 7.273H44.78L40.495 32h4.503l4.287-24.727zm.499 15.454c-.495 4.009.483 9.527 5.53 9.623 2.076.036 3.706-.966 4.95-2.584L59.926 32h4.057L68.28 7.273h-4.516l-1.57 8.246c-.965-1.46-2.426-2.258-4.177-2.306-5.131-.12-7.703 5.095-8.234 9.514zm4.419-.012c.362-2.535 1.714-5.82 4.781-5.687 2.548.097 2.765 2.73 2.62 4.721a12.06 12.06 0 0 1-.398 2.27c-.58 2.222-2.017 4.66-4.637 4.564-2.885-.109-2.644-3.851-2.366-5.868zm31.47-15.442h-4.589L76.798 32h4.588l4.287-24.727zm11.893 6.181h-3.175l.688-3.96h-4.503l-.689 3.96h-2.439l-.603 3.442h2.45L87.594 27.05c-.253 2.825 1.811 5.119 4.637 5.204.82.024 1.618-.025 2.427-.17l.35-3.742c-.447.024-.894.048-1.34.024-1.244-.049-1.642-.81-1.486-2.005l1.618-9.465h3.176l.591-3.442zM107.477 32h4.226l1.992-11.772c.471-4.25-2.137-6.943-6.315-7.015-3.453-.06-7.051 1.558-8.15 5.035l4.214.809c.737-1.425 1.968-2.367 3.623-2.306 1.931.072 2.426 1.509 2.112 3.223l-.193.834-1.835-.025c-4.25-.012-9.321 1.256-9.623 6.303-.193 3.175 2.367 5.252 5.385 5.3 1.932.024 3.743-.736 4.866-2.342h.048l-.35 1.956zm1.111-8.138l-.35 1.98c-.399 1.932-2.584 3.103-4.443 3.043-1.208-.036-2.041-.712-1.848-1.968.387-2.487 3.152-3.079 5.252-3.067l1.389.012zm16.02-16.59h-4.504L115.818 32h4.504l4.286-24.727zm3.626 2.102c.036 1.424 1.159 2.378 2.56 2.366 1.461 0 2.62-1.038 2.56-2.535-.049-1.425-1.196-2.379-2.572-2.367-1.449 0-2.596 1.05-2.548 2.536zm4.093 4.08h-4.503L124.6 32h4.516l3.211-18.546zm17.976 6.001c-.543-3.779-3.042-6.182-6.93-6.242-5.482-.084-8.947 4.528-9.49 9.623-.531 4.842 1.738 9.442 7.087 9.514 3.731.06 7.462-2.089 8.09-5.989l-4.13-.555c-.567 1.715-2.052 2.825-3.875 2.777-2.97-.072-3.139-3.513-2.85-5.747.338-2.644 1.811-5.989 4.975-5.856 1.847.06 2.668 1.413 3.018 3.055l4.105-.58z"/><path id="k" d="M2.344 11l.422-1.5h2.468l.422 1.5h1.985L4.969 3H3.03L.36 11h1.985zm1.61-5.734h.093l.781 2.78H3.172l.781-2.78zM11.488 11h1.719V7c0-1.39-1.094-2.078-2.469-2.078-1.25 0-2.313.578-2.625 1.719l1.687.234c.141-.422.376-.625.844-.625.532 0 .75.25.75.734v.329h-.61c-1.984 0-2.702.843-2.702 2.046 0 1.032.89 1.75 1.969 1.75.75 0 1.203-.312 1.39-.625h.047V11zm-.094-2.578v.656c0 .422-.468.735-.937.735-.39 0-.64-.22-.64-.547 0-.438.28-.844.984-.844h.593zm5.777 2.547c1.89 0 2.89-.797 2.89-2.36 0-.734-.335-1.464-1.241-1.703.777-.316 1.086-.98 1.086-1.687 0-1.5-1.14-2.219-3.032-2.219h-2.78v7.969h3.077zM15.892 4.5h.983c.86 0 1.235.266 1.235.938 0 .593-.36.89-1.235.89h-.984V4.5zm2.39 4.078c0 .516-.328.906-1.11.906h-1.28V7.578h1.343c.75 0 1.047.39 1.047 1zm7.737-.64c0-1.829-.844-3.016-2.266-3.016-.535 0-.95.187-1.265.512V3H20.69v8h1.625l.047-.578c.335.426.788.687 1.406.687 1.406 0 2.25-1.28 2.25-3.171zm-1.719 0c0 1.015-.25 1.734-.969 1.734-.64 0-1.078-.563-1.078-1.39v-.454c0-.984.422-1.484 1.063-1.484.734 0 .984.672.984 1.593zm7.106.343c-.094.516-.312 1.313-1.312 1.313-1.047 0-1.563-.875-1.563-2.61 0-1.718.516-2.578 1.563-2.578 1 0 1.234.782 1.328 1.36l1.75-.25c-.219-1.532-1.281-2.625-3.188-2.625-1.984 0-3.281 1.5-3.281 4.093 0 2.641 1.234 4.125 3.297 4.125 1.828 0 2.984-1.046 3.187-2.578l-1.78-.25zM39.06 7c-.172-1.172-1.047-2.078-2.562-2.078-1.797 0-2.813 1.312-2.813 3.094 0 1.796 1.016 3.093 2.828 3.093 1.36 0 2.375-.734 2.547-1.968l-1.61-.282c-.077.329-.296.813-.968.813-.812 0-1.094-.703-1.094-1.656 0-.922.282-1.672 1.078-1.672.782 0 .954.734 1 .953L39.06 7zM4.516 15.922h-.157L.484 17.328v1.406l2.22-.765V24h1.812v-8.078zm6.957 6.578H8.708c-.157 0-.219 0-.375.063l-.032-.079a.726.726 0 0 0 .313-.203l.812-.875c1.094-1.187 1.829-2.062 1.829-3.203 0-1.453-.907-2.312-2.61-2.312-1.656 0-2.765 1.218-2.765 2.687h1.734c0-.703.375-1.265 1-1.265.578 0 .906.375.906 1.062 0 .406-.219.969-.953 1.719l-2.594 2.593V24h5.5v-1.5zm2.592-1.75h.86c.734 0 1.171.219 1.171 1.016 0 .53-.406.937-1.094.937-.578 0-1.046-.375-1.046-.875H12.22c0 1.594 1.422 2.281 2.719 2.281 1.64 0 2.875-.843 2.875-2.312 0-.926-.508-1.555-1.383-1.84.79-.371 1.258-1.086 1.258-1.832 0-1.453-1.11-2.234-2.75-2.234-1.406 0-2.61.796-2.61 2.125h1.735c0-.453.453-.72.937-.72.657 0 .97.407.97.876 0 .61-.345 1.078-1.048 1.078h-.86v1.5zm10.466.188h-1.187V16h-1.797l-3.188 5.234v1.203h3.375V24h1.61v-1.563h1.187v-1.5zm-4.375 0l1.391-2.391.188-.32v2.71h-1.579zm6.737-.516c.157-.188.438-.406.97-.406.812 0 1.171.578 1.171 1.343 0 .72-.234 1.344-.984 1.344-.563 0-.922-.36-.97-.922h-1.733c0 1.438 1.343 2.328 2.718 2.328 1.844 0 2.688-1.28 2.688-2.625 0-1.687-1.016-2.718-2.328-2.718-.688 0-1.047.25-1.188.453h-.031l.187-1.719h3.11V16h-4.516l-.469 4.078 1.375.344zm8.451-2.266h1.672c-.265-1.297-1.062-2.265-2.625-2.265-2.187 0-2.89 1.828-2.86 4.406v.297c0 2.265 1.188 3.515 2.845 3.515 1.593 0 2.672-1.172 2.672-2.703 0-1.515-.75-2.687-2.188-2.687-.68 0-1.219.273-1.582.652.062-1.242.445-2.043 1.098-2.043.562 0 .78.235.968.828zm-2.078 3.063v-.094c0-.484.313-1.016 1.016-1.016.64 0 1.062.5 1.062 1.297 0 .75-.406 1.297-1.015 1.297-.672 0-1.063-.469-1.063-1.484zM43.373 16h-5.5v1.5h3.547L38.686 24h1.828l2.86-7.031V16zm5.967 5.797c0-.887-.461-1.547-1.2-1.914.65-.36 1.044-.973 1.044-1.742 0-1.47-1.047-2.25-2.547-2.25-1.469 0-2.532.78-2.532 2.25 0 .765.399 1.379 1.047 1.738-.742.367-1.218 1.031-1.218 1.918 0 1.531 1.172 2.312 2.718 2.312 1.547 0 2.688-.78 2.688-2.312zm-1.89-3.563c0 .578-.266.953-.798.953-.53 0-.812-.375-.812-.953s.281-.906.797-.906c.531 0 .812.344.812.906zm.155 3.422c0 .64-.374 1.016-.953 1.016-.578 0-.984-.375-.984-1.016 0-.656.406-1.047.969-1.047.578 0 .968.391.968 1.047zm4.626.215h-1.68c.266 1.297 1.06 2.262 2.622 2.262 2.168-.125 2.863-1.867 2.863-4.43v-.312c0-2.25-1.188-3.5-2.844-3.5-1.594 0-2.703 1.171-2.703 2.703 0 1.515.781 2.687 2.219 2.687.68 0 1.21-.27 1.578-.648-.074 1.234-.438 2.058-1.086 2.066-.57.008-.785-.238-.969-.828zm-.008-3.277c0-.75.407-1.297 1.016-1.297.672 0 1.063.469 1.063 1.484v.094c0 .484-.313 1.016-1.016 1.016-.64 0-1.063-.5-1.063-1.297zm10.425.703c0-2.235-1.219-3.406-2.844-3.406-1.625 0-2.844 1.171-2.844 3.406v1.328c0 2.36 1.204 3.484 2.844 3.484 1.625 0 2.844-1.125 2.844-3.484v-1.328zm-1.766 1.562c0 1.328-.468 1.766-1.078 1.766-.625 0-1.078-.438-1.078-1.766v-1.797c0-1.203.453-1.703 1.078-1.703s1.078.5 1.078 1.703v1.797z"/><path id="l" d="M11.108 31.903c5.844 0 8.935-2.463 8.935-7.292 0-2.27-1.039-4.528-3.84-5.264 2.403-.978 3.357-3.03 3.357-5.216 0-4.637-3.526-6.858-9.37-6.858H1.594v24.63h9.514zM7.148 11.91h3.042c2.657 0 3.816.821 3.816 2.898 0 1.835-1.111 2.753-3.816 2.753H7.148v-5.65zm7.389 12.605c0 1.594-1.014 2.801-3.429 2.801h-3.96v-5.892H11.3c2.318 0 3.236 1.208 3.236 3.091zm14.16-17.241h-5.553V32h5.554V7.273zM41.888 32H47.2V19.636c0-4.298-3.38-6.423-7.63-6.423-3.864 0-7.149 1.787-8.114 5.313l5.215.724c.435-1.304 1.16-1.932 2.608-1.932 1.642 0 2.319.773 2.319 2.27v1.014h-1.884c-6.133 0-8.355 2.608-8.355 6.327 0 3.188 2.753 5.41 6.085 5.41 2.318 0 3.719-.967 4.299-1.933h.144V32zm-.29-7.969v2.029c0 1.304-1.45 2.27-2.898 2.27-1.207 0-1.98-.677-1.98-1.69 0-1.353.87-2.609 3.042-2.609h1.836zm24.468-4.395c-.53-3.622-3.235-6.423-7.92-6.423-5.554 0-8.693 4.057-8.693 9.563 0 5.553 3.139 9.562 8.741 9.562 4.202 0 7.341-2.27 7.872-6.085l-4.974-.87c-.242 1.015-.918 2.512-2.994 2.512-2.512 0-3.381-2.173-3.381-5.12 0-2.849.87-5.167 3.332-5.167 2.415 0 2.946 2.27 3.091 2.946l4.926-.918zM79.565 32h5.989L78.61 21.35l6.653-7.896H78.84l-4.926 6.134h-.242V7.273h-5.554V32h5.554v-4.781l1.606-1.908L79.565 32z"/><path id="m" d="M9.285 31.916c4.878 0 9.2-2.101 9.695-7.39.193-2.185-.604-4.334-2.801-5.107 2.415-.978 3.936-2.74 4.178-5.373.458-5.023-3.804-6.725-8.126-6.773H4.093l-4.262 24.63 9.454.013zm-.58-20.007l3.152.012c1.92.036 3.272.652 2.982 2.777-.314 2.282-2.343 2.874-4.371 2.874l-2.74-.012.977-5.65zm4.963 12.509c-.302 2.052-2.09 2.91-4.009 2.91l-3.622-.013 1.026-5.892 4.226.012c1.847.06 2.644 1.172 2.379 2.983zM31.052 7.273h-5.409L21.357 32h5.409l4.286-24.727zM39.906 32h5.071l2.101-12.364c.471-4.105-2.68-6.375-6.496-6.423-3.573-.048-7.413 1.654-8.5 5.3l5.035.713c.544-1.195 1.4-1.956 2.777-1.92 1.45.048 1.908.918 1.739 2.27l-.157 1.026-2.016-.012c-4.275 0-8.621 1.594-8.96 6.424-.217 3.102 2.21 5.288 5.205 5.336 1.726.024 3.368-.555 4.419-1.956l.072-.012-.29 1.618zm1.002-7.969l-.35 2.029c-.29 1.424-1.871 2.342-3.26 2.294-.966-.037-1.63-.604-1.509-1.618.23-1.811 1.835-2.705 3.526-2.729l1.593.024zm25.073-4.37c-.447-3.888-2.97-6.388-6.967-6.448-5.542-.084-9.128 4.443-9.72 9.635-.555 4.95 1.824 9.418 7.221 9.49 3.852.06 7.57-2.125 8.307-6.085l-4.757-.857c-.471 1.485-1.618 2.547-3.236 2.523-2.644-.06-2.608-3.14-2.39-5.071.265-2.258 1.28-5.349 4.08-5.24 1.763.072 2.318 1.46 2.584 2.97l4.878-.918zM77.56 32h5.65l-4.865-10.468 8.005-8.078h-6.532l-5.844 6.158-.17.012L76.04 7.273h-5.41L66.332 32h5.421l.797-4.612 2.029-2.04L77.56 32zm26.248-24.727H98.35L94.065 32h5.457l4.287-24.727zm11.736 6.181h-2.813l.688-3.96h-5.409l-.688 3.96h-2.197l-.676 3.864h2.209l-1.606 9.514c-.314 2.898 1.763 5.385 4.697 5.506.978.036 1.944-.06 2.922-.217l.616-4.274-1.582-.025c-.954-.06-1.268-.748-1.159-1.642l1.521-8.862h2.813l.664-3.864zM124.659 32h5.071l2.101-12.364c.471-4.105-2.68-6.375-6.496-6.423-3.573-.048-7.413 1.654-8.5 5.3l5.035.713c.544-1.195 1.401-1.956 2.777-1.92 1.449.048 1.908.918 1.739 2.27l-.157 1.026-2.016-.012c-4.275 0-8.621 1.594-8.959 6.424-.218 3.102 2.209 5.288 5.204 5.336 1.726.024 3.368-.555 4.419-1.956l.072-.012-.29 1.618zm1.002-7.969l-.35 2.029c-.29 1.424-1.871 2.342-3.26 2.294-.966-.037-1.63-.604-1.509-1.618.229-1.811 1.835-2.705 3.526-2.729l1.593.024zm17.521-16.758h-5.409L133.486 32h5.409l4.287-24.727zm2.95 2.354c0 1.594 1.207 2.62 2.741 2.632 1.654.012 3.018-1.098 3.03-2.813 0-1.582-1.244-2.608-2.777-2.62-1.654-.012-2.994 1.11-2.994 2.801zm4.914 3.827h-5.409L142.425 32h5.409l3.212-18.546zm17.568 6.206c-.446-3.887-2.97-6.387-6.966-6.447-5.542-.084-9.128 4.443-9.72 9.635-.555 4.95 1.823 9.418 7.22 9.49 3.852.06 7.571-2.125 8.307-6.085l-4.757-.857c-.471 1.485-1.618 2.547-3.236 2.523-2.644-.06-2.608-3.14-2.39-5.071.265-2.258 1.28-5.349 4.081-5.24 1.763.072 2.318 1.46 2.584 2.97l4.877-.918z"/></defs></svg>