<svg width="1536" height="3456" viewBox="0 0 1536 3456" version="1.1" xmlns="http://www.w3.org/2000/svg" xmlns:xlink="http://www.w3.org/1999/xlink">
<title>/a</title>
<desc>Created using Figma</desc>
<g id="Canvas" transform="translate(-1007 -25541)">
<g id="Regular/a">
<g id="Vector">
<use xlink:href="#path0_fill" transform="translate(1151 26801)"/>
</g>
</g>
</g>
<defs>
<path id="path0_fill" d="M 988 1556L 1216 1556L 1216 608C 1216 172 940 0 632 0C 408 0 132 100 28 380L 232 456C 324 260 492 204 628 204C 824 204 988 288 988 628L 988 656L 868 659C 344 675 0 720 0 1152C 0 1424 220 1592 552 1592C 756 1592 904 1472 976 1364L 988 1364L 988 1556ZM 988 856L 988 1024C 988 1162 828 1380 584 1380C 348 1380 236 1280 236 1120C 236 862 616 877 868 861L 988 856Z"/>
</defs>
</svg>
