<svg width="1664" height="3456" viewBox="0 0 1664 3456" version="1.1" xmlns="http://www.w3.org/2000/svg" xmlns:xlink="http://www.w3.org/1999/xlink">
<title>/e</title>
<desc>Created using Figma</desc>
<g id="Canvas" transform="translate(-4579 -25541)">
<g id="Regular/e">
<g id="Vector">
<use xlink:href="#path0_fill" transform="translate(4731 26801)"/>
</g>
</g>
</g>
<defs>
<path id="path0_fill" d="M 712 1584.04C 948 1584.04 1164 1488.04 1276 1332.04L 1092 1204.04C 992 1304.04 880 1368.04 696 1368.04C 384 1368.04 236 1092.04 236 924.043L 236 732.043C 236 424.043 436 220.043 672 220.043C 936 220.043 1100 408.043 1100 684.043L 168 684.043L 168 888.043L 1340 888.043L 1340 788.043C 1340 272.043 1048 -3.95713 680 0.0428717C 304 4.04287 0 272.043 0 760.043L 0 828.043C 0 1288.04 296 1584.04 712 1584.04Z"/>
</defs>
</svg>
