<svg width="1664" height="3456" viewBox="0 0 1664 3456" version="1.1" xmlns="http://www.w3.org/2000/svg" xmlns:xlink="http://www.w3.org/1999/xlink">
<title>/five</title>
<desc>Created using Figma</desc>
<g id="Canvas" transform="translate(373 -25541)">
<g id="Regular/five">
<g id="Vector">
<use xlink:href="#path0_fill" transform="translate(-195 26309)"/>
</g>
</g>
</g>
<defs>
<path id="path0_fill" d="M 258 1101.5C 350 1025.5 462 973 650 973C 863 973 1078 1101.5 1078 1412C 1078 1693 867.5 1865 633 1865C 427.5 1865 282 1756 240 1536L 0 1536C 36 1912 294 2076 618 2076C 1058 2076 1313 1802 1313 1409.19C 1313 1010 1050 750 650 750C 510.281 750 368 807 295 870L 281 870L 366 236L 1174 236L 1174 0L 142 0L 22 1048L 258 1101.5Z"/>
</defs>
</svg>
