<svg width="1664" height="3456" viewBox="0 0 1664 3456" version="1.1" xmlns="http://www.w3.org/2000/svg" xmlns:xlink="http://www.w3.org/1999/xlink">
<title>/nine</title>
<desc>Created using Figma</desc>
<g id="Canvas" transform="translate(4029 -29097)">
<g id="Regular/nine">
<g id="Vector">
<use xlink:href="#path0_fill" transform="translate(-3869 29839)"/>
</g>
</g>
</g>
<defs>
<path id="path0_fill" d="M 268.074 1564L 32.4938 1564C 105 1912.5 289.463 2104 627.228 2104C 1082.45 2104 1316 1707 1316 1074L 1316 1006C 1316 350.476 1110.47 0 649.877 0C 231.518 0 0 296 0 672C 0 1000 182.778 1316 597.074 1316C 885.457 1316 1226.64 1148 1226.64 664L 1052.3 664C 1052.3 928 858.901 1096 621.753 1096C 339.309 1096 235.765 892 235.765 660C 235.765 396 408.358 216 629.877 216C 850.778 216 1052.3 368 1052.3 680L 1072.3 1064C 1072.3 1734 833.515 1884 624.491 1884C 382.818 1884 314.784 1704.5 268.074 1564Z"/>
</defs>
</svg>
