<svg xmlns="http://www.w3.org/2000/svg" width="1536" height="3456">
  <g id="s">
    <path d="M180 -1108 C180 -888 316 -744 736 -668 C1040 -612 1112 -516 1112 -412 C1112 -268 976 -172 768 -172 C480 -172 380 -320 340 -376 L156 -244 C272 -68 468 40 756 40 C1104 40 1364 -156 1364 -428 C1364 -652 1228 -792 800 -876 C516 -932 432 -1012 432 -1120 C432 -1260 584 -1348 768 -1348 C1044 -1348 1136 -1188 1156 -1160 L1340 -1288 C1248 -1460 1032 -1556 768 -1556 C444 -1556 180 -1368 180 -1108z" transform="translate(0 2816)" />
    <rect x="0" y="0" width="1536" height="3456" fill="" stroke="black" />
  </g>
</svg>