<svg width="1664" height="3456" viewBox="0 0 1664 3456" version="1.1" xmlns="http://www.w3.org/2000/svg" xmlns:xlink="http://www.w3.org/1999/xlink">
<title>/six</title>
<desc>Created using Figma</desc>
<g id="Canvas" transform="translate(4029 -25541)">
<g id="Regular/six">
<g id="Vector">
<use xlink:href="#path0_fill" transform="translate(-3841 26281)"/>
</g>
</g>
</g>
<defs>
<path id="path0_fill" d="M 1047.93 540L 1283.51 540C 1211 191.5 1026.54 0 688.772 0C 233.549 0 -3.44971e-14 397 0 1030L 0 1098C 0 1753.52 205.527 2104 666.123 2104C 1084.48 2104 1316 1808 1316 1432C 1316 1104 1133.22 788 718.926 788C 430.543 788 89.358 956 89.358 1440L 263.704 1440C 263.704 1176 457.099 1008 694.247 1008C 976.691 1008 1080.23 1212 1080.23 1444C 1080.23 1708 907.642 1888 686.123 1888C 465.222 1888 263.704 1736 263.704 1424L 243.704 1040C 243.704 370 482.485 220 691.509 220C 933.182 220 1001.22 399.5 1047.93 540Z"/>
</defs>
</svg>
