<svg width="2604" height="3456" viewBox="0 0 2604 3456" version="1.1" xmlns="http://www.w3.org/2000/svg" xmlns:xlink="http://www.w3.org/1999/xlink">
<title>infinity</title>
<desc>Created using Figma</desc>
<g id="Canvas" transform="translate(-17775 -36509)">
<g id="Regular/infinity">
<g id="Union">
<use xlink:href="#path0_fill" transform="translate(17910 37904)"/>
</g>
</g>
</g>
<defs>
<path id="path0_fill" fill-rule="evenodd" d="M 551 0C 246.691 0 0 246.691 0 551C 0 855.309 246.691 1102 551 1102C 767.67 1102 931.838 993.168 1045 883.727C 1091.27 838.973 1132.87 789.586 1167 745.629C 1201.13 789.586 1242.73 838.973 1289 883.727C 1402.16 993.168 1566.33 1102 1783 1102C 2087.31 1102 2334 855.309 2334 551C 2334 246.691 2087.31 0 1783 0C 1566.06 0 1401 110.102 1287.66 219.805C 1241.82 264.172 1200.71 312.816 1167 356.145C 1133.29 312.816 1092.18 264.172 1046.34 219.805C 933.002 110.102 767.936 0 551 0ZM 230 551C 230 373.715 373.717 230 551 230C 684.861 230 795.545 297.148 886.381 385.07C 947.662 444.383 990.416 502.176 1024.94 550.824C 989.768 600.344 946.986 658.547 885.1 718.398C 794.957 805.582 685.125 872 551 872C 373.717 872 230 728.285 230 551ZM 2104 551C 2104 373.715 1960.28 230 1783 230C 1649.14 230 1538.46 297.148 1447.62 385.07C 1386.34 444.383 1343.58 502.176 1309.06 550.824C 1344.23 600.344 1387.01 658.547 1448.9 718.398C 1539.04 805.582 1648.88 872 1783 872C 1960.28 872 2104 728.285 2104 551Z"/>
</defs>
</svg>
