<svg width="960" height="610" viewBox="0 0 960 610" fill="none" xmlns="http://www.w3.org/2000/svg">
<g clip-path="url(#clip0)">
<path d="M13.2045 85L21.3977 61.9318H54.3295L62.5227 85H72.8636L42.9545 3.54545H32.7727L2.86364 85H13.2045ZM24.5 53.1818L37.5455 16.4318H38.1818L51.2273 53.1818H24.5ZM81.0711 85H110.503C129.753 85 137.707 75.6136 137.707 63.3636C137.707 50.4773 128.798 43.4773 121.321 43V42.2045C128.321 40.2955 134.526 35.6818 134.526 25.1818C134.526 13.25 126.571 3.54545 109.548 3.54545H81.0711V85ZM90.9348 76.25V47.9318H110.98C121.639 47.9318 128.321 55.0909 128.321 63.3636C128.321 70.5227 123.389 76.25 110.503 76.25H90.9348ZM90.9348 39.3409V12.2955H109.548C120.367 12.2955 125.139 18.0227 125.139 25.1818C125.139 33.7727 118.139 39.3409 109.23 39.3409H90.9348ZM214.98 29C211.958 12.2955 198.594 2.43182 182.208 2.43182C161.367 2.43182 146.253 18.5 146.253 44.2727C146.253 70.0455 161.367 86.1136 182.208 86.1136C198.594 86.1136 211.958 76.25 214.98 59.5455H205.117C202.73 70.8409 193.026 76.8864 182.208 76.8864C167.412 76.8864 155.799 65.4318 155.799 44.2727C155.799 23.1136 167.412 11.6591 182.208 11.6591C193.026 11.6591 202.73 17.7045 205.117 29H214.98ZM251.576 85C276.394 85 290.394 69.5682 290.394 44.1136C290.394 18.8182 276.394 3.54545 252.689 3.54545H226.439V85H251.576ZM236.303 76.25V12.2955H252.053C271.144 12.2955 280.848 24.3864 280.848 44.1136C280.848 64 271.144 76.25 250.939 76.25H236.303ZM302.459 85H352.255V76.25H312.323V48.5682H349.073V39.8182H312.323V12.2955H351.618V3.54545H302.459V85ZM364.917 85H374.78V48.5682H410.099V39.8182H374.78V12.2955H413.758V3.54545H364.917V85ZM481.853 29H492.035C489.012 13.25 475.807 2.43182 458.626 2.43182C437.745 2.43182 422.989 18.5 422.989 44.2727C422.989 70.0455 437.626 86.1136 459.262 86.1136C478.671 86.1136 492.512 73.1875 492.512 53.0227V44.2727H461.489V53.0227H482.967C482.688 67.6591 473.063 76.8864 459.262 76.8864C444.148 76.8864 432.535 65.4318 432.535 44.2727C432.535 23.1136 444.148 11.6591 458.626 11.6591C470.398 11.6591 478.393 18.3011 481.853 29ZM504.926 85H514.789V48.5682H558.221V85H568.085V3.54545H558.221V39.8182H514.789V3.54545H504.926V85ZM593.215 3.54545H583.352V85H593.215V3.54545ZM639.694 3.54545V61.7727C639.694 71.9148 634.842 77.3636 626.331 77.3636C618.575 77.3636 612.967 72.8295 612.967 65.9091H603.262C603.262 78.4375 612.967 86.1136 626.331 86.1136C640.49 86.1136 649.558 77.4034 649.558 61.7727V3.54545H639.694ZM664.845 85H674.709V58.5909L684.89 47.1364L713.209 85H725.14L690.936 40.2955L725.14 3.54545H712.254L675.663 43.9545H674.709V3.54545H664.845V85ZM733.427 85H781.155V76.25H743.291V3.54545H733.427V85ZM791.947 3.54545V85H801.175V23.1136H801.97L827.425 85H836.334L861.788 23.1136H862.584V85H871.811V3.54545H860.038L832.356 71.1591H831.402L803.72 3.54545H791.947ZM951.699 3.54545H941.994V67.6591H941.199L896.653 3.54545H887.108V85H896.972V21.0455H897.767L942.153 85H951.699V3.54545ZM78.5909 165.273C78.5909 139.5 63.4773 123.432 42.6364 123.432C21.7955 123.432 6.68182 139.5 6.68182 165.273C6.68182 191.045 21.7955 207.114 42.6364 207.114C63.4773 207.114 78.5909 191.045 78.5909 165.273ZM69.0455 165.273C69.0455 186.432 57.4318 197.886 42.6364 197.886C27.8409 197.886 16.2273 186.432 16.2273 165.273C16.2273 144.114 27.8409 132.659 42.6364 132.659C57.4318 132.659 69.0455 144.114 69.0455 165.273ZM90.6961 206H100.56V176.25H118.378C137.35 176.25 145.901 164.716 145.901 150.318C145.901 135.92 137.35 124.545 118.219 124.545H90.6961V206ZM100.56 167.5V133.295H117.901C131.145 133.295 136.196 140.534 136.196 150.318C136.196 160.102 131.145 167.5 118.06 167.5H100.56ZM226.037 165.273C226.037 139.5 210.924 123.432 190.083 123.432C169.242 123.432 154.128 139.5 154.128 165.273C154.128 191.045 169.242 207.114 190.083 207.114C195.412 207.114 200.344 206.08 204.759 204.091L211.878 213.636H222.696L212.077 199.517C220.747 192.398 226.037 180.545 226.037 165.273ZM186.901 180.545L198.992 196.375C196.208 197.369 193.225 197.886 190.083 197.886C175.287 197.886 163.674 186.432 163.674 165.273C163.674 144.114 175.287 132.659 190.083 132.659C204.878 132.659 216.492 144.114 216.492 165.273C216.492 177.562 212.594 186.551 206.389 191.96L197.719 180.545H186.901ZM238.142 206H248.006V174.182H265.824C266.54 174.182 267.216 174.182 267.892 174.142L285.074 206H296.529L278.114 172.352C288.495 168.812 293.347 160.341 293.347 149.523C293.347 135.125 284.756 124.545 265.665 124.545H238.142V206ZM248.006 165.273V133.295H265.347C278.551 133.295 283.642 139.739 283.642 149.523C283.642 159.307 278.551 165.273 265.506 165.273H248.006ZM349.848 144.909H359.394C358.956 132.619 347.621 123.432 331.871 123.432C316.28 123.432 304.03 132.5 304.03 146.182C304.03 157.159 311.985 163.682 324.712 167.341L334.735 170.205C343.326 172.591 350.962 175.614 350.962 183.727C350.962 192.636 342.371 198.523 331.076 198.523C321.371 198.523 312.78 194.227 311.985 185H301.803C302.758 198.364 313.576 207.432 331.076 207.432C349.848 207.432 360.508 197.091 360.508 183.886C360.508 168.614 346.03 163.682 337.598 161.455L329.326 159.227C323.28 157.636 313.576 154.455 313.576 145.705C313.576 137.909 320.735 132.182 331.553 132.182C341.417 132.182 348.894 136.875 349.848 144.909ZM367.79 133.295H393.404V206H403.268V133.295H428.881V124.545H367.79V133.295ZM493.079 124.545V177.682C493.079 189.614 484.886 198.205 471.283 198.205C457.681 198.205 449.488 189.614 449.488 177.682V124.545H439.624V178.477C439.624 195.182 452.113 207.432 471.283 207.432C490.454 207.432 502.942 195.182 502.942 178.477V124.545H493.079ZM521.501 124.545H511.16L541.069 206H551.251L581.16 124.545H570.819L546.637 193.114H545.683L521.501 124.545ZM604.163 206H614.345L632.322 141.091H632.958L650.936 206H661.117L683.39 124.545H673.367L656.345 190.886H655.549L638.208 124.545H627.072L609.731 190.886H608.936L591.913 124.545H581.89L604.163 206ZM695.973 124.545H684.359L710.609 165.273L684.359 206H695.973L716.973 172.75H717.609L738.609 206H750.223L724.609 165.273L750.223 124.545H738.609L717.609 158.432H716.973L695.973 124.545ZM751.579 124.545L781.011 172.432V206H790.875V172.432L820.307 124.545H809.011L786.42 162.568H785.466L762.875 124.545H751.579ZM825.879 206H882.038V197.25H837.652L881.561 131.705V124.545H825.402V133.295H869.788L825.879 198.841V206Z" fill="#030303"/>
<path d="M37.0682 501.545H27.2045L6.84091 515.068V525.091L26.7273 511.886H27.2045V583H37.0682V501.545ZM56.0143 583H107.401V574.25H69.537V573.614L87.8325 554.045C101.833 539.051 105.969 532.051 105.969 523.023C105.969 510.455 95.787 500.432 81.4689 500.432C67.1905 500.432 56.3325 510.136 56.3325 524.455H65.7189C65.7189 515.188 71.7245 509.023 81.1507 509.023C89.9802 509.023 96.7416 514.432 96.7416 523.023C96.7416 530.54 92.3268 536.108 82.9007 546.409L56.0143 575.841V583ZM146.87 584.114C162.659 584.114 174.392 574.21 174.392 560.886C174.392 550.545 168.267 543.028 158.006 541.318V540.682C166.239 538.176 171.37 531.415 171.37 522.227C171.37 510.693 162.262 500.432 147.188 500.432C133.108 500.432 121.415 509.102 120.938 521.909H130.483C130.841 513.795 138.557 509.023 147.029 509.023C156.017 509.023 161.824 514.472 161.824 522.705C161.824 531.295 155.103 536.864 145.438 536.864H138.915V545.614H145.438C157.807 545.614 164.688 551.898 164.688 560.886C164.688 569.517 157.171 575.364 146.71 575.364C137.284 575.364 129.807 570.511 129.21 562.636H119.188C119.784 575.443 131.08 584.114 146.87 584.114ZM184.27 566.295H222.611V583H231.997V566.295H243.134V557.545H231.997V501.545H220.066L184.27 558.182V566.295ZM222.611 557.545H194.929V556.909L221.975 514.114H222.611V557.545ZM279.013 584.114C294.525 584.114 305.9 572.659 305.9 557.068C305.9 541.278 294.922 529.705 279.968 529.705C274.479 529.705 269.15 531.653 265.809 534.318H265.331L268.195 510.295H302.241V501.545H259.922L254.991 541.636L264.218 542.75C267.598 540.324 273.366 538.574 278.377 538.614C288.758 538.693 296.354 546.568 296.354 557.227C296.354 567.688 289.036 575.364 279.013 575.364C270.661 575.364 264.019 569.994 263.263 562.636H253.718C254.314 575.045 265.013 584.114 279.013 584.114ZM344.265 584.114C360.731 584.312 371.469 571.903 371.469 556.75C371.469 541 359.816 529.705 345.856 529.705C337.464 529.705 330.265 533.801 325.81 540.523H325.174C325.214 520.517 332.93 509.023 345.538 509.023C354.128 509.023 359.299 514.432 361.128 521.909H370.833C368.844 509.102 359.219 500.273 345.538 500.273C327.202 500.273 315.947 516.5 315.947 545.455C315.947 575.562 330.901 583.955 344.265 584.114ZM344.265 575.364C334.043 575.364 326.566 566.653 326.606 556.909C326.645 547.165 334.481 538.455 344.583 538.455C354.566 538.455 361.924 546.648 361.924 556.75C361.924 567.091 354.248 575.364 344.265 575.364ZM385.175 583H395.516L431.789 510.773V501.545H379.607V510.295H421.607V510.932L385.175 583ZM466.585 584.114C482.852 584.114 494.187 574.608 494.266 561.364C494.187 551.062 487.306 542.312 478.516 540.682V540.205C486.153 538.216 491.164 530.739 491.244 522.068C491.164 509.659 480.744 500.432 466.585 500.432C452.266 500.432 441.846 509.659 441.926 522.068C441.846 530.739 446.857 538.216 454.653 540.205V540.682C445.704 542.312 438.823 551.062 438.903 561.364C438.823 574.608 450.158 584.114 466.585 584.114ZM466.585 575.364C455.408 575.364 448.528 569.636 448.607 560.886C448.528 551.699 456.124 545.136 466.585 545.136C476.886 545.136 484.482 551.699 484.562 560.886C484.482 569.636 477.602 575.364 466.585 575.364ZM466.585 536.705C457.676 536.705 451.391 531.136 451.471 522.705C451.391 514.432 457.437 509.023 466.585 509.023C475.573 509.023 481.619 514.432 481.698 522.705C481.619 531.136 475.335 536.705 466.585 536.705ZM530.961 500.273C514.416 500.114 503.757 512.523 503.757 527.636C503.757 543.386 515.37 554.682 529.37 554.682C537.802 554.682 544.961 550.545 549.416 543.864H550.052C550.052 563.909 542.257 575.364 529.688 575.364C521.098 575.364 515.848 569.955 514.098 562.477H504.393C506.302 575.364 516.007 584.114 529.688 584.114C547.984 584.114 559.279 567.886 559.279 538.932C559.279 508.864 544.325 500.432 530.961 500.273ZM530.961 509.023C541.143 509.023 548.62 517.773 548.62 527.477C548.62 537.182 540.666 545.932 530.643 545.932C520.62 545.932 513.302 537.818 513.302 527.636C513.302 517.295 520.938 509.023 530.961 509.023ZM597.008 584.114C614.985 584.114 625.326 568.881 625.326 542.273C625.326 515.864 614.826 500.432 597.008 500.432C579.19 500.432 568.69 515.864 568.69 542.273C568.69 568.881 579.031 584.114 597.008 584.114ZM597.008 575.364C585.156 575.364 578.235 563.472 578.235 542.273C578.235 521.114 585.235 509.023 597.008 509.023C608.781 509.023 615.781 521.114 615.781 542.273C615.781 563.472 608.86 575.364 597.008 575.364ZM669.98 583.636C673.917 583.636 677.139 580.415 677.139 576.477C677.139 572.54 673.917 569.318 669.98 569.318C666.042 569.318 662.821 572.54 662.821 576.477C662.821 580.415 666.042 583.636 669.98 583.636ZM703.503 571.864H693.321L692.844 576.318C691.69 587.097 689.423 597.835 688.389 602.886H695.548C697.457 597.477 701.514 585.227 702.866 576.159L703.503 571.864ZM723.254 583.636C727.192 583.636 730.413 580.415 730.413 576.477C730.413 572.54 727.192 569.318 723.254 569.318C719.317 569.318 716.095 572.54 716.095 576.477C716.095 580.415 719.317 583.636 723.254 583.636ZM723.254 538.295C727.192 538.295 730.413 535.074 730.413 531.136C730.413 527.199 727.192 523.977 723.254 523.977C719.317 523.977 716.095 527.199 716.095 531.136C716.095 535.074 719.317 538.295 723.254 538.295ZM756.777 571.864H746.595L746.118 576.318C744.965 587.097 742.698 597.835 741.664 602.886H748.823C750.732 597.477 754.789 585.227 756.141 576.159L756.777 571.864ZM751.05 538.295C754.987 538.295 758.209 535.074 758.209 531.136C758.209 527.199 754.987 523.977 751.05 523.977C747.112 523.977 743.891 527.199 743.891 531.136C743.891 535.074 747.112 538.295 751.05 538.295ZM825.503 497.727H816.912L790.662 595.25H799.253L825.503 497.727ZM883.775 583L919.411 547.364L883.775 511.727L877.65 517.852L902.866 542.989H837.559V551.739H902.866L877.65 576.955L883.775 583Z" fill="#030303"/>
<path d="M26.5682 328.432C37.2273 328.432 42.7955 322.705 44.7045 318.727H45.1818V327H54.5682V286.75C54.5682 267.341 39.7727 265.114 31.9773 265.114C22.75 265.114 12.25 268.295 7.47727 279.432L16.3864 282.614C18.4545 278.159 23.3466 273.386 32.2955 273.386C40.9261 273.386 45.1818 277.96 45.1818 285.795V286.114C45.1818 290.648 40.5682 290.25 29.4318 291.682C18.0966 293.153 5.72727 295.659 5.72727 309.659C5.72727 321.591 14.9545 328.432 26.5682 328.432ZM28 320C20.5227 320 15.1136 316.659 15.1136 310.136C15.1136 302.977 21.6364 300.75 28.9545 299.795C32.9318 299.318 43.5909 298.205 45.1818 296.295V304.886C45.1818 312.523 39.1364 320 28 320ZM68.493 327H77.5612V317.614H78.6748C80.743 320.955 84.7203 328.273 96.493 328.273C111.766 328.273 122.425 316.023 122.425 296.614C122.425 277.364 111.766 265.114 96.3339 265.114C84.4021 265.114 80.743 272.432 78.6748 275.614H77.8794V245.545H68.493V327ZM77.7203 296.455C77.7203 282.773 83.7657 273.545 95.2203 273.545C107.152 273.545 113.038 283.568 113.038 296.455C113.038 309.5 106.993 319.841 95.2203 319.841C83.9248 319.841 77.7203 310.295 77.7203 296.455ZM157.121 328.273C170.644 328.273 179.553 320 181.144 309.182H171.757C170.007 315.864 164.439 319.841 157.121 319.841C145.985 319.841 138.826 310.614 138.826 296.455C138.826 282.614 146.144 273.545 157.121 273.545C165.394 273.545 170.326 278.636 171.757 284.205H181.144C179.553 272.75 169.848 265.114 156.962 265.114C140.416 265.114 129.439 278.159 129.439 296.773C129.439 315.068 139.939 328.273 157.121 328.273ZM213.453 328.273C225.226 328.273 229.203 320.955 231.272 317.614H232.385V327H241.453V245.545H232.067V275.614H231.272C229.203 272.432 225.544 265.114 213.613 265.114C198.181 265.114 187.522 277.364 187.522 296.614C187.522 316.023 198.181 328.273 213.453 328.273ZM214.726 319.841C202.953 319.841 196.908 309.5 196.908 296.455C196.908 283.568 202.794 273.545 214.726 273.545C226.181 273.545 232.226 282.773 232.226 296.455C232.226 310.295 226.022 319.841 214.726 319.841ZM281.081 328.273C293.491 328.273 302.559 322.068 305.422 312.841L296.354 310.295C293.968 316.659 288.439 319.841 281.081 319.841C270.064 319.841 262.468 312.722 262.03 299.636H306.377V295.659C306.377 272.909 292.854 265.114 280.127 265.114C263.581 265.114 252.604 278.159 252.604 296.932C252.604 315.705 263.422 328.273 281.081 328.273ZM262.03 291.523C262.667 282.017 269.388 273.545 280.127 273.545C290.309 273.545 296.831 281.182 296.831 291.523H262.03ZM343.38 265.909H329.698V259.705C329.698 253.659 332.243 250.477 338.448 250.477C341.153 250.477 342.743 251.114 343.698 251.432L346.403 243.318C344.971 242.682 342.107 241.727 337.493 241.727C328.743 241.727 320.312 246.977 320.312 257.477V265.909H310.448V273.864H320.312V327H329.698V273.864H343.38V265.909ZM374.198 351.182C388.834 351.182 400.607 344.5 400.607 328.75V265.909H391.539V275.614H390.584C388.516 272.432 384.698 265.114 372.766 265.114C357.334 265.114 346.675 277.364 346.675 296.136C346.675 315.227 357.812 326.045 372.607 326.045C384.539 326.045 388.357 319.045 390.425 315.705H391.221V328.114C391.221 338.295 384.062 342.909 374.198 342.909C363.102 342.909 359.204 337.062 356.698 333.682L349.221 338.932C353.039 345.335 360.556 351.182 374.198 351.182ZM373.88 317.614C362.107 317.614 356.062 308.705 356.062 295.977C356.062 283.568 361.948 273.545 373.88 273.545C385.334 273.545 391.38 282.773 391.38 295.977C391.38 309.5 385.175 317.614 373.88 317.614ZM422.695 290.25C422.695 279.591 429.497 273.545 438.764 273.545C447.593 273.545 452.923 279.114 452.923 288.818V327H462.309V288.182C462.309 272.472 453.957 265.114 441.468 265.114C431.843 265.114 426.355 269.131 423.491 275.455H422.695V245.545H413.309V327H422.695V290.25ZM475.001 327H484.387V265.909H475.001V327ZM479.774 255.727C483.433 255.727 486.455 252.864 486.455 249.364C486.455 245.864 483.433 243 479.774 243C476.115 243 473.092 245.864 473.092 249.364C473.092 252.864 476.115 255.727 479.774 255.727ZM497.099 265.909V331.455C497.099 337.659 494.554 341.159 488.826 341.159H487.076V349.909H488.985C500.758 349.909 506.485 342.75 506.485 331.455V265.909H497.099ZM501.713 255.727C505.372 255.727 508.394 252.864 508.394 249.364C508.394 245.864 505.372 243 501.713 243C498.054 243 495.031 245.864 495.031 249.364C495.031 252.864 498.054 255.727 501.713 255.727ZM519.197 327H528.584V304.131L535.146 298.045L558.015 327H569.947L542.226 292L568.038 265.909H556.424L529.697 293.114H528.584V245.545H519.197V327ZM585.025 245.545H575.639V327H585.025V245.545ZM597.737 327H607.124V288.818C607.124 279.869 613.646 273.545 620.964 273.545C628.084 273.545 633.055 278.199 633.055 285.159V327H642.601V287.227C642.601 279.352 647.533 273.545 656.124 273.545C662.805 273.545 668.533 277.085 668.533 286.114V327H677.919V286.114C677.919 271.756 670.203 265.114 659.305 265.114C650.555 265.114 644.152 269.131 641.01 275.455H640.374C637.351 268.932 632.021 265.114 623.987 265.114C616.033 265.114 610.146 268.932 607.601 275.455H606.805V265.909H597.737V327ZM699.987 290.25C699.987 279.591 706.59 273.545 715.578 273.545C724.288 273.545 729.578 279.233 729.578 288.818V327H738.965V288.182C738.965 272.591 730.652 265.114 718.283 265.114C709.055 265.114 703.328 269.25 700.465 275.455H699.669V265.909H690.601V327H699.987V290.25ZM776.455 328.273C793 328.273 804.137 315.705 804.137 296.773C804.137 277.682 793 265.114 776.455 265.114C759.909 265.114 748.773 277.682 748.773 296.773C748.773 315.705 759.909 328.273 776.455 328.273ZM776.455 319.841C763.887 319.841 758.159 309.023 758.159 296.773C758.159 284.523 763.887 273.545 776.455 273.545C789.023 273.545 794.75 284.523 794.75 296.773C794.75 309.023 789.023 319.841 776.455 319.841ZM813.985 349.909H823.371V317.614H824.166C826.235 320.955 830.212 328.273 841.985 328.273C857.257 328.273 867.916 316.023 867.916 296.614C867.916 277.364 857.257 265.114 841.826 265.114C829.894 265.114 826.235 272.432 824.166 275.614H823.053V265.909H813.985V349.909ZM823.212 296.455C823.212 282.773 829.257 273.545 840.712 273.545C852.644 273.545 858.53 283.568 858.53 296.455C858.53 309.5 852.485 319.841 840.712 319.841C829.416 319.841 823.212 310.295 823.212 296.455ZM928.823 349.909V265.909H919.755V275.614H918.641C916.573 272.432 912.914 265.114 900.982 265.114C885.55 265.114 874.891 277.364 874.891 296.614C874.891 316.023 885.55 328.273 900.823 328.273C912.596 328.273 916.573 320.955 918.641 317.614H919.436V349.909H928.823ZM919.596 296.455C919.596 310.295 913.391 319.841 902.096 319.841C890.323 319.841 884.277 309.5 884.277 296.455C884.277 283.568 890.164 273.545 902.096 273.545C913.55 273.545 919.596 282.773 919.596 296.455ZM8.59091 448H17.9773V409.341C17.9773 401.068 24.5 395.023 33.4091 395.023C35.9148 395.023 38.5 395.5 39.1364 395.659V386.114C38.0625 386.034 35.5966 385.955 34.2045 385.955C26.8864 385.955 20.5227 390.091 18.2955 396.136H17.6591V386.909H8.59091V448ZM89.0555 400.591C86.1123 391.92 79.5101 386.114 67.4191 386.114C54.5328 386.114 44.9873 393.432 44.9873 403.773C44.9873 412.205 49.9987 417.852 61.2146 420.477L71.3964 422.864C77.5612 424.295 80.4646 427.239 80.4646 431.455C80.4646 436.705 74.8964 441 66.1464 441C58.4703 441 53.6578 437.699 51.9873 431.136L43.0782 433.364C45.2657 443.744 53.8169 449.273 66.3055 449.273C80.5044 449.273 90.1691 441.517 90.1691 430.977C90.1691 422.466 84.8396 417.097 73.9419 414.432L64.8737 412.205C57.6351 410.415 54.3737 407.989 54.3737 403.295C54.3737 398.045 59.9419 394.227 67.4191 394.227C75.6123 394.227 78.993 398.761 80.6237 402.977L89.0555 400.591ZM126.387 386.909H113.341V372.273H103.955V386.909H94.7275V394.864H103.955V433.045C103.955 443.705 112.546 448.795 120.5 448.795C124 448.795 126.228 448.159 127.5 447.682L125.591 439.25C124.796 439.409 123.523 439.727 121.455 439.727C117.318 439.727 113.341 438.455 113.341 430.5V394.864H126.387V386.909ZM174.526 423.023C174.526 434.477 165.776 439.727 158.776 439.727C150.98 439.727 145.412 434 145.412 425.091V386.909H136.026V425.727C136.026 441.318 144.299 448.795 155.753 448.795C164.98 448.795 171.026 443.864 173.89 437.659H174.526V448H183.912V386.909H174.526V423.023ZM246.579 386.909H236.397L219.533 435.591H218.897L202.033 386.909H191.851L214.442 448H223.988L246.579 386.909ZM268.329 448H277.556L290.92 401.068H291.874L305.238 448H314.465L333.079 386.909H323.215L310.011 433.523H309.374L296.488 386.909H286.465L273.42 433.682H272.783L259.579 386.909H249.715L268.329 448ZM348.008 386.909H337.19L356.599 417.455L337.19 448H348.008L362.644 424.295L377.281 448H388.099L368.371 417.455L388.099 386.909H377.281L362.644 411.886L348.008 386.909ZM403.058 470.75C411.529 470.75 417.535 466.256 421.035 456.909L447.046 387.068L436.785 386.909L419.921 435.591H419.285L402.421 386.909H392.239L414.83 448.318L413.08 453.091C409.739 462.239 405.444 463.114 398.603 461.364L396.217 469.636C397.171 470.114 399.876 470.75 403.058 470.75ZM453.235 448H501.122V439.25H466.281V438.614L500.008 394.386V386.909H454.349V395.659H487.917V396.295L453.235 440.841V448ZM541.46 413.636C541.46 433.682 546.869 450.386 556.574 464.545H564.846C557.21 454.045 551.165 432.568 551.165 413.636C551.165 394.705 557.21 373.227 564.846 362.727H556.574C546.869 376.886 541.46 393.591 541.46 413.636ZM594.263 413.636C594.263 393.591 588.853 376.886 579.149 362.727H570.876C578.513 373.227 584.558 394.705 584.558 413.636C584.558 432.568 578.513 454.045 570.876 464.545H579.149C588.853 450.386 594.263 433.682 594.263 413.636ZM660.403 449.114C667.881 449.114 676.233 446.489 681.523 441.08L687.29 448H698.585L687.33 434.278C690.392 430.341 693.813 423.739 693.813 412.364H684.744C684.744 417.932 683.472 422.864 681.364 426.96L663.665 405.364L669.631 400.909C676.313 395.977 680.449 390.568 680.449 382.773C680.449 373.705 672.972 365.75 660.722 365.75C648.79 365.75 640.994 373.227 640.994 384.205C640.994 391.443 644.932 397.011 650.54 403.773C641.034 410.375 634.472 416.5 634.472 426.364C634.472 439.568 644.335 449.114 660.403 449.114ZM675.915 434.278C671.421 438.494 665.733 440.841 660.085 440.841C650.381 440.841 644.017 434 644.017 426.364C644.017 424.136 646.085 418.409 653.403 413L656.426 410.773L675.915 434.278ZM657.898 398.364C653.921 393.511 650.54 388.898 650.54 384.364C650.54 379.273 654.835 373.864 661.04 373.864C666.926 373.864 670.903 378.636 670.903 382.773C670.903 388.341 667.881 391.364 663.267 394.386L657.898 398.364ZM743.766 425.091H753.311V424.614C753.47 414.75 756.016 410.455 763.016 406.08C770.016 401.824 774.152 395.699 774.152 386.909C774.152 374.5 765.084 365.432 751.084 365.432C738.198 365.432 727.976 373.386 727.38 386.909H737.402C737.999 377.523 744.561 373.705 751.084 373.705C758.561 373.705 764.607 378.636 764.607 386.432C764.607 392.756 760.987 397.29 756.334 400.114C748.539 404.847 743.885 409.46 743.766 424.614V425.091ZM748.857 448.636C752.794 448.636 756.016 445.415 756.016 441.477C756.016 437.54 752.794 434.318 748.857 434.318C744.919 434.318 741.698 437.54 741.698 441.477C741.698 445.415 744.919 448.636 748.857 448.636ZM796.211 366.545H785.392L786.188 425.091H795.415L796.211 366.545ZM790.802 448.636C794.739 448.636 797.961 445.415 797.961 441.477C797.961 437.54 794.739 434.318 790.802 434.318C786.864 434.318 783.642 437.54 783.642 441.477C783.642 445.415 786.864 448.636 790.802 448.636ZM884.445 457.545C892.559 457.545 902.9 455.159 907.832 453.091L905.604 445.773C902.741 446.727 893.513 449.909 884.763 449.909C857.559 449.909 843.082 434.636 843.082 407.591C843.082 381.023 857.877 365.114 882.854 365.114C908.15 365.114 920.082 382.932 920.082 400.75C920.082 418.886 918.172 427 910.059 427C905.286 427 902.741 423.023 902.741 418.568V382.614H894.309V387.068H893.832C892.718 383.568 886.513 380.545 878.559 381.341C866.627 382.614 857.559 392.477 857.559 406.795C857.559 421.909 864.718 433.523 878.559 434C887.627 434.318 892.4 429.864 894.309 425.25H894.786C895.741 432.091 904.332 434.477 909.9 434.477C926.763 434.477 928.354 416.341 928.354 400.909C928.354 379.114 913.082 357.636 883.332 357.636C852.627 357.636 834.332 376.25 834.332 407.273C834.332 439.409 851.991 457.545 884.445 457.545ZM879.832 425.886C869.491 425.886 865.832 416.5 865.832 406.318C865.832 397.091 871.082 389.136 880.15 389.136C889.695 389.136 894.786 392.955 894.786 406.318C894.786 419.523 890.491 425.886 879.832 425.886Z" fill="#030303"/>
</g>
<defs>
<clipPath id="clip0">
<rect width="960" height="610" fill="white"/>
</clipPath>
</defs>
</svg>
