<svg width="960" height="610" viewBox="0 0 960 610" fill="none" xmlns="http://www.w3.org/2000/svg">
<g clip-path="url(#clip0)">
<path d="M13.2045 84L21.3977 60.9318H54.3295L62.5227 84H72.8636L42.9545 2.54545H32.7727L2.86364 84H13.2045ZM24.5 52.1818L37.5455 15.4318H38.1818L51.2273 52.1818H24.5ZM81.0711 84H110.503C129.753 84 137.707 74.6136 137.707 62.3636C137.707 49.4773 128.798 42.4773 121.321 42V41.2045C128.321 39.2955 134.526 34.6818 134.526 24.1818C134.526 12.25 126.571 2.54545 109.548 2.54545H81.0711V84ZM90.9348 75.25V46.9318H110.98C121.639 46.9318 128.321 54.0909 128.321 62.3636C128.321 69.5227 123.389 75.25 110.503 75.25H90.9348ZM90.9348 38.3409V11.2955H109.548C120.367 11.2955 125.139 17.0227 125.139 24.1818C125.139 32.7727 118.139 38.3409 109.23 38.3409H90.9348ZM214.98 28C211.958 11.2955 198.594 1.43182 182.208 1.43182C161.367 1.43182 146.253 17.5 146.253 43.2727C146.253 69.0455 161.367 85.1136 182.208 85.1136C198.594 85.1136 211.958 75.25 214.98 58.5455H205.117C202.73 69.8409 193.026 75.8864 182.208 75.8864C167.412 75.8864 155.799 64.4318 155.799 43.2727C155.799 22.1136 167.412 10.6591 182.208 10.6591C193.026 10.6591 202.73 16.7045 205.117 28H214.98ZM251.576 84C276.394 84 290.394 68.5682 290.394 43.1136C290.394 17.8182 276.394 2.54545 252.689 2.54545H226.439V84H251.576ZM236.303 75.25V11.2955H252.053C271.144 11.2955 280.848 23.3864 280.848 43.1136C280.848 63 271.144 75.25 250.939 75.25H236.303ZM302.459 84H352.255V75.25H312.323V47.5682H349.073V38.8182H312.323V11.2955H351.618V2.54545H302.459V84ZM364.917 84H374.78V47.5682H410.099V38.8182H374.78V11.2955H413.758V2.54545H364.917V84ZM481.853 28H492.035C489.012 12.25 475.807 1.43182 458.626 1.43182C437.745 1.43182 422.989 17.5 422.989 43.2727C422.989 69.0455 437.626 85.1136 459.262 85.1136C478.671 85.1136 492.512 72.1875 492.512 52.0227V43.2727H461.489V52.0227H482.967C482.688 66.6591 473.063 75.8864 459.262 75.8864C444.148 75.8864 432.535 64.4318 432.535 43.2727C432.535 22.1136 444.148 10.6591 458.626 10.6591C470.398 10.6591 478.393 17.3011 481.853 28ZM504.925 84H514.789V47.5682H558.221V84H568.085V2.54545H558.221V38.8182H514.789V2.54545H504.925V84ZM593.215 2.54545H583.352V84H593.215V2.54545ZM639.694 2.54545V60.7727C639.694 70.9148 634.842 76.3636 626.331 76.3636C618.575 76.3636 612.967 71.8295 612.967 64.9091H603.262C603.262 77.4375 612.967 85.1136 626.331 85.1136C640.49 85.1136 649.558 76.4034 649.558 60.7727V2.54545H639.694ZM664.845 84H674.708V57.5909L684.89 46.1364L713.208 84H725.14L690.936 39.2955L725.14 2.54545H712.254L675.663 42.9545H674.708V2.54545H664.845V84ZM733.427 84H781.155V75.25H743.291V2.54545H733.427V84ZM791.947 2.54545V84H801.175V22.1136H801.97L827.425 84H836.334L861.788 22.1136H862.584V84H871.811V2.54545H860.038L832.356 70.1591H831.402L803.72 2.54545H791.947ZM954.214 2.54545H944.51V66.6591H943.714L899.169 2.54545H889.624V84H899.487V20.0455H900.283L944.669 84H954.214V2.54545ZM78.5909 163.273C78.5909 137.5 63.4773 121.432 42.6364 121.432C21.7955 121.432 6.68182 137.5 6.68182 163.273C6.68182 189.045 21.7955 205.114 42.6364 205.114C63.4773 205.114 78.5909 189.045 78.5909 163.273ZM69.0455 163.273C69.0455 184.432 57.4318 195.886 42.6364 195.886C27.8409 195.886 16.2273 184.432 16.2273 163.273C16.2273 142.114 27.8409 130.659 42.6364 130.659C57.4318 130.659 69.0455 142.114 69.0455 163.273ZM90.6961 204H100.56V174.25H118.378C137.35 174.25 145.901 162.716 145.901 148.318C145.901 133.92 137.35 122.545 118.219 122.545H90.6961V204ZM100.56 165.5V131.295H117.901C131.145 131.295 136.196 138.534 136.196 148.318C136.196 158.102 131.145 165.5 118.06 165.5H100.56ZM226.037 163.273C226.037 137.5 210.924 121.432 190.083 121.432C169.242 121.432 154.128 137.5 154.128 163.273C154.128 189.045 169.242 205.114 190.083 205.114C195.412 205.114 200.344 204.08 204.759 202.091L211.878 211.636H222.696L212.077 197.517C220.747 190.398 226.037 178.545 226.037 163.273ZM186.901 178.545L198.992 194.375C196.208 195.369 193.225 195.886 190.083 195.886C175.287 195.886 163.674 184.432 163.674 163.273C163.674 142.114 175.287 130.659 190.083 130.659C204.878 130.659 216.492 142.114 216.492 163.273C216.492 175.562 212.594 184.551 206.389 189.96L197.719 178.545H186.901ZM238.142 204H248.006V172.182H265.824C266.54 172.182 267.216 172.182 267.892 172.142L285.074 204H296.529L278.114 170.352C288.495 166.812 293.347 158.341 293.347 147.523C293.347 133.125 284.756 122.545 265.665 122.545H238.142V204ZM248.006 163.273V131.295H265.347C278.551 131.295 283.642 137.739 283.642 147.523C283.642 157.307 278.551 163.273 265.506 163.273H248.006ZM349.848 142.909H359.394C358.956 130.619 347.621 121.432 331.871 121.432C316.28 121.432 304.03 130.5 304.03 144.182C304.03 155.159 311.985 161.682 324.712 165.341L334.735 168.205C343.326 170.591 350.962 173.614 350.962 181.727C350.962 190.636 342.371 196.523 331.076 196.523C321.371 196.523 312.78 192.227 311.985 183H301.803C302.758 196.364 313.576 205.432 331.076 205.432C349.848 205.432 360.508 195.091 360.508 181.886C360.508 166.614 346.03 161.682 337.598 159.455L329.326 157.227C323.28 155.636 313.576 152.455 313.576 143.705C313.576 135.909 320.735 130.182 331.553 130.182C341.417 130.182 348.894 134.875 349.848 142.909ZM367.79 131.295H393.404V204H403.268V131.295H428.881V122.545H367.79V131.295ZM493.079 122.545V176.477C493.079 189.205 482.897 196.205 471.283 196.205C459.67 196.205 449.488 189.205 449.488 176.477V122.545H439.624V176.477C439.624 194.773 454.102 205.432 471.283 205.432C488.465 205.432 502.942 194.773 502.942 176.477V122.545H493.079ZM521.501 122.545H511.16L541.069 204H551.251L581.16 122.545H570.819L546.637 191.114H545.683L521.501 122.545ZM604.163 204H614.345L632.322 139.091H632.958L650.936 204H661.117L683.39 122.545H673.367L656.345 188.886H655.549L638.208 122.545H627.072L609.731 188.886H608.936L591.913 122.545H581.89L604.163 204ZM695.973 122.545H684.359L710.609 163.273L684.359 204H695.973L716.973 170.75H717.609L738.609 204H750.223L724.609 163.273L750.223 122.545H738.609L717.609 156.432H716.973L695.973 122.545ZM751.579 122.545L781.011 170.432V204H790.875V170.432L820.306 122.545H809.011L786.42 160.568H785.466L762.875 122.545H751.579ZM825.879 204H882.038V195.25H837.652L881.561 129.705V122.545H825.402V131.295H869.788L825.879 196.841V204Z" fill="#030303"/>
<path d="M34.5227 500.545H25.7727C25.2557 501.381 19.4091 512.636 6.84091 512.636V520.909C16.1875 520.909 22.8693 517.091 24.0227 514.864H24.6591V582H34.5227V500.545ZM53.3893 582H104.776V573.25H66.912V572.614L85.2075 553.045C99.2075 538.051 103.344 531.051 103.344 522.023C103.344 509.455 93.162 499.432 78.8439 499.432C64.5655 499.432 53.7075 509.136 53.7075 523.455H63.0939C63.0939 514.188 69.0995 508.023 78.5257 508.023C87.3552 508.023 94.1166 513.432 94.1166 522.023C94.1166 529.54 89.7018 535.108 80.2757 545.409L53.3893 574.841V582ZM144.245 583.114C160.034 583.114 171.767 573.21 171.767 559.886C171.767 549.545 165.642 542.028 155.381 540.318V539.682C163.614 537.176 168.745 530.415 168.745 521.227C168.745 509.693 159.637 499.432 144.563 499.432C130.483 499.432 118.79 508.102 118.313 520.909H127.858C128.216 512.795 135.932 508.023 144.404 508.023C153.392 508.023 159.199 513.472 159.199 521.705C159.199 530.295 152.478 535.864 142.813 535.864H136.29V544.614H142.813C155.182 544.614 162.063 550.898 162.063 559.886C162.063 568.517 154.546 574.364 144.085 574.364C134.659 574.364 127.182 569.511 126.585 561.636H116.563C117.159 574.443 128.455 583.114 144.245 583.114ZM181.645 565.295H219.986V582H229.372V565.295H240.509V556.545H229.372V500.545H217.441L181.645 557.182V565.295ZM219.986 556.545H192.304V555.909L219.35 513.114H219.986V556.545ZM276.388 583.114C291.9 583.114 303.275 571.659 303.275 556.068C303.275 540.278 292.297 528.705 277.343 528.705C271.854 528.705 266.525 530.653 263.184 533.318H262.706L265.57 509.295H299.615V500.545H257.297L252.365 540.636L261.593 541.75C264.973 539.324 270.74 537.574 275.752 537.614C286.133 537.693 293.729 545.568 293.729 556.227C293.729 566.688 286.411 574.364 276.388 574.364C268.036 574.364 261.394 568.994 260.638 561.636H251.093C251.689 574.045 262.388 583.114 276.388 583.114ZM341.64 583.114C358.106 583.312 368.844 570.903 368.844 555.75C368.844 540 357.191 528.705 343.231 528.705C334.839 528.705 327.64 532.801 323.185 539.523H322.549C322.589 519.517 330.305 508.023 342.913 508.023C351.503 508.023 356.674 513.432 358.503 520.909H368.208C366.219 508.102 356.594 499.273 342.913 499.273C324.577 499.273 313.322 515.5 313.322 544.455C313.322 574.562 328.276 582.955 341.64 583.114ZM341.64 574.364C331.418 574.364 323.941 565.653 323.981 555.909C324.02 546.165 331.856 537.455 341.958 537.455C351.941 537.455 359.299 545.648 359.299 555.75C359.299 566.091 351.623 574.364 341.64 574.364ZM382.55 582H392.891L429.164 509.773V500.545H376.982V509.295H418.982V509.932L382.55 582ZM463.96 583.114C480.227 583.114 491.562 573.608 491.641 560.364C491.562 550.062 484.681 541.312 475.891 539.682V539.205C483.528 537.216 488.539 529.739 488.619 521.068C488.539 508.659 478.119 499.432 463.96 499.432C449.641 499.432 439.221 508.659 439.3 521.068C439.221 529.739 444.232 537.216 452.028 539.205V539.682C443.079 541.312 436.198 550.062 436.278 560.364C436.198 573.608 447.533 583.114 463.96 583.114ZM463.96 574.364C452.783 574.364 445.903 568.636 445.982 559.886C445.903 550.699 453.499 544.136 463.96 544.136C474.261 544.136 481.857 550.699 481.937 559.886C481.857 568.636 474.977 574.364 463.96 574.364ZM463.96 535.705C455.05 535.705 448.766 530.136 448.846 521.705C448.766 513.432 454.812 508.023 463.96 508.023C472.948 508.023 478.994 513.432 479.073 521.705C478.994 530.136 472.71 535.705 463.96 535.705ZM528.336 499.273C511.791 499.114 501.132 511.523 501.132 526.636C501.132 542.386 512.745 553.682 526.745 553.682C535.177 553.682 542.336 549.545 546.791 542.864H547.427C547.427 562.909 539.632 574.364 527.063 574.364C518.472 574.364 513.222 568.955 511.472 561.477H501.768C503.677 574.364 513.382 583.114 527.063 583.114C545.359 583.114 556.654 566.886 556.654 537.932C556.654 507.864 541.7 499.432 528.336 499.273ZM528.336 508.023C538.518 508.023 545.995 516.773 545.995 526.477C545.995 536.182 538.041 544.932 528.018 544.932C517.995 544.932 510.677 536.818 510.677 526.636C510.677 516.295 518.313 508.023 528.336 508.023ZM594.383 583.114C612.36 583.114 622.701 567.881 622.701 541.273C622.701 514.864 612.201 499.432 594.383 499.432C576.565 499.432 566.065 514.864 566.065 541.273C566.065 567.881 576.406 583.114 594.383 583.114ZM594.383 574.364C582.531 574.364 575.61 562.472 575.61 541.273C575.61 520.114 582.61 508.023 594.383 508.023C606.156 508.023 613.156 520.114 613.156 541.273C613.156 562.472 606.235 574.364 594.383 574.364ZM667.355 582.636C671.292 582.636 674.514 579.415 674.514 575.477C674.514 571.54 671.292 568.318 667.355 568.318C663.417 568.318 660.196 571.54 660.196 575.477C660.196 579.415 663.417 582.636 667.355 582.636ZM700.878 570.864H690.696L690.219 575.318C689.065 586.097 686.798 596.835 685.764 601.886H692.923C694.832 596.477 698.889 584.227 700.241 575.159L700.878 570.864ZM720.629 582.636C724.567 582.636 727.788 579.415 727.788 575.477C727.788 571.54 724.567 568.318 720.629 568.318C716.692 568.318 713.47 571.54 713.47 575.477C713.47 579.415 716.692 582.636 720.629 582.636ZM720.629 537.295C724.567 537.295 727.788 534.074 727.788 530.136C727.788 526.199 724.567 522.977 720.629 522.977C716.692 522.977 713.47 526.199 713.47 530.136C713.47 534.074 716.692 537.295 720.629 537.295ZM754.152 570.864H743.97L743.493 575.318C742.34 586.097 740.073 596.835 739.038 601.886H746.198C748.107 596.477 752.163 584.227 753.516 575.159L754.152 570.864ZM748.425 537.295C752.362 537.295 755.584 534.074 755.584 530.136C755.584 526.199 752.362 522.977 748.425 522.977C744.487 522.977 741.266 526.199 741.266 530.136C741.266 534.074 744.487 537.295 748.425 537.295ZM822.878 496.727H814.287L788.037 594.25H796.628L822.878 496.727ZM881.15 582L916.786 546.364L881.15 510.727L875.025 516.852L900.241 541.989H834.934V550.739H900.241L875.025 575.955L881.15 582Z" fill="#030303"/>
<path d="M26.5682 327.432C37.2273 327.432 42.7955 321.705 44.7045 317.727H45.1818V326H54.5682V285.75C54.5682 266.341 39.7727 264.114 31.9773 264.114C22.75 264.114 12.25 267.295 7.47727 278.432L16.3864 281.614C18.4545 277.159 23.3466 272.386 32.2955 272.386C40.9261 272.386 45.1818 276.96 45.1818 284.795V285.114C45.1818 289.648 40.5682 289.25 29.4318 290.682C18.0966 292.153 5.72727 294.659 5.72727 308.659C5.72727 320.591 14.9545 327.432 26.5682 327.432ZM28 319C20.5227 319 15.1136 315.659 15.1136 309.136C15.1136 301.977 21.6364 299.75 28.9545 298.795C32.9318 298.318 43.5909 297.205 45.1818 295.295V303.886C45.1818 311.523 39.1364 319 28 319ZM68.493 326H77.5612V316.614H78.6748C80.743 319.955 84.7203 327.273 96.493 327.273C111.766 327.273 122.425 315.023 122.425 295.614C122.425 276.364 111.766 264.114 96.3339 264.114C84.4021 264.114 80.743 271.432 78.6748 274.614H77.8794V244.545H68.493V326ZM77.7203 295.455C77.7203 281.773 83.7657 272.545 95.2203 272.545C107.152 272.545 113.038 282.568 113.038 295.455C113.038 308.5 106.993 318.841 95.2203 318.841C83.9248 318.841 77.7203 309.295 77.7203 295.455ZM157.121 327.273C170.644 327.273 179.553 319 181.144 308.182H171.757C170.007 314.864 164.439 318.841 157.121 318.841C145.985 318.841 138.826 309.614 138.826 295.455C138.826 281.614 146.144 272.545 157.121 272.545C165.394 272.545 170.326 277.636 171.757 283.205H181.144C179.553 271.75 169.848 264.114 156.962 264.114C140.416 264.114 129.439 277.159 129.439 295.773C129.439 314.068 139.939 327.273 157.121 327.273ZM213.453 327.273C225.226 327.273 229.203 319.955 231.272 316.614H232.385V326H241.453V244.545H232.067V274.614H231.272C229.203 271.432 225.544 264.114 213.613 264.114C198.181 264.114 187.522 276.364 187.522 295.614C187.522 315.023 198.181 327.273 213.453 327.273ZM214.726 318.841C202.953 318.841 196.908 308.5 196.908 295.455C196.908 282.568 202.794 272.545 214.726 272.545C226.181 272.545 232.226 281.773 232.226 295.455C232.226 309.295 226.022 318.841 214.726 318.841ZM281.081 327.273C293.49 327.273 302.559 321.068 305.422 311.841L296.354 309.295C293.968 315.659 288.439 318.841 281.081 318.841C270.064 318.841 262.468 311.722 262.03 298.636H306.377V294.659C306.377 271.909 292.854 264.114 280.127 264.114C263.581 264.114 252.604 277.159 252.604 295.932C252.604 314.705 263.422 327.273 281.081 327.273ZM262.03 290.523C262.667 281.017 269.388 272.545 280.127 272.545C290.309 272.545 296.831 280.182 296.831 290.523H262.03ZM343.38 264.909H329.698V258.705C329.698 252.659 332.243 249.477 338.448 249.477C341.153 249.477 342.743 250.114 343.698 250.432L346.403 242.318C344.971 241.682 342.107 240.727 337.493 240.727C328.743 240.727 320.312 245.977 320.312 256.477V264.909H310.448V272.864H320.312V326H329.698V272.864H343.38V264.909ZM374.198 350.182C388.834 350.182 400.607 343.5 400.607 327.75V264.909H391.539V274.614H390.584C388.516 271.432 384.698 264.114 372.766 264.114C357.334 264.114 346.675 276.364 346.675 295.136C346.675 314.227 357.812 325.045 372.607 325.045C384.539 325.045 388.357 318.045 390.425 314.705H391.221V327.114C391.221 337.295 384.062 341.909 374.198 341.909C363.102 341.909 359.204 336.062 356.698 332.682L349.221 337.932C353.039 344.335 360.556 350.182 374.198 350.182ZM373.88 316.614C362.107 316.614 356.062 307.705 356.062 294.977C356.062 282.568 361.948 272.545 373.88 272.545C385.334 272.545 391.38 281.773 391.38 294.977C391.38 308.5 385.175 316.614 373.88 316.614ZM422.695 289.25C422.695 278.591 429.497 272.545 438.764 272.545C447.593 272.545 452.923 278.114 452.923 287.818V326H462.309V287.182C462.309 271.472 453.957 264.114 441.468 264.114C431.843 264.114 426.354 268.131 423.491 274.455H422.695V244.545H413.309V326H422.695V289.25ZM475.001 326H484.387V264.909H475.001V326ZM479.774 254.727C483.433 254.727 486.455 251.864 486.455 248.364C486.455 244.864 483.433 242 479.774 242C476.115 242 473.092 244.864 473.092 248.364C473.092 251.864 476.115 254.727 479.774 254.727ZM497.099 264.909V330.455C497.099 336.659 494.554 340.159 488.826 340.159H487.076V348.909H488.985C500.758 348.909 506.485 341.75 506.485 330.455V264.909H497.099ZM501.713 254.727C505.372 254.727 508.394 251.864 508.394 248.364C508.394 244.864 505.372 242 501.713 242C498.054 242 495.031 244.864 495.031 248.364C495.031 251.864 498.054 254.727 501.713 254.727ZM519.197 326H528.584V303.131L535.146 297.045L558.015 326H569.947L542.226 291L568.038 264.909H556.424L529.697 292.114H528.584V244.545H519.197V326ZM585.025 244.545H575.639V326H585.025V244.545ZM597.737 326H607.124V287.818C607.124 278.869 613.646 272.545 620.964 272.545C628.084 272.545 633.055 277.199 633.055 284.159V326H642.601V286.227C642.601 278.352 647.533 272.545 656.124 272.545C662.805 272.545 668.533 276.085 668.533 285.114V326H677.919V285.114C677.919 270.756 670.203 264.114 659.305 264.114C650.555 264.114 644.152 268.131 641.01 274.455H640.374C637.351 267.932 632.021 264.114 623.987 264.114C616.033 264.114 610.146 267.932 607.601 274.455H606.805V264.909H597.737V326ZM699.987 289.25C699.987 278.591 706.59 272.545 715.578 272.545C724.288 272.545 729.578 278.233 729.578 287.818V326H738.965V287.182C738.965 271.591 730.652 264.114 718.283 264.114C709.055 264.114 703.328 268.25 700.465 274.455H699.669V264.909H690.601V326H699.987V289.25ZM776.455 327.273C793 327.273 804.137 314.705 804.137 295.773C804.137 276.682 793 264.114 776.455 264.114C759.909 264.114 748.773 276.682 748.773 295.773C748.773 314.705 759.909 327.273 776.455 327.273ZM776.455 318.841C763.887 318.841 758.159 308.023 758.159 295.773C758.159 283.523 763.887 272.545 776.455 272.545C789.023 272.545 794.75 283.523 794.75 295.773C794.75 308.023 789.023 318.841 776.455 318.841ZM813.985 348.909H823.371V316.614H824.166C826.235 319.955 830.212 327.273 841.985 327.273C857.257 327.273 867.916 315.023 867.916 295.614C867.916 276.364 857.257 264.114 841.826 264.114C829.894 264.114 826.235 271.432 824.166 274.614H823.053V264.909H813.985V348.909ZM823.212 295.455C823.212 281.773 829.257 272.545 840.712 272.545C852.644 272.545 858.53 282.568 858.53 295.455C858.53 308.5 852.485 318.841 840.712 318.841C829.416 318.841 823.212 309.295 823.212 295.455ZM928.823 348.909V264.909H919.755V274.614H918.641C916.573 271.432 912.914 264.114 900.982 264.114C885.55 264.114 874.891 276.364 874.891 295.614C874.891 315.023 885.55 327.273 900.823 327.273C912.596 327.273 916.573 319.955 918.641 316.614H919.436V348.909H928.823ZM919.596 295.455C919.596 309.295 913.391 318.841 902.096 318.841C890.323 318.841 884.277 308.5 884.277 295.455C884.277 282.568 890.164 272.545 902.096 272.545C913.55 272.545 919.596 281.773 919.596 295.455ZM8.59091 446H17.9773V407.341C17.9773 399.108 24.5 393.023 33.4091 393.023C35.7557 393.023 37.5057 393.46 38.8182 394.136L42 386.182C40.0909 384.83 37.5852 383.955 34.2045 383.955C26.8068 383.955 20.483 388.091 18.2955 394.136H17.6591V384.909H8.59091V446ZM90.368 398.591C87.4248 389.92 80.8226 384.114 68.7316 384.114C55.8453 384.114 46.2998 391.432 46.2998 401.773C46.2998 410.205 51.3112 415.852 62.5271 418.477L72.7089 420.864C78.8737 422.295 81.7771 425.239 81.7771 429.455C81.7771 434.705 76.2089 439 67.4589 439C59.7828 439 54.9703 435.699 53.2998 429.136L44.3907 431.364C46.5782 441.744 55.1294 447.273 67.618 447.273C81.8169 447.273 91.4816 439.517 91.4816 428.977C91.4816 420.466 86.1521 415.097 75.2544 412.432L66.1862 410.205C58.9476 408.415 55.6862 405.989 55.6862 401.295C55.6862 396.045 61.2544 392.227 68.7316 392.227C76.9248 392.227 80.3055 396.761 81.9362 400.977L90.368 398.591ZM127.699 384.909H114.654V370.273H105.267V384.909H96.04V392.864H105.267V431.045C105.267 441.705 113.858 446.795 121.813 446.795C125.313 446.795 127.54 446.159 128.813 445.682L126.904 437.25C126.108 437.409 124.835 437.727 122.767 437.727C118.631 437.727 114.654 436.455 114.654 428.5V392.864H127.699V384.909ZM175.838 421.023C175.838 432.477 167.088 437.727 160.088 437.727C152.293 437.727 146.725 432 146.725 423.091V384.909H137.338V423.727C137.338 439.318 145.611 446.795 157.066 446.795C166.293 446.795 172.338 441.864 175.202 435.659H175.838V446H185.225V384.909H175.838V421.023ZM247.891 384.909H237.709L220.846 433.591H220.209L203.346 384.909H193.164L215.755 446H225.3L247.891 384.909ZM269.641 446H278.868L292.232 399.068H293.187L306.55 446H315.778L334.391 384.909H324.528L311.323 431.523H310.687L297.8 384.909H287.778L274.732 431.682H274.096L260.891 384.909H251.028L269.641 446ZM349.32 384.909H338.502L357.911 415.455L338.502 446H349.32L363.957 422.295L378.593 446H389.411L369.684 415.455L389.411 384.909H378.593L363.957 409.886L349.32 384.909ZM404.052 469.705C412.643 469.705 418.529 465.25 422.029 455.864L448.279 384.909H438.097L421.234 433.591H420.597L403.734 384.909H393.552L416.143 446.318L414.075 452.045C410.774 461.193 406.438 462.068 399.597 460.318L397.211 468.591C398.166 469.068 400.87 469.705 404.052 469.705ZM454.438 446H502.325V437.25H467.484V436.614L501.211 392.386V384.909H455.552V393.659H489.12V394.295L454.438 438.841V446ZM542.663 405.273C542.663 425.318 548.072 442.023 557.777 456.182H566.049C558.413 445.682 552.368 424.205 552.368 405.273C552.368 386.341 558.413 364.864 566.049 354.364H557.777C548.072 368.523 542.663 385.227 542.663 405.273ZM595.466 405.273C595.466 385.227 590.057 368.523 580.352 354.364H572.079C579.716 364.864 585.761 386.341 585.761 405.273C585.761 424.205 579.716 445.682 572.079 456.182H580.352C590.057 442.023 595.466 425.318 595.466 405.273ZM661.607 447.114C669.084 447.114 677.436 444.489 682.726 439.08L688.493 446H699.788L688.533 432.278C691.595 428.341 695.016 421.739 695.016 410.364H685.948C685.948 415.932 684.675 420.864 682.567 424.96L664.868 403.364L670.834 398.909C677.516 393.977 681.652 388.568 681.652 380.773C681.652 371.705 674.175 363.75 661.925 363.75C649.993 363.75 642.198 371.227 642.198 382.205C642.198 389.443 646.135 395.011 651.743 401.773C642.237 408.375 635.675 414.5 635.675 424.364C635.675 437.568 645.538 447.114 661.607 447.114ZM677.118 432.278C672.624 436.494 666.936 438.841 661.288 438.841C651.584 438.841 645.22 432 645.22 424.364C645.22 422.136 647.288 416.409 654.607 411L657.629 408.773L677.118 432.278ZM659.101 396.364C655.124 391.511 651.743 386.898 651.743 382.364C651.743 377.273 656.038 371.864 662.243 371.864C668.129 371.864 672.107 376.636 672.107 380.773C672.107 386.341 669.084 389.364 664.47 392.386L659.101 396.364ZM744.969 423.091H754.514V422.614C754.674 412.75 757.219 408.455 764.219 404.08C771.219 399.824 775.355 393.699 775.355 384.909C775.355 372.5 766.287 363.432 752.287 363.432C739.401 363.432 729.179 371.386 728.583 384.909H738.605C739.202 375.523 745.764 371.705 752.287 371.705C759.764 371.705 765.81 376.636 765.81 384.432C765.81 390.756 762.191 395.29 757.537 398.114C749.742 402.847 745.088 407.46 744.969 422.614V423.091ZM750.06 446.636C753.997 446.636 757.219 443.415 757.219 439.477C757.219 435.54 753.997 432.318 750.06 432.318C746.122 432.318 742.901 435.54 742.901 439.477C742.901 443.415 746.122 446.636 750.06 446.636ZM797.414 364.545H786.596L787.391 423.091H796.618L797.414 364.545ZM792.005 446.636C795.942 446.636 799.164 443.415 799.164 439.477C799.164 435.54 795.942 432.318 792.005 432.318C788.067 432.318 784.846 435.54 784.846 439.477C784.846 443.415 788.067 446.636 792.005 446.636ZM885.648 455.545C893.762 455.545 904.103 453.159 909.035 451.091L906.807 443.773C903.944 444.727 894.717 447.909 885.967 447.909C858.762 447.909 844.285 432.636 844.285 405.591C844.285 379.023 859.08 363.114 884.057 363.114C909.353 363.114 921.285 380.932 921.285 398.75C921.285 416.886 919.376 425 911.262 425C906.489 425 903.944 421.023 903.944 416.568V380.614H895.512V385.068H895.035C893.921 381.568 887.717 378.545 879.762 379.341C867.83 380.614 858.762 390.477 858.762 404.795C858.762 419.909 865.921 431.523 879.762 432C888.83 432.318 893.603 427.864 895.512 423.25H895.989C896.944 430.091 905.535 432.477 911.103 432.477C927.967 432.477 929.557 414.341 929.557 398.909C929.557 377.114 914.285 355.636 884.535 355.636C853.83 355.636 835.535 374.25 835.535 405.273C835.535 437.409 853.194 455.545 885.648 455.545ZM881.035 423.886C870.694 423.886 867.035 414.5 867.035 404.318C867.035 395.091 872.285 387.136 881.353 387.136C890.898 387.136 895.989 390.955 895.989 404.318C895.989 417.523 891.694 423.886 881.035 423.886Z" fill="#030303"/>
</g>
<defs>
<clipPath id="clip0">
<rect width="960" height="610" fill="white"/>
</clipPath>
</defs>
</svg>
