<svg width="889" height="1035" viewBox="0 0 889 1035" fill="none" xmlns="http://www.w3.org/2000/svg">
<path d="M0.407715 118.67L41.617 1.599H67.8021L109.076 118.67H86.4322L76.7737 89.802H32.7742L23.1158 118.67H0.407715ZM71.0001 72.7709L55.171 25.6056H54.2481L38.419 72.7709H71.0001Z" fill="#F02D09"/>
<path d="M117.092 1.599H161.907C187.288 1.599 199.865 14.4769 199.865 31.9587C199.865 46.1888 190.829 54.1945 179.4 56.8774V57.9935C191.859 58.6159 204.437 69.0256 204.437 86.7434C204.437 104.987 191.291 118.638 164.483 118.638H117.092V1.599ZM159.278 51.3936C170.31 51.3936 178.659 44.9546 178.659 34.6952C178.659 25.67 172.22 19.0915 159.74 19.0915H138.276V51.3936H159.278ZM161.103 100.952C176.481 100.952 182.888 94.438 182.888 85.123C182.888 74.6597 174.775 66.6539 161.682 66.6539H138.298V100.995L161.103 100.952Z" fill="#F02D09"/>
<path d="M294.314 41.102C291.856 27.1509 280.717 19.0378 266.476 19.0378C247.331 19.0378 233.831 33.7294 233.831 60.1398C233.831 86.9688 247.438 101.242 266.423 101.242C280.427 101.242 291.631 93.5258 294.325 79.7787L315.702 79.8967C312.483 102.251 293.981 120.258 266.144 120.258C235.279 120.258 212.486 97.9043 212.486 60.1613C212.486 22.4183 235.516 0.0643921 266.144 0.0643921C292.093 0.0643921 312.107 15.153 315.702 41.1664L294.314 41.102Z" fill="#F02D09"/>
<path d="M327.775 118.67V1.599H368.244C403.111 1.599 424.263 23.5558 424.263 60.0218C424.263 96.4877 403.111 118.67 367.439 118.67H327.775ZM366.409 100.33C390.823 100.33 403.186 86.9688 403.186 60.0218C403.186 33.0748 390.78 19.95 366.999 19.95H348.981V100.33H366.409Z" fill="#F02D09"/>
<path d="M436.969 1.599H513.11V19.3598H458.175V51.1575H509.171V68.9397H458.175V100.92H513.571V118.691H436.969V1.599Z" fill="#F02D09"/>
<path d="M527.361 1.599H602.364V19.3598H548.567V51.1575H597.213V68.9397H548.567V118.67H527.361V1.599Z" fill="#F02D09"/>
<path d="M665.144 19.0378C646.224 19.0378 632.563 33.665 632.563 60.0218C632.563 86.5503 645.988 101.242 665.595 101.242C683.205 101.242 694.355 90.6605 694.699 73.9729H667.72V57.3926H715.218V71.4617C715.218 101.639 694.463 120.28 665.487 120.28C633.185 120.28 611.239 97.2926 611.239 60.2472C611.239 22.5256 634.216 0 664.897 0C690.793 0 710.689 16.0115 714.263 38.9879H692.638C688.872 26.5822 679.267 19.0378 665.144 19.0378Z" fill="#F02D09"/>
<path d="M725.348 60.2471C725.348 22.5793 748.904 0.0429077 779.489 0.0429077C805.384 0.0429077 825.957 15.9901 829.509 39.0308H807.896C804.354 26.5285 793.816 19.0378 779.768 19.0378C760.848 19.0378 746.672 33.665 746.672 60.0218C746.672 86.5503 760.161 101.242 779.714 101.242C797.604 101.242 808.979 90.0917 809.495 73.9728H781.829V57.3925H830.367V118.67H815.161L813.615 104.955H812.982C804.751 114.785 794.352 120.237 779.596 120.237C747.359 120.237 725.348 97.2926 725.348 60.2471Z" fill="#F02D09"/>
<path d="M8.00562 148.622H29.2112V198.18H83.4594V148.622H104.729V265.693H83.4594V215.963H29.2112V265.693H8.00562V148.622Z" fill="#F02D09"/>
<path d="M141.56 265.693H120.344V148.622H141.56V265.693Z" fill="#F02D09"/>
<path d="M224.398 148.622V230.944C224.344 253.577 209.202 267.303 186.612 267.303C166.093 267.303 150.317 256.206 150.317 234.603H171.384C171.555 244.09 177.898 249.864 187.384 249.864C197.558 249.864 203.278 243.285 203.331 230.944V148.622H224.398Z" fill="#F02D09"/>
<path d="M240.066 148.622H261.271V202.419H262.699L308.383 148.622H334.278L289.002 201.207L334.675 265.746H309.134L274.203 215.566L261.228 230.879V265.746H240.066V148.622Z" fill="#F02D09"/>
<path d="M341.565 148.622H362.771V247.943H414.336V265.714H341.565V148.622Z" fill="#F02D09"/>
<path d="M451.22 148.622L485.969 233.455H487.343L522.103 148.622H548.062V265.693H527.672V185.27H526.599L494.243 265.36H479.058L446.702 185.099H445.629V265.693H425.239V148.622H451.22Z" fill="#F02D09"/>
<path d="M662.118 265.693H643.252L588.08 185.957H587.115V265.693H565.909V148.622H584.882L639.989 228.422H641.062V148.622H662.161L662.118 265.693Z" fill="#F02D09"/>
<path d="M728.557 267.26C697.8 267.26 674.76 244.906 674.76 207.163C674.76 169.42 697.8 147.066 728.557 147.066C759.314 147.066 782.344 169.355 782.344 207.163C782.344 244.97 759.25 267.26 728.557 267.26ZM728.557 166.018C709.519 166.018 696.083 180.473 696.083 207.12C696.083 233.766 709.519 248.222 728.557 248.222C747.595 248.222 761.02 233.756 761.02 207.12C761.02 180.484 747.67 166.061 728.557 166.061V166.018Z" fill="#F02D09"/>
<path d="M795.05 148.622H838.953C865.878 148.622 880.226 165.03 880.226 187.384C880.226 209.921 865.707 226.136 838.663 226.136H816.255V265.693H795.05V148.622ZM835.83 208.719C851.605 208.719 858.634 199.854 858.634 187.395C858.634 174.936 851.584 166.383 835.669 166.383H816.255V208.751L835.83 208.719Z" fill="#F02D09"/>
<path d="M93.5793 401.973L109.816 422.782H89.2438L79.5853 410.494C72.9688 413.058 65.9261 414.343 58.8304 414.282C28.0737 414.282 5.0437 391.971 5.0437 354.185C5.0437 316.4 28.0844 294.089 58.8412 294.089C89.5979 294.089 112.628 316.378 112.628 354.185C112.617 375.391 105.363 391.682 93.5793 401.973ZM70.8284 373.395L80.7765 386.273C87.4087 379.351 91.2935 368.544 91.2935 354.143C91.2935 327.496 77.9219 313.041 58.8304 313.041C39.7389 313.041 26.3566 327.539 26.3566 354.185C26.3566 380.832 39.7926 395.287 58.8304 395.287C61.727 395.309 64.6137 394.948 67.4157 394.214L51.6188 373.395H70.8284Z" fill="#F02D09"/>
<path d="M125.441 295.645H169.344C196.173 295.645 210.618 310.733 210.618 333.087C210.618 348.981 203.353 360.753 189.573 366.355L214.9 412.769H191.237L168.25 369.843H146.701V412.769H125.441V295.645ZM166.221 352.243C181.933 352.243 189.026 345.547 189.026 333.087C189.026 320.628 181.911 313.405 166.082 313.405H146.701V352.286L166.221 352.243Z" fill="#F02D09"/>
<path d="M264.308 312C251.044 312 243.156 318.439 243.092 327.26C242.985 337.036 253.384 341.093 262.988 343.357L273.967 346.105C291.577 350.279 308.308 359.541 308.383 379.834C308.319 400.471 292.028 414.476 263.965 414.476C236.696 414.476 219.375 401.383 218.517 378.117H239.379C240.237 390.405 250.529 396.361 263.793 396.361C277.626 396.361 287.113 389.675 287.167 379.673C287.113 370.583 278.764 366.634 266.133 363.436L252.815 360.002C233.552 355.033 221.597 345.364 221.597 328.558C221.597 307.868 240.012 294.035 264.587 294.035C289.517 294.035 306.376 308.04 306.784 327.818H286.394C285.289 317.88 276.939 312 264.308 312Z" fill="#F02D09"/>
<path d="M314.682 295.645H408.047V313.405H371.903V412.694H350.869V313.405H314.682V295.645Z" fill="#F02D09"/>
<path d="M513.635 295.645V373.052C513.635 399.569 493.159 414.497 466.126 414.497C439.094 414.497 418.618 399.569 418.618 373.052V295.645H439.834V372.536C439.834 386.992 451.435 395.395 466.126 395.395C480.818 395.395 492.483 386.992 492.483 372.536V295.645H513.635Z" fill="#F02D09"/>
<path d="M575.439 387.797H576.641L607.086 295.645H630.374L589.1 412.716H562.915L521.706 295.645H544.972L575.439 387.797Z" fill="#F02D09"/>
<path d="M629.987 295.645H652.792L673.89 381.68H674.963L697.5 295.645H718.255L740.791 381.733H741.864L762.952 295.645H785.767L752.725 412.716H731.798L708.36 330.576H707.448L683.956 412.716H663.03L629.987 295.645Z" fill="#F02D09"/>
<path d="M836.538 338.517H837.45L863.346 295.645H887.524L851.455 354.185L888.104 412.716H863.571L837.504 370.133H836.592L810.525 412.716H786.057L822.984 354.185L786.497 295.645H810.793L836.538 338.517Z" fill="#F02D09"/>
<path d="M23.9529 442.667L52.5955 494.458H53.7438L82.3757 442.667H106.329L63.7457 516.072V559.738H42.6044V516.072L0 442.667H23.9529Z" fill="#F02D09"/>
<path d="M111.834 546.539L171.856 460.428H111.49V442.667H198.148V455.878L138.18 541.988H198.491V559.76H111.834V546.539Z" fill="#F02D09"/>
<path d="M258.127 559.738H236.921V463.304H236.234L208.847 480.818V461.362L237.919 442.667H258.095L258.127 559.738Z" fill="#F02D09"/>
<path d="M280.491 544.424L321.143 504.578C332.69 492.859 338.635 485.884 338.635 476.107C338.635 465.075 330.34 458.271 319.19 458.271C307.535 458.271 299.991 465.783 299.991 477.706H279.772C279.772 455.47 296.235 441.068 319.479 441.068C343.035 441.068 358.982 455.417 358.982 475.023C358.982 488.234 352.694 498.858 329.943 520.697L309.821 541.226V541.988H360.807V559.706H280.491V544.424Z" fill="#F02D09"/>
<path d="M372.193 527.898H393.656C394.171 537.449 403.315 543.566 415.044 543.566C427.557 543.566 436.508 536.472 436.508 526.127C436.572 515.556 427.761 508.119 412.962 508.119H402.606V491.775H412.962C425.078 491.775 433.535 484.971 433.481 474.733C433.481 464.903 426.28 458.271 415.356 458.271C404.431 458.271 395.406 464.388 395.062 474.229H374.672C375.123 454.612 392.733 441.068 415.452 441.068C438.836 441.068 454.086 455.642 453.979 473.478C454.043 486.624 445.522 496.014 432.827 498.804V499.717C449.235 502.067 458.379 512.594 458.325 527.222C458.379 547 440.146 561.348 415.109 561.348C390.437 561.305 372.773 547.687 372.193 527.898Z" fill="#F02D09"/>
<path d="M468.477 521.158L518.153 442.667H544.564V520.59H559.588V538.018H544.564V559.738H524.324V538.018H468.52L468.477 521.158ZM524.56 466.674H523.637L490.198 519.667V520.59H524.539L524.56 466.674Z" fill="#F02D09"/>
<path d="M570.599 527.898H591.182C591.922 537.556 600.443 544.199 611.014 544.199C623.538 544.199 632.574 534.873 632.477 521.781C632.541 508.527 623.28 499.03 610.413 498.976C603.384 498.922 595.947 501.831 592.008 506.177L572.852 503.033L578.969 442.667H646.89V460.428H596.601L593.221 491.475H593.908C598.2 486.334 606.657 482.557 616.144 482.557C637.414 482.557 653.082 498.794 653.082 521.319C653.082 544.585 635.815 561.391 611.057 561.391C588.198 561.305 571.221 547.354 570.599 527.898Z" fill="#F02D09"/>
<path d="M662.89 504.524C662.89 464.163 680.673 440.725 708.789 440.725C730.918 440.725 746.178 455.019 748.7 474.229H727.859C725.713 464.968 718.888 459.076 708.822 459.076C692.595 459.076 683.559 474.1 683.506 499.03H684.354C689.955 488.974 701.052 482.857 713.629 482.857C734.148 482.857 749.924 498.858 749.87 520.987C749.87 544.135 732.946 561.52 707.684 561.348C685.158 561.23 662.89 547.451 662.89 504.524ZM729.201 521.437C729.201 508.871 720.165 499.03 707.738 499.03C695.31 499.03 685.845 509.321 685.738 521.566C685.631 533.811 694.935 544.102 707.459 544.102C719.982 544.102 729.287 534.251 729.233 521.437H729.201Z" fill="#F02D09"/>
<path d="M815.741 461.19V460.428H757.94V442.667H837.687V460.793L787.956 559.738H765.914L815.741 461.19Z" fill="#F02D09"/>
<path d="M4.91499 675.382C4.88967 668.414 7.33331 661.662 11.8124 656.325C16.2915 650.987 22.5165 647.409 29.383 646.224V645.43C17.3207 642.801 9.20763 632.134 9.26128 619.47C9.26128 601.409 25.7879 588.091 48.4745 588.091C71.0109 588.091 87.5804 601.463 87.6341 619.47C87.6341 632.166 79.3493 642.801 67.5124 645.43V646.224C74.35 647.468 80.5374 651.064 85.0037 656.389C89.4701 661.713 91.9342 668.432 91.9697 675.382C91.9697 694.377 73.8011 708.328 48.4745 708.328C22.9226 708.328 4.86133 694.377 4.91499 675.382ZM70.206 673.901C70.088 662.751 60.9446 654.745 48.4745 654.745C36.0044 654.745 26.6465 662.686 26.7538 673.901C26.6465 684.697 35.221 692.016 48.4745 692.016C61.728 692.016 70.088 684.718 70.206 673.901ZM66.9865 621.477C66.8792 611.411 59.3886 604.671 48.4638 604.671C37.539 604.671 29.8337 611.411 29.9411 621.477C29.8337 631.651 37.6034 638.648 48.4638 638.648C59.3242 638.648 66.8899 631.704 66.9973 621.477H66.9865Z" fill="#F02D09"/>
<path d="M188.779 644.625C188.715 684.933 170.943 708.371 142.87 708.371C120.687 708.371 105.373 694.248 102.97 674.867H123.832C125.978 684.182 132.75 690.02 142.87 690.02C159.053 690.02 168.143 675.092 168.196 650.055H167.391C161.736 660.122 150.757 666.239 138.126 666.239C117.607 666.239 101.832 650.291 101.832 628.109C101.832 605.015 118.691 587.63 144.072 587.748C166.544 587.919 188.715 601.699 188.779 644.625ZM122.404 627.648C122.404 640.279 131.44 650.12 143.868 650.12C156.295 650.12 165.825 639.71 165.825 627.583C165.825 615.457 156.617 604.95 144.093 604.95C131.569 604.95 122.404 614.899 122.404 627.648V627.648Z" fill="#F02D09"/>
<path d="M198.502 648.338C198.567 610.102 215.49 588.091 243.575 588.091C271.659 588.091 288.648 610.155 288.648 648.338C288.648 686.757 271.788 709.058 243.575 708.993C215.362 708.929 198.502 686.704 198.502 648.338ZM267.335 648.338C267.335 620.436 258.191 605.755 243.607 605.755C229.023 605.755 219.998 620.447 219.944 648.338C219.89 676.466 229.034 691.157 243.607 691.157C258.181 691.157 267.335 676.466 267.335 648.338V648.338Z" fill="#F02D09"/>
<path d="M296.385 682.132C296.385 662.354 312.676 657.256 329.717 655.432C345.203 653.779 351.438 653.49 351.438 647.544V647.158C351.438 638.573 346.18 633.615 336.575 633.615C326.455 633.615 320.628 638.755 318.567 644.754L299.25 642.018C303.833 626.006 318.009 617.775 336.467 617.775C353.22 617.775 372.139 624.75 372.139 647.963V706.718H352.232V694.71H351.545C347.779 702.082 339.547 708.543 325.79 708.543C309.016 708.543 296.385 699.389 296.385 682.132ZM351.492 675.264V664.919C348.809 667.065 337.948 668.471 332.518 669.211C323.257 670.521 316.335 673.837 316.335 681.789C316.335 689.387 322.516 693.336 331.145 693.336C343.604 693.304 351.492 685.04 351.492 675.264V675.264Z" fill="#F02D09"/>
<path d="M381.465 682.132C381.465 662.354 397.756 657.256 414.787 655.432C430.283 653.779 436.507 653.49 436.507 647.544V647.158C436.507 638.573 431.249 633.615 421.644 633.615C411.535 633.615 405.697 638.755 403.637 644.754L384.32 642.017C388.891 626.006 403.068 617.775 421.537 617.775C438.289 617.775 457.209 624.75 457.209 647.963V706.718H437.312V694.71H436.625C432.848 702.082 424.617 708.543 410.87 708.543C394.096 708.543 381.465 699.389 381.465 682.132ZM436.572 675.264V664.919C433.878 667.065 423.018 668.471 417.588 669.211C408.326 670.521 401.415 673.837 401.415 681.789C401.415 689.387 407.586 693.336 416.214 693.336C428.684 693.304 436.572 685.04 436.572 675.264ZM402.499 590.431C402.62 585.235 404.768 580.293 408.485 576.661C412.203 573.03 417.193 570.996 422.39 570.996C427.587 570.996 432.577 573.03 436.295 576.661C440.012 580.293 442.16 585.235 442.281 590.431C442.281 601.012 433.599 609.415 422.449 609.415C411.299 609.415 402.499 601.012 402.499 590.431V590.431ZM432.054 590.431C431.803 588.058 430.683 585.863 428.909 584.267C427.136 582.672 424.835 581.789 422.449 581.789C420.063 581.789 417.762 582.672 415.989 584.267C414.216 585.863 413.095 588.058 412.844 590.431C413.095 592.803 414.216 594.998 415.989 596.594C417.762 598.19 420.063 599.072 422.449 599.072C424.835 599.072 427.136 598.19 428.909 596.594C430.683 594.998 431.803 592.803 432.054 590.431V590.431Z" fill="#F02D09"/>
<path d="M471.568 589.69H492.258V633.475H493.117C496.261 627.133 502.721 617.818 518.218 617.818C538.511 617.818 554.458 633.711 554.458 662.976C554.458 691.952 538.962 708.306 518.271 708.306C503.183 708.306 496.379 699.335 493.117 692.928H491.915V706.761H471.525L471.568 589.69ZM512.498 691.329C526.159 691.329 533.36 679.331 533.36 662.858C533.36 646.385 526.277 634.795 512.498 634.795C499.18 634.795 491.861 645.827 491.861 662.858C491.861 679.889 499.287 691.329 512.498 691.329V691.329Z" fill="#F02D09"/>
<path d="M560.94 663.255C560.94 636.426 577.177 617.871 602.901 617.871C624.364 617.871 639.195 630.395 640.633 649.422H620.833C619.234 640.966 613.117 634.559 603.169 634.559C590.431 634.559 581.91 645.194 581.91 662.912C581.91 680.866 590.259 691.673 603.169 691.673C612.259 691.673 619.063 686.242 620.833 676.809H640.623C639.131 695.439 625.072 708.532 602.998 708.532C576.759 708.478 560.94 689.784 560.94 663.255Z" fill="#F02D09"/>
<path d="M646.632 662.976C646.632 633.711 662.579 617.818 682.873 617.818C698.369 617.818 704.83 627.133 707.974 633.475H708.822V589.69H729.577V706.761H709.187V692.928H707.963C704.744 699.367 697.897 708.306 682.808 708.306C662.118 708.328 646.632 691.909 646.632 662.976ZM709.229 662.858C709.229 645.827 701.911 634.795 688.593 634.795C674.813 634.795 667.72 646.514 667.72 662.858C667.72 679.202 674.931 691.329 688.593 691.329C701.793 691.329 709.229 679.9 709.229 662.858V662.858Z" fill="#F02D09"/>
<path d="M740.512 663.373C740.512 636.287 756.921 617.818 782.065 617.818C803.678 617.818 822.201 631.361 822.201 662.182V668.524H761.031C761.203 683.549 770.067 692.359 783.439 692.359C792.357 692.359 799.214 688.475 802.015 681.038L821.332 683.184C817.672 698.444 803.603 708.446 783.149 708.446C756.685 708.478 740.512 690.932 740.512 663.373ZM802.358 654.573C802.251 642.629 794.245 633.937 782.355 633.937C770.003 633.937 761.718 643.37 761.085 654.573H802.358Z" fill="#F02D09"/>
<path d="M53.2502 781.99H34.6524V853.784H13.5433V781.99H0.311279V765.978H13.5433V757.693C13.5433 739.975 25.9598 731.229 41.5313 731.229C46.9874 731.207 52.4151 732.014 57.6287 733.622L53.3361 749.634C50.785 748.836 48.1317 748.414 45.4591 748.378C37.5928 748.378 34.7275 752.21 34.7275 759.11V766.021H53.2502V781.99Z" fill="#F02D09"/>
<path d="M56.652 866.361L75.6576 861.854C78.2225 866.651 83.8244 872.586 96.5413 872.586C108.55 872.586 117.296 867.22 117.296 854.685V838.051H116.223C113.004 844.49 105.792 852.571 90.4672 852.571C69.8196 852.571 53.5505 838.287 53.5505 809.645C53.5505 780.777 69.8196 764.883 90.5209 764.883C106.318 764.883 113.057 774.198 116.277 780.541H117.446V765.978H138.266V855.222C138.266 877.34 120.419 888.2 96.2193 888.2C73.3825 888.2 60.5046 878.316 56.652 866.361ZM117.414 809.484C117.414 792.85 109.902 781.818 96.3589 781.818C82.3112 781.818 75.0781 793.537 75.0781 809.484C75.0781 825.667 82.4292 836.313 96.3589 836.313C109.827 836.302 117.414 826.236 117.414 809.484V809.484Z" fill="#F02D09"/>
<path d="M171.823 853.784H150.714V736.713H171.383V780.906H172.457C176.588 770.958 185.334 764.808 199.103 764.808C217.701 764.808 229.946 776.613 229.946 797.851V853.752H208.794V801.081C208.794 789.276 202.269 782.333 191.183 782.333C179.872 782.333 171.866 789.652 171.866 802.337L171.823 853.784Z" fill="#F02D09"/>
<path d="M240.527 742.315C240.527 736.091 246.011 731.057 252.772 731.057C259.533 731.057 264.963 736.091 264.963 742.315C264.963 748.539 259.479 753.519 252.772 753.519C246.065 753.519 240.527 748.486 240.527 742.315ZM242.212 765.978H263.321V853.784H242.212V765.978Z" fill="#F02D09"/>
<path d="M296.879 765.978V858.645C296.879 877.63 285.503 886.891 265.446 886.548C264.222 886.483 262.999 886.548 261.421 886.429V869.57C262.591 869.57 263.407 869.677 264.448 869.677C272.561 869.677 275.77 865.739 275.77 858.366V765.978H296.879ZM274.01 742.315C274.01 736.091 279.493 731.057 286.265 731.057C293.037 731.057 298.445 736.091 298.445 742.315C298.445 748.539 292.962 753.519 286.265 753.519C279.569 753.519 274.01 748.486 274.01 742.315V742.315Z" fill="#F02D09"/>
<path d="M309.37 736.713H330.479V801.253H331.939L364.134 765.978H388.816L354.089 803.839L390.823 853.741H365.625L338.217 816.18L330.522 824.24V853.73H309.37V736.713Z" fill="#F02D09"/>
<path d="M414.69 853.784H393.581V736.713H414.69V853.784Z" fill="#F02D09"/>
<path d="M427.182 765.978H447.357V780.906H448.43C452.165 770.904 461.136 764.808 473.113 764.808C485.089 764.808 493.868 770.925 497.313 780.906H498.246C502.206 771.129 512.122 764.808 525.075 764.808C541.516 764.808 553.063 775.207 553.063 794.857V853.795H531.965V798.055C531.965 787.194 525.204 782.279 516.694 782.279C506.488 782.279 500.478 789.137 500.478 799.021V853.752H479.777V797.196C479.777 788.16 473.66 782.279 464.753 782.279C455.663 782.279 448.312 789.588 448.312 800.394V853.784H427.182V765.978Z" fill="#F02D09"/>
<path d="M586.503 853.784H565.394V765.978H585.623V780.906H586.696C590.785 771.129 599.992 764.808 613.407 764.808C631.897 764.808 644.142 776.817 644.078 797.851V853.752H622.883V801.081C622.883 789.362 616.358 782.333 605.455 782.333C594.315 782.333 586.503 789.652 586.503 802.337V853.784Z" fill="#F02D09"/>
<path d="M652.459 810.278C652.459 783.073 669.136 764.894 695.386 764.894C721.635 764.894 738.312 783.073 738.312 810.278C738.312 837.483 721.635 855.555 695.386 855.555C669.136 855.555 652.459 837.386 652.459 810.278ZM716.849 810.224C716.849 794.127 709.734 781.303 695.45 781.303C680.93 781.303 673.815 794.181 673.815 810.224C673.815 826.268 680.93 838.985 695.45 838.985C709.777 838.931 716.892 826.236 716.892 810.171L716.849 810.224Z" fill="#F02D09"/>
<path d="M746.94 765.978H767.695V780.498H768.919C772.138 774.156 778.717 764.84 794.524 764.84C815.215 764.84 831.484 780.734 831.484 809.999C831.484 838.974 815.687 855.329 794.578 855.329C779.178 855.329 772.246 846.358 768.919 839.951H768.06V886.719H746.94V765.978ZM788.686 838.352C802.637 838.352 809.967 826.354 809.967 809.881C809.967 793.408 802.745 781.818 788.686 781.818C775.1 781.818 767.642 792.85 767.642 809.881C767.642 826.912 775.218 838.352 788.686 838.352V838.352Z" fill="#F02D09"/>
<path d="M67.0724 1033.74V986.974H66.2139C62.8871 993.413 55.9437 1002.35 40.5546 1002.35C19.4456 1002.35 3.63794 985.954 3.63794 957.022C3.63794 927.757 19.907 911.863 40.6083 911.863C56.4159 911.863 63.0051 921.178 66.2139 927.521H67.4373V913.001H88.1814V1033.74H67.0724ZM46.4355 928.841C32.3771 928.841 25.1441 940.56 25.1441 956.904C25.1441 973.248 32.4952 985.375 46.4355 985.375C59.9037 985.375 67.4802 973.946 67.4802 956.904C67.4802 939.862 60.0217 928.841 46.4355 928.841Z" fill="#F02D09"/>
<path d="M100.673 913.001H121.138V927.639H122.072C125.291 917.465 133.876 911.745 144.168 911.745C146.707 911.753 149.243 911.944 151.755 912.314V931.352C148.548 930.566 145.259 930.166 141.957 930.161C130.356 930.161 121.782 938.049 121.782 949.188V1000.81H100.673V913.001Z" fill="#F02D09"/>
<path d="M208.15 938.274C206.519 932.5 201.432 927.252 191.656 927.252C182.845 927.252 176.138 931.373 176.202 937.319C176.138 942.405 179.754 945.485 188.855 947.492L204.126 950.712C221.039 954.318 229.259 961.98 229.323 974.493C229.259 991.127 213.462 1002.5 191.065 1002.5C169.087 1002.5 155.265 992.962 152.646 976.843L173.219 974.89C175.032 982.788 181.332 986.899 191.012 986.899C201.035 986.899 207.689 982.381 207.689 976.382C207.689 971.413 203.836 968.151 195.616 966.38L180.334 963.236C163.163 959.748 155.093 951.281 155.147 938.478C155.093 922.241 169.785 911.842 191.355 911.842C212.357 911.842 224.484 921.329 227.392 936.192L208.15 938.274Z" fill="#F02D09"/>
<path d="M282.284 929.013H264.609V974.396C264.609 982.746 268.901 984.581 274.171 984.581C276.256 984.557 278.33 984.287 280.352 983.776L283.915 999.959C279.894 1001.24 275.708 1001.93 271.488 1002.01C255.626 1002.47 243.382 994.357 243.5 977.831V929.013H230.793V913.001H243.5V891.967H264.609V913.001H282.284V929.013Z" fill="#F02D09"/>
<path d="M347.832 913.001H368.941V1000.81H348.455V985.203H347.521C343.443 995.044 333.999 1001.96 320.585 1001.96C302.974 1001.96 290.729 990.011 290.729 968.913V913.001H311.86V965.715C311.86 976.865 318.621 983.894 328.773 983.894C338.099 983.894 347.832 977.262 347.832 963.879V913.001Z" fill="#F02D09"/>
<path d="M429.543 1000.81H406.212L374.318 913.001H396.854L417.437 978.228H418.371L439.008 913.001H461.458L429.543 1000.81Z" fill="#F02D09"/>
<path d="M459.988 913.001H481.526L497.27 974.74H498.085L514.183 913.001H535.463L551.561 974.396H552.441L567.948 913.001H589.518L564.16 1000.81H542.149L525.354 941.472H524.131L507.336 1000.81H485.293L459.988 913.001Z" fill="#F02D09"/>
<path d="M630.438 945.421L648.81 913.001H671.143L644.142 956.904L671.615 1000.81H649.39L630.438 969.202L611.668 1000.81H589.271L616.562 956.904L589.98 913.001H612.366L630.438 945.421Z" fill="#F02D09"/>
<path d="M677.335 1032.66L682.207 1016.08C691.415 1018.71 697.543 1017.9 701.524 1008.24L703.671 1002.64L671.154 913.001H693.551L714.187 979.322H715.121L735.865 913.001H758.316L722.118 1012.25C717.106 1026.08 706.954 1035 690.632 1035C686.093 1035.05 681.584 1034.25 677.335 1032.66V1032.66Z" fill="#F02D09"/>
<path d="M762.48 987.661L808.626 930.901V930.161H763.993V912.99H834.499V927.113L790.5 982.917V983.658H835.98V1000.83H762.48V987.661Z" fill="#F02D09"/>
<path d="M846.873 989.496C846.891 987.833 847.238 986.191 847.893 984.663C848.548 983.135 849.499 981.752 850.691 980.593C851.883 979.434 853.292 978.522 854.838 977.91C856.383 977.298 858.035 976.997 859.697 977.026C863.019 977.026 866.204 978.345 868.553 980.694C870.901 983.042 872.221 986.228 872.221 989.549C872.221 992.871 870.901 996.056 868.553 998.405C866.204 1000.75 863.019 1002.07 859.697 1002.07C858.026 1002.1 856.367 1001.8 854.815 1001.18C853.263 1000.56 851.849 999.635 850.656 998.465C849.463 997.295 848.514 995.899 847.865 994.36C847.216 992.82 846.878 991.167 846.873 989.496Z" fill="#F02D09"/>
</svg>
