<svg width="888" height="1018" viewBox="0 0 888 1018" fill="none" xmlns="http://www.w3.org/2000/svg">
<path d="M0.506348 116.634L40.228 1.57153H71.6278L111.297 116.634H85.1707L76.6378 90.4021H35.1125L26.5796 116.634H0.506348ZM70.5097 71.4062L56.3551 27.8663H55.4585L41.2933 71.4062H70.5097Z" fill="#020202"/>
<path d="M117.667 1.57153H163.739C189.137 1.57153 201.952 13.8171 201.952 31.1044C201.952 44.6473 193.124 53.138 181.163 55.8276V56.9562C194.252 57.5679 206.477 67.8517 206.477 84.8753C206.477 103.196 192.765 116.676 166.861 116.676H117.667V1.57153ZM160.037 49.7206C169.983 49.7206 177.398 44.2149 177.398 35.1124C177.398 26.801 171.27 21.232 160.522 21.232H142V49.7101L160.037 49.7206ZM161.83 96.7411C175.425 96.7411 181.332 91.0666 181.332 82.4177C181.332 72.925 174.075 66.1852 162.346 66.1852H142V96.7728L161.83 96.7411Z" fill="#020202"/>
<path d="M291.753 41.8522C289.897 29.1953 280.288 21.5168 266.977 21.5168C249.162 21.5168 237.444 35.1652 237.444 59.0973C237.444 83.7151 249.299 96.6884 266.777 96.6884C279.75 96.6884 289.422 89.6111 291.721 77.3022L316.328 77.4182C313.692 98.5975 295.877 118.205 266.386 118.205C235.588 118.205 212.784 96.6357 212.784 59.1395C212.784 21.6433 235.989 0.0738136 266.386 0.0738136C293.04 -1.847e-05 313.164 15.2832 316.328 41.8522H291.753Z" fill="#020202"/>
<path d="M326.443 116.634V1.57153H367.578C402.301 1.57153 423.533 23.1411 423.533 58.9918C423.533 94.8426 402.301 116.634 367.241 116.634H326.443ZM366.218 95.7919C387.851 95.7919 399.252 84.6643 399.252 58.9918C399.252 33.3193 387.851 22.4133 366.271 22.4133H350.766V95.7919H366.218Z" fill="#020202"/>
<path d="M434.112 1.57153H511.646V21.6117H458.434V49.035H507.659V69.0752H458.434V96.5829H511.868V116.623H434.112V1.57153Z" fill="#020202"/>
<path d="M523.639 1.57153H599.823V21.6117H547.961V49.035H594.781V69.0752H547.961V116.602H523.639V1.57153Z" fill="#020202"/>
<path d="M660.966 21.5168C643.383 21.5168 631.433 35.0597 631.433 58.9919C631.433 82.924 642.94 96.6884 661.23 96.6884C677.409 96.6884 687.124 87.6493 687.461 73.3786H662.717V55.0577H710.866V69.5498C710.866 99.8316 690.13 118.205 661.082 118.205C628.659 118.205 606.752 95.6231 606.752 59.2134C606.752 21.907 630.178 0 660.544 0C686.543 0 706.647 16.011 709.748 38.7619H685.077C681.987 27.9402 673.496 21.5168 660.966 21.5168Z" fill="#020202"/>
<path d="M719.705 59.2134C719.705 21.907 743.637 0 774.035 0C800.045 0 820.729 15.895 823.872 38.7619H799.264C796.237 27.8664 786.956 21.5168 774.425 21.5168C756.843 21.5168 744.365 34.9964 744.365 58.9919C744.365 82.9873 756.052 96.6884 774.151 96.6884C790.552 96.6884 800.382 87.3117 800.836 73.3786H775.659V55.0577H824.821V116.634H808.198L806.785 103.492H806.173C798.421 112.868 788.242 118.258 774.035 118.258C741.781 118.205 719.705 95.6231 719.705 59.2134Z" fill="#020202"/>
<path d="M6.73975 146.072H31.0727V193.535H80.4558V146.072H104.715V261.134H80.4558V213.575H31.0727V261.102H6.73975V146.072Z" fill="#020202"/>
<path d="M141.715 261.134H117.393V146.072H141.715V261.134Z" fill="#020202"/>
<path d="M224.502 146.072V226.306C224.439 248.603 208.544 262.705 185.224 262.705C164.382 262.705 147.98 251.757 148.086 228.774H172.345C172.514 237.929 178.02 243.214 186.5 243.214C195.497 243.214 200.433 237.37 200.496 226.338V146.072H224.502Z" fill="#020202"/>
<path d="M237.159 146.072H261.482V196.805H263L304.42 146.072H333.573L290.877 197.596L334.122 261.134H304.979L273.463 213.828L261.482 228.437V261.134H237.159V146.072Z" fill="#020202"/>
<path d="M338.879 146.072H363.212V241.083H412.542V261.123H338.879V146.072Z" fill="#020202"/>
<path d="M451.272 146.072L482.914 223.384H484.265L515.907 146.072H545.914V261.134H522.404V186.247H521.444L491.669 260.585H475.595L445.819 185.973H444.87V261.144H421.265V146.072H451.272Z" fill="#020202"/>
<path d="M656.304 261.134H635.294L585.288 188.715H584.444V261.134H560.069V146.072H581.417L631.085 218.438H632.14V146.072H656.399L656.304 261.134Z" fill="#020202"/>
<path d="M720.833 262.705C690.151 262.705 666.946 241.083 666.946 203.64C666.946 166.196 690.151 144.574 720.833 144.574C751.336 144.574 774.71 166.027 774.71 203.64C774.71 241.252 751.336 262.705 720.833 262.705ZM720.833 166.017C703.135 166.017 691.617 179.222 691.617 203.597C691.617 227.972 703.135 241.188 720.833 241.188C738.532 241.188 750.05 227.983 750.05 203.597C750.05 179.212 738.469 166.017 720.833 166.017Z" fill="#020202"/>
<path d="M785.3 146.072H830.654C856.78 146.072 871.894 162.199 871.894 185.097C871.894 207.996 856.495 223.859 830.031 223.859H809.622V261.165H785.3V146.072ZM826.139 204.336C840.073 204.336 846.876 196.467 846.876 185.065C846.876 173.664 840.073 165.953 826.034 165.953H809.622V204.336H826.139Z" fill="#020202"/>
<path d="M94.2732 394.401L110.738 415.031H88.0397L78.7685 403.63C72.3174 406.025 65.483 407.223 58.6017 407.163C27.9192 407.163 4.71484 385.541 4.71484 348.097C4.71484 310.453 27.9192 289.032 58.6017 289.032C89.1049 289.032 112.478 310.485 112.478 348.097C112.478 368.623 105.517 384.338 94.2732 394.401ZM70.8473 365.627L79.3908 376.586C84.7278 370.257 87.8287 360.628 87.8287 348.108C87.8287 323.733 76.2265 310.527 58.6123 310.527C40.9981 310.527 29.4381 323.722 29.4381 348.097C29.4381 372.472 40.9559 385.688 58.6545 385.688C60.7789 385.692 62.8986 385.487 64.9829 385.077L50.2165 365.627H70.8473Z" fill="#020202"/>
<path d="M123.173 290.572H168.527C194.695 290.572 209.799 305.338 209.799 328.152C209.799 343.889 202.553 355.291 189.464 360.912L213.902 405.634H187.059L165.257 364.847H147.506V405.634H123.173V290.572ZM164.023 345.292C177.956 345.292 184.759 339.564 184.759 328.152C184.759 316.74 177.956 310.453 163.907 310.453H147.506V345.26L164.023 345.292Z" fill="#020202"/>
<path d="M262.368 309.335C250.46 309.335 243.878 314.788 243.878 322.203C243.709 330.462 252.084 334.164 262.083 336.474L272.419 338.942C292.46 343.435 306.867 353.614 306.92 372.768C306.867 393.863 290.35 407.269 262.252 407.269C234.333 407.269 216.518 394.401 215.906 369.509H239.448C240.229 381.026 249.331 386.87 261.978 386.87C274.339 386.87 282.313 381.142 282.366 372.715C282.313 364.963 275.341 361.366 262.821 358.328L250.291 355.164C230.852 350.502 218.881 340.777 218.933 323.807C218.828 302.912 237.307 289 262.537 289C288.156 289 305.011 303.155 305.349 323.659H282.028C281.132 314.62 274.002 309.335 262.368 309.335Z" fill="#020202"/>
<path d="M311.435 290.572H405.982V310.612H370.753V405.623H346.705V310.612H311.477L311.435 290.572Z" fill="#020202"/>
<path d="M509.568 290.572V366.64C509.568 392.713 489.676 407.268 461.862 407.268C434.048 407.268 414.167 392.713 414.167 366.64V290.572H438.489V365.796C438.489 378.105 448.435 385.583 461.862 385.583C475.458 385.583 485.404 378.105 485.404 365.796V290.572H509.568Z" fill="#020202"/>
<path d="M570.775 377.989H571.829L599.706 290.572H626.676L587.007 405.634H555.66L515.938 290.572H542.961L570.775 377.989Z" fill="#020202"/>
<path d="M626.075 290.572H652.655L671.703 370.521H672.653L693.663 290.572H716.425L737.382 370.732H738.437L757.475 290.572H784.055L751.084 405.634H727.373L705.466 330.409H704.569L682.715 405.634H659.004L626.075 290.572Z" fill="#020202"/>
<path d="M835.61 329.787H836.507L859.827 290.572H887.303L852.138 348.097L888 405.634H860.102L836.507 366.365H835.61L812.058 405.634H784.149L820.158 348.097L784.814 290.572H812.406L835.61 329.787Z" fill="#020202"/>
<path d="M27.244 435.072L53.4861 484.645H54.6147L80.8462 435.072H108.101L66.1325 509.463V550.134H41.9683V509.463L0 435.072H27.244Z" fill="#020202"/>
<path d="M112.763 535.694L170.152 455.112H112.615V435.072H200.707V449.511L143.234 530.083H200.824V550.123H112.763V535.694Z" fill="#020202"/>
<path d="M261.482 550.134H237.138V458.16H236.463L210.095 474.677V453.108L238.573 435.072H261.482V550.134Z" fill="#020202"/>
<path d="M281.438 532.604L322.393 494.633C332.846 484.645 338.478 478.316 338.478 469.171C338.478 459.056 330.947 452.77 320.832 452.77C310.285 452.77 303.355 459.51 303.418 470.522H280.319C280.267 447.939 296.837 433.5 321.001 433.5C345.661 433.5 361.957 447.602 361.957 467.547C361.957 480.637 355.628 491.427 331.96 512.996L315.158 529.461V530.241H363.476V550.134H281.438V532.604Z" fill="#020202"/>
<path d="M372.588 517.605H397.09C397.533 526.043 405.528 531.655 416.297 531.655C427.425 531.655 435.282 525.326 435.282 516.203C435.282 507.079 427.193 500.381 414.188 500.381H403.376V482.535H414.114C425.178 482.535 432.878 476.407 432.814 467.368C432.878 458.708 426.296 452.76 416.466 452.76C406.636 452.76 398.535 458.434 398.208 467.199H374.888C375.225 447.307 392.987 433.447 416.582 433.447C440.408 433.447 456.303 447.718 456.251 465.86C456.251 478.78 447.423 487.883 434.565 490.193V491.089C451.441 493.199 460.575 503.451 460.522 517.774C460.575 537.445 442.085 551.653 416.223 551.653C390.962 551.705 372.979 537.719 372.588 517.605Z" fill="#020202"/>
<path d="M468.908 510.749L516.951 435.072H547.402V510.412H561.672V529.914H547.402V550.134H524.113V529.914H468.908V510.749ZM524.588 461.588H523.691L493.409 509.515V510.412H524.588V461.588Z" fill="#020202"/>
<path d="M570.912 517.605H594.507C595.066 526.539 602.871 532.604 612.543 532.604C623.945 532.604 632.087 524.345 632.087 512.384C632.087 500.423 623.776 491.933 612.205 491.87C605.402 491.87 598.546 494.854 595.013 499.622L573.38 495.751L578.833 435.072H649.174V454.953H598.884L595.91 483.78H596.585C600.624 478.105 609.336 473.897 619.451 473.897C640.177 473.897 655.576 489.718 655.524 511.762C655.524 535.019 638.163 551.705 612.543 551.705C588.716 551.705 571.355 537.498 570.912 517.605Z" fill="#020202"/>
<path d="M663.339 495.192C663.444 456.166 681.713 433.162 710.138 433.162C733.121 433.162 748.847 447.876 751.157 467.21H727.119C725.263 458.772 718.913 454.004 710.096 454.004C695.097 454.004 687.229 467.937 687.113 490.688H687.904C693.072 480.521 704.252 474.456 716.899 474.456C737.287 474.456 752.349 490.013 752.296 511.593C752.296 535.019 734.872 551.821 709.252 551.674C685.605 551.6 663.402 537.382 663.339 495.192ZM728.733 512.268C728.733 500.867 720.548 492.028 709.305 492.028C698.061 492.028 689.644 501.13 689.591 512.311C689.539 523.491 697.903 532.593 709.146 532.593C720.39 532.593 728.733 523.786 728.733 512.268Z" fill="#020202"/>
<path d="M814.4 455.745V454.953H758.836V435.072H839.566V455.238L791.807 550.165H766.704L814.4 455.745Z" fill="#020202"/>
<path d="M4.37706 663.677C4.37706 649.29 15.2831 637.551 29.3323 635.199V634.418C23.437 633.276 18.1325 630.094 14.3501 625.43C10.5676 620.766 8.54908 614.919 8.64878 608.915C8.64878 591.1 25.6724 577.958 48.9928 577.958C72.3132 577.958 89.3367 591.174 89.3895 608.957C89.4264 614.938 87.3853 620.748 83.6148 625.391C79.8443 630.035 74.5783 633.226 68.7165 634.418V635.209C82.5336 637.509 93.5979 649.248 93.6612 663.687C93.5979 682.346 74.95 696.216 48.9928 696.216C23.0355 696.216 4.32433 682.335 4.37706 663.677ZM68.3157 661.768C68.3157 651.822 60.1203 644.628 48.9928 644.628C37.8652 644.628 29.6698 651.822 29.6698 661.768C29.6698 671.493 37.4222 678.338 48.9928 678.338C60.5633 678.338 68.3157 671.545 68.3157 661.768ZM65.6261 611.478C65.6261 602.554 58.7702 596.31 48.9928 596.31C39.2153 596.31 32.3594 602.491 32.3594 611.478C32.3594 620.464 39.268 626.93 48.9928 626.93C58.7175 626.93 65.6261 620.58 65.6261 611.478Z" fill="#020202"/>
<path d="M190.814 634.123C190.814 673.148 172.493 696.205 144.015 696.205C120.979 696.205 105.242 681.544 102.996 662.158H127.002C128.848 670.533 135.197 675.363 144.025 675.363C159.024 675.363 166.945 661.483 166.998 638.679H166.217C161.102 648.784 149.869 654.912 137.222 654.912C116.834 654.912 101.772 639.354 101.888 617.774C101.772 594.401 119.133 577.546 144.869 577.694C168.517 577.715 190.814 592.039 190.814 634.123ZM125.472 617.099C125.356 628.501 133.562 637.277 144.795 637.277C156.028 637.277 164.466 628.174 164.572 616.983C164.466 605.866 156.208 596.764 145.027 596.764C133.847 596.764 125.42 605.582 125.483 617.099H125.472Z" fill="#020202"/>
<path d="M198.935 637.213C198.988 599.517 216.518 578 245.397 578C274.276 578 291.921 599.57 291.869 637.213C291.805 675.184 274.339 697.165 245.397 697.165C216.454 697.165 198.819 675.026 198.935 637.213ZM267.029 637.213C267.029 611.087 258.497 597.945 245.397 597.945C232.297 597.945 223.774 611.087 223.711 637.213C223.658 663.73 232.202 676.998 245.397 676.998C258.591 676.998 267.093 663.73 267.029 637.213Z" fill="#020202"/>
<path d="M297.955 670.533C297.955 651.263 313.291 645.535 330.377 643.953C345.376 642.498 351.272 641.77 351.272 636.201V635.863C351.272 628.786 346.61 624.683 338.467 624.683C329.871 624.683 324.756 628.902 323.131 634.629L300.982 632.836C304.294 617.099 317.858 607.216 338.562 607.216C357.78 607.216 375.204 615.865 375.204 636.433V694.634H352.506V682.673H351.842C347.623 690.699 339.364 696.269 326.612 696.269C310.147 696.269 297.955 687.609 297.955 670.533ZM351.441 663.793V654.638C348.582 656.547 340.039 657.802 334.818 658.509C326.38 659.69 320.821 663.002 320.821 669.742C320.821 676.481 326.095 679.751 333.478 679.751C343.973 679.772 351.441 672.832 351.441 663.793Z" fill="#020202"/>
<path d="M382.366 670.533C382.366 651.262 397.702 645.535 414.789 643.953C429.788 642.498 435.684 641.77 435.684 636.201V635.863C435.684 628.786 431.022 624.683 422.879 624.683C414.283 624.683 409.167 628.902 407.543 634.629L385.393 632.836C388.705 617.099 402.269 607.216 422.974 607.216C442.191 607.216 459.616 615.865 459.616 636.433V694.634H436.918V682.673H436.253C432.034 690.699 423.775 696.268 411.024 696.268C394.559 696.268 382.366 687.609 382.366 670.533ZM404.621 580.626C404.621 570.406 413.218 561.915 423.892 561.915C428.909 561.87 433.74 563.813 437.329 567.319C440.918 570.825 442.973 575.609 443.046 580.626C443.046 590.91 434.502 599.053 423.892 599.053C413.281 599.053 404.621 590.921 404.621 580.626ZM435.852 663.782V654.627C432.994 656.536 424.451 657.791 419.23 658.498C410.792 659.679 405.233 662.991 405.233 669.731C405.233 676.471 410.507 679.741 417.89 679.741C428.385 679.772 435.852 672.832 435.852 663.793V663.782ZM432.688 580.626C432.688 578.302 431.765 576.072 430.121 574.429C428.477 572.785 426.248 571.861 423.923 571.861C421.599 571.861 419.369 572.785 417.725 574.429C416.082 576.072 415.158 578.302 415.158 580.626C415.269 582.876 416.24 584.998 417.872 586.552C419.504 588.105 421.67 588.972 423.923 588.972C426.176 588.972 428.343 588.105 429.974 586.552C431.606 584.998 432.578 582.876 432.688 580.626Z" fill="#020202"/>
<path d="M471.271 579.572H495.213V622.816H495.941C499.105 615.802 506.056 607.206 520.495 607.206C539.428 607.206 555.439 621.92 555.439 651.59C555.439 680.468 540.103 696.026 520.432 696.026C506.499 696.026 499.253 687.999 495.941 680.806H494.886V694.623H471.271V579.572ZM512.849 676.998C524.598 676.998 531.001 666.546 531.001 651.484C531.001 636.422 524.672 626.255 512.849 626.255C501.246 626.255 494.707 636.095 494.707 651.484C494.707 666.873 501.331 676.998 512.849 676.998Z" fill="#020202"/>
<path d="M560.459 651.822C560.459 625.358 576.639 607.216 602.817 607.216C625.357 607.216 640.472 620.306 641.474 640.251H618.892C617.594 631.655 611.983 625.864 603.218 625.864C592.091 625.864 584.792 635.188 584.792 651.484C584.792 668.001 592.038 677.389 603.218 677.389C611.424 677.389 617.489 672.22 618.892 663.002H641.474C640.356 682.842 625.916 696.321 602.934 696.321C576.364 696.321 560.459 678.064 560.459 651.822Z" fill="#020202"/>
<path d="M646.273 651.6C646.273 621.93 662.284 607.216 681.228 607.216C695.657 607.216 702.576 615.813 705.772 622.827H706.51V579.572H730.379V694.634H706.784V680.827H705.729C702.417 688.02 695.182 696.047 681.238 696.047C661.609 696.036 646.273 680.479 646.273 651.6ZM707.016 651.484C707.016 636.095 700.498 626.255 688.864 626.255C677.051 626.255 670.722 636.528 670.722 651.484C670.722 666.44 677.135 676.998 688.875 676.998C700.382 676.998 707.016 666.883 707.016 651.484Z" fill="#020202"/>
<path d="M739.112 651.874C739.112 625.253 755.577 607.216 780.975 607.216C803.779 607.216 821.541 621.709 821.541 651.041V657.623H762.77C762.77 670.491 770.354 678.412 782.325 678.412C790.299 678.412 796.48 674.984 798.895 668.413L821.045 669.868C817.67 685.879 803.283 696.237 781.935 696.237C755.355 696.321 739.112 679.245 739.112 651.874ZM799.011 642.772C798.948 632.499 791.755 625.084 781.365 625.084C776.559 624.982 771.907 626.784 768.424 630.097C764.94 633.41 762.908 637.966 762.77 642.772H799.011Z" fill="#020202"/>
<path d="M54.6253 770.818H37.1482V839.134H12.7308V770.818H0.29541V752.834H12.7308V746.601C12.7308 727.837 25.0503 718.671 41.6203 718.671C47.4481 718.689 53.2475 719.484 58.8654 721.034L54.5726 738.965C52.0242 738.193 49.3774 737.795 46.7147 737.783C39.553 737.783 37.1482 741.211 37.1482 747.054V752.834H54.6253V770.818Z" fill="#020202"/>
<path d="M56.8614 849.249L79.4435 846.274C81.4475 850.936 86.89 855.546 97.6695 855.546C108.217 855.546 116.001 850.936 116.001 839.64V823.819H114.946C111.782 830.959 103.882 837.868 89.8432 837.868C70.014 837.868 54.1401 824.494 54.1401 795.784C54.1401 766.398 70.4676 751.685 89.78 751.685C104.546 751.685 111.676 760.281 114.946 767.295H115.864V752.835H140.123V839.978C140.123 861.494 122.192 872.738 97.0788 872.738C73.3259 872.791 59.7408 862.243 56.8614 849.249ZM116.117 795.71C116.117 780.595 109.472 770.755 97.6062 770.755C85.4766 770.755 79.011 781.028 79.011 795.71C79.011 810.592 85.5504 819.969 97.5218 819.969C109.314 819.916 116.075 810.93 116.075 795.71H116.117Z" fill="#020202"/>
<path d="M174.993 839.134H150.533V724.072H174.254V768.065H175.309C179.328 757.897 188.261 751.716 201.614 751.716C219.956 751.716 232.107 763.962 232.054 784.192V839.134H207.616V788.411C207.616 777.8 201.825 771.535 191.911 771.535C181.996 771.535 175.035 778.053 174.951 789.181L174.993 839.134Z" fill="#020202"/>
<path d="M241.326 729.577C241.326 722.943 247.285 717.5 254.499 717.5C261.714 717.5 267.747 722.943 267.747 729.577C267.747 736.212 261.777 741.707 254.499 741.707C247.222 741.707 241.326 736.264 241.326 729.577ZM242.243 752.782H266.65V839.081H242.243V752.782Z" fill="#020202"/>
<path d="M301.562 752.834V843.121C301.562 863.161 288.958 871.778 267.81 871.219C266.492 871.219 265.173 871.219 263.285 871.103V852.392C264.337 852.483 265.393 852.522 266.449 852.508C274.297 852.508 277.113 849.249 277.113 842.73V752.834H301.562ZM276.121 729.63C276.121 722.996 282.081 717.553 289.306 717.553C296.531 717.553 302.543 722.996 302.543 729.63C302.543 736.264 296.583 741.76 289.306 741.76C282.028 741.76 276.069 736.264 276.069 729.577L276.121 729.63Z" fill="#020202"/>
<path d="M311.962 724.072H336.369V785.595H337.687L365.902 752.834H393.926L361.229 790.204L395.55 839.134H366.956L342.94 804.327L336.348 811.71V839.134H311.962V724.072Z" fill="#020202"/>
<path d="M421.202 839.134H396.795V724.072H421.202V839.134Z" fill="#020202"/>
<path d="M431.654 752.834H454.922V768.065H455.977C459.637 757.897 468.634 751.716 480.5 751.716C492.597 751.716 501.594 758.045 504.4 768.065H505.318C508.925 758.171 518.955 751.716 531.855 751.716C548.246 751.716 559.595 762.39 559.595 781.102V839.113H535.23V785.816C535.23 776.208 529.387 771.43 521.592 771.43C512.711 771.43 507.49 777.505 507.49 786.439V839.176H483.801V785.384C483.801 776.946 478.411 771.503 470.395 771.503C462.379 771.503 456.061 777.832 456.061 787.409V839.207H431.654V752.834Z" fill="#020202"/>
<path d="M594.19 839.134H569.783V752.834H593.051V768.065H594.106C598.061 758.003 607.522 751.716 620.59 751.716C638.932 751.716 650.967 764.067 650.967 784.192V839.134H626.518V788.411C626.518 777.864 620.675 771.535 610.866 771.535C601.056 771.535 594.253 778.053 594.19 789.181V839.134Z" fill="#020202"/>
<path d="M657.538 796.322C657.538 769.584 674.15 751.716 700.856 751.716C727.563 751.716 744.185 769.584 744.185 796.322C744.185 823.059 727.563 840.821 700.856 840.821C674.15 840.821 657.538 822.901 657.538 796.322ZM719.367 796.153C719.367 781.102 713.039 769.974 700.972 769.974C688.653 769.974 682.325 781.102 682.325 796.153C682.325 811.204 688.653 822.279 700.951 822.279C713.07 822.279 719.367 811.215 719.367 796.153Z" fill="#020202"/>
<path d="M751.073 752.834H775.143V767.316H776.197C779.456 760.302 786.513 751.706 801.237 751.706C820.549 751.706 836.887 766.42 836.887 796.089C836.887 824.968 821.245 840.526 801.184 840.526C786.966 840.526 779.572 832.499 776.197 825.306H775.448V871.483H751.073V752.834ZM793.485 821.498C805.466 821.498 811.995 811.046 811.995 795.984C811.995 780.922 805.582 770.754 793.485 770.754C781.619 770.754 774.974 780.595 774.974 795.984C774.974 811.373 781.735 821.498 793.485 821.498Z" fill="#020202"/>
<path d="M64.6557 1015.99V969.827H63.9068C60.5316 977.02 53.1379 985.047 38.9199 985.047C18.8798 985.047 3.2168 969.489 3.2168 940.611C3.2168 910.941 19.5548 896.227 38.8672 896.227C53.6336 896.227 60.6476 904.823 63.9068 911.837H64.9615V897.334H89.073V1015.99H64.6557ZM46.6617 915.255C34.5638 915.255 28.151 925.538 28.151 940.484C28.151 955.43 34.7115 965.998 46.6617 965.998C58.4116 965.998 65.1725 955.883 65.1725 940.484C65.1725 925.085 58.5171 915.255 46.6617 915.255Z" fill="#020202"/>
<path d="M99.5151 897.334H123.184V912.396H124.101C127.265 901.722 135.387 896.1 145.249 896.1C147.831 896.116 150.404 896.399 152.927 896.944V918.145C149.555 917.291 146.09 916.859 142.612 916.858C131.833 916.858 123.922 924.157 123.922 934.788V983.613H99.5151V897.334Z" fill="#020202"/>
<path d="M207.331 923.292C206.118 917.733 201.076 913.177 192.565 913.177C185.002 913.177 179.043 916.552 179.095 921.72C179.095 925.876 182.08 928.629 190.276 930.369L206.202 933.533C223.279 936.961 231.59 944.429 231.653 956.906C231.59 973.93 215.263 985.385 192.449 985.385C169.128 985.385 154.794 975.217 152.505 958.7L176.522 957.466C178.009 964.48 183.8 968.14 192.512 968.14C201.045 968.14 206.719 964.48 206.835 959.375C206.719 955.04 203.228 952.287 195.55 950.778L180.298 947.793C163.106 944.429 154.794 936.054 154.857 923.134C154.794 906.5 169.624 896.28 192.164 896.28C214.398 896.28 227.466 906.11 229.649 922.005L207.331 923.292Z" fill="#020202"/>
<path d="M284.876 915.318H268.317V957.17C268.317 963.794 271.692 965.608 276.565 965.608C278.61 965.532 280.644 965.268 282.64 964.817L286.479 982.632C282.194 983.998 277.738 984.754 273.242 984.878C255.533 985.606 243.783 977.242 243.899 960.324V915.318H231.865V897.334H243.899V876.661H268.317V897.334H284.876V915.318Z" fill="#020202"/>
<path d="M348.161 897.334H372.578V983.634H349.142V967.96H348.224C344.269 978.075 334.755 984.762 321.518 984.762C303.798 984.762 291.764 972.453 291.711 952.287V897.334H316.128V948.015C316.181 958.183 322.14 964.532 331.369 964.532C340.134 964.532 348.245 958.467 348.161 946.886V897.334Z" fill="#020202"/>
<path d="M434.312 983.634H406.804L376.027 897.334H401.815L420.105 959.079H421.012L439.238 897.334H465.047L434.312 983.634Z" fill="#020202"/>
<path d="M461.946 897.334H486.648L500.286 955.345H501.088L515.306 897.334H539.565L554.015 954.976H554.753L568.17 897.334H592.808L568.908 983.634H543.098L527.91 929.356H526.855L511.72 983.634H485.9L461.946 897.334Z" fill="#020202"/>
<path d="M633.258 927.511L649.818 897.334H674.868L649.364 940.484L675.553 983.634H650.683L633.311 953.805L616.235 983.634H590.963L617.099 940.484L591.881 897.334H617.099L633.258 927.511Z" fill="#020202"/>
<path d="M679.804 1014.59L685.31 996.048C693.906 998.632 699.813 998.157 703.241 990.268L704.844 986.112L673.265 897.334H698.937L717.132 960.714H718.049L736.444 897.334H762.296L727.911 993.527C722.922 1007.34 712.322 1017.24 694.433 1017.24C689.43 1017.33 684.457 1016.43 679.804 1014.59Z" fill="#020202"/>
<path d="M765.322 969.363L808.419 917.09V916.467H766.82V897.334H837.825V912.871L797.365 963.878V964.553H839.313V983.655H765.322V969.363Z" fill="#020202"/>
<path d="M849.522 971.61C849.575 968.02 851.048 964.598 853.617 962.092C856.187 959.585 859.645 958.199 863.234 958.235C865.03 958.185 866.817 958.495 868.491 959.148C870.165 959.8 871.69 960.781 872.978 962.034C874.266 963.286 875.29 964.784 875.989 966.438C876.688 968.093 877.048 969.871 877.048 971.668C877.048 973.464 876.688 975.242 875.989 976.897C875.29 978.551 874.266 980.049 872.978 981.301C871.69 982.554 870.165 983.535 868.491 984.187C866.817 984.84 865.03 985.15 863.234 985.1C861.448 985.115 859.676 984.778 858.02 984.108C856.364 983.438 854.856 982.449 853.583 981.196C852.309 979.943 851.295 978.452 850.599 976.807C849.902 975.162 849.536 973.396 849.522 971.61Z" fill="#020202"/>
</svg>
