<svg width="3086" height="224" viewBox="0 0 3086 224" fill="none" xmlns="http://www.w3.org/2000/svg">
<path d="M1354.94 176H1381.31L1405.63 92.3125H1406.63L1431 176H1457.38L1494 48H1464.44L1443.25 137.125H1442.13L1418.81 48H1393.5L1370.13 136.937H1369.06L1347.88 48H1318.31L1354.94 176ZM1532.62 177.875C1556.37 177.875 1572.37 166.312 1576.12 148.5L1551.5 146.875C1548.81 154.187 1541.93 158 1533.06 158C1519.75 158 1511.31 149.188 1511.31 134.875V134.812H1576.68V127.5C1576.68 94.875 1556.93 78.75 1531.56 78.75C1503.31 78.75 1485 98.8125 1485 128.437C1485 158.875 1503.06 177.875 1532.62 177.875ZM1511.31 118.312C1511.87 107.375 1520.18 98.625 1532 98.625C1543.56 98.625 1551.56 106.875 1551.62 118.312H1511.31ZM1585.26 176H1611.88V80H1585.26V176ZM1598.63 67.625C1606.57 67.625 1613.07 61.5625 1613.07 54.125C1613.07 46.75 1606.57 40.6875 1598.63 40.6875C1590.76 40.6875 1584.26 46.75 1584.26 54.125C1584.26 61.5625 1590.76 67.625 1598.63 67.625ZM1667.66 213.375C1695.1 213.375 1714.6 200.875 1714.6 176.938V80H1688.16V96.125H1687.16C1683.6 88.3125 1675.79 78.75 1659.73 78.75C1638.66 78.75 1620.85 95.125 1620.85 127.812C1620.85 159.75 1638.16 174.625 1659.79 174.625C1675.1 174.625 1683.66 166.937 1687.16 159H1688.29V176.563C1688.29 189.125 1679.85 194.25 1668.29 194.25C1656.54 194.25 1650.6 189.125 1648.41 183.938L1623.79 187.25C1626.98 201.75 1641.79 213.375 1667.66 213.375ZM1668.23 154.625C1655.16 154.625 1648.04 144.25 1648.04 127.687C1648.04 111.375 1655.04 99.9375 1668.23 99.9375C1681.16 99.9375 1688.41 110.875 1688.41 127.687C1688.41 144.625 1681.04 154.625 1668.23 154.625ZM1753.61 120.5C1753.67 108.125 1761.24 100.875 1772.11 100.875C1782.92 100.875 1789.3 107.812 1789.24 119.625V176H1815.86V114.875C1815.92 92.375 1802.67 78.75 1782.67 78.75C1768.11 78.75 1758.36 85.625 1753.99 96.9375H1752.86V48H1726.99V176H1753.61V120.5ZM1879.08 80H1861.02V57H1834.39V80H1821.27V100H1834.39V150C1834.27 168.812 1847.08 178.125 1866.39 177.313C1873.27 177.063 1878.14 175.687 1880.83 174.812L1876.64 155C1875.33 155.25 1872.52 155.875 1870.02 155.875C1864.7 155.875 1861.02 153.875 1861.02 146.5V100H1879.08V80ZM1966.12 107.375C1963.75 89.6875 1949.5 78.75 1925.25 78.75C1900.68 78.75 1884.5 90.125 1884.56 108.625C1884.5 123 1893.56 132.312 1912.31 136.062L1928.93 139.375C1937.31 141.062 1941.12 144.125 1941.25 148.938C1941.12 154.625 1934.93 158.688 1925.62 158.688C1916.12 158.688 1909.81 154.625 1908.18 146.812L1882 148.187C1884.5 166.562 1900.12 177.875 1925.56 177.875C1950.43 177.875 1968.25 165.187 1968.31 146.25C1968.25 132.375 1959.18 124.062 1940.56 120.25L1923.18 116.75C1914.25 114.812 1910.93 111.75 1911 107.125C1910.93 101.375 1917.43 97.625 1925.68 97.625C1934.93 97.625 1940.43 102.687 1941.75 108.875L1966.12 107.375Z" fill="#030303"/>
<circle cx="1160" cy="112" r="111" fill="#F03009"/>
<path d="M1159.29 74.0653C1143.52 73.9943 1133.05 84.7898 1133.05 99.1364C1133.05 112.915 1142.85 122.822 1155.6 122.822C1163.44 122.822 1170.26 119.023 1173.78 112.773H1174.28C1174.24 128.327 1168.59 137.595 1158.54 137.595C1152.26 137.595 1148.03 133.973 1146.72 128.185H1133.76C1135.25 140.223 1144.77 148.994 1158.54 148.994C1175.98 148.994 1187.02 134.435 1187.06 109.399C1187.02 82.7301 1173.25 74.1719 1159.29 74.0653ZM1159.33 84.7188C1167.1 84.7188 1172.82 91.1818 1172.82 98.7812C1172.82 106.345 1166.85 112.808 1159.18 112.808C1151.44 112.808 1145.83 106.7 1145.83 98.8523C1145.83 90.9332 1151.62 84.7188 1159.33 84.7188Z" fill="white"/>
<path d="M2404.12 176H2431.19V123.125H2483.25V100.812H2431.19V70.3125H2488.87V48H2404.12V176ZM2534.48 177.875C2558.23 177.875 2574.23 166.312 2577.98 148.5L2553.36 146.875C2550.67 154.187 2543.79 158 2534.92 158C2521.61 158 2513.17 149.188 2513.17 134.875V134.812H2578.54V127.5C2578.54 94.875 2558.79 78.75 2533.42 78.75C2505.17 78.75 2486.86 98.8125 2486.86 128.437C2486.86 158.875 2504.92 177.875 2534.48 177.875ZM2513.17 118.312C2513.73 107.375 2522.04 98.625 2533.86 98.625C2545.42 98.625 2553.42 106.875 2553.48 118.312H2513.17ZM2614.49 177.813C2628.68 177.813 2637.87 171.625 2642.56 162.688H2643.31V176H2668.56V111.25C2668.56 88.375 2649.18 78.75 2627.81 78.75C2604.81 78.75 2589.68 89.75 2585.99 107.25L2610.62 109.25C2612.43 102.875 2618.12 98.1875 2627.68 98.1875C2636.74 98.1875 2641.93 102.75 2641.93 110.625V111C2641.93 117.187 2635.37 118 2618.68 119.625C2599.68 121.375 2582.62 127.75 2582.62 149.188C2582.62 168.187 2596.18 177.813 2614.49 177.813ZM2622.12 159.437C2613.93 159.437 2608.06 155.625 2608.06 148.312C2608.06 140.812 2614.24 137.125 2623.62 135.812C2629.43 135 2638.93 133.625 2642.12 131.5V141.687C2642.12 151.75 2633.81 159.437 2622.12 159.437ZM2731.47 80H2713.41V57H2686.79V80H2673.66V100H2686.79V150C2686.66 168.812 2699.47 178.125 2718.79 177.313C2725.66 177.063 2730.54 175.687 2733.22 174.812L2729.04 155C2727.72 155.25 2724.91 155.875 2722.41 155.875C2717.1 155.875 2713.41 153.875 2713.41 146.5V100H2731.47V80ZM2801.58 135.125C2801.64 148 2792.83 154.75 2783.27 154.75C2773.21 154.75 2766.71 147.687 2766.64 136.375V80H2740.02V141.125C2740.08 163.562 2753.21 177.25 2772.52 177.25C2786.96 177.25 2797.33 169.812 2801.64 158.562H2802.64V176H2828.21V80H2801.58V135.125ZM2840.7 176H2867.33V121.688C2867.39 109.937 2875.89 101.875 2886.64 101.875C2890.27 101.875 2893.2 102.875 2895.7 104.125L2903.7 82.125C2900.2 80 2895.7 78.625 2890.58 78.625C2879.77 78.625 2871.02 84.875 2867.52 96.75H2866.52V80H2840.7V176ZM2946.64 177.875C2970.39 177.875 2986.39 166.312 2990.14 148.5L2965.51 146.875C2962.82 154.187 2955.95 158 2947.07 158C2933.76 158 2925.32 149.188 2925.32 134.875V134.812H2990.7V127.5C2990.7 94.875 2970.95 78.75 2945.57 78.75C2917.32 78.75 2899.01 98.8125 2899.01 128.437C2899.01 158.875 2917.07 177.875 2946.64 177.875ZM2925.32 118.312C2925.89 107.375 2934.2 98.625 2946.01 98.625C2957.57 98.625 2965.57 106.875 2965.64 118.312H2925.32ZM3079.15 107.375C3076.77 89.6875 3062.52 78.75 3038.27 78.75C3013.71 78.75 2997.52 90.125 2997.59 108.625C2997.52 123 3006.59 132.312 3025.34 136.062L3041.96 139.375C3050.34 141.062 3054.15 144.125 3054.27 148.938C3054.15 154.625 3047.96 158.688 3038.65 158.688C3029.15 158.688 3022.84 154.625 3021.21 146.812L2995.02 148.187C2997.52 166.562 3013.15 177.875 3038.59 177.875C3063.46 177.875 3081.27 165.187 3081.34 146.25C3081.27 132.375 3072.21 124.062 3053.59 120.25L3036.21 116.75C3027.27 114.812 3023.96 111.75 3024.02 107.125C3023.96 101.375 3030.46 97.625 3038.71 97.625C3047.96 97.625 3053.46 102.687 3054.77 108.875L3079.15 107.375Z" fill="#030303"/>
<circle cx="2238" cy="112" r="111" fill="#1978F7"/>
<path d="M2181.99 148H2231.84V136.991H2200.17V136.494L2212.7 123.746C2226.84 110.18 2230.74 103.575 2230.74 95.3722C2230.74 83.1918 2220.84 74.2784 2206.21 74.2784C2191.79 74.2784 2181.56 83.2273 2181.56 97.0412H2194.1C2194.1 89.6193 2198.78 84.9673 2206.03 84.9673C2212.95 84.9673 2218.1 89.1932 2218.1 96.0469C2218.1 102.119 2214.41 106.452 2207.24 113.732L2181.99 138.483V148ZM2267.34 74.0653C2251.58 73.9943 2241.1 84.7898 2241.1 99.1364C2241.1 112.915 2250.9 122.822 2263.65 122.822C2271.5 122.822 2278.32 119.023 2281.83 112.773H2282.33C2282.29 128.327 2276.65 137.595 2266.6 137.595C2260.31 137.595 2256.09 133.973 2254.77 128.185H2241.81C2243.3 140.223 2252.82 148.994 2266.6 148.994C2284.03 148.994 2295.08 134.435 2295.11 109.399C2295.08 82.7301 2281.3 74.1719 2267.34 74.0653ZM2267.38 84.7188C2275.16 84.7188 2280.87 91.1818 2280.87 98.7812C2280.87 106.345 2274.91 112.808 2267.24 112.808C2259.5 112.808 2253.89 106.7 2253.89 98.8523C2253.89 90.9332 2259.67 84.7188 2267.38 84.7188Z" fill="white"/>
<path d="M363 89.375H390.5C387 64.0625 364.688 46.25 335.75 46.25C301.938 46.25 275.875 70.625 275.875 112.125C275.875 152.625 300.25 177.75 336.313 177.75C368.625 177.75 391.688 157.312 391.688 123.625V107.5H338.125V127.875H365.625C365.25 143.75 354.438 153.812 336.438 153.812C316.125 153.812 303.313 138.625 303.313 111.875C303.313 85.25 316.625 70.1875 336.188 70.1875C350.125 70.1875 359.563 77.375 363 89.375ZM429.341 48H402.716V176H429.341V48ZM457.369 213.375C476.869 213.375 488.431 202.375 493.869 187L531.369 80H503.181L483.119 150.5H482.119L462.244 80H434.244L468.681 178.75L466.931 183.375C463.181 192.125 456.744 192.688 447.369 189.813L441.369 210.438C444.369 211.75 449.806 213.375 457.369 213.375ZM536.194 212H562.819V160.625H563.631C567.319 168.625 575.381 177.562 590.881 177.562C612.756 177.562 629.819 160.25 629.819 128.125C629.819 95.125 612.006 78.75 590.944 78.75C574.881 78.75 567.194 88.3125 563.631 96.125H562.444V80H536.194V212ZM562.256 128C562.256 110.875 569.506 99.9375 582.444 99.9375C595.631 99.9375 602.631 111.375 602.631 128C602.631 144.75 595.506 156.375 582.444 156.375C569.631 156.375 562.256 145.125 562.256 128ZM665.394 120.5C665.456 108.125 673.019 100.875 683.894 100.875C694.706 100.875 701.081 107.812 701.019 119.625V176H727.644V114.875C727.706 92.375 714.456 78.75 694.456 78.75C679.894 78.75 670.144 85.625 665.769 96.9375H664.644V48H638.769V176H665.394V120.5ZM819.672 107.375C817.297 89.6875 803.047 78.75 778.797 78.75C754.234 78.75 738.047 90.125 738.109 108.625C738.047 123 747.109 132.312 765.859 136.062L782.484 139.375C790.859 141.062 794.672 144.125 794.797 148.938C794.672 154.625 788.484 158.688 779.172 158.688C769.672 158.688 763.359 154.625 761.734 146.812L735.547 148.187C738.047 166.562 753.672 177.875 779.109 177.875C803.984 177.875 821.797 165.187 821.859 146.25C821.797 132.375 812.734 124.062 794.109 120.25L776.734 116.75C767.797 114.812 764.484 111.75 764.547 107.125C764.484 101.375 770.984 97.625 779.234 97.625C788.484 97.625 793.984 102.687 795.297 108.875L819.672 107.375Z" fill="#030303"/>
<circle cx="112" cy="112" r="111" fill="#FFCC00"/>
<path d="M65.6273 148H117.474V135.429H86.9341V134.932L97.552 124.527C112.502 110.891 116.515 104.072 116.515 95.7983C116.515 83.1918 106.217 74.2784 90.6273 74.2784C75.3574 74.2784 64.8816 83.4048 64.9171 97.6804H79.5123C79.4767 90.7202 83.8801 86.4588 90.5208 86.4588C96.9128 86.4588 101.671 90.4361 101.671 96.8281C101.671 102.616 98.1202 106.594 91.5151 112.95L65.6273 136.92V148ZM128.275 148H142.192V132.057L145.949 127.777L159.638 148H175.941L156.371 119.544L174.993 97.8182H159.018L142.944 116.865H142.192V81.0909H128.275V148Z" fill="black"/>
</svg>
