<svg width="888" height="760" viewBox="0 0 888 760" fill="none" xmlns="http://www.w3.org/2000/svg">
<g clip-path="url(#clip0)">
<rect width="888" height="760" fill="white"/>
<path d="M40.7582 116.379C46.5682 116.379 53.973 114.67 57.5045 113.189L55.9097 107.949C53.8591 108.633 47.2517 110.911 40.9861 110.911C21.5057 110.911 11.1389 99.9747 11.1389 80.6082C11.1389 61.5835 21.7335 50.1915 39.619 50.1915C57.7324 50.1915 66.2764 62.9506 66.2764 75.7097C66.2764 88.6966 64.9094 94.5065 59.0994 94.5065C55.6818 94.5065 53.8591 91.6585 53.8591 88.4688V62.7227H47.8213V65.9125H47.4795C46.6821 63.4063 42.2392 61.2418 36.5432 61.8114C27.9991 62.7227 21.5057 69.7858 21.5057 80.0386C21.5057 90.8611 26.6321 99.1773 36.5432 99.519C43.0366 99.7469 46.4543 96.5571 47.8213 93.2534H48.1631C48.8466 98.152 54.9983 99.8608 58.9855 99.8608C71.0611 99.8608 72.2003 86.8739 72.2003 75.8236C72.2003 60.2165 61.2639 44.8372 39.9608 44.8372C17.9741 44.8372 4.8733 58.1659 4.8733 80.3804C4.8733 103.392 17.5185 116.379 40.7582 116.379ZM37.4545 93.7091C30.0497 93.7091 27.4295 86.9878 27.4295 79.6969C27.4295 73.0895 31.1889 67.3935 37.6824 67.3935C44.5176 67.3935 48.1631 70.1276 48.1631 79.6969C48.1631 89.1523 45.0872 93.7091 37.4545 93.7091ZM126.105 90.2915C133.026 90.2915 138.636 84.6809 138.636 77.7602C138.636 70.8396 133.026 65.229 126.105 65.229C119.184 65.229 113.574 70.8396 113.574 77.7602C113.574 84.6809 119.184 90.2915 126.105 90.2915ZM198.657 90.2915C205.578 90.2915 211.189 84.6809 211.189 77.7602C211.189 70.8396 205.578 65.229 198.657 65.229C191.737 65.229 186.126 70.8396 186.126 77.7602C186.126 84.6809 191.737 90.2915 198.657 90.2915ZM198.657 85.279C194.499 85.279 191.139 81.9183 191.139 77.7602C191.139 73.6021 194.499 70.2415 198.657 70.2415C202.815 70.2415 206.176 73.6021 206.176 77.7602C206.176 81.9183 202.815 85.279 198.657 85.279ZM262.381 90.5193L283.456 77.7602L262.381 65.0011V90.5193ZM345.015 94.3926H362.445V61.1278H345.015C333.794 61.1278 326.902 67.1087 326.902 77.7602C326.902 88.4118 333.794 94.3926 345.015 94.3926ZM355.382 88.127H348.319V67.3935H355.382V88.127ZM402.181 94.3926H419.611C430.832 94.3926 437.724 88.4118 437.724 77.7602C437.724 67.1087 430.832 61.1278 419.611 61.1278H402.181V94.3926ZM409.244 67.3935H416.307V88.127H409.244V67.3935ZM503.999 101H511.062V42.6727H493.632C481.215 42.6727 474.38 50.5332 474.38 61.0139C474.38 71.6085 481.215 79.3551 493.632 79.3551H496.936V48.9384H503.999V101ZM581.806 56.4571C581.806 47.9131 576.338 41.8753 567.566 41.8753C559.477 41.8753 553.667 47.0017 553.667 54.0648C553.667 57.7102 555.262 60.6722 557.655 63.0645V63.2923C552.984 64.6594 549.68 69.558 549.68 73.6591C549.68 80.7222 555.034 84.5955 557.996 86.3043L569.047 92.6838C571.781 94.2787 575.198 96.2153 575.198 100.544C575.198 104.759 571.439 106.81 567.224 106.81C562.098 106.81 558.338 103.734 558.338 98.152H551.731C551.731 107.266 558.224 112.848 567.224 112.848C574.743 112.848 581.692 108.974 581.692 100.544C581.692 96.8989 580.439 93.7091 577.705 91.3168V91.2028C582.034 89.8358 585.679 85.1651 585.679 80.95C585.679 73.8869 580.325 70.1276 577.363 68.4188L566.313 61.9253C563.579 60.3304 560.161 57.4824 560.161 54.0648C560.161 51.2168 562.439 47.9131 567.566 47.9131C572.92 47.9131 575.312 51.5585 575.312 56.4571H581.806ZM579.413 80.95C579.413 85.6207 574.401 88.6966 572.009 87.3295L561.414 81.1778C558.566 79.469 555.946 77.3045 555.946 73.6591C555.946 68.8744 560.389 65.5707 562.895 67.0517L574.059 73.5452C576.793 75.1401 579.413 77.6463 579.413 80.95ZM637.014 60.5582C628.242 60.5582 621.293 67.5074 621.293 76.1653C621.293 84.9372 628.242 91.8864 637.014 91.8864C643.165 91.8864 647.836 88.8105 651.026 85.7347C652.393 84.3676 653.532 83.0006 654.557 81.7474C655.469 83.0006 656.608 84.3676 657.975 85.7347C661.165 88.8105 665.836 91.8864 672.101 91.8864C680.759 91.8864 687.708 84.9372 687.708 76.1653C687.708 67.5074 680.759 60.5582 672.101 60.5582C665.836 60.5582 661.165 63.6341 657.975 66.8239C656.38 68.3048 655.469 69.444 654.557 70.6972C653.532 69.444 652.393 68.077 651.026 66.8239C647.836 63.6341 643.165 60.5582 637.014 60.5582ZM681.215 76.1653C681.215 81.2918 677.114 85.3929 672.101 85.3929C668.228 85.3929 665.152 83.4563 662.532 80.95C660.823 79.2412 659.57 77.6463 658.545 76.1653C659.114 75.4818 660.481 73.4313 662.532 71.4946C665.038 68.9884 668.228 67.0517 672.101 67.0517C677.114 67.0517 681.215 71.1528 681.215 76.1653ZM627.786 76.1653C627.786 71.1528 631.887 67.0517 637.014 67.0517C640.773 67.0517 643.963 68.9884 646.469 71.4946C648.292 73.2034 649.431 74.7983 650.456 76.1653C649.431 77.6463 648.178 79.2412 646.469 80.95C643.849 83.4563 640.773 85.3929 637.014 85.3929C631.887 85.3929 627.786 81.2918 627.786 76.1653ZM727.928 74.6844L747.295 93.9369L782.838 58.5077L778.395 54.0648L747.295 85.0511L732.257 70.2415L727.928 74.6844ZM837.405 93.9369L852.67 78.7286L867.936 93.9369L872.379 89.494L857.113 74.2857L872.379 59.0773L867.936 54.6344L852.67 69.8428L837.405 54.6344L832.962 59.0773L848.228 74.2857L832.962 89.494L837.405 93.9369ZM34.4357 194L38.8216 189.614L20.7652 171.615H67.5295V165.349H20.7652L38.8216 147.293L34.4357 142.964L8.91747 168.482L34.4357 194ZM141.357 194L145.743 189.614L127.687 171.615H205.438V165.349H127.687L145.743 147.293L141.357 142.964L115.839 168.482L141.357 194ZM288.977 194L314.495 168.482L288.977 142.964L284.591 147.35L302.647 165.349H255.883V171.615H302.647L284.591 189.671L288.977 194ZM426.885 194L452.403 168.482L426.885 142.964L422.499 147.293L440.555 165.349H362.805V171.615H440.555L422.499 189.614L426.885 194ZM507.747 171.786H513.956L513.899 146.267L546.936 179.361L551.379 174.918L518.342 141.824H543.86L543.803 135.673H507.747V171.786ZM617.973 179.361L651.01 146.267L650.953 171.786H657.161V135.673H621.105L621.048 141.824H646.567L613.53 174.918L617.973 179.361ZM764.083 157.887H757.874L757.931 183.405L724.894 150.312L720.451 154.754L753.488 187.848H727.97L728.027 194H764.083V157.887ZM867.701 150.312L834.664 183.405L834.721 157.887H828.512V194H864.568L864.625 187.848H839.107L872.144 154.754L867.701 150.312ZM34.4357 287L38.8216 282.614L20.7652 264.615H88.7757L70.7193 282.614L75.1053 287L100.623 261.482L75.1053 235.964L70.7193 240.293L88.7757 258.349H20.7652L38.8216 240.293L34.4357 235.964L8.91747 261.482L34.4357 287ZM179.684 287L184.07 282.614L166.014 264.615H266.834L248.777 282.614L253.163 287L278.681 261.482L253.163 235.964L248.777 240.293L266.834 258.349H166.014L184.07 240.293L179.684 235.964L154.166 261.482L179.684 287ZM359.458 287H365.724V240.179L383.78 258.235L388.109 253.849L362.591 228.331L337.016 253.849L341.459 258.235L359.458 240.179V287ZM479.958 228.673H473.692V275.494L455.636 257.438L451.307 261.824L476.825 287.342L502.4 261.824L497.957 257.438L479.958 275.494V228.673ZM591.059 304.43L616.577 278.912L612.248 274.526L594.192 292.582V231.407L612.248 249.463L616.577 245.077L591.059 219.559L565.541 245.077L569.927 249.463L587.926 231.407V292.582L569.927 274.526L565.541 278.912L591.059 304.43ZM700.451 287L704.809 282.643L686.752 264.615H732.121C742.516 264.615 750.975 256.128 750.975 245.704C750.975 235.309 742.516 226.85 732.121 226.85H729.216V233.116H732.121C739.042 233.116 744.709 238.783 744.709 245.704C744.709 252.681 739.07 258.349 732.121 258.349H686.752L704.809 240.321L700.451 235.964L674.933 261.482L700.451 287ZM822.909 264.615H868.306L850.25 282.614L854.579 287L880.097 261.482L854.579 235.964L850.25 240.293L868.306 258.349H822.909C815.96 258.349 810.32 252.681 810.32 245.704C810.32 238.783 815.988 233.116 822.909 233.116H825.814V226.85H822.909C812.513 226.85 804.055 235.309 804.055 245.704C804.055 256.128 812.513 264.615 822.909 264.615ZM8.51875 387.291L70.4915 350.836L8.51875 314.382V387.291ZM115.959 321.673L152.414 383.645L188.868 321.673H115.959ZM234.45 380H307.359L270.904 318.027L234.45 380ZM414.799 387.291V314.382L352.826 350.836L414.799 387.291ZM496.607 380.911C513.268 380.911 526.739 367.44 526.682 350.836C526.626 334.232 513.268 320.761 496.607 320.761C480.061 320.761 466.589 334.232 466.532 350.836C466.476 367.44 480.061 380.911 496.607 380.911ZM607.579 380.911C624.24 380.911 637.711 367.44 637.654 350.836C637.597 334.232 624.24 320.761 607.579 320.761C591.032 320.761 577.561 334.232 577.504 350.836C577.447 367.44 591.032 380.911 607.579 380.911ZM607.579 374.304C594.621 374.304 584.055 363.738 584.112 350.865C584.169 337.906 594.678 327.369 607.579 327.369C620.538 327.369 630.99 337.849 631.047 350.865C631.104 363.795 620.595 374.304 607.579 374.304ZM762.297 350.836L724.247 312.559L685.742 350.836L724.247 389.114L762.297 350.836ZM841.321 350.836L824.461 334.204L807.601 350.836L824.461 367.697L841.321 350.836ZM862.738 372.481L846.106 355.621L829.246 372.481L846.106 389.114L862.738 372.481ZM862.738 329.419L846.106 312.559L829.246 329.419L846.106 346.052L862.738 329.419ZM884.155 350.836L867.523 334.204L850.89 350.836L867.523 367.697L884.155 350.836ZM81.4278 443.836L43.3784 405.559L4.8733 443.836L43.3784 482.114L81.4278 443.836ZM74.4787 443.836L43.3784 475.278L11.8224 443.836L43.3784 412.508L74.4787 443.836ZM137.035 460.697L153.896 443.836L137.035 427.204L120.175 443.836L137.035 460.697ZM158.68 482.114L175.313 465.481L158.68 448.621L141.82 465.481L158.68 482.114ZM158.68 439.052L175.313 422.419L158.68 405.559L141.82 422.419L158.68 439.052ZM180.097 460.697L196.73 443.836L180.097 427.204L163.465 443.836L180.097 460.697ZM137.035 453.861L127.01 443.836L137.035 433.811L147.06 443.836L137.035 453.861ZM180.097 453.861L170.072 443.836L180.097 433.811L190.122 443.836L180.097 453.861ZM158.68 475.278L148.655 465.481L158.68 455.456L168.477 465.481L158.68 475.278ZM158.68 432.216L148.655 422.419L158.68 412.394L168.477 422.419L158.68 432.216ZM274.438 456.709C281.529 456.709 287.311 450.928 287.311 443.836C287.311 436.745 281.529 430.963 274.438 430.963C267.346 430.963 261.565 436.745 261.565 443.836C261.565 450.928 267.346 456.709 274.438 456.709ZM274.438 451.013C270.479 451.013 267.261 447.795 267.261 443.836C267.261 439.878 270.479 436.659 274.438 436.659C278.397 436.659 281.615 439.878 281.615 443.836C281.615 447.795 278.397 451.013 274.438 451.013ZM250.97 471.177L263.274 458.874L259.4 455.001L247.097 467.304L250.97 471.177ZM297.906 471.177L301.779 467.304L289.475 455.001L285.602 458.874L297.906 471.177ZM259.4 432.672L263.274 428.799L250.97 416.495L247.097 420.369L259.4 432.672ZM289.475 432.672L301.779 420.369L297.906 416.495L285.602 428.799L289.475 432.672ZM271.704 479.721H277.172V462.405H271.704V479.721ZM238.553 446.57H255.869V441.102H238.553V446.57ZM293.007 446.57H310.323V441.102H293.007V446.57ZM271.704 425.267H277.172V407.951H271.704V425.267ZM391.15 456.709C398.241 456.709 404.023 450.928 404.023 443.836C404.023 436.745 398.241 430.963 391.15 430.963C384.058 430.963 378.277 436.745 378.277 443.836C378.277 450.928 384.058 456.709 391.15 456.709ZM367.682 471.177L379.985 458.874L376.112 455.001L363.809 467.304L367.682 471.177ZM414.617 471.177L418.49 467.304L406.187 455.001L402.314 458.874L414.617 471.177ZM376.112 432.672L379.985 428.799L367.682 416.495L363.809 420.369L376.112 432.672ZM406.187 432.672L418.49 420.369L414.617 416.495L402.314 428.799L406.187 432.672ZM388.415 479.721H393.884V462.405H388.415V479.721ZM355.265 446.57H372.581V441.102H355.265V446.57ZM409.719 446.57H427.034V441.102H409.719V446.57ZM388.415 425.267H393.884V407.951H388.415V425.267ZM506.038 473.911L535.316 444.634C542.322 437.628 542.265 426.065 535.316 419.23C528.196 412.223 517.06 412.28 509.912 419.23L506.038 422.989L502.165 419.23C495.017 412.28 483.881 412.223 476.761 419.23C469.812 426.065 469.755 437.628 476.761 444.634L506.038 473.911ZM506.038 465.054L481.204 440.191C476.675 435.691 476.647 428.115 481.147 423.701C485.818 419.116 493.052 419.116 497.808 423.729L506.038 431.732L514.269 423.729C519.025 419.116 526.259 419.116 530.93 423.701C535.43 428.115 535.401 435.691 530.873 440.191L506.038 465.054ZM619.069 473.911L648.347 444.634C655.353 437.628 655.296 426.065 648.347 419.23C641.227 412.223 630.091 412.28 622.942 419.23L619.069 422.989L615.196 419.23C608.047 412.28 596.912 412.223 589.792 419.23C582.842 426.065 582.785 437.628 589.792 444.634L619.069 473.911ZM732.1 473.911L761.377 444.634C768.383 437.628 768.326 426.065 761.377 419.23C754.257 412.223 743.121 412.28 735.973 419.23L732.1 422.989L728.226 419.23C721.078 412.28 709.942 412.223 702.822 419.23C695.873 426.065 695.816 437.628 702.822 444.634L732.1 473.911ZM846.042 458.019L867.573 473.57L859.086 448.279L880.674 432.672H854.244L846.042 407.382L837.839 432.672H811.41L832.998 448.279L824.511 473.57L846.042 458.019ZM42.9227 551.019L64.4537 566.57L55.9666 541.279L77.5545 525.672H51.125L42.9227 500.382L34.7205 525.672H8.29091L29.8788 541.279L21.3918 566.57L42.9227 551.019ZM42.9227 543.956L32.442 551.532L36.6001 539.115L25.8916 531.368H38.8786L42.9227 518.837L47.0239 531.368H59.9538L49.2453 539.115L53.4034 551.532L42.9227 543.956ZM115.318 536.836H132.634V566H165.443V536.836H182.759L149.039 503.116L115.318 536.836ZM220.466 536.836H237.782V566H270.591V536.836H287.907L254.187 503.116L220.466 536.836ZM233.254 531.71L254.187 510.777L275.12 531.71H264.895V560.874H243.478V531.71H233.254ZM342.93 554.038H375.739V536.836H393.055L359.335 503.116L325.614 536.836H342.93V554.038ZM348.626 548.912V531.71H338.402L359.335 510.777L380.267 531.71H370.043V548.912H348.626ZM342.93 578.189H375.739V560.874H342.93V578.189ZM348.626 573.063V566H370.043V573.063H348.626ZM445.515 567.31C452.35 567.31 457.903 561.756 457.932 554.95V548.342H469.381V554.95C469.352 561.756 474.906 567.31 481.741 567.31C488.548 567.31 494.102 561.756 494.102 554.95C494.102 548.114 488.548 542.561 481.741 542.532H475.191V531.083H481.741C488.548 531.112 494.102 525.558 494.102 518.723C494.102 511.916 488.548 506.363 481.741 506.363C474.906 506.363 469.352 511.916 469.381 518.723V525.273H457.932V518.723C457.903 511.916 452.35 506.363 445.515 506.363C438.708 506.363 433.154 511.916 433.154 518.723C433.154 525.558 438.708 531.112 445.515 531.083H452.122V542.532H445.515C438.708 542.561 433.154 548.114 433.154 554.95C433.154 561.756 438.708 567.31 445.515 567.31ZM445.515 561.5C441.898 561.5 438.964 558.567 438.964 554.95C438.964 551.304 441.898 548.371 445.515 548.342H452.122V554.95C452.093 558.567 449.16 561.5 445.515 561.5ZM445.515 525.273C441.898 525.302 438.964 522.368 438.964 518.723C438.964 515.106 441.898 512.173 445.515 512.173C449.16 512.173 452.093 515.106 452.122 518.723V525.273H445.515ZM481.741 561.5C478.096 561.5 475.162 558.567 475.191 554.95V548.342H481.741C485.358 548.371 488.292 551.304 488.292 554.95C488.292 558.567 485.358 561.5 481.741 561.5ZM475.191 525.273V518.723C475.162 515.106 478.096 512.173 481.741 512.173C485.358 512.173 488.292 515.106 488.292 518.723C488.292 522.368 485.358 525.302 481.741 525.273H475.191ZM457.932 542.532V531.083H469.381V542.532H457.932ZM539.769 534.786L558.793 515.818L577.818 534.786L582.147 530.457L558.793 507.103L535.44 530.457L539.769 534.786ZM626.746 549.368L645.771 530.4L664.796 549.368L669.125 545.039L645.771 521.685L622.417 545.039L626.746 549.368ZM622.531 513.938H669.011V507.673H622.531V513.938ZM708.142 513.938H726.825L753.14 566H775.583V559.734H756.9L730.584 507.673H708.142V513.938ZM748.299 507.673V513.938H775.583V507.673H748.299ZM813.29 566H835.732L862.047 513.938H880.73V507.673H858.288L831.972 559.734H813.29V566ZM853.446 566H880.73V559.734H853.446V566ZM39.2773 606.938C51.9509 606.938 62.1468 617.163 62.1753 629.836C62.2038 642.51 51.9509 652.734 39.2773 652.734C26.6321 652.734 16.3508 642.482 16.3793 629.836H10.1136C10.0852 645.956 23.186 659 39.2773 659C55.4255 659 68.4694 645.956 68.4409 629.836C68.4124 613.717 55.4255 600.673 39.2773 600.673V606.938ZM10.1136 620.723L17.9741 612.862L37.1128 632.001L41.4418 627.672L22.3031 608.533L30.1636 600.673H10.1136V620.723ZM150.539 621.292V606.995C162.358 607.935 171.586 617.789 171.614 629.836C171.643 642.51 161.39 652.734 148.716 652.734C136.071 652.734 125.79 642.482 125.818 629.836H119.553C119.524 645.956 132.625 659 148.716 659C164.865 659 177.908 645.956 177.88 629.836C177.851 614.315 165.833 601.67 150.539 600.73V587.458L133.622 604.375L150.539 621.292ZM258.155 659C274.247 659 287.348 645.956 287.319 629.836H281.053C281.082 642.482 270.801 652.734 258.155 652.734C245.482 652.734 235.229 642.51 235.257 629.836C235.286 617.789 244.513 607.935 256.333 606.995V621.292L273.25 604.375L256.333 587.458V600.73C241.039 601.67 229.02 614.315 228.992 629.836C228.963 645.956 242.007 659 258.155 659ZM365.088 659H419.542V600.673H365.088L336.095 629.836L365.088 659ZM367.623 652.734L344.839 629.836L367.623 606.938H413.39V652.734H367.623ZM402.198 642.709L389.296 629.836L402.198 616.963L398.04 612.748L385.11 625.65L372.18 612.748L368.022 616.963L380.923 629.836L368.022 642.709L372.18 646.924L385.11 634.023L398.04 646.924L402.198 642.709ZM467.037 659H521.491L550.484 629.836L521.491 600.673H467.037V659ZM473.189 652.734V606.938H518.985L541.769 629.836L518.985 652.734H473.189ZM488.568 646.924L501.498 634.023L514.428 646.924L518.586 642.709L505.685 629.836L518.586 616.963L514.428 612.748L501.498 625.65L488.568 612.748L484.41 616.963L497.311 629.836L484.41 642.709L488.568 646.924ZM597.466 659H666.616V600.673H597.466V659ZM603.732 652.734V606.938H660.35V652.734H603.732ZM644.971 646.924L649.129 642.709L636.227 629.836L649.129 616.963L644.971 612.748L632.041 625.65L619.111 612.748L614.953 616.963L627.854 629.836L614.953 642.709L619.111 646.924L632.041 634.023L644.971 646.924ZM712.06 629.836H770.843L741.451 599.818L712.06 629.836ZM712.174 650.228H770.672V638.95H712.174V650.228ZM833.809 650.399V636.558H880.004V600.673H857.277V606.824H873.852V630.406H833.809V616.565L816.892 633.482L833.809 650.399ZM25.8347 743.399V729.558H72.0294V693.673H65.8777V723.406H25.8347V709.565L8.91747 726.482L25.8347 743.399ZM164.86 743.399L181.777 726.482L164.86 709.565V723.406H124.817V693.673H118.665V729.558H164.86V743.399ZM245.215 725.684V711.843H285.259V752H291.41V705.691H245.215V691.85L228.298 708.767L245.215 725.684ZM384.24 725.684L401.158 708.767L384.24 691.85V705.691H338.046V752H344.197V711.843H384.24V725.684ZM481.457 752.911L498.374 735.994H484.532V693.616H447.736V699.767H478.324L478.381 735.994H464.539L481.457 752.911ZM573.034 739.754V725.912H610.741V719.761H573.034V705.919L556.116 722.836L573.034 739.754ZM544.212 739.697H550.363V705.976H544.212V739.697ZM693.724 739.754L710.642 722.836L693.724 705.919V719.761H656.017V725.912H693.724V739.754ZM716.395 739.697H722.546V705.976H716.395V739.697ZM767.822 708.255H781.663V719.191H771.866V724.887H781.663V731.779H771.866V737.475H781.663V752H787.815V737.475H797.612V731.779H787.815V724.887H797.612V719.191H787.815V708.255H801.656L784.739 691.337L767.822 708.255ZM863.806 753.766L880.723 736.849H866.882V725.912H876.679V720.216H866.882V713.324H876.679V707.628H866.882V693.103H860.73V707.628H850.933V713.324H860.73V720.216H850.933V725.912H860.73V736.849H846.889L863.806 753.766ZM8.06307 786.673V845H14.6705V800.685H15.2401L33.4673 845H39.8469L58.0741 800.685H58.6437V845H65.2511V786.673H56.821L36.9989 835.089H36.3153L16.4932 786.673H8.06307Z" fill="black" fill-opacity="0.9"/>
<path d="M5.37216 10.0909H6.1392C6.10405 9.10334 5.19318 8.36506 3.92756 8.36506C2.67472 8.36506 1.69034 9.09375 1.69034 10.1932C1.69034 11.0753 2.32955 11.5994 3.35227 11.8935L4.15767 12.1236C4.84801 12.3153 5.46165 12.5582 5.46165 13.2102C5.46165 13.9261 4.77131 14.3991 3.86364 14.3991C3.08381 14.3991 2.39347 14.054 2.32955 13.3125H1.51136C1.58807 14.3864 2.45739 15.1151 3.86364 15.1151C5.37216 15.1151 6.22869 14.2841 6.22869 13.223C6.22869 11.9957 5.06534 11.5994 4.38778 11.4205L3.72301 11.2415C3.23722 11.1136 2.45739 10.858 2.45739 10.1548C2.45739 9.52841 3.03267 9.06818 3.90199 9.06818C4.6946 9.06818 5.29545 9.44531 5.37216 10.0909ZM7.23937 8.45455L9.60443 12.3026V15H10.397V12.3026L12.7621 8.45455H11.8544L10.0391 11.5099H9.96238L8.14704 8.45455H7.23937ZM14.0572 8.45455V15H14.7987V10.027H14.8626L16.9081 15H17.624L19.6694 10.027H19.7334V15H20.4748V8.45455H19.5288L17.3044 13.8878H17.2277L15.0032 8.45455H14.0572ZM22.3341 15H24.6991C26.246 15 26.8852 14.2457 26.8852 13.2614C26.8852 12.2259 26.1693 11.6634 25.5684 11.625V11.5611C26.1309 11.4077 26.6295 11.0369 26.6295 10.1932C26.6295 9.23438 25.9903 8.45455 24.6224 8.45455H22.3341V15ZM23.1267 14.2969V12.0213H24.7375C25.594 12.0213 26.1309 12.5966 26.1309 13.2614C26.1309 13.8366 25.7346 14.2969 24.6991 14.2969H23.1267ZM23.1267 11.331V9.15767H24.6224C25.4917 9.15767 25.8753 9.6179 25.8753 10.1932C25.8753 10.8835 25.3128 11.331 24.5968 11.331H23.1267ZM33.9803 11.7273C33.9803 9.65625 32.7658 8.36506 31.0911 8.36506C29.4164 8.36506 28.2019 9.65625 28.2019 11.7273C28.2019 13.7983 29.4164 15.0895 31.0911 15.0895C32.7658 15.0895 33.9803 13.7983 33.9803 11.7273ZM33.2133 11.7273C33.2133 13.4276 32.28 14.348 31.0911 14.348C29.9022 14.348 28.9689 13.4276 28.9689 11.7273C28.9689 10.027 29.9022 9.10653 31.0911 9.10653C32.28 9.10653 33.2133 10.027 33.2133 11.7273ZM35.583 15H39.4183V14.2969H36.3757V8.45455H35.583V15ZM44.4951 10.0909H45.2621C45.227 9.10334 44.3161 8.36506 43.0505 8.36506C41.7976 8.36506 40.8133 9.09375 40.8133 10.1932C40.8133 11.0753 41.4525 11.5994 42.4752 11.8935L43.2806 12.1236C43.9709 12.3153 44.5846 12.5582 44.5846 13.2102C44.5846 13.9261 43.8942 14.3991 42.9866 14.3991C42.2067 14.3991 41.5164 14.054 41.4525 13.3125H40.6343C40.711 14.3864 41.5803 15.1151 42.9866 15.1151C44.4951 15.1151 45.3516 14.2841 45.3516 13.223C45.3516 11.9957 44.1883 11.5994 43.5107 11.4205L42.8459 11.2415C42.3601 11.1136 41.5803 10.858 41.5803 10.1548C41.5803 9.52841 42.1556 9.06818 43.0249 9.06818C43.8175 9.06818 44.4184 9.44531 44.4951 10.0909Z" fill="black" fill-opacity="0.4"/>
<line x1="1" y1="0.5" x2="888" y2="0.5" stroke="black" stroke-opacity="0.2"/>
</g>
<defs>
<clipPath id="clip0">
<rect width="888" height="760" fill="white"/>
</clipPath>
</defs>
</svg>
