<svg width="888" height="760" viewBox="0 0 888 760" fill="none" xmlns="http://www.w3.org/2000/svg">
<g clip-path="url(#clip0)">
<rect width="888" height="760" fill="white"/>
<path d="M40.7582 118.379C46.5682 118.379 53.973 116.67 57.5045 115.189L55.9097 109.949C53.8591 110.633 47.2517 112.911 40.9861 112.911C21.5057 112.911 11.1389 101.975 11.1389 82.6082C11.1389 63.5835 21.7335 52.1915 39.619 52.1915C57.7324 52.1915 66.2764 64.9506 66.2764 77.7097C66.2764 90.6966 64.9094 96.5065 59.0994 96.5065C55.6818 96.5065 53.8591 93.6585 53.8591 90.4688V64.7227H47.8213V67.9125H47.4795C46.6821 65.4063 42.2392 63.2418 36.5432 63.8114C27.9991 64.7227 21.5057 71.7858 21.5057 82.0386C21.5057 92.8611 26.6321 101.177 36.5432 101.519C43.0366 101.747 46.4543 98.5571 47.8213 95.2534H48.1631C48.8466 100.152 54.9983 101.861 58.9855 101.861C71.0611 101.861 72.2003 88.8739 72.2003 77.8236C72.2003 62.2165 61.2639 46.8372 39.9608 46.8372C17.9741 46.8372 4.8733 60.1659 4.8733 82.3804C4.8733 105.392 17.5185 118.379 40.7582 118.379ZM37.4545 95.7091C30.0497 95.7091 27.4295 88.9878 27.4295 81.6969C27.4295 75.0895 31.1889 69.3935 37.6824 69.3935C44.5176 69.3935 48.1631 72.1276 48.1631 81.6969C48.1631 91.1523 45.0872 95.7091 37.4545 95.7091ZM124.304 92.2915C131.225 92.2915 136.835 86.6809 136.835 79.7602C136.835 72.8396 131.225 67.229 124.304 67.229C117.383 67.229 111.773 72.8396 111.773 79.7602C111.773 86.6809 117.383 92.2915 124.304 92.2915ZM190.691 92.2915C197.611 92.2915 203.222 86.6809 203.222 79.7602C203.222 72.8396 197.611 67.229 190.691 67.229C183.77 67.229 178.159 72.8396 178.159 79.7602C178.159 86.6809 183.77 92.2915 190.691 92.2915ZM190.691 87.279C186.533 87.279 183.172 83.9183 183.172 79.7602C183.172 75.6021 186.533 72.2415 190.691 72.2415C194.849 72.2415 198.209 75.6021 198.209 79.7602C198.209 83.9183 194.849 87.279 190.691 87.279ZM247.907 92.5193L268.982 79.7602L247.907 67.0011V92.5193ZM329.046 96.3926H346.476V63.1278H329.046C317.825 63.1278 310.932 69.1087 310.932 79.7602C310.932 90.4118 317.825 96.3926 329.046 96.3926ZM339.413 90.127H332.349V69.3935H339.413V90.127ZM388.74 90.4688H406.169C417.39 90.4688 424.283 84.4879 424.283 73.8364C424.283 63.1848 417.39 57.204 406.169 57.204H388.74V90.4688ZM395.803 63.4696H402.866V84.2031H395.803V63.4696ZM493.888 103H500.951V44.6727H483.521C471.103 44.6727 464.268 52.5332 464.268 63.0139C464.268 73.6085 471.103 81.3551 483.521 81.3551H486.824V50.9384H493.888V103ZM574.222 58.4571C574.222 49.9131 568.754 43.8753 559.982 43.8753C551.894 43.8753 546.084 49.0017 546.084 56.0648C546.084 59.7102 547.679 62.6722 550.071 65.0645V65.2923C545.4 66.6594 542.097 71.558 542.097 75.6591C542.097 82.7222 547.451 86.5955 550.413 88.3043L561.463 94.6838C564.197 96.2787 567.615 98.2153 567.615 102.544C567.615 106.759 563.855 108.81 559.64 108.81C554.514 108.81 550.755 105.734 550.755 100.152H544.147C544.147 109.266 550.641 114.848 559.64 114.848C567.159 114.848 574.108 110.974 574.108 102.544C574.108 98.8989 572.855 95.7091 570.121 93.3168V93.2028C574.45 91.8358 578.095 87.1651 578.095 82.95C578.095 75.8869 572.741 72.1276 569.779 70.4188L558.729 63.9253C555.995 62.3304 552.577 59.4824 552.577 56.0648C552.577 53.2168 554.856 49.9131 559.982 49.9131C565.336 49.9131 567.729 53.5585 567.729 58.4571H574.222ZM571.83 82.95C571.83 87.6207 566.817 90.6966 564.425 89.3295L553.83 83.1778C550.982 81.469 548.362 79.3045 548.362 75.6591C548.362 70.8744 552.805 67.5707 555.311 69.0517L566.476 75.5452C569.21 77.1401 571.83 79.6463 571.83 82.95ZM631.958 62.5582C623.186 62.5582 616.237 69.5074 616.237 78.1653C616.237 86.9372 623.186 93.8864 631.958 93.8864C638.11 93.8864 642.78 90.8105 645.97 87.7347C647.337 86.3676 648.476 85.0006 649.502 83.7474C650.413 85.0006 651.552 86.3676 652.919 87.7347C656.109 90.8105 660.78 93.8864 667.045 93.8864C675.703 93.8864 682.653 86.9372 682.653 78.1653C682.653 69.5074 675.703 62.5582 667.045 62.5582C660.78 62.5582 656.109 65.6341 652.919 68.8239C651.324 70.3048 650.413 71.444 649.502 72.6972C648.476 71.444 647.337 70.077 645.97 68.8239C642.78 65.6341 638.11 62.5582 631.958 62.5582ZM676.159 78.1653C676.159 83.2918 672.058 87.3929 667.045 87.3929C663.172 87.3929 660.096 85.4563 657.476 82.95C655.767 81.2412 654.514 79.6463 653.489 78.1653C654.058 77.4818 655.426 75.4313 657.476 73.4946C659.982 70.9884 663.172 69.0517 667.045 69.0517C672.058 69.0517 676.159 73.1528 676.159 78.1653ZM622.73 78.1653C622.73 73.1528 626.831 69.0517 631.958 69.0517C635.717 69.0517 638.907 70.9884 641.413 73.4946C643.236 75.2034 644.375 76.7983 645.401 78.1653C644.375 79.6463 643.122 81.2412 641.413 82.95C638.793 85.4563 635.717 87.3929 631.958 87.3929C626.831 87.3929 622.73 83.2918 622.73 78.1653ZM725.401 76.6844L744.767 95.9369L780.31 60.5077L775.867 56.0648L744.767 87.0511L729.729 72.2415L725.401 76.6844ZM837.405 95.9369L852.67 80.7286L867.936 95.9369L872.379 91.494L857.113 76.2857L872.379 61.0773L867.936 56.6344L852.67 71.8428L837.405 56.6344L832.962 61.0773L848.228 76.2857L832.962 91.494L837.405 95.9369ZM34.4357 196L38.8216 191.614L20.7652 173.615H67.5295V167.349H20.7652L38.8216 149.293L34.4357 144.964L8.91747 170.482L34.4357 196ZM141.357 196L145.743 191.614L127.687 173.615H205.438V167.349H127.687L145.743 149.293L141.357 144.964L115.839 170.482L141.357 196ZM288.977 196L314.495 170.482L288.977 144.964L284.591 149.35L302.647 167.349H255.883V173.615H302.647L284.591 191.671L288.977 196ZM426.885 196L452.403 170.482L426.885 144.964L422.499 149.293L440.555 167.349H362.805V173.615H440.555L422.499 191.614L426.885 196ZM507.747 173.786H513.956L513.899 148.267L546.936 181.361L551.379 176.918L518.342 143.824H543.86L543.803 137.673H507.747V173.786ZM617.973 181.361L651.01 148.267L650.953 173.786H657.161V137.673H621.105L621.048 143.824H646.567L613.53 176.918L617.973 181.361ZM764.083 159.887H757.874L757.931 185.405L724.894 152.312L720.451 156.754L753.488 189.848H727.97L728.027 196H764.083V159.887ZM867.701 152.312L834.664 185.405L834.721 159.887H828.512V196H864.568L864.625 189.848H839.107L872.144 156.754L867.701 152.312ZM34.4357 289L38.8216 284.614L20.7652 266.615H88.7757L70.7193 284.614L75.1053 289L100.623 263.482L75.1053 237.964L70.7193 242.293L88.7757 260.349H20.7652L38.8216 242.293L34.4357 237.964L8.91747 263.482L34.4357 289ZM179.684 289L184.07 284.614L166.014 266.615H266.834L248.777 284.614L253.163 289L278.681 263.482L253.163 237.964L248.777 242.293L266.834 260.349H166.014L184.07 242.293L179.684 237.964L154.166 263.482L179.684 289ZM359.458 289H365.724V242.179L383.78 260.235L388.109 255.849L362.591 230.331L337.016 255.849L341.459 260.235L359.458 242.179V289ZM479.958 230.673H473.692V277.494L455.636 259.438L451.307 263.824L476.825 289.342L502.4 263.824L497.957 259.438L479.958 277.494V230.673ZM591.059 306.43L616.577 280.912L612.248 276.526L594.192 294.582V233.407L612.248 251.463L616.577 247.077L591.059 221.559L565.541 247.077L569.927 251.463L587.926 233.407V294.582L569.927 276.526L565.541 280.912L591.059 306.43ZM700.451 289L704.809 284.643L686.752 266.615H732.121C742.516 266.615 750.975 258.128 750.975 247.704C750.975 237.309 742.516 228.85 732.121 228.85H729.216V235.116H732.121C739.042 235.116 744.709 240.783 744.709 247.704C744.709 254.681 739.07 260.349 732.121 260.349H686.752L704.809 242.321L700.451 237.964L674.933 263.482L700.451 289ZM822.909 266.615H868.306L850.25 284.614L854.579 289L880.097 263.482L854.579 237.964L850.25 242.293L868.306 260.349H822.909C815.96 260.349 810.32 254.681 810.32 247.704C810.32 240.783 815.988 235.116 822.909 235.116H825.814V228.85H822.909C812.513 228.85 804.055 237.309 804.055 247.704C804.055 258.128 812.513 266.615 822.909 266.615ZM8.51875 389.291L70.4915 352.836L8.51875 316.382V389.291ZM115.959 323.673L152.414 385.645L188.868 323.673H115.959ZM234.45 382H307.359L270.904 320.027L234.45 382ZM414.799 389.291V316.382L352.826 352.836L414.799 389.291ZM496.607 382.911C513.268 382.911 526.739 369.44 526.682 352.836C526.626 336.232 513.268 322.761 496.607 322.761C480.061 322.761 466.589 336.232 466.532 352.836C466.476 369.44 480.061 382.911 496.607 382.911ZM607.579 382.911C624.24 382.911 637.711 369.44 637.654 352.836C637.597 336.232 624.24 322.761 607.579 322.761C591.032 322.761 577.561 336.232 577.504 352.836C577.447 369.44 591.032 382.911 607.579 382.911ZM607.579 376.304C594.621 376.304 584.055 365.738 584.112 352.865C584.169 339.906 594.678 329.369 607.579 329.369C620.538 329.369 630.99 339.849 631.047 352.865C631.104 365.795 620.595 376.304 607.579 376.304ZM762.297 352.836L724.247 314.559L685.742 352.836L724.247 391.114L762.297 352.836ZM841.321 352.836L824.461 336.204L807.601 352.836L824.461 369.697L841.321 352.836ZM862.738 374.481L846.106 357.621L829.246 374.481L846.106 391.114L862.738 374.481ZM862.738 331.419L846.106 314.559L829.246 331.419L846.106 348.052L862.738 331.419ZM884.155 352.836L867.523 336.204L850.89 352.836L867.523 369.697L884.155 352.836ZM81.4278 445.836L43.3784 407.559L4.8733 445.836L43.3784 484.114L81.4278 445.836ZM74.4787 445.836L43.3784 477.278L11.8224 445.836L43.3784 414.508L74.4787 445.836ZM137.035 462.697L153.896 445.836L137.035 429.204L120.175 445.836L137.035 462.697ZM158.68 484.114L175.313 467.481L158.68 450.621L141.82 467.481L158.68 484.114ZM158.68 441.052L175.313 424.419L158.68 407.559L141.82 424.419L158.68 441.052ZM180.097 462.697L196.73 445.836L180.097 429.204L163.465 445.836L180.097 462.697ZM137.035 455.861L127.01 445.836L137.035 435.811L147.06 445.836L137.035 455.861ZM180.097 455.861L170.072 445.836L180.097 435.811L190.122 445.836L180.097 455.861ZM158.68 477.278L148.655 467.481L158.68 457.456L168.477 467.481L158.68 477.278ZM158.68 434.216L148.655 424.419L158.68 414.394L168.477 424.419L158.68 434.216ZM274.438 458.709C281.529 458.709 287.311 452.928 287.311 445.836C287.311 438.745 281.529 432.963 274.438 432.963C267.346 432.963 261.565 438.745 261.565 445.836C261.565 452.928 267.346 458.709 274.438 458.709ZM274.438 453.013C270.479 453.013 267.261 449.795 267.261 445.836C267.261 441.878 270.479 438.659 274.438 438.659C278.397 438.659 281.615 441.878 281.615 445.836C281.615 449.795 278.397 453.013 274.438 453.013ZM250.97 473.177L263.274 460.874L259.4 457.001L247.097 469.304L250.97 473.177ZM297.906 473.177L301.779 469.304L289.475 457.001L285.602 460.874L297.906 473.177ZM259.4 434.672L263.274 430.799L250.97 418.495L247.097 422.369L259.4 434.672ZM289.475 434.672L301.779 422.369L297.906 418.495L285.602 430.799L289.475 434.672ZM271.704 481.721H277.172V464.405H271.704V481.721ZM238.553 448.57H255.869V443.102H238.553V448.57ZM293.007 448.57H310.323V443.102H293.007V448.57ZM271.704 427.267H277.172V409.951H271.704V427.267ZM391.15 458.709C398.241 458.709 404.023 452.928 404.023 445.836C404.023 438.745 398.241 432.963 391.15 432.963C384.058 432.963 378.277 438.745 378.277 445.836C378.277 452.928 384.058 458.709 391.15 458.709ZM367.682 473.177L379.985 460.874L376.112 457.001L363.809 469.304L367.682 473.177ZM414.617 473.177L418.49 469.304L406.187 457.001L402.314 460.874L414.617 473.177ZM376.112 434.672L379.985 430.799L367.682 418.495L363.809 422.369L376.112 434.672ZM406.187 434.672L418.49 422.369L414.617 418.495L402.314 430.799L406.187 434.672ZM388.415 481.721H393.884V464.405H388.415V481.721ZM355.265 448.57H372.581V443.102H355.265V448.57ZM409.719 448.57H427.034V443.102H409.719V448.57ZM388.415 427.267H393.884V409.951H388.415V427.267ZM506.038 475.911L535.316 446.634C542.322 439.628 542.265 428.065 535.316 421.23C528.196 414.223 517.06 414.28 509.912 421.23L506.038 424.989L502.165 421.23C495.017 414.28 483.881 414.223 476.761 421.23C469.812 428.065 469.755 439.628 476.761 446.634L506.038 475.911ZM506.038 467.054L481.204 442.191C476.675 437.691 476.647 430.115 481.147 425.701C485.818 421.116 493.052 421.116 497.808 425.729L506.038 433.732L514.269 425.729C519.025 421.116 526.259 421.116 530.93 425.701C535.43 430.115 535.401 437.691 530.873 442.191L506.038 467.054ZM619.069 475.911L648.347 446.634C655.353 439.628 655.296 428.065 648.347 421.23C641.227 414.223 630.091 414.28 622.942 421.23L619.069 424.989L615.196 421.23C608.047 414.28 596.912 414.223 589.792 421.23C582.842 428.065 582.785 439.628 589.792 446.634L619.069 475.911ZM732.1 475.911L761.377 446.634C768.383 439.628 768.326 428.065 761.377 421.23C754.257 414.223 743.121 414.28 735.973 421.23L732.1 424.989L728.226 421.23C721.078 414.28 709.942 414.223 702.822 421.23C695.873 428.065 695.816 439.628 702.822 446.634L732.1 475.911ZM846.042 460.019L867.573 475.57L859.086 450.279L880.674 434.672H854.244L846.042 409.382L837.839 434.672H811.41L832.998 450.279L824.511 475.57L846.042 460.019ZM42.9227 553.019L64.4537 568.57L55.9666 543.279L77.5545 527.672H51.125L42.9227 502.382L34.7205 527.672H8.29091L29.8788 543.279L21.3918 568.57L42.9227 553.019ZM42.9227 545.956L32.442 553.532L36.6001 541.115L25.8916 533.368H38.8786L42.9227 520.837L47.0239 533.368H59.9538L49.2453 541.115L53.4034 553.532L42.9227 545.956ZM115.318 538.836H132.634V568H165.443V538.836H182.759L149.039 505.116L115.318 538.836ZM220.466 538.836H237.782V568H270.591V538.836H287.907L254.187 505.116L220.466 538.836ZM233.254 533.71L254.187 512.777L275.12 533.71H264.895V562.874H243.478V533.71H233.254ZM342.93 556.038H375.739V538.836H393.055L359.335 505.116L325.614 538.836H342.93V556.038ZM348.626 550.912V533.71H338.402L359.335 512.777L380.267 533.71H370.043V550.912H348.626ZM342.93 580.189H375.739V562.874H342.93V580.189ZM348.626 575.063V568H370.043V575.063H348.626ZM445.515 569.31C452.35 569.31 457.903 563.756 457.932 556.95V550.342H469.381V556.95C469.352 563.756 474.906 569.31 481.741 569.31C488.548 569.31 494.102 563.756 494.102 556.95C494.102 550.114 488.548 544.561 481.741 544.532H475.191V533.083H481.741C488.548 533.112 494.102 527.558 494.102 520.723C494.102 513.916 488.548 508.363 481.741 508.363C474.906 508.363 469.352 513.916 469.381 520.723V527.273H457.932V520.723C457.903 513.916 452.35 508.363 445.515 508.363C438.708 508.363 433.154 513.916 433.154 520.723C433.154 527.558 438.708 533.112 445.515 533.083H452.122V544.532H445.515C438.708 544.561 433.154 550.114 433.154 556.95C433.154 563.756 438.708 569.31 445.515 569.31ZM445.515 563.5C441.898 563.5 438.964 560.567 438.964 556.95C438.964 553.304 441.898 550.371 445.515 550.342H452.122V556.95C452.093 560.567 449.16 563.5 445.515 563.5ZM445.515 527.273C441.898 527.302 438.964 524.368 438.964 520.723C438.964 517.106 441.898 514.173 445.515 514.173C449.16 514.173 452.093 517.106 452.122 520.723V527.273H445.515ZM481.741 563.5C478.096 563.5 475.162 560.567 475.191 556.95V550.342H481.741C485.358 550.371 488.292 553.304 488.292 556.95C488.292 560.567 485.358 563.5 481.741 563.5ZM475.191 527.273V520.723C475.162 517.106 478.096 514.173 481.741 514.173C485.358 514.173 488.292 517.106 488.292 520.723C488.292 524.368 485.358 527.302 481.741 527.273H475.191ZM457.932 544.532V533.083H469.381V544.532H457.932ZM539.769 536.786L558.793 517.818L577.818 536.786L582.147 532.457L558.793 509.103L535.44 532.457L539.769 536.786ZM626.746 551.368L645.771 532.4L664.796 551.368L669.125 547.039L645.771 523.685L622.417 547.039L626.746 551.368ZM622.531 515.938H669.011V509.673H622.531V515.938ZM708.142 515.938H726.825L753.14 568H775.583V561.734H756.9L730.584 509.673H708.142V515.938ZM748.299 509.673V515.938H775.583V509.673H748.299ZM813.29 568H835.732L862.047 515.938H880.73V509.673H858.288L831.972 561.734H813.29V568ZM853.446 568H880.73V561.734H853.446V568ZM39.2773 608.938C51.9509 608.938 62.1468 619.163 62.1753 631.836C62.2038 644.51 51.9509 654.734 39.2773 654.734C26.6321 654.734 16.3508 644.482 16.3793 631.836H10.1136C10.0852 647.956 23.186 661 39.2773 661C55.4255 661 68.4694 647.956 68.4409 631.836C68.4124 615.717 55.4255 602.673 39.2773 602.673V608.938ZM10.1136 622.723L17.9741 614.862L37.1128 634.001L41.4418 629.672L22.3031 610.533L30.1636 602.673H10.1136V622.723ZM150.539 623.292V608.995C162.358 609.935 171.586 619.789 171.614 631.836C171.643 644.51 161.39 654.734 148.716 654.734C136.071 654.734 125.79 644.482 125.818 631.836H119.553C119.524 647.956 132.625 661 148.716 661C164.865 661 177.908 647.956 177.88 631.836C177.851 616.315 165.833 603.67 150.539 602.73V589.458L133.622 606.375L150.539 623.292ZM258.155 661C274.247 661 287.348 647.956 287.319 631.836H281.053C281.082 644.482 270.801 654.734 258.155 654.734C245.482 654.734 235.229 644.51 235.257 631.836C235.286 619.789 244.513 609.935 256.333 608.995V623.292L273.25 606.375L256.333 589.458V602.73C241.039 603.67 229.02 616.315 228.992 631.836C228.963 647.956 242.007 661 258.155 661ZM365.088 661H419.542V602.673H365.088L336.095 631.836L365.088 661ZM367.623 654.734L344.839 631.836L367.623 608.938H413.39V654.734H367.623ZM402.198 644.709L389.296 631.836L402.198 618.963L398.04 614.748L385.11 627.65L372.18 614.748L368.022 618.963L380.923 631.836L368.022 644.709L372.18 648.924L385.11 636.023L398.04 648.924L402.198 644.709ZM467.037 661H521.491L550.484 631.836L521.491 602.673H467.037V661ZM473.189 654.734V608.938H518.985L541.769 631.836L518.985 654.734H473.189ZM488.568 648.924L501.498 636.023L514.428 648.924L518.586 644.709L505.685 631.836L518.586 618.963L514.428 614.748L501.498 627.65L488.568 614.748L484.41 618.963L497.311 631.836L484.41 644.709L488.568 648.924ZM597.466 661H666.616V602.673H597.466V661ZM603.732 654.734V608.938H660.35V654.734H603.732ZM644.971 648.924L649.129 644.709L636.227 631.836L649.129 618.963L644.971 614.748L632.041 627.65L619.111 614.748L614.953 618.963L627.854 631.836L614.953 644.709L619.111 648.924L632.041 636.023L644.971 648.924ZM712.06 631.836H770.843L741.451 601.818L712.06 631.836ZM712.174 652.228H770.672V640.95H712.174V652.228ZM833.809 652.399V638.558H880.004V602.673H857.277V608.824H873.852V632.406H833.809V618.565L816.892 635.482L833.809 652.399ZM25.8347 745.399V731.558H72.0294V695.673H65.8777V725.406H25.8347V711.565L8.91747 728.482L25.8347 745.399ZM164.86 745.399L181.777 728.482L164.86 711.565V725.406H124.817V695.673H118.665V731.558H164.86V745.399ZM245.215 727.684V713.843H285.259V754H291.41V707.691H245.215V693.85L228.298 710.767L245.215 727.684ZM384.24 727.684L401.158 710.767L384.24 693.85V707.691H338.046V754H344.197V713.843H384.24V727.684ZM481.457 754.911L498.374 737.994H484.532V695.616H447.736V701.767H478.324L478.381 737.994H464.539L481.457 754.911ZM573.034 741.754V727.912H610.741V721.761H573.034V707.919L556.116 724.836L573.034 741.754ZM544.212 741.697H550.363V707.976H544.212V741.697ZM693.724 741.754L710.642 724.836L693.724 707.919V721.761H656.017V727.912H693.724V741.754ZM716.395 741.697H722.546V707.976H716.395V741.697ZM767.822 710.255H781.663V721.191H771.866V726.887H781.663V733.779H771.866V739.475H781.663V754H787.815V739.475H797.612V733.779H787.815V726.887H797.612V721.191H787.815V710.255H801.656L784.739 693.337L767.822 710.255ZM863.806 755.766L880.723 738.849H866.882V727.912H876.679V722.216H866.882V715.324H876.679V709.628H866.882V695.103H860.73V709.628H850.933V715.324H860.73V722.216H850.933V727.912H860.73V738.849H846.889L863.806 755.766ZM8.06307 788.673V847H14.6705V802.685H15.2401L33.4673 847H39.8469L58.0741 802.685H58.6437V847H65.2511V788.673H56.821L36.9989 837.089H36.3153L16.4932 788.673H8.06307Z" fill="black" fill-opacity="0.9"/>
<path d="M5.37216 10.0909H6.1392C6.10405 9.10334 5.19318 8.36506 3.92756 8.36506C2.67472 8.36506 1.69034 9.09375 1.69034 10.1932C1.69034 11.0753 2.32955 11.5994 3.35227 11.8935L4.15767 12.1236C4.84801 12.3153 5.46165 12.5582 5.46165 13.2102C5.46165 13.9261 4.77131 14.3991 3.86364 14.3991C3.08381 14.3991 2.39347 14.054 2.32955 13.3125H1.51136C1.58807 14.3864 2.45739 15.1151 3.86364 15.1151C5.37216 15.1151 6.22869 14.2841 6.22869 13.223C6.22869 11.9957 5.06534 11.5994 4.38778 11.4205L3.72301 11.2415C3.23722 11.1136 2.45739 10.858 2.45739 10.1548C2.45739 9.52841 3.03267 9.06818 3.90199 9.06818C4.6946 9.06818 5.29545 9.44531 5.37216 10.0909ZM7.23937 8.45455L9.60443 12.3026V15H10.397V12.3026L12.7621 8.45455H11.8544L10.0391 11.5099H9.96238L8.14704 8.45455H7.23937ZM14.0572 8.45455V15H14.7987V10.027H14.8626L16.9081 15H17.624L19.6694 10.027H19.7334V15H20.4748V8.45455H19.5288L17.3044 13.8878H17.2277L15.0032 8.45455H14.0572ZM22.5362 15H24.9013C26.4481 15 27.0873 14.2457 27.0873 13.2614C27.0873 12.2259 26.3714 11.6634 25.7706 11.625V11.5611C26.3331 11.4077 26.8317 11.0369 26.8317 10.1932C26.8317 9.23438 26.1925 8.45455 24.8246 8.45455H22.5362V15ZM23.3288 14.2969V12.0213H24.9396C25.7962 12.0213 26.3331 12.5966 26.3331 13.2614C26.3331 13.8366 25.9368 14.2969 24.9013 14.2969H23.3288ZM23.3288 11.331V9.15767H24.8246C25.6939 9.15767 26.0774 9.6179 26.0774 10.1932C26.0774 10.8835 25.5149 11.331 24.799 11.331H23.3288ZM34.1825 11.7273C34.1825 9.65625 32.968 8.36506 31.2932 8.36506C29.6185 8.36506 28.404 9.65625 28.404 11.7273C28.404 13.7983 29.6185 15.0895 31.2932 15.0895C32.968 15.0895 34.1825 13.7983 34.1825 11.7273ZM33.4154 11.7273C33.4154 13.4276 32.4822 14.348 31.2932 14.348C30.1043 14.348 29.1711 13.4276 29.1711 11.7273C29.1711 10.027 30.1043 9.10653 31.2932 9.10653C32.4822 9.10653 33.4154 10.027 33.4154 11.7273ZM35.7852 15H39.6204V14.2969H36.5778V8.45455H35.7852V15ZM44.6972 10.0909H45.4643C45.4291 9.10334 44.5183 8.36506 43.2526 8.36506C41.9998 8.36506 41.0154 9.09375 41.0154 10.1932C41.0154 11.0753 41.6546 11.5994 42.6773 11.8935L43.4827 12.1236C44.1731 12.3153 44.7867 12.5582 44.7867 13.2102C44.7867 13.9261 44.0964 14.3991 43.1887 14.3991C42.4089 14.3991 41.7185 14.054 41.6546 13.3125H40.8364C40.9131 14.3864 41.7825 15.1151 43.1887 15.1151C44.6972 15.1151 45.5538 14.2841 45.5538 13.223C45.5538 11.9957 44.3904 11.5994 43.7129 11.4205L43.0481 11.2415C42.5623 11.1136 41.7825 10.858 41.7825 10.1548C41.7825 9.52841 42.3577 9.06818 43.2271 9.06818C44.0197 9.06818 44.6205 9.44531 44.6972 10.0909Z" fill="black" fill-opacity="0.4"/>
<line x1="1" y1="0.5" x2="888" y2="0.5" stroke="black" stroke-opacity="0.2"/>
</g>
<defs>
<clipPath id="clip0">
<rect width="888" height="760" fill="white"/>
</clipPath>
</defs>
</svg>
