<svg width="888" height="307" viewBox="0 0 888 307" fill="none" xmlns="http://www.w3.org/2000/svg">
<g clip-path="url(#clip0)">
<path d="M50.1705 27C48.1193 15.6648 39.0511 8.97159 27.9318 8.97159C13.7898 8.97159 3.53409 19.875 3.53409 37.3636C3.53409 54.8523 13.7898 65.7557 27.9318 65.7557C39.0511 65.7557 48.1193 59.0625 50.1705 47.7273H43.4773C41.858 55.392 35.2727 59.4943 27.9318 59.4943C17.892 59.4943 10.0114 51.7216 10.0114 37.3636C10.0114 23.0057 17.892 15.233 27.9318 15.233C35.2727 15.233 41.858 19.3352 43.4773 27H50.1705ZM73.1634 65.8636C84.3907 65.8636 91.9475 57.3352 91.9475 44.4886C91.9475 31.5341 84.3907 23.0057 73.1634 23.0057C61.9362 23.0057 54.3793 31.5341 54.3793 44.4886C54.3793 57.3352 61.9362 65.8636 73.1634 65.8636ZM73.1634 60.142C64.635 60.142 60.7487 52.8011 60.7487 44.4886C60.7487 36.1761 64.635 28.7273 73.1634 28.7273C81.6918 28.7273 85.5782 36.1761 85.5782 44.4886C85.5782 52.8011 81.6918 60.142 73.1634 60.142ZM104.239 40.0625C104.239 32.8295 108.72 28.7273 114.819 28.7273C120.73 28.7273 124.319 32.5866 124.319 39.0909V65H130.688V38.6591C130.688 28.0795 125.048 23.0057 116.654 23.0057C110.393 23.0057 106.507 25.8125 104.563 30.0227H104.024V23.5455H97.8702V65H104.239V40.0625ZM156.556 23.5455H147.703V13.6136H141.334V23.5455H135.073V28.9432H141.334V54.8523C141.334 62.0852 147.164 65.5398 152.561 65.5398C154.936 65.5398 156.448 65.108 157.311 64.7841L156.016 59.0625C155.476 59.1705 154.612 59.3864 153.209 59.3864C150.402 59.3864 147.703 58.5227 147.703 53.125V28.9432H156.556V23.5455ZM174.535 65.9716C181.768 65.9716 185.547 62.0852 186.842 59.3864H187.166V65H193.535V37.6875C193.535 24.517 183.496 23.0057 178.206 23.0057C171.945 23.0057 164.82 25.1648 161.581 32.7216L167.626 34.8807C169.03 31.858 172.349 28.6193 178.422 28.6193C184.278 28.6193 187.166 31.723 187.166 37.0398V37.2557C187.166 40.3324 184.035 40.0625 176.479 41.0341C168.787 42.0327 160.393 43.733 160.393 53.233C160.393 61.3295 166.655 65.9716 174.535 65.9716ZM175.507 60.25C170.433 60.25 166.763 57.983 166.763 53.5568C166.763 48.6989 171.189 47.1875 176.155 46.5398C178.854 46.2159 186.087 45.4602 187.166 44.1648V49.9943C187.166 55.1761 183.064 60.25 175.507 60.25ZM218.202 65.8636C227.378 65.8636 233.423 60.25 234.503 52.9091H228.134C226.946 57.4432 223.168 60.142 218.202 60.142C210.645 60.142 205.787 53.8807 205.787 44.2727C205.787 34.8807 210.753 28.7273 218.202 28.7273C223.815 28.7273 227.162 32.1818 228.134 35.9602H234.503C233.423 28.1875 226.838 23.0057 218.094 23.0057C206.866 23.0057 199.418 31.858 199.418 44.4886C199.418 56.9034 206.543 65.8636 218.202 65.8636ZM258.042 23.5455H249.19V13.6136H242.821V23.5455H236.559V28.9432H242.821V54.8523C242.821 62.0852 248.65 65.5398 254.048 65.5398C256.423 65.5398 257.934 65.108 258.798 64.7841L257.503 59.0625C256.963 59.1705 256.099 59.3864 254.696 59.3864C251.889 59.3864 249.19 58.5227 249.19 53.125V28.9432H258.042V23.5455ZM297.052 65.8636C305.04 65.8636 307.739 60.8977 309.143 58.6307H309.898V65H316.052V9.72727H309.682V30.1307H309.143C307.739 27.9716 305.256 23.0057 297.16 23.0057C286.688 23.0057 279.455 31.3182 279.455 44.3807C279.455 57.5511 286.688 65.8636 297.052 65.8636ZM297.915 60.142C289.927 60.142 285.824 53.125 285.824 44.2727C285.824 35.5284 289.819 28.7273 297.915 28.7273C305.688 28.7273 309.79 34.9886 309.79 44.2727C309.79 53.6648 305.58 60.142 297.915 60.142ZM337 65.9716C344.233 65.9716 348.012 62.0852 349.307 59.3864H349.631V65H356V37.6875C356 24.517 345.961 23.0057 340.671 23.0057C334.409 23.0057 327.284 25.1648 324.046 32.7216L330.091 34.8807C331.495 31.858 334.814 28.6193 340.887 28.6193C346.743 28.6193 349.631 31.723 349.631 37.0398V37.2557C349.631 40.3324 346.5 40.0625 338.943 41.0341C331.252 42.0327 322.858 43.733 322.858 53.233C322.858 61.3295 329.12 65.9716 337 65.9716ZM337.972 60.25C332.898 60.25 329.228 57.983 329.228 53.5568C329.228 48.6989 333.654 47.1875 338.62 46.5398C341.318 46.2159 348.551 45.4602 349.631 44.1648V49.9943C349.631 55.1761 345.529 60.25 337.972 60.25ZM381.854 23.5455H373.002V13.6136H366.632V23.5455H360.371V28.9432H366.632V54.8523C366.632 62.0852 372.462 65.5398 377.86 65.5398C380.235 65.5398 381.746 65.108 382.61 64.7841L381.314 59.0625C380.775 59.1705 379.911 59.3864 378.507 59.3864C375.701 59.3864 373.002 58.5227 373.002 53.125V28.9432H381.854V23.5455ZM399.834 65.9716C407.067 65.9716 410.845 62.0852 412.141 59.3864H412.465V65H418.834V37.6875C418.834 24.517 408.794 23.0057 403.504 23.0057C397.243 23.0057 390.118 25.1648 386.879 32.7216L392.925 34.8807C394.328 31.858 397.648 28.6193 403.72 28.6193C409.577 28.6193 412.465 31.723 412.465 37.0398V37.2557C412.465 40.3324 409.334 40.0625 401.777 41.0341C394.085 42.0327 385.692 43.733 385.692 53.233C385.692 61.3295 391.953 65.9716 399.834 65.9716ZM400.805 60.25C395.732 60.25 392.061 57.983 392.061 53.5568C392.061 48.6989 396.487 47.1875 401.453 46.5398C404.152 46.2159 411.385 45.4602 412.465 44.1648V49.9943C412.465 55.1761 408.362 60.25 400.805 60.25ZM5.07244 140H26.2585C39.1051 140 44.9077 133.604 44.9077 125.129C44.9077 116.574 38.9162 111.743 33.4375 111.446V110.906C38.5114 109.611 42.7486 106.156 42.7486 99.2472C42.7486 91.0696 37.081 84.7273 25.3139 84.7273H5.07244V140ZM13.4119 132.848V115.143H25.7457C32.4389 115.143 36.6222 119.462 36.6222 124.724C36.6222 129.366 33.4645 132.848 25.4489 132.848H13.4119ZM13.4119 108.639V91.8253H24.8011C31.4134 91.8253 34.571 95.3068 34.571 99.8949C34.571 105.239 30.1989 108.639 24.5852 108.639H13.4119ZM76.6112 122.808C76.6382 129.852 71.4024 133.199 66.8683 133.199C61.8754 133.199 58.4209 129.582 58.4209 123.942V98.5455H50.3513V124.913C50.3513 135.196 55.9919 140.54 63.9536 140.54C70.1879 140.54 74.4251 137.247 76.3413 132.821H76.7732V140H84.7078V98.5455H76.6112V122.808ZM122.814 108.666C121.141 102.216 116.094 98.0057 107.134 98.0057C97.769 98.0057 91.1298 102.945 91.1298 110.286C91.1298 116.169 94.6923 120.082 102.465 121.81L109.482 123.348C113.476 124.239 115.339 126.02 115.339 128.611C115.339 131.822 111.911 134.332 106.621 134.332C101.79 134.332 98.6866 132.254 97.715 128.179L89.9153 129.366C91.2647 136.707 97.3641 140.837 106.675 140.837C116.688 140.837 123.624 135.52 123.624 128.017C123.624 122.161 119.9 118.544 112.289 116.79L105.704 115.278C101.143 114.199 99.1724 112.661 99.1994 109.854C99.1724 106.669 102.627 104.402 107.215 104.402C112.235 104.402 114.556 107.182 115.5 109.962L122.814 108.666ZM128.697 140H136.766V98.5455H128.697V140ZM132.772 92.1491C135.552 92.1491 137.873 89.9901 137.873 87.3452C137.873 84.7003 135.552 82.5142 132.772 82.5142C129.965 82.5142 127.671 84.7003 127.671 87.3452C127.671 89.9901 129.965 92.1491 132.772 92.1491ZM151.892 115.386C151.892 108.774 155.94 104.996 161.554 104.996C167.033 104.996 170.352 108.585 170.352 114.604V140H178.422V113.632C178.422 103.376 172.781 98.0057 164.307 98.0057C158.072 98.0057 153.997 100.893 152.081 105.293H151.568V98.5455H143.822V140H151.892V115.386ZM203.311 140.837C212.352 140.837 218.748 136.384 220.583 129.636L212.946 128.26C211.488 132.173 207.98 134.17 203.392 134.17C196.483 134.17 191.841 129.69 191.625 121.702H221.096V118.841C221.096 103.862 212.136 98.0057 202.744 98.0057C191.193 98.0057 183.582 106.804 183.582 119.543C183.582 132.416 191.085 140.837 203.311 140.837ZM191.652 115.656C191.975 109.773 196.24 104.672 202.798 104.672C209.059 104.672 213.162 109.314 213.189 115.656H191.652ZM257.314 108.666C255.64 102.216 250.593 98.0057 241.633 98.0057C232.268 98.0057 225.629 102.945 225.629 110.286C225.629 116.169 229.191 120.082 236.964 121.81L243.981 123.348C247.976 124.239 249.838 126.02 249.838 128.611C249.838 131.822 246.41 134.332 241.12 134.332C236.289 134.332 233.186 132.254 232.214 128.179L224.414 129.366C225.764 136.707 231.863 140.837 241.174 140.837C251.187 140.837 258.123 135.52 258.123 128.017C258.123 122.161 254.399 118.544 246.788 116.79L240.203 115.278C235.642 114.199 233.672 112.661 233.699 109.854C233.672 106.669 237.126 104.402 241.714 104.402C246.734 104.402 249.055 107.182 250 109.962L257.314 108.666ZM294.26 108.666C292.586 102.216 287.54 98.0057 278.579 98.0057C269.214 98.0057 262.575 102.945 262.575 110.286C262.575 116.169 266.138 120.082 273.91 121.81L280.927 123.348C284.922 124.239 286.784 126.02 286.784 128.611C286.784 131.822 283.356 134.332 278.067 134.332C273.236 134.332 270.132 132.254 269.16 128.179L261.361 129.366C262.71 136.707 268.809 140.837 278.121 140.837C288.133 140.837 295.069 135.52 295.069 128.017C295.069 122.161 291.345 118.544 283.734 116.79L277.149 115.278C272.588 114.199 270.618 112.661 270.645 109.854C270.618 106.669 274.072 104.402 278.66 104.402C283.68 104.402 286.001 107.182 286.946 109.962L294.26 108.666ZM319.493 98.5455H310.991V88.6136H302.922V98.5455H296.849V105.023H302.922V129.501C302.895 137.031 308.643 140.675 315.013 140.54C317.577 140.513 319.304 140.027 320.248 139.676L318.791 133.01C318.251 133.118 317.253 133.361 315.957 133.361C313.339 133.361 310.991 132.497 310.991 127.828V105.023H319.493V98.5455ZM341.636 140.837C353.322 140.837 360.959 132.281 360.959 119.462C360.959 106.561 353.322 98.0057 341.636 98.0057C329.95 98.0057 322.312 106.561 322.312 119.462C322.312 132.281 329.95 140.837 341.636 140.837ZM341.663 134.062C334.025 134.062 330.462 127.396 330.462 119.435C330.462 111.5 334.025 104.753 341.663 104.753C349.246 104.753 352.809 111.5 352.809 119.435C352.809 127.396 349.246 134.062 341.663 134.062ZM369.487 156.112C376.18 156.112 380.525 152.496 382.873 146.045L400.146 98.5455H391.482L380.984 130.716H380.552L370.053 98.5455H361.417L376.585 140.54L375.397 143.805C373.373 149.203 370.485 149.662 366.032 148.474L364.089 155.168C364.952 155.572 366.977 156.112 369.487 156.112ZM23.1818 215C40.0227 215 50.0085 204.582 50.0085 187.31C50.0085 170.091 40.0227 159.727 23.5597 159.727H4.4517V215H23.1818ZM14.4645 206.337V168.391H22.9929C34.2202 168.391 40.0767 174.652 40.0767 187.31C40.0767 200.021 34.2202 206.337 22.696 206.337H14.4645ZM55.2902 215H65.0601V173.545H55.2902V215ZM60.2021 167.662C63.3058 167.662 65.8428 165.287 65.8428 162.372C65.8428 159.43 63.3058 157.055 60.2021 157.055C57.0714 157.055 54.5345 159.43 54.5345 162.372C54.5345 165.287 57.0714 167.662 60.2021 167.662ZM89.389 215.81C101.534 215.81 109.253 207.254 109.253 194.435C109.253 181.588 101.534 173.006 89.389 173.006C77.2441 173.006 69.5254 181.588 69.5254 194.435C69.5254 207.254 77.2441 215.81 89.389 215.81ZM89.443 207.983C82.7228 207.983 79.4302 201.991 79.4302 194.408C79.4302 186.824 82.7228 180.751 89.443 180.751C96.0552 180.751 99.3478 186.824 99.3478 194.408C99.3478 201.991 96.0552 207.983 89.443 207.983ZM120.175 173.545H109.811L122.118 194.273L109.487 215H119.851L128.541 200.075L137.313 215H147.595L134.884 194.273L147.379 173.545H137.043L128.541 188.848L120.175 173.545ZM151.136 215H160.906V173.545H151.136V215ZM156.048 167.662C159.152 167.662 161.689 165.287 161.689 162.372C161.689 159.43 159.152 157.055 156.048 157.055C152.918 157.055 150.381 159.43 150.381 162.372C150.381 165.287 152.918 167.662 156.048 167.662ZM182.536 215.729C189.661 215.729 192.873 211.491 194.411 208.469H195.005V215H204.613V159.727H194.816V180.401H194.411C192.927 177.405 189.877 173.006 182.563 173.006C172.982 173.006 165.452 180.509 165.452 194.327C165.452 207.983 172.766 215.729 182.536 215.729ZM185.262 207.713C178.812 207.713 175.411 202.045 175.411 194.273C175.411 186.554 178.758 181.021 185.262 181.021C191.55 181.021 195.005 186.23 195.005 194.273C195.005 202.315 191.496 207.713 185.262 207.713ZM229.576 215.81C239.238 215.81 245.877 211.087 247.604 203.881L238.482 202.855C237.16 206.364 233.921 208.199 229.711 208.199C223.396 208.199 219.212 204.043 219.131 196.945H248.009V193.949C248.009 179.402 239.265 173.006 229.063 173.006C217.188 173.006 209.443 181.723 209.443 194.516C209.443 207.524 217.08 215.81 229.576 215.81ZM219.158 190.359C219.455 185.07 223.369 180.616 229.198 180.616C234.812 180.616 238.59 184.719 238.644 190.359H219.158ZM13.331 290L17.4332 277.396H37.3778L41.4801 290H54.0028L34.9489 234.727H19.8892L0.808239 290H13.331ZM20.402 268.274L27.2031 247.358H27.6349L34.4361 268.274H20.402ZM83.2234 272.349C83.2504 277.909 79.445 280.824 75.3158 280.824C70.9706 280.824 68.1638 277.774 68.1368 272.889V248.545H56.6396V274.94C56.6666 284.629 62.3342 290.54 70.6737 290.54C76.9081 290.54 81.3882 287.328 83.2504 282.47H83.6822V290H94.7206V248.545H83.2234V272.349ZM122.167 248.545H114.367V238.614H102.87V248.545H97.2022V257.182H102.87V278.773C102.816 286.896 108.349 290.918 116.688 290.567C119.657 290.459 121.762 289.865 122.922 289.487L121.114 280.932C120.547 281.04 119.333 281.31 118.253 281.31C115.959 281.31 114.367 280.446 114.367 277.261V257.182H122.167V248.545ZM144.141 290.81C156.718 290.81 164.544 282.2 164.544 269.435C164.544 256.588 156.718 248.006 144.141 248.006C131.564 248.006 123.737 256.588 123.737 269.435C123.737 282.2 131.564 290.81 144.141 290.81ZM144.195 281.903C138.392 281.903 135.424 276.587 135.424 269.354C135.424 262.121 138.392 256.777 144.195 256.777C149.889 256.777 152.858 262.121 152.858 269.354C152.858 276.587 149.889 281.903 144.195 281.903ZM168.22 290H179.717V265.116C179.717 260.528 182.632 257.479 186.464 257.479C190.243 257.479 192.78 260.07 192.78 264.145V290H203.926V264.685C203.926 260.393 206.382 257.479 210.565 257.479C214.236 257.479 216.989 259.773 216.989 264.388V290H228.459V262.121C228.459 253.134 223.115 248.006 215.396 248.006C209.324 248.006 204.601 251.109 202.901 255.859H202.469C201.146 251.055 196.909 248.006 191.214 248.006C185.628 248.006 181.391 250.974 179.663 255.859H179.177V248.545H168.22V290ZM245.561 290.783C251.688 290.783 255.655 288.111 257.679 284.251H258.003V290H268.907V262.04C268.907 252.162 260.54 248.006 251.31 248.006C241.378 248.006 234.847 252.756 233.255 260.312L243.888 261.176C244.671 258.423 247.127 256.399 251.256 256.399C255.169 256.399 257.409 258.369 257.409 261.77V261.932C257.409 264.604 254.576 264.955 247.37 265.656C239.165 266.412 231.797 269.165 231.797 278.422C231.797 286.626 237.654 290.783 245.561 290.783ZM248.854 282.848C245.319 282.848 242.782 281.202 242.782 278.044C242.782 274.805 245.453 273.213 249.502 272.646C252.012 272.295 256.114 271.702 257.49 270.784V275.183C257.49 279.528 253.901 282.848 248.854 282.848ZM296.076 248.545H288.276V238.614H276.779V248.545H271.112V257.182H276.779V278.773C276.725 286.896 282.258 290.918 290.597 290.567C293.566 290.459 295.671 289.865 296.832 289.487L295.024 280.932C294.457 281.04 293.242 281.31 292.163 281.31C289.869 281.31 288.276 280.446 288.276 277.261V257.182H296.076V248.545ZM318.05 290.81C330.627 290.81 338.454 282.2 338.454 269.435C338.454 256.588 330.627 248.006 318.05 248.006C305.474 248.006 297.647 256.588 297.647 269.435C297.647 282.2 305.474 290.81 318.05 290.81ZM318.104 281.903C312.302 281.903 309.333 276.587 309.333 269.354C309.333 262.121 312.302 256.777 318.104 256.777C323.799 256.777 326.768 262.121 326.768 269.354C326.768 276.587 323.799 281.903 318.104 281.903ZM353.627 266.034C353.654 260.69 356.838 257.56 361.48 257.56C366.095 257.56 368.875 260.582 368.848 265.656V290H380.345V263.605C380.345 253.943 374.678 248.006 366.041 248.006C359.888 248.006 355.435 251.028 353.573 255.859H353.087V248.545H342.129V290H353.627V266.034Z" fill="black" fill-opacity="0.9"/>
<path d="M467.562 9.72727V65H482.244V32.8295H482.676L494.983 64.5682H503.835L516.142 33.0455H516.574V65H531.256V9.72727H512.58L499.733 41.0341H499.085L486.239 9.72727H467.562ZM534.783 65H549.681V23.5455H534.783V65ZM542.232 19.2273C546.28 19.2273 549.573 16.1776 549.573 12.4261C549.573 8.67471 546.28 5.625 542.232 5.625C538.184 5.625 534.891 8.67471 534.891 12.4261C534.891 16.1776 538.184 19.2273 542.232 19.2273ZM568.369 41.6818C568.396 37.5795 570.717 35.0966 574.415 35.0966C578.166 35.0966 580.379 37.5795 580.352 41.6818V65H595.25V38.5511C595.277 29.5369 589.582 23.0057 580.784 23.0057C574.684 23.0057 569.853 26.1903 568.045 31.4261H567.613V23.5455H553.471V65H568.369V41.6818ZM625.685 46.8636C625.712 50.9659 623.337 53.4489 619.639 53.4489C615.888 53.4489 613.729 50.9659 613.702 46.8636V23.5455H598.804V49.9943C598.831 59.0625 604.553 65.5398 613.27 65.5398C619.451 65.5398 624.201 62.4091 626.009 57.1193H626.441V65H640.583V23.5455H625.685V46.8636ZM669.081 23.5455H661.956V13.6136H647.059V23.5455H641.769V34.3409H647.059V53.071C646.951 61.7614 652.321 66.1605 662.604 65.5938C665.978 65.4048 668.488 64.7031 669.837 64.2983L667.678 53.8267C667.111 53.9616 665.654 54.2585 664.763 54.2585C662.82 54.2585 661.956 53.3949 661.956 51.6676V34.3409H669.081V23.5455ZM690.779 65.7557C702.276 65.7557 709.671 60.25 711.074 51.6136H697.472C696.608 53.9616 694.152 55.2841 691.103 55.2841C686.676 55.2841 684.086 52.3693 684.086 48.375V47.7273H711.074V44.2727C711.074 31.0753 702.978 23.0057 690.455 23.0057C677.608 23.0057 669.404 31.5341 669.404 44.3807C669.404 57.794 677.5 65.7557 690.779 65.7557ZM684.086 39.5227C684.167 35.9332 687.135 33.4773 690.779 33.4773C694.476 33.4773 697.283 35.9602 697.364 39.5227H684.086ZM746.177 65.7557C759.698 65.7557 769.225 58.8736 769.171 49.1307C769.225 42.3565 764.691 37.5795 755.785 36.608V36.1761C762.37 35.4744 767.174 31.2372 767.12 25.0568C767.174 15.7457 758.538 8.97159 746.285 8.97159C733.762 8.97159 724.856 16.1236 724.802 26.2443H739.16C739.214 22.8977 742.156 20.5227 746.285 20.5227C750.063 20.5227 752.708 22.8168 752.654 26.0284C752.708 29.375 749.578 31.75 745.097 31.75H739.484V42.1136H745.097C749.955 42.1136 753.356 44.4886 753.302 47.8352C753.356 51.2628 750.441 53.6648 746.285 53.6648C741.967 53.6648 738.89 51.3707 738.836 48.1591H723.722C723.776 58.4688 733.087 65.7557 746.177 65.7557ZM795.174 65.7557C808.236 65.7557 817.358 57.902 817.304 46C817.358 35.8793 810.584 28.5114 800.571 28.5114C794.256 28.5114 788.534 31.5341 786.429 36.608H786.105C786.159 27.4588 788.966 21.4943 795.281 21.4943C798.439 21.4943 801.192 22.8977 801.867 26.2443H816.656C815.712 16.5824 807.48 8.75568 795.281 8.75568C780.789 8.75568 771.262 19.875 771.208 38.0114C771.262 58.0909 782.273 65.7557 795.174 65.7557ZM795.066 54.4205C790.693 54.4205 787.455 51.1009 787.401 46.5398C787.455 41.9787 790.693 38.6591 795.066 38.6591C799.546 38.6591 802.784 41.9787 802.73 46.5398C802.784 51.1009 799.546 54.4205 795.066 54.4205ZM844.372 66.5114C859.405 66.5384 868.743 55.7699 868.77 37.4716C868.797 19.2812 859.405 8.97159 844.372 8.97159C829.313 8.97159 820.029 19.2273 819.975 37.4716C819.921 55.6889 829.313 66.4844 844.372 66.5114ZM844.372 54.3125C839.191 54.3125 835.466 49.1037 835.52 37.4716C835.574 26.1094 839.191 21.0625 844.372 21.0625C849.554 21.0625 853.198 26.1094 853.225 37.4716C853.252 49.1037 849.554 54.3125 844.372 54.3125ZM467.994 140H511.716V129.151H484.889L511.743 92.3381V84.7273H468.021V95.5767H494.848L467.994 132.389V140ZM535.492 140.783C546.368 140.783 553.52 135.52 555.031 127.369L542.913 127.018C541.888 129.771 539.189 131.256 535.734 131.256C530.661 131.256 527.53 127.882 527.53 122.808V122.457H555.166V119.165C555.166 105.509 546.854 98.0057 535.087 98.0057C522.564 98.0057 514.521 106.588 514.521 119.435C514.521 132.713 522.456 140.783 535.492 140.783ZM527.53 114.793C527.719 110.663 530.984 107.533 535.357 107.533C539.702 107.533 542.832 110.555 542.886 114.793H527.53ZM571.304 116.358C571.331 111.635 574.084 108.828 578.267 108.828C582.45 108.828 584.933 111.581 584.906 116.169V140H598.104V113.578C598.131 104.24 592.436 98.0057 583.719 98.0057C577.592 98.0057 572.95 101.109 571.115 106.156H570.656V98.5455H558.107V140H571.304V116.358ZM602.475 140H615.672V98.5455H602.475V140ZM609.087 93.7145C612.838 93.7145 615.861 90.8807 615.861 87.3991C615.861 83.9176 612.838 81.1108 609.087 81.1108C605.362 81.1108 602.313 83.9176 602.313 87.3991C602.313 90.8807 605.362 93.7145 609.087 93.7145ZM643.671 98.5455H636.196V88.6136H622.998V98.5455H617.519V108.261H622.998V128.422C622.917 136.815 628.369 141.026 637.68 140.594C640.865 140.432 643.159 139.784 644.427 139.406L642.43 129.879C641.863 130.014 640.541 130.284 639.542 130.284C637.41 130.284 636.196 129.42 636.196 126.964V108.261H643.671V98.5455ZM660.693 116.358C660.72 111.635 663.527 108.828 667.71 108.828C671.947 108.828 674.403 111.554 674.376 116.169V140H687.574V113.578C687.601 104.186 681.879 98.0057 673.162 98.0057C666.955 98.0057 662.582 101.055 660.72 106.156H660.261V84.7273H647.496V140H660.693V116.358ZM704.648 140H740.246V129.744H721.786V129.474L739.599 106.804V98.5455H705.323V108.801H723.864V109.071L704.648 132.47V140ZM763.138 140.783C776.174 140.783 784.081 132.173 784.081 119.408C784.081 106.615 776.174 98.0057 763.138 98.0057C750.102 98.0057 742.195 106.615 742.195 119.408C742.195 132.173 750.102 140.783 763.138 140.783ZM763.219 130.824C758.334 130.824 755.635 126.182 755.635 119.327C755.635 112.445 758.334 107.776 763.219 107.776C767.942 107.776 770.641 112.445 770.641 119.327C770.641 126.182 767.942 130.824 763.219 130.824ZM800.239 116.358C800.266 111.635 803.019 108.828 807.202 108.828C811.386 108.828 813.869 111.581 813.842 116.169V140H827.039V113.578C827.066 104.24 821.371 98.0057 812.654 98.0057C806.528 98.0057 801.886 101.109 800.05 106.156H799.592V98.5455H787.042V140H800.239V116.358ZM850.788 140.783C861.664 140.783 868.816 135.52 870.327 127.369L858.21 127.018C857.184 129.771 854.485 131.256 851.031 131.256C845.957 131.256 842.826 127.882 842.826 122.808V122.457H870.462V119.165C870.462 105.509 862.15 98.0057 850.383 98.0057C837.86 98.0057 829.817 106.588 829.817 119.435C829.817 132.713 837.752 140.783 850.788 140.783ZM842.826 114.793C843.015 110.663 846.281 107.533 850.653 107.533C854.998 107.533 858.129 110.555 858.183 114.793H842.826ZM485.942 159.727H481.489C481.138 160.294 477.036 167.959 468.885 168.067V172.385C475.254 172.304 479.68 168.903 480.49 167.5H480.922V215H485.942V159.727ZM498.935 215H533.292V210.466H505.952V210.115L519.663 194.812C528.839 184.665 531.565 180.077 531.565 173.95C531.565 165.53 524.925 158.972 515.668 158.972C506.33 158.972 499.394 165.557 499.394 174.706H504.225C504.225 168.148 508.705 163.425 515.533 163.425C521.957 163.425 526.815 167.635 526.815 173.95C526.815 179.186 524.035 183.072 516.991 191.007L498.935 211.303V215ZM559.47 215.756C569.833 215.756 577.39 209.062 577.39 200.21C577.39 193.193 573.072 188.038 566.028 186.635V186.284C571.83 184.557 575.501 179.861 575.501 173.545C575.501 165.638 569.293 158.972 559.578 158.972C550.32 158.972 542.926 164.909 542.71 173.545H547.595C547.757 167.365 553.1 163.425 559.524 163.425C566.19 163.425 570.589 167.662 570.589 173.761C570.589 180.212 565.434 184.341 558.282 184.341H555.043V188.875H558.282C567.026 188.875 572.424 193.49 572.424 200.21C572.424 206.58 567.053 211.222 559.416 211.222C552.372 211.222 546.866 207.227 546.596 201.182H541.495C541.765 209.791 549.214 215.756 559.47 215.756ZM584.197 203.125H609.998V215H614.802V203.125H622.143V198.591H614.802V159.727H608.837L584.197 199.023V203.125ZM609.998 198.591H589.837V198.24L609.62 166.609H609.998V198.591ZM645.459 215.756C655.661 215.756 663.056 208.01 663.083 197.538C663.11 186.851 655.58 179.267 645.837 179.267C641.897 179.267 638.226 180.697 635.798 182.749H635.528L637.741 164.261H660.816V159.727H633.503L630.184 186.581L635.231 187.229C637.606 185.259 641.411 183.855 645.136 183.882C652.476 183.909 658.171 189.523 658.198 197.619C658.198 205.419 652.881 211.222 645.459 211.222C639.09 211.222 634.367 207.038 634.043 201.182H629.158C629.401 209.629 636.256 215.756 645.459 215.756ZM688.174 215.756C698.727 215.837 705.663 207.524 705.663 197.619C705.663 187.229 697.998 179.618 688.795 179.618C682.858 179.618 677.622 182.803 675.004 187.688H674.653C674.68 172.169 679.862 163.425 688.93 163.425C695.245 163.425 699.078 167.635 700.103 173.545H705.069C703.99 164.882 697.863 158.891 688.93 158.891C676.191 158.891 669.903 171.602 669.903 189.658C669.903 209.089 678.998 215.675 688.174 215.756ZM688.174 211.222C681.292 211.222 676.191 205.581 675.598 197.943C675.058 190.656 680.806 184.152 688.174 184.152C695.353 184.152 700.778 190.143 700.778 197.619C700.778 205.149 695.353 211.222 688.174 211.222ZM714.872 215H720.188L745.342 164.477V159.727H711.039V164.261H740.052V164.612L714.872 215ZM768.274 215.756C778.799 215.756 786.491 209.224 786.518 200.453C786.491 193.598 781.768 187.58 775.507 186.365V186.068C780.905 184.53 784.521 179.375 784.548 173.438C784.521 165.179 777.477 158.972 768.274 158.972C758.99 158.972 751.973 165.206 752.027 173.438C751.973 179.375 755.616 184.503 761.041 186.068V186.365C754.726 187.607 750.003 193.598 750.03 200.453C750.003 209.224 757.694 215.756 768.274 215.756ZM768.274 211.222C760.366 211.222 754.969 206.607 754.996 200.21C754.969 193.598 760.663 188.632 768.274 188.632C775.831 188.632 781.525 193.598 781.552 200.21C781.525 206.607 776.155 211.222 768.274 211.222ZM768.274 184.314C761.77 184.314 756.885 179.834 756.912 173.734C756.885 167.689 761.662 163.425 768.274 163.425C774.832 163.425 779.609 167.689 779.663 173.734C779.609 179.834 774.724 184.314 768.274 184.314ZM810.55 158.864C799.971 158.783 793.062 167.095 793.062 177C793.062 187.391 800.699 195.001 809.93 195.001C815.867 195.001 821.13 191.79 823.721 186.932H824.072C824.072 202.477 818.836 211.222 809.795 211.222C803.506 211.222 799.62 206.984 798.648 201.074H793.682C794.708 209.791 800.861 215.756 809.795 215.756C822.533 215.756 828.822 203.017 828.822 184.962C828.822 165.557 819.726 158.945 810.55 158.864ZM810.55 163.398C817.432 163.398 822.533 169.038 823.154 176.676C823.694 183.936 817.891 190.467 810.55 190.467C803.344 190.467 797.947 184.53 797.947 177C797.947 169.47 803.344 163.398 810.55 163.398ZM853.603 215.756C865.235 215.756 872.063 205.257 872.063 187.364C872.063 169.551 865.181 158.972 853.603 158.972C842.024 158.972 835.142 169.551 835.142 187.364C835.142 205.257 841.97 215.756 853.603 215.756ZM853.603 211.222C845.101 211.222 840.027 202.504 840.027 187.364C840.027 172.25 845.128 163.425 853.603 163.425C862.077 163.425 867.178 172.25 867.178 187.364C867.178 202.504 862.104 211.222 853.603 211.222ZM886.183 159.727H880.732L881.082 199.158H885.832L886.183 159.727ZM883.457 215.405C885.616 215.405 887.344 213.651 887.344 211.518C887.344 209.359 885.616 207.632 883.457 207.632C881.325 207.632 879.571 209.359 879.571 211.518C879.571 213.651 881.325 215.405 883.457 215.405ZM511.824 252H513.551C512.256 244.119 505.32 233.972 492.392 233.972C478.682 233.972 469.506 245.361 469.506 262.364C469.506 279.286 478.574 290.756 492.608 290.756C505.023 290.756 513.983 281.795 513.983 266.682V264.955H493.148V266.682H512.256C512.229 280.743 503.997 289.028 492.608 289.028C479.545 289.028 471.233 278.152 471.233 262.364C471.233 246.386 479.707 235.699 492.392 235.699C503.754 235.699 510.501 244.47 511.824 252ZM523.65 290H525.378V262.148C525.378 254.915 530.667 249.733 538.008 249.733C539.601 249.733 541.004 249.976 542.111 250.381L542.758 248.761C541.436 248.303 539.816 248.006 538.008 248.006C532.287 248.006 527.537 250.812 525.593 255.131H525.378V248.545H523.65V290ZM557.749 290.864C564.01 290.864 569.084 287.193 571.675 281.58H571.891V290H573.618V260.205C573.618 253.188 568.545 247.898 560.124 247.898C553.647 247.898 548.249 251.136 546.306 256.318L547.925 256.966C549.652 252.324 554.295 249.625 560.124 249.625C567.249 249.625 571.891 253.835 571.891 260.205V262.688C571.891 265.926 566.493 266.574 560.772 267.222C548.033 268.733 545.118 273.159 545.118 278.773C545.118 286.545 550.948 290.864 557.749 290.864ZM557.749 289.136C551.596 289.136 546.846 285.034 546.846 278.773C546.846 273.483 550.3 270.136 561.42 268.841C566.17 268.301 569.84 267.545 571.891 266.034V272.295C571.891 282.335 565.63 289.136 557.749 289.136ZM598.953 248.545H589.992V242.5C589.992 237.669 593.636 234.727 597.765 234.727C598.818 234.727 599.627 234.916 600.518 235.213L601.058 233.594C600.032 233.243 599.061 233 597.765 233C592.664 233 588.265 236.67 588.265 242.5V248.545H582.544V250.273H588.265V290H589.992V250.273H598.953V248.545ZM606.279 290H608.006V248.545H606.279V290ZM607.142 240.989C608.087 240.989 608.87 240.206 608.87 239.261C608.87 238.317 608.087 237.534 607.142 237.534C606.198 237.534 605.415 238.317 605.415 239.261C605.415 240.206 606.198 240.989 607.142 240.989ZM619.11 290H620.838V272.835L626.181 267.599L643.94 290H646.207L627.396 266.412L645.559 248.545H643.076L621.054 270.136H620.838V234.727H619.11V290ZM683.415 290.864C690.054 290.864 695.182 286.491 697.449 279.636H697.665V290H699.392V234.727H697.665V259.125H697.449C695.29 252.216 690 247.898 683.415 247.898C673.699 247.898 667.438 257.182 667.438 269.381C667.438 281.634 673.591 290.864 683.415 290.864ZM683.415 289.136C674.617 289.136 669.165 280.608 669.165 269.381C669.165 258.153 674.671 249.625 683.415 249.625C692.159 249.625 697.665 258.153 697.665 269.381C697.665 280.608 692.213 289.136 683.415 289.136ZM727.088 290.864C735.158 290.864 739.611 285.79 741.446 282.659L740.042 281.688C738.531 284.17 734.726 289.136 727.088 289.136C716.67 289.136 710.814 280.095 710.787 269.273H743.173V267.545C743.173 256.831 735.859 247.898 726.224 247.898C716.427 247.898 709.06 257.182 709.06 269.381C709.06 281.58 716.212 290.864 727.088 290.864ZM710.841 267.545C711.569 257.236 718.074 249.625 726.224 249.625C734.618 249.625 741.446 257.587 741.446 267.545H710.841ZM776.435 257.29C774.411 251.082 770.093 247.898 763.697 247.898C756.14 247.898 750.85 252.297 750.85 258.801C750.85 263.983 754.197 267.68 760.566 269.273L767.043 270.892C772.36 272.214 775.032 275.237 775.032 279.528C775.032 285.304 770.147 289.136 762.941 289.136C756.356 289.136 752.28 285.952 751.066 280.068L749.339 280.5C750.742 287.112 755.573 290.864 762.941 290.864C771.065 290.864 776.759 286.303 776.759 279.528C776.759 274.428 773.548 270.676 767.475 269.165L760.998 267.545C755.357 266.142 752.577 263.146 752.577 258.801C752.577 253.295 757.084 249.625 763.697 249.625C769.391 249.625 773.008 252.324 774.708 257.722L776.435 257.29ZM785.502 290H787.229V248.545H785.502V290ZM786.366 240.989C787.31 240.989 788.093 240.206 788.093 239.261C788.093 238.317 787.31 237.534 786.366 237.534C785.421 237.534 784.638 238.317 784.638 239.261C784.638 240.206 785.421 240.989 786.366 240.989ZM812.368 306.409C821.949 306.409 827.805 301.092 827.805 290.864V248.545H826.078V259.125H825.862C823.595 252.216 818.521 247.898 811.828 247.898C802.004 247.898 795.851 257.074 795.851 269.381C795.851 281.58 802.112 290 811.828 290C817.982 290 823.703 286.545 825.862 279.636H826.078V290.864C826.078 300.175 821.004 304.682 812.368 304.682C806.134 304.682 801.168 302.334 799.305 297.449L797.686 298.097C799.791 303.629 805.405 306.409 812.368 306.409ZM811.828 288.273C803.084 288.273 797.578 280.608 797.578 269.381C797.578 258.153 803.03 249.625 811.828 249.625C820.627 249.625 826.078 258.153 826.078 269.381C826.078 281.013 820.465 288.273 811.828 288.273ZM840.644 262.148C840.644 254.915 845.934 249.733 853.275 249.733C860.616 249.733 865.689 254.807 865.689 262.148V290H867.417V262.148C867.417 253.835 861.587 248.006 853.275 248.006C847.553 248.006 842.803 250.812 840.86 255.131H840.644V248.545H838.917V290H840.644V262.148Z" fill="black" fill-opacity="0.9"/>
</g>
<defs>
<clipPath id="clip0">
<rect width="888" height="307" fill="white"/>
</clipPath>
</defs>
</svg>
