<svg width="888" height="307" viewBox="0 0 888 307" fill="none" xmlns="http://www.w3.org/2000/svg">
<g clip-path="url(#clip0)">
<path d="M50.1705 25C48.1193 13.6648 39.0511 6.97159 27.9318 6.97159C13.7898 6.97159 3.53409 17.875 3.53409 35.3636C3.53409 52.8523 13.7898 63.7557 27.9318 63.7557C39.0511 63.7557 48.1193 57.0625 50.1705 45.7273H43.4773C41.858 53.392 35.2727 57.4943 27.9318 57.4943C17.892 57.4943 10.0114 49.7216 10.0114 35.3636C10.0114 21.0057 17.892 13.233 27.9318 13.233C35.2727 13.233 41.858 17.3352 43.4773 25H50.1705ZM73.1634 63.8636C84.3907 63.8636 91.9475 55.3352 91.9475 42.4886C91.9475 29.5341 84.3907 21.0057 73.1634 21.0057C61.9362 21.0057 54.3793 29.5341 54.3793 42.4886C54.3793 55.3352 61.9362 63.8636 73.1634 63.8636ZM73.1634 58.142C64.635 58.142 60.7487 50.8011 60.7487 42.4886C60.7487 34.1761 64.635 26.7273 73.1634 26.7273C81.6918 26.7273 85.5782 34.1761 85.5782 42.4886C85.5782 50.8011 81.6918 58.142 73.1634 58.142ZM104.239 38.0625C104.239 30.8295 108.72 26.7273 114.819 26.7273C120.73 26.7273 124.319 30.5866 124.319 37.0909V63H130.688V36.6591C130.688 26.0795 125.048 21.0057 116.654 21.0057C110.393 21.0057 106.507 23.8125 104.563 28.0227H104.024V21.5455H97.8702V63H104.239V38.0625ZM156.556 21.5455H147.703V11.6136H141.334V21.5455H135.073V26.9432H141.334V52.8523C141.334 60.0852 147.164 63.5398 152.561 63.5398C154.936 63.5398 156.448 63.108 157.311 62.7841L156.016 57.0625C155.476 57.1705 154.612 57.3864 153.209 57.3864C150.402 57.3864 147.703 56.5227 147.703 51.125V26.9432H156.556V21.5455ZM174.535 63.9716C181.768 63.9716 185.547 60.0852 186.842 57.3864H187.166V63H193.535V35.6875C193.535 22.517 183.496 21.0057 178.206 21.0057C171.945 21.0057 164.82 23.1648 161.581 30.7216L167.626 32.8807C169.03 29.858 172.349 26.6193 178.422 26.6193C184.278 26.6193 187.166 29.723 187.166 35.0398V35.2557C187.166 38.3324 184.035 38.0625 176.479 39.0341C168.787 40.0327 160.393 41.733 160.393 51.233C160.393 59.3295 166.655 63.9716 174.535 63.9716ZM175.507 58.25C170.433 58.25 166.763 55.983 166.763 51.5568C166.763 46.6989 171.189 45.1875 176.155 44.5398C178.854 44.2159 186.087 43.4602 187.166 42.1648V47.9943C187.166 53.1761 183.064 58.25 175.507 58.25ZM218.202 63.8636C227.378 63.8636 233.423 58.25 234.503 50.9091H228.134C226.946 55.4432 223.168 58.142 218.202 58.142C210.645 58.142 205.787 51.8807 205.787 42.2727C205.787 32.8807 210.753 26.7273 218.202 26.7273C223.815 26.7273 227.162 30.1818 228.134 33.9602H234.503C233.423 26.1875 226.838 21.0057 218.094 21.0057C206.866 21.0057 199.418 29.858 199.418 42.4886C199.418 54.9034 206.543 63.8636 218.202 63.8636ZM258.042 21.5455H249.19V11.6136H242.821V21.5455H236.559V26.9432H242.821V52.8523C242.821 60.0852 248.65 63.5398 254.048 63.5398C256.423 63.5398 257.934 63.108 258.798 62.7841L257.503 57.0625C256.963 57.1705 256.099 57.3864 254.696 57.3864C251.889 57.3864 249.19 56.5227 249.19 51.125V26.9432H258.042V21.5455ZM297.052 63.8636C305.04 63.8636 307.739 58.8977 309.143 56.6307H309.898V63H316.052V7.72727H309.682V28.1307H309.143C307.739 25.9716 305.256 21.0057 297.16 21.0057C286.688 21.0057 279.455 29.3182 279.455 42.3807C279.455 55.5511 286.688 63.8636 297.052 63.8636ZM297.915 58.142C289.927 58.142 285.824 51.125 285.824 42.2727C285.824 33.5284 289.819 26.7273 297.915 26.7273C305.688 26.7273 309.79 32.9886 309.79 42.2727C309.79 51.6648 305.58 58.142 297.915 58.142ZM337 63.9716C344.233 63.9716 348.012 60.0852 349.307 57.3864H349.631V63H356V35.6875C356 22.517 345.961 21.0057 340.671 21.0057C334.409 21.0057 327.284 23.1648 324.046 30.7216L330.091 32.8807C331.495 29.858 334.814 26.6193 340.887 26.6193C346.743 26.6193 349.631 29.723 349.631 35.0398V35.2557C349.631 38.3324 346.5 38.0625 338.943 39.0341C331.252 40.0327 322.858 41.733 322.858 51.233C322.858 59.3295 329.12 63.9716 337 63.9716ZM337.972 58.25C332.898 58.25 329.228 55.983 329.228 51.5568C329.228 46.6989 333.654 45.1875 338.62 44.5398C341.318 44.2159 348.551 43.4602 349.631 42.1648V47.9943C349.631 53.1761 345.529 58.25 337.972 58.25ZM381.854 21.5455H373.002V11.6136H366.632V21.5455H360.371V26.9432H366.632V52.8523C366.632 60.0852 372.462 63.5398 377.86 63.5398C380.235 63.5398 381.746 63.108 382.61 62.7841L381.314 57.0625C380.775 57.1705 379.911 57.3864 378.507 57.3864C375.701 57.3864 373.002 56.5227 373.002 51.125V26.9432H381.854V21.5455ZM399.834 63.9716C407.067 63.9716 410.845 60.0852 412.141 57.3864H412.465V63H418.834V35.6875C418.834 22.517 408.794 21.0057 403.504 21.0057C397.243 21.0057 390.118 23.1648 386.879 30.7216L392.925 32.8807C394.328 29.858 397.648 26.6193 403.72 26.6193C409.577 26.6193 412.465 29.723 412.465 35.0398V35.2557C412.465 38.3324 409.334 38.0625 401.777 39.0341C394.085 40.0327 385.692 41.733 385.692 51.233C385.692 59.3295 391.953 63.9716 399.834 63.9716ZM400.805 58.25C395.732 58.25 392.061 55.983 392.061 51.5568C392.061 46.6989 396.487 45.1875 401.453 44.5398C404.152 44.2159 411.385 43.4602 412.465 42.1648V47.9943C412.465 53.1761 408.362 58.25 400.805 58.25ZM5.07244 138H26.2585C39.1051 138 44.9077 131.604 44.9077 123.129C44.9077 114.574 38.9162 109.743 33.4375 109.446V108.906C38.5114 107.611 42.7486 104.156 42.7486 97.2472C42.7486 89.0696 37.081 82.7273 25.3139 82.7273H5.07244V138ZM13.4119 130.848V113.143H25.7457C32.4389 113.143 36.6222 117.462 36.6222 122.724C36.6222 127.366 33.4645 130.848 25.4489 130.848H13.4119ZM13.4119 106.639V89.8253H24.8011C31.4134 89.8253 34.571 93.3068 34.571 97.8949C34.571 103.239 30.1989 106.639 24.5852 106.639H13.4119ZM76.6112 120.808C76.6382 127.852 71.4024 131.199 66.8683 131.199C61.8754 131.199 58.4209 127.582 58.4209 121.942V96.5455H50.3513V122.913C50.3513 133.196 55.9919 138.54 63.9536 138.54C70.1879 138.54 74.4251 135.247 76.3413 130.821H76.7732V138H84.7078V96.5455H76.6112V120.808ZM122.814 106.666C121.141 100.216 116.094 96.0057 107.134 96.0057C97.769 96.0057 91.1298 100.945 91.1298 108.286C91.1298 114.169 94.6923 118.082 102.465 119.81L109.482 121.348C113.476 122.239 115.339 124.02 115.339 126.611C115.339 129.822 111.911 132.332 106.621 132.332C101.79 132.332 98.6866 130.254 97.715 126.179L89.9153 127.366C91.2647 134.707 97.3641 138.837 106.675 138.837C116.688 138.837 123.624 133.52 123.624 126.017C123.624 120.161 119.9 116.544 112.289 114.79L105.704 113.278C101.143 112.199 99.1724 110.661 99.1994 107.854C99.1724 104.669 102.627 102.402 107.215 102.402C112.235 102.402 114.556 105.182 115.5 107.962L122.814 106.666ZM128.697 138H136.766V96.5455H128.697V138ZM132.772 90.1491C135.552 90.1491 137.873 87.9901 137.873 85.3452C137.873 82.7003 135.552 80.5142 132.772 80.5142C129.965 80.5142 127.671 82.7003 127.671 85.3452C127.671 87.9901 129.965 90.1491 132.772 90.1491ZM151.892 113.386C151.892 106.774 155.94 102.996 161.554 102.996C167.033 102.996 170.352 106.585 170.352 112.604V138H178.422V111.632C178.422 101.376 172.781 96.0057 164.307 96.0057C158.072 96.0057 153.997 98.8935 152.081 103.293H151.568V96.5455H143.822V138H151.892V113.386ZM203.311 138.837C212.352 138.837 218.748 134.384 220.583 127.636L212.946 126.26C211.488 130.173 207.98 132.17 203.392 132.17C196.483 132.17 191.841 127.69 191.625 119.702H221.096V116.841C221.096 101.862 212.136 96.0057 202.744 96.0057C191.193 96.0057 183.582 104.804 183.582 117.543C183.582 130.416 191.085 138.837 203.311 138.837ZM191.652 113.656C191.975 107.773 196.24 102.672 202.798 102.672C209.059 102.672 213.162 107.314 213.189 113.656H191.652ZM257.314 106.666C255.64 100.216 250.593 96.0057 241.633 96.0057C232.268 96.0057 225.629 100.945 225.629 108.286C225.629 114.169 229.191 118.082 236.964 119.81L243.981 121.348C247.976 122.239 249.838 124.02 249.838 126.611C249.838 129.822 246.41 132.332 241.12 132.332C236.289 132.332 233.186 130.254 232.214 126.179L224.414 127.366C225.764 134.707 231.863 138.837 241.174 138.837C251.187 138.837 258.123 133.52 258.123 126.017C258.123 120.161 254.399 116.544 246.788 114.79L240.203 113.278C235.642 112.199 233.672 110.661 233.699 107.854C233.672 104.669 237.126 102.402 241.714 102.402C246.734 102.402 249.055 105.182 250 107.962L257.314 106.666ZM294.26 106.666C292.586 100.216 287.54 96.0057 278.579 96.0057C269.214 96.0057 262.575 100.945 262.575 108.286C262.575 114.169 266.138 118.082 273.91 119.81L280.927 121.348C284.922 122.239 286.784 124.02 286.784 126.611C286.784 129.822 283.356 132.332 278.067 132.332C273.236 132.332 270.132 130.254 269.16 126.179L261.361 127.366C262.71 134.707 268.809 138.837 278.121 138.837C288.133 138.837 295.069 133.52 295.069 126.017C295.069 120.161 291.345 116.544 283.734 114.79L277.149 113.278C272.588 112.199 270.618 110.661 270.645 107.854C270.618 104.669 274.072 102.402 278.66 102.402C283.68 102.402 286.001 105.182 286.946 107.962L294.26 106.666ZM319.493 96.5455H310.991V86.6136H302.922V96.5455H296.849V103.023H302.922V127.501C302.895 135.031 308.643 138.675 315.013 138.54C317.577 138.513 319.304 138.027 320.248 137.676L318.791 131.01C318.251 131.118 317.253 131.361 315.957 131.361C313.339 131.361 310.991 130.497 310.991 125.828V103.023H319.493V96.5455ZM341.636 138.837C353.322 138.837 360.959 130.281 360.959 117.462C360.959 104.561 353.322 96.0057 341.636 96.0057C329.949 96.0057 322.312 104.561 322.312 117.462C322.312 130.281 329.949 138.837 341.636 138.837ZM341.663 132.062C334.025 132.062 330.462 125.396 330.462 117.435C330.462 109.5 334.025 102.753 341.663 102.753C349.246 102.753 352.809 109.5 352.809 117.435C352.809 125.396 349.246 132.062 341.663 132.062ZM369.783 153.438C376.45 153.438 380.687 149.956 383.062 143.533L400.2 96.6264L391.482 96.5455L380.984 128.716H380.552L370.053 96.5455H361.417L376.585 138.54L375.586 141.293C373.535 146.663 370.647 147.149 366.221 145.935L364.278 152.547C365.249 153.006 367.354 153.438 369.783 153.438ZM23.1818 213C40.0227 213 50.0085 202.582 50.0085 185.31C50.0085 168.091 40.0227 157.727 23.5597 157.727H4.4517V213H23.1818ZM14.4645 204.337V166.391H22.9929C34.2202 166.391 40.0767 172.652 40.0767 185.31C40.0767 198.021 34.2202 204.337 22.696 204.337H14.4645ZM55.2902 213H65.0601V171.545H55.2902V213ZM60.2021 165.662C63.3058 165.662 65.8428 163.287 65.8428 160.372C65.8428 157.43 63.3058 155.055 60.2021 155.055C57.0714 155.055 54.5345 157.43 54.5345 160.372C54.5345 163.287 57.0714 165.662 60.2021 165.662ZM89.389 213.81C101.534 213.81 109.253 205.254 109.253 192.435C109.253 179.588 101.534 171.006 89.389 171.006C77.2441 171.006 69.5254 179.588 69.5254 192.435C69.5254 205.254 77.2441 213.81 89.389 213.81ZM89.443 205.983C82.7228 205.983 79.4302 199.991 79.4302 192.408C79.4302 184.824 82.7228 178.751 89.443 178.751C96.0552 178.751 99.3478 184.824 99.3478 192.408C99.3478 199.991 96.0552 205.983 89.443 205.983ZM120.175 171.545H109.811L122.118 192.273L109.487 213H119.851L128.541 198.075L137.313 213H147.595L134.884 192.273L147.379 171.545H137.043L128.541 186.848L120.175 171.545ZM151.136 213H160.906V171.545H151.136V213ZM156.048 165.662C159.152 165.662 161.689 163.287 161.689 160.372C161.689 157.43 159.152 155.055 156.048 155.055C152.918 155.055 150.381 157.43 150.381 160.372C150.381 163.287 152.918 165.662 156.048 165.662ZM182.536 213.729C189.661 213.729 192.873 209.491 194.411 206.469H195.005V213H204.613V157.727H194.816V178.401H194.411C192.927 175.405 189.877 171.006 182.563 171.006C172.982 171.006 165.452 178.509 165.452 192.327C165.452 205.983 172.766 213.729 182.536 213.729ZM185.262 205.713C178.812 205.713 175.411 200.045 175.411 192.273C175.411 184.554 178.758 179.021 185.262 179.021C191.55 179.021 195.005 184.23 195.005 192.273C195.005 200.315 191.496 205.713 185.262 205.713ZM229.576 213.81C239.238 213.81 245.877 209.087 247.604 201.881L238.482 200.855C237.16 204.364 233.921 206.199 229.711 206.199C223.396 206.199 219.212 202.043 219.131 194.945H248.009V191.949C248.009 177.402 239.265 171.006 229.063 171.006C217.188 171.006 209.443 179.723 209.443 192.516C209.443 205.524 217.08 213.81 229.576 213.81ZM219.158 188.359C219.455 183.07 223.369 178.616 229.198 178.616C234.812 178.616 238.59 182.719 238.644 188.359H219.158ZM13.331 288L17.4332 275.396H37.3778L41.4801 288H54.0028L34.9489 232.727H19.8892L0.808239 288H13.331ZM20.402 266.274L27.2031 245.358H27.6349L34.4361 266.274H20.402ZM83.2234 270.349C83.2504 275.909 79.445 278.824 75.3158 278.824C70.9706 278.824 68.1638 275.774 68.1368 270.889V246.545H56.6396V272.94C56.6666 282.629 62.3342 288.54 70.6737 288.54C76.9081 288.54 81.3882 285.328 83.2504 280.47H83.6822V288H94.7206V246.545H83.2234V270.349ZM122.167 246.545H114.367V236.614H102.87V246.545H97.2022V255.182H102.87V276.773C102.816 284.896 108.349 288.918 116.688 288.567C119.657 288.459 121.762 287.865 122.922 287.487L121.114 278.932C120.547 279.04 119.333 279.31 118.253 279.31C115.959 279.31 114.367 278.446 114.367 275.261V255.182H122.167V246.545ZM144.141 288.81C156.718 288.81 164.544 280.2 164.544 267.435C164.544 254.588 156.718 246.006 144.141 246.006C131.564 246.006 123.737 254.588 123.737 267.435C123.737 280.2 131.564 288.81 144.141 288.81ZM144.195 279.903C138.392 279.903 135.424 274.587 135.424 267.354C135.424 260.121 138.392 254.777 144.195 254.777C149.889 254.777 152.858 260.121 152.858 267.354C152.858 274.587 149.889 279.903 144.195 279.903ZM168.22 288H179.717V263.116C179.717 258.528 182.632 255.479 186.464 255.479C190.243 255.479 192.78 258.07 192.78 262.145V288H203.926V262.685C203.926 258.393 206.382 255.479 210.565 255.479C214.236 255.479 216.989 257.773 216.989 262.388V288H228.459V260.121C228.459 251.134 223.115 246.006 215.396 246.006C209.324 246.006 204.601 249.109 202.901 253.859H202.469C201.146 249.055 196.909 246.006 191.214 246.006C185.628 246.006 181.391 248.974 179.663 253.859H179.177V246.545H168.22V288ZM245.561 288.783C251.688 288.783 255.655 286.111 257.679 282.251H258.003V288H268.907V260.04C268.907 250.162 260.54 246.006 251.31 246.006C241.378 246.006 234.847 250.756 233.255 258.312L243.888 259.176C244.671 256.423 247.127 254.399 251.256 254.399C255.169 254.399 257.409 256.369 257.409 259.77V259.932C257.409 262.604 254.576 262.955 247.37 263.656C239.165 264.412 231.797 267.165 231.797 276.422C231.797 284.626 237.654 288.783 245.561 288.783ZM248.854 280.848C245.319 280.848 242.782 279.202 242.782 276.044C242.782 272.805 245.453 271.213 249.502 270.646C252.012 270.295 256.114 269.702 257.49 268.784V273.183C257.49 277.528 253.901 280.848 248.854 280.848ZM296.076 246.545H288.276V236.614H276.779V246.545H271.112V255.182H276.779V276.773C276.725 284.896 282.258 288.918 290.597 288.567C293.566 288.459 295.671 287.865 296.832 287.487L295.024 278.932C294.457 279.04 293.242 279.31 292.163 279.31C289.869 279.31 288.276 278.446 288.276 275.261V255.182H296.076V246.545ZM318.05 288.81C330.627 288.81 338.454 280.2 338.454 267.435C338.454 254.588 330.627 246.006 318.05 246.006C305.474 246.006 297.647 254.588 297.647 267.435C297.647 280.2 305.474 288.81 318.05 288.81ZM318.104 279.903C312.302 279.903 309.333 274.587 309.333 267.354C309.333 260.121 312.302 254.777 318.104 254.777C323.799 254.777 326.768 260.121 326.768 267.354C326.768 274.587 323.799 279.903 318.104 279.903ZM353.627 264.034C353.654 258.69 356.838 255.56 361.48 255.56C366.095 255.56 368.875 258.582 368.848 263.656V288H380.345V261.605C380.345 251.943 374.678 246.006 366.041 246.006C359.888 246.006 355.435 249.028 353.573 253.859H353.087V246.545H342.129V288H353.627V264.034Z" fill="black" fill-opacity="0.9"/>
<path d="M467.562 7.72727V63H482.244V30.8295H482.676L494.983 62.5682H503.835L516.142 31.0455H516.574V63H531.256V7.72727H512.58L499.733 39.0341H499.085L486.239 7.72727H467.562ZM534.783 63H549.681V21.5455H534.783V63ZM542.232 17.2273C546.28 17.2273 549.573 14.1776 549.573 10.4261C549.573 6.67471 546.28 3.625 542.232 3.625C538.184 3.625 534.891 6.67471 534.891 10.4261C534.891 14.1776 538.184 17.2273 542.232 17.2273ZM568.369 39.6818C568.396 35.5795 570.717 33.0966 574.415 33.0966C578.166 33.0966 580.379 35.5795 580.352 39.6818V63H595.25V36.5511C595.277 27.5369 589.582 21.0057 580.784 21.0057C574.684 21.0057 569.853 24.1903 568.045 29.4261H567.613V21.5455H553.471V63H568.369V39.6818ZM625.685 44.8636C625.712 48.9659 623.337 51.4489 619.639 51.4489C615.888 51.4489 613.729 48.9659 613.702 44.8636V21.5455H598.804V47.9943C598.831 57.0625 604.553 63.5398 613.27 63.5398C619.451 63.5398 624.201 60.4091 626.009 55.1193H626.441V63H640.583V21.5455H625.685V44.8636ZM669.081 21.5455H661.956V11.6136H647.059V21.5455H641.769V32.3409H647.059V51.071C646.951 59.7614 652.321 64.1605 662.604 63.5938C665.978 63.4048 668.488 62.7031 669.837 62.2983L667.678 51.8267C667.111 51.9616 665.654 52.2585 664.763 52.2585C662.82 52.2585 661.956 51.3949 661.956 49.6676V32.3409H669.081V21.5455ZM690.779 63.7557C702.276 63.7557 709.671 58.25 711.074 49.6136H697.472C696.608 51.9616 694.152 53.2841 691.103 53.2841C686.676 53.2841 684.086 50.3693 684.086 46.375V45.7273H711.074V42.2727C711.074 29.0753 702.978 21.0057 690.455 21.0057C677.608 21.0057 669.404 29.5341 669.404 42.3807C669.404 55.794 677.5 63.7557 690.779 63.7557ZM684.086 37.5227C684.167 33.9332 687.135 31.4773 690.779 31.4773C694.476 31.4773 697.283 33.9602 697.364 37.5227H684.086ZM746.177 63.7557C759.698 63.7557 769.225 56.8736 769.171 47.1307C769.225 40.3565 764.691 35.5795 755.785 34.608V34.1761C762.37 33.4744 767.174 29.2372 767.12 23.0568C767.174 13.7457 758.538 6.97159 746.285 6.97159C733.762 6.97159 724.856 14.1236 724.802 24.2443H739.16C739.214 20.8977 742.156 18.5227 746.285 18.5227C750.063 18.5227 752.708 20.8168 752.654 24.0284C752.708 27.375 749.578 29.75 745.097 29.75H739.484V40.1136H745.097C749.955 40.1136 753.356 42.4886 753.302 45.8352C753.356 49.2628 750.441 51.6648 746.285 51.6648C741.967 51.6648 738.89 49.3707 738.836 46.1591H723.722C723.776 56.4688 733.087 63.7557 746.177 63.7557ZM795.174 63.7557C808.236 63.7557 817.358 55.902 817.304 44C817.358 33.8793 810.584 26.5114 800.571 26.5114C794.256 26.5114 788.534 29.5341 786.429 34.608H786.105C786.159 25.4588 788.966 19.4943 795.281 19.4943C798.439 19.4943 801.192 20.8977 801.867 24.2443H816.656C815.712 14.5824 807.48 6.75568 795.281 6.75568C780.789 6.75568 771.262 17.875 771.208 36.0114C771.262 56.0909 782.273 63.7557 795.174 63.7557ZM795.066 52.4205C790.693 52.4205 787.455 49.1009 787.401 44.5398C787.455 39.9787 790.693 36.6591 795.066 36.6591C799.546 36.6591 802.784 39.9787 802.73 44.5398C802.784 49.1009 799.546 52.4205 795.066 52.4205ZM844.372 64.5114C859.405 64.5384 868.743 53.7699 868.77 35.4716C868.797 17.2812 859.405 6.97159 844.372 6.97159C829.313 6.97159 820.029 17.2273 819.975 35.4716C819.921 53.6889 829.313 64.4844 844.372 64.5114ZM844.372 52.3125C839.191 52.3125 835.466 47.1037 835.52 35.4716C835.574 24.1094 839.191 19.0625 844.372 19.0625C849.554 19.0625 853.198 24.1094 853.225 35.4716C853.252 47.1037 849.554 52.3125 844.372 52.3125ZM467.994 138H511.716V127.151H484.889L511.743 90.3381V82.7273H468.021V93.5767H494.848L467.994 130.389V138ZM535.492 138.783C546.368 138.783 553.52 133.52 555.031 125.369L542.913 125.018C541.888 127.771 539.189 129.256 535.734 129.256C530.661 129.256 527.53 125.882 527.53 120.808V120.457H555.166V117.165C555.166 103.509 546.854 96.0057 535.087 96.0057C522.564 96.0057 514.521 104.588 514.521 117.435C514.521 130.713 522.456 138.783 535.492 138.783ZM527.53 112.793C527.719 108.663 530.984 105.533 535.357 105.533C539.702 105.533 542.832 108.555 542.886 112.793H527.53ZM571.304 114.358C571.331 109.635 574.084 106.828 578.267 106.828C582.45 106.828 584.933 109.581 584.906 114.169V138H598.104V111.578C598.131 102.24 592.436 96.0057 583.719 96.0057C577.592 96.0057 572.95 99.1094 571.115 104.156H570.656V96.5455H558.107V138H571.304V114.358ZM602.475 138H615.672V96.5455H602.475V138ZM609.087 91.7145C612.838 91.7145 615.861 88.8807 615.861 85.3991C615.861 81.9176 612.838 79.1108 609.087 79.1108C605.362 79.1108 602.313 81.9176 602.313 85.3991C602.313 88.8807 605.362 91.7145 609.087 91.7145ZM643.671 96.5455H636.196V86.6136H622.998V96.5455H617.519V106.261H622.998V126.422C622.917 134.815 628.369 139.026 637.68 138.594C640.865 138.432 643.159 137.784 644.427 137.406L642.43 127.879C641.863 128.014 640.541 128.284 639.542 128.284C637.41 128.284 636.196 127.42 636.196 124.964V106.261H643.671V96.5455ZM660.693 114.358C660.72 109.635 663.527 106.828 667.71 106.828C671.947 106.828 674.403 109.554 674.376 114.169V138H687.574V111.578C687.601 102.186 681.879 96.0057 673.162 96.0057C666.955 96.0057 662.582 99.0554 660.72 104.156H660.261V82.7273H647.496V138H660.693V114.358ZM704.648 138H740.246V127.744H721.786V127.474L739.599 104.804V96.5455H705.323V106.801H723.864V107.071L704.648 130.47V138ZM763.138 138.783C776.174 138.783 784.081 130.173 784.081 117.408C784.081 104.615 776.174 96.0057 763.138 96.0057C750.102 96.0057 742.195 104.615 742.195 117.408C742.195 130.173 750.102 138.783 763.138 138.783ZM763.219 128.824C758.334 128.824 755.635 124.182 755.635 117.327C755.635 110.445 758.334 105.776 763.219 105.776C767.942 105.776 770.641 110.445 770.641 117.327C770.641 124.182 767.942 128.824 763.219 128.824ZM800.239 114.358C800.266 109.635 803.019 106.828 807.202 106.828C811.386 106.828 813.869 109.581 813.842 114.169V138H827.039V111.578C827.066 102.24 821.371 96.0057 812.654 96.0057C806.528 96.0057 801.886 99.1094 800.05 104.156H799.592V96.5455H787.042V138H800.239V114.358ZM850.788 138.783C861.664 138.783 868.816 133.52 870.327 125.369L858.21 125.018C857.184 127.771 854.485 129.256 851.031 129.256C845.957 129.256 842.826 125.882 842.826 120.808V120.457H870.462V117.165C870.462 103.509 862.15 96.0057 850.383 96.0057C837.86 96.0057 829.817 104.588 829.817 117.435C829.817 130.713 837.752 138.783 850.788 138.783ZM842.826 112.793C843.015 108.663 846.281 105.533 850.653 105.533C854.998 105.533 858.129 108.555 858.183 112.793H842.826ZM487.21 157.727H481.947L468.885 166.391V171.626L481.839 163.017H482.163V213H487.21V157.727ZM500.197 213H534.554V208.466H507.214V208.115L520.924 192.812C530.101 182.665 532.826 178.077 532.826 171.95C532.826 163.53 526.187 156.972 516.93 156.972C507.592 156.972 500.656 163.557 500.656 172.706H505.487C505.487 166.148 509.967 161.425 516.795 161.425C523.218 161.425 528.076 165.635 528.076 171.95C528.076 177.186 525.297 181.072 518.253 189.007L500.197 209.303V213ZM560.731 213.756C571.095 213.756 578.652 207.062 578.652 198.21C578.652 191.193 574.334 186.038 567.29 184.635V184.284C573.092 182.557 576.763 177.861 576.763 171.545C576.763 163.638 570.555 156.972 560.839 156.972C551.582 156.972 544.187 162.909 543.971 171.545H548.856C549.018 165.365 554.362 161.425 560.785 161.425C567.451 161.425 571.851 165.662 571.851 171.761C571.851 178.212 566.696 182.341 559.544 182.341H556.305V186.875H559.544C568.288 186.875 573.686 191.49 573.686 198.21C573.686 204.58 568.315 209.222 560.677 209.222C553.633 209.222 548.128 205.227 547.858 199.182H542.757C543.027 207.791 550.476 213.756 560.731 213.756ZM585.458 201.125H611.259V213H616.063V201.125H623.404V196.591H616.063V157.727H610.099L585.458 197.023V201.125ZM611.259 196.591H591.099V196.24L610.882 164.609H611.259V196.591ZM646.721 213.756C656.923 213.756 664.318 206.01 664.345 195.538C664.372 184.851 656.842 177.267 647.099 177.267C643.159 177.267 639.488 178.697 637.059 180.749H636.789L639.002 162.261H662.078V157.727H634.765L631.446 184.581L636.492 185.229C638.867 183.259 642.673 181.855 646.397 181.882C653.738 181.909 659.433 187.523 659.46 195.619C659.46 203.419 654.143 209.222 646.721 209.222C640.352 209.222 635.629 205.038 635.305 199.182H630.42C630.663 207.629 637.518 213.756 646.721 213.756ZM689.436 213.756C699.989 213.837 706.925 205.524 706.925 195.619C706.925 185.229 699.26 177.618 690.057 177.618C684.119 177.618 678.884 180.803 676.266 185.688H675.915C675.942 170.169 681.124 161.425 690.192 161.425C696.507 161.425 700.339 165.635 701.365 171.545H706.331C705.251 162.882 699.125 156.891 690.192 156.891C677.453 156.891 671.165 169.602 671.165 187.658C671.165 207.089 680.26 213.675 689.436 213.756ZM689.436 209.222C682.554 209.222 677.453 203.581 676.859 195.943C676.32 188.656 682.068 182.152 689.436 182.152C696.615 182.152 702.04 188.143 702.04 195.619C702.04 203.149 696.615 209.222 689.436 209.222ZM716.133 213H721.45L746.603 162.477V157.727H712.301V162.261H741.314V162.612L716.133 213ZM769.536 213.756C780.061 213.756 787.753 207.224 787.78 198.453C787.753 191.598 783.03 185.58 776.769 184.365V184.068C782.166 182.53 785.783 177.375 785.81 171.438C785.783 163.179 778.739 156.972 769.536 156.972C760.252 156.972 753.235 163.206 753.288 171.438C753.235 177.375 756.878 182.503 762.303 184.068V184.365C755.987 185.607 751.264 191.598 751.291 198.453C751.264 207.224 758.956 213.756 769.536 213.756ZM769.536 209.222C761.628 209.222 756.23 204.607 756.257 198.21C756.23 191.598 761.925 186.632 769.536 186.632C777.092 186.632 782.787 191.598 782.814 198.21C782.787 204.607 777.416 209.222 769.536 209.222ZM769.536 182.314C763.031 182.314 758.146 177.834 758.173 171.734C758.146 165.689 762.923 161.425 769.536 161.425C776.094 161.425 780.871 165.689 780.925 171.734C780.871 177.834 775.986 182.314 769.536 182.314ZM811.812 156.864C801.232 156.783 794.323 165.095 794.323 175C794.323 185.391 801.961 193.001 811.191 193.001C817.129 193.001 822.392 189.79 824.982 184.932H825.333C825.333 200.477 820.098 209.222 811.056 209.222C804.768 209.222 800.882 204.984 799.91 199.074H794.944C795.97 207.791 802.123 213.756 811.056 213.756C823.795 213.756 830.083 201.017 830.083 182.962C830.083 163.557 820.988 156.945 811.812 156.864ZM811.812 161.398C818.694 161.398 823.795 167.038 824.416 174.676C824.955 181.936 819.153 188.467 811.812 188.467C804.606 188.467 799.208 182.53 799.208 175C799.208 167.47 804.606 161.398 811.812 161.398ZM854.864 213.756C866.496 213.756 873.324 203.257 873.324 185.364C873.324 167.551 866.442 156.972 854.864 156.972C843.286 156.972 836.404 167.551 836.404 185.364C836.404 203.257 843.232 213.756 854.864 213.756ZM854.864 209.222C846.363 209.222 841.289 200.504 841.289 185.364C841.289 170.25 846.39 161.425 854.864 161.425C863.339 161.425 868.44 170.25 868.44 185.364C868.44 200.504 863.366 209.222 854.864 209.222ZM887.445 157.727H881.993L882.344 197.158H887.094L887.445 157.727ZM884.719 213.405C886.878 213.405 888.605 211.651 888.605 209.518C888.605 207.359 886.878 205.632 884.719 205.632C882.587 205.632 880.833 207.359 880.833 209.518C880.833 211.651 882.587 213.405 884.719 213.405ZM511.824 250H513.551C512.256 242.119 505.32 231.972 492.392 231.972C478.682 231.972 469.506 243.361 469.506 260.364C469.506 277.286 478.574 288.756 492.608 288.756C505.023 288.756 513.983 279.795 513.983 264.682V262.955H493.148V264.682H512.256C512.229 278.743 503.997 287.028 492.608 287.028C479.545 287.028 471.233 276.152 471.233 260.364C471.233 244.386 479.707 233.699 492.392 233.699C503.754 233.699 510.501 242.47 511.824 250ZM523.65 288H525.378V260.148C525.378 252.915 530.667 247.733 538.008 247.733H538.872V246.006H538.008C532.287 246.006 527.537 248.812 525.593 253.131H525.378V246.545H523.65V288ZM554.929 288.864C561.19 288.864 566.264 285.193 568.855 279.58H569.071V288H570.798V258.205C570.798 251.188 565.724 245.898 557.304 245.898C550.826 245.898 545.429 249.136 543.486 254.318L545.105 254.966C546.832 250.324 551.474 247.625 557.304 247.625C564.429 247.625 569.071 251.835 569.071 258.205V260.688C569.071 263.926 563.673 264.574 557.951 265.222C545.213 266.733 542.298 271.159 542.298 276.773C542.298 284.545 548.128 288.864 554.929 288.864ZM554.929 287.136C548.775 287.136 544.025 283.034 544.025 276.773C544.025 271.483 547.48 268.136 558.599 266.841C563.349 266.301 567.02 265.545 569.071 264.034V270.295C569.071 280.335 562.809 287.136 554.929 287.136ZM596.132 246.545H587.172V240.5C587.172 235.669 590.816 232.727 594.945 232.727C595.997 232.727 596.807 232.916 597.698 233.213L598.237 231.594C597.212 231.243 596.24 231 594.945 231C589.844 231 585.445 234.67 585.445 240.5V246.545H579.723V248.273H585.445V288H587.172V248.273H596.132V246.545ZM603.458 288H605.186V246.545H603.458V288ZM604.322 238.989C605.267 238.989 606.049 238.206 606.049 237.261C606.049 236.317 605.267 235.534 604.322 235.534C603.377 235.534 602.595 236.317 602.595 237.261C602.595 238.206 603.377 238.989 604.322 238.989ZM616.29 288H618.017V270.835L623.361 265.599L641.12 288H643.387L624.576 264.412L642.739 246.545H640.256L618.233 268.136H618.017V232.727H616.29V288ZM680.595 288.864C687.234 288.864 692.362 284.491 694.629 277.636H694.845V288H696.572V232.727H694.845V257.125H694.629C692.47 250.216 687.18 245.898 680.595 245.898C670.879 245.898 664.617 255.182 664.617 267.381C664.617 279.634 670.771 288.864 680.595 288.864ZM680.595 287.136C671.796 287.136 666.345 278.608 666.345 267.381C666.345 256.153 671.85 247.625 680.595 247.625C689.339 247.625 694.845 256.153 694.845 267.381C694.845 278.608 689.393 287.136 680.595 287.136ZM724.268 288.864C732.337 288.864 736.79 283.79 738.626 280.659L737.222 279.688C735.711 282.17 731.905 287.136 724.268 287.136C713.85 287.136 707.993 278.095 707.966 267.273H740.353V265.545C740.353 254.831 733.039 245.898 723.404 245.898C713.607 245.898 706.239 255.182 706.239 267.381C706.239 279.58 713.391 288.864 724.268 288.864ZM708.02 265.545C708.749 255.236 715.253 247.625 723.404 247.625C731.797 247.625 738.626 255.587 738.626 265.545H708.02ZM773.615 255.29C771.591 249.082 767.273 245.898 760.876 245.898C753.32 245.898 748.03 250.297 748.03 256.801C748.03 261.983 751.376 265.68 757.746 267.273L764.223 268.892C769.54 270.214 772.212 273.237 772.212 277.528C772.212 283.304 767.327 287.136 760.121 287.136C753.535 287.136 749.46 283.952 748.246 278.068L746.518 278.5C747.922 285.112 752.753 288.864 760.121 288.864C768.244 288.864 773.939 284.303 773.939 277.528C773.939 272.428 770.727 268.676 764.655 267.165L758.177 265.545C752.537 264.142 749.757 261.146 749.757 256.801C749.757 251.295 754.264 247.625 760.876 247.625C766.571 247.625 770.187 250.324 771.888 255.722L773.615 255.29ZM782.682 288H784.409V246.545H782.682V288ZM783.545 238.989C784.49 238.989 785.273 238.206 785.273 237.261C785.273 236.317 784.49 235.534 783.545 235.534C782.601 235.534 781.818 236.317 781.818 237.261C781.818 238.206 782.601 238.989 783.545 238.989ZM809.548 304.409C819.129 304.409 824.985 299.092 824.985 288.864V246.545H823.258V257.125H823.042C820.775 250.216 815.701 245.898 809.008 245.898C799.184 245.898 793.031 255.074 793.031 267.381C793.031 279.58 799.292 288 809.008 288C815.161 288 820.883 284.545 823.042 277.636H823.258V288.864C823.258 298.175 818.184 302.682 809.548 302.682C803.313 302.682 798.347 300.334 796.485 295.449L794.866 296.097C796.971 301.629 802.585 304.409 809.548 304.409ZM809.008 286.273C800.264 286.273 794.758 278.608 794.758 267.381C794.758 256.153 800.21 247.625 809.008 247.625C817.806 247.625 823.258 256.153 823.258 267.381C823.258 279.013 817.644 286.273 809.008 286.273ZM837.824 260.148C837.824 252.915 843.113 247.733 850.454 247.733C857.795 247.733 862.869 252.807 862.869 260.148V288H864.596V260.148C864.596 251.835 858.767 246.006 850.454 246.006C844.733 246.006 839.983 248.812 838.04 253.131H837.824V246.545H836.096V288H837.824V260.148Z" fill="black" fill-opacity="0.9"/>
</g>
<defs>
<clipPath id="clip0">
<rect width="888" height="307" fill="white"/>
</clipPath>
</defs>
</svg>
